<?xml version="1.0" standalone="no"?>
<!DOCTYPE svg PUBLIC "-//W3C//DTD SVG 1.1//EN" "http://www.w3.org/Graphics/SVG/1.1/DTD/svg11.dtd" >
<svg xmlns="http://www.w3.org/2000/svg">
<metadata>
This is a custom SVG webfont generated by Font Squirrel.
Copyright   : Copyright c 2010 by Studio Kmzero All rights reserved
Designer    : Francesco Canovaro Cosimo Lorenzo Pancini Matteo Di Iorio
Foundry     : Studio Kmzero
Foundry URL : wwwzerofontscom
</metadata>
<defs>
<font id="AntipastoExtraBold" horiz-adv-x="1226" >
<font-face units-per-em="2048" ascent="1638" descent="-410" />
<missing-glyph horiz-adv-x="542" />
<glyph unicode=" "  horiz-adv-x="542" />
<glyph unicode="&#x09;" horiz-adv-x="542" />
<glyph unicode="&#xa0;" horiz-adv-x="542" />
<glyph unicode="!" horiz-adv-x="329" d="M76 82q0 74 48 122t122 48q76 0 126 -48t50 -122q0 -76 -50 -126t-126 -50q-74 0 -122 50t-48 126zM76 530v680q0 76 48 123t122 47q76 0 126 -47t50 -123v-680q0 -74 -50 -122t-128 -48q-76 0 -122 48t-46 122z" />
<glyph unicode="&#x22;" horiz-adv-x="946" d="M104 1057v276q0 74 45.5 122t120.5 48q80 0 129.5 -48t49.5 -122v-276q0 -74 -49.5 -121t-125.5 -47q-74 0 -122 47t-48 121zM496 1057v276q0 74 45 122t121 48q78 0 128 -48t50 -122v-276q0 -74 -50.5 -121t-125.5 -47q-74 0 -121 47t-47 121z" />
<glyph unicode="#" horiz-adv-x="1372" d="M66 504q0 74 47 122t120 48h142l35 114h-62q-74 0 -122 50.5t-48 126.5q0 74 48 121t122 47h166l57 190q20 68 83 99q38 19 80 20q27 0 54 -8q72 -23 105 -82q19 -35 19 -74q0 -27 -9 -55l-29 -90h99l55 190q23 68 84 99q37 19 79 20q27 0 54 -8q72 -23 105 -82 q20 -37 20 -77q0 -25 -8 -52l-29 -90h43q74 0 122 -49.5t48 -127.5q0 -74 -48 -121t-122 -47h-147l-35 -114h70q74 0 122 -50.5t48 -125.5q0 -74 -48.5 -122t-121.5 -48h-174l-66 -219q-20 -70 -83 -102q-37 -19 -76 -18q-28 0 -58 9q-70 23 -101 82q-19 36 -20 76 q0 26 8 53l35 119h-98l-64 -219q-23 -70 -84 -102q-36 -19 -75 -18q-28 0 -58 9q-70 23 -102 82q-19 35 -20 74q0 27 10 55l32 119h-37q-74 0 -120.5 50t-46.5 126zM735 674h99l34 114h-98z" />
<glyph unicode="$" horiz-adv-x="1044" d="M111 291q0 68 47 121t112 53q39 0 67 -8t60 -33q23 -18 40.5 -30.5l33.5 -23t37.5 -15.5t50.5 -7q14 0 39 2t49.5 11.5t43 31t18.5 62.5q0 66 -36 100.5t-128 65.5q-80 27 -149.5 58.5t-122 74.5t-83 101t-30.5 136q0 96 29.5 164t76.5 113t107.5 70.5t124.5 35.5v74 q0 47 30.5 79t81.5 32q47 0 81 -28t34 -83v-74q49 -10 95 -32.5t89 -55.5q33 -29 61.5 -72t28.5 -90q0 -51 -43 -92q-23 -25 -51 -34t-59 -9q-49 0 -94 21q-33 12 -50.5 21t-31 13.5t-27.5 5.5t-39 3q-9 1 -17 0q-46 0 -63 -20q-20 -24 -20 -46q12 -66 178 -117 q100 -31 168 -75.5t111 -100t61 -118t18 -127.5q0 -86 -25.5 -156t-68.5 -123t-99 -90t-122 -55v-58q0 -49 -33 -80.5t-82 -31.5q-51 0 -81.5 31.5t-30.5 80.5v37q-59 6 -116.5 23.5t-109 46t-90.5 67.5t-59 86q-12 33 -12 64z" />
<glyph unicode="%" horiz-adv-x="1695" d="M74 1130q0 66 23.5 123.5t66.5 100.5t101.5 68.5t125.5 27.5q63 0 119.5 -24.5t99.5 -69.5t69 -102.5t26 -123.5q0 -61 -25 -119.5t-67 -100.5t-100 -66.5t-123.5 -24.5t-122 23.5t-100.5 64.5t-68.5 98t-24.5 125zM352 1133q0 -14 10.5 -25.5t26.5 -11.5t26.5 11 t10.5 26q0 37 -37 36q-16 0 -26.5 -9t-10.5 -27zM463 219l346 1104q23 68 85 99q38 19 79 20q26 0 53 -8q70 -25 102 -84q19 -35 20 -74q0 -27 -9 -55l-346 -1104q-25 -70 -86 -101q-35 -18 -75 -17q-28 0 -59 9q-70 23 -101 82q-19 35 -19 73q1 27 10 56zM971 311 q0 63 23.5 122t65.5 100.5t101.5 67.5t126.5 28q61 0 117.5 -24.5t100.5 -68.5t70 -102.5t26 -122t-25 -121t-67 -100.5t-101 -67.5t-123 -24.5q-66 0 -122 23.5t-100 65.5t-68.5 99t-24.5 125zM1249 313.5q0 -16.5 10.5 -27t27 -10.5t26.5 10.5t10 26.5q0 37 -37 37 q-16 0 -26.5 -10t-10.5 -26.5z" />
<glyph unicode="&#x26;" horiz-adv-x="1306" d="M88 457q4 76 35 139t70 106q45 53 102 95q-33 20 -55 55q-23 29 -40.5 79t-17.5 126q0 74 29 135t76 104t110.5 66.5t132.5 23.5q162 0 255.5 -91t93.5 -240q0 -76 -26 -132.5t-56 -93.5q-37 -43 -80 -73l203 -244q8 6 22 21.5t23 19.5q59 49 118 49q55 0 94.5 -38 t39.5 -93q0 -33 -17.5 -68.5t-60.5 -66.5l-41 -33l57 -63q39 -45 39 -99q0 -61 -43 -100q-43 -41 -102.5 -41t-100.5 43l-55 59q-74 -51 -163 -83.5t-202 -32.5q-90 0 -169.5 27.5t-141 85t-96.5 146.5q-33 84 -33 198v14zM362 426q0 -53 23 -85t54.5 -49.5t66.5 -23.5 t59 -6q18 2 45 10.5t49 16.5q27 8 58 22l-242 283q-33 -14 -55 -39q-23 -20 -40.5 -52t-17.5 -77zM461 1054.5q0 -30.5 19.5 -50t49.5 -19.5q29 0 49.5 19.5t20.5 50t-20.5 50t-49.5 19.5q-31 0 -50 -19.5t-19 -50z" />
<glyph unicode="'" horiz-adv-x="552" d="M104 1057v276q0 74 45.5 122t120.5 48q80 0 129.5 -48t49.5 -122v-276q0 -74 -49.5 -121t-125.5 -47q-74 0 -122 47t-48 121z" />
<glyph unicode="(" horiz-adv-x="727" d="M76 274v842q0 76 23.5 163t74.5 160.5t131 123t193 51.5q72 0 123 -51.5t51 -122.5q0 -70 -52.5 -121t-127.5 -51q-27 0 -41.5 -22.5t-20.5 -53.5q-8 -35 -8 -76v98v-940q0 -43 8 -77q6 -29 20.5 -53.5t41.5 -22.5q76 0 128 -50.5t52 -119.5q0 -72 -51.5 -123t-122.5 -51 q-113 2 -193 51t-131 123t-74.5 159.5t-23.5 163.5z" />
<glyph unicode=")" horiz-adv-x="741" d="M78 -49q0 70 52 120t128 50q27 -2 41 22.5t20 53.5q8 35 9 77v940v-98q0 41 -9 76q-6 31 -20 53.5t-41 22.5q-76 0 -128 51t-52 121q0 72 51 123t123 51q113 -2 191.5 -51.5t130 -123t76 -160.5t24.5 -163v-842q0 -78 -24.5 -163.5t-76 -159.5t-130 -123t-191.5 -51 q-72 0 -123 51t-51 123z" />
<glyph unicode="*" horiz-adv-x="1200" d="M102 1024q0 45 20.5 82t61.5 59l62 35l-56 31q-43 25 -63.5 63.5t-20.5 81.5t25 84q23 45 62.5 68.5t87.5 23.5q41 0 84 -24l41 -23v41q0 5 -1 11q0 65 47 110q50 49 126 49q9 1 16 1q63 0 106 -42q49 -47 48 -123v-67l73 41q41 27 86 26q43 0 82 -22.5t66 -67.5 q29 -45 28 -88q0 -41 -21.5 -77.5t-64.5 -61.5l-61 -35l61 -35q41 -23 62.5 -59.5t21.5 -81.5q0 -51 -28 -94q-25 -45 -62 -66.5t-80 -21.5q-47 0 -88 26l-67 37l2 -57v-11q0 -67 -47 -111q-51 -48 -119 -48h-12q-66 0 -112 43q-50 47 -54 121l-2 59l-50 -29 q-43 -27 -86 -26q-45 0 -83.5 23.5t-61.5 60.5q-29 43 -29 94z" />
<glyph unicode="+" horiz-adv-x="1101" d="M99 794.5q46 49.5 122 49.5h152v162q0 74 49 121t129 47q76 0 122 -47.5t46 -120.5l-2 -160h149q76 0 124 -45t48 -121q0 -78 -48 -127t-122 -51h-153l2 -168q0 -74 -48 -121t-122 -47h-6q-72 0 -120 46q-50 48 -50 122l-2 166l-146 2q-76 2 -124 46q-46 42 -46 114 q0 83 46 132.5z" />
<glyph unicode="," horiz-adv-x="559" d="M104 88q0 76 45.5 123t120.5 47q80 0 129.5 -47t49.5 -123v-238q0 -74 -49.5 -121.5t-125.5 -47.5q-74 0 -122 48t-48 121v238z" />
<glyph unicode="-" horiz-adv-x="1005" d="M102 674q0 74 47.5 121t120.5 47h465q74 0 122 -51.5t48 -116.5q0 -74 -48 -125t-122 -51h-465q-74 0 -121 50t-47 126z" />
<glyph unicode="." horiz-adv-x="589" d="M98 193q0 82 56.5 138t136.5 56t136 -56.5t56 -137.5q0 -80 -56 -136.5t-136 -56.5t-136.5 56.5t-56.5 136.5z" />
<glyph unicode="/" horiz-adv-x="854" d="M84 219l348 1104q23 68 85 99q38 19 79 20q26 0 53 -8q70 -25 103 -84q19 -35 19 -74q0 -27 -9 -55l-348 -1104q-23 -70 -85 -101q-36 -18 -75 -17q-29 0 -59 9q-70 23 -101 82q-18 36 -18 75q0 26 8 54z" />
<glyph unicode="0" horiz-adv-x="1550" d="M84 690.5q0 143.5 54.5 269t148.5 220t219 148.5t268.5 54t269 -54t221 -148.5t149.5 -220t54 -269t-54 -269.5t-149.5 -219t-221 -147.5t-269 -54.5t-268.5 54.5t-219 147.5t-148.5 219t-54.5 269.5zM430 688q0 -72 26.5 -134t75 -110.5t111 -76t134 -27.5t135 27.5 t111.5 76t74.5 110.5t26.5 134t-26.5 134.5t-74.5 110.5t-111.5 75.5t-135 27.5t-134 -27.5t-111 -75.5t-75 -110.5t-26.5 -134.5z" />
<glyph unicode="1" horiz-adv-x="847" d="M102 1016q0 31 13.5 60.5t40.5 49.5l276 209q25 18 53.5 32.5t65.5 14.5q78 0 128 -47t50 -121v-1044q0 -74 -50 -122t-126 -48q-74 0 -121 48t-47 122v698q-49 -37 -102 -37q-70 0 -127 58q-54 53 -54 127z" />
<glyph unicode="2" horiz-adv-x="1214" d="M141 188q0 31 11.5 62t33.5 53l312 287q82 76 145 147l50 63q26 32 43.5 62.5t26.5 57t5 47.5q-6 31 -32.5 55.5t-84.5 24.5q-41 0 -64.5 -13.5t-40 -32t-29.5 -41t-31.5 -41t-46 -32t-72.5 -13.5q-72 0 -122 50.5t-50 122.5v2q0 51 34.5 111.5t97 111.5t145.5 84t181 33 q86 0 169 -25t148.5 -77t105.5 -133t40 -193q0 -84 -33.5 -158t-74.5 -129q-47 -66 -107 -123l-221 -209h291q72 0 122 -49t50 -121t-50.5 -122t-121.5 -50h-633q-45 0 -82 16.5t-62.5 43t-39 60t-13.5 68.5z" />
<glyph unicode="3" horiz-adv-x="1112" d="M78 477q0 63 44 106.5t105 43.5q63 0 106.5 -43t43.5 -107q0 -33 15.5 -64.5t40 -58t56 -43t68.5 -16.5q25 0 56.5 8t60 28.5t49 55.5t20.5 88q0 61 -31.5 97t-70.5 55.5t-74 25.5t-45 6h-2q-61 0 -105 44.5t-44 105.5q0 63 44 107.5t105 44.5q47 0 70.5 9t34 22.5 t11.5 24.5t1 15q0 18 -15.5 43t-56.5 25q-16 0 -33.5 -9.5t-31.5 -35.5q-18 -39 -55 -63.5t-83 -24.5q-63 0 -106 43t-43 106q0 23 6 43q12 41 42 85t73 77t100.5 55.5t122.5 22.5q70 0 136.5 -22.5t118.5 -64.5t84 -102.5t32 -140.5q0 -78 -21.5 -133t-70.5 -94 q27 -4 62.5 -32t67 -75t54 -113.5t22.5 -146.5q0 -121 -43 -211t-110.5 -150.5t-153.5 -89t-176 -28.5q-109 0 -197 42t-151.5 110.5t-98 154.5t-34.5 174z" />
<glyph unicode="4" horiz-adv-x="1234" d="M76 487q0 27 9 54.5t28 50.5l561 717l2 2q20 33 56 52t85 19q78 0 127 -47t49 -121v-559h4q74 0 121 -50t47 -126q0 -74 -47 -121t-121 -47h-4v-141q0 -74 -49 -122t-125 -48q-74 0 -122 48t-48 122v141h-399q-37 0 -68.5 14.5t-55.5 40t-37 57t-13 64.5zM565 655h109 v131z" />
<glyph unicode="5" horiz-adv-x="1112" d="M82 342q0 76 50 125t122 49q49 0 88 -26.5t66 -67.5q12 -18 42.5 -46t77.5 -28q84 0 120 40t36 89q0 80 -39 127t-104 47q-41 0 -82 -16l-60 -36q-33 -19 -69 -19q-63 0 -109.5 38.5t-60.5 98.5q0 14 -1 31.5t-1 65.5t-1 140.5t-1 259.5q0 68 46 118t115 54h498 q74 0 123 -49t49 -123q0 -72 -49 -122t-123 -50h-315v-53q104 10 199.5 -16.5t168 -90t116.5 -165t44 -240.5q0 -96 -41 -183t-110.5 -152.5t-159.5 -103.5t-187 -38q-137 0 -247.5 68.5t-173.5 181.5q-10 20 -18.5 43.5t-8.5 48.5z" />
<glyph unicode="6" horiz-adv-x="1067" d="M70 465q0 76 21.5 144.5t62.5 123.5l358 570q25 43 63.5 64.5t81.5 21.5q47 0 93 -25q43 -25 65.5 -62.5t22.5 -80.5q0 -49 -27 -91l-162 -282q18 3 36 3q52 0 98 -23q62 -30 109.5 -84t74 -127.5t26.5 -151.5q0 -96 -35.5 -180t-98 -147.5t-147.5 -99.5t-180 -36 q-96 0 -181 36t-147.5 99.5t-98 147.5t-35.5 180zM414 465q0 -51 33.5 -84t84.5 -33q49 0 83 33t34 84q0 49 -33.5 83t-83.5 34q-51 0 -84.5 -34t-33.5 -83z" />
<glyph unicode="7" horiz-adv-x="991" d="M66 1206q0 80 47 129t120 49h517q35 0 64.5 -15t53 -38.5t35.5 -55.5t12 -66.5t-12 -65.5l-436 -1043q-20 -51 -62.5 -75.5t-91.5 -24.5q-39 0 -75 14q-51 23 -77 63t-26 91q0 39 15 72l337 800h-254q-74 0 -120.5 45t-46.5 121z" />
<glyph unicode="8" horiz-adv-x="1153" d="M82 461q0 94 31.5 163.5t68.5 112.5q43 53 103 88q-25 27 -43 56q-18 27 -29.5 63.5t-11.5 79.5q0 78 29.5 146.5t80.5 119.5t121 82t147.5 31t146.5 -31t121 -82t80.5 -119.5t28.5 -146.5q0 -43 -12 -80t-31 -63q-18 -29 -43 -56q57 -35 101 -88q37 -43 69.5 -112.5 t32.5 -163.5q0 -104 -40 -194.5t-105.5 -157t-156.5 -105.5t-196 -39q-102 0 -191 39t-156.5 105.5t-106.5 157t-39 194.5zM428 463q0 -61 44 -105.5t106 -44.5q63 0 106 44t43 106q0 63 -43 106t-106 43q-61 0 -105.5 -43t-44.5 -106zM516 1050.5q0 -26.5 18.5 -45 t45 -18.5t45 18.5t18.5 45t-18.5 45t-45 18.5t-45 -18.5t-18.5 -45z" />
<glyph unicode="9" horiz-adv-x="1064" d="M70 918q0 96 35.5 181t98 147.5t147.5 98t181 35.5q94 0 179.5 -35.5t148 -98t98 -147.5t35.5 -181q0 -76 -21.5 -144.5t-62.5 -124.5l-358 -569q-23 -43 -63 -64q-38 -22 -82 -22q-49 0 -91 26q-45 23 -67.5 61t-22.5 83t27 88l162 283l-23 -2q-54 0 -105 25 q-62 30 -109.5 83t-77 126t-29.5 151zM412 926q0 -51 33.5 -85t84.5 -34q49 0 83 33.5t34 85.5q0 49 -33.5 82.5t-83.5 33.5q-51 0 -84.5 -33.5t-33.5 -82.5z" />
<glyph unicode=":" horiz-adv-x="563" d="M88 180q0 82 52.5 136.5t134 54.5t136 -54.5t54.5 -136.5q0 -80 -54.5 -132t-136 -52t-134 52t-52.5 132zM88 870q0 82 52.5 136.5t134 54.5t136 -54.5t54.5 -136.5q0 -80 -54.5 -132t-136 -52t-134 52t-52.5 132z" />
<glyph unicode=";" horiz-adv-x="548" d="M72 881q0 84 52 138t132 54q82 0 136 -54t54 -138q0 -80 -54 -132.5t-136 -52.5q-80 0 -132 52.5t-52 132.5zM86 129q0 74 46 121t122 47q78 0 128 -47t50 -121v-276q0 -74 -50 -122t-126 -48q-74 0 -122 48t-48 122v276z" />
<glyph unicode="&#x3c;" horiz-adv-x="884" d="M76 661.5q0 77.5 49 114.5l352 230q35 18 63.5 37.5t67.5 19.5q72 0 124 -51t52 -123q0 -43 -30.5 -85t-67.5 -67l-115 -75l115 -76q37 -23 67.5 -66t30.5 -84q0 -72 -52 -124t-124 -52q-39 0 -67.5 19.5t-63.5 39.5l-352 228q-49 37 -49 114.5z" />
<glyph unicode="=" horiz-adv-x="978" d="M102 469q0 78 47.5 128t120.5 50h443q74 0 121 -50t47 -126q0 -74 -47.5 -122t-120.5 -48h-443q-74 0 -121 46t-47 122zM102 926q0 78 47.5 127t120.5 49h443q74 0 121 -49t47 -125q0 -74 -47.5 -122t-120.5 -48h-443q-74 0 -121 45t-47 123z" />
<glyph unicode="&#x3e;" horiz-adv-x="884" d="M78 436q0 41 30.5 84t67.5 66l115 76l-115 75q-37 25 -67.5 67t-30.5 85q0 72 52 123t124 51q39 0 67.5 -19.5t63.5 -37.5l350 -230q51 -37 51 -114.5t-51 -114.5l-350 -228q-35 -20 -63.5 -39.5t-67.5 -19.5q-72 0 -124 52t-52 124z" />
<glyph unicode="?" horiz-adv-x="1069" d="M84 997q25 176 140.5 276.5t291.5 110.5q86 0 156.5 -17t134.5 -60q66 -41 117 -125t57 -209q2 -250 -97.5 -362.5t-283.5 -118.5q-6 -16 -14 -32t-24.5 -28t-45.5 -21.5t-72 -9.5q-90 0 -130 47.5t-40 116.5v80q0 70 22.5 121t92.5 51h141q39 0 61.5 15.5t36 37t17.5 41 t4 25.5q0 55 -40 88q-38 31 -74 31h-5q-55 -2 -75.5 -24.5t-36.5 -53.5q-18 -45 -38 -72.5t-41.5 -42t-47 -16.5t-58.5 0q-27 2 -55 11t-50 26.5t-35 44.5q-10 20 -10 50q0 9 1 19zM252 193q0 82 56.5 138t135.5 56q82 0 138.5 -56.5t56.5 -137.5q0 -80 -56.5 -136.5 t-138.5 -56.5q-80 0 -136 56.5t-56 136.5z" />
<glyph unicode="@" horiz-adv-x="1728" d="M80 662q0 164 62.5 307t167 249.5t247.5 168t307 61.5q162 0 305.5 -61.5t250 -168t168.5 -250.5q63 -142 63 -306q0 -16 -1 -55.5t-11.5 -88.5t-30 -102.5t-56 -97.5t-94 -72.5t-141.5 -28.5q-35 0 -80 5t-88 19.5t-79 37t-52 55.5q-12 -8 -35 -17q-41 -16 -119 -16 q-76 0 -142.5 28.5t-116.5 78t-77.5 115t-27.5 141t27.5 142t77.5 117t116.5 78t142.5 27.5t142.5 -27.5t115.5 -78t78 -117t29 -141.5v-52q0 -59 12 -88.5t76 -29.5q25 0 37 17t16 42t3 53.5t-1 50.5q0 104 -41 197.5t-111.5 163t-162.5 110.5t-193 41q-102 0 -193 -41 t-161 -111.5t-111 -161.5t-41 -191q0 -98 40 -189.5t108.5 -162t158 -113.5t187.5 -45h240q59 0 99 -40t40 -100q0 -57 -40 -97t-99 -40h-240q-162 2 -302 64.5t-243.5 169t-165 249t-61.5 302.5zM776 665.5q0 -36.5 25.5 -61t62.5 -24.5q39 0 63.5 23.5t24.5 65.5 q0 35 -24 60q-27 27 -64 27t-62.5 -27t-25.5 -63.5z" />
<glyph unicode="A" horiz-adv-x="1378" d="M80 170q0 37 16 70l432 1046q18 47 65.5 72.5t96.5 27.5q55 0 97 -22.5t67 -75.5l428 -1048q16 -33 16 -72q0 -51 -27.5 -91t-76.5 -63q-33 -14 -74 -14q-49 0 -92 25.5t-61 76.5l-99 234h-358l-98 -234q-20 -51 -60.5 -76.5t-91.5 -25.5q-35 0 -76 16q-49 23 -76.5 63 t-27.5 91zM635 631h115l-60 162z" />
<glyph unicode="B" horiz-adv-x="1097" d="M94 147v1078q2 70 49 115.5t119 45.5h252q78 0 156 -19t139 -61t100 -112t39 -170q0 -76 -23.5 -131t-52.5 -96q31 -23 64 -57.5t58.5 -80t43 -98.5t17.5 -112q0 -135 -55.5 -222.5t-137.5 -138.5t-176 -69.5t-172 -18.5h-252q-72 0 -120 39.5t-48 107.5zM438 346h146 q35 2 63 14q25 10 44.5 36t19.5 71q0 47 -19.5 74.5t-44.5 38.5q-29 12 -63 14h-146v-248zM438 991h119q14 0 23 6q8 4 16 9.5t8 17.5t-8 18.5t-16.5 10.5t-22.5 4h-119v-66z" />
<glyph unicode="C" horiz-adv-x="1460" d="M84 690.5q0 143.5 54.5 269t148.5 220t219 148.5t268 54q170 0 314.5 -74.5t240.5 -201.5q43 -53 43 -113q0 -33 -15.5 -64.5t-39 -57t-56 -39t-67.5 -13.5q-33 0 -65.5 13.5t-63.5 46.5q-47 70 -122 113.5t-167 43.5q-72 0 -134 -27.5t-110.5 -75.5t-75 -110.5 t-26.5 -134.5t26.5 -134t75 -110.5t111 -76t133.5 -27.5q90 0 164 41t121 111q57 55 125 55q35 0 67.5 -15.5t57 -41t39 -58.5t14.5 -67q0 -25 -6 -45.5t-21 -40.5q-94 -133 -241.5 -206t-321.5 -73q-143 0 -268 54.5t-219 147.5t-148.5 219t-54.5 269.5z" />
<glyph unicode="D" horiz-adv-x="1259" d="M92 170v1044q0 37 12 68q16 49 59.5 76.5t98.5 27.5h289q139 0 263 -58t215 -154.5t144.5 -222.5t53.5 -261q0 -143 -54.5 -269t-146.5 -219t-215 -147.5t-260 -54.5h-297q-70 2 -116 50t-46 120zM436 340h115q72 0 134.5 31.5t105.5 82t67.5 112t24.5 122.5 q0 70 -26 131.5t-72 108.5t-106.5 75.5t-129.5 32.5h-113v-696z" />
<glyph unicode="E" horiz-adv-x="966" d="M80 170v535v14v498q0 53 19.5 85.5t46 51t55 24.5t49.5 6h467q74 0 121 -49t47 -127q0 -74 -47 -121t-121 -47h-291v-166h94q74 0 122 -50t48 -126q0 -74 -48 -121t-122 -47h-94v-184h289q74 0 121 -50t47 -126q0 -74 -47.5 -122t-120.5 -48h-473q-70 0 -116 49t-46 121z " />
<glyph unicode="F" horiz-adv-x="897" d="M74 170v1047q0 53 19.5 85.5t46 51t55 24.5t49.5 6h467q74 0 121 -49t47 -127q0 -74 -47.5 -121t-120.5 -47h-291v-166h78q74 0 121 -50t47 -126q0 -74 -47.5 -121t-120.5 -47h-78v-362q-2 -49 -25 -86q-18 -31 -55 -56.5t-107 -25.5q-59 0 -91.5 25.5t-47.5 58.5 q-18 37 -20 86z" />
<glyph unicode="G" horiz-adv-x="1536" d="M82 690.5q0 143.5 54 269t147.5 220t219.5 148.5t269 54q94 0 167 -15t129 -39.5t98 -57.5t73 -68q31 -37 51.5 -65.5t20.5 -79.5q0 -74 -50.5 -121t-125.5 -47q-70 0 -115 41q-63 57 -113.5 81.5t-132.5 24.5q-72 0 -134 -27.5t-110.5 -75.5t-75 -110.5t-26.5 -134.5 t26.5 -134t75 -110.5t110.5 -76t134 -27.5q33 0 66.5 6t65.5 18.5t55.5 35t37.5 51.5h-135q-76 0 -122 44t-46 119q0 78 47.5 114t120.5 36h422q74 0 121 -50t47 -126q0 -113 -53 -218.5t-146.5 -187.5t-217.5 -132t-265 -50q-143 0 -269 54.5t-219.5 147.5t-147.5 219 t-54 269.5z" />
<glyph unicode="H" horiz-adv-x="1275" d="M104 170v1049q0 74 50.5 120.5t126.5 46.5q74 0 121 -47t47 -120v-381h378v381q0 74 50.5 120.5t126.5 46.5q74 0 120.5 -47t46.5 -120v-1049q0 -74 -49 -122t-124.5 -48t-123 48t-47.5 122v324h-378v-324q0 -74 -49.5 -122t-125.5 -48q-74 0 -122 48t-48 122z" />
<glyph unicode="I" horiz-adv-x="552" d="M104 170v1044q0 74 50.5 121t126.5 47q74 0 121 -47t47 -121v-1044q0 -74 -49.5 -122t-125.5 -48q-74 0 -122 48t-48 122z" />
<glyph unicode="J" horiz-adv-x="555" d="M-279 -221q0 74 47.5 124t118.5 52q59 6 101.5 19.5t69 37t39 63.5t12.5 101v1045q0 74 50 121t126 47q74 0 122 -47.5t48 -120.5v-1045q-6 -139 -36 -244.5t-96.5 -177t-172 -108.5t-259.5 -37q-74 0 -122 48t-48 122z" />
<glyph unicode="K" horiz-adv-x="1050" d="M100 170v1049q0 74 50.5 120.5t125.5 46.5q74 0 121 -47t47 -120v-193l269 283q43 43 106 43q37 0 73 -16.5t62 -45.5q45 -55 45 -110q0 -74 -59 -129l-281 -260l340 -525q29 -43 29 -96q0 -39 -18.5 -75t-55.5 -62q-51 -35 -102 -35q-41 0 -78 18.5t-59 55.5l-271 450 v-352q0 -74 -49 -122t-127 -48q-74 0 -121 48t-47 122z" />
<glyph unicode="L" horiz-adv-x="899" d="M74 170v1049q0 74 50 120.5t126 46.5q74 0 122 -47t48 -120v-873h264q74 0 122 -50t48 -126q0 -74 -48 -122t-122 -48h-451q-68 0 -113.5 48t-45.5 122z" />
<glyph unicode="M" horiz-adv-x="1624" d="M106 193l115 1030q4 31 16.5 59.5t36 50t62.5 34.5t98 13q51 0 86 -13t58.5 -33.5t38 -49.5t28.5 -61l166 -486l170 486q12 33 27.5 61.5t39 49t57.5 33.5t87 13q59 0 98 -13t62.5 -34.5t36 -50.5t16.5 -59l115 -1030q2 -14 1 -28q0 -21 -3 -42q-6 -35 -23.5 -61.5 t-48.5 -44t-76 -17.5q-47 0 -80 16.5t-52 43t-30.5 61.5t-13.5 72l-47 626l-172 -713q-10 -33 -28.5 -54t-42 -34.5t-48.5 -17.5t-45 -4t-44 4t-47.5 16.5t-42 34t-26.5 55.5l-172 713l-47 -626q-4 -37 -14 -72t-29.5 -61.5t-52.5 -43t-80 -16.5q-45 0 -75.5 17.5t-48 44 t-23.5 61.5q-4 21 -4 42q-1 14 1 28z" />
<glyph unicode="N" horiz-adv-x="1216" d="M104 170v1044q0 74 50.5 121t126.5 47q49 0 87 -22.5t60 -61.5l340 -534v450q0 74 50 121t126 47q74 0 122 -47t48 -121v-1044q0 -74 -50 -122t-126 -48q-90 0 -137 66l-352 555v-451q0 -74 -49.5 -122t-125.5 -48q-74 0 -122 48t-48 122z" />
<glyph unicode="O" horiz-adv-x="1550" d="M84 690.5q0 143.5 54.5 269t148.5 220t219 148.5t268.5 54t269 -54t221 -148.5t149.5 -220t54 -269t-54 -269.5t-149.5 -219t-221 -147.5t-269 -54.5t-268.5 54.5t-219 147.5t-148.5 219t-54.5 269.5zM430 688q0 -72 26.5 -134t75 -110.5t111 -76t134 -27.5t135 27.5 t111.5 76t74.5 110.5t26.5 134t-26.5 134.5t-74.5 110.5t-111.5 75.5t-135 27.5t-134 -27.5t-111 -75.5t-75 -110.5t-26.5 -134.5z" />
<glyph unicode="P" horiz-adv-x="954" d="M76 170v1049q0 74 50 120.5t126 46.5h246q78 0 154.5 -36.5t139 -100t101.5 -148.5t39 -181q0 -100 -39 -187.5t-101.5 -151t-139.5 -99.5t-154 -36h-76v-276q0 -74 -50 -122t-126 -48q-74 0 -122 48t-48 122zM422 793h76q23 2 43 14q16 12 30.5 37.5t14.5 75.5 q0 47 -14.5 71.5t-30.5 34.5q-20 14 -43 16h-76v-249z" />
<glyph unicode="Q" horiz-adv-x="1546" d="M82 690q0 143 54 269t147.5 220.5t219.5 148.5t269 54t269 -54t220.5 -148.5t149.5 -220t55 -269.5q0 -102 -15 -175t-44 -129t-68 -101l-86 -95q2 -16 13 -32q10 -12 29.5 -27.5t58.5 -26.5q41 -10 69 -42q27 -30 27 -95q0 -81 -51 -132q-49 -48 -125 -48q-29 0 -53.5 8 t-46.5 19q-39 16 -75 44.5t-65.5 58.5l-54.5 57.5t-37 45.5q-37 -10 -77 -15t-93 -5q-131 0 -256 52t-220 145.5t-154.5 219.5t-59.5 273zM430 688q0 -57 16.5 -106.5t47.5 -94.5q0 68 24.5 123.5t63.5 95t90 60t104 20.5t104.5 -20.5t91.5 -59t65.5 -91t27.5 -119.5 q59 88 59 192q0 72 -26.5 134.5t-74.5 110.5t-111.5 75.5t-135 27.5t-134 -27.5t-111 -75.5t-75 -110.5t-26.5 -134.5zM717 460.5q0 -24.5 16.5 -42t42.5 -19.5q27 0 45.5 18.5t18.5 43t-18.5 43t-45.5 18.5q-23 0 -41 -18.5t-18 -43z" />
<glyph unicode="R" horiz-adv-x="1052" d="M98 170v1049q0 74 49.5 120.5t126.5 46.5h244q80 0 157 -36.5t138 -100t100 -148.5t39 -181q0 -51 -13 -102.5t-37.5 -96.5t-55.5 -81t-70 -56l217 -316q27 -45 27 -94q0 -41 -19.5 -78t-58.5 -63q-43 -31 -98 -31q-41 0 -77 19.5t-58 56.5l-213 368h-54v-276 q0 -74 -50 -122t-126 -48q-74 0 -121 48t-47 122zM442 793h76q25 2 45 14q16 12 30.5 37.5t14.5 75.5q0 47 -14 71.5t-31 34.5q-20 14 -45 16h-76v-249z" />
<glyph unicode="S" horiz-adv-x="1097" d="M84 291q0 68 47 121t115 53q37 0 64.5 -8t60.5 -33l40 -30.5t34.5 -23t38 -15.5t51.5 -7q12 0 37.5 2t49 11.5t42 31t18.5 62.5q0 66 -36 100.5t-128 65.5q-80 27 -149.5 58.5t-121.5 74.5t-82 101t-30 136q0 119 43 195t109.5 120t145.5 61t151 17q82 0 157.5 -21.5 t141.5 -76.5q33 -29 61.5 -72t28.5 -90q0 -51 -41 -92q-25 -25 -52.5 -34t-58.5 -9q-51 0 -96 21q-33 12 -50.5 21t-30.5 13.5t-27 5.5l-39 3q-9 1 -17 0q-46 0 -63 -20q-20 -24 -21 -46q14 -66 178 -117q100 -31 169 -75.5t111 -100t60.5 -118t18.5 -127.5q0 -113 -41 -196 t-108.5 -139.5t-153.5 -85t-172 -28.5q-63 0 -132 15.5t-129.5 44t-108.5 71.5t-71 96q-14 33 -14 64z" />
<glyph unicode="T" horiz-adv-x="1007" d="M57 1221q0 74 47.5 121t120.5 47h559q74 0 121 -49.5t47 -125t-47 -123t-121 -47.5h-106v-874q0 -74 -50 -122t-126 -48q-74 0 -122 48t-48 122v874h-107q-74 0 -121 50.5t-47 126.5z" />
<glyph unicode="U" horiz-adv-x="1169" d="M98 483v727q0 76 46 123t122 47q74 0 125 -43t51 -127v-727q0 -35 13.5 -60.5t35 -43t45 -25.5t48.5 -8q23 0 48 8t45.5 25.5t35 43.5t14.5 60v727q0 84 51 127t125 43q76 0 123 -47t47 -123v-727q0 -86 -32.5 -173t-96 -155.5t-154 -111.5t-207 -43t-206.5 43 t-151.5 111.5t-94.5 155.5t-33 173z" />
<glyph unicode="V" horiz-adv-x="1247" d="M86 1219q0 49 27.5 89t76.5 62q41 16 80 16q51 0 92 -25.5t58 -74.5l205 -676l204 676q14 49 57.5 74.5t92.5 25.5q41 0 78 -14q51 -23 77.5 -62.5t26.5 -88.5q0 -39 -14 -72l-359 -1049q-25 -55 -66.5 -77.5t-96.5 -22.5q-49 2 -96.5 27.5t-65.5 74.5l-361 1047 q-16 33 -16 70z" />
<glyph unicode="W" horiz-adv-x="1918" d="M86 1219q0 49 27.5 89t76.5 62q41 16 80 16q51 0 92 -25.5t58 -74.5l205 -674l168 660q23 70 71.5 90t96.5 20q43 0 91 -20.5t72 -89.5l172 -660l203 674q16 49 58 74.5t94 25.5q41 0 78 -14q49 -23 76.5 -62.5t27.5 -88.5q0 -39 -16 -72l-359 -1049q-23 -55 -65.5 -77.5 t-96.5 -22.5q-51 2 -97 27.5t-66 74.5l-172 545l-173 -547q-25 -55 -66.5 -77.5t-96.5 -22.5q-49 2 -96.5 27.5t-65.5 74.5l-361 1047q-16 33 -16 70z" />
<glyph unicode="X" horiz-adv-x="1601" d="M104 1214q0 72 54 125q51 49 121 50q63 0 118 -50l404 -401l403 401q55 49 121 50q63 0 119 -50q53 -53 53 -125q0 -70 -49 -120l-404 -400l404 -399q49 -47 49 -115q0 -70 -53 -129q-53 -51 -119 -51q-33 0 -64.5 13.5t-56.5 37.5l-403 400l-404 -400 q-51 -51 -118.5 -51t-120.5 51q-53 59 -54 129q0 68 50 115l401 399l-401 400q-50 50 -50 120z" />
<glyph unicode="Y" horiz-adv-x="1150" d="M76 1210q0 43 20.5 81t59.5 63q45 31 98 30q41 0 78 -19t63 -56l176 -322l187 322q27 37 63.5 56t77.5 19q53 0 98 -30q39 -25 59.5 -63t20.5 -81q0 -45 -30 -92l-304 -473v-475q0 -74 -50 -122t-126 -48q-74 0 -122 48t-48 122v475l-291 473q-30 47 -30 92z" />
<glyph unicode="Z" horiz-adv-x="1183" d="M76 1219q0 74 48 120.5t122 46.5h694q76 0 119 -46t43 -115q0 -68 -41 -135l-502 -744h381q74 0 122 -50t48 -126q0 -74 -48 -122t-122 -48h-694q-76 0 -118 51t-42 121q0 61 35 123l506 747h-381q-74 0 -122 50.5t-48 126.5z" />
<glyph unicode="[" horiz-adv-x="802" d="M104 -182v1460q0 57 17.5 91t42 51.5t52.5 22.5t48 5h311q74 0 122 -50t48 -126q0 -74 -48 -122t-122 -48h-126v-1108h124q74 0 122 -50t48 -126q0 -74 -48 -122t-122 -48h-284q-84 0 -134.5 48t-50.5 122z" />
<glyph unicode="\" horiz-adv-x="837" d="M84 1221q-20 70 12.5 129t100.5 84q70 20 133 -11.5t84 -99.5l348 -1104q23 -70 -9 -129t-102 -82q-72 -23 -133 8t-86 101z" />
<glyph unicode="]" horiz-adv-x="806" d="M80 1272q0 76 48 126t122 50h309q23 0 50.5 -5t52 -22.5t42 -51.5t17.5 -91v-1460q0 -74 -50 -122t-134 -48h-285q-74 0 -122 48t-48 122q0 76 48 126t122 50h123v1108h-125q-74 0 -122 48t-48 122z" />
<glyph unicode="^" horiz-adv-x="1437" d="M72 664q0 39 19 69l40 62l479 618q41 57 109 57q33 0 58.5 -13t49.5 -44l476 -618q23 -29 41 -61t18 -70q0 -72 -47 -118t-119 -46q-49 0 -91 24.5t-69 61.5l-317 428l-322 -428q-29 -37 -69.5 -61.5t-89.5 -24.5q-72 0 -119 46t-47 118z" />
<glyph unicode="_" horiz-adv-x="1214" d="M102 66q0 74 47.5 120.5t120.5 46.5h676q74 0 122 -50t48 -117q0 -74 -48 -125.5t-122 -51.5h-676q-74 0 -121 50.5t-47 126.5z" />
<glyph unicode="`" horiz-adv-x="442" d="M92 1458q0 45 22.5 84t65.5 64q45 27 88 26q45 0 82 -21.5t60 -62.5l145 -235q27 -43 27 -90q0 -43 -20.5 -80t-61.5 -62q-43 -29 -99 -28q-43 0 -79.5 20.5t-61.5 59.5l-143 235q-25 41 -25 90z" />
<glyph unicode="a" d="M88 522q0 109 41 204t111.5 166t167 113t208.5 46q104 0 198.5 -42t166.5 -114t114 -169t42 -204v-15q0 -9 -1 -44t-1 -104v-189q0 -37 -17.5 -67.5t-44 -53t-62.5 -36t-73 -13.5q-39 0 -79 29.5t-48 64.5q-4 -10 -20.5 -25.5t-44 -29.5t-66.5 -25.5t-90 -11.5 q-109 0 -200 39t-157.5 108.5t-105.5 164.5t-39 208zM434 526.5q0 -75.5 52.5 -127t125.5 -51.5q76 0 128.5 50.5t52.5 132.5q0 32 -14 62q-15 34 -39.5 59.5t-58.5 39t-69 13.5q-74 0 -126 -51.5t-52 -127z" />
<glyph unicode="b" horiz-adv-x="1210" d="M80 135v1079q0 74 48 121t122 47q76 0 126 -47t50 -121v-237q16 23 45 37q25 12 61.5 23.5t92.5 11.5q111 0 203 -41t158.5 -113t104 -166t37.5 -201q0 -109 -38.5 -205t-106.5 -167.5t-159 -113.5t-195 -42q-57 0 -103.5 15.5t-76.5 31.5q-37 23 -64 49q-4 -27 -20 -49 q-12 -16 -40 -31.5t-77 -15.5q-29 0 -58.5 8t-54 25.5t-40 43t-15.5 58.5zM428 518q4 -74 55.5 -123t122.5 -49q76 0 128 51.5t52 128.5q0 74 -52 125t-128 51q-74 0 -126 -52t-52 -132z" />
<glyph unicode="c" horiz-adv-x="1110" d="M88 539q0 119 44 213t115.5 160.5t164 101.5t192.5 35q57 0 117.5 -12.5t114 -34t96.5 -55.5t69 -75q27 -43 27 -96q0 -76 -49 -125t-125 -49q-39 0 -67.5 18.5t-57.5 41.5q-20 18 -50 29t-75 11q-51 -2 -90 -20q-33 -18 -59.5 -50t-26.5 -93q0 -70 25.5 -108t57.5 -56.5 t60.5 -22.5t32.5 -4q45 0 65.5 9.5t55.5 33.5q31 23 60.5 40.5t68.5 17.5q76 0 125 -49.5t49 -125.5q0 -55 -27 -96q-27 -43 -69.5 -75.5t-96 -54t-113.5 -34t-118 -12.5q-100 0 -192.5 33t-164 100.5t-115.5 167t-44 236.5z" />
<glyph unicode="d" horiz-adv-x="1210" d="M80 528q0 106 38 200.5t104.5 166.5t158.5 113t203 41q55 0 93 -11.5t60 -23.5q29 -14 47 -37v237q0 74 49.5 121t127.5 47q74 0 120.5 -47t46.5 -121v-1079q0 -33 -15 -58.5t-39.5 -43t-54.5 -25.5t-56 -8q-51 0 -78 15.5t-41 31.5q-14 23 -19 49q-29 -27 -65 -49 q-31 -16 -77 -31.5t-103 -15.5q-104 0 -195.5 42t-159 113.5t-106.5 167.5t-39 205zM426 526q0 -78 52 -129t128 -51q72 0 123 49t55 123q0 80 -52 132t-126 52q-76 0 -128 -51t-52 -125z" />
<glyph unicode="e" horiz-adv-x="1212" d="M84 522q0 109 41 204t110.5 166t167 113t209.5 46q100 0 192.5 -33t164 -97.5t114.5 -165t45 -235.5q0 -55 -39.5 -95t-97.5 -40h-557q14 -33 43 -52.5t58.5 -28.5t53 -11t27.5 -2q18 0 41 2q20 2 45 5t56 13q31 6 66.5 30t66.5 24q57 0 93 -38t36 -98q0 -43 -23 -77 q-33 -43 -78 -73t-96 -47.5t-106 -23.5t-109 -6q-109 0 -203 39t-165.5 108.5t-113.5 164.5t-42 208zM428 651h375q0 14 -15.5 34t-41 35t-60.5 26.5t-74 11.5q-86 0 -135 -37t-49 -70z" />
<glyph unicode="f" horiz-adv-x="851" d="M59 926q0 61 47.5 97t120.5 36q-1 15 -1 28q0 70 26 120q31 60 76 99.5t93 58.5t79 24q18 6 44.5 7t53.5 1q78 0 135.5 -36t57.5 -108q0 -63 -47.5 -98t-122.5 -35q-31 0 -39.5 -18.5t-8.5 -42.5h52q74 -2 122 -35t48 -109q0 -74 -48.5 -104.5t-121.5 -30.5h-52v-612 q0 -74 -46 -122t-121 -48q-78 0 -128.5 48t-50.5 122v612q-74 0 -121 34t-47 112z" />
<glyph unicode="g" d="M88 522q0 109 36 204t102.5 166t159.5 113t206 46q74 0 123 -13.5t80 -29.5q35 -20 51 -41q12 25 49 49t74 24q78 0 124 -49t46 -123v-716q0 -293 -138.5 -435.5t-388.5 -142.5q-59 0 -119.5 7t-115.5 24.5t-101.5 44t-70.5 69.5v2q-23 35 -23 89q0 47 23.5 76.5 t59.5 41.5q27 9 57 10q10 0 21 -1q42 -4 79 -19q37 -18 93 -26.5t99 -8.5q57 0 95.5 18.5t62 47t37.5 63.5t25 70q-18 -18 -49 -33.5t-66 -26t-66.5 -15.5t-50.5 -5q-109 0 -203 39t-161.5 108.5t-108.5 164.5t-41 208zM434 526.5q0 -75.5 52.5 -127t125.5 -51.5 q76 0 128.5 51.5t52.5 127t-52.5 127t-128.5 51.5q-74 0 -126 -51.5t-52 -127z" />
<glyph unicode="h" horiz-adv-x="978" d="M86 170v1044q0 74 46 121t122 47q78 0 128 -47t50 -121v-206q10 12 29 20q14 10 35.5 17.5t52.5 7.5q117 0 184.5 -28t103 -88t46 -151.5t10.5 -214.5v-401q0 -74 -47 -122t-123 -48q-74 0 -125 43t-51 127v401q0 70 -8.5 104t-55.5 34q-37 0 -43 -32t-8 -89v-418 q0 -74 -48 -122t-128 -48q-70 4 -120 46t-50 124z" />
<glyph unicode="i" horiz-adv-x="542" d="M86 1237q0 68 51 113t129 45q80 0 132.5 -45t52.5 -113q0 -66 -52.5 -108t-132.5 -42q-78 0 -129 42t-51 108zM98 170v715q0 76 45 123t121 47q78 0 128 -47t50 -123v-715q0 -74 -50 -122t-126 -48q-74 0 -121 48t-47 122z" />
<glyph unicode="j" horiz-adv-x="589" d="M-227 -225q0 76 47 126t120.5 50t114.5 20.5t60.5 91t22.5 204.5t3 362v256q0 76 45 123t123 47t127 -47t49 -123v-688q0 -160 -46 -271.5t-121.5 -181.5t-171 -102.5t-189.5 -34.5q-86 0 -135 47t-49 121zM129 1237q0 68 50 113t130 45q78 0 131.5 -45t53.5 -113 q0 -66 -53.5 -108t-131.5 -42q-80 0 -130 42t-50 108z" />
<glyph unicode="k" horiz-adv-x="995" d="M82 170v1044q0 74 46 121t122 47q78 0 128 -47t50 -121v-192l127 129q59 57 123 57q66 0 117 -45q63 -55 63 -129q0 -31 -12 -61.5t-35 -52.5l-233 -234l301 -420q31 -43 30 -92q0 -88 -84 -145q-43 -27 -94 -27q-43 0 -81 19.5t-60 56.5l-162 278v-186q0 -74 -50 -122 t-126 -48q-74 0 -122 48t-48 122z" />
<glyph unicode="l" horiz-adv-x="561" d="M109 170v1049q0 74 47 120.5t123 46.5q74 0 125 -43t51 -124v-1049q0 -74 -50.5 -122t-125.5 -48q-74 0 -122 48t-48 122z" />
<glyph unicode="m" horiz-adv-x="1499" d="M102 170v715q0 76 50.5 123t126.5 47q35 -4 57 -18.5t33 -28.5q14 -18 20 -39q23 20 57 41q31 16 71 29.5t95 13.5q49 0 85 -15.5t59 -31.5q25 -23 41 -45q33 31 98.5 61.5t167.5 30.5q106 0 173 -32t102.5 -93.5t48 -150.5t12.5 -206v-401q0 -84 -51.5 -127t-124.5 -43 q-76 0 -123 48t-47 122v401q-2 63 -11.5 100.5t-52.5 37.5t-55 -39t-14 -99v-401q0 -49 -13.5 -80t-38 -50.5t-53.5 -28.5t-57 -11h-6q-86 0 -131.5 43t-45.5 127v405q0 59 -10 96.5t-51 37.5t-54.5 -37t-13.5 -101v-401q0 -74 -46 -122t-121 -48q-74 0 -125.5 43t-51.5 127 z" />
<glyph unicode="n" horiz-adv-x="1005" d="M100 170v715q0 76 39 123t115 47q31 0 51.5 -11.5t32.5 -27.5q16 -16 27 -37q20 20 43 37q23 12 55.5 24.5t77.5 12.5q104 0 173.5 -28t111.5 -88t60.5 -151.5t18.5 -214.5v-401q0 -74 -47 -122t-123 -48q-74 0 -125 43t-51 127v401q0 70 -5 100.5t-42 33.5h-9 q-41 0 -48 -33q-8 -37 -11 -101v-401q0 -74 -46 -122t-122 -48q-74 0 -125 43t-51 127z" />
<glyph unicode="o" horiz-adv-x="1216" d="M84 522q0 109 41 204t110.5 166t167 113t209.5 46q104 0 198.5 -42t166.5 -114t114 -169t42 -204q0 -104 -41 -199.5t-112 -167t-166 -112.5t-206 -41q-109 0 -203 39t-165.5 108.5t-113.5 164.5t-42 208zM430 526.5q0 -75.5 52.5 -127t125.5 -51.5q76 0 128 51.5t52 127 t-52 127t-128 51.5q-74 0 -126 -51.5t-52 -127z" />
<glyph unicode="p" horiz-adv-x="1208" d="M80 -223v1143q0 33 15.5 58.5t40 42.5t54 25.5t58.5 8.5q49 0 76.5 -15.5t40.5 -31.5q16 -23 20 -47q27 25 64 47q31 16 76.5 31.5t103.5 15.5q104 0 195 -42t159 -114t106.5 -168t38.5 -202.5t-37.5 -202t-104 -167t-159 -112.5t-202.5 -41h-16q-45 0 -77 10 q-37 12 -61 25q-29 16 -45 37v-301q0 -74 -50 -122t-126 -48q-74 0 -122 48t-48 122zM426 537q0 -78 52 -131.5t126 -53.5q76 0 128 52.5t52 125.5q0 76 -52 128.5t-128 52.5q-72 0 -123 -50t-55 -124z" />
<glyph unicode="q" horiz-adv-x="1208" d="M80 530.5q0 106.5 39 202.5t106.5 168t158.5 114t196 42q57 0 103 -15.5t77 -31.5q37 -23 65 -47q4 25 19 47q14 16 40.5 31.5t78.5 15.5q27 0 56.5 -8.5t54 -25.5t39.5 -43t15 -58v-1143q0 -74 -47 -122t-120 -48q-78 0 -127.5 48t-49.5 122v301q-18 -20 -47 -37 q-23 -12 -60 -25q-32 -11 -78 -10h-15q-111 0 -203 42t-158.5 112.5t-104.5 166t-38 202zM426 532q0 -74 52 -126t128 -52q74 0 126 53.5t52 131.5q-4 74 -55 124t-123 50q-76 0 -128 -52.5t-52 -128.5z" />
<glyph unicode="r" horiz-adv-x="741" d="M76 170v715q0 76 38 123t113 47q31 0 52.5 -11.5t36 -25.5t24.5 -35q16 20 41 35q20 14 57 25.5t97 11.5q74 -2 124 -52.5t50 -124t-50.5 -120.5t-126.5 -47q-39 0 -73.5 -40t-36.5 -100v-401q0 -74 -47 -122t-123 -48q-74 0 -125 43t-51 127z" />
<glyph unicode="s" horiz-adv-x="1026" d="M92 264q0 63 38 109.5t97 46.5q37 0 69 -5t58 -18q51 -27 97.5 -36t105.5 -13q45 -6 39 14.5t-39 28.5l-144 31q-75 16 -136.5 49t-102.5 87t-41 144q0 106 39 174t95.5 106t120 52.5t114.5 18.5h15q33 0 87 -6q68 -8 135.5 -35t118.5 -72t51 -115q0 -18 -3 -38.5 t-13 -41.5q-18 -37 -51 -52t-72 -15q-31 0 -59.5 5t-59.5 13q-33 8 -64.5 17.5t-55 11.5t-39 -3t-17.5 -24q0 -16 15.5 -24t41 -12.5t59.5 -7.5t68 -13q150 -43 213.5 -131t67.5 -193q0 -104 -48 -166.5t-112.5 -95t-131 -44t-103.5 -11.5q-61 0 -126 8t-125.5 29.5 t-107.5 54.5t-73 86q-21 41 -21 86z" />
<glyph unicode="t" horiz-adv-x="823" d="M53 961q0 74 50.5 124t134.5 50v84q0 74 46 120.5t122 46.5q74 0 125 -43t51 -124v-84q39 0 72.5 -12.5t59 -36t41 -55.5t15.5 -68q0 -74 -57.5 -123t-130.5 -49v-621q0 -74 -50.5 -122t-125.5 -48q-74 0 -121 48t-47 122v621q-74 0 -129.5 46t-55.5 124z" />
<glyph unicode="u" horiz-adv-x="1007" d="M102 483v402q0 76 46.5 123t122 47t125.5 -43t50 -127v-402q0 -70 6.5 -100.5t43.5 -32.5h5q44 0 51 35q7 37 11 98v402q0 76 46 123t122 47q74 0 125 -43t51 -127v-715q0 -74 -36.5 -122t-86.5 -48q-51 0 -77.5 11.5t-42.5 25.5q-16 16 -21 39q-20 -23 -42.5 -37 t-56.5 -25.5t-77 -11.5q-186 0 -275.5 115.5t-89.5 365.5z" />
<glyph unicode="v" horiz-adv-x="968" d="M86 829q-23 70 10 130.5t107 84.5q37 10 59 11q55 0 97 -31t53 -86l71 -369l74 373q12 55 54 84t94 29q39 0 65 -11q74 -27 105.5 -87t5.5 -130l-215 -659q-12 -33 -26.5 -63.5t-35 -53t-49.5 -37t-74 -14.5q-61 0 -111.5 46t-74.5 122z" />
<glyph unicode="w" horiz-adv-x="1574" d="M53 827q-7 30 -7 58q0 42 17 77q29 56 103 82q16 6 31.5 8.5t31.5 2.5q100 0 148 -113l211 -516l61 117l-82 286q-10 33 -15 62t-5 53q0 37 16.5 63.5t59.5 39.5q29 8 55.5 -2.5t50 -35t38.5 -61.5t19 -78q4 41 20.5 78t39 61.5t49.5 35t55 2.5q43 -12 59.5 -39t16.5 -64 q0 -25 -5 -53.5t-13 -61.5l-82 -286l59 -117l211 516q47 113 147 113q37 0 66 -11q74 -27 102 -82q17 -33 17 -73q0 -29 -8 -62l-232 -659q-14 -33 -32.5 -63.5t-47 -53t-72.5 -37t-102 -14.5q-70 0 -116 19.5t-74.5 43t-42 47t-15.5 27.5q-4 -6 -17 -28.5t-43 -47t-75 -43 t-110 -18.5q-59 0 -102.5 14.5t-73 37t-48 53t-30.5 63.5z" />
<glyph unicode="x" horiz-adv-x="1243" d="M100 174q0 68 52 119l229 229l-231 234q-49 53 -50 116q0 33 14.5 67t41.5 62q53 51 118.5 51.5t120.5 -53.5l226 -231l227 231q55 53 123 54q66 0 116 -52q29 -29 43.5 -62.5t14.5 -66.5q0 -63 -51 -116l-230 -234l228 -229q53 -51 53 -119t-53 -121q-27 -27 -59 -40 t-64 -13q-70 0 -121 49l-227 230l-226 -230q-49 -49 -119 -49q-33 0 -65.5 13.5t-58.5 39.5q-52 53 -52 121z" />
<glyph unicode="y" horiz-adv-x="1058" d="M72 885q0 55 30.5 95t85.5 60q37 10 64 11q49 0 91 -29t65 -84l137 -365l104 365q18 53 60.5 84t93.5 31q25 0 61 -11q55 -20 88 -60t33 -97q0 -25 -10 -62l-357 -1106q-18 -51 -61 -80.5t-94 -29.5q-18 0 -33.5 2t-32.5 8q-55 20 -84.5 61t-29.5 95q0 27 10 59l92 285 l-303 706q-10 37 -10 62z" />
<glyph unicode="z" horiz-adv-x="1175" d="M94 874q0 78 47 128.5t121 50.5h641q74 0 122 -50.5t48 -125.5q0 -37 -12 -66t-33 -51l-393 -414h278q74 0 122 -50t48 -126q0 -74 -48 -122t-122 -48h-651q-76 0 -120 49t-44 117q0 37 13.5 73.5t44.5 69.5l374 400h-268q-74 0 -121 44.5t-47 120.5z" />
<glyph unicode="{" horiz-adv-x="964" d="M63 686q0 68 46.5 121t119.5 53h68v256q0 76 24.5 163t74.5 160.5t130 123t193 51.5q72 0 123 -51.5t51 -122.5q0 -70 -52.5 -121t-127.5 -51q-27 0 -41.5 -22.5t-20.5 -53.5q-8 -35 -8 -76v-842q0 -43 8 -77q6 -29 20.5 -53.5t41.5 -22.5q76 0 128 -50.5t52 -119.5 q0 -72 -51 -123t-123 -51q-113 2 -193 51t-130 123t-74.5 160t-24.5 163v240h-64q-74 0 -122 49t-48 123z" />
<glyph unicode="|" horiz-adv-x="552" d="M106 -182v1460q0 74 50.5 122t126.5 48q74 0 121 -48t47 -122v-1460q0 -74 -49.5 -122t-125.5 -48q-74 0 -122 48t-48 122z" />
<glyph unicode="}" horiz-adv-x="976" d="M78 -49q0 70 52 120t128 50q27 -2 41 22.5t20 53.5q8 35 9 77v842q0 41 -9 76q-6 31 -20 53.5t-41 22.5q-76 0 -128 51t-52 121q0 72 51 123t123 51q113 -2 191.5 -51.5t130 -123t76 -160.5t24.5 -163v-256h65q76 0 122 -53t46 -121q0 -74 -49 -123t-123 -49h-61v-240 q0 -78 -24.5 -163.5t-76 -159.5t-130 -123t-191.5 -51q-72 0 -123 51t-51 123z" />
<glyph unicode="~" horiz-adv-x="1335" d="M123 588q-5 20 -5 38q0 23 7 46q8 20 21.5 42.5t30 44t34.5 39t33 27.5q41 33 100 61.5t160 28.5q45 0 91 -25.5t89 -58t81 -58t69 -25.5q18 0 38.5 10t38 25.5t28.5 28.5t15 17q18 25 50 45.5t75 20.5q12 0 30.5 -6t38 -16.5t36 -28t24.5 -39.5q8 -16 11 -48q1 -8 0 -16 q0 -23 -5 -43q-20 -61 -69 -109t-108.5 -82t-117 -51.5t-92.5 -17.5q-37 0 -72.5 16.5t-69.5 40.5l-67 48q-33 25 -62.5 38t-58 13t-53.5 -23q-10 -6 -30 -24l-43 -40q-23 -22 -44.5 -39t-31.5 -19q-13 -3 -26 -3q-28 0 -53 13q-36 18 -59.5 52t-33.5 77z" />
<glyph unicode="&#xa1;" horiz-adv-x="589" d="M129 -112q0 -76 48 -123t122 -47q76 0 126 47t50 123v679q0 74 -50 122t-128 48q-76 0 -122 -48t-46 -122v-679zM129 1016q0 -74 48 -122t122 -48q76 0 126 48t50 122q0 76 -50 126t-126 50q-74 0 -122 -50t-48 -126z" />
<glyph unicode="&#xa2;" horiz-adv-x="1046" d="M68 539q0 102 31.5 186t87 147.5t128 104.5t154.5 59v115q0 74 26.5 121t104.5 47q74 0 100.5 -43t26.5 -125v-111q94 -18 151.5 -59t100.5 -109q29 -43 29 -96q0 -76 -50.5 -125t-126.5 -49q-20 0 -29 5t-18.5 14.5t-20.5 25t-36 33.5v-307q25 18 36 32.5t20.5 23.5 t18.5 14.5t29 5.5q76 0 126.5 -49.5t50.5 -125.5q0 -55 -29 -96q-43 -68 -100.5 -109.5t-151.5 -58.5v-80q-2 -61 -26.5 -103t-100.5 -42q-74 0 -102.5 41t-28.5 104v82q-82 16 -154.5 57.5t-128 107t-87 155.5t-31.5 207zM406 539q0 -59 18 -95t45 -57v279q-27 -16 -45 -47 t-18 -80z" />
<glyph unicode="&#xa3;" horiz-adv-x="1193" d="M63 602q0 72 45.5 118t116.5 50l-2 170q0 133 39 219t103.5 136.5t144.5 68.5t166 18q84 0 134 -46t50 -119q0 -78 -48 -127.5t-122 -49.5q-45 0 -70.5 -13t-35 -45t-10.5 -83t-1 -129h70q74 0 121 -51t47 -117q0 -74 -47 -125t-121 -51h-70v-80h383q76 0 123 -50 t47 -126q0 -74 -47 -122t-123 -48h-567q-70 0 -116 48t-46 122v256q-72 2 -118 51t-46 125z" />
<glyph unicode="&#xa4;" horiz-adv-x="1243" d="M121 1288q0 84 76 139q49 35 100 35q84 0 137 -73l113 -156q72 25 151 27q63 0 129 -19l113 154q25 33 60.5 50t74.5 17q57 0 107 -35q35 -23 55 -59.5t20 -75.5q0 -47 -30 -90l-115 -158q49 -66 79 -144.5t30 -168.5t-31 -172t-82 -149l121 -162q31 -47 31 -96 q0 -41 -19.5 -78t-58.5 -66q-49 -35 -103 -35q-78 0 -135 76l-127 174q-59 -12 -123 -12q-68 0 -125 12l-129 -176q-53 -74 -137 -74q-51 0 -98 35q-76 57 -76 142q0 55 29 98l121 162q-51 66 -79 147.5t-28 173.5q0 86 24.5 163t67.5 140l-112 156q-31 43 -31 98zM516 733 q0 -74 52.5 -126t125.5 -52q76 0 128 52t52 126q0 76 -52 128t-128 52q-74 0 -126 -52t-52 -128z" />
<glyph unicode="&#xa5;" horiz-adv-x="1148" d="M98 1210q0 43 20.5 81t59.5 63q43 31 98 30q41 0 78 -19t64 -56l172 -293l190 293q25 37 62 56t78 19q55 0 98 -30q39 -25 59.5 -63t20.5 -81q0 -45 -29 -92l-305 -471h113q51 0 81.5 -32.5t30.5 -82t-30.5 -80t-81.5 -30.5h-113v-29h113q51 0 81.5 -32.5t30.5 -82 t-30.5 -80t-81.5 -30.5h-113q-2 -74 -52 -121t-124 -47t-121 47t-47 121h-103q-49 0 -79.5 31.5t-30.5 83.5q0 47 30.5 78.5t79.5 31.5h103v29h-103q-49 0 -79.5 31.5t-30.5 83.5q0 47 30.5 78.5t79.5 31.5h91l-279 471q-31 47 -31 92z" />
<glyph unicode="&#xa6;" horiz-adv-x="559" d="M106 -223v1495q0 74 47.5 122t122.5 48q74 0 124.5 -44t50.5 -126v-1495q0 -74 -49.5 -122t-125.5 -48q-74 0 -122 48t-48 122z" />
<glyph unicode="&#xa7;" horiz-adv-x="1054" d="M86 459q0 100 42 185t112 149q-55 35 -89 90t-34 139q0 106 39 174t96 105.5t120.5 52t112.5 18.5q6 0 14 1q33 0 89 -8q68 -9 136.5 -34.5t119.5 -71t51 -114.5q0 -18 -3 -39t-15 -43q-16 -37 -49 -51.5t-72 -14.5q-31 0 -60.5 5.5t-58.5 13.5q-66 20 -100 20 q-33 0 -62 -22q-12 -12 -18 -27.5t1 -31t29.5 -30t67.5 -22.5q86 -6 161 -43t131 -98.5t90 -139t34 -163.5q0 -88 -32 -164t-87 -137q82 -49 118 -119t40 -150q0 -104 -48.5 -165.5t-113 -95.5t-131 -45t-103.5 -11q-61 0 -125.5 9t-125 29.5t-107.5 54.5t-74 85 q-23 41 -22 86q0 63 39 109.5t98 46.5q37 0 68.5 -4t58.5 -19q25 -12 48.5 -27.5t46 -25.5t46 -12t51.5 10q29 10 30 28.5t-15.5 36t-42 29.5t-51.5 12q-15 -1 -30 0q-78 0 -147 27q-82 33 -143 93.5t-96 141.5t-35 177zM408 461q0 -51 34.5 -86t85.5 -35q49 0 85 35t36 86 q0 49 -35.5 85t-85.5 36q-51 0 -85.5 -36t-34.5 -85z" />
<glyph unicode="&#xa8;" horiz-adv-x="714" d="M98 1612q0 80 56.5 136t136.5 56t136 -56t56 -136q0 -82 -56 -138.5t-136 -56.5t-136.5 56.5t-56.5 138.5zM584 1612q0 80 56 136t136 56q82 0 138.5 -56t56.5 -136q0 -82 -56.5 -138.5t-138.5 -56.5q-80 0 -136 56.5t-56 138.5z" />
<glyph unicode="&#xa9;" horiz-adv-x="1738" d="M84 690q0 164 62.5 308.5t169 250t250 168t304.5 62.5q164 0 308.5 -62.5t250 -168t168 -250t62.5 -308.5q0 -162 -62.5 -305t-168 -249.5t-250 -169t-308.5 -62.5q-162 0 -305 62.5t-249.5 169t-169 249.5t-62.5 305zM477 688q0 -82 32 -153.5t85 -125t125 -85 t153 -31.5q80 0 153 31.5t126 85t85 125t32 153.5q0 80 -32 152.5t-85 126t-126 85t-153 31.5q-82 0 -153.5 -31.5t-124.5 -85t-85 -126t-32 -152.5zM578 692q0 72 24.5 127t67.5 94t98 59.5t113 20.5q70 0 138 -25.5t99 -74.5q16 -25 17 -59q0 -43 -30 -73t-73 -30 q-25 0 -42 11.5l-36 25.5q-10 8 -27.5 16.5t-45.5 8.5q-27 -4 -52 -17q-20 -10 -34.5 -28.5t-14.5 -55.5q0 -39 14.5 -61.5t33 -34.5t35 -14t18.5 -2q29 0 41 6t30 22l37 22q18 11 43 11q43 0 73 -29.5t30 -72.5q0 -35 -17 -60q-31 -49 -99.5 -75.5t-137.5 -26.5 q-57 0 -112.5 20.5t-98.5 59.5t-67.5 97t-24.5 138z" />
<glyph unicode="&#xaa;" horiz-adv-x="1054" d="M88 1044q0 88 34 167t93 137.5t139 93.5t174 39q86 0 164 -35t137.5 -94.5t93 -139t33.5 -168.5v-13q0 -9 -1 -36.5t-1 -85.5v-157q0 -61 -41 -100.5t-104.5 -39.5t-103.5 41q-86 -41 -183 -41q-88 0 -167 33t-138 90.5t-94 136t-35 172.5zM467 1046.5q0 -24.5 17.5 -42 t41.5 -17.5q23 0 40.5 17.5t17.5 42t-17.5 42t-40.5 17.5q-25 0 -42 -17.5t-17 -42z" />
<glyph unicode="&#xab;" horiz-adv-x="1427" d="M92 514q0 61 41 109l311 344q0 2 2 2q25 25 59 41t73 16q72 0 118.5 -46t46.5 -118q0 -51 -26.5 -89t-61.5 -73l-186 -188l188 -188q35 -35 61.5 -73t26.5 -87q0 -72 -47 -119t-118 -47q-39 0 -73 16.5t-58 42.5q-2 0 -84 87l-232 259q-41 48 -41 111zM698 514 q0 61 41 109l314 344q0 2 2 2q25 25 58.5 41t72.5 16q72 0 118 -46t46 -118q0 -51 -26 -89t-60 -73l-187 -188l189 -188q35 -35 60.5 -73t25.5 -87q0 -72 -46 -119t-118 -47q-39 0 -73 16.5t-58 42.5q-2 0 -84 87l-234 259q-41 48 -41 111z" />
<glyph unicode="&#xac;" horiz-adv-x="1183" d="M76 680q0 74 48 121t122 47h665q70 0 120 -46t50 -122l-2 -211q0 -74 -50 -122t-126 -48q-74 0 -122 48t-48 122v35h-487q-74 0 -122 50t-48 126z" />
<glyph unicode="&#xad;" horiz-adv-x="919" />
<glyph unicode="&#xae;" horiz-adv-x="1738" d="M84 690q0 164 62.5 308.5t169 250t250 168t304.5 62.5q164 0 308.5 -62.5t250 -168t168 -250t62.5 -308.5q0 -162 -62.5 -305t-168 -249.5t-250 -169t-308.5 -62.5q-162 0 -305 62.5t-249.5 169t-169 249.5t-62.5 305zM477 688q0 -82 32 -153.5t85 -125t125 -85 t153 -31.5q80 0 153 31.5t126 85t85 125t32 153.5q0 80 -32 152.5t-85 126t-126 85t-153 31.5q-82 0 -153.5 -31.5t-124.5 -85t-85 -126t-32 -152.5zM655 629q0 86 30 146.5t64.5 100t64.5 58.5l30 18q33 18 61.5 23.5t77.5 7.5q55 -2 92 -39t37 -88q0 -57 -37 -92t-92 -35 q-31 0 -51.5 -27.5t-22.5 -72.5l2 -131q0 -57 -34.5 -92t-90 -35t-92.5 32.5t-37 94.5z" />
<glyph unicode="&#xaf;" horiz-adv-x="843" d="M82 1278q0 74 48 122t122 48h285q74 0 121 -51t47 -119q0 -74 -47.5 -125t-120.5 -51h-285q-74 0 -122 50t-48 126z" />
<glyph unicode="&#xb0;" horiz-adv-x="1054" d="M84 981q0 92 33 170t91 136.5t139 93t175 38.5q88 0 166 -34.5t137.5 -94t94 -139.5t34.5 -170q0 -88 -32.5 -167t-93 -137.5t-139.5 -93t-171 -34.5q-88 0 -168 32.5t-138 90t-93 137.5t-35 172zM465 979q0 -25 17.5 -42t39.5 -17q25 0 42.5 17t17.5 42t-17.5 42 t-42.5 17q-23 0 -40 -17t-17 -42z" />
<glyph unicode="&#xb1;" horiz-adv-x="1128" d="M63 317q0 74 47.5 121t120.5 47l654 -4q76 0 117.5 -48t41.5 -116q0 -74 -48 -125t-122 -51h-643q-74 0 -121 50t-47 126zM110.5 1144q45.5 50 120.5 50h154v160q0 74 48 122t130 48q76 0 121 -48.5t45 -121.5l-2 -158h150q76 0 124 -45t48 -123t-48.5 -126t-121.5 -50 h-154l2 -168q0 -74 -48 -122t-122 -48h-6q-72 0 -119 47q-49 49 -49 123l-2 164l-148 4q-76 2 -122 46q-45 42 -46 114q0 82 45.5 132z" />
<glyph unicode="&#xb2;" horiz-adv-x="874" d="M95 812q0 15 5 29.5t16 25.5l150 138q39 36 70 71l24 30q12 15 20.5 30t13 27.5t2.5 22.5q-3 15 -16 27t-40 12q-20 0 -31.5 -6.5t-19.5 -15.5t-14 -20t-15 -19.5t-22.5 -15t-34.5 -6.5q-34 0 -58.5 24t-24.5 59q0 26 17 54.5t47 53.5t69.5 40.5t87.5 15.5q41 0 81 -12 t71.5 -37t50.5 -64t19 -93q0 -40 -16.5 -75.5t-35.5 -62.5q-23 -32 -51 -59l-107 -101h140q34 0 58.5 -23.5t24.5 -58t-24.5 -58.5t-58.5 -24h-304q-22 0 -39.5 8t-30 20.5t-18.5 29t-6 33.5z" />
<glyph unicode="&#xb3;" horiz-adv-x="735" d="M67 898q0 34 24 57.5t57 23.5q34 0 57.5 -23t23.5 -58q0 -18 8.5 -35t21.5 -31.5t30.5 -23.5t37.5 -9q13 0 30.5 4.5t33 15.5t26.5 30t11 48q0 33 -17 52.5t-38.5 30.5t-40 14t-24.5 3q-34 0 -58 24t-24 58t24 58t57 24q26 0 38.5 5t18 12t6 13.5t0.5 8.5q0 10 -8 23.5 t-31 13.5q-9 0 -18 -5t-17 -20q-10 -21 -30 -34.5t-45 -13.5q-34 0 -57.5 23.5t-23.5 57.5q0 12 4 24q7 22 22.5 46t39 42t54.5 30t67 12q38 0 74 -12t64.5 -35t45.5 -56t17 -76q0 -42 -11.5 -72.5t-38.5 -51.5q14 -2 33.5 -17t37 -40.5t29.5 -61.5t12 -80q0 -66 -23 -114.5 t-60 -81.5t-83.5 -48.5t-95.5 -15.5q-59 0 -106.5 22.5t-82 60t-53.5 84t-19 94.5z" />
<glyph unicode="&#xb4;" horiz-adv-x="440" d="M86 1223q0 47 27 90l145 235q25 41 61.5 62.5t79.5 21.5t88 -26q45 -25 68 -64t23 -84q0 -49 -27 -90l-143 -235q-23 -39 -60 -59.5t-82 -20.5q-53 0 -96 28q-41 25 -62.5 62t-21.5 80z" />
<glyph unicode="&#xb5;" horiz-adv-x="1019" d="M102 -225l2 1110q0 76 46.5 123t123.5 47q74 0 124.5 -43t50.5 -127v-402q0 -45 12 -76q12 -30 52 -30h5q33 4 39 34.5t8 71.5v402q0 76 46 123t122 47q74 0 125 -43t51 -127v-715q0 -74 -36.5 -122t-100.5 -48q-43 0 -68.5 7t-39.5 20q-14 10 -19 26q-8 -14 -24 -24 q-12 -12 -34 -19.5t-52 -7.5q-25 0 -40.5 6t-25.5 17q-12 8 -23 20v-270q0 -74 -49 -122t-127 -48q-74 0 -121 48t-47 122z" />
<glyph unicode="&#x3bc;" horiz-adv-x="1019" d="M102 -225l2 1110q0 76 46.5 123t123.5 47q74 0 124.5 -43t50.5 -127v-402q0 -45 12 -76q12 -30 52 -30h5q33 4 39 34.5t8 71.5v402q0 76 46 123t122 47q74 0 125 -43t51 -127v-715q0 -74 -36.5 -122t-100.5 -48q-43 0 -68.5 7t-39.5 20q-14 10 -19 26q-8 -14 -24 -24 q-12 -12 -34 -19.5t-52 -7.5q-25 0 -40.5 6t-25.5 17q-12 8 -23 20v-270q0 -74 -49 -122t-127 -48q-74 0 -121 48t-47 122z" />
<glyph unicode="&#xb6;" horiz-adv-x="569" d="M106 170v1108q0 74 50.5 122t126.5 48q74 0 121 -48t47 -122v-1108q0 -74 -49.5 -122t-125.5 -48q-74 0 -122 48t-48 122z" />
<glyph unicode="&#xb7;" horiz-adv-x="522" d="M86 522.5q0 71.5 51 122.5t123 51t123 -51t51 -122.5t-51 -122t-123 -50.5t-123 50.5t-51 122z" />
<glyph unicode="&#xb8;" horiz-adv-x="522" d="M72 -113q0 17 4 27q10 41 44 59.5t66 18.5q43 0 66 -27q12 -16 23.5 -42.5t25.5 -52.5t34.5 -44.5t51.5 -18.5q4 0 11.5 5.5t4.5 17.5q-4 25 -19 40l-34 35q-18 19 -32.5 51t-14.5 85v88h260v-88q43 -12 66.5 -32.5t34 -48.5t11.5 -58.5t1 -59.5q0 -33 -11.5 -82t-43 -93 t-86 -76.5t-138.5 -32.5t-144 23.5t-98 62.5t-56.5 89t-22.5 101q-4 33 -4 53z" />
<glyph unicode="&#xb9;" horiz-adv-x="548" d="M65 1208q0 15 6.5 29t18.5 24l132 99q12 9 25.5 16t30.5 7q37 0 61 -22.5t24 -57.5v-497q0 -35 -24 -58t-60 -23q-35 0 -57.5 23t-22.5 58v332q-23 -18 -48 -18q-33 0 -61 28q-25 25 -25 60z" />
<glyph unicode="&#xba;" horiz-adv-x="976" d="M84 983q0 86 31.5 158.5t87 128t128 86t156.5 30.5q86 0 159 -30.5t128 -86t87 -128t32 -158.5q0 -84 -32 -156.5t-87 -128t-128 -87t-159 -31.5q-84 0 -156.5 31.5t-128 87t-87 128t-31.5 156.5zM440 983q0 -18 14.5 -32.5t32.5 -14.5q20 0 34 14.5t14 32.5 q0 20 -13.5 32.5t-34.5 12.5q-18 0 -32.5 -12.5t-14.5 -32.5z" />
<glyph unicode="&#xbb;" horiz-adv-x="1427" d="M92 164q0 49 25.5 87t60.5 73l189 188l-187 188q-35 35 -60.5 73t-25.5 89q0 72 46 118t118 46q39 0 73 -16.5t58 -40.5q2 0 2 -2l311 -344q43 -47 43 -109q0 -63 -43 -111l-231.5 -259t-83.5 -87q-25 -27 -58.5 -43t-72.5 -16q-72 0 -118 47t-46 119zM698 164 q0 49 27 87t61 73l189 188l-187 188q-35 35 -61.5 73t-26.5 89q0 72 47.5 118t118.5 46q39 0 73 -16.5t58 -40.5q2 0 2 -2l312 -344q41 -47 41 -109q0 -63 -41 -111l-232 -259t-86 -87q-23 -27 -56.5 -43t-72.5 -16q-72 0 -119 47t-47 119z" />
<glyph unicode="&#xbc;" horiz-adv-x="1257" d="M63 1207q0 15 6.5 29t19.5 24l132 100q12 9 25.5 16t31.5 7q37 0 61 -22.5t24 -58.5v-500q0 -35 -24 -58t-60 -23q-35 0 -58 23t-23 58v335q-24 -18 -48 -18q-33 0 -61 27q-26 26 -26 61zM274 219l349 1104q23 68 85 99q38 19 78 20q26 0 54 -8q70 -25 102 -84 q19 -35 19 -74q0 -27 -9 -55l-348 -1104q-23 -70 -85 -101q-36 -18 -75 -17q-29 0 -59 9q-70 23 -100 82q-18 36 -19 75q0 26 8 54zM744 256q0 14 5 28.5t15 26.5l294 377l1 1q11 17 29.5 27.5t44.5 10.5q41 0 67 -25t26 -63v-294h2q39 0 63.5 -26.5t24.5 -66.5 q0 -39 -25 -63.5t-63 -24.5h-2v-75q0 -39 -26 -64t-66 -25q-39 0 -64 25.5t-25 63.5v75h-209q-19 0 -36 7.5t-29.5 21t-19.5 30t-7 33.5zM1001 345h57v69z" />
<glyph unicode="&#xbd;" horiz-adv-x="1495" d="M61 1207q0 15 6.5 29t19.5 24l132 100q12 9 25.5 16t31.5 7q37 0 61 -22.5t24 -58.5v-500q0 -35 -24 -58t-60 -23q-35 0 -58 23t-23 58v335q-24 -18 -49 -18q-33 0 -60 27q-26 26 -26 61zM323 217l345 1094q22 67 84 99q38 19 78 19q26 0 53 -8q69 -24 102 -83 q19 -35 19 -74q0 -26 -9 -54l-345 -1094q-22 -69 -85 -100q-36 -18 -74 -17q-28 0 -59 9q-69 22 -99 81q-18 35 -18 75q0 25 8 53zM861 86q0 14 5 28t16 24l142 131q37 35 66 67l23 29q12 14 19.5 28t12 26.5t2.5 21.5q-3 14 -15 25t-38 11q-19 0 -30 -6t-18.5 -14 t-13.5 -18.5t-14 -19t-21 -14.5t-33 -6q-33 0 -56 23t-23 55v1q0 23 16 51t44.5 51.5t66.5 38.5t82 15q39 0 77 -11.5t68 -35.5t48 -60.5t18 -88.5q0 -38 -15 -71.5t-34 -59.5q-21 -30 -49 -56l-100 -95h132q33 0 56 -22.5t23 -55t-23 -55.5t-56 -23h-288q-21 0 -37.5 7.5 t-28.5 19.5t-18 27.5t-6 31.5z" />
<glyph unicode="&#xbe;" horiz-adv-x="1394" d="M55 898q0 34 23.5 57.5t57.5 23.5t57.5 -23t23.5 -58q0 -18 8 -35t21.5 -31.5t31 -23.5t37.5 -9q13 0 30 4.5t33 15.5t27 30t11 48q0 33 -17.5 52.5t-38.5 30.5t-40 14t-24 3q-34 0 -58.5 24t-24.5 58t24 58t58 24q26 0 38.5 5t18 12t6 13.5t0.5 8.5q0 10 -8.5 23.5 t-30.5 13.5q-9 0 -18.5 -5t-16.5 -20q-10 -21 -30 -34.5t-45 -13.5q-34 0 -57.5 23.5t-23.5 57.5q0 12 3 24q7 22 23 46t39.5 42t54.5 30t67 12q38 0 74 -12t64 -35t45.5 -56t17.5 -76q0 -42 -11.5 -72.5t-38.5 -51.5q14 -2 33.5 -17t37 -40.5t29.5 -61.5t12 -80 q0 -66 -23.5 -114.5t-60 -81.5t-83 -48.5t-95.5 -15.5q-59 0 -107 22.5t-82.5 60t-53 84t-18.5 94.5zM457 219l348 1104q23 68 85 99q38 19 78 20q26 0 54 -8q70 -25 102 -84q19 -35 20 -74q0 -27 -9 -55l-349 -1104q-23 -70 -85 -101q-36 -18 -75 -17q-29 0 -59 9 q-70 23 -100 82q-18 36 -18 75q0 26 8 54zM867 253q0 14 4.5 28t14.5 26l290 371l1 1q11 17 29 27t44 10q40 0 65.5 -24.5t25.5 -62.5v-289h2q38 0 62.5 -26t24.5 -66q0 -38 -24.5 -62.5t-62.5 -24.5h-2v-73q0 -38 -25.5 -63t-64.5 -25q-38 0 -63 25t-25 63v73h-206 q-19 0 -35.5 7.5t-29 21t-19 30t-6.5 33.5zM1120 340h56v67z" />
<glyph unicode="&#xbf;" horiz-adv-x="1052" d="M-10 80q-2 250 97.5 362.5t283.5 118.5q6 16 14 31.5t24.5 28t45 21.5t71.5 9q90 0 130 -47t40 -116v-80q0 -70 -22.5 -121t-91.5 -51h-142q-39 0 -61.5 -15.5t-35.5 -37t-17 -41t-4 -25.5q0 -55 40 -88q38 -31 74 -31h4q55 2 76 24.5t37 53.5q18 45 37.5 72.5t41 42 t47.5 16.5t58 0q27 -2 55.5 -11t50 -26.5t35.5 -44.5q10 -20 10 -50q0 -9 -1 -20q-25 -176 -140.5 -276t-291.5 -111q-86 0 -157 17.5t-134 60.5q-66 41 -117 125t-57 209zM332 860q0 80 56.5 136.5t137.5 56.5q80 0 136.5 -56.5t56.5 -136.5q0 -82 -56.5 -138t-136.5 -56 q-82 0 -138 56t-56 138z" />
<glyph unicode="&#xc0;" horiz-adv-x="1378" d="M80 170q0 37 16 70l432 1046q18 47 65.5 72.5t96.5 27.5q55 0 97 -22.5t67 -75.5l428 -1048q16 -33 16 -72q0 -51 -27.5 -91t-76.5 -63q-33 -14 -74 -14q-49 0 -92 25.5t-61 76.5l-99 234h-358l-98 -234q-20 -51 -60.5 -76.5t-91.5 -25.5q-35 0 -76 16q-49 23 -76.5 63 t-27.5 91zM324 1898q0 45 22.5 84t65.5 64q45 27 88 27q45 0 81.5 -21.5t59.5 -62.5l145 -236q27 -43 27 -90q0 -43 -20.5 -80t-61.5 -61q-43 -29 -98 -29q-43 0 -80 20.5t-61 59.5l-144 235q-24 41 -24 90zM635 631h115l-60 162z" />
<glyph unicode="&#xc1;" horiz-adv-x="1378" d="M80 170q0 37 16 70l432 1046q18 47 65.5 72.5t96.5 27.5q55 0 97 -22.5t67 -75.5l428 -1048q16 -33 16 -72q0 -51 -27.5 -91t-76.5 -63q-33 -14 -74 -14q-49 0 -92 25.5t-61 76.5l-99 234h-358l-98 -234q-20 -51 -60.5 -76.5t-91.5 -25.5q-35 0 -76 16q-49 23 -76.5 63 t-27.5 91zM500 1640q0 47 26 91l146 235q25 41 61.5 62.5t79.5 21.5t88 -27q45 -25 67.5 -63.5t22.5 -83.5q0 -49 -26 -90l-144 -236q-23 -39 -59.5 -59.5t-81.5 -20.5q-53 0 -96 29q-41 25 -62.5 61.5t-21.5 79.5zM635 631h115l-60 162z" />
<glyph unicode="&#xc2;" horiz-adv-x="1378" d="M80 170q0 37 16 70l432 1046q18 47 65.5 72.5t96.5 27.5q55 0 97 -22.5t67 -75.5l428 -1048q16 -33 16 -72q0 -51 -27.5 -91t-76.5 -63q-33 -14 -74 -14q-49 0 -92 25.5t-61 76.5l-99 234h-358l-98 -234q-20 -51 -60.5 -76.5t-91.5 -25.5q-35 0 -76 16q-49 23 -76.5 63 t-27.5 91zM274 1634q0 39 16.5 73t41.5 58l4 2l227 197q47 41 111 41q61 0 108 -41l228 -197q2 0 2 -2q27 -25 43 -58.5t16 -72.5q0 -72 -47 -119t-119 -47q-49 0 -87 27t-73 61l-73 72l-72 -72q-35 -35 -73 -61.5t-89 -26.5q-72 0 -118 47t-46 119zM635 631h115l-60 162z " />
<glyph unicode="&#xc3;" horiz-adv-x="1378" d="M80 170q0 37 16 70l432 1046q18 47 65.5 72.5t96.5 27.5q55 0 97 -22.5t67 -75.5l428 -1048q16 -33 16 -72q0 -51 -27.5 -91t-76.5 -63q-33 -14 -74 -14q-49 0 -92 25.5t-61 76.5l-99 234h-358l-98 -234q-20 -51 -60.5 -76.5t-91.5 -25.5q-35 0 -76 16q-49 23 -76.5 63 t-27.5 91zM154 1620q-5 20 -5 38q0 22 7 44q8 23 21 45t29.5 42.5t35 38l32.5 30.5q41 31 100.5 60.5t160.5 29.5q45 0 91 -26t89 -58l81 -60q38 -27 68 -26q18 0 39 11t38 26.5t28.5 29t15.5 17.5q18 23 50 43t75 20q12 0 30.5 -5t38 -15.5t36 -27.5t24.5 -40q8 -18 10 -49 q1 -8 1 -15q0 -22 -5 -42q-20 -63 -69.5 -110.5t-108.5 -81.5t-116.5 -51.5t-92.5 -17.5q-37 0 -72.5 16.5t-69.5 40.5l-67 47q-33 24 -62.5 38t-58 14t-53.5 -24q-10 -6 -31 -25l-43 -39q-22 -20 -43.5 -37.5t-31.5 -19.5q-13 -3 -26 -3q-28 0 -53 13q-36 18 -59.5 52 t-33.5 77zM635 631h115l-60 162z" />
<glyph unicode="&#xc4;" horiz-adv-x="1378" d="M80 170q0 37 16 70l432 1046q18 47 65.5 72.5t96.5 27.5q55 0 97 -22.5t67 -75.5l428 -1048q16 -33 16 -72q0 -51 -27.5 -91t-76.5 -63q-33 -14 -74 -14q-49 0 -92 25.5t-61 76.5l-99 234h-358l-98 -234q-20 -51 -60.5 -76.5t-91.5 -25.5q-35 0 -76 16q-49 23 -76.5 63 t-27.5 91zM233 1671q0 80 56.5 136.5t136.5 56.5t136 -56.5t56 -136.5q0 -82 -56 -138t-136 -56t-136.5 56t-56.5 138zM635 631h115l-60 162zM719 1671q0 80 56 136.5t136 56.5q82 0 138.5 -56.5t56.5 -136.5q0 -82 -56.5 -138t-138.5 -56q-80 0 -136 56t-56 138z" />
<glyph unicode="&#xc5;" horiz-adv-x="1378" d="M80 170q0 37 16 70l432 1046q18 47 65.5 72.5t96.5 27.5q55 0 97 -22.5t67 -75.5l428 -1048q16 -33 16 -72q0 -51 -27.5 -91t-76.5 -63q-33 -14 -74 -14q-49 0 -92 25.5t-61 76.5l-99 234h-358l-98 -234q-20 -51 -60.5 -76.5t-91.5 -25.5q-35 0 -76 16q-49 23 -76.5 63 t-27.5 91zM451 1694q0 45 17 86t46 71.5t71 48t87 17.5t86 -17.5t71.5 -48t48 -71.5t17.5 -86q0 -47 -17.5 -88t-48 -71t-71.5 -47.5t-86 -17.5q-94 0 -157.5 65t-63.5 159zM635 631h115l-60 162zM651 1694q0 -20 21 -21q18 0 18 21q0 18 -18 18q-21 0 -21 -18z" />
<glyph unicode="&#xc6;" horiz-adv-x="1804" d="M80 170q0 37 16 70l432 1046q18 47 65.5 72.5t96.5 27.5q55 0 97 -22.5t67 -75.5l428 -1048q16 -33 16 -72q0 -51 -27.5 -91t-76.5 -63q-33 -14 -74 -14q-49 0 -92 25.5t-61 76.5l-99 234h-358l-98 -234q-20 -51 -60.5 -76.5t-91.5 -25.5q-35 0 -76 16q-49 23 -76.5 63 t-27.5 91zM635 631h115l-60 162zM936 170v535v14v498q0 53 19.5 85.5t46 51t55 24.5t49.5 6h467q74 0 121 -49t47 -127q0 -74 -47 -121t-121 -47h-291v-166h94q74 0 122 -50t48 -126q0 -74 -48 -121t-122 -47h-94v-184h289q74 0 121 -50t47 -126q0 -74 -47 -122t-121 -48 h-473q-70 0 -116 49t-46 121z" />
<glyph unicode="&#xc7;" horiz-adv-x="1460" d="M84 690.5q0 143.5 54.5 269t148.5 220t219 148.5t268 54q170 0 314.5 -74.5t240.5 -201.5q43 -53 43 -113q0 -33 -15.5 -64.5t-39 -57t-56 -39t-67.5 -13.5q-33 0 -65.5 13.5t-63.5 46.5q-47 70 -122 113.5t-167 43.5q-72 0 -134 -27.5t-110.5 -75.5t-75 -110.5 t-26.5 -134.5t26.5 -134t75 -110.5t111 -76t133.5 -27.5q90 0 164 41t121 111q57 55 125 55q35 0 67.5 -15.5t57 -41t39 -58.5t14.5 -67q0 -25 -6 -45.5t-21 -40.5q-94 -133 -241.5 -206t-321.5 -73q-143 0 -268 54.5t-219 147.5t-148.5 219t-54.5 269.5zM374 -185 q0 17 3 27q10 41 44 59.5t66 18.5q43 0 66 -26q12 -16 23.5 -43t25.5 -52.5t34.5 -44t51.5 -18.5q4 0 11.5 5t5.5 17q-4 25 -20 40l-34 35q-18 19 -32.5 51t-14.5 85v88h260v-88q43 -12 66.5 -32.5t34 -48t11.5 -58.5t1 -59q0 -33 -11.5 -82t-43 -93.5t-86 -77t-138.5 -32.5 t-144 23.5t-98 62.5t-56.5 89t-22.5 101q-3 33 -3 53z" />
<glyph unicode="&#xc8;" horiz-adv-x="966" d="M80 170v535v14v498q0 53 19.5 85.5t46 51t55 24.5t49.5 6h467q74 0 121 -49t47 -127q0 -74 -47 -121t-121 -47h-291v-166h94q74 0 122 -50t48 -126q0 -74 -48 -121t-122 -47h-94v-184h289q74 0 121 -50t47 -126q0 -74 -47.5 -122t-120.5 -48h-473q-70 0 -116 49t-46 121z M170 1866q0 45 22.5 84t65.5 63q45 27 88 27q45 0 82 -21.5t59 -62.5l146 -236q27 -43 26 -90q0 -43 -20.5 -80t-60.5 -61q-43 -29 -99 -29q-43 0 -80 20.5t-61 59.5l-143 236q-25 41 -25 90z" />
<glyph unicode="&#xc9;" horiz-adv-x="966" d="M80 170v535v14v498q0 53 19.5 85.5t46 51t55 24.5t49.5 6h467q74 0 121 -49t47 -127q0 -74 -47 -121t-121 -47h-291v-166h94q74 0 122 -50t48 -126q0 -74 -48 -121t-122 -47h-94v-184h289q74 0 121 -50t47 -126q0 -74 -47.5 -122t-120.5 -48h-473q-70 0 -116 49t-46 121z M244 1645q0 47 26 90l146 235q25 41 61.5 62.5t79.5 21.5t88 -26q45 -25 67.5 -64t22.5 -84q0 -49 -26 -90l-144 -236q-23 -39 -59.5 -59t-81.5 -20q-53 0 -96 28q-41 25 -62.5 62t-21.5 80z" />
<glyph unicode="&#xca;" horiz-adv-x="997" d="M94 1640q0 39 16.5 73t41.5 59l4 2l227 196q47 41 111 41q61 0 108 -41l227 -196q2 0 2 -2q27 -25 43.5 -59t16.5 -73q0 -72 -47 -118.5t-119 -46.5q-49 0 -87 26.5t-73 61.5l-73 71l-72 -71q-35 -35 -73 -61.5t-89 -26.5q-72 0 -118 46.5t-46 118.5zM102 170v535v14v498 q0 53 19.5 85.5t46.5 51t55.5 24.5t48.5 6h467q74 0 121 -49t47 -127q0 -74 -47 -121t-121 -47h-290v-166h94q74 0 122 -50t48 -126q0 -74 -48.5 -121t-121.5 -47h-94v-184h288q74 0 121 -50t47 -126q0 -74 -47 -122t-121 -48h-473q-70 0 -116 49t-46 121z" />
<glyph unicode="&#xcb;" horiz-adv-x="1034" d="M84 1671q0 80 56.5 136.5t136 56.5t136 -56.5t56.5 -136.5q0 -82 -56.5 -138t-136 -56t-136 56t-56.5 138zM133 170v535v14v498q0 53 19.5 85.5t46 51t55.5 24.5t49 6h467q74 0 121 -49t47 -127q0 -74 -47 -121t-121 -47h-291v-166h94q74 0 122 -50t48 -126 q0 -74 -48 -121t-122 -47h-94v-184h289q74 0 121 -50t47 -126q0 -74 -47 -122t-121 -48h-473q-70 0 -116 49t-46 121zM569 1671q0 80 56.5 136.5t136.5 56.5q82 0 138 -56.5t56 -136.5q0 -82 -56 -138t-138 -56q-80 0 -136.5 56t-56.5 138z" />
<glyph unicode="&#xcc;" horiz-adv-x="563" d="M-74 1876q0 45 22.5 84t65.5 63q45 27 88 27q45 0 82 -21.5t60 -62.5l145 -235q27 -43 27 -91q0 -43 -20.5 -79.5t-61.5 -61.5q-43 -29 -98 -29q-43 0 -80 20.5t-62 59.5l-143 236q-25 41 -25 90zM111 170v1044q0 74 50 121t126 47q74 0 121 -47t47 -121v-1044 q0 -74 -49.5 -122t-124.5 -48q-74 0 -122 48t-48 122z" />
<glyph unicode="&#xcd;" horiz-adv-x="544" d="M104 170v1044q0 74 50.5 121t126.5 47q74 0 121 -47t47 -121v-1044q0 -74 -49.5 -122t-125.5 -48q-74 0 -122 48t-48 122zM109 1628q0 47 26 90l146 236q25 41 61.5 62.5t79.5 21.5t88 -27q45 -25 67.5 -63.5t22.5 -83.5q0 -49 -27 -90l-143 -236q-23 -39 -59.5 -59.5 t-81.5 -20.5q-53 0 -96 29q-41 25 -62.5 61.5t-21.5 79.5z" />
<glyph unicode="&#xce;" horiz-adv-x="583" d="M-121 1636q0 39 16.5 73t41.5 58l4 2l227 197q47 41 111 41q61 0 108 -41l227 -197q2 0 2 -2q27 -25 43.5 -58.5t16.5 -72.5q0 -72 -47 -119t-119 -47q-49 0 -87 27t-73 62l-74 71l-71 -71q-35 -35 -73 -62t-89 -27q-72 0 -118 47t-46 119zM115 170v1044q0 74 50 121 t126 47q74 0 121 -47t47 -121v-1044q0 -74 -49.5 -122t-124.5 -48q-74 0 -122 48t-48 122z" />
<glyph unicode="&#xcf;" horiz-adv-x="573" d="M-154 1671q0 80 56.5 136.5t136.5 56.5t136 -56.5t56 -136.5q0 -82 -56 -138t-136 -56t-136.5 56t-56.5 138zM111 170v1044q0 74 50 121t126 47q74 0 121 -47t47 -121v-1044q0 -74 -49.5 -122t-124.5 -48q-74 0 -122 48t-48 122zM332 1671q0 80 56 136.5t136 56.5 q82 0 138.5 -56.5t56.5 -136.5q0 -82 -56.5 -138t-138.5 -56q-80 0 -136 56t-56 138z" />
<glyph unicode="&#xd0;" horiz-adv-x="1497" d="M94 674q0 74 47 121t121 47h465q74 0 122 -51.5t48 -116.5q0 -74 -48 -125t-122 -51h-465q-74 0 -121 50t-47 126zM268 170v1044q0 37 15 68q16 49 59 76.5t98 27.5h289q139 0 263 -58t215 -154.5t144.5 -222.5t53.5 -261q0 -143 -54.5 -269t-146.5 -219t-215 -147.5 t-260 -54.5h-297q-70 2 -117 50t-47 120zM614 340h115q72 0 134.5 31.5t105.5 82t67.5 112t24.5 122.5q0 70 -25.5 131.5t-71.5 108.5t-106.5 75.5t-130.5 32.5h-113v-696z" />
<glyph unicode="&#xd1;" horiz-adv-x="1220" d="M74 1614q-5 20 -5 38q0 22 7 44q8 23 21.5 45t29.5 42.5t34.5 38t33.5 29.5q41 31 100 61t160 30q45 0 91 -26t89 -58l81 -60q38 -27 68 -26q18 0 39 11t38.5 26.5t28.5 28.5t15 17q18 23 50 43.5t75 20.5q12 0 30.5 -5t38 -15.5t36 -28t24.5 -39.5q8 -18 10 -49 q1 -8 1 -15q0 -22 -5 -43q-20 -63 -69 -110t-108.5 -81t-117 -51.5t-92.5 -17.5q-37 0 -72.5 16.5t-69.5 40.5l-67 47q-33 24 -62.5 38t-58 14t-53.5 -25q-10 -6 -30 -24l-43 -39q-22 -20 -44 -37.5t-32 -19.5q-13 -3 -26 -3q-28 0 -53 13q-36 18 -59.5 52t-33.5 77z M104 170v1044q0 74 50.5 121t126.5 47q49 0 87 -22.5t60 -61.5l340 -534v450q0 74 50 121t126 47q74 0 122 -47t48 -121v-1044q0 -74 -50 -122t-126 -48q-90 0 -137 66l-352 555v-451q0 -74 -49.5 -122t-125.5 -48q-74 0 -122 48t-48 122z" />
<glyph unicode="&#xd2;" horiz-adv-x="1550" d="M84 690.5q0 143.5 54.5 269t148.5 220t219 148.5t268.5 54t269 -54t221 -148.5t149.5 -220t54 -269t-54 -269.5t-149.5 -219t-221 -147.5t-269 -54.5t-268.5 54.5t-219 147.5t-148.5 219t-54.5 269.5zM430 688q0 -72 26.5 -134t75 -110.5t111 -76t134 -27.5t135 27.5 t111.5 76t74.5 110.5t26.5 134t-26.5 134.5t-74.5 110.5t-111.5 75.5t-135 27.5t-134 -27.5t-111 -75.5t-75 -110.5t-26.5 -134.5zM451 1872q0 45 22.5 84t65.5 63q45 27 88 27q45 0 81.5 -21.5t59.5 -62.5l145 -236q27 -43 27 -90q0 -43 -20.5 -79.5t-61.5 -61.5 q-43 -29 -98 -29q-43 0 -80 20.5t-62 59.5l-143 236q-24 41 -24 90z" />
<glyph unicode="&#xd3;" horiz-adv-x="1550" d="M84 690.5q0 143.5 54.5 269t148.5 220t219 148.5t268.5 54t269 -54t221 -148.5t149.5 -220t54 -269t-54 -269.5t-149.5 -219t-221 -147.5t-269 -54.5t-268.5 54.5t-219 147.5t-148.5 219t-54.5 269.5zM430 688q0 -72 26.5 -134t75 -110.5t111 -76t134 -27.5t135 27.5 t111.5 76t74.5 110.5t26.5 134t-26.5 134.5t-74.5 110.5t-111.5 75.5t-135 27.5t-134 -27.5t-111 -75.5t-75 -110.5t-26.5 -134.5zM586 1630q0 47 26 90l146 236q25 41 61.5 62.5t79.5 21.5t88 -27q45 -25 67.5 -63.5t22.5 -83.5q0 -49 -26 -90l-144 -236 q-23 -39 -59.5 -59.5t-81.5 -20.5q-53 0 -96 29q-41 25 -62.5 61.5t-21.5 79.5z" />
<glyph unicode="&#xd4;" horiz-adv-x="1550" d="M84 690.5q0 143.5 54.5 269t148.5 220t219 148.5t268.5 54t269 -54t221 -148.5t149.5 -220t54 -269t-54 -269.5t-149.5 -219t-221 -147.5t-269 -54.5t-268.5 54.5t-219 147.5t-148.5 219t-54.5 269.5zM362 1640q0 39 16.5 73t41.5 59l4 2l227 196q47 41 111 41 q61 0 108 -41l228 -196q2 0 2 -2q27 -25 43 -59t16 -73q0 -72 -47 -118.5t-119 -46.5q-49 0 -87 26.5t-72 61.5l-74 71l-72 -71q-35 -35 -72.5 -61.5t-89.5 -26.5q-72 0 -118 46.5t-46 118.5zM430 688q0 -72 26.5 -134t75 -110.5t111 -76t134 -27.5t135 27.5t111.5 76 t74.5 110.5t26.5 134t-26.5 134.5t-74.5 110.5t-111.5 75.5t-135 27.5t-134 -27.5t-111 -75.5t-75 -110.5t-26.5 -134.5z" />
<glyph unicode="&#xd5;" horiz-adv-x="1550" d="M84 690.5q0 143.5 54.5 269t148.5 220t219 148.5t268.5 54t269 -54t221 -148.5t149.5 -220t54 -269t-54 -269.5t-149.5 -219t-221 -147.5t-269 -54.5t-268.5 54.5t-219 147.5t-148.5 219t-54.5 269.5zM233 1618q-5 20 -4 38q0 22 7 44q8 23 21 45t29.5 42.5t35 38 t32.5 29.5q41 31 100.5 61t159.5 30q45 0 91.5 -26t89.5 -58l81 -60q38 -27 68 -26q18 0 39 11t38 26.5t28.5 28.5t15.5 18q18 23 50 43t75 20q12 0 30.5 -5t38 -15.5t36 -27.5t24.5 -40q8 -18 10 -49q1 -8 1 -15q0 -22 -5 -42q-20 -63 -69.5 -110.5t-109 -81.5 t-116.5 -51.5t-92 -17.5q-37 0 -73 16.5t-69 40.5l-67 47q-33 24 -62.5 38t-58 14t-53.5 -25q-10 -6 -31 -24l-43 -39q-22 -20 -43.5 -37.5t-31.5 -19.5q-13 -3 -26 -3q-28 0 -53 13q-36 18 -60 52t-34 77zM430 688q0 -72 26.5 -134t75 -110.5t111 -76t134 -27.5t135 27.5 t111.5 76t74.5 110.5t26.5 134t-26.5 134.5t-74.5 110.5t-111.5 75.5t-135 27.5t-134 -27.5t-111 -75.5t-75 -110.5t-26.5 -134.5z" />
<glyph unicode="&#xd6;" horiz-adv-x="1550" d="M84 690.5q0 143.5 54.5 269t148.5 220t219 148.5t268.5 54t269 -54t221 -148.5t149.5 -220t54 -269t-54 -269.5t-149.5 -219t-221 -147.5t-269 -54.5t-268.5 54.5t-219 147.5t-148.5 219t-54.5 269.5zM338 1659q0 80 56.5 136t136 56t136 -56t56.5 -136 q0 -82 -56.5 -138.5t-136 -56.5t-136 56.5t-56.5 138.5zM430 688q0 -72 26.5 -134t75 -110.5t111 -76t134 -27.5t135 27.5t111.5 76t74.5 110.5t26.5 134t-26.5 134.5t-74.5 110.5t-111.5 75.5t-135 27.5t-134 -27.5t-111 -75.5t-75 -110.5t-26.5 -134.5zM823 1659 q0 80 56.5 136t136.5 56q82 0 138 -56t56 -136q0 -82 -56 -138.5t-138 -56.5q-80 0 -136.5 56.5t-56.5 138.5z" />
<glyph unicode="&#xd7;" horiz-adv-x="1255" d="M119 856q0 61 53 115q55 55 127 55q61 0 115 -49l207 -225l219 227q53 53 116 53q68 0 129 -57q51 -53 52 -117q0 -68 -54 -123l-217 -225l213 -201q53 -55 54 -123q0 -66 -52 -116q-29 -29 -62.5 -43.5t-66.5 -14.5q-61 0 -116 51l-215 203l-199 -200q-53 -53 -121 -54 q-33 0 -63.5 13.5t-55.5 40.5q-57 51 -57 122q0 70 53 123l197 199l-201 221q-55 55 -55 125z" />
<glyph unicode="&#xd8;" horiz-adv-x="1550" d="M84 690.5q0 143.5 54.5 269t148.5 220t219 148.5t268.5 54t269 -54t221 -148.5t149.5 -220t54 -269t-54 -269.5t-149.5 -219t-221 -147.5t-269 -54.5t-268.5 54.5t-219 147.5t-148.5 219t-54.5 269.5zM426 193l348 1103q23 68 85 100q38 19 79 19q26 0 53 -8 q70 -25 103 -84q19 -35 19 -74q0 -27 -9 -55l-348 -1104q-23 -70 -85 -100q-36 -18 -75 -18q-29 0 -59 10q-70 23 -101 81q-18 36 -18 75q0 27 8 55zM430 688q0 -72 26.5 -134t75 -110.5t111 -76t134 -27.5t135 27.5t111.5 76t74.5 110.5t26.5 134t-26.5 134.5t-74.5 110.5 t-111.5 75.5t-135 27.5t-134 -27.5t-111 -75.5t-75 -110.5t-26.5 -134.5z" />
<glyph unicode="&#xd9;" horiz-adv-x="1169" d="M98 483v727q0 76 46 123t122 47q74 0 125 -43t51 -127v-727q0 -35 13.5 -60.5t35 -43t45 -25.5t48.5 -8q23 0 48 8t45.5 25.5t35 43.5t14.5 60v727q0 84 51 127t125 43q76 0 123 -47t47 -123v-727q0 -86 -32.5 -173t-96 -155.5t-154 -111.5t-207 -43t-206.5 43 t-151.5 111.5t-94.5 155.5t-33 173zM260 1864q0 45 22.5 84t65.5 63q45 27 88 27q45 0 82 -21.5t60 -62.5l145 -236q27 -43 27 -90q0 -43 -20.5 -80t-61.5 -61q-43 -29 -99 -29q-43 0 -79.5 20.5t-61.5 59.5l-143 236q-25 41 -25 90z" />
<glyph unicode="&#xda;" horiz-adv-x="1169" d="M98 483v727q0 76 46 123t122 47q74 0 125 -43t51 -127v-727q0 -35 13.5 -60.5t35 -43t45 -25.5t48.5 -8q23 0 48 8t45.5 25.5t35 43.5t14.5 60v727q0 84 51 127t125 43q76 0 123 -47t47 -123v-727q0 -86 -32.5 -173t-96 -155.5t-154 -111.5t-207 -43t-206.5 43 t-151.5 111.5t-94.5 155.5t-33 173zM381 1645q0 47 27 90l145 235q25 41 61.5 62.5t79.5 21.5t88 -26q45 -25 67.5 -64t22.5 -84q0 -49 -26 -90l-144 -236q-23 -39 -59.5 -59t-81.5 -20q-53 0 -96 28q-41 25 -62.5 62t-21.5 80z" />
<glyph unicode="&#xdb;" horiz-adv-x="1169" d="M98 483v727q0 76 46 123t122 47q74 0 125 -43t51 -127v-727q0 -35 13.5 -60.5t35 -43t45 -25.5t48.5 -8q23 0 48 8t45.5 25.5t35 43.5t14.5 60v727q0 84 51 127t125 43q76 0 123 -47t47 -123v-727q0 -86 -32.5 -173t-96 -155.5t-154 -111.5t-207 -43t-206.5 43 t-151.5 111.5t-94.5 155.5t-33 173zM180 1642q0 39 16.5 73t41.5 59l4 2l227 196q47 41 111 41q61 0 108 -41l227 -196q2 0 3 -2q27 -25 43 -59t16 -73q0 -72 -47 -118.5t-119 -46.5q-49 0 -87 26.5t-73 61.5l-73 71l-72 -71q-35 -35 -73 -61.5t-89 -26.5q-72 0 -118 46.5 t-46 118.5z" />
<glyph unicode="&#xdc;" horiz-adv-x="1169" d="M98 483v727q0 76 46 123t122 47q74 0 125 -43t51 -127v-727q0 -35 13.5 -60.5t35 -43t45 -25.5t48.5 -8q23 0 48 8t45.5 25.5t35 43.5t14.5 60v727q0 84 51 127t125 43q76 0 123 -47t47 -123v-727q0 -86 -32.5 -173t-96 -155.5t-154 -111.5t-207 -43t-206.5 43 t-151.5 111.5t-94.5 155.5t-33 173zM152 1659q0 80 56 136t136 56t136.5 -56t56.5 -136q0 -82 -56.5 -138.5t-136.5 -56.5t-136 56.5t-56 138.5zM637 1659q0 80 56.5 136t135.5 56q82 0 138.5 -56t56.5 -136q0 -82 -56.5 -138.5t-138.5 -56.5q-80 0 -136 56.5t-56 138.5z " />
<glyph unicode="&#xdd;" horiz-adv-x="1150" d="M76 1210q0 43 20.5 81t59.5 63q45 31 98 30q41 0 78 -19t63 -56l176 -322l187 322q27 37 63.5 56t77.5 19q53 0 98 -30q39 -25 59.5 -63t20.5 -81q0 -45 -30 -92l-304 -473v-475q0 -74 -50 -122t-126 -48q-74 0 -122 48t-48 122v475l-291 473q-30 47 -30 92zM406 1640 q0 47 26 91l146 235q25 41 61.5 62.5t79.5 21.5t88 -27q45 -25 67.5 -63.5t22.5 -83.5q0 -49 -27 -90l-143 -236q-23 -39 -59.5 -59.5t-81.5 -20.5q-53 0 -97 29q-41 25 -62 61.5t-21 79.5z" />
<glyph unicode="&#xde;" horiz-adv-x="1204" d="M74 -223v1442q0 74 47 120.5t123 46.5q74 0 125 -43t51 -124v-230q82 37 184 39q104 0 198.5 -42t166 -113.5t113.5 -168t42 -203t-41 -200.5t-111.5 -166t-165.5 -113.5t-206 -41.5q-100 0 -180 32v-235q0 -74 -50.5 -122t-125.5 -48q-74 0 -122 48t-48 122zM422 504 q0 -74 52 -126t126 -52q76 0 128 52t52 126q0 76 -52 128t-128 52q-74 0 -126 -52t-52 -128z" />
<glyph unicode="&#xdf;" horiz-adv-x="1132" d="M94 170l8 758q0 113 42 203t115 151t170 95t206 36q82 -2 157.5 -27.5t133 -77t92.5 -123t35 -165.5q0 -102 -33 -163.5t-70 -98.5q-45 -41 -102 -62q57 -31 100 -75q37 -39 70 -98.5t33 -141.5q0 -80 -34 -150.5t-90.5 -125t-131 -85t-154.5 -32.5q-70 0 -125 37.5 t-55 107.5q0 109 37 146.5t106 37.5q14 0 32.5 5.5t35 17.5t29 31.5t12.5 50.5q0 51 -35 78.5t-74 29.5q-84 0 -112.5 47.5t-28.5 117t29.5 117.5t113.5 48q4 0 21.5 3t36 14.5t34 32t15.5 57.5q0 14 -7.5 33.5t-19.5 36t-33.5 27.5t-48.5 11q-57 0 -90 -17.5t-49 -42 t-21.5 -49t-5.5 -38.5l-6 -758q0 -70 -50 -120t-119.5 -50t-119 50t-49.5 120z" />
<glyph unicode="&#xe0;" d="M88 522q0 109 41 204t111.5 166t167 113t208.5 46q104 0 198.5 -42t166.5 -114t114 -169t42 -204v-15q0 -9 -1 -44t-1 -104v-189q0 -37 -17.5 -67.5t-44 -53t-62.5 -36t-73 -13.5q-39 0 -79 29.5t-48 64.5q-4 -10 -20.5 -25.5t-44 -29.5t-66.5 -25.5t-90 -11.5 q-109 0 -200 39t-157.5 108.5t-105.5 164.5t-39 208zM283 1540q0 45 22.5 84t65.5 64q45 27 88 26q45 0 82 -21.5t59 -62.5l145 -235q27 -43 27 -90q0 -43 -20.5 -80t-61.5 -62q-43 -29 -98 -28q-43 0 -80 20.5t-61 58.5l-144 236q-24 41 -24 90zM434 526.5 q0 -75.5 52.5 -127t125.5 -51.5q76 0 128.5 50.5t52.5 132.5q0 32 -14 62q-15 34 -39.5 59.5t-58.5 39t-69 13.5q-74 0 -126 -51.5t-52 -127z" />
<glyph unicode="&#xe1;" d="M88 522q0 109 41 204t111.5 166t167 113t208.5 46q104 0 198.5 -42t166.5 -114t114 -169t42 -204v-15q0 -9 -1 -44t-1 -104v-189q0 -37 -17.5 -67.5t-44 -53t-62.5 -36t-73 -13.5q-39 0 -79 29.5t-48 64.5q-4 -10 -20.5 -25.5t-44 -29.5t-66.5 -25.5t-90 -11.5 q-109 0 -200 39t-157.5 108.5t-105.5 164.5t-39 208zM434 526.5q0 -75.5 52.5 -127t125.5 -51.5q76 0 128.5 50.5t52.5 132.5q0 32 -14 62q-15 34 -39.5 59.5t-58.5 39t-69 13.5q-74 0 -126 -51.5t-52 -127zM438 1305q0 47 27 90l145 235q25 41 62 62.5t80 21.5t88 -26 q45 -25 67.5 -64t22.5 -84q0 -49 -27 -90l-143 -236q-23 -39 -59.5 -59t-82.5 -20q-53 0 -96 28q-41 25 -62.5 62t-21.5 80z" />
<glyph unicode="&#xe2;" d="M88 526q0 109 41 204t111.5 166t167 113t208.5 46q104 0 198.5 -42t166.5 -114t114 -169t42 -204v-15q0 -9 -1 -44t-1 -103v-190q0 -37 -17.5 -67.5t-44 -53t-62.5 -36t-73 -13.5q-39 0 -79 29.5t-48 64.5q-4 -10 -20.5 -25.5t-44 -29.5t-66.5 -25.5t-90 -11.5 q-109 0 -200 39t-157.5 108.5t-105.5 164.5t-39 208zM233 1290q0 39 16.5 73t41.5 58l4 2l227 197q47 41 111 41q61 0 108 -41l228 -197q2 0 2 -2q27 -25 43 -58.5t16 -72.5q0 -72 -47 -119t-119 -47q-49 0 -87 27t-72 61l-74 72l-72 -72q-35 -35 -72.5 -61.5t-89.5 -26.5 q-72 0 -118 47t-46 119zM434 530.5q0 -75.5 52.5 -127t125.5 -51.5q76 0 128.5 50.5t52.5 132.5q0 32 -14 62q-15 34 -39.5 59.5t-58.5 39t-69 13.5q-74 0 -126 -51.5t-52 -127z" />
<glyph unicode="&#xe3;" d="M121 1290q-5 20 -5 38q0 22 7 44q8 23 21.5 45.5t29.5 43t34.5 38t33.5 29.5q41 31 100 60.5t160 29.5q45 0 91 -25.5t89 -58.5l81 -59q38 -27 68 -27q18 0 39 11t38.5 26.5t28.5 29t15 17.5q18 23 50 43t75 20q12 0 30.5 -5t38 -15t36 -27.5t24.5 -40.5q8 -18 11 -49 q1 -8 0 -15q0 -22 -5 -42q-20 -63 -69 -110.5t-108.5 -81t-117 -51t-92.5 -17.5q-37 0 -72.5 16.5t-69.5 39.5l-67 47q-33 24 -62.5 38t-58 14t-53.5 -24q-10 -6 -30 -25l-43 -39q-22 -20 -44 -37.5t-32 -19.5q-13 -3 -26 -3q-28 0 -53 13q-36 18 -59.5 52t-33.5 77z M139 522q0 109 41 204t111.5 166t167 113t209.5 46q104 0 198.5 -42t166 -114t113.5 -169t42 -204v-15q0 -9 -1 -44t-1 -104v-189q0 -37 -17.5 -67.5t-44 -53t-62.5 -36t-73 -13.5q-39 0 -79 29.5t-48 64.5q-4 -10 -20.5 -25.5t-44 -29.5t-66.5 -25.5t-90 -11.5 q-109 0 -200 39t-157.5 108.5t-105.5 164.5t-39 208zM485 526.5q0 -75.5 52.5 -127t126.5 -51.5q76 0 128 50.5t52 132.5q0 32 -14 62q-15 34 -39.5 59.5t-58.5 39t-68 13.5q-74 0 -126.5 -51.5t-52.5 -127z" />
<glyph unicode="&#xe4;" d="M88 522q0 109 41 204t111.5 166t167 113t208.5 46q104 0 198.5 -42t166.5 -114t114 -169t42 -204v-15q0 -9 -1 -44t-1 -104v-189q0 -37 -17.5 -67.5t-44 -53t-62.5 -36t-73 -13.5q-39 0 -79 29.5t-48 64.5q-4 -10 -20.5 -25.5t-44 -29.5t-66.5 -25.5t-90 -11.5 q-109 0 -200 39t-157.5 108.5t-105.5 164.5t-39 208zM180 1395q0 80 56.5 136t136.5 56t136 -56t56 -136q0 -82 -56 -138.5t-136 -56.5t-136.5 56.5t-56.5 138.5zM434 526.5q0 -75.5 52.5 -127t125.5 -51.5q76 0 128.5 50.5t52.5 132.5q0 32 -14 62q-15 34 -39.5 59.5 t-58.5 39t-69 13.5q-74 0 -126 -51.5t-52 -127zM666 1395q0 80 56 136t136 56q82 0 138.5 -56t56.5 -136q0 -82 -56.5 -138.5t-138.5 -56.5q-80 0 -136 56.5t-56 138.5z" />
<glyph unicode="&#xe5;" d="M88 522q0 109 41 204t111.5 166t167 113t208.5 46q104 0 198.5 -42t166.5 -114t114 -169t42 -204v-15q0 -9 -1 -44t-1 -104v-189q0 -37 -17.5 -67.5t-44 -53t-62.5 -36t-73 -13.5q-39 0 -79 29.5t-48 64.5q-4 -10 -20.5 -25.5t-44 -29.5t-66.5 -25.5t-90 -11.5 q-109 0 -200 39t-157.5 108.5t-105.5 164.5t-39 208zM412 1364q0 45 17 86t46 71.5t71 48t87 17.5t86 -17.5t71.5 -48t48 -71.5t17.5 -86q0 -47 -17.5 -88t-48 -70.5t-71.5 -47t-86 -17.5q-94 0 -157.5 64.5t-63.5 158.5zM434 526.5q0 -75.5 52.5 -127t125.5 -51.5 q76 0 128.5 50.5t52.5 132.5q0 32 -14 62q-15 34 -39.5 59.5t-58.5 39t-69 13.5q-74 0 -126 -51.5t-52 -127zM612 1364q0 -20 21 -21q18 0 18 21q0 18 -18 18q-21 0 -21 -18z" />
<glyph unicode="&#xe6;" horiz-adv-x="1996" d="M88 522q0 109 41 204t111.5 166t167 113t208.5 46q104 0 198.5 -42t166.5 -114t114 -169t42 -204v-15q0 -9 -1 -44t-1 -104v-189q0 -37 -17.5 -67.5t-44 -53t-62.5 -36t-73 -13.5q-39 0 -79 29.5t-48 64.5q-4 -10 -20.5 -25.5t-44 -29.5t-66.5 -25.5t-90 -11.5 q-109 0 -200 39t-157.5 108.5t-105.5 164.5t-39 208zM434 526.5q0 -75.5 52.5 -127t125.5 -51.5q76 0 128.5 50.5t52.5 132.5q0 32 -14 62q-15 34 -39.5 59.5t-58.5 39t-69 13.5q-74 0 -126 -51.5t-52 -127zM860 522q0 109 41 204t110.5 166t167 113t210.5 46q100 0 192 -33 t164 -97.5t115 -165t45 -235.5q0 -55 -40 -95t-98 -40h-557q14 -33 43 -52.5t58.5 -28.5t53.5 -11t28 -2q18 0 41 2q20 2 44.5 5t55.5 13q31 6 66.5 30t66.5 24q57 0 93 -38t36 -98q0 -43 -22 -77q-33 -43 -78 -73t-96.5 -47.5t-106.5 -23.5t-109 -6q-109 0 -203 39 t-165.5 108.5t-113.5 164.5t-42 208zM1204 651h375q0 14 -15.5 34t-41 35t-60.5 26.5t-73 11.5q-86 0 -135.5 -37t-49.5 -70z" />
<glyph unicode="&#xe7;" horiz-adv-x="1110" d="M88 539q0 119 44 213t115.5 160.5t164 101.5t192.5 35q57 0 117.5 -12.5t114 -34t96.5 -55.5t69 -75q27 -43 27 -96q0 -76 -49 -125t-125 -49q-39 0 -67.5 18.5t-57.5 41.5q-20 18 -50 29t-75 11q-51 -2 -90 -20q-33 -18 -59.5 -50t-26.5 -93q0 -70 25.5 -108t57.5 -56.5 t60.5 -22.5t32.5 -4q45 0 65.5 9.5t55.5 33.5q31 23 60.5 40.5t68.5 17.5q76 0 125 -49.5t49 -125.5q0 -55 -27 -96q-27 -43 -69.5 -75.5t-96 -54t-113.5 -34t-118 -12.5q-100 0 -192.5 33t-164 100.5t-115.5 167t-44 236.5zM232 -162q0 17 4 27q10 41 43.5 59.5t66.5 18.5 q43 0 66 -27q12 -16 23 -43t25.5 -52.5t35 -44t51.5 -18.5q4 0 11 5.5t5 17.5q-4 25 -19 40l-34 35q-18 19 -32.5 51t-14.5 85v88h260v-88q43 -12 66.5 -32.5t34 -48.5t11.5 -58.5t1 -59.5q0 -33 -11.5 -82t-43 -93t-86 -77t-138.5 -33t-144.5 24t-98.5 62.5t-56 89 t-22 101.5q-4 33 -4 53z" />
<glyph unicode="&#xe8;" horiz-adv-x="1212" d="M84 522q0 109 41 204t110.5 166t167 113t209.5 46q100 0 192.5 -33t164 -97.5t114.5 -165t45 -235.5q0 -55 -39.5 -95t-97.5 -40h-557q14 -33 43 -52.5t58.5 -28.5t53 -11t27.5 -2q18 0 41 2q20 2 45 5t56 13q31 6 66.5 30t66.5 24q57 0 93 -38t36 -98q0 -43 -23 -77 q-33 -43 -78 -73t-96 -47.5t-106 -23.5t-109 -6q-109 0 -203 39t-165.5 108.5t-113.5 164.5t-42 208zM276 1538q0 45 23 84t66 64q45 27 88 26q45 0 81.5 -21.5t59.5 -62.5l145 -235q27 -43 27 -90q0 -43 -20.5 -80t-61.5 -62q-43 -29 -98 -28q-43 0 -80 20.5t-62 58.5 l-143 236q-25 41 -25 90zM428 651h375q0 14 -15.5 34t-41 35t-60.5 26.5t-74 11.5q-86 0 -135 -37t-49 -70z" />
<glyph unicode="&#xe9;" horiz-adv-x="1212" d="M84 522q0 109 41 204t110.5 166t167 113t209.5 46q100 0 192.5 -33t164 -97.5t114.5 -165t45 -235.5q0 -55 -39.5 -95t-97.5 -40h-557q14 -33 43 -52.5t58.5 -28.5t53 -11t27.5 -2q18 0 41 2q20 2 45 5t56 13q31 6 66.5 30t66.5 24q57 0 93 -38t36 -98q0 -43 -23 -77 q-33 -43 -78 -73t-96 -47.5t-106 -23.5t-109 -6q-109 0 -203 39t-165.5 108.5t-113.5 164.5t-42 208zM387 1305q0 47 27 90l145 235q25 41 61.5 62.5t79.5 21.5t88 -26q45 -25 68 -64t23 -84q0 -49 -27 -90l-143 -236q-23 -39 -60 -59t-82 -20q-53 0 -96 28q-41 25 -62.5 62 t-21.5 80zM428 651h375q0 14 -15.5 34t-41 35t-60.5 26.5t-74 11.5q-86 0 -135 -37t-49 -70z" />
<glyph unicode="&#xea;" horiz-adv-x="1212" d="M84 522q0 109 41 204t110.5 166t167 113t209.5 46q100 0 192.5 -33t164 -97.5t114.5 -165t45 -235.5q0 -55 -39.5 -95t-97.5 -40h-557q14 -33 43 -52.5t58.5 -28.5t53 -11t27.5 -2q18 0 41 2q20 2 45 5t56 13q31 6 66.5 30t66.5 24q57 0 93 -38t36 -98q0 -43 -23 -77 q-33 -43 -78 -73t-96 -47.5t-106 -23.5t-109 -6q-109 0 -203 39t-165.5 108.5t-113.5 164.5t-42 208zM215 1298q0 39 16.5 73t40.5 59l4 2l228 196q47 41 110 41q61 0 109 -41l227 -196q2 0 2 -2q27 -25 43.5 -59t16.5 -73q0 -72 -47 -118.5t-119 -46.5q-49 0 -87 26.5 t-73 61.5l-74 71l-71 -71q-35 -35 -73 -61.5t-89 -26.5q-72 0 -118 46.5t-46 118.5zM428 651h375q0 14 -15.5 34t-41 35t-60.5 26.5t-74 11.5q-86 0 -135 -37t-49 -70z" />
<glyph unicode="&#xeb;" horiz-adv-x="1212" d="M84 522q0 109 41 204t110.5 166t167 113t209.5 46q100 0 192.5 -33t164 -97.5t114.5 -165t45 -235.5q0 -55 -39.5 -95t-97.5 -40h-557q14 -33 43 -52.5t58.5 -28.5t53 -11t27.5 -2q18 0 41 2q20 2 45 5t56 13q31 6 66.5 30t66.5 24q57 0 93 -38t36 -98q0 -43 -23 -77 q-33 -43 -78 -73t-96 -47.5t-106 -23.5t-109 -6q-109 0 -203 39t-165.5 108.5t-113.5 164.5t-42 208zM170 1399q0 80 56.5 136t136 56t136 -56t56.5 -136q0 -82 -56.5 -138.5t-136 -56.5t-136 56.5t-56.5 138.5zM428 651h375q0 14 -15.5 34t-41 35t-60.5 26.5t-74 11.5 q-86 0 -135 -37t-49 -70zM655 1399q0 80 56.5 136t136.5 56q82 0 138 -56t56 -136q0 -82 -56 -138.5t-138 -56.5q-80 0 -136.5 56.5t-56.5 138.5z" />
<glyph unicode="&#xec;" horiz-adv-x="489" d="M-82 1536q0 45 22.5 84t65.5 63q45 27 88 27q45 0 82 -21.5t60 -62.5l145 -235q27 -43 27 -91q0 -43 -20.5 -79.5t-61.5 -61.5q-43 -29 -99 -29q-43 0 -79.5 20.5t-61.5 59.5l-143 236q-25 41 -25 90zM74 170v715q0 76 46 123t122 47q78 0 128 -47t50 -123v-715 q0 -74 -50.5 -122t-125.5 -48q-74 0 -122 48t-48 122z" />
<glyph unicode="&#xed;" horiz-adv-x="520" d="M80 170v715q0 76 46 123t122 47q78 0 128 -47t50 -123v-715q0 -74 -50 -122t-126 -48q-74 0 -122 48t-48 122zM115 1282q0 47 26 90l146 236q25 41 61.5 62.5t79.5 21.5t88 -27q45 -25 67.5 -63.5t22.5 -83.5q0 -49 -26 -91l-144 -235q-23 -39 -59.5 -59.5t-81.5 -20.5 q-53 0 -96 29q-41 25 -62.5 61.5t-21.5 79.5z" />
<glyph unicode="&#xee;" horiz-adv-x="544" d="M-86 1309q0 39 16.5 72.5t40.5 58.5l4 2l228 196q47 41 110 41q61 0 109 -41l227 -196q2 0 2 -2q27 -25 43.5 -58.5t16.5 -72.5q0 -72 -47.5 -119t-118.5 -47q-49 0 -87 26.5t-73 61.5l-74 72l-71 -72q-35 -35 -73 -61.5t-89 -26.5q-72 0 -118 47t-46 119zM109 170v715 q0 76 46 123t121 47q78 0 128.5 -47t50.5 -123v-715q0 -74 -50.5 -122t-125.5 -48q-74 0 -122 48t-48 122z" />
<glyph unicode="&#xef;" horiz-adv-x="692" d="M-88 1391q0 80 56.5 136t136 56t136 -56.5t56.5 -135.5q0 -82 -56.5 -138.5t-136 -56.5t-136 56.5t-56.5 138.5zM154 170v715q0 76 46 123t122 47q78 0 128 -47t50 -123v-715q0 -74 -50.5 -122t-125.5 -48q-74 0 -122 48t-48 122zM397 1391q0 80 56.5 136t136.5 56 q82 0 138 -56.5t56 -135.5q0 -82 -56 -138.5t-138 -56.5q-80 0 -136.5 56.5t-56.5 138.5z" />
<glyph unicode="&#xf1;" horiz-adv-x="1024" d="M-10 1282q-5 20 -5 38q0 22 7 44q8 23 21.5 45.5t29.5 43t34.5 37.5l33.5 30q41 31 100 60.5t160 29.5q45 0 91 -25.5t89 -58.5l81 -60q38 -27 68 -26q18 0 39 11t38.5 26.5t28.5 29t15 17.5q18 23 50 43t75 20q12 0 30.5 -5t38 -15.5t36 -27.5t24.5 -40q8 -18 10 -49 q1 -8 1 -15q0 -22 -5 -42q-20 -63 -69 -110.5t-108.5 -81.5t-117 -51t-92.5 -17q-37 0 -72.5 16t-69.5 40l-67 47q-33 24 -62.5 38t-58 14t-53.5 -24q-10 -6 -30 -25l-43 -39q-22 -20 -44 -37.5t-32 -19.5q-13 -3 -26 -3q-28 0 -53 13q-36 18 -59.5 52t-33.5 77zM111 170 v715q0 76 38.5 123t114.5 47q31 0 51.5 -11.5t32.5 -27.5q16 -16 27 -37q20 20 43 37q23 12 55.5 24.5t77.5 12.5q104 0 174 -28t112 -88t60 -151.5t18 -214.5v-401q0 -74 -47 -122t-123 -48q-74 0 -125 43t-51 127v401q0 70 -5 100.5t-42 33.5h-9q-41 0 -48 -33 q-8 -37 -10 -101v-401q0 -74 -46.5 -122t-121.5 -48q-74 0 -125 43t-51 127z" />
<glyph unicode="&#xf2;" horiz-adv-x="1216" d="M84 522q0 109 41 204t110.5 166t167 113t209.5 46q104 0 198.5 -42t166.5 -114t114 -169t42 -204q0 -104 -41 -199.5t-112 -167t-166 -112.5t-206 -41q-109 0 -203 39t-165.5 108.5t-113.5 164.5t-42 208zM270 1544q0 45 22.5 84t65.5 64q45 27 88 26q45 0 82 -21.5 t60 -62.5l145 -235q27 -43 27 -90q0 -43 -20.5 -80t-61.5 -62q-43 -29 -98 -28q-43 0 -80 20.5t-62 59.5l-143 235q-25 41 -25 90zM430 526.5q0 -75.5 52.5 -127t125.5 -51.5q76 0 128 51.5t52 127t-52 127t-128 51.5q-74 0 -126 -51.5t-52 -127z" />
<glyph unicode="&#xf3;" horiz-adv-x="1216" d="M84 522q0 109 41 204t110.5 166t167 113t209.5 46q104 0 198.5 -42t166.5 -114t114 -169t42 -204q0 -104 -41 -199.5t-112 -167t-166 -112.5t-206 -41q-109 0 -203 39t-165.5 108.5t-113.5 164.5t-42 208zM430 526.5q0 -75.5 52.5 -127t125.5 -51.5q76 0 128 51.5t52 127 t-52 127t-128 51.5q-74 0 -126 -51.5t-52 -127zM440 1309q0 47 27 90l145 235q25 41 62 62.5t80 21.5t88 -26q45 -25 67.5 -64t22.5 -84q0 -49 -27 -90l-143 -235q-23 -39 -59.5 -59.5t-81.5 -20.5q-53 0 -97 28q-41 25 -62.5 62t-21.5 80z" />
<glyph unicode="&#xf4;" horiz-adv-x="1216" d="M84 522q0 109 41 204t110.5 166t167 113t209.5 46q104 0 198.5 -42t166.5 -114t114 -169t42 -204q0 -104 -41 -199.5t-112 -167t-166 -112.5t-206 -41q-109 0 -203 39t-165.5 108.5t-113.5 164.5t-42 208zM225 1305q0 39 16.5 72.5t41.5 58.5l4 2l227 196q47 41 111 41 q61 0 108 -41l228 -196q2 0 2 -2q27 -25 43 -59t16 -72q0 -72 -47 -119t-119 -47q-49 0 -87 26.5t-73 61.5l-73 71l-72 -71q-35 -35 -73 -61.5t-89 -26.5q-72 0 -118 47t-46 119zM430 526.5q0 -75.5 52.5 -127t125.5 -51.5q76 0 128 51.5t52 127t-52 127t-128 51.5 q-74 0 -126 -51.5t-52 -127z" />
<glyph unicode="&#xf5;" horiz-adv-x="1216" d="M111 522q0 109 41 204t110.5 166t166.5 113t210 46q104 0 198.5 -42t166 -114t113.5 -169t42 -204q0 -104 -41 -199.5t-111.5 -167t-166 -112.5t-205.5 -41q-109 0 -203 39t-165.5 108.5t-113.5 164.5t-42 208zM117 1290q-5 20 -5 38q0 22 7 44q8 23 21.5 45.5t29.5 43 t34.5 38t33.5 29.5q41 31 100 60.5t160 29.5q45 0 91 -25.5t89 -58.5l81 -59q38 -27 68 -27q18 0 39 11t38.5 26.5t28.5 29t15 17.5q18 23 50 43t75 20q12 0 30.5 -5t38 -15t36 -27.5t24.5 -40.5q8 -18 10 -49q1 -8 1 -15q0 -22 -5 -42q-20 -63 -69 -110.5t-108.5 -81 t-117 -51t-92.5 -17.5q-37 0 -72.5 16.5t-69.5 39.5l-67 47q-33 24 -62.5 38t-58 14t-53.5 -24q-10 -6 -30 -25l-43 -39q-22 -20 -44 -37.5t-32 -19.5q-13 -3 -26 -3q-28 0 -53 13q-36 18 -59.5 52t-33.5 77zM457 526.5q0 -75.5 52 -127t126 -51.5q76 0 128 51.5t52 127 t-52 127t-128 51.5q-74 0 -126 -51.5t-52 -127z" />
<glyph unicode="&#xf6;" horiz-adv-x="1216" d="M84 522q0 109 41 204t110.5 166t167 113t209.5 46q104 0 198.5 -42t166.5 -114t114 -169t42 -204q0 -104 -41 -199.5t-112 -167t-166 -112.5t-206 -41q-109 0 -203 39t-165.5 108.5t-113.5 164.5t-42 208zM182 1393q0 80 56.5 136t136.5 56t136 -56t56 -136 q0 -82 -56 -138.5t-136 -56.5t-136.5 56.5t-56.5 138.5zM430 526.5q0 -75.5 52.5 -127t125.5 -51.5q76 0 128 51.5t52 127t-52 127t-128 51.5q-74 0 -126 -51.5t-52 -127zM668 1393q0 80 56 136t136 56q82 0 138.5 -56t56.5 -136q0 -82 -56.5 -138.5t-138.5 -56.5 q-80 0 -136 56.5t-56 138.5z" />
<glyph unicode="&#xf7;" horiz-adv-x="946" d="M49 680q0 74 48 121t122 47h526q74 0 115 -50t41 -118q0 -74 -48 -125t-122 -51h-512q-74 0 -122 50t-48 126zM268 287q0 80 57.5 136t137.5 56t136 -56t56 -136t-56 -136.5t-136 -56.5t-137.5 56.5t-57.5 136.5zM268 1069q0 80 57.5 136.5t137.5 56.5t136 -56.5 t56 -136.5q0 -82 -56 -138.5t-136 -56.5t-137.5 56.5t-57.5 138.5z" />
<glyph unicode="&#xf8;" horiz-adv-x="1216" d="M84 522q0 109 41 204t110.5 166t167 113t209.5 46q104 0 198.5 -42t166.5 -114t114 -169t42 -204q0 -104 -41 -199.5t-112 -167t-166 -112.5t-206 -41q-109 0 -203 39t-165.5 108.5t-113.5 164.5t-42 208zM279 51l348 1104q23 68 85 99q38 19 78 20q26 0 54 -8 q70 -25 102 -84q19 -35 20 -74q0 -27 -10 -55l-348 -1104q-23 -70 -85 -101q-36 -18 -75 -17q-29 0 -59 9q-70 23 -100 82q-18 36 -19 75q1 26 9 54zM430 526.5q0 -75.5 52.5 -127t125.5 -51.5q76 0 128 51.5t52 127t-52 127t-128 51.5q-74 0 -126 -51.5t-52 -127z" />
<glyph unicode="&#xf9;" horiz-adv-x="1007" d="M102 483v402q0 76 46.5 123t122 47t125.5 -43t50 -127v-402q0 -70 6.5 -100.5t43.5 -32.5h5q44 0 51 35q7 37 11 98v402q0 76 46 123t122 47q74 0 125 -43t51 -127v-715q0 -74 -36.5 -122t-86.5 -48q-51 0 -77.5 11.5t-42.5 25.5q-16 16 -21 39q-20 -23 -42.5 -37 t-56.5 -25.5t-77 -11.5q-186 0 -275.5 115.5t-89.5 365.5zM174 1544q0 45 22.5 84t65.5 64q45 27 88 26q45 0 82 -21.5t60 -62.5l145 -235q27 -43 27 -90q0 -43 -20.5 -80t-61.5 -62q-43 -29 -99 -28q-43 0 -79.5 20.5t-61.5 59.5l-143 235q-25 41 -25 90z" />
<glyph unicode="&#xfa;" horiz-adv-x="1007" d="M102 483v402q0 76 46.5 123t122 47t125.5 -43t50 -127v-402q0 -70 6.5 -100.5t43.5 -32.5h5q44 0 51 35q7 37 11 98v402q0 76 46 123t122 47q74 0 125 -43t51 -127v-715q0 -74 -36.5 -122t-86.5 -48q-51 0 -77.5 11.5t-42.5 25.5q-16 16 -21 39q-20 -23 -42.5 -37 t-56.5 -25.5t-77 -11.5q-186 0 -275.5 115.5t-89.5 365.5zM309 1305q0 47 27 90l145 235q25 41 62 62.5t80 21.5t88 -26q45 -25 67.5 -64t22.5 -84q0 -49 -27 -90l-143 -236q-23 -39 -59.5 -59t-82.5 -20q-53 0 -96 28q-41 25 -62.5 62t-21.5 80z" />
<glyph unicode="&#xfb;" horiz-adv-x="1007" d="M102 483v402q0 76 46.5 123t122 47t125.5 -43t50 -127v-402q0 -70 6.5 -100.5t43.5 -32.5h5q44 0 51 35q7 37 11 98v402q0 76 46 123t122 47q74 0 125 -43t51 -127v-715q0 -74 -36.5 -122t-86.5 -48q-51 0 -77.5 11.5t-42.5 25.5q-16 16 -21 39q-20 -23 -42.5 -37 t-56.5 -25.5t-77 -11.5q-186 0 -275.5 115.5t-89.5 365.5zM104 1305q0 39 16.5 72.5t41.5 58.5l4 2l227 196q47 41 111 41q61 0 108 -41l228 -196q2 0 2 -2q27 -25 43 -59t16 -72q0 -72 -47 -119t-119 -47q-49 0 -87 26.5t-73 61.5l-73 71l-72 -71q-35 -35 -73 -61.5 t-89 -26.5q-72 0 -118 47t-46 119z" />
<glyph unicode="&#xfc;" horiz-adv-x="1056" d="M102 1391q0 80 56.5 136t136.5 56t136 -56.5t56 -135.5q0 -82 -56 -138.5t-136 -56.5t-136.5 56.5t-56.5 138.5zM137 483v402q0 76 46 123t122 47t126 -43t50 -127v-402q0 -70 6.5 -100.5t42.5 -32.5h5q44 0 52 35q7 37 11 98v402q0 76 46 123t122 47q74 0 125 -43 t51 -127v-715q0 -74 -37 -122t-86 -48q-51 0 -77.5 11.5t-43.5 25.5q-16 16 -20 39q-20 -23 -43 -37t-56.5 -25.5t-76.5 -11.5q-186 0 -275.5 115.5t-89.5 365.5zM588 1391q0 80 56 136t136 56q82 0 138.5 -56.5t56.5 -135.5q0 -82 -56.5 -138.5t-138.5 -56.5 q-80 0 -136 56.5t-56 138.5z" />
<glyph unicode="&#xfd;" horiz-adv-x="1058" d="M72 885q0 55 30.5 95t85.5 60q37 10 64 11q49 0 91 -29t65 -84l137 -365l104 365q18 53 60.5 84t93.5 31q25 0 61 -11q55 -20 88 -60t33 -97q0 -25 -10 -62l-357 -1106q-18 -51 -61 -80.5t-94 -29.5q-18 0 -33.5 2t-32.5 8q-55 20 -84.5 61t-29.5 95q0 27 10 59l92 285 l-303 706q-10 37 -10 62zM350 1319q0 47 27 90l145 236q25 41 62 62.5t80 21.5t88 -27q45 -25 67.5 -64t22.5 -84q0 -49 -27 -90l-143 -235q-23 -39 -60 -59.5t-82 -20.5q-53 0 -96 29q-41 25 -62.5 61.5t-21.5 79.5z" />
<glyph unicode="&#xfe;" horiz-adv-x="1210" d="M80 -172v1391q0 74 47 120.5t123 46.5q74 0 125 -43t51 -124v-230q82 37 184 39q104 0 198.5 -42t166.5 -113.5t113.5 -168t41.5 -203t-40.5 -200.5t-111.5 -166t-166 -113.5t-206 -41.5q-100 0 -180 32v-184q0 -74 -50 -121t-126 -47q-74 0 -122 47t-48 121zM428 504 q0 -74 52 -126t126 -52q76 0 128 52t52 126q0 76 -52 128t-128 52q-74 0 -126 -52t-52 -128z" />
<glyph unicode="&#xff;" horiz-adv-x="1058" d="M72 885q0 55 30.5 95t85.5 60q37 10 64 11q49 0 91 -29t65 -84l137 -365l104 365q18 53 60.5 84t93.5 31q25 0 61 -11q55 -20 88 -60t33 -97q0 -25 -10 -62l-357 -1106q-18 -51 -61 -80.5t-94 -29.5q-18 0 -33.5 2t-32.5 8q-55 20 -84.5 61t-29.5 95q0 27 10 59l92 285 l-303 706q-10 37 -10 62zM92 1389q0 80 56.5 136t136.5 56t136 -56.5t56 -135.5q0 -82 -56 -138.5t-136 -56.5t-136.5 56.5t-56.5 138.5zM578 1389q0 80 56 136t136 56q82 0 138.5 -56.5t56.5 -135.5q0 -82 -56.5 -138.5t-138.5 -56.5q-80 0 -136 56.5t-56 138.5z" />
<glyph unicode="&#x100;" horiz-adv-x="1378" d="M80 170q0 37 16 70l432 1046q18 47 65.5 72.5t96.5 27.5q55 0 97 -22.5t67 -75.5l428 -1048q16 -33 16 -72q0 -51 -27.5 -91t-76.5 -63q-33 -14 -74 -14q-49 0 -92 25.5t-61 76.5l-99 234h-358l-98 -234q-20 -51 -60.5 -76.5t-91.5 -25.5q-35 0 -76 16q-49 23 -76.5 63 t-27.5 91zM358 1655q0 74 48.5 122t121.5 48h285q74 0 121 -51.5t47 -118.5q0 -74 -47 -125t-121 -51h-285q-74 0 -122 50t-48 126zM635 631h115l-60 162z" />
<glyph unicode="&#x101;" d="M88 522q0 109 41 204t111.5 166t167 113t208.5 46q104 0 198.5 -42t166.5 -114t114 -169t42 -204v-15q0 -9 -1 -44t-1 -104v-189q0 -37 -17.5 -67.5t-44 -53t-62.5 -36t-73 -13.5q-39 0 -79 29.5t-48 64.5q-4 -10 -20.5 -25.5t-44 -29.5t-66.5 -25.5t-90 -11.5 q-109 0 -200 39t-157.5 108.5t-105.5 164.5t-39 208zM301 1313q0 74 48 122t122 48h285q74 0 121 -51.5t47 -118.5q0 -74 -47.5 -125t-120.5 -51h-285q-74 0 -122 50t-48 126zM434 526.5q0 -75.5 52.5 -127t125.5 -51.5q76 0 128.5 50.5t52.5 132.5q0 32 -14 62 q-15 34 -39.5 59.5t-58.5 39t-69 13.5q-74 0 -126 -51.5t-52 -127z" />
<glyph unicode="&#x102;" horiz-adv-x="1378" d="M80 170q0 37 16 70l432 1046q18 47 65.5 72.5t96.5 27.5q55 0 97 -22.5t67 -75.5l428 -1048q16 -33 16 -72q0 -51 -27.5 -91t-76.5 -63q-33 -14 -74 -14q-49 0 -92 25.5t-61 76.5l-99 234h-358l-98 -234q-20 -51 -60.5 -76.5t-91.5 -25.5q-35 0 -76 16q-49 23 -76.5 63 t-27.5 91zM281 1903v4q0 72 50 123t122 51q51 0 93 -26.5t64 -72.5q8 -18 12.5 -46.5t11.5 -54.5t19.5 -43t40.5 -17q31 0 41 17t15.5 43t6.5 54.5t11 46.5q23 45 64.5 72t91.5 27q72 0 123 -51.5t51 -122.5v-4q0 -57 -20.5 -133t-68.5 -141.5t-124 -112t-188.5 -46.5 t-191.5 46.5t-129 112t-72.5 141.5t-22.5 133zM635 631h115l-60 162z" />
<glyph unicode="&#x103;" d="M88 522q0 109 41 204t111.5 166t167 113t208.5 46q104 0 198.5 -42t166.5 -114t114 -169t42 -204v-15q0 -9 -1 -44t-1 -104v-189q0 -37 -17.5 -67.5t-44 -53t-62.5 -36t-73 -13.5q-39 0 -79 29.5t-48 64.5q-4 -10 -20.5 -25.5t-44 -29.5t-66.5 -25.5t-90 -11.5 q-109 0 -200 39t-157.5 108.5t-105.5 164.5t-39 208zM203 1567v4q0 72 50 123t122 51q51 0 93 -26.5t64 -71.5q8 -18 12.5 -47t11.5 -54.5t19.5 -43t40.5 -17.5q31 0 41.5 17.5t15.5 43t6 54t11 47.5q23 45 65 71.5t91 26.5q72 0 123 -51.5t51 -122.5v-4q0 -57 -20.5 -133 t-68.5 -141.5t-124 -111.5t-188.5 -46t-191.5 46t-129 111.5t-72.5 141.5t-22.5 133zM434 526.5q0 -75.5 52.5 -127t125.5 -51.5q76 0 128.5 50.5t52.5 132.5q0 32 -14 62q-15 34 -39.5 59.5t-58.5 39t-69 13.5q-74 0 -126 -51.5t-52 -127z" />
<glyph unicode="&#x104;" horiz-adv-x="1392" d="M80 170q0 37 16 70l432 1046q18 47 65.5 72.5t96.5 27.5q55 0 97 -22.5t67 -75.5l428 -1048q16 -33 16 -72q0 -51 -27.5 -91t-76.5 -63q-33 -14 -74 -14q-49 0 -92 25.5t-61 76.5l-99 234h-358l-98 -234q-20 -51 -60.5 -76.5t-91.5 -25.5q-35 0 -76 16q-49 23 -76.5 63 t-27.5 91zM635 631h115l-60 162zM905 -23q0 37 13.5 60.5t29 43t27.5 38t12 45.5h287q0 -53 -10.5 -83t-25.5 -48.5t-28.5 -31.5t-15.5 -36q-2 -14 5 -19t11 -5q27 0 46.5 18t34 42t26.5 49.5t22 37.5q8 10 24.5 15.5t37.5 5.5q35 0 69.5 -17.5t47.5 -62.5q4 -10 4 -34 t-6 -42q-20 -51 -46 -100.5t-65 -87t-94.5 -61t-128.5 -23.5q-86 0 -140.5 34.5t-84 80.5t-41 97t-11.5 84z" />
<glyph unicode="&#x105;" d="M88 522q0 109 41 204t111.5 166t167 113t208.5 46q104 0 198.5 -42t166.5 -114t114 -169t42 -204v-15q0 -9 -1 -44t-1 -104v-189q0 -37 -17.5 -67.5t-44 -53t-62.5 -36t-73 -13.5q-39 0 -79 29.5t-48 64.5q-4 -10 -20.5 -25.5t-44 -29.5t-66.5 -25.5t-90 -11.5 q-109 0 -200 39t-157.5 108.5t-105.5 164.5t-39 208zM434 526.5q0 -75.5 52.5 -127t125.5 -51.5q76 0 128.5 50.5t52.5 132.5q0 32 -14 62q-15 34 -39.5 59.5t-58.5 39t-69 13.5q-74 0 -126 -51.5t-52 -127zM766 -31q0 37 13.5 60.5t28.5 43t27.5 38t12.5 45.5h287 q0 -53 -10.5 -83t-26 -48.5t-28.5 -31.5t-15 -36q-2 -14 5 -19.5t11 -5.5q27 0 46.5 18.5t33.5 42t26.5 49.5t22.5 38q8 10 24.5 15t37.5 5q35 0 69.5 -17t46.5 -63q4 -10 4 -33.5t-6 -41.5q-20 -51 -45.5 -100.5t-64.5 -87.5t-94.5 -61.5t-129.5 -23.5q-86 0 -140 35 t-84 81t-41 97t-11 84z" />
<glyph unicode="&#x106;" horiz-adv-x="1460" d="M84 690.5q0 143.5 54.5 269t148.5 220t219 148.5t268 54q170 0 314.5 -74.5t240.5 -201.5q43 -53 43 -113q0 -33 -15.5 -64.5t-39 -57t-56 -39t-67.5 -13.5q-33 0 -65.5 13.5t-63.5 46.5q-47 70 -122 113.5t-167 43.5q-72 0 -134 -27.5t-110.5 -75.5t-75 -110.5 t-26.5 -134.5t26.5 -134t75 -110.5t111 -76t133.5 -27.5q90 0 164 41t121 111q57 55 125 55q35 0 67.5 -15.5t57 -41t39 -58.5t14.5 -67q0 -25 -6 -45.5t-21 -40.5q-94 -133 -241.5 -206t-321.5 -73q-143 0 -268 54.5t-219 147.5t-148.5 219t-54.5 269.5zM553 1632 q0 47 27 90l145 236q25 41 61.5 62.5t79.5 21.5t88 -27q45 -25 67.5 -63.5t22.5 -83.5q0 -49 -26 -90l-144 -236q-23 -39 -59.5 -59.5t-81.5 -20.5q-53 0 -96 29q-41 25 -62.5 61.5t-21.5 79.5z" />
<glyph unicode="&#x107;" horiz-adv-x="1110" d="M88 539q0 119 44 213t115.5 160.5t164 101.5t192.5 35q57 0 117.5 -12.5t114 -34t96.5 -55.5t69 -75q27 -43 27 -96q0 -76 -49 -125t-125 -49q-39 0 -67.5 18.5t-57.5 41.5q-20 18 -50 29t-75 11q-51 -2 -90 -20q-33 -18 -59.5 -50t-26.5 -93q0 -70 25.5 -108t57.5 -56.5 t60.5 -22.5t32.5 -4q45 0 65.5 9.5t55.5 33.5q31 23 60.5 40.5t68.5 17.5q76 0 125 -49.5t49 -125.5q0 -55 -27 -96q-27 -43 -69.5 -75.5t-96 -54t-113.5 -34t-118 -12.5q-100 0 -192.5 33t-164 100.5t-115.5 167t-44 236.5zM410 1309q0 47 26 90l146 235q25 41 61.5 62.5 t79.5 21.5t88 -26q45 -25 67.5 -64t22.5 -84q0 -49 -27 -90l-143 -235q-23 -39 -59.5 -59.5t-81.5 -20.5q-53 0 -96 28q-41 25 -62.5 62t-21.5 80z" />
<glyph unicode="&#x108;" horiz-adv-x="1460" d="M84 690.5q0 143.5 54.5 269t148.5 220t219 148.5t268 54q170 0 314.5 -74.5t240.5 -201.5q43 -53 43 -113q0 -33 -15.5 -64.5t-39 -57t-56 -39t-67.5 -13.5q-33 0 -65.5 13.5t-63.5 46.5q-47 70 -122 113.5t-167 43.5q-72 0 -134 -27.5t-110.5 -75.5t-75 -110.5 t-26.5 -134.5t26.5 -134t75 -110.5t111 -76t133.5 -27.5q90 0 164 41t121 111q57 55 125 55q35 0 67.5 -15.5t57 -41t39 -58.5t14.5 -67q0 -25 -6 -45.5t-21 -40.5q-94 -133 -241.5 -206t-321.5 -73q-143 0 -268 54.5t-219 147.5t-148.5 219t-54.5 269.5zM356 1634 q0 39 16.5 73t41.5 58l4 2l227 197q47 41 111 41q61 0 108 -41l228 -197q2 0 2 -2q27 -25 43 -58.5t16 -72.5q0 -72 -47 -119t-119 -47q-49 0 -87 27t-73 61l-73 72l-72 -72q-35 -35 -73 -61.5t-89 -26.5q-72 0 -118 47t-46 119z" />
<glyph unicode="&#x109;" horiz-adv-x="1110" d="M88 539q0 119 44 213t115.5 160.5t164 101.5t192.5 35q57 0 117.5 -12.5t114 -34t96.5 -55.5t69 -75q27 -43 27 -96q0 -76 -49 -125t-125 -49q-39 0 -67.5 18.5t-57.5 41.5q-20 18 -50 29t-75 11q-51 -2 -90 -20q-33 -18 -59.5 -50t-26.5 -93q0 -70 25.5 -108t57.5 -56.5 t60.5 -22.5t32.5 -4q45 0 65.5 9.5t55.5 33.5q31 23 60.5 40.5t68.5 17.5q76 0 125 -49.5t49 -125.5q0 -55 -27 -96q-27 -43 -69.5 -75.5t-96 -54t-113.5 -34t-118 -12.5q-100 0 -192.5 33t-164 100.5t-115.5 167t-44 236.5zM178 1303q0 39 16.5 72.5t41.5 58.5l4 2l227 196 q47 41 111 41q61 0 108 -41l227 -196q2 0 2 -2q27 -25 43.5 -59t16.5 -72q0 -72 -47 -119t-119 -47q-49 0 -87 26.5t-73 61.5l-74 71l-71 -71q-35 -35 -73 -61.5t-89 -26.5q-72 0 -118 47t-46 119z" />
<glyph unicode="&#x10a;" horiz-adv-x="1460" d="M84 690.5q0 143.5 54.5 269t148.5 220t219 148.5t268 54q170 0 314.5 -74.5t240.5 -201.5q43 -53 43 -113q0 -33 -15.5 -64.5t-39 -57t-56 -39t-67.5 -13.5q-33 0 -65.5 13.5t-63.5 46.5q-47 70 -122 113.5t-167 43.5q-72 0 -134 -27.5t-110.5 -75.5t-75 -110.5 t-26.5 -134.5t26.5 -134t75 -110.5t111 -76t133.5 -27.5q90 0 164 41t121 111q57 55 125 55q35 0 67.5 -15.5t57 -41t39 -58.5t14.5 -67q0 -25 -6 -45.5t-21 -40.5q-94 -133 -241.5 -206t-321.5 -73q-143 0 -268 54.5t-219 147.5t-148.5 219t-54.5 269.5zM561 1669 q0 80 55.5 135.5t135.5 55.5q82 0 137 -55.5t55 -135.5q0 -82 -55 -137t-137 -55q-80 0 -135.5 55t-55.5 137z" />
<glyph unicode="&#x10b;" horiz-adv-x="1110" d="M88 539q0 119 44 213t115.5 160.5t164 101.5t192.5 35q57 0 117.5 -12.5t114 -34t96.5 -55.5t69 -75q27 -43 27 -96q0 -76 -49 -125t-125 -49q-39 0 -67.5 18.5t-57.5 41.5q-20 18 -50 29t-75 11q-51 -2 -90 -20q-33 -18 -59.5 -50t-26.5 -93q0 -70 25.5 -108t57.5 -56.5 t60.5 -22.5t32.5 -4q45 0 65.5 9.5t55.5 33.5q31 23 60.5 40.5t68.5 17.5q76 0 125 -49.5t49 -125.5q0 -55 -27 -96q-27 -43 -69.5 -75.5t-96 -54t-113.5 -34t-118 -12.5q-100 0 -192.5 33t-164 100.5t-115.5 167t-44 236.5zM391 1393q0 80 55.5 135t135.5 55q82 0 137 -55 t55 -135q0 -82 -55 -137.5t-137 -55.5q-80 0 -135.5 55.5t-55.5 137.5z" />
<glyph unicode="&#x10c;" horiz-adv-x="1460" d="M84 690.5q0 143.5 54.5 269t148.5 220t219 148.5t268 54q170 0 314.5 -74.5t240.5 -201.5q43 -53 43 -113q0 -33 -15.5 -64.5t-39 -57t-56 -39t-67.5 -13.5q-33 0 -65.5 13.5t-63.5 46.5q-47 70 -122 113.5t-167 43.5q-72 0 -134 -27.5t-110.5 -75.5t-75 -110.5 t-26.5 -134.5t26.5 -134t75 -110.5t111 -76t133.5 -27.5q90 0 164 41t121 111q57 55 125 55q35 0 67.5 -15.5t57 -41t39 -58.5t14.5 -67q0 -25 -6 -45.5t-21 -40.5q-94 -133 -241.5 -206t-321.5 -73q-143 0 -268 54.5t-219 147.5t-148.5 219t-54.5 269.5zM350 1843 q0 72 46 118t118 46q51 0 89 -25.5t73 -60.5l72 -72l73 72q35 35 73 60.5t87 25.5q72 0 119 -46t47 -118q0 -39 -16.5 -72.5t-43.5 -58.5l-2 -2l-227 -197q-47 -43 -108 -43q-63 0 -111 43l-227 197q-4 0 -4 2q-25 25 -41.5 58.5t-16.5 72.5z" />
<glyph unicode="&#x10d;" horiz-adv-x="1110" d="M88 539q0 119 44 213t115.5 160.5t164 101.5t192.5 35q57 0 117.5 -12.5t114 -34t96.5 -55.5t69 -75q27 -43 27 -96q0 -76 -49 -125t-125 -49q-39 0 -67.5 18.5t-57.5 41.5q-20 18 -50 29t-75 11q-51 -2 -90 -20q-33 -18 -59.5 -50t-26.5 -93q0 -70 25.5 -108t57.5 -56.5 t60.5 -22.5t32.5 -4q45 0 65.5 9.5t55.5 33.5q31 23 60.5 40.5t68.5 17.5q76 0 125 -49.5t49 -125.5q0 -55 -27 -96q-27 -43 -69.5 -75.5t-96 -54t-113.5 -34t-118 -12.5q-100 0 -192.5 33t-164 100.5t-115.5 167t-44 236.5zM190 1501q0 72 46.5 118t117.5 46q51 0 89 -25.5 t73 -60.5l72 -72l74 72q35 35 72.5 60.5t86.5 25.5q72 0 119 -46t47 -118q0 -39 -16.5 -72.5t-42.5 -58.5l-2 -2l-228 -197q-47 -43 -108 -43q-63 0 -111 43l-227 197q-4 0 -4 2q-25 25 -41.5 58.5t-16.5 72.5z" />
<glyph unicode="&#x10e;" horiz-adv-x="1263" d="M92 170v1044q0 37 12 68q16 49 59.5 76.5t98.5 27.5h289q139 0 263 -58t215 -154.5t144.5 -222.5t53.5 -261q0 -143 -54.5 -269t-146.5 -219t-215 -147.5t-260 -54.5h-297q-70 2 -116 50t-46 120zM147 1847q0 72 46.5 118t117.5 46q51 0 89 -25.5t73 -60.5l72 -72l73 72 q35 35 73 60.5t87 25.5q72 0 119 -46t47 -118q0 -39 -16.5 -72.5t-42.5 -58.5l-2 -2l-228 -196q-47 -43 -108 -43q-63 0 -111 43l-227 196q-4 0 -4 2q-25 25 -41.5 58.5t-16.5 72.5zM436 340h115q72 0 134.5 31.5t105.5 82t67.5 112t24.5 122.5q0 70 -26 131.5t-72 108.5 t-106.5 75.5t-129.5 32.5h-113v-696z" />
<glyph unicode="&#x10f;" horiz-adv-x="1210" d="M80 528q0 106 38 200.5t104.5 166.5t158.5 113t203 41q55 0 93 -11.5t60 -23.5q29 -14 47 -37v237q0 74 49.5 121t127.5 47q74 0 120.5 -47t46.5 -121v-1079q0 -33 -15 -58.5t-39.5 -43t-54.5 -25.5t-56 -8q-51 0 -78 15.5t-41 31.5q-14 23 -19 49q-29 -27 -65 -49 q-31 -16 -77 -31.5t-103 -15.5q-104 0 -195.5 42t-159 113.5t-106.5 167.5t-39 205zM356 1309q0 49 27 92l145 233q25 41 62 63.5t80 22.5t90 -26q43 -27 65.5 -66t22.5 -82q0 -51 -27 -92l-143 -233q-23 -39 -59.5 -59.5t-81.5 -20.5q-53 0 -97 26q-41 25 -62.5 62 t-21.5 80zM426 526q0 -78 52 -129t128 -51q72 0 123 49t55 123q0 80 -52 132t-126 52q-76 0 -128 -51t-52 -125z" />
<glyph unicode="&#x110;" horiz-adv-x="1386" d="M49 737q0 74 48 122t122 48h465q74 0 122 -51t48 -119q0 -74 -48 -124t-122 -50h-465q-74 0 -122 49t-48 125zM209 170v1044q0 37 12 68q18 49 60.5 76.5t99.5 27.5h287q139 0 263 -58t215 -154.5t144 -222.5t53 -261q0 -143 -54 -269t-146 -219t-215 -147.5t-260 -54.5 h-297q-70 2 -116 50t-46 120zM553 340h115q72 0 134 31.5t105 82t68.5 112t25.5 122.5q0 70 -26.5 131.5t-71.5 108.5t-106.5 75.5t-130.5 32.5h-113v-696z" />
<glyph unicode="&#x111;" horiz-adv-x="1404" d="M80 528q0 106 38 200.5t104.5 166.5t158.5 113t203 41q55 0 93 -11.5t60 -23.5q29 -14 47 -37v237q0 74 49.5 121t127.5 47q74 0 120.5 -47t46.5 -121v-1079q0 -33 -15 -58.5t-39.5 -43t-54.5 -25.5t-56 -8q-51 0 -78 15.5t-41 31.5q-14 23 -19 49q-29 -27 -65 -49 q-31 -16 -77 -31.5t-103 -15.5q-104 0 -195.5 42t-159 113.5t-106.5 167.5t-39 205zM426 526q0 -78 52 -129t128 -51q72 0 123 49t55 123q0 80 -52 132t-126 52q-76 0 -128 -51t-52 -125zM559 1264q0 74 48 122t122 48h465q74 0 122 -51.5t48 -118.5q0 -74 -48 -125.5 t-122 -51.5h-465q-74 0 -122 50.5t-48 126.5z" />
<glyph unicode="&#x112;" horiz-adv-x="966" d="M80 170v535v14v498q0 53 19.5 85.5t46 51t55 24.5t49.5 6h467q74 0 121 -49t47 -127q0 -74 -47 -121t-121 -47h-291v-166h94q74 0 122 -50t48 -126q0 -74 -48 -121t-122 -47h-94v-184h289q74 0 121 -50t47 -126q0 -74 -47.5 -122t-120.5 -48h-473q-70 0 -116 49t-46 121z M166 1651q0 74 48 122t122 48h285q74 0 120.5 -51.5t46.5 -118.5q0 -74 -47 -125t-120 -51h-285q-74 0 -122 50t-48 126z" />
<glyph unicode="&#x113;" horiz-adv-x="1212" d="M84 522q0 109 41 204t110.5 166t167 113t209.5 46q100 0 192.5 -33t164 -97.5t114.5 -165t45 -235.5q0 -55 -39.5 -95t-97.5 -40h-557q14 -33 43 -52.5t58.5 -28.5t53 -11t27.5 -2q18 0 41 2q20 2 45 5t56 13q31 6 66.5 30t66.5 24q57 0 93 -38t36 -98q0 -43 -23 -77 q-33 -43 -78 -73t-96 -47.5t-106 -23.5t-109 -6q-109 0 -203 39t-165.5 108.5t-113.5 164.5t-42 208zM293 1313q0 74 48 122t122 48h285q74 0 120.5 -51.5t46.5 -118.5q0 -74 -47 -125t-120 -51h-285q-74 0 -122 50t-48 126zM428 651h375q0 14 -15.5 34t-41 35t-60.5 26.5 t-74 11.5q-86 0 -135 -37t-49 -70z" />
<glyph unicode="&#x114;" horiz-adv-x="980" d="M84 1911v4q0 72 50 123t122 51q51 0 93 -26.5t65 -71.5q8 -18 12 -47t11 -54.5t19.5 -43t41.5 -17.5q31 0 41 17.5t15 43t6 54t11 47.5q23 45 65 71.5t91 26.5q72 0 123 -51t51 -123v-4q0 -57 -20.5 -133t-68.5 -141.5t-124 -111.5t-188.5 -46t-191.5 46t-129 111.5 t-72.5 141.5t-22.5 133zM92 170v535v14v498q0 53 19.5 85.5t46 51t55.5 24.5t49 6h467q74 0 121 -49t47 -127q0 -74 -47 -121t-121 -47h-291v-166h94q74 0 122 -50t48 -126q0 -74 -48 -121t-122 -47h-94v-184h289q74 0 121 -50t47 -126q0 -74 -47 -122t-121 -48h-473 q-70 0 -116 49t-46 121z" />
<glyph unicode="&#x115;" horiz-adv-x="1212" d="M84 522q0 109 41 204t110.5 166t167 113t209.5 46q100 0 192.5 -33t164 -97.5t114.5 -165t45 -235.5q0 -55 -39.5 -95t-97.5 -40h-557q14 -33 43 -52.5t58.5 -28.5t53 -11t27.5 -2q18 0 41 2q20 2 45 5t56 13q31 6 66.5 30t66.5 24q57 0 93 -38t36 -98q0 -43 -23 -77 q-33 -43 -78 -73t-96 -47.5t-106 -23.5t-109 -6q-109 0 -203 39t-165.5 108.5t-113.5 164.5t-42 208zM213 1565v4q0 72 50 123t122 51q51 0 93 -26.5t65 -71.5q8 -18 12 -47t11 -54.5t19.5 -43t41.5 -17.5q31 0 41 17.5t15 43t6 54t11 47.5q23 45 65 71.5t91 26.5 q72 0 123 -51.5t51 -122.5v-4q0 -57 -20.5 -133t-68.5 -141.5t-124 -111.5t-188.5 -46t-191.5 46t-129 111.5t-72.5 141.5t-22.5 133zM428 651h375q0 14 -15.5 34t-41 35t-60.5 26.5t-74 11.5q-86 0 -135 -37t-49 -70z" />
<glyph unicode="&#x116;" horiz-adv-x="966" d="M80 170v535v14v498q0 53 19.5 85.5t46 51t55 24.5t49.5 6h467q74 0 121 -49t47 -127q0 -74 -47 -121t-121 -47h-291v-166h94q74 0 122 -50t48 -126q0 -74 -48 -121t-122 -47h-94v-184h289q74 0 121 -50t47 -126q0 -74 -47.5 -122t-120.5 -48h-473q-70 0 -116 49t-46 121z M279 1661q0 80 55 135t135 55q82 0 137.5 -55t55.5 -135q0 -82 -55.5 -137.5t-137.5 -55.5q-80 0 -135 55.5t-55 137.5z" />
<glyph unicode="&#x117;" horiz-adv-x="1212" d="M84 522q0 109 41 204t110.5 166t167 113t209.5 46q100 0 192.5 -33t164 -97.5t114.5 -165t45 -235.5q0 -55 -39.5 -95t-97.5 -40h-557q14 -33 43 -52.5t58.5 -28.5t53 -11t27.5 -2q18 0 41 2q20 2 45 5t56 13q31 6 66.5 30t66.5 24q57 0 93 -38t36 -98q0 -43 -23 -77 q-33 -43 -78 -73t-96 -47.5t-106 -23.5t-109 -6q-109 0 -203 39t-165.5 108.5t-113.5 164.5t-42 208zM412 1397q0 80 55 135t135 55q82 0 137.5 -55t55.5 -135q0 -82 -55.5 -137.5t-137.5 -55.5q-80 0 -135 55.5t-55 137.5zM428 651h375q0 14 -15.5 34t-41 35t-60.5 26.5 t-74 11.5q-86 0 -135 -37t-49 -70z" />
<glyph unicode="&#x118;" horiz-adv-x="1056" d="M80 170v535v14v498q0 53 19.5 85.5t46 51t55 24.5t49.5 6h467q74 0 121 -49t47 -127q0 -74 -47 -121t-121 -47h-291v-166h94q74 0 122 -50t48 -126q0 -74 -48 -121t-122 -47h-94v-184h289q74 0 121 -50t47 -126q0 -74 -47.5 -122t-120.5 -48h-473q-70 0 -116 49t-46 121z M258 -176q0 37 13.5 60.5t28.5 43t27.5 38t12.5 44.5h287q0 -53 -10.5 -82.5t-26 -48t-28.5 -32t-15 -35.5q-2 -14 5 -19.5t11 -5.5q27 0 46.5 18.5t33.5 42t26.5 49t22.5 37.5q8 10 24.5 15.5t37.5 5.5q35 0 69.5 -17.5t46.5 -62.5q4 -10 4 -33.5t-6 -42.5 q-20 -51 -45.5 -100t-64.5 -87t-94.5 -61.5t-128.5 -23.5q-86 0 -140.5 35t-84 81t-41 97t-11.5 84z" />
<glyph unicode="&#x119;" horiz-adv-x="1212" d="M84 522q0 109 41 204t110.5 166t167 113t209.5 46q100 0 192.5 -33t164 -97.5t114.5 -165t45 -235.5q0 -55 -39.5 -95t-97.5 -40h-557q14 -33 43 -52.5t58.5 -28.5t53 -11t27.5 -2q18 0 41 2q20 2 45 5t56 13q31 6 66.5 30t66.5 24q57 0 93 -38t36 -98q0 -43 -23 -77 q-33 -43 -78 -73t-96 -47.5t-106 -23.5t-109 -6q-109 0 -203 39t-165.5 108.5t-113.5 164.5t-42 208zM387 -141q0 37 13.5 60.5t28.5 43t27.5 37.5t12.5 45h287q0 -53 -10.5 -83t-25.5 -48t-28.5 -31.5t-15.5 -36.5q-2 -14 5 -19t11 -5q27 0 46.5 18.5t33.5 42t26.5 49 t22.5 37.5q8 10 24.5 15.5t37.5 5.5q35 0 69.5 -17.5t46.5 -62.5q4 -10 4.5 -33.5t-6.5 -42.5q-20 -51 -45.5 -100t-64.5 -87t-94.5 -61.5t-128.5 -23.5q-86 0 -140.5 34.5t-84 81t-41 97.5t-11.5 84zM428 651h375q0 14 -15.5 34t-41 35t-60.5 26.5t-74 11.5q-86 0 -135 -37 t-49 -70z" />
<glyph unicode="&#x11a;" horiz-adv-x="999" d="M96 170v535v14v498q0 53 19.5 85.5t46 51t55.5 24.5t49 6h467q74 0 121 -49t47 -127q0 -74 -47 -121t-121 -47h-291v-166h95q74 0 122 -50t48 -126q0 -74 -48.5 -121t-121.5 -47h-95v-184h289q74 0 121 -50t47 -126q0 -74 -47 -122t-121 -48h-473q-70 0 -116 49t-46 121z M104 1843q0 72 46.5 118t117.5 46q51 0 89 -25.5t73 -60.5l72 -72l73 72q35 35 73 60.5t87 25.5q72 0 119 -46t47 -118q0 -39 -16.5 -72.5t-42.5 -58.5l-2 -2l-228 -197q-47 -43 -108 -43q-63 0 -111 43l-227 197q-4 0 -4 2q-25 25 -41.5 58.5t-16.5 72.5z" />
<glyph unicode="&#x11b;" horiz-adv-x="1212" d="M84 522q0 109 41 204t110.5 166t167 113t209.5 46q100 0 192.5 -33t164 -97.5t114.5 -165t45 -235.5q0 -55 -39.5 -95t-97.5 -40h-557q14 -33 43 -52.5t58.5 -28.5t53 -11t27.5 -2q18 0 41 2q20 2 45 5t56 13q31 6 66.5 30t66.5 24q57 0 93 -38t36 -98q0 -43 -23 -77 q-33 -43 -78 -73t-96 -47.5t-106 -23.5t-109 -6q-109 0 -203 39t-165.5 108.5t-113.5 164.5t-42 208zM215 1511q0 72 46 118t118 46q51 0 89 -25.5t73 -60.5l71 -71l74 71q35 35 73 60.5t87 25.5q72 0 119 -46t47 -118q0 -39 -16.5 -72.5t-43.5 -58.5l-2 -2l-227 -196 q-47 -43 -109 -43q-63 0 -110 43l-228 196q-4 0 -4 2q-25 25 -41 58.5t-16 72.5zM428 651h375q0 14 -15.5 34t-41 35t-60.5 26.5t-74 11.5q-86 0 -135 -37t-49 -70z" />
<glyph unicode="&#x11c;" horiz-adv-x="1538" d="M82 690.5q0 143.5 54 269t147.5 220t219.5 148.5t269 54q94 0 167 -15t129 -39.5t98 -57.5t73 -68q31 -37 51.5 -65.5t20.5 -79.5q0 -74 -50.5 -121t-125.5 -47q-70 0 -115 41q-63 57 -113.5 81.5t-132.5 24.5q-72 0 -134 -27.5t-110.5 -75.5t-75 -110.5t-26.5 -134.5 t26.5 -134t75 -110.5t110.5 -76t134 -27.5q33 0 66.5 6t65.5 18.5t55.5 35t37.5 51.5h-135q-76 0 -122 44t-46 119q0 78 47.5 114t120.5 36h422q74 0 121 -50t47 -126q0 -113 -53 -218.5t-146.5 -187.5t-217.5 -132t-265 -50q-143 0 -269 54.5t-219.5 147.5t-147.5 219 t-54 269.5zM371 1638q0 39 16 73t41 58l4 3l227 196q47 41 111 41q61 0 109 -41l227 -196q2 0 2 -3q27 -25 43 -58.5t16 -72.5q0 -72 -47 -118.5t-119 -46.5q-49 0 -86.5 26.5t-72.5 61.5l-74 71l-72 -71q-35 -35 -72.5 -61.5t-88.5 -26.5q-72 0 -118 46.5t-46 118.5z" />
<glyph unicode="&#x11d;" d="M88 522q0 109 36 204t102.5 166t159.5 113t206 46q74 0 123 -13.5t80 -29.5q35 -20 51 -41q12 25 49 49t74 24q78 0 124 -49t46 -123v-716q0 -293 -138.5 -435.5t-388.5 -142.5q-59 0 -119.5 7t-115.5 24.5t-101.5 44t-70.5 69.5v2q-23 35 -23 89q0 47 23.5 76.5 t59.5 41.5q27 9 57 10q10 0 21 -1q42 -4 79 -19q37 -18 93 -26.5t99 -8.5q57 0 95.5 18.5t62 47t37.5 63.5t25 70q-18 -18 -49 -33.5t-66 -26t-66.5 -15.5t-50.5 -5q-109 0 -203 39t-161.5 108.5t-108.5 164.5t-41 208zM266 1290q0 39 16.5 73t41.5 58l4 2l227 197 q47 41 111 41q61 0 108 -41l227 -197q2 0 3 -2q27 -25 43 -58.5t16 -72.5q0 -72 -47 -119t-119 -47q-49 0 -87 27t-73 61l-73 72l-72 -72q-35 -35 -73 -61.5t-89 -26.5q-72 0 -118 47t-46 119zM434 526.5q0 -75.5 52.5 -127t125.5 -51.5q76 0 128.5 51.5t52.5 127t-52.5 127 t-128.5 51.5q-74 0 -126 -51.5t-52 -127z" />
<glyph unicode="&#x11e;" horiz-adv-x="1536" d="M82 690.5q0 143.5 54 269t147.5 220t219.5 148.5t269 54q94 0 167 -15t129 -39.5t98 -57.5t73 -68q31 -37 51.5 -65.5t20.5 -79.5q0 -74 -50.5 -121t-125.5 -47q-70 0 -115 41q-63 57 -113.5 81.5t-132.5 24.5q-72 0 -134 -27.5t-110.5 -75.5t-75 -110.5t-26.5 -134.5 t26.5 -134t75 -110.5t110.5 -76t134 -27.5q33 0 66.5 6t65.5 18.5t55.5 35t37.5 51.5h-135q-76 0 -122 44t-46 119q0 78 47.5 114t120.5 36h422q74 0 121 -50t47 -126q0 -113 -53 -218.5t-146.5 -187.5t-217.5 -132t-265 -50q-143 0 -269 54.5t-219.5 147.5t-147.5 219 t-54 269.5zM338 1901v4q0 72 50 123t122 51q51 0 93 -27t65 -72q8 -18 12 -46.5t11 -54.5t19.5 -43t41.5 -17q31 0 41 17t15 43t6 54.5t11 46.5q23 45 65 72t91 27q72 0 123 -51.5t51 -122.5v-4q0 -57 -20.5 -133t-68.5 -141.5t-124 -112t-188.5 -46.5t-191.5 46.5t-129 112 t-72.5 141.5t-22.5 133z" />
<glyph unicode="&#x11f;" d="M88 522q0 109 36 204t102.5 166t159.5 113t206 46q74 0 123 -13.5t80 -29.5q35 -20 51 -41q12 25 49 49t74 24q78 0 124 -49t46 -123v-716q0 -293 -138.5 -435.5t-388.5 -142.5q-59 0 -119.5 7t-115.5 24.5t-101.5 44t-70.5 69.5v2q-23 35 -23 89q0 47 23.5 76.5 t59.5 41.5q27 9 57 10q10 0 21 -1q42 -4 79 -19q37 -18 93 -26.5t99 -8.5q57 0 95.5 18.5t62 47t37.5 63.5t25 70q-18 -18 -49 -33.5t-66 -26t-66.5 -15.5t-50.5 -5q-109 0 -203 39t-161.5 108.5t-108.5 164.5t-41 208zM201 1565v4q0 72 50 123t122 51q51 0 93 -26.5 t64 -71.5q8 -18 12.5 -47t11.5 -54.5t19.5 -43t40.5 -17.5q31 0 41.5 17.5t15.5 43t6 54t11 47.5q23 45 65 71.5t91 26.5q72 0 123 -51.5t51 -122.5v-4q0 -57 -20.5 -133t-68.5 -141.5t-124 -111.5t-188.5 -46t-191.5 46t-129 111.5t-72.5 141.5t-22.5 133zM434 526.5 q0 -75.5 52.5 -127t125.5 -51.5q76 0 128.5 51.5t52.5 127t-52.5 127t-128.5 51.5q-74 0 -126 -51.5t-52 -127z" />
<glyph unicode="&#x120;" horiz-adv-x="1538" d="M82 690.5q0 143.5 54 269t147.5 220t219.5 148.5t269 54q94 0 167 -15t129 -39.5t98 -57.5t73 -68q31 -37 51.5 -65.5t20.5 -79.5q0 -74 -50.5 -121t-125.5 -47q-70 0 -115 41q-63 57 -113.5 81.5t-132.5 24.5q-72 0 -134 -27.5t-110.5 -75.5t-75 -110.5t-26.5 -134.5 t26.5 -134t75 -110.5t110.5 -76t134 -27.5q33 0 66.5 6t65.5 18.5t55.5 35t37.5 51.5h-135q-76 0 -122 44t-46 119q0 78 47.5 114t120.5 36h422q74 0 121 -50t47 -126q0 -113 -53 -218.5t-146.5 -187.5t-217.5 -132t-265 -50q-143 0 -269 54.5t-219.5 147.5t-147.5 219 t-54 269.5zM580 1653q0 80 55 135t135 55q82 0 137.5 -55t55.5 -135q0 -82 -55.5 -137.5t-137.5 -55.5q-80 0 -135 55.5t-55 137.5z" />
<glyph unicode="&#x121;" d="M88 522q0 109 36 204t102.5 166t159.5 113t206 46q74 0 123 -13.5t80 -29.5q35 -20 51 -41q12 25 49 49t74 24q78 0 124 -49t46 -123v-716q0 -293 -138.5 -435.5t-388.5 -142.5q-59 0 -119.5 7t-115.5 24.5t-101.5 44t-70.5 69.5v2q-23 35 -23 89q0 47 23.5 76.5 t59.5 41.5q27 9 57 10q10 0 21 -1q42 -4 79 -19q37 -18 93 -26.5t99 -8.5q57 0 95.5 18.5t62 47t37.5 63.5t25 70q-18 -18 -49 -33.5t-66 -26t-66.5 -15.5t-50.5 -5q-109 0 -203 39t-161.5 108.5t-108.5 164.5t-41 208zM434 526.5q0 -75.5 52.5 -127t125.5 -51.5 q76 0 128.5 51.5t52.5 127t-52.5 127t-128.5 51.5q-74 0 -126 -51.5t-52 -127zM442 1397q0 80 55.5 135t135.5 55q82 0 137 -55t55 -135q0 -82 -55 -137.5t-137 -55.5q-80 0 -135.5 55.5t-55.5 137.5z" />
<glyph unicode="&#x122;" horiz-adv-x="1538" d="M82 690.5q0 143.5 54 269t147.5 220t219.5 148.5t269 54q94 0 167 -15t129 -39.5t98 -57.5t73 -68q31 -37 51.5 -65.5t20.5 -79.5q0 -74 -50.5 -121t-125.5 -47q-70 0 -115 41q-63 57 -113.5 81.5t-132.5 24.5q-72 0 -134 -27.5t-110.5 -75.5t-75 -110.5t-26.5 -134.5 t26.5 -134t75 -110.5t110.5 -76t134 -27.5q33 0 66.5 6t65.5 18.5t55.5 35t37.5 51.5h-135q-76 0 -122 44t-46 119q0 78 47.5 114t120.5 36h422q74 0 121 -50t47 -126q0 -113 -53 -218.5t-146.5 -187.5t-217.5 -132t-265 -50q-143 0 -269 54.5t-219.5 147.5t-147.5 219 t-54 269.5zM594 -248q0 74 46 122t122 48q78 0 128 -48t50 -122v-239q0 -74 -50 -121t-126 -47q-74 0 -122 47t-48 121v239z" />
<glyph unicode="&#x123;" d="M88 522q0 109 36 204t102.5 166t159.5 113t206 46q74 0 123 -13.5t80 -29.5q35 -20 51 -41q12 25 49 49t74 24q78 0 124 -49t46 -123v-716q0 -293 -138.5 -435.5t-388.5 -142.5q-59 0 -119.5 7t-115.5 24.5t-101.5 44t-70.5 69.5v2q-23 35 -23 89q0 47 23.5 76.5 t59.5 41.5q27 9 57 10q10 0 21 -1q42 -4 79 -19q37 -18 93 -26.5t99 -8.5q57 0 95.5 18.5t62 47t37.5 63.5t25 70q-18 -18 -49 -33.5t-66 -26t-66.5 -15.5t-50.5 -5q-109 0 -203 39t-161.5 108.5t-108.5 164.5t-41 208zM307 1538q0 43 22.5 82t65.5 66q45 27 88 26 q45 0 82 -22.5t60 -63.5l145 -233q27 -43 27 -93q0 -43 -20.5 -79.5t-61.5 -61.5q-43 -27 -99 -26q-43 0 -79.5 20.5t-61.5 58.5l-143 234q-25 41 -25 92zM434 526.5q0 -75.5 52.5 -127t125.5 -51.5q76 0 128.5 51.5t52.5 127t-52.5 127t-128.5 51.5q-74 0 -126 -51.5 t-52 -127z" />
<glyph unicode="&#x124;" horiz-adv-x="1476" d="M63 1638q0 39 16.5 73t41.5 58l4 3l227 196q47 41 111 41q61 0 108 -41l228 -196q2 0 2 -3q27 -25 43 -58.5t16 -72.5q0 -72 -47 -118.5t-119 -46.5q-49 0 -87 26.5t-72 61.5l-74 71l-72 -71q-35 -35 -72.5 -61.5t-89.5 -26.5q-72 0 -118 46.5t-46 118.5zM301 170v1049 q0 74 50 120.5t126 46.5q74 0 121 -47t47 -120v-381h379v381q0 74 50 120.5t126 46.5q74 0 121 -47t47 -120v-1049q0 -74 -49 -122t-125 -48t-123 48t-47 122v324h-379v-324q0 -74 -49 -122t-125 -48q-74 0 -122 48t-48 122z" />
<glyph unicode="&#x125;" horiz-adv-x="997" d="M90 1624q0 39 16.5 73t40.5 58l5 2l227 197q47 41 110 41q61 0 109 -41l227 -197q2 0 2 -2q27 -25 43.5 -58.5t16.5 -72.5q0 -72 -47 -119t-119 -47q-49 0 -87 26.5t-73 61.5l-74 72l-71 -72q-35 -35 -73 -61.5t-89 -26.5q-72 0 -118 47t-46 119zM106 170v1044 q0 74 46.5 121t121.5 47q78 0 128.5 -47t50.5 -121v-206q10 12 28 20q14 10 36 17.5t52 7.5q117 0 184.5 -28t103.5 -88t46 -151.5t10 -214.5v-401q0 -74 -47 -122t-123 -48q-74 0 -125 43t-51 127v401q0 70 -8 104t-55 34q-37 0 -43 -32t-8 -89v-418q0 -74 -48.5 -122 t-128.5 -48q-70 4 -120 46t-50 124z" />
<glyph unicode="&#x126;" horiz-adv-x="1310" d="M150 170v1049q0 74 50 120.5t126 46.5q74 0 121 -47t47 -120v-381h378v381q0 74 50.5 120.5t126.5 46.5q74 0 121 -47t47 -120v-1049q0 -74 -49.5 -122t-125 -48t-123 48t-47.5 122v324h-378v-324q0 -74 -49.5 -122t-125.5 -48q-74 0 -121.5 48t-47.5 122zM325 1101 q0 82 53.5 135t134.5 53h317q82 0 134.5 -56.5t52.5 -131.5q0 -82 -52.5 -138.5t-134.5 -56.5h-317q-82 0 -135 55.5t-53 139.5z" />
<glyph unicode="&#x127;" horiz-adv-x="1067" d="M55 1278q0 74 48.5 122t121.5 48h285q74 0 121 -51t47 -119q0 -74 -47 -125t-121 -51h-285q-74 0 -122 50t-48 126zM174 170v1044q0 74 46 121t122 47q78 0 128 -47t50 -121v-206q10 12 29 20q14 10 35.5 17.5t52.5 7.5q117 0 184.5 -28t103.5 -88t46 -151.5t10 -214.5 v-401q0 -74 -47 -122t-123 -48q-74 0 -125 43t-51 127v401q0 70 -8.5 104t-55.5 34q-37 0 -43 -32t-8 -89v-418q0 -74 -48 -122t-128 -48q-70 4 -120 46t-50 124z" />
<glyph unicode="&#x128;" horiz-adv-x="579" d="M-242 1622q-5 20 -4 38q0 22 6 44q8 23 21.5 45.5t30 42.5t35 37.5l32.5 30.5q41 31 100.5 60.5t159.5 29.5q45 0 91 -26t89 -58l81 -60q38 -27 69 -26q18 0 38.5 11t38 26.5t29 29t15.5 17.5q18 23 50 43t75 20q12 0 30.5 -5t38 -15.5t36 -27.5t24.5 -40q8 -18 10 -49 q1 -8 1 -15q0 -22 -5 -42q-20 -63 -69.5 -110.5t-109 -81.5t-116.5 -51t-92 -17q-37 0 -73 16t-69 40l-67 47q-33 24 -62.5 38t-58.5 14t-53 -24q-10 -6 -31 -25l-43 -39q-22 -20 -43.5 -37.5t-32.5 -19.5q-13 -3 -25 -3q-28 0 -53 13q-36 18 -60 52t-34 77zM117 170v1044 q0 74 50 121t126 47q74 0 121 -47t47 -121v-1044q0 -74 -49.5 -122t-124.5 -48q-74 0 -122 48t-48 122z" />
<glyph unicode="&#x129;" horiz-adv-x="579" d="M-215 1286q-5 20 -5 38q0 22 7 44q8 23 21.5 45.5t30 43t34.5 37.5l33 30q41 31 100.5 60.5t159.5 29.5q45 0 91 -25.5t89 -58.5l81 -60q38 -27 69 -26q18 0 38.5 11t38 26.5t28.5 29t15 17.5q18 23 50 43t75 20q12 0 31 -5t38 -15t35.5 -27.5t24.5 -40.5q8 -18 11 -49 q1 -8 0 -15q0 -22 -4 -42q-20 -63 -69.5 -110.5t-109 -81.5t-117 -51t-92.5 -17q-37 0 -72.5 16t-69.5 40l-66 47q-33 24 -63 38t-58.5 14t-53.5 -24q-10 -6 -30 -25l-43 -39q-22 -20 -44 -37.5t-32 -19.5q-13 -3 -26 -3q-28 0 -53 13q-36 18 -59.5 52t-33.5 77zM123 170 v715q0 76 46 123t122 47q78 0 128 -47t50 -123v-715q0 -74 -50 -122t-126 -48q-74 0 -122 48t-48 122z" />
<glyph unicode="&#x12a;" horiz-adv-x="552" d="M-37 1640q0 74 48 122t122 48h285q74 0 121 -51t47 -119q0 -74 -47 -125t-121 -51h-285q-74 0 -122 50t-48 126zM104 170v1044q0 74 50.5 121t126.5 47q74 0 121 -47t47 -121v-1044q0 -74 -49.5 -122t-125.5 -48q-74 0 -122 48t-48 122z" />
<glyph unicode="&#x12b;" horiz-adv-x="544" d="M-10 1323q0 74 48 122t122 48h284q74 0 121 -51t47 -119q0 -74 -47 -125t-121 -51h-284q-74 0 -122 50t-48 126zM106 170v715q0 76 46.5 123t121.5 47q78 0 128.5 -47t50.5 -123v-715q0 -74 -50.5 -122t-126.5 -48q-74 0 -122 48t-48 122z" />
<glyph unicode="&#x12c;" horiz-adv-x="612" d="M-106 1905v4q0 72 50 123t122 51q51 0 93 -26.5t64 -71.5q8 -18 12.5 -47t11.5 -54.5t19.5 -43t40.5 -17.5q31 0 41 17.5t15.5 43t6.5 54t11 47.5q23 45 64.5 71.5t91.5 26.5q72 0 123 -51.5t51 -122.5v-4q0 -57 -20.5 -133t-69 -141.5t-124 -111.5t-188 -46t-191.5 46 t-129 111.5t-72.5 141.5t-22.5 133zM131 170v1044q0 74 50 121t126 47q74 0 121 -47t47 -121v-1044q0 -74 -49 -122t-125 -48q-74 0 -122 48t-48 122z" />
<glyph unicode="&#x12e;" horiz-adv-x="579" d="M72 -63q0 37 13 60t28.5 42.5t28 38t12.5 45.5h286q0 -53 -10 -83t-25.5 -48.5t-29 -31.5t-15.5 -36q-2 -14 5.5 -19t11.5 -5q27 0 46 18.5t33.5 42t27 49t22.5 37.5q8 10 24.5 15.5t36.5 5.5q35 0 70 -17.5t47 -62.5q4 -10 4 -34t-6 -42q-20 -51 -46 -100.5t-65 -87 t-94 -61t-129 -23.5q-86 0 -140 34.5t-84 80.5t-41 97.5t-11 84.5zM119 170v1044q0 74 50 121t126 47q74 0 121 -47t47 -121v-1044q0 -74 -49 -122t-125 -48q-74 0 -122 48t-48 122z" />
<glyph unicode="&#x12f;" horiz-adv-x="600" d="M113 -29q0 37 13 60.5t28.5 43t28 38t12.5 45.5h286q0 -53 -10 -83t-25.5 -48.5t-29 -31.5t-15.5 -36q-2 -14 5.5 -19.5t11.5 -5.5q27 0 46 18.5t33.5 42t27 49.5t22.5 38q8 10 24.5 15t36.5 5q35 0 70 -17t47 -62q4 -10 4 -34t-6 -42q-20 -51 -46 -100.5t-65 -87.5 t-94 -61.5t-129 -23.5q-86 0 -140 35t-84 81t-41 97t-11 84zM127 1237q0 68 51 113t129 45q80 0 132.5 -45t52.5 -113q0 -66 -52.5 -108t-132.5 -42q-78 0 -129 42t-51 108zM139 170v715q0 76 45 123t121 47q78 0 128 -47t50 -123v-715q0 -74 -50 -122t-126 -48 q-74 0 -121 48t-47 122z" />
<glyph unicode="&#x130;" horiz-adv-x="559" d="M90 1661q0 80 55.5 135t135.5 55q82 0 137 -55t55 -135q0 -82 -55.5 -137.5t-136.5 -55.5q-80 0 -135.5 55.5t-55.5 137.5zM106 170v1044q0 74 50.5 121t126.5 47q74 0 121 -47t47 -121v-1044q0 -74 -49.5 -122t-125.5 -48q-74 0 -122 48t-48 122z" />
<glyph unicode="&#x131;" horiz-adv-x="561" d="M123 170v715q0 76 46 123t122 47q78 0 128 -47t50 -123v-715q0 -74 -50 -122t-126 -48q-74 0 -122 48t-48 122z" />
<glyph unicode="&#x134;" horiz-adv-x="559" d="M-279 -221q0 74 47.5 124t118.5 52q59 6 101.5 19.5t69 37t39 63.5t12.5 101v1045q0 74 50 121t126 47q74 0 122 -47.5t48 -120.5v-1045q-6 -139 -36 -244.5t-96.5 -177t-172 -108.5t-259.5 -37q-74 0 -122 48t-48 122zM-117 1638q0 39 16.5 73t41.5 58l4 3l227 196 q47 41 111 41q61 0 108 -41l227 -196q2 0 3 -3q27 -25 43 -58.5t16 -72.5q0 -72 -47 -118.5t-119 -46.5q-49 0 -87 26.5t-73 61.5l-73 71l-72 -71q-35 -35 -73 -61.5t-89 -26.5q-72 0 -118 46.5t-46 118.5z" />
<glyph unicode="&#x135;" horiz-adv-x="587" d="M-240 -225q0 76 48.5 126t122 50t113.5 20.5t59.5 91t23.5 204.5t4 362v256q0 76 45 123t121 47q78 0 128 -47t50 -123v-688q0 -160 -46 -271.5t-123 -181.5t-171 -102.5t-188 -34.5q-86 0 -136.5 47t-50.5 121zM-106 1300q0 39 16 73t41 59l4 2l227 196q47 41 111 41 q61 0 108 -41l228 -196q2 0 2 -2q27 -25 43 -59t16 -73q0 -72 -47 -118.5t-119 -46.5q-49 0 -87 26.5t-72 61.5l-74 71l-72 -71q-35 -35 -72.5 -61.5t-89.5 -26.5q-72 0 -117.5 46.5t-45.5 118.5z" />
<glyph unicode="&#x136;" horiz-adv-x="1071" d="M100 170v1049q0 74 50.5 120.5t125.5 46.5q74 0 121 -47t47 -120v-193l269 283q43 43 106 43q37 0 73 -16.5t62 -45.5q45 -55 45 -110q0 -74 -59 -129l-281 -260l340 -525q29 -43 29 -96q0 -39 -18.5 -75t-55.5 -62q-51 -35 -102 -35q-41 0 -78 18.5t-59 55.5l-271 450 v-352q0 -74 -49 -122t-127 -48q-74 0 -121 48t-47 122zM393 -293q0 74 46 122t122 48q78 0 128 -48t50 -122v-239q0 -74 -50 -121t-126 -47q-74 0 -122 47t-48 121v239z" />
<glyph unicode="&#x137;" horiz-adv-x="995" d="M82 170v1044q0 74 46 121t122 47q78 0 128 -47t50 -121v-192l127 129q59 57 123 57q66 0 117 -45q63 -55 63 -129q0 -31 -12 -61.5t-35 -52.5l-233 -234l301 -420q31 -43 30 -92q0 -88 -84 -145q-43 -27 -94 -27q-43 0 -81 19.5t-60 56.5l-162 278v-186q0 -74 -50 -122 t-126 -48q-74 0 -122 48t-48 122zM385 -293q0 74 46 122t122 48q78 0 128 -48t50 -122v-239q0 -74 -50 -121t-126 -47q-74 0 -122 47t-48 121v239z" />
<glyph unicode="&#x139;" horiz-adv-x="899" d="M74 170v1049q0 74 50 120.5t126 46.5q74 0 122 -47t48 -120v-873h264q74 0 122 -50t48 -126q0 -74 -48 -122t-122 -48h-451q-68 0 -113.5 48t-45.5 122zM94 1649q0 47 27 90l145 235q25 41 62 62.5t80 21.5t88 -26q45 -25 67.5 -64t22.5 -84q0 -49 -27 -90l-143 -235 q-23 -39 -60 -59.5t-82 -20.5q-53 0 -96 28q-41 25 -62.5 62t-21.5 80z" />
<glyph unicode="&#x13a;" horiz-adv-x="536" d="M109 170v1049q0 74 47 120.5t123 46.5q74 0 125 -43t51 -124v-1049q0 -74 -50.5 -122t-125.5 -48q-74 0 -122 48t-48 122zM113 1636q0 47 26 90l146 236q25 41 61.5 62.5t79.5 21.5t88 -27q45 -25 67.5 -63.5t22.5 -83.5q0 -49 -26 -90l-144 -236q-23 -39 -59.5 -59.5 t-81.5 -20.5q-53 0 -96 29q-41 25 -62.5 61.5t-21.5 79.5z" />
<glyph unicode="&#x13b;" horiz-adv-x="899" d="M74 170v1049q0 74 50 120.5t126 46.5q74 0 122 -47t48 -120v-873h264q74 0 122 -50t48 -126q0 -74 -48 -122t-122 -48h-451q-68 0 -113.5 48t-45.5 122zM281 -293q0 74 46 122t122 48q78 0 128 -48t50 -122v-239q0 -74 -50.5 -121t-125.5 -47q-74 0 -122 47t-48 121v239z " />
<glyph unicode="&#x13c;" horiz-adv-x="565" d="M109 170v1049q0 74 47 120.5t123 46.5q74 0 125 -43t51 -124v-1049q0 -74 -50.5 -122t-125.5 -48q-74 0 -122 48t-48 122zM115 -293q0 74 46 122t122 48q78 0 128 -48t50 -122v-239q0 -74 -50.5 -121t-125.5 -47q-74 0 -122 47t-48 121v239z" />
<glyph unicode="&#x13d;" horiz-adv-x="1124" d="M74 170v1049q0 74 50 120.5t126 46.5q74 0 122 -47t48 -120v-873h264q74 0 122 -50t48 -126q0 -74 -48 -122t-122 -48h-451q-68 0 -113.5 48t-45.5 122zM528 936q0 49 27 92l145 234q25 41 62 63.5t80 22.5t90 -27q43 -27 65.5 -65.5t22.5 -81.5q0 -51 -27 -93l-143 -233 q-23 -39 -59.5 -59.5t-81.5 -20.5q-53 0 -97 27q-41 25 -62.5 61.5t-21.5 79.5z" />
<glyph unicode="&#x13e;" horiz-adv-x="1101" d="M119 170v1049q0 74 47 120.5t123 46.5q74 0 125 -43t51 -124v-1049q0 -74 -50 -122t-126 -48q-74 0 -122 48t-48 122zM543 780q0 47 26 90l146 236q23 41 59.5 62.5t81.5 21.5q43 0 88 -27q43 -27 66.5 -65.5t23.5 -81.5q0 -49 -26 -90l-144 -236q-25 -39 -61.5 -59.5 t-79.5 -20.5q-55 0 -98 29q-41 23 -61.5 59.5t-20.5 81.5z" />
<glyph unicode="&#x13f;" horiz-adv-x="1009" d="M74 170v1049q0 74 50 120.5t126 46.5q74 0 122 -47t48 -120v-873h264q74 0 122 -50t48 -126q0 -74 -48 -122t-122 -48h-451q-68 0 -113.5 48t-45.5 122zM616 784.5q0 71.5 51.5 122.5t123 51t123 -51t51.5 -122.5t-51.5 -122t-123 -50.5t-123 50.5t-51.5 122z" />
<glyph unicode="&#x140;" horiz-adv-x="1040" d="M109 170v1049q0 74 47 120.5t123 46.5q74 0 125 -43t51 -124v-1049q0 -74 -50.5 -122t-125.5 -48q-74 0 -122 48t-48 122zM586 583.5q0 71.5 51 123t122.5 51.5t123 -51.5t51.5 -123t-51.5 -121.5t-123 -50t-122.5 50t-51 121.5z" />
<glyph unicode="&#x141;" horiz-adv-x="1040" d="M57 680q0 74 47.5 121t120.5 47h467q74 0 122 -50t48 -118q0 -74 -48 -125t-122 -51h-467q-74 0 -121 50t-47 126zM215 170v1049q0 74 50 120.5t126 46.5q74 0 122 -47t48 -120v-873h264q74 0 122 -50t48 -126q0 -74 -48 -122t-122 -48h-450q-68 0 -114 48t-46 122z" />
<glyph unicode="&#x142;" horiz-adv-x="890" d="M45 682q0 74 47 121t121 47h467q74 0 122 -50t48 -118q0 -74 -48 -125t-122 -51h-467q-74 0 -121 50t-47 126zM272 170v1049q0 74 47.5 120.5t122.5 46.5q74 0 125 -43t51 -124v-1049q0 -74 -50 -122t-126 -48q-74 0 -122 48t-48 122z" />
<glyph unicode="&#x143;" horiz-adv-x="1216" d="M104 170v1044q0 74 50.5 121t126.5 47q49 0 87 -22.5t60 -61.5l340 -534v450q0 74 50 121t126 47q74 0 122 -47t48 -121v-1044q0 -74 -50 -122t-126 -48q-90 0 -137 66l-352 555v-451q0 -74 -49.5 -122t-125.5 -48q-74 0 -122 48t-48 122zM416 1632q0 47 26 90l146 236 q25 41 61.5 62.5t79.5 21.5t88 -27q45 -25 67.5 -63.5t22.5 -83.5q0 -49 -26 -90l-144 -236q-23 -39 -59.5 -59.5t-81.5 -20.5q-53 0 -96 29q-41 25 -62.5 61.5t-21.5 79.5z" />
<glyph unicode="&#x144;" horiz-adv-x="1005" d="M100 170v715q0 76 39 123t115 47q31 0 51.5 -11.5t32.5 -27.5q16 -16 27 -37q20 20 43 37q23 12 55.5 24.5t77.5 12.5q104 0 173.5 -28t111.5 -88t60.5 -151.5t18.5 -214.5v-401q0 -74 -47 -122t-123 -48q-74 0 -125 43t-51 127v401q0 70 -5 100.5t-42 33.5h-9 q-41 0 -48 -33q-8 -37 -11 -101v-401q0 -74 -46 -122t-122 -48q-74 0 -125 43t-51 127zM352 1305q0 47 27 90l145 235q25 41 62 62.5t80 21.5t88 -26q45 -25 67.5 -64t22.5 -84q0 -49 -27 -90l-143 -236q-23 -39 -59.5 -59t-82.5 -20q-53 0 -96 28q-41 25 -62.5 62t-21.5 80 z" />
<glyph unicode="&#x145;" horiz-adv-x="1216" d="M104 170v1044q0 74 50.5 121t126.5 47q49 0 87 -22.5t60 -61.5l340 -534v450q0 74 50 121t126 47q74 0 122 -47t48 -121v-1044q0 -74 -50 -122t-126 -48q-90 0 -137 66l-352 555v-451q0 -74 -49.5 -122t-125.5 -48q-74 0 -122 48t-48 122zM436 -293q0 74 46 122t122 48 q78 0 128 -48t50 -122v-239q0 -74 -50 -121t-126 -47q-74 0 -122 47t-48 121v239z" />
<glyph unicode="&#x146;" horiz-adv-x="1005" d="M100 170v715q0 76 39 123t115 47q31 0 51.5 -11.5t32.5 -27.5q16 -16 27 -37q20 20 43 37q23 12 55.5 24.5t77.5 12.5q104 0 173.5 -28t111.5 -88t60.5 -151.5t18.5 -214.5v-401q0 -74 -47 -122t-123 -48q-74 0 -125 43t-51 127v401q0 70 -5 100.5t-42 33.5h-9 q-41 0 -48 -33q-8 -37 -11 -101v-401q0 -74 -46 -122t-122 -48q-74 0 -125 43t-51 127zM342 -293q0 74 46 122t122 48q78 0 128 -48t50 -122v-239q0 -74 -50 -121t-126 -47q-74 0 -122 47t-48 121v239z" />
<glyph unicode="&#x147;" horiz-adv-x="1216" d="M104 170v1044q0 74 50.5 121t126.5 47q49 0 87 -22.5t60 -61.5l340 -534v450q0 74 50 121t126 47q74 0 122 -47t48 -121v-1044q0 -74 -50 -122t-126 -48q-90 0 -137 66l-352 555v-451q0 -74 -49.5 -122t-125.5 -48q-74 0 -122 48t-48 122zM188 1825q0 72 46.5 118 t117.5 46q51 0 89 -26t73 -60l72 -72l73 72q35 35 73 60.5t87 25.5q72 0 119 -46.5t47 -117.5q0 -39 -16.5 -73t-42.5 -58l-2 -2l-228 -197q-47 -43 -108 -43q-63 0 -111 43l-227 197q-4 0 -4 2q-25 25 -41.5 58.5t-16.5 72.5z" />
<glyph unicode="&#x148;" horiz-adv-x="1015" d="M100 170v715q0 76 39 123t115 47q31 0 51.5 -11.5t32.5 -27.5q16 -16 27 -37q20 20 43 37q23 12 55.5 24.5t77.5 12.5q104 0 173.5 -28t111.5 -88t60.5 -151.5t18.5 -214.5v-401q0 -74 -47 -122t-123 -48q-74 0 -125 43t-51 127v401q0 70 -5 100.5t-42 33.5h-9 q-41 0 -48 -33q-8 -37 -11 -101v-401q0 -74 -46 -122t-122 -48q-74 0 -125 43t-51 127zM117 1511q0 72 46 118t118 46q51 0 89 -25.5t72 -60.5l72 -71l74 71q35 35 72.5 60.5t87.5 25.5q72 0 118.5 -46t46.5 -118q0 -39 -16 -72.5t-43 -58.5l-2 -2l-227 -196 q-47 -43 -109 -43q-63 0 -110 43l-228 196q-4 0 -4 2q-25 25 -41 58.5t-16 72.5z" />
<glyph unicode="&#x14c;" horiz-adv-x="1550" d="M84 690.5q0 143.5 54.5 269t148.5 220t219 148.5t268.5 54t269 -54t221 -148.5t149.5 -220t54 -269t-54 -269.5t-149.5 -219t-221 -147.5t-269 -54.5t-268.5 54.5t-219 147.5t-148.5 219t-54.5 269.5zM430 688q0 -72 26.5 -134t75 -110.5t111 -76t134 -27.5t135 27.5 t111.5 76t74.5 110.5t26.5 134t-26.5 134.5t-74.5 110.5t-111.5 75.5t-135 27.5t-134 -27.5t-111 -75.5t-75 -110.5t-26.5 -134.5zM465 1640q0 74 48 122t122 48h285q74 0 120.5 -51t46.5 -119q0 -74 -47 -125t-120 -51h-285q-74 0 -122 50t-48 126z" />
<glyph unicode="&#x14e;" horiz-adv-x="1550" d="M84 690.5q0 143.5 54.5 269t148.5 220t219 148.5t268.5 54t269 -54t221 -148.5t149.5 -220t54 -269t-54 -269.5t-149.5 -219t-221 -147.5t-269 -54.5t-268.5 54.5t-219 147.5t-148.5 219t-54.5 269.5zM377 1890v4q0 72 50 123t122 51q51 0 93 -26.5t65 -71.5 q8 -18 12 -47t11 -54.5t19.5 -43t41.5 -17.5q31 0 41 17.5t15 43t6 54.5t11 47q23 45 65 71.5t91 26.5q72 0 123 -51t51 -123v-4q0 -57 -20.5 -133t-68.5 -141.5t-124 -111.5t-188.5 -46t-191.5 46t-129 111.5t-72.5 141.5t-22.5 133zM430 688q0 -72 26.5 -134t75 -110.5 t111 -76t134 -27.5t135 27.5t111.5 76t74.5 110.5t26.5 134t-26.5 134.5t-74.5 110.5t-111.5 75.5t-135 27.5t-134 -27.5t-111 -75.5t-75 -110.5t-26.5 -134.5z" />
<glyph unicode="&#x14f;" horiz-adv-x="1216" d="M84 522q0 109 41 204t110.5 166t167 113t209.5 46q104 0 198.5 -42t166.5 -114t114 -169t42 -204q0 -104 -41 -199.5t-112 -167t-166 -112.5t-206 -41q-109 0 -203 39t-165.5 108.5t-113.5 164.5t-42 208zM195 1573v4q0 72 50 123t122 51q51 0 93 -26.5t64 -71.5 q8 -18 12.5 -47t11.5 -54.5t19.5 -43t40.5 -17.5q31 0 41 17.5t15.5 43t6.5 54t11 47.5q23 45 64.5 71.5t91.5 26.5q72 0 123 -51t51 -123v-4q0 -57 -20.5 -133t-69 -141.5t-124 -111.5t-188 -46t-191.5 46t-129 111.5t-72.5 141.5t-22.5 133zM430 526.5q0 -75.5 52.5 -127 t125.5 -51.5q76 0 128 51.5t52 127t-52 127t-128 51.5q-74 0 -126 -51.5t-52 -127z" />
<glyph unicode="&#x150;" horiz-adv-x="1550" d="M84 690.5q0 143.5 54.5 269t148.5 220t219 148.5t268.5 54t269 -54t221 -148.5t149.5 -220t54 -269t-54 -269.5t-149.5 -219t-221 -147.5t-269 -54.5t-268.5 54.5t-219 147.5t-148.5 219t-54.5 269.5zM352 1624q0 49 27 92l145 234q25 41 62 63.5t80 22.5t88 -27 t67.5 -65.5t22.5 -81.5q0 -51 -27 -93l-143 -233q-23 -39 -59.5 -59.5t-82.5 -20.5q-53 0 -96 27q-41 25 -62.5 61.5t-21.5 79.5zM430 688q0 -72 26.5 -134t75 -110.5t111 -76t134 -27.5t135 27.5t111.5 76t74.5 110.5t26.5 134t-26.5 134.5t-74.5 110.5t-111.5 75.5 t-135 27.5t-134 -27.5t-111 -75.5t-75 -110.5t-26.5 -134.5zM834 1614q0 47 26 90l144 235q55 84 141 84q47 0 92 -26q43 -25 65.5 -64t22.5 -84q0 -49 -25 -90l-143 -235q-25 -39 -62.5 -59.5t-80.5 -20.5q-53 0 -96 29q-41 25 -62.5 61.5t-21.5 79.5z" />
<glyph unicode="&#x151;" horiz-adv-x="1216" d="M84 522q0 109 41 204t110.5 166t167 113t209.5 46q104 0 198.5 -42t166.5 -114t114 -169t42 -204q0 -104 -41 -199.5t-112 -167t-166 -112.5t-206 -41q-109 0 -203 39t-165.5 108.5t-113.5 164.5t-42 208zM219 1315q0 49 27 92l145 233q25 41 61.5 63.5t79.5 22.5 t88.5 -26.5t68 -65.5t22.5 -82q0 -51 -27 -92l-143 -233q-23 -39 -60 -59.5t-82 -20.5q-53 0 -96 27q-41 25 -62.5 61.5t-21.5 79.5zM430 526.5q0 -75.5 52.5 -127t125.5 -51.5q76 0 128 51.5t52 127t-52 127t-128 51.5q-74 0 -126 -51.5t-52 -127zM700 1305q0 47 27 90 l143 235q55 84 142 84q47 0 92 -26q43 -25 65.5 -64t22.5 -84q0 -49 -25 -90l-143 -236q-25 -39 -62.5 -59t-80.5 -20q-53 0 -97 28q-41 25 -62.5 62t-21.5 80z" />
<glyph unicode="&#x152;" horiz-adv-x="2004" d="M84 690.5q0 143.5 54.5 269t148.5 220t219 148.5t268.5 54t269 -54t221 -148.5t149.5 -220t54 -269t-54 -269.5t-149.5 -219t-221 -147.5t-269 -54.5t-268.5 54.5t-219 147.5t-148.5 219t-54.5 269.5zM430 688q0 -72 26.5 -134t75 -110.5t111 -76t134 -27.5t135 27.5 t111.5 76t74.5 110.5t26.5 134t-26.5 134.5t-74.5 110.5t-111.5 75.5t-135 27.5t-134 -27.5t-111 -75.5t-75 -110.5t-26.5 -134.5zM1118 170v535v14v498q0 53 19.5 85.5t46 51t55.5 24.5t49 6h467q74 0 121 -49t47 -127q0 -74 -47 -121t-121 -47h-291v-166h95q74 0 122 -50 t48 -126q0 -74 -48.5 -121t-121.5 -47h-95v-184h289q74 0 121 -50t47 -126q0 -74 -47 -122t-121 -48h-473q-70 0 -116 49t-46 121z" />
<glyph unicode="&#x153;" horiz-adv-x="1937" d="M84 522q0 109 41 204t110.5 166t167 113t209.5 46q104 0 198.5 -42t166.5 -114t114 -169t42 -204q0 -104 -41 -199.5t-112 -167t-166 -112.5t-206 -41q-109 0 -203 39t-165.5 108.5t-113.5 164.5t-42 208zM430 526.5q0 -75.5 52.5 -127t125.5 -51.5q76 0 128 51.5t52 127 t-52 127t-128 51.5q-74 0 -126 -51.5t-52 -127zM809 522q0 109 41 204t110.5 166t167 113t209.5 46q100 0 192.5 -33t164 -97.5t114.5 -165t45 -235.5q0 -55 -39.5 -95t-97.5 -40h-557q14 -33 43 -52.5t58.5 -28.5t53 -11t27.5 -2q18 0 41 2q20 2 45 5t56 13q31 6 66.5 30 t66.5 24q57 0 93 -38t36 -98q0 -43 -23 -77q-33 -43 -78 -73t-96 -47.5t-106.5 -23.5t-108.5 -6q-109 0 -203 39t-165.5 108.5t-113.5 164.5t-42 208zM1153 651h375q0 14 -15.5 34t-41 35t-60.5 26.5t-74 11.5q-86 0 -135 -37t-49 -70z" />
<glyph unicode="&#x154;" horiz-adv-x="1093" d="M98 170v1049q0 74 49.5 120.5t126.5 46.5h244q80 0 157 -36.5t138 -100t100 -148.5t39 -181q0 -51 -13 -102.5t-37.5 -96.5t-55.5 -81t-70 -56l217 -316q27 -45 27 -94q0 -41 -19.5 -78t-58.5 -63q-43 -31 -98 -31q-41 0 -77 19.5t-58 56.5l-213 368h-54v-276 q0 -74 -50 -122t-126 -48q-74 0 -121 48t-47 122zM276 1628q0 47 27 90l146 236q25 41 61.5 62.5t79.5 21.5t88 -27q45 -25 67.5 -63.5t22.5 -83.5q0 -49 -27 -90l-143 -236q-23 -39 -59.5 -59.5t-81.5 -20.5q-53 0 -97 29q-41 25 -62.5 61.5t-21.5 79.5zM442 793h76 q25 2 45 14q16 12 30.5 37.5t14.5 75.5q0 47 -14 71.5t-31 34.5q-20 14 -45 16h-76v-249z" />
<glyph unicode="&#x155;" horiz-adv-x="782" d="M76 170v715q0 76 38 123t113 47q31 0 52.5 -11.5t36 -25.5t24.5 -35q16 20 41 35q20 14 57 25.5t97 11.5q74 -2 124 -52.5t50 -124t-50.5 -120.5t-126.5 -47q-39 0 -73.5 -40t-36.5 -100v-401q0 -74 -47 -122t-123 -48q-74 0 -125 43t-51 127zM193 1315q0 47 26 90 l146 235q25 41 61.5 62.5t79.5 21.5t88 -26q45 -25 67.5 -64t22.5 -84q0 -49 -27 -90l-143 -235q-23 -39 -59.5 -59.5t-81.5 -20.5q-53 0 -97 29q-41 25 -62 61.5t-21 79.5z" />
<glyph unicode="&#x156;" horiz-adv-x="1093" d="M98 170v1049q0 74 49.5 120.5t126.5 46.5h244q80 0 157 -36.5t138 -100t100 -148.5t39 -181q0 -51 -13 -102.5t-37.5 -96.5t-55.5 -81t-70 -56l217 -316q27 -45 27 -94q0 -41 -19.5 -78t-58.5 -63q-43 -31 -98 -31q-41 0 -77 19.5t-58 56.5l-213 368h-54v-276 q0 -74 -50 -122t-126 -48q-74 0 -121 48t-47 122zM328 -293q0 74 46 122t122 48q78 0 128 -48t50 -122v-239q0 -74 -50.5 -121t-125.5 -47q-74 0 -122 47t-48 121v239zM442 793h76q25 2 45 14q16 12 30.5 37.5t14.5 75.5q0 47 -14 71.5t-31 34.5q-20 14 -45 16h-76v-249z " />
<glyph unicode="&#x157;" horiz-adv-x="784" d="M78 170v715q0 76 38 123t113 47q31 0 52.5 -11.5t36 -25.5t24.5 -35q16 20 41 35q20 14 57 25.5t97 11.5q74 -2 124 -52.5t50 -124t-50.5 -120.5t-125.5 -47q-39 0 -74 -40t-37 -100v-401q0 -74 -47 -122t-123 -48q-74 0 -125 43t-51 127zM78 -287q0 74 46 122t122 48 q78 0 128 -48t50 -122v-239q0 -74 -50 -121t-126 -47q-74 0 -122 47t-48 121v239z" />
<glyph unicode="&#x158;" horiz-adv-x="1091" d="M78 1825q0 72 46 118t118 46q51 0 89 -26t72 -60l72 -72l74 72q35 35 72.5 60.5t87.5 25.5q72 0 118.5 -46.5t46.5 -117.5q0 -39 -16 -73t-43 -58l-2 -2l-227 -197q-47 -43 -109 -43q-63 0 -110 43l-228 197q-4 0 -4 2q-25 25 -41 58.5t-16 72.5zM98 170v1049 q0 74 49.5 120.5t126.5 46.5h244q80 0 157 -36.5t138 -100t100 -148.5t39 -181q0 -51 -13 -102.5t-37.5 -96.5t-55.5 -81t-70 -56l217 -316q27 -45 27 -94q0 -41 -19.5 -78t-58.5 -63q-43 -31 -98 -31q-41 0 -77 19.5t-58 56.5l-213 368h-54v-276q0 -74 -50 -122t-126 -48 q-74 0 -121 48t-47 122zM442 793h76q25 2 45 14q16 12 30.5 37.5t14.5 75.5q0 47 -14 71.5t-31 34.5q-20 14 -45 16h-76v-249z" />
<glyph unicode="&#x159;" horiz-adv-x="792" d="M-14 1513q0 72 46 118t118 46q51 0 88.5 -25.5t72.5 -60.5l72 -71l74 71q35 35 72.5 60.5t86.5 25.5q72 0 119 -46t47 -118q0 -39 -16 -72.5t-43 -58.5l-2 -2l-227 -196q-47 -43 -109 -43q-63 0 -111 43l-227 196q-4 0 -4 2q-25 25 -41 58.5t-16 72.5zM92 170v715 q0 76 38 123t114 47q31 0 52 -11.5t35.5 -25.5t24.5 -35q16 20 41 35q20 14 57.5 25.5t96.5 11.5q74 -2 124 -52.5t50 -124t-50 -120.5t-126 -47q-39 0 -74 -40t-37 -100v-401q0 -74 -47 -122t-123 -48q-74 0 -125 43t-51 127z" />
<glyph unicode="&#x15a;" horiz-adv-x="1097" d="M84 291q0 68 47 121t115 53q37 0 64.5 -8t60.5 -33l40 -30.5t34.5 -23t38 -15.5t51.5 -7q12 0 37.5 2t49 11.5t42 31t18.5 62.5q0 66 -36 100.5t-128 65.5q-80 27 -149.5 58.5t-121.5 74.5t-82 101t-30 136q0 119 43 195t109.5 120t145.5 61t151 17q82 0 157.5 -21.5 t141.5 -76.5q33 -29 61.5 -72t28.5 -90q0 -51 -41 -92q-25 -25 -52.5 -34t-58.5 -9q-51 0 -96 21q-33 12 -50.5 21t-30.5 13.5t-27 5.5l-39 3q-9 1 -17 0q-46 0 -63 -20q-20 -24 -21 -46q14 -66 178 -117q100 -31 169 -75.5t111 -100t60.5 -118t18.5 -127.5q0 -113 -41 -196 t-108.5 -139.5t-153.5 -85t-172 -28.5q-63 0 -132 15.5t-129.5 44t-108.5 71.5t-71 96q-14 33 -14 64zM352 1630q0 47 27 90l145 236q25 41 62 62.5t80 21.5t88 -27q45 -25 67.5 -63.5t22.5 -83.5q0 -49 -27 -90l-143 -236q-23 -39 -59.5 -59.5t-82.5 -20.5q-53 0 -96 29 q-41 25 -62.5 61.5t-21.5 79.5z" />
<glyph unicode="&#x15b;" horiz-adv-x="1026" d="M92 264q0 63 38 109.5t97 46.5q37 0 69 -5t58 -18q51 -27 97.5 -36t105.5 -13q45 -6 39 14.5t-39 28.5l-144 31q-75 16 -136.5 49t-102.5 87t-41 144q0 106 39 174t95.5 106t120 52.5t114.5 18.5h15q33 0 87 -6q68 -8 135.5 -35t118.5 -72t51 -115q0 -18 -3 -38.5 t-13 -41.5q-18 -37 -51 -52t-72 -15q-31 0 -59.5 5t-59.5 13q-33 8 -64.5 17.5t-55 11.5t-39 -3t-17.5 -24q0 -16 15.5 -24t41 -12.5t59.5 -7.5t68 -13q150 -43 213.5 -131t67.5 -193q0 -104 -48 -166.5t-112.5 -95t-131 -44t-103.5 -11.5q-61 0 -126 8t-125.5 29.5 t-107.5 54.5t-73 86q-21 41 -21 86zM340 1303q0 47 27 90l145 235q25 41 61.5 62.5t79.5 21.5t88 -26q45 -25 67.5 -64t22.5 -84q0 -49 -26 -90l-143 -236q-23 -39 -60 -59t-82 -20q-53 0 -96 28q-41 25 -62.5 62t-21.5 80z" />
<glyph unicode="&#x15c;" horiz-adv-x="1097" d="M84 291q0 68 47 121t115 53q37 0 64.5 -8t60.5 -33l40 -30.5t34.5 -23t38 -15.5t51.5 -7q12 0 37.5 2t49 11.5t42 31t18.5 62.5q0 66 -36 100.5t-128 65.5q-80 27 -149.5 58.5t-121.5 74.5t-82 101t-30 136q0 119 43 195t109.5 120t145.5 61t151 17q82 0 157.5 -21.5 t141.5 -76.5q33 -29 61.5 -72t28.5 -90q0 -51 -41 -92q-25 -25 -52.5 -34t-58.5 -9q-51 0 -96 21q-33 12 -50.5 21t-30.5 13.5t-27 5.5l-39 3q-9 1 -17 0q-46 0 -63 -20q-20 -24 -21 -46q14 -66 178 -117q100 -31 169 -75.5t111 -100t60.5 -118t18.5 -127.5q0 -113 -41 -196 t-108.5 -139.5t-153.5 -85t-172 -28.5q-63 0 -132 15.5t-129.5 44t-108.5 71.5t-71 96q-14 33 -14 64zM147 1638q0 39 16.5 73t41.5 58l4 3l227 196q47 41 111 41q61 0 108 -41l228 -196q2 0 2 -3q27 -25 43 -58.5t16 -72.5q0 -72 -47 -118.5t-119 -46.5q-49 0 -87 26.5 t-73 61.5l-73 71l-72 -71q-35 -35 -73 -61.5t-89 -26.5q-72 0 -118 46.5t-46 118.5z" />
<glyph unicode="&#x15d;" horiz-adv-x="1026" d="M92 264q0 63 38 109.5t97 46.5q37 0 69 -5t58 -18q51 -27 97.5 -36t105.5 -13q45 -6 39 14.5t-39 28.5l-144 31q-75 16 -136.5 49t-102.5 87t-41 144q0 106 39 174t95.5 106t120 52.5t114.5 18.5h15q33 0 87 -6q68 -8 135.5 -35t118.5 -72t51 -115q0 -18 -3 -38.5 t-13 -41.5q-18 -37 -51 -52t-72 -15q-31 0 -59.5 5t-59.5 13q-33 8 -64.5 17.5t-55 11.5t-39 -3t-17.5 -24q0 -16 15.5 -24t41 -12.5t59.5 -7.5t68 -13q150 -43 213.5 -131t67.5 -193q0 -104 -48 -166.5t-112.5 -95t-131 -44t-103.5 -11.5q-61 0 -126 8t-125.5 29.5 t-107.5 54.5t-73 86q-21 41 -21 86zM109 1300q0 39 16 73t41 59l4 2l227 196q47 41 111 41q61 0 108 -41l228 -196q2 0 2 -2q27 -25 43 -59t16 -73q0 -72 -47 -118.5t-119 -46.5q-49 0 -87 26.5t-72 61.5l-74 71l-72 -71q-35 -35 -72.5 -61.5t-89.5 -26.5q-72 0 -117.5 46.5 t-45.5 118.5z" />
<glyph unicode="&#x15e;" horiz-adv-x="1097" d="M84 291q0 68 47 121t115 53q37 0 64.5 -8t60.5 -33l40 -30.5t34.5 -23t38 -15.5t51.5 -7q12 0 37.5 2t49 11.5t42 31t18.5 62.5q0 66 -36 100.5t-128 65.5q-80 27 -149.5 58.5t-121.5 74.5t-82 101t-30 136q0 119 43 195t109.5 120t145.5 61t151 17q82 0 157.5 -21.5 t141.5 -76.5q33 -29 61.5 -72t28.5 -90q0 -51 -41 -92q-25 -25 -52.5 -34t-58.5 -9q-51 0 -96 21q-33 12 -50.5 21t-30.5 13.5t-27 5.5l-39 3q-9 1 -17 0q-46 0 -63 -20q-20 -24 -21 -46q14 -66 178 -117q100 -31 169 -75.5t111 -100t60.5 -118t18.5 -127.5q0 -113 -41 -196 t-108.5 -139.5t-153.5 -85t-172 -28.5q-63 0 -132 15.5t-129.5 44t-108.5 71.5t-71 96q-14 33 -14 64zM202 -170q0 17 3 27q10 41 44 59t66 18q43 0 66 -26q12 -16 23.5 -43t25.5 -52.5t34.5 -44t51.5 -18.5q4 0 11.5 5t4.5 18q-4 25 -19 40l-34 34q-18 19 -32.5 51 t-14.5 86v88h260v-88q43 -12 66.5 -33t34 -48.5t11.5 -58t1 -59.5q0 -33 -11.5 -82t-43 -93t-86 -77t-138.5 -33t-144 23.5t-98 62.5t-56.5 89.5t-22.5 101.5q-3 33 -3 53z" />
<glyph unicode="&#x15f;" horiz-adv-x="1026" d="M92 264q0 63 38 109.5t97 46.5q37 0 69 -5t58 -18q51 -27 97.5 -36t105.5 -13q45 -6 39 14.5t-39 28.5l-144 31q-75 16 -136.5 49t-102.5 87t-41 144q0 106 39 174t95.5 106t120 52.5t114.5 18.5h15q33 0 87 -6q68 -8 135.5 -35t118.5 -72t51 -115q0 -18 -3 -38.5 t-13 -41.5q-18 -37 -51 -52t-72 -15q-31 0 -59.5 5t-59.5 13q-33 8 -64.5 17.5t-55 11.5t-39 -3t-17.5 -24q0 -16 15.5 -24t41 -12.5t59.5 -7.5t68 -13q150 -43 213.5 -131t67.5 -193q0 -104 -48 -166.5t-112.5 -95t-131 -44t-103.5 -11.5q-61 0 -126 8t-125.5 29.5 t-107.5 54.5t-73 86q-21 41 -21 86zM161 -144q0 17 3 27q10 41 44 59.5t66 18.5q43 0 66 -27q12 -16 23.5 -42.5t25.5 -52t34.5 -44t51.5 -18.5q4 0 11.5 5t5.5 17q-4 25 -20 40l-34 35q-18 19 -32.5 51t-14.5 85v88h260v-88q43 -12 66.5 -32.5t34 -48t11.5 -58.5t1 -59 q0 -33 -11.5 -82t-43 -93.5t-86 -77t-138.5 -32.5t-144 23.5t-98 62.5t-56.5 89t-22.5 101q-3 33 -3 53z" />
<glyph unicode="&#x160;" horiz-adv-x="1097" d="M84 291q0 68 47 121t115 53q37 0 64.5 -8t60.5 -33l40 -30.5t34.5 -23t38 -15.5t51.5 -7q12 0 37.5 2t49 11.5t42 31t18.5 62.5q0 66 -36 100.5t-128 65.5q-80 27 -149.5 58.5t-121.5 74.5t-82 101t-30 136q0 119 43 195t109.5 120t145.5 61t151 17q82 0 157.5 -21.5 t141.5 -76.5q33 -29 61.5 -72t28.5 -90q0 -51 -41 -92q-25 -25 -52.5 -34t-58.5 -9q-51 0 -96 21q-33 12 -50.5 21t-30.5 13.5t-27 5.5l-39 3q-9 1 -17 0q-46 0 -63 -20q-20 -24 -21 -46q14 -66 178 -117q100 -31 169 -75.5t111 -100t60.5 -118t18.5 -127.5q0 -113 -41 -196 t-108.5 -139.5t-153.5 -85t-172 -28.5q-63 0 -132 15.5t-129.5 44t-108.5 71.5t-71 96q-14 33 -14 64zM143 1831q0 72 46.5 118t117.5 46q51 0 89 -25.5t73 -60.5l72 -72l73 72q35 35 73 60.5t87 25.5q72 0 119 -46t47 -118q0 -39 -16.5 -73t-42.5 -58l-2 -2l-228 -197 q-47 -43 -108 -43q-63 0 -111 43l-227 197q-4 0 -4 2q-25 25 -41.5 58.5t-16.5 72.5z" />
<glyph unicode="&#x161;" horiz-adv-x="1454" d="M88 498q0 41 18.5 72.5t45.5 60.5l235 270q154 154 455 154q100 0 194 -42t168 -114t119 -170t45 -209q0 -115 -43 -210t-114.5 -163.5t-167 -107.5t-201.5 -39q-98 0 -194.5 43t-172.5 102q-57 51 -57 131q0 72 50 122.5t122 50.5q35 0 66.5 -12.5t56.5 -37.5 q20 -18 53 -35.5t76 -17.5q76 0 128 51.5t52 124.5q0 37 -10.5 73t-35 64.5t-61 46t-88.5 17.5q-23 4 -47 -2q-25 -4 -58.5 -17.5t-76.5 -37.5l-239 -267q-31 -33 -64 -54t-80 -21q-74 0 -124 50t-50 124zM469 1509q0 72 47 118t119 46q49 0 87 -25.5t73 -60.5l71 -71l74 71 q35 35 73 60.5t87 25.5q72 0 119 -46t47 -118q0 -39 -16.5 -72.5t-43.5 -58.5l-2 -2l-227 -196q-47 -43 -109 -43q-63 0 -110 43l-228 196q-2 0 -2 2q-27 25 -43 58.5t-16 72.5z" />
<glyph unicode="&#x162;" horiz-adv-x="1007" d="M57 1221q0 74 47.5 121t120.5 47h559q74 0 121 -49.5t47 -125t-47 -123t-121 -47.5h-106v-874q0 -74 -50 -122t-126 -48q-74 0 -122 48t-48 122v874h-107q-74 0 -121 50.5t-47 126.5zM328 -293q0 74 46 122t122 48q78 0 128 -48t50 -122v-239q0 -74 -50.5 -121 t-125.5 -47q-74 0 -122 47t-48 121v239z" />
<glyph unicode="&#x163;" horiz-adv-x="823" d="M53 961q0 74 50.5 124t134.5 50v84q0 74 46 120.5t122 46.5q74 0 125 -43t51 -124v-84q39 0 72.5 -12.5t59 -36t41 -55.5t15.5 -68q0 -74 -57.5 -123t-130.5 -49v-621q0 -74 -50.5 -122t-125.5 -48q-74 0 -121 48t-47 122v621q-74 0 -129.5 46t-55.5 124zM229 -297 q0 74 46.5 122t121.5 48q78 0 128 -48t50 -122v-240q0 -74 -50 -121t-126 -47q-74 0 -122 47.5t-48 120.5v240z" />
<glyph unicode="&#x164;" horiz-adv-x="1007" d="M57 1221q0 74 47.5 121t120.5 47h559q74 0 121 -49.5t47 -125t-47 -123t-121 -47.5h-106v-874q0 -74 -50 -122t-126 -48q-74 0 -122 48t-48 122v874h-107q-74 0 -121 50.5t-47 126.5zM104 1837q0 72 46.5 118t117.5 46q51 0 89 -25.5t73 -60.5l72 -72l73 72 q35 35 73 60.5t87 25.5q72 0 119 -46t47 -118q0 -39 -16.5 -72.5t-42.5 -58.5l-2 -2l-228 -197q-47 -43 -108 -43q-63 0 -111 43l-227 197q-4 0 -4 2q-25 25 -41.5 58.5t-16.5 72.5z" />
<glyph unicode="&#x165;" horiz-adv-x="823" d="M53 961q0 74 50.5 124t134.5 50v84q0 74 46 120.5t122 46.5q74 0 125 -43t51 -124v-84q39 0 72.5 -12.5t59 -36t41 -55.5t15.5 -68q0 -74 -57.5 -123t-130.5 -49v-621q0 -74 -50.5 -122t-125.5 -48q-74 0 -121 48t-47 122v621q-74 0 -129.5 46t-55.5 124zM225 1630 q0 49 27 92l145 234q25 41 62 63.5t80 22.5t90 -27q43 -27 65.5 -65.5t22.5 -81.5q0 -51 -27 -92l-143 -234q-23 -39 -59.5 -59.5t-81.5 -20.5q-53 0 -97 27q-41 25 -62.5 61.5t-21.5 79.5z" />
<glyph unicode="&#x166;" horiz-adv-x="1007" d="M57 1221q0 74 47.5 121t120.5 47h559q74 0 121 -49.5t47 -125t-47 -123t-121 -47.5h-106v-874q0 -74 -50 -122t-126 -48q-74 0 -122 48t-48 122v874h-107q-74 0 -121 50.5t-47 126.5zM188 690q0 74 48.5 122t121.5 48h285q74 0 121 -51t47 -119q0 -74 -47 -125t-121 -51 h-285q-74 0 -122 50t-48 126z" />
<glyph unicode="&#x167;" horiz-adv-x="823" d="M53 961q0 74 50.5 124t134.5 50v84q0 74 46 120.5t122 46.5q74 0 125 -43t51 -124v-84q39 0 72.5 -12.5t59 -36t41 -55.5t15.5 -68q0 -74 -57.5 -123t-130.5 -49v-621q0 -74 -50.5 -122t-125.5 -48q-74 0 -121 48t-47 122v621q-74 0 -129.5 46t-55.5 124zM94 539 q0 74 48 122t122 48h285q74 0 121 -51.5t47 -118.5q0 -74 -47 -125.5t-121 -51.5h-285q-74 0 -122 50.5t-48 126.5z" />
<glyph unicode="&#x168;" horiz-adv-x="1171" d="M49 1622q-5 20 -5 38q0 22 7 44q8 23 21.5 45.5t30 42.5t35 37.5l32.5 30.5q41 31 100.5 60.5t159.5 29.5q45 0 91 -26t89 -58l81 -60q38 -27 69 -26q18 0 38.5 11t38 26.5t29 29t15.5 17.5q18 23 50 43t75 20q12 0 30.5 -5t38 -15.5t35.5 -27.5t25 -40q8 -18 10 -49 q1 -8 0 -15q0 -22 -4 -42q-20 -63 -69.5 -110.5t-109 -81.5t-117 -51t-91.5 -17q-37 0 -73 16t-70 40l-66 47q-33 24 -62.5 38t-58.5 14t-53 -24q-10 -6 -31 -25l-43 -39q-22 -20 -44 -37.5t-32 -19.5q-13 -3 -26 -3q-28 0 -53 13q-36 18 -59.5 52t-33.5 77zM104 483v727 q0 76 46.5 123t121.5 47q74 0 125.5 -43t51.5 -127v-727q0 -35 13 -60.5t34.5 -43t45 -25.5t48.5 -8q23 0 48.5 8t46 25.5t34.5 43.5t14 60v727q0 84 51.5 127t124.5 43q76 0 123 -47t47 -123v-727q0 -86 -32.5 -173t-96 -155.5t-153.5 -111.5t-207 -43t-207 43 t-151.5 111.5t-94.5 155.5t-33 173z" />
<glyph unicode="&#x169;" horiz-adv-x="1034" d="M-12 1290q-5 20 -5 38q0 22 7 44q8 23 21.5 45.5t29.5 43t34.5 38t33.5 29.5q41 31 100 60.5t160 29.5q45 0 91 -25.5t89 -58.5l81 -59q38 -27 68 -27q18 0 39 11t38.5 26.5t28.5 29t15 17.5q18 23 50 43t75 20q12 0 30.5 -5t38 -15t36 -27.5t24.5 -40.5q8 -18 10 -49 q1 -8 1 -15q0 -22 -5 -42q-20 -63 -69 -110.5t-108.5 -81t-117 -51t-92.5 -17.5q-37 0 -72.5 16.5t-69.5 39.5l-67 47q-33 24 -62.5 38t-58 14t-53.5 -24q-10 -6 -30 -25l-43 -39q-22 -20 -44 -37.5t-32 -19.5q-13 -3 -26 -3q-28 0 -53 13q-36 18 -59.5 52t-33.5 77z M125 483v402q0 76 46 123t122 47t126 -43t50 -127v-402q0 -70 6 -100.5t43 -32.5h5q44 0 51 35q7 37 12 98v402q0 76 46 123t122 47q74 0 125 -43t51 -127v-715q0 -74 -37 -122t-86 -48q-51 0 -78 11.5t-43 25.5q-16 16 -20 39q-20 -23 -43 -37t-57 -25.5t-77 -11.5 q-186 0 -275 115.5t-89 365.5z" />
<glyph unicode="&#x16a;" horiz-adv-x="1169" d="M98 483v727q0 76 46 123t122 47q74 0 125 -43t51 -127v-727q0 -35 13.5 -60.5t35 -43t45 -25.5t48.5 -8q23 0 48 8t45.5 25.5t35 43.5t14.5 60v727q0 84 51 127t125 43q76 0 123 -47t47 -123v-727q0 -86 -32.5 -173t-96 -155.5t-154 -111.5t-207 -43t-206.5 43 t-151.5 111.5t-94.5 155.5t-33 173zM270 1640q0 74 48.5 122t121.5 48h285q74 0 121 -51t47 -119q0 -74 -47 -125t-121 -51h-285q-74 0 -122 50t-48 126z" />
<glyph unicode="&#x16b;" horiz-adv-x="1007" d="M102 483v402q0 76 46.5 123t122 47t125.5 -43t50 -127v-402q0 -70 6.5 -100.5t43.5 -32.5h5q44 0 51 35q7 37 11 98v402q0 76 46 123t122 47q74 0 125 -43t51 -127v-715q0 -74 -36.5 -122t-86.5 -48q-51 0 -77.5 11.5t-42.5 25.5q-16 16 -21 39q-20 -23 -42.5 -37 t-56.5 -25.5t-77 -11.5q-186 0 -275.5 115.5t-89.5 365.5zM203 1323q0 74 48 122t122 48h284q74 0 121 -51t47 -119q0 -74 -47 -125t-121 -51h-284q-74 0 -122 50t-48 126z" />
<glyph unicode="&#x16c;" horiz-adv-x="1169" d="M98 483v727q0 76 46 123t122 47q74 0 125 -43t51 -127v-727q0 -35 13.5 -60.5t35 -43t45 -25.5t48.5 -8q23 0 48 8t45.5 25.5t35 43.5t14.5 60v727q0 84 51 127t125 43q76 0 123 -47t47 -123v-727q0 -86 -32.5 -173t-96 -155.5t-154 -111.5t-207 -43t-206.5 43 t-151.5 111.5t-94.5 155.5t-33 173zM186 1905v4q0 72 50.5 123t121.5 51q51 0 93.5 -26.5t64.5 -71.5q8 -18 12 -47t11.5 -54.5t19.5 -43t41 -17.5q31 0 41 17.5t15.5 43t6.5 54t11 47.5q23 45 64.5 71.5t90.5 26.5q72 0 123.5 -51.5t51.5 -122.5v-4q0 -57 -20.5 -133 t-69 -141.5t-124 -111.5t-188.5 -46t-191.5 46t-129 111.5t-73 141.5t-22.5 133z" />
<glyph unicode="&#x16d;" horiz-adv-x="1024" d="M102 1565v4q0 72 50.5 123t121.5 51q51 0 93.5 -26.5t64.5 -71.5q8 -18 12.5 -47t11.5 -54.5t19 -43t41 -17.5q31 0 41 17.5t15.5 43t6.5 54t11 47.5q23 45 64.5 71.5t90.5 26.5q72 0 123.5 -51.5t51.5 -122.5v-4q0 -57 -20.5 -133t-69 -141.5t-124 -111.5t-188 -46 t-191.5 46t-129.5 111.5t-73 141.5t-22.5 133zM117 483v402q0 76 46 123t121.5 47t126 -43t50.5 -127v-402q0 -70 6 -100.5t43 -32.5h5q44 0 51 35q7 37 12 98v402q0 76 46 123t121 47q74 0 125.5 -43t51.5 -127v-715q0 -74 -37 -122t-86 -48q-51 0 -78 11.5t-43 25.5 q-16 16 -21 39q-20 -23 -42.5 -37t-56.5 -25.5t-77 -11.5q-186 0 -275 115.5t-89 365.5z" />
<glyph unicode="&#x16e;" horiz-adv-x="1169" d="M98 483v727q0 76 46 123t122 47q74 0 125 -43t51 -127v-727q0 -35 13.5 -60.5t35 -43t45 -25.5t48.5 -8q23 0 48 8t45.5 25.5t35 43.5t14.5 60v727q0 84 51 127t125 43q76 0 123 -47t47 -123v-727q0 -86 -32.5 -173t-96 -155.5t-154 -111.5t-207 -43t-206.5 43 t-151.5 111.5t-94.5 155.5t-33 173zM367 1690q0 45 17 86t46 71.5t71 48t87 17.5t86 -17.5t71.5 -48t48 -71.5t17.5 -86q0 -47 -17.5 -88t-48 -71t-71.5 -47.5t-86 -17.5q-94 0 -157.5 65t-63.5 159zM567 1690q0 -20 21 -21q18 0 18 21q0 18 -18 18q-21 0 -21 -18z" />
<glyph unicode="&#x16f;" horiz-adv-x="1007" d="M102 483v402q0 76 46.5 123t122 47t125.5 -43t50 -127v-402q0 -70 6.5 -100.5t43.5 -32.5h5q44 0 51 35q7 37 11 98v402q0 76 46 123t122 47q74 0 125 -43t51 -127v-715q0 -74 -36.5 -122t-86.5 -48q-51 0 -77.5 11.5t-42.5 25.5q-16 16 -21 39q-20 -23 -42.5 -37 t-56.5 -25.5t-77 -11.5q-186 0 -275.5 115.5t-89.5 365.5zM279 1366q0 45 17 86t46 71.5t71 48t87 17.5t86 -17.5t71.5 -48t48 -71.5t17.5 -86q0 -47 -17.5 -88t-48 -70.5t-71.5 -47t-86 -17.5q-94 0 -157.5 64.5t-63.5 158.5zM479 1366q0 -20 21 -20q18 0 18 20 q0 18 -18 18q-21 0 -21 -18z" />
<glyph unicode="&#x170;" horiz-adv-x="1175" d="M98 483v727q0 76 46 123t122 47q74 0 125 -43t51 -127v-727q0 -35 13.5 -60.5t35 -43t45 -25.5t48.5 -8q23 0 48 8t45.5 25.5t35 43.5t14.5 60v727q0 84 51 127t125 43q76 0 123 -47t47 -123v-727q0 -86 -32.5 -173t-96 -155.5t-154 -111.5t-207 -43t-206.5 43 t-151.5 111.5t-94.5 155.5t-33 173zM182 1634q0 49 27 92l145 234q25 41 62 63.5t80 22.5t88 -26.5t67.5 -65.5t22.5 -82q0 -51 -27 -92l-143 -234q-23 -39 -59.5 -59.5t-82.5 -20.5q-53 0 -96 27q-41 25 -62.5 61.5t-21.5 79.5zM664 1624q0 47 26 90l144 236q55 84 141 84 q47 0 92 -27q43 -25 65.5 -63.5t22.5 -83.5q0 -49 -25 -91l-143 -235q-25 -39 -62.5 -59.5t-80.5 -20.5q-53 0 -96 29q-41 25 -62.5 61.5t-21.5 79.5z" />
<glyph unicode="&#x171;" horiz-adv-x="1034" d="M125 1311q0 49 27 92l145 233q25 41 61.5 63.5t79.5 22.5t88 -26.5t67.5 -65.5t22.5 -82q0 -51 -26 -92l-144 -233q-23 -39 -59.5 -59.5t-81.5 -20.5q-53 0 -96 26q-41 25 -62.5 62t-21.5 80zM129 483v402q0 76 46 123t122 47t126 -43t50 -127v-402q0 -70 6 -100.5 t43 -32.5h5q44 0 52 35q7 37 11 98v402q0 76 46 123t122 47q74 0 125 -43t51 -127v-715q0 -74 -37 -122t-86 -48q-51 0 -77.5 11.5t-43.5 25.5q-16 16 -20 39q-20 -23 -43 -37t-56.5 -25.5t-76.5 -11.5q-186 0 -275.5 115.5t-89.5 365.5zM606 1300q0 47 27 91l143 235 q55 84 142 84q47 0 92 -27q43 -25 65.5 -63.5t22.5 -83.5q0 -49 -25 -90l-143 -236q-25 -39 -63 -59.5t-81 -20.5q-53 0 -96 29q-41 25 -62.5 61.5t-21.5 79.5z" />
<glyph unicode="&#x172;" horiz-adv-x="1181" d="M98 483v727q0 76 46 123t122 47q74 0 125 -43t51 -127v-727q0 -35 13.5 -60.5t35 -43t45 -25.5t48.5 -8q23 0 48 8t45.5 25.5t35 43.5t14.5 60v727q0 84 51 127t125 43q76 0 123 -47t47 -123v-727q0 -86 -32.5 -173t-96 -155.5t-154 -111.5t-207 -43t-206.5 43 t-151.5 111.5t-94.5 155.5t-33 173zM369 -119q0 37 13 60.5t28.5 43t28 38t12.5 45.5h286q0 -53 -10 -83t-25.5 -48.5t-29 -32t-15.5 -35.5q-2 -14 5.5 -19.5t11.5 -5.5q27 0 46 18.5t33.5 42t27 49.5t22.5 38q8 10 24.5 15t36.5 5q35 0 70 -17.5t47 -62.5q4 -10 4 -33.5 t-6 -41.5q-20 -51 -46 -100.5t-65 -87.5t-94 -61.5t-129 -23.5q-86 0 -140 35t-84 81t-41 97t-11 84z" />
<glyph unicode="&#x173;" horiz-adv-x="983" d="M102 483v402q0 76 46.5 123t122 47t125.5 -43t50 -127v-402q0 -70 6.5 -100.5t43.5 -32.5h5q44 0 51 35q7 37 11 98v402q0 76 46 123t122 47q74 0 125 -43t51 -127v-715q0 -74 -36.5 -122t-86.5 -48q-51 0 -77.5 11.5t-42.5 25.5q-16 16 -21 39q-20 -23 -42.5 -37 t-56.5 -25.5t-77 -11.5q-186 0 -275.5 115.5t-89.5 365.5zM539 -12q0 37 13 60.5t28.5 43t28 37.5t12.5 45h286q0 -53 -10 -83t-25.5 -48t-29 -31.5t-15.5 -36.5q-2 -14 5.5 -19t11.5 -5q27 0 46 18.5t33.5 42t27 49t22.5 37.5q8 10 24.5 15.5t36.5 5.5q35 0 70 -17.5 t47 -62.5q4 -10 4 -33.5t-6 -42.5q-20 -51 -46 -100t-65 -87t-94 -61.5t-129 -23.5q-86 0 -140 34.5t-84 81t-41 97.5t-11 84z" />
<glyph unicode="&#x174;" horiz-adv-x="1918" d="M86 1219q0 49 27.5 89t76.5 62q41 16 80 16q51 0 92 -25.5t58 -74.5l205 -674l168 660q23 70 71.5 90t96.5 20q43 0 91 -20.5t72 -89.5l172 -660l203 674q16 49 58 74.5t94 25.5q41 0 78 -14q49 -23 76.5 -62.5t27.5 -88.5q0 -39 -16 -72l-359 -1049q-23 -55 -65.5 -77.5 t-96.5 -22.5q-51 2 -97 27.5t-66 74.5l-172 545l-173 -547q-25 -55 -66.5 -77.5t-96.5 -22.5q-49 2 -96.5 27.5t-65.5 74.5l-361 1047q-16 33 -16 70zM563 1632q0 39 16.5 73t41.5 58l4 2l227 197q47 41 111 41q61 0 108 -41l227 -197q2 0 2 -2q27 -25 43.5 -58.5 t16.5 -72.5q0 -72 -47 -119t-119 -47q-49 0 -87 27t-73 61l-73 72l-72 -72q-35 -35 -73 -61.5t-89 -26.5q-72 0 -118 47t-46 119z" />
<glyph unicode="&#x175;" horiz-adv-x="1492" d="M12 827q-7 30 -7 58q0 42 18 77q29 56 102 82q16 6 31.5 8.5t31.5 2.5q100 0 148 -113l211 -516l61 117l-82 286q-10 33 -15 62t-5 53q0 37 16.5 63.5t59.5 39.5q29 8 55.5 -2.5t50 -35t38.5 -61.5t19 -78q4 41 20.5 78t39 61.5t49.5 35t55 2.5q43 -12 59.5 -39t16.5 -64 q0 -25 -5 -53.5t-13 -61.5l-82 -286l59 -117l211 516q47 113 148 113q37 0 65 -11q74 -27 102 -82q17 -33 17 -73q0 -29 -8 -62l-232 -659q-14 -33 -32.5 -63.5t-47 -53t-72.5 -37t-102 -14.5q-70 0 -116 19.5t-74.5 43t-41.5 47t-16 27.5q-4 -6 -17 -28.5t-43 -47t-75 -43 t-110 -18.5q-59 0 -102.5 14.5t-73 37t-48 53t-30.5 63.5zM326 1300q0 39 16 73t41 59l4 2l227 196q47 41 111 41q61 0 109 -41l227 -196q2 0 2 -2q27 -25 43 -59t16 -73q0 -72 -47 -118.5t-119 -46.5q-49 0 -87 26.5t-72 61.5l-74 71l-72 -71q-35 -35 -72.5 -61.5 t-89.5 -26.5q-72 0 -117.5 46.5t-45.5 118.5z" />
<glyph unicode="&#x176;" horiz-adv-x="1150" d="M76 1210q0 43 20.5 81t59.5 63q45 31 98 30q41 0 78 -19t63 -56l176 -322l187 322q27 37 63.5 56t77.5 19q53 0 98 -30q39 -25 59.5 -63t20.5 -81q0 -45 -30 -92l-304 -473v-475q0 -74 -50 -122t-126 -48q-74 0 -122 48t-48 122v475l-291 473q-30 47 -30 92zM170 1632 q0 39 16.5 73t40.5 58l4 2l228 197q47 41 110 41q61 0 109 -41l227 -197q2 0 2 -2q27 -25 43.5 -58.5t16.5 -72.5q0 -72 -47.5 -119t-118.5 -47q-49 0 -87 27t-73 61l-74 72l-71 -72q-35 -35 -73 -61.5t-89 -26.5q-72 0 -118 47t-46 119z" />
<glyph unicode="&#x177;" horiz-adv-x="1058" d="M72 885q0 55 30.5 95t85.5 60q37 10 64 11q49 0 91 -29t65 -84l137 -365l104 365q18 53 60.5 84t93.5 31q25 0 61 -11q55 -20 88 -60t33 -97q0 -25 -10 -62l-357 -1106q-18 -51 -61 -80.5t-94 -29.5q-18 0 -33.5 2t-32.5 8q-55 20 -84.5 61t-29.5 95q0 27 10 59l92 285 l-303 706q-10 37 -10 62zM139 1305q0 39 16.5 72.5t41.5 58.5l4 2l227 196q47 41 111 41q61 0 108 -41l227 -196q2 0 3 -2q27 -25 43 -59t16 -72q0 -72 -47 -119t-119 -47q-49 0 -87 26.5t-73 61.5l-73 71l-72 -71q-35 -35 -73 -61.5t-89 -26.5q-72 0 -118 47t-46 119z" />
<glyph unicode="&#x178;" horiz-adv-x="1150" d="M76 1210q0 43 20.5 81t59.5 63q45 31 98 30q41 0 78 -19t63 -56l176 -322l187 322q27 37 63.5 56t77.5 19q53 0 98 -30q39 -25 59.5 -63t20.5 -81q0 -45 -30 -92l-304 -473v-475q0 -74 -50 -122t-126 -48q-74 0 -122 48t-48 122v475l-291 473q-30 47 -30 92zM125 1665 q0 80 56.5 136.5t136 56.5t136 -56.5t56.5 -136.5q0 -82 -56.5 -138.5t-136 -56.5t-136 56.5t-56.5 138.5zM610 1665q0 80 56.5 136.5t136.5 56.5q82 0 138 -56.5t56 -136.5q0 -82 -56 -138.5t-138 -56.5q-80 0 -136.5 56.5t-56.5 138.5z" />
<glyph unicode="&#x179;" horiz-adv-x="1183" d="M76 1219q0 74 48 120.5t122 46.5h694q76 0 119 -46t43 -115q0 -68 -41 -135l-502 -744h381q74 0 122 -50t48 -126q0 -74 -48 -122t-122 -48h-694q-76 0 -118 51t-42 121q0 61 35 123l506 747h-381q-74 0 -122 50.5t-48 126.5zM449 1626q0 47 26 90l146 236 q25 41 61.5 62.5t79.5 21.5t88 -27q45 -25 67.5 -63.5t22.5 -83.5q0 -49 -27 -90l-143 -236q-23 -39 -59.5 -59.5t-81.5 -20.5q-53 0 -97 29q-41 25 -62 61.5t-21 79.5z" />
<glyph unicode="&#x17a;" horiz-adv-x="1175" d="M94 874q0 78 47 128.5t121 50.5h641q74 0 122 -50.5t48 -125.5q0 -37 -12 -66t-33 -51l-393 -414h278q74 0 122 -50t48 -126q0 -74 -48 -122t-122 -48h-651q-76 0 -120 49t-44 117q0 37 13.5 73.5t44.5 69.5l374 400h-268q-74 0 -121 44.5t-47 120.5zM416 1307 q0 47 26 90l146 235q25 41 61.5 62.5t79.5 21.5t88 -26q45 -25 67.5 -64t22.5 -84q0 -49 -26 -90l-144 -235q-23 -39 -59.5 -59.5t-81.5 -20.5q-53 0 -96 28q-41 25 -62.5 62t-21.5 80z" />
<glyph unicode="&#x17b;" horiz-adv-x="1183" d="M76 1219q0 74 48 120.5t122 46.5h694q76 0 119 -46t43 -115q0 -68 -41 -135l-502 -744h381q74 0 122 -50t48 -126q0 -74 -48 -122t-122 -48h-694q-76 0 -118 51t-42 121q0 61 35 123l506 747h-381q-74 0 -122 50.5t-48 126.5zM412 1663q0 80 55 135t135 55 q82 0 137.5 -55t55.5 -135q0 -82 -55.5 -137.5t-137.5 -55.5q-80 0 -135 55.5t-55 137.5z" />
<glyph unicode="&#x17c;" horiz-adv-x="1175" d="M94 874q0 78 47 128.5t121 50.5h641q74 0 122 -50.5t48 -125.5q0 -37 -12 -66t-33 -51l-393 -414h278q74 0 122 -50t48 -126q0 -74 -48 -122t-122 -48h-651q-76 0 -120 49t-44 117q0 37 13.5 73.5t44.5 69.5l374 400h-268q-74 0 -121 44.5t-47 120.5zM416 1386 q0 80 55 135.5t135 55.5q82 0 137.5 -55.5t55.5 -135.5q0 -82 -55.5 -137t-137.5 -55q-80 0 -135 55t-55 137z" />
<glyph unicode="&#x17d;" horiz-adv-x="1183" d="M76 1219q0 74 48 120.5t122 46.5h694q76 0 119 -46t43 -115q0 -68 -41 -135l-502 -744h381q74 0 122 -50t48 -126q0 -74 -48 -122t-122 -48h-694q-76 0 -118 51t-42 121q0 61 35 123l506 747h-381q-74 0 -122 50.5t-48 126.5zM209 1843q0 72 46 118t118 46q51 0 89 -25.5 t73 -60.5l71 -72l74 72q35 35 73 60.5t87 25.5q72 0 119 -46t47 -118q0 -39 -16.5 -72.5t-43.5 -58.5l-2 -2l-227 -197q-47 -43 -109 -43q-63 0 -110 43l-228 197q-4 0 -4 2q-25 25 -41 58.5t-16 72.5z" />
<glyph unicode="&#x17e;" horiz-adv-x="1175" d="M94 874q0 78 47 128.5t121 50.5h641q74 0 122 -50.5t48 -125.5q0 -37 -12 -66t-33 -51l-393 -414h278q74 0 122 -50t48 -126q0 -74 -48 -122t-122 -48h-651q-76 0 -120 49t-44 117q0 37 13.5 73.5t44.5 69.5l374 400h-268q-74 0 -121 44.5t-47 120.5zM184 1513 q0 72 46 118t118 46q51 0 89 -25.5t73 -60.5l72 -71l73 71q35 35 73 60.5t87 25.5q72 0 119 -46t47 -118q0 -39 -16.5 -72.5t-42.5 -58.5l-2 -2l-228 -196q-47 -43 -108 -43q-63 0 -111 43l-227 196q-4 0 -4 2q-25 25 -41.5 58.5t-16.5 72.5z" />
<glyph unicode="&#x192;" horiz-adv-x="819" d="M53 -225q0 76 48.5 126t122 50t113.5 20.5t60.5 91t23.5 204.5t3 362v151q-74 0 -122 34t-48 112q0 61 48 97t122 36q-6 88 24.5 154.5t81 113.5t113 76t119.5 39q25 4 60.5 5t60.5 1q80 0 137 -36t57 -107q0 -63 -47 -98.5t-123 -35.5q-51 0 -79.5 -12t-42 -30.5 t-15.5 -37t-2 -32.5h53q74 -2 121 -35t47 -109q0 -74 -47 -104.5t-121 -30.5h-53v-264v-177q0 -71 -1 -110t-1 -57v-24v-7q0 -154 -49 -256t-125 -162.5t-169 -87t-183 -28.5q-86 0 -136.5 47t-50.5 121z" />
<glyph unicode="&#x1fe;" horiz-adv-x="1550" d="M84 690.5q0 143.5 54.5 269t148.5 220t219 148.5t268.5 54t269 -54t221 -148.5t149.5 -220t54 -269t-54 -269.5t-149.5 -219t-221 -147.5t-269 -54.5t-268.5 54.5t-219 147.5t-148.5 219t-54.5 269.5zM408 213l348 1104q23 68 85 99q38 19 78 19q26 0 54 -8 q70 -25 102 -84q19 -35 20 -73q0 -27 -10 -56l-348 -1103q-23 -70 -85 -101q-36 -18 -75 -17q-29 0 -59 9q-70 23 -100 82q-18 36 -19 75q1 26 9 54zM430 688q0 -72 26.5 -134t75 -110.5t111 -76t134 -27.5t135 27.5t111.5 76t74.5 110.5t26.5 134t-26.5 134.5t-74.5 110.5 t-111.5 75.5t-135 27.5t-134 -27.5t-111 -75.5t-75 -110.5t-26.5 -134.5zM580 1640q0 47 26 91l146 235q25 41 61.5 62.5t79.5 21.5t88 -27q45 -25 67.5 -63.5t22.5 -83.5q0 -49 -27 -90l-143 -236q-23 -39 -59.5 -59.5t-81.5 -20.5q-53 0 -96 29q-41 25 -62.5 61.5 t-21.5 79.5z" />
<glyph unicode="&#x1ff;" horiz-adv-x="1216" d="M84 522q0 109 41 204t110.5 166t167 113t209.5 46q104 0 198.5 -42t166.5 -114t114 -169t42 -204q0 -104 -41 -199.5t-112 -167t-166 -112.5t-206 -41q-109 0 -203 39t-165.5 108.5t-113.5 164.5t-42 208zM270 25l348 1103q23 68 85 100q38 19 79 19q26 0 54 -8 q70 -25 102 -84q19 -35 19 -74q0 -27 -9 -55l-348 -1104q-23 -70 -85 -100q-36 -18 -75 -18q-29 0 -59 10q-70 23 -100 82q-18 36 -19 75q0 26 8 54zM309 1337q0 47 27 90l145 236q25 41 62 62.5t80 21.5t88 -27q45 -25 67.5 -63.5t22.5 -83.5q0 -49 -27 -90l-143 -236 q-23 -39 -59.5 -59.5t-82.5 -20.5q-53 0 -96 29q-41 25 -62.5 61.5t-21.5 79.5zM430 526.5q0 -75.5 52.5 -127t125.5 -51.5q76 0 128 51.5t52 127t-52 127t-128 51.5q-74 0 -126 -51.5t-52 -127z" />
<glyph unicode="&#x218;" horiz-adv-x="1097" d="M84 291q0 68 47 121t115 53q37 0 64.5 -8t60.5 -33l40 -30.5t34.5 -23t38 -15.5t51.5 -7q12 0 37.5 2t49 11.5t42 31t18.5 62.5q0 66 -36 100.5t-128 65.5q-80 27 -149.5 58.5t-121.5 74.5t-82 101t-30 136q0 119 43 195t109.5 120t145.5 61t151 17q82 0 157.5 -21.5 t141.5 -76.5q33 -29 61.5 -72t28.5 -90q0 -51 -41 -92q-25 -25 -52.5 -34t-58.5 -9q-51 0 -96 21q-33 12 -50.5 21t-30.5 13.5t-27 5.5l-39 3q-9 1 -17 0q-46 0 -63 -20q-20 -24 -21 -46q14 -66 178 -117q100 -31 169 -75.5t111 -100t60.5 -118t18.5 -127.5q0 -113 -41 -196 t-108.5 -139.5t-153.5 -85t-172 -28.5q-63 0 -132 15.5t-129.5 44t-108.5 71.5t-71 96q-14 33 -14 64z" />
<glyph unicode="&#x219;" horiz-adv-x="1026" d="M92 264q0 63 38 109.5t97 46.5q37 0 69 -5t58 -18q51 -27 97.5 -36t105.5 -13q45 -6 39 14.5t-39 28.5l-144 31q-75 16 -136.5 49t-102.5 87t-41 144q0 106 39 174t95.5 106t120 52.5t114.5 18.5h15q33 0 87 -6q68 -8 135.5 -35t118.5 -72t51 -115q0 -18 -3 -38.5 t-13 -41.5q-18 -37 -51 -52t-72 -15q-31 0 -59.5 5t-59.5 13q-33 8 -64.5 17.5t-55 11.5t-39 -3t-17.5 -24q0 -16 15.5 -24t41 -12.5t59.5 -7.5t68 -13q150 -43 213.5 -131t67.5 -193q0 -104 -48 -166.5t-112.5 -95t-131 -44t-103.5 -11.5q-61 0 -126 8t-125.5 29.5 t-107.5 54.5t-73 86q-21 41 -21 86zM360 -240q0 74 46.5 122t121.5 48q78 0 128.5 -48t50.5 -122v-239q0 -74 -50.5 -121t-126.5 -47q-74 0 -122 47t-48 121v239z" />
<glyph unicode="&#x237;" horiz-adv-x="600" d="M-240 -225q0 76 48.5 126t122 50t113.5 20.5t59.5 91t23.5 204.5t4 362v256q0 76 45 123t121 47q78 0 128 -47t50 -123v-688q0 -160 -46 -271.5t-123 -181.5t-171 -102.5t-188 -34.5q-86 0 -136.5 47t-50.5 121z" />
<glyph unicode="&#x2c6;" horiz-adv-x="937" d="M102 1518q0 39 16.5 72.5t41.5 58.5l4 2l227 196q47 41 111 41q61 0 108 -41l228 -196q2 0 2 -2q27 -25 43 -59t16 -72q0 -72 -47 -119t-119 -47q-49 0 -87 26.5t-73 61.5l-73 71l-72 -71q-35 -35 -73 -61.5t-89 -26.5q-72 0 -118 47t-46 119z" />
<glyph unicode="&#x2c7;" horiz-adv-x="931" d="M102 1724q0 72 46.5 118t117.5 46q51 0 89 -25.5t73 -60.5l72 -71l73 71q35 35 73 60.5t87 25.5q72 0 119 -46t47 -118q0 -39 -16.5 -72.5t-42.5 -58.5l-2 -2l-228 -196q-47 -43 -108 -43q-63 0 -111 43l-227 196q-4 0 -4 2q-25 25 -41.5 58.5t-16.5 72.5z" />
<glyph unicode="&#x2d8;" horiz-adv-x="931" d="M94 1817v4q0 72 50.5 123t121.5 51q51 0 93 -26.5t65 -72.5q8 -18 12 -46.5t11.5 -54.5t19.5 -43t41 -17q31 0 41 17t15 43t6 54.5t12 46.5q23 45 64.5 72t90.5 27q72 0 123 -51.5t51 -122.5v-4q0 -57 -20.5 -133t-68.5 -141.5t-123.5 -112t-188.5 -46.5t-191.5 46.5 t-129 112t-73 141.5t-22.5 133z" />
<glyph unicode="&#x2d9;" horiz-adv-x="1894" d="M655 1323q0 80 55.5 135t135.5 55q82 0 137 -55t55 -135q0 -82 -55 -137.5t-137 -55.5q-80 0 -135.5 55.5t-55.5 137.5z" />
<glyph unicode="&#x2da;" horiz-adv-x="1472" d="M535 1323q0 45 17 86t46 71.5t71 48t87 17.5t86 -17.5t71.5 -48t48 -71.5t17.5 -86q0 -47 -17.5 -88t-48 -70.5t-71.5 -47t-86 -17.5q-94 0 -157.5 64.5t-63.5 158.5zM735 1323q0 -20 21 -20q18 0 18 20q0 18 -18 18q-21 0 -21 -18z" />
<glyph unicode="&#x2db;" horiz-adv-x="522" d="M72 -145q0 37 13 60.5t28.5 42.5t28 37.5t12.5 45.5h286q0 -53 -10 -83t-25.5 -48.5t-29 -31.5t-15.5 -36q-2 -14 5.5 -19t11.5 -5q27 0 46 18.5t33.5 42t27 49t22.5 37.5q8 10 24.5 15.5t36.5 5.5q35 0 70 -17.5t47 -62.5q4 -10 4 -34t-6 -42q-20 -51 -46 -100t-65 -87 t-94 -61.5t-129 -23.5q-86 0 -140 34.5t-84 80.5t-41 97.5t-11 84.5z" />
<glyph unicode="&#x2dc;" horiz-adv-x="1054" d="M123 1157q-5 20 -5 38q0 22 7 44q8 23 21.5 45.5t30 43t34.5 37.5l33 30q41 31 100 60.5t160 29.5q45 0 91 -25.5t89 -58.5l81 -60q38 -27 69 -26q18 0 38.5 11t38 26.5t28.5 29t15 17.5q18 23 50 43t75 20q12 0 30.5 -5t38 -15t36 -27.5t24.5 -40.5q8 -18 11 -49 q1 -8 0 -15q0 -22 -5 -42q-20 -63 -69 -110.5t-108.5 -81.5t-117 -51t-92.5 -17q-37 0 -72.5 16t-69.5 40l-67 47q-33 24 -62.5 38t-58 14t-53.5 -24q-10 -6 -30 -25l-43 -39l-44.5 -37.5t-31.5 -19.5q-13 -3 -26 -3q-28 0 -53 13q-36 18 -59.5 52t-33.5 77z" />
<glyph unicode="&#x2dd;" horiz-adv-x="792" d="M86 1200q0 49 27 92l145 234q25 41 61.5 63.5t79.5 22.5t88 -26.5t68 -65.5t23 -82q0 -51 -27 -92l-143 -234q-23 -39 -60 -59.5t-82 -20.5q-53 0 -96 27q-41 25 -62.5 61.5t-21.5 79.5zM567 1190q0 47 27 90l143 236q55 84 142 83q47 0 92 -26q43 -25 65.5 -64t22.5 -84 q0 -49 -25 -90l-143 -235q-25 -39 -62.5 -59.5t-80.5 -20.5q-53 0 -97 29q-41 25 -62.5 61.5t-21.5 79.5z" />
<glyph unicode="&#x1e80;" horiz-adv-x="1918" d="M86 1219q0 49 27.5 89t76.5 62q41 16 80 16q51 0 92 -25.5t58 -74.5l205 -674l168 660q23 70 71.5 90t96.5 20q43 0 91 -20.5t72 -89.5l172 -660l203 674q16 49 58 74.5t94 25.5q41 0 78 -14q49 -23 76.5 -62.5t27.5 -88.5q0 -39 -16 -72l-359 -1049q-23 -55 -65.5 -77.5 t-96.5 -22.5q-51 2 -97 27.5t-66 74.5l-172 545l-173 -547q-25 -55 -66.5 -77.5t-96.5 -22.5q-49 2 -96.5 27.5t-65.5 74.5l-361 1047q-16 33 -16 70zM612 1878q0 45 22.5 84t65.5 63q45 27 88 27q45 0 82 -21.5t60 -62.5l145 -235q27 -43 27 -91q0 -43 -20.5 -79.5 t-61.5 -61.5q-43 -29 -98 -28q-43 0 -80 20t-62 59l-143 236q-25 41 -25 90z" />
<glyph unicode="&#x1e81;" horiz-adv-x="1484" d="M18 827q-7 30 -7 58q0 42 18 77q29 56 102 82q16 6 31.5 8.5t32.5 2.5q100 0 147 -113l211 -516l61 117l-82 286q-10 33 -15 62t-5 53q0 37 16.5 63.5t59.5 39.5q29 8 55.5 -2.5t50 -35t39 -61.5t19.5 -78q4 41 20 78t39 61.5t49.5 35t54.5 2.5q43 -12 59.5 -39t16.5 -64 q0 -25 -5 -53.5t-13 -61.5l-82 -286l59 -117l211 516q47 113 148 113q37 0 65 -11q74 -27 103 -82q17 -33 16 -73q0 -29 -8 -62l-232 -659q-14 -33 -32.5 -63.5t-47 -53t-72.5 -37t-102 -14.5q-70 0 -115.5 19.5t-74.5 43t-42 47t-15 27.5q-4 -6 -17.5 -28.5t-43 -47 t-75 -43t-110.5 -18.5q-59 0 -102.5 14.5t-73 37t-48 53t-30.5 63.5zM432 1550q0 45 22.5 84t65.5 64q45 27 88 26q45 0 82 -21.5t60 -62.5l145 -235q27 -43 27 -90q0 -43 -20.5 -80t-61.5 -61q-43 -29 -99 -29q-43 0 -79.5 20.5t-61.5 59.5l-143 235q-25 41 -25 90z" />
<glyph unicode="&#x1e82;" horiz-adv-x="1918" d="M86 1219q0 49 27.5 89t76.5 62q41 16 80 16q51 0 92 -25.5t58 -74.5l205 -674l168 660q23 70 71.5 90t96.5 20q43 0 91 -20.5t72 -89.5l172 -660l203 674q16 49 58 74.5t94 25.5q41 0 78 -14q49 -23 76.5 -62.5t27.5 -88.5q0 -39 -16 -72l-359 -1049q-23 -55 -65.5 -77.5 t-96.5 -22.5q-51 2 -97 27.5t-66 74.5l-172 545l-173 -547q-25 -55 -66.5 -77.5t-96.5 -22.5q-49 2 -96.5 27.5t-65.5 74.5l-361 1047q-16 33 -16 70zM786 1647q0 47 27 90l145 235q25 41 62 62.5t80 21.5t88 -26q45 -25 67.5 -64t22.5 -84q0 -49 -27 -90l-143 -236 q-23 -39 -59.5 -59t-81.5 -20q-53 0 -97 28q-41 25 -62.5 62t-21.5 80z" />
<glyph unicode="&#x1e83;" horiz-adv-x="1503" d="M16 827q-7 30 -7 58q0 42 18 77q29 56 102 82q16 6 31.5 8.5t32.5 2.5q100 0 147 -113l211 -516l61 117l-82 286q-10 33 -15 62t-5 53q0 37 16.5 63.5t59.5 39.5q29 8 55.5 -2.5t50 -35t38.5 -61.5t20 -78q4 41 20 78t38.5 61.5t49.5 35t55 2.5q43 -12 59.5 -39t16.5 -64 q0 -25 -5 -53.5t-13 -61.5l-82 -286l59 -117l211 516q47 113 148 113q37 0 65 -11q74 -27 103 -82q17 -33 16 -73q0 -29 -8 -62l-232 -659q-14 -33 -32.5 -63.5t-47 -53t-72.5 -37t-102 -14.5q-70 0 -115.5 19.5t-74.5 43t-42 47t-15 27.5q-4 -6 -17.5 -28.5t-43.5 -47 t-75 -43t-110 -18.5q-59 0 -102.5 14.5t-73 37t-48 53t-30.5 63.5zM559 1315q0 47 27 90l145 235q25 41 61.5 62.5t79.5 21.5t89 -26q45 -25 67.5 -64t22.5 -84q0 -49 -27 -90l-143 -235q-23 -39 -60 -59.5t-82 -20.5q-53 0 -96 29q-41 25 -62.5 61.5t-21.5 79.5z" />
<glyph unicode="&#x1e84;" horiz-adv-x="1918" d="M86 1219q0 49 27.5 89t76.5 62q41 16 80 16q51 0 92 -25.5t58 -74.5l205 -674l168 660q23 70 71.5 90t96.5 20q43 0 91 -20.5t72 -89.5l172 -660l203 674q16 49 58 74.5t94 25.5q41 0 78 -14q49 -23 76.5 -62.5t27.5 -88.5q0 -39 -16 -72l-359 -1049q-23 -55 -65.5 -77.5 t-96.5 -22.5q-51 2 -97 27.5t-66 74.5l-172 545l-173 -547q-25 -55 -66.5 -77.5t-96.5 -22.5q-49 2 -96.5 27.5t-65.5 74.5l-361 1047q-16 33 -16 70zM518 1671q0 80 56.5 136.5t136.5 56.5t136 -56.5t56 -136.5q0 -82 -56 -138t-136 -56t-136.5 56t-56.5 138zM1004 1671 q0 80 56 136.5t136 56.5q82 0 138.5 -56.5t56.5 -136.5q0 -82 -56.5 -138t-138.5 -56q-80 0 -136 56t-56 138z" />
<glyph unicode="&#x1e85;" horiz-adv-x="1476" d="M8 827q-7 30 -7 58q0 42 17 77q29 56 103 82q16 6 31.5 8.5t31.5 2.5q100 0 148 -113l211 -516l61 117l-82 286q-10 33 -15 62t-5 53q0 37 16.5 63.5t59.5 39.5q29 8 55 -2.5t50 -35t39 -61.5t19 -78q4 41 20.5 78t39 61.5t49.5 35t55 2.5q43 -12 59.5 -39t16.5 -64 q0 -25 -5 -53.5t-13 -61.5l-82 -286l59 -117l211 516q47 113 147 113q37 0 66 -11q74 -27 102 -82q17 -33 17 -73q0 -29 -8 -62l-232 -659q-14 -33 -32.5 -63.5t-47 -53t-72.5 -37t-102 -14.5q-70 0 -116 19.5t-74.5 43t-42 47t-15.5 27.5q-4 -6 -17 -28.5t-43 -47t-75 -43 t-110 -18.5q-59 0 -102.5 14.5t-73 37t-48 53t-30.5 63.5zM303 1386q0 80 56.5 136.5t136 56.5t136 -56.5t56.5 -136.5q0 -82 -56.5 -138t-136 -56t-136 56t-56.5 138zM788 1386q0 80 56.5 136.5t136.5 56.5q82 0 138.5 -56.5t56.5 -136.5q0 -82 -56.5 -138t-138.5 -56 q-80 0 -136.5 56t-56.5 138z" />
<glyph unicode="&#x1ef2;" horiz-adv-x="1150" d="M76 1210q0 43 20.5 81t59.5 63q45 31 98 30q41 0 78 -19t63 -56l176 -322l187 322q27 37 63.5 56t77.5 19q53 0 98 -30q39 -25 59.5 -63t20.5 -81q0 -45 -30 -92l-304 -473v-475q0 -74 -50 -122t-126 -48q-74 0 -122 48t-48 122v475l-291 473q-30 47 -30 92zM221 1882 q0 45 22.5 84t65.5 64q45 27 88 26q45 0 82 -21.5t60 -62.5l145 -235q27 -43 27 -90q0 -43 -20.5 -80t-61.5 -62q-43 -29 -99 -28q-43 0 -79.5 20.5t-61.5 58.5l-143 236q-25 41 -25 90z" />
<glyph unicode="&#x1ef3;" horiz-adv-x="1058" d="M72 885q0 55 30.5 95t85.5 60q37 10 64 11q49 0 91 -29t65 -84l137 -365l104 365q18 53 60.5 84t93.5 31q25 0 61 -11q55 -20 88 -60t33 -97q0 -25 -10 -62l-357 -1106q-18 -51 -61 -80.5t-94 -29.5q-18 0 -33.5 2t-32.5 8q-55 20 -84.5 61t-29.5 95q0 27 10 59l92 285 l-303 706q-10 37 -10 62zM201 1550q0 45 22.5 84t65.5 64q45 27 88 26q45 0 82 -21.5t59 -62.5l146 -235q27 -43 26 -90q0 -43 -20.5 -80t-61.5 -61q-43 -29 -98 -29q-43 0 -80 20.5t-61 59.5l-144 235q-24 41 -24 90z" />
<glyph unicode="&#x2000;" horiz-adv-x="1044" />
<glyph unicode="&#x2001;" horiz-adv-x="2088" />
<glyph unicode="&#x2002;" horiz-adv-x="1044" />
<glyph unicode="&#x2003;" horiz-adv-x="2088" />
<glyph unicode="&#x2004;" horiz-adv-x="696" />
<glyph unicode="&#x2005;" horiz-adv-x="522" />
<glyph unicode="&#x2006;" horiz-adv-x="348" />
<glyph unicode="&#x2007;" horiz-adv-x="348" />
<glyph unicode="&#x2008;" horiz-adv-x="260" />
<glyph unicode="&#x2009;" horiz-adv-x="417" />
<glyph unicode="&#x200a;" horiz-adv-x="114" />
<glyph unicode="&#x2010;" horiz-adv-x="1005" d="M102 674q0 74 47.5 121t120.5 47h465q74 0 122 -51.5t48 -116.5q0 -74 -48 -125t-122 -51h-465q-74 0 -121 50t-47 126z" />
<glyph unicode="&#x2011;" horiz-adv-x="1005" d="M102 674q0 74 47.5 121t120.5 47h465q74 0 122 -51.5t48 -116.5q0 -74 -48 -125t-122 -51h-465q-74 0 -121 50t-47 126z" />
<glyph unicode="&#x2012;" horiz-adv-x="1005" d="M102 674q0 74 47.5 121t120.5 47h465q74 0 122 -51.5t48 -116.5q0 -74 -48 -125t-122 -51h-465q-74 0 -121 50t-47 126z" />
<glyph unicode="&#x2013;" horiz-adv-x="1005" d="M102 676q0 74 47.5 121t120.5 47h467q74 0 122 -50.5t48 -117.5q0 -74 -48 -125t-122 -51h-467q-74 0 -121 50t-47 126z" />
<glyph unicode="&#x2014;" horiz-adv-x="1212" d="M102 674q0 74 47.5 121t120.5 47h676q74 0 122 -51.5t48 -116.5q0 -74 -48 -125t-122 -51h-676q-74 0 -121 50t-47 126z" />
<glyph unicode="&#x2018;" horiz-adv-x="684" d="M92 1260q0 43 22.5 81.5t65.5 65.5q45 27 88 27q45 0 82 -22.5t60 -63.5l145 -234q27 -43 27 -92q0 -43 -20.5 -80t-61.5 -61q-43 -27 -99 -27q-43 0 -79.5 20.5t-61.5 59.5l-143 233q-25 42 -25 93z" />
<glyph unicode="&#x2019;" horiz-adv-x="679" d="M88 1024q0 49 27 92l145 234q25 41 61.5 63.5t79.5 22.5t91 -27q43 -27 65.5 -65.5t22.5 -81.5q0 -51 -27 -93l-143 -233q-23 -39 -60 -59.5t-82 -20.5q-53 0 -96 27q-41 25 -62.5 61.5t-21.5 79.5z" />
<glyph unicode="&#x201a;" horiz-adv-x="507" d="M98 -287v9q0 7 2 33t5.5 80l9.5 151q4 55 45 93t96 38q59 0 100 -41t41 -101q0 -10 -3 -23t-16 -43t-39 -82l-73 -142q-27 -57 -82 -58q-37 0 -61.5 24.5t-24.5 61.5z" />
<glyph unicode="&#x201c;" horiz-adv-x="1187" d="M111 1036q0 47 26 90l146 236q23 41 60.5 62.5t80.5 21.5t88 -27q43 -25 66.5 -64.5t23.5 -82.5q0 -49 -27 -90l-143 -236q-25 -39 -61.5 -59.5t-79.5 -20.5q-53 0 -98 29q-41 23 -61.5 59.5t-20.5 81.5zM590 1024q0 49 28 92l144 234q55 86 141 86q45 0 90 -27 t67.5 -65.5t22.5 -81.5q0 -51 -26 -93l-144 -233q-23 -39 -60.5 -59.5t-82.5 -20.5q-51 0 -94 27q-41 25 -63.5 61.5t-22.5 79.5z" />
<glyph unicode="&#x201d;" horiz-adv-x="1193" d="M111 1262q0 43 22.5 81.5t67.5 65.5t90 27q86 0 141 -86l143 -234q29 -43 29 -92q0 -43 -22.5 -80t-63.5 -61q-43 -27 -94 -27q-43 0 -82 20.5t-61 59.5l-144 233q-26 42 -26 93zM592 1272q0 43 23.5 83t66.5 64q45 27 88 27q45 0 82 -21.5t59 -62.5l146 -236 q27 -43 26 -90q0 -45 -20.5 -81.5t-61.5 -59.5q-45 -29 -98 -29q-43 0 -80 20.5t-61 59.5l-144 236q-26 41 -26 90z" />
<glyph unicode="&#x201e;" horiz-adv-x="870" d="M86 -326q0 6 3 33t6 81t9 149q4 57 44 95t97.5 38t99.5 -41t42 -101q0 -10 -3 -23.5t-16.5 -44t-39.5 -82.5l-72 -140q-29 -59 -82 -60q-37 0 -62.5 25.5t-25.5 62.5v8zM475 -324q0 6 2 33t5 81t12 149q4 57 44 95t97 38t98 -41t41 -101q0 -10 -3 -23.5t-15.5 -44 t-38.5 -81.5l-72 -141q-29 -59 -82 -60q-37 0 -62.5 25.5t-25.5 62.5v8z" />
<glyph unicode="&#x2020;" horiz-adv-x="897" d="M47 858q0 74 48 121t122 47h59v252q0 74 49.5 122t125 48t123 -48t47.5 -122v-252h63q74 0 122 -50t48 -118q0 -74 -48 -125t-122 -51h-63v-864q0 -74 -50.5 -122t-126.5 -48q-74 0 -121 48t-47 122v864h-59q-74 0 -122 50t-48 126z" />
<glyph unicode="&#x2021;" horiz-adv-x="929" d="M49 477q0 74 48 122t122 48h66v184h-60q-74 0 -121 50.5t-47 126.5q0 74 47.5 122t120.5 48h60v100q0 74 50 122t126 48q74 0 121 -48t47 -122v-100h63q74 0 122 -51.5t48 -118.5q0 -74 -48 -125.5t-122 -51.5h-63v-184h35q74 0 122 -51t48 -119q0 -74 -48.5 -125 t-121.5 -51h-35v-483q0 -74 -49.5 -122t-124.5 -48q-74 0 -122 48t-48 122v483h-66q-74 0 -122 50t-48 126z" />
<glyph unicode="&#x2022;" horiz-adv-x="661" d="M84 526q0 49 19.5 93.5t52 77t78 52t94.5 19.5t94 -19.5t77.5 -52t52 -77t19.5 -93.5q0 -51 -19.5 -95t-52 -76.5t-77.5 -52t-94 -19.5t-94.5 19.5t-78 52t-52 76.5t-19.5 95z" />
<glyph unicode="&#x2026;" horiz-adv-x="1468" d="M100 193q0 82 56.5 138t136.5 56t136 -56.5t56 -137.5q0 -80 -56 -136.5t-136 -56.5t-136.5 56.5t-56.5 136.5zM551 193q0 82 56.5 138t137.5 56q80 0 136.5 -56.5t56.5 -137.5q0 -80 -56.5 -136.5t-136.5 -56.5q-82 0 -138 56.5t-56 136.5zM993 193q0 82 57.5 138 t137.5 56t136 -56.5t56 -137.5q0 -80 -56 -136.5t-136 -56.5t-137.5 56.5t-57.5 136.5z" />
<glyph unicode="&#x202f;" horiz-adv-x="417" />
<glyph unicode="&#x2030;" horiz-adv-x="2336" d="M74 1130q0 66 23.5 123.5t66.5 100.5t101.5 68.5t125.5 27.5q63 0 119.5 -24.5t99.5 -69.5t69 -102.5t26 -123.5q0 -61 -25 -119.5t-67 -100.5t-100 -66.5t-123.5 -24.5t-122 23.5t-100.5 64.5t-68.5 98t-24.5 125zM352 1133q0 -14 10.5 -25.5t26.5 -11.5t26.5 11 t10.5 26q0 37 -37 36q-16 0 -26.5 -9t-10.5 -27zM477 219l348 1104q20 68 84 99q39 19 80 20q26 0 53 -8q70 -25 103 -84q19 -35 19 -74q0 -27 -9 -55l-348 -1104q-23 -70 -85 -101q-36 -18 -75 -17q-29 0 -59 9q-70 23 -101 82q-18 36 -18 75q0 26 8 54zM971 311 q0 63 23.5 122t65.5 100.5t101.5 67.5t126.5 28q61 0 117.5 -24.5t100.5 -68.5t70 -102.5t26 -122t-25 -121t-67 -100.5t-101 -67.5t-123 -24.5q-66 0 -122 23.5t-100 65.5t-68.5 99t-24.5 125zM1249 313.5q0 -16.5 10.5 -27t27 -10.5t26.5 10.5t10 26.5q0 37 -37 37 q-16 0 -26.5 -10t-10.5 -26.5zM1630 313q0 63 23.5 122t66.5 101t101.5 67.5t126.5 27.5q63 0 119.5 -24.5t99.5 -68.5t69.5 -102.5t26.5 -122t-25.5 -121t-67.5 -100.5t-100.5 -67.5t-124 -24.5t-122 23.5t-100.5 65.5t-68.5 99t-24.5 125zM1909 315.5q0 -16.5 10 -26.5 t26.5 -10t26.5 10t10 26q0 37 -36 37q-16 0 -26.5 -10t-10.5 -26.5z" />
<glyph unicode="&#x2039;" horiz-adv-x="827" d="M76 514q0 61 41 109l313 344q0 2 2 2q25 25 57.5 41t73.5 16q72 0 118 -46t46 -118q0 -51 -25.5 -89t-60.5 -73l-186 -188l188 -188q35 -35 60.5 -73t25.5 -87q0 -72 -46 -119t-118 -47q-39 0 -72.5 16.5t-58.5 42.5q-2 0 -85 87t-232 259q-41 48 -41 111z" />
<glyph unicode="&#x203a;" horiz-adv-x="817" d="M76 164q0 49 26.5 87t61.5 73l188 188l-186 188q-35 35 -61.5 73t-26.5 89q0 72 47 118t119 46q39 0 72.5 -16.5t56.5 -40.5l2 -2l313 -344q41 -47 41 -109q0 -63 -41 -111q-150 -172 -232.5 -259t-84.5 -87q-23 -27 -56.5 -43t-72.5 -16q-72 0 -119 47t-47 119z" />
<glyph unicode="&#x2044;" horiz-adv-x="854" d="M84 219l348 1104q23 68 85 99q38 19 79 20q26 0 53 -8q70 -25 103 -84q19 -35 19 -74q0 -27 -9 -55l-348 -1104q-23 -70 -85 -101q-36 -18 -75 -17q-29 0 -59 9q-70 23 -101 82q-18 36 -18 75q0 26 8 54z" />
<glyph unicode="&#x205f;" horiz-adv-x="522" />
<glyph unicode="&#x20ac;" horiz-adv-x="1224" d="M82 535q0 47 31.5 78.5t79.5 31.5h45v68h-45q-47 0 -79 31.5t-32 80.5q0 47 31.5 79t79.5 32h45q8 106 50 192t109.5 146.5t155.5 94.5t186 34q131 0 243 -55.5t177 -161.5q35 -47 35 -105q0 -72 -48 -116.5t-120 -44.5q-37 0 -61 22l-52 49q-16 16 -55 44t-119 28 q-8 0 -30.5 -2t-48 -13.5t-50 -38t-30.5 -73.5h159q49 0 81 -34t32 -77q0 -45 -32 -78.5t-81 -33.5h-159v-68h159q49 0 81 -33.5t32 -76.5q0 -47 -32 -80t-81 -33h-157q8 -49 30.5 -73.5t47 -37t48 -14.5t37.5 -2q59 0 113.5 23.5t79.5 52.5q27 29 52.5 47t62.5 18 q72 0 106.5 -39t34.5 -110q0 -59 -35 -105q-70 -100 -179.5 -153.5t-240.5 -53.5q-96 0 -184 34t-154.5 94.5t-109.5 141.5t-51 177h-47q-47 0 -79 32t-32 81z" />
<glyph unicode="&#x2122;" horiz-adv-x="2367" d="M96 1221q0 74 47 121t121 47h551q74 0 121 -49.5t47 -125t-47 -123t-121 -47.5h-102v-284q0 -74 -50.5 -122t-125.5 -48q-74 0 -122 48t-48 122v284h-103q-74 0 -121 50.5t-47 126.5zM967 756v155q0 233 106.5 356.5t304.5 123.5q150 0 240 -50q94 49 244 50 q215 0 308 -124t93 -358v-153q0 -82 -51 -126t-125 -44q-76 0 -123 48t-47 122v188q-2 63 -12.5 100t-51.5 37q-43 0 -55 -37.5t-14 -99.5v-188q0 -47 -13.5 -79t-38 -51.5t-53 -28.5t-57.5 -11h-6q-86 0 -131 44t-45 126v192q0 59 -10.5 96t-51.5 37t-54 -36.5t-13 -100.5 v-188q0 -74 -46 -122t-122 -48q-74 0 -125 44t-51 126z" />
<glyph unicode="&#x2212;" horiz-adv-x="1005" d="M102 680q0 74 47.5 121t120.5 47h482q74 0 114.5 -50t40.5 -118q0 -74 -48 -125t-122 -51h-467q-74 0 -121 50t-47 126z" />
<glyph unicode="&#xe000;" horiz-adv-x="1055" d="M0 1055h1055v-1055h-1055v1055z" />
<glyph unicode="&#xfb01;" horiz-adv-x="1263" d="M59 920q0 63 47.5 101t120.5 38v20q0 73 27 126q31 60 75 99t92 59.5t79 25.5q41 8 98 8q78 0 135.5 -36t57.5 -108q0 -63 -47.5 -98t-122.5 -35q-31 0 -39.5 -20.5t-8.5 -44.5h435q76 -4 124 -51.5t48 -118.5v-715q0 -74 -50.5 -122t-125.5 -48q-74 0 -122 48t-48 122 v610h-261v-612q0 -74 -46 -122q-45 -48 -121 -48q-78 0 -128.5 48t-50.5 122v606q-74 0 -121 35t-47 111zM825 1237q0 68 51.5 113t129 45t131 -45t53.5 -113q0 -66 -53.5 -108t-131 -42t-129 42t-51.5 108z" />
<glyph unicode="&#xfb02;" horiz-adv-x="1247" d="M59 926q0 61 47.5 97t120.5 36q-1 16 -1 30q0 69 24 120q29 62 70.5 102.5t91 59t88.5 18.5l485 -3q74 0 125 -43t51 -124v-1049q0 -74 -50 -122t-126 -48q-74 0 -121 48t-47 122v942h-199q-37 0 -41 -18.5t-4 -34.5h52q74 -2 122 -35t48 -109q0 -74 -48.5 -104.5 t-121.5 -30.5h-52v-612q0 -74 -46 -122t-121 -48q-78 0 -128.5 48t-50.5 122v612q-74 0 -121 34t-47 112z" />
<glyph horiz-adv-x="641" />
<glyph horiz-adv-x="1579" d="M88 164q0 49 26.5 87t61.5 73l189 188l-187 188q-35 35 -60.5 73t-25.5 89q0 72 46 118t118 46q39 0 72.5 -16.5t58.5 -40.5l2 -2l311 -344q43 -47 43 -109q0 -63 -43 -111l-231.5 -259t-83.5 -87q-25 -27 -58.5 -43t-72.5 -16q-72 0 -119 47t-47 119zM842 164 q0 49 26.5 87t61.5 73l188 188l-186 188q-35 35 -61.5 73t-26.5 89q0 72 47 118t119 46q39 0 72.5 -16.5t56.5 -40.5l4 -2l311 -344q41 -47 41 -109q0 -63 -41 -111q-150 -172 -232.5 -259t-84.5 -87q-23 -27 -56.5 -43t-72.5 -16q-72 0 -119 47t-47 119z" />
<glyph horiz-adv-x="0" />
<glyph horiz-adv-x="729" d="M297 -293q0 74 46 122t122 48q78 0 128 -48t50 -122v-239q0 -74 -50 -121t-126 -47q-74 0 -122 47t-48 121v239z" />
<glyph horiz-adv-x="729" d="M297 57q0 74 46 121t122 47q78 0 128 -47t50 -121v-239q0 -74 -50 -122t-126 -48q-74 0 -122 48t-48 122v239z" />
</font>
</defs>
</svg>
