<?xml version="1.0" standalone="no"?>
<!DOCTYPE svg PUBLIC "-//W3C//DTD SVG 1.1//EN" "http://www.w3.org/Graphics/SVG/1.1/DTD/svg11.dtd" >
<svg xmlns="http://www.w3.org/2000/svg">
<metadata>
This is a custom SVG webfont generated by Font Squirrel.
Copyright   : Copyright c 2010 by Studio Kmzero All rights reserved
Designer    : Francesco Canovaro Cosimo Lorenzo Pancini Katiuscia Mari Matteo Di Iorio
Foundry     : Studio Kmzero
Foundry URL : wwwzerofontscom
</metadata>
<defs>
<font id="AntipastoExtraLight" horiz-adv-x="1220" >
<font-face units-per-em="2048" ascent="1638" descent="-410" />
<missing-glyph horiz-adv-x="270" />
<glyph unicode=" "  horiz-adv-x="270" />
<glyph unicode="&#x09;" horiz-adv-x="270" />
<glyph unicode="&#xa0;" horiz-adv-x="270" />
<glyph unicode="!" horiz-adv-x="329" d="M102 57q0 23 16.5 40.5t39.5 17.5q25 0 42 -17.5t17 -40.5q0 -25 -17.5 -41t-41.5 -16q-23 0 -39.5 16t-16.5 41zM123 389v983q0 35 35 35t35 -35v-983q0 -35 -35 -35t-35 35z" />
<glyph unicode="&#x22;" horiz-adv-x="473" d="M104 1081v379q0 16 10.5 26.5t26.5 10.5q14 0 24.5 -10t12.5 -27v-379q0 -16 -10 -26.5t-26.5 -10.5t-27 10.5t-10.5 26.5zM283 1081v379q0 16 10 26.5t26 10.5q14 0 24.5 -10t12.5 -27v-379q0 -16 -10 -26.5t-26.5 -10.5t-26.5 10.5t-10 26.5z" />
<glyph unicode="#" horiz-adv-x="1372" d="M66 508q0 14 10 25.5t26 11.5h248l127 399h-221q-14 0 -25.5 11.5t-11.5 25.5q0 16 11.5 26.5t25.5 10.5h250l77 238l41 124q13 39 15 47l2 9q4 14 17 20q8 4 17 4q6 0 11 -2q14 -4 21.5 -18.5t3.5 -26.5l-127 -395h422l73 238l39 124q12 39 15 47l2 9q4 14 17 20 q8 4 17 4q6 0 13 -2q14 -4 20 -18.5t2 -26.5l-121 -395h203q14 0 25.5 -10.5t11.5 -26.5q0 -14 -11.5 -25.5t-25.5 -11.5h-231l-125 -399h209q16 0 27.5 -11.5t11.5 -25.5t-11.5 -25.5t-27.5 -11.5h-240l-143 -442q-4 -18 -19 -26q-9 -5 -17 -4q-5 0 -9 1q-16 4 -22.5 18.5 t-2.5 28.5l137 424h-424l-69 -222l-74 -220q-4 -18 -18 -26q-9 -5 -19 -4l-10 1q-14 4 -20.5 18.5t-2.5 26.5l2 8q2 8 16 48l40 126l80 244h-222q-16 0 -26 11.5t-10 25.5zM426 543l426 2l127 399h-426z" />
<glyph unicode="$" horiz-adv-x="1044" d="M93 255q11 15 30 15q25 0 35 -16q20 -41 60 -74t88 -56.5t98.5 -37.5t93.5 -18v675q-66 18 -133.5 47t-123 67t-90 85t-34.5 109q0 72 33.5 131t88 103t123 68.5t136.5 28.5v138q0 35 34.5 34.5t34.5 -34.5v-138q82 -6 173 -47t161 -127q18 -25 -1 -44t-37.5 -15 t-24.5 16q-61 86 -135 116t-136 34v-520q90 -37 162 -74t122 -83t75.5 -103.5t25.5 -135t-30.5 -146.5t-84 -122t-124 -87t-146.5 -42v-108q0 -35 -34.5 -35t-34.5 35v106q-59 2 -121 18.5t-117 45t-100 67.5t-66 84q-6 13 -6 23t5 17zM190 1051q0 -43 30 -79t74 -63.5 t98 -49t106 -38.5v494q-51 -4 -105.5 -20.5t-98.5 -47t-74 -79.5t-30 -117zM567 70q61 6 119.5 34.5t103 72.5t70 100.5t25.5 122t-24.5 114.5t-66.5 87t-100.5 65.5t-126.5 54.5v-651z" />
<glyph unicode="%" horiz-adv-x="1433" d="M74 1171q0 61 23.5 115.5t65.5 94.5t96 63.5t114 23.5q61 0 115.5 -23.5t95.5 -63.5t65.5 -94t24.5 -116q0 -59 -24.5 -113t-65.5 -96t-95.5 -66t-115.5 -24q-59 0 -113.5 24t-96.5 66t-65.5 96t-23.5 113zM147 1171.5q0 -47.5 17.5 -88.5t48.5 -72.5t72 -50t88 -18.5 q49 0 90 18.5t71.5 50t48 72.5t17.5 88.5t-17.5 88t-48 71.5t-71.5 49.5t-90 18.5q-47 0 -88 -18.5t-72 -49.5t-48.5 -71.5t-17.5 -88zM449 43l466 1393q10 25 33 24q12 0 24.5 -10t6.5 -29l-459 -1396q-4 -18 -15 -22.5t-22 -4.5q-16 0 -28 14q-8 10 -9 20q1 6 3 11z M780 297q0 61 23.5 114.5t64.5 93.5t95.5 62.5t115.5 22.5q59 0 114.5 -22.5t96.5 -62.5t64.5 -93.5t23.5 -114.5q0 -59 -23.5 -113.5t-64.5 -96.5t-96 -65.5t-115 -23.5q-61 0 -115.5 23.5t-95.5 65.5t-64.5 96.5t-23.5 113.5zM854 297q0 -47 17.5 -88t47 -73t71.5 -50 t89 -18t88 18t72 50t48.5 73t17.5 88q0 45 -17.5 87t-48.5 71.5t-72 48t-88 18.5t-89 -18.5t-71.5 -48t-47 -71.5t-17.5 -87z" />
<glyph unicode="&#x26;" horiz-adv-x="1249" d="M82 375q0 104 59.5 197.5t159.5 158.5q-43 27 -79 63.5t-60.5 81t-38.5 92.5t-14 93q0 74 29.5 141.5t77.5 116.5t114.5 77.5t142.5 28.5q74 0 141.5 -28.5t116.5 -77.5t78 -116.5t29 -141.5q0 -63 -26 -128t-76 -117t-122.5 -85t-169.5 -35l430 -385l216 201 q10 10 26 10q35 0 35 -35q0 -10 -8 -22l-4 -2l-209 -203l217 -203q10 -12 10 -26q0 -35 -35 -35q-14 0 -26 10l-222 205q-70 -63 -126 -106.5t-102 -70t-89 -37.5t-84 -11q-80 0 -150.5 30.5t-124 84t-85 124t-31.5 150.5zM152 375q0 -66 25.5 -125.5t68.5 -102.5t101 -68.5 t126 -25.5q78 0 160 53.5t190 153.5l-467 422q-94 -47 -149 -128t-55 -179zM178 1061q0 -61 21.5 -113.5t60.5 -91.5t93.5 -63.5t119.5 -26.5q63 0 116.5 22.5t92.5 62.5t61.5 94t22.5 116q0 63 -22.5 117.5t-61.5 93.5t-92 61.5t-116.5 22.5t-118 -22.5t-93.5 -61.5 t-61.5 -93.5t-22.5 -117.5z" />
<glyph unicode="'" horiz-adv-x="342" d="M131 1083v359q0 12 9.5 22.5t27.5 10.5q16 0 26.5 -10.5t10.5 -22.5v-359q0 -12 -11.5 -23t-27.5 -11q-18 0 -26.5 11t-8.5 23z" />
<glyph unicode="(" horiz-adv-x="608" d="M96 150v1112q0 74 29 142.5t80 121.5t118.5 83.5t143.5 30.5q16 0 29.5 -9t13.5 -25q0 -12 -11.5 -23.5t-23.5 -11.5q-66 0 -122 -24.5t-98 -66.5t-65.5 -98.5t-23.5 -119.5v-1112q0 -63 23.5 -120t65.5 -99t98.5 -66.5t121.5 -24.5q12 0 23.5 -11t11.5 -24 q0 -16 -11.5 -25t-23.5 -9q-78 0 -146.5 29.5t-120.5 80.5t-82 121t-30 148z" />
<glyph unicode=")" horiz-adv-x="610" d="M78 1606q0 35 43 34q76 0 143.5 -30.5t117.5 -83.5t80 -122t30 -142v-1112q0 -78 -31 -148t-83 -121t-121 -80.5t-146 -29.5q-12 0 -22.5 9t-10.5 25q0 12 10 23.5t23 11.5q66 0 122 24.5t98 66.5t66.5 98.5t24.5 120.5v1112q0 63 -24.5 119.5t-66.5 98.5t-98.5 66.5 t-121.5 24.5q-12 0 -22.5 11.5t-10.5 23.5z" />
<glyph unicode="*" horiz-adv-x="673" d="M94 1137q0 9 4 15q6 7 17 13l159 92l-159 91q-18 8 -19 30q0 25 18.5 29t30.5 -2l156 -96v186q0 18 11.5 27.5t23.5 9.5q14 0 23.5 -9.5t9.5 -27.5v-188l159 96q10 6 28.5 3t18.5 -26q0 -18 -20 -28l-158 -95l162 -90q12 -6 15 -15q2 -6 2 -11q0 -3 -1 -6 q-4 -18 -19 -25.5t-30 2.5l-157 86v-180q0 -12 -9.5 -22.5t-23.5 -10.5q-16 0 -25.5 10.5t-9.5 22.5v180l-160 -90q-20 -12 -32 -1q-15 13 -15 30z" />
<glyph unicode="+" horiz-adv-x="909" d="M51 684q0 12 10.5 23.5t22.5 11.5h324v328q0 14 11 22t24.5 8t23.5 -8t10 -22v-328h326q14 0 24.5 -11.5t10.5 -23.5q0 -16 -10.5 -25.5t-24.5 -9.5h-326v-325q0 -12 -9 -23.5t-26 -11.5q-12 0 -23 8t-11 27v325h-324q-12 0 -22.5 9.5t-10.5 25.5z" />
<glyph unicode="," horiz-adv-x="342" d="M131 51q0 16 9.5 28.5t27.5 12.5q16 0 26.5 -12t10.5 -29v-354q0 -14 -10.5 -24.5t-26.5 -10.5t-26.5 9.5t-10.5 25.5v354z" />
<glyph unicode="-" horiz-adv-x="1005" d="M102 686q0 12 9.5 23.5t25.5 11.5h715q16 0 27.5 -11.5t11.5 -23.5q0 -35 -39 -35h-715q-35 0 -35 35z" />
<glyph unicode="." horiz-adv-x="348" d="M119 57q0 23 16.5 40.5t41 17.5t40.5 -17.5t16 -40.5q0 -25 -16 -41t-40.5 -16t-41 16t-16.5 41z" />
<glyph unicode="/" horiz-adv-x="667" d="M63 41l451 1397q4 10 13.5 16t19.5 6q16 0 26 -9q7 -7 8 -19q0 -5 -1 -11l-445 -1396q-4 -16 -14 -21.5t-19 -5.5q-18 0 -30.5 13.5t-8.5 29.5z" />
<glyph unicode="0" horiz-adv-x="1550" d="M84 700q0 145 55.5 273.5t151.5 224.5t224 152.5t271 56.5q145 0 273.5 -56.5t223.5 -152.5t151.5 -224t56.5 -274q0 -143 -56.5 -271t-151.5 -223t-223 -150.5t-274 -55.5q-143 0 -271 55.5t-224 150.5t-151.5 223t-55.5 271zM158 700q0 -131 49 -246.5t134 -200.5 t198.5 -134t246.5 -49q131 0 248 49t203 134t135 200.5t49 246.5q0 133 -49 249t-135 202t-202.5 136t-248.5 50q-133 0 -246.5 -50t-198.5 -136t-134 -202t-49 -249z" />
<glyph unicode="1" horiz-adv-x="550" d="M80 1202q0 20 18 31l240 153q29 23 47 23q37 0 37 -33v-1341q0 -35 -35 -35t-35 35v1278l-215 -139q-12 -6 -22 -7q-35 0 -35 35z" />
<glyph unicode="2" horiz-adv-x="1052" d="M102 26.5q0 26.5 27 53.5l516 489q74 72 124 129.5t79 107.5t42 95t13 96q0 74 -24.5 137.5t-69.5 110.5t-108.5 72.5t-143.5 25.5q-57 0 -111.5 -17t-99.5 -50t-76.5 -77t-48.5 -97q-8 -33 -35 -33q-35 0 -34 33q0 45 28.5 99t82.5 100.5t131 79t173 32.5 q84 0 158 -30.5t129 -86t87 -133.5t32 -174q0 -106 -51.5 -206.5t-163.5 -200.5l-551 -512h729q14 0 24.5 -11.5t10.5 -23.5t-10.5 -23.5t-24.5 -11.5h-784q-50 0 -50 26.5z" />
<glyph unicode="3" horiz-adv-x="1026" d="M78 412q0 35 34.5 34.5t34.5 -34.5q0 -76 29 -139.5t76 -112.5t112.5 -76t141.5 -27q74 0 140.5 27t114.5 76t76.5 112.5t28.5 139.5q0 70 -31.5 133t-82 111.5t-111.5 78t-125 33.5h-10q-35 0 -35 37q0 16 10.5 26.5t24.5 10.5h8q51 2 95 22.5t77 53t52.5 76.5t19.5 93 q0 55 -19.5 100.5t-53.5 80.5t-81 54t-98 19t-97.5 -20.5t-79 -54t-52 -78.5t-19.5 -98q0 -33 -37 -33q-35 0 -35 33q0 66 26 124t69 103t101 69.5t123.5 24.5t124 -25.5t101.5 -69.5t69.5 -103.5t26.5 -125.5q0 -76 -42 -148.5t-111 -131.5q47 -25 94 -60.5t84 -85 t60.5 -109.5t23.5 -140q0 -86 -35 -163t-93 -136.5t-137 -92t-165 -32.5t-165 32.5t-137.5 92t-92 136.5t-33.5 163z" />
<glyph unicode="4" horiz-adv-x="993" d="M74 395q0 8 4 21.5t22 38.5l582 942q6 14 23 14q14 0 26 -7t12 -34v-958h129q35 0 35 -35q0 -12 -9 -23.5t-26 -11.5h-129v-303q0 -16 -11 -24.5t-24.5 -8.5t-23.5 8.5t-10 24.5v303h-555q-18 0 -31.5 16.5t-13.5 36.5zM158 412h516v839z" />
<glyph unicode="5" horiz-adv-x="1081" d="M82 262q0 35 35 35q18 0 33 -21q61 -92 150 -149t202 -57q84 0 158.5 32.5t129 89t86 129t31.5 154.5q0 80 -31.5 152.5t-86 128t-129 88.5t-158.5 33q-4 0 -39 -4.5t-81 -16.5t-90 -32.5t-67 -53.5q-33 -47 -55 -47q-18 0 -23.5 11t-3.5 24l103 616q4 25 12 31t21 6h573 q14 0 23.5 -11t9.5 -24q0 -35 -33 -35h-539l-82 -469q72 41 143.5 57.5t127.5 16.5q98 0 184 -38t150.5 -101.5t102.5 -149.5t38 -182q0 -98 -38 -184t-102.5 -150.5t-150.5 -102.5t-184 -38q-70 0 -131.5 19.5t-114.5 53t-96 77t-72 92.5q-6 8 -6 20z" />
<glyph unicode="6" horiz-adv-x="1067" d="M70 463q0 72 23.5 138.5t64.5 129.5l424 664q8 16 30 16q25 0 32 -17.5t-1 -31.5l-311 -485q41 25 94 33t100 8q94 0 178 -36t146.5 -97.5t99.5 -145.5t37 -176q0 -96 -37 -179t-99.5 -146.5t-146 -100.5t-178 -37t-178.5 37t-145.5 100.5t-97 146.5t-35.5 179zM139 461 q0 -84 29 -156t81 -123t122.5 -81.5t154.5 -30.5q82 0 154 30.5t125 81.5t83 123t30 156q0 80 -30 151.5t-83 123.5t-125 82t-154 30q-84 0 -154.5 -30t-122.5 -82t-81 -123.5t-29 -151.5z" />
<glyph unicode="7" horiz-adv-x="909" d="M66 1374q0 12 9 23.5t25 11.5h686q31 0 34 -18q1 -6 1 -13q0 -13 -4 -26l-301 -664l-299 -663q-10 -25 -35 -25q-35 0 -35 35q0 6 5 18l577 1286h-629q-34 0 -34 35z" />
<glyph unicode="8" horiz-adv-x="1017" d="M82 420q0 117 51 218t162 171q-63 59 -89 132t-26 146q0 66 24.5 125.5t68.5 103.5t102.5 69.5t124 25.5t124 -25.5t101.5 -69.5t69.5 -103.5t26.5 -125.5q0 -74 -31.5 -147.5t-130.5 -130.5q137 -70 200 -171t63 -218q0 -86 -33 -163t-91.5 -133t-135 -90t-162.5 -34 t-162 34t-133.5 90t-90 133t-32.5 163zM152 420q0 -74 27.5 -137.5t73.5 -110.5t110.5 -73.5t138 -26.5t137 26.5t111 73.5t75 110.5t27.5 137.5t-27.5 137.5t-75 110.5t-111 73.5t-137 26.5t-138 -26.5t-110.5 -73.5t-73.5 -110.5t-27.5 -137.5zM250 1087q0 -109 71.5 -178 t178.5 -69q109 0 180.5 69.5t71.5 177.5q0 111 -72 182.5t-180 71.5q-53 0 -98.5 -19t-79 -53t-53 -80.5t-19.5 -101.5z" />
<glyph unicode="9" horiz-adv-x="1064" d="M70 948q0 96 36.5 179t99 146.5t146.5 100.5t180 37q92 0 176.5 -37t145.5 -100.5t97 -146.5t36 -179q0 -72 -26.5 -143.5t-61.5 -124.5l-424 -664q-8 -16 -30.5 -16t-30.5 17.5t0 31.5l311 486q-41 -25 -94 -33t-99 -8q-96 0 -180 35.5t-146.5 97t-99 145.5t-36.5 176z M135 952q0 -82 30 -152.5t82 -122.5t122.5 -82t152.5 -30q84 0 156 30t124 82t81.5 122.5t29.5 152.5q0 84 -29.5 156t-81.5 123t-124 81.5t-156 30.5q-82 0 -152.5 -30.5t-122.5 -81.5t-82 -123t-30 -156z" />
<glyph unicode=":" horiz-adv-x="356" d="M121 57q0 23 16.5 40.5t41 17.5t42 -17.5t17.5 -40.5q0 -25 -17.5 -41t-42 -16t-41 16t-16.5 41zM121 993q0 25 16.5 42.5t41 17.5t42 -17.5t17.5 -42.5q0 -23 -17.5 -39t-42 -16t-41 16t-16.5 39z" />
<glyph unicode=";" horiz-adv-x="319" d="M102 991q0 27 18.5 45.5t43 18.5t43 -18.5t18.5 -45.5q0 -23 -18.5 -41t-43 -18t-43 18t-18.5 41zM125 51q0 23 12.5 32t26.5 9t25.5 -9t11.5 -32v-354q0 -16 -11.5 -26.5t-25.5 -10.5q-16 0 -27.5 10.5t-11.5 26.5v354z" />
<glyph unicode="&#x3c;" horiz-adv-x="823" d="M109 717l577 297q6 4 11 6t14 2q14 0 25.5 -10.5t11.5 -26.5q0 -10 -8.5 -20.5t-16.5 -14.5l-518 -268l518 -268q25 -12 25 -33q0 -16 -11.5 -27.5t-25.5 -11.5q-8 0 -13.5 3t-11.5 7l-577 297q-19 9 -19 29q0 25 19 39z" />
<glyph unicode="=" horiz-adv-x="978" d="M102 497.5q0 34.5 35 34.5l686 3q35 0 35 -35t-35 -35l-686 -2q-35 0 -35 34.5zM102 971q0 35 35 35l686 2q35 0 35 -35t-35 -35l-686 -2q-35 0 -35 35z" />
<glyph unicode="&#x3e;" horiz-adv-x="833" d="M80 381q0 10 8 18.5t18 12.5l525 270l-525 270q-8 4 -17 11.5t-9 17.5q0 16 10 28.5t25 12.5q6 0 12 -2t12 -6l578 -297q17 -13 17 -37q0 -21 -17 -31l-578 -297q-6 -4 -12 -7t-12 -3q-14 0 -24.5 11.5t-10.5 27.5z" />
<glyph unicode="?" horiz-adv-x="972" d="M61 991q0 86 34 163t90.5 133t132 90t159.5 34q88 0 165 -34t133 -90t90 -132t34 -162t-34 -162.5t-90 -133t-133 -90.5t-165 -34h-104v-147q0 -27 -12.5 -35t-26.5 -8q-16 0 -25.5 12.5t-9.5 30.5v172q0 47 49 47h129q74 0 138.5 26.5t110.5 74t73.5 110t27.5 136 t-27.5 137t-73.5 110.5t-110.5 73.5t-138.5 26.5q-70 0 -132 -26.5t-110.5 -73.5t-75 -110.5t-26.5 -137.5q0 -39 -37 -39q-35 0 -35 39zM276 57q0 25 18.5 43.5t43.5 18.5q23 0 40 -18.5t17 -43.5q0 -23 -17.5 -40t-39.5 -17q-25 0 -43.5 17t-18.5 40z" />
<glyph unicode="@" horiz-adv-x="1728" d="M80 674q0 164 63.5 309t172 254t254 173.5t309.5 64.5q166 0 313 -64.5t255.5 -173.5t173 -254t64.5 -309q0 -66 -11 -136.5t-41.5 -129t-84 -96.5t-137.5 -38q-35 0 -73 12.5t-70.5 39t-55 64.5t-26.5 87q-20 -35 -56 -63.5t-79 -50t-89.5 -31.5t-82.5 -10 q-72 0 -136.5 27.5t-112.5 75.5t-76 113.5t-28 137.5t28 135t76 112.5t112.5 77t136.5 27.5q74 0 139 -27.5t113.5 -77t75 -112.5t26.5 -135v-150q0 -31 14.5 -63.5t38 -59t56 -44t71.5 -17.5q68 0 107 31.5t60.5 81t28.5 106.5t7 111q0 152 -58.5 285t-156.5 233 t-232.5 157.5t-289.5 57.5q-152 0 -284 -57.5t-231.5 -157.5t-157 -233.5t-57.5 -284.5q0 -154 57.5 -287t157 -232.5t231.5 -156.5t284 -57q63 0 117.5 8t103.5 20q20 6 28 6q10 0 21.5 -6t11.5 -20q0 -25 -30.5 -40.5t-73.5 -22.5t-92.5 -11t-85.5 -4q-164 0 -309.5 63.5 t-254 172t-172 255t-63.5 314.5zM594 676q0 -61 22.5 -113.5t61.5 -91.5t91 -60.5t110 -21.5q59 0 109 20.5t88 58.5t60.5 91t26.5 117q0 59 -21.5 111.5t-59.5 90t-90 60.5t-113 23q-57 0 -109.5 -23t-91.5 -60.5t-61.5 -90t-22.5 -111.5z" />
<glyph unicode="A" horiz-adv-x="1363" d="M81 24q-2 6 -2 11q0 7 3 14l567 1311q10 23 35 22q20 0 33 -26l569 -1307q3 -6 3 -12.5t-3 -12.5q-6 -13 -18 -20q-8 -3 -16 -3q-6 0 -12 2q-13 5 -17 20l-195 442h-692l-191 -442q-4 -14 -17 -20q-6 -2 -12 -2q-8 0 -16 3q-14 7 -19 20zM367 535h632l-315 727z" />
<glyph unicode="B" horiz-adv-x="1060" d="M94 35v1313q0 35 35 34h371q72 0 136 -21.5t113.5 -61t79 -98t29.5 -130.5q0 -96 -49 -168t-127 -110q57 -23 106.5 -61t85 -88t55 -110.5t19.5 -125.5q0 -84 -32.5 -159t-88 -130.5t-131 -87t-159.5 -31.5h-408q-35 0 -35 35zM164 70h373q70 0 131 26.5t108 72.5 t74 108.5t27 134.5q0 68 -27 129t-73 106t-106.5 74t-127.5 31h-379v-682zM164 821h336q59 0 111.5 17.5t92 48.5t61 78t21.5 106t-21.5 105.5t-61 76t-92 45t-111.5 15.5h-336v-492z" />
<glyph unicode="C" horiz-adv-x="1388" d="M84 690q0 106 31.5 204.5t87 181.5t132.5 148.5t171 104.5q63 27 128.5 40t135.5 13q141 0 271 -53t225 -149q16 -18 20 -25.5t4 -17.5q0 -29 -33 -29q-8 0 -15 3t-23 19q-88 88 -203 135.5t-242 47.5q-129 0 -241.5 -48t-196.5 -133t-133 -199t-49 -243 q0 -131 49 -243.5t133 -195.5t196.5 -132t241.5 -49q143 0 274.5 60t215.5 171q8 14 26 14q35 0 35 -34q0 -10 -10 -23q-92 -119 -234.5 -188.5t-306.5 -69.5q-143 0 -268 54.5t-219 147.5t-148.5 219t-54.5 269z" />
<glyph unicode="D" horiz-adv-x="1316" d="M92 35v1313q0 16 10.5 25t22.5 9h395q143 0 270.5 -54t221.5 -147.5t148 -220t54 -270t-54 -269.5t-148 -219t-221 -147.5t-271 -54.5h-395q-12 0 -22.5 10.5t-10.5 24.5zM160 70h360q129 0 243 49t199 133t134 197.5t49 240.5q0 133 -49 247t-134 198t-199 131t-243 47 h-360v-1243z" />
<glyph unicode="E" horiz-adv-x="927" d="M80 35v1313q0 35 35 34h696q35 0 35 -34.5t-35 -34.5h-661v-578h428q35 0 34.5 -34.5t-34.5 -34.5h-428v-596h661q35 0 35 -35t-35 -35h-696q-35 0 -35 35z" />
<glyph unicode="F" horiz-adv-x="913" d="M74 35v1321q0 35 35 35h696q35 0 35 -35q0 -33 -35 -33h-662v-578h428q35 0 35 -34.5t-35 -34.5h-428v-641q0 -35 -34.5 -35t-34.5 35z" />
<glyph unicode="G" horiz-adv-x="1536" d="M82 690q0 106 31.5 204.5t87 181.5t132.5 148.5t171 104.5q121 53 262 53t272 -53t224 -149l14 -17q25 -25 0 -47q-10 -10 -23.5 -10t-23.5 10l-15 14q-86 88 -200.5 135.5t-241.5 47.5q-129 0 -241.5 -48t-196.5 -133t-133 -199t-49 -243q0 -131 49 -243.5t133 -195.5 t196.5 -132t241.5 -49q96 0 185.5 26.5t164 76.5t133 121t93.5 155q16 39 26 79h-373q-35 0 -34.5 35t34.5 35h418q16 0 27 -12q7 -9 7 -21q0 -5 -1 -10q-14 -74 -41 -133q-39 -94 -104.5 -171t-147.5 -132.5t-181 -87t-206 -31.5q-143 0 -269 54.5t-219.5 147.5t-147.5 219 t-54 269z" />
<glyph unicode="H" horiz-adv-x="1148" d="M104 35v1313q0 35 35 34.5t35 -34.5v-672h803v672q0 35 35 34.5t35 -34.5v-1313q0 -35 -35 -35t-35 35v571h-803v-571q0 -35 -35 -35t-35 35z" />
<glyph unicode="I" horiz-adv-x="284" d="M109 35v1313q0 35 34.5 34.5t34.5 -34.5v-1313q0 -35 -34.5 -35t-34.5 35z" />
<glyph unicode="J" horiz-adv-x="305" d="M-303 -358q0 35 35 34q84 0 155.5 31t123.5 83t81 123t29 153v1282q0 35 34.5 34.5t34.5 -34.5v-1282q0 -94 -35.5 -177.5t-97 -145.5t-146.5 -99t-179 -37q-14 0 -24.5 10.5t-10.5 24.5z" />
<glyph unicode="K" horiz-adv-x="1107" d="M100 35v1313q0 35 35 34.5t35 -34.5v-691l776 721q13 11 25 11q13 0 26 -13q9 -11 10 -22q0 -13 -14 -25l-506 -471l510 -805q6 -10 6 -19q0 -16 -18 -28q-12 -6 -21 -6q-16 0 -26 16l-502 793l-266 -246v-528q0 -35 -35 -35t-35 35z" />
<glyph unicode="L" horiz-adv-x="833" d="M74 33v1313q0 14 10 24t22 10q16 0 26.5 -10t10.5 -24v-1276h607q35 0 34 -37q0 -12 -10 -22.5t-24 -10.5h-648q-18 0 -23 10.5t-5 22.5z" />
<glyph unicode="M" horiz-adv-x="1691" d="M98 39l185 1313q2 20 26 28q27 6 41 -18l496 -1231l497 1231q14 21 33 21q3 0 6 -1q25 -4 29 -30l184 -1313q4 -35 -30 -39h-7q-27 0 -32 31l-164 1190l-483 -1196q-8 -25 -26.5 -25t-27.5 6q-6 4 -14 19l-479 1196l-164 -1190q-7 -31 -33 -31h-6q-35 4 -31 39z" />
<glyph unicode="N" horiz-adv-x="1196" d="M104 35v1313q0 23 25 32q12 4 24.5 -2t18.5 -16l850 -1219v1205q0 35 35 34.5t35 -34.5v-1313q0 -35 -35 -35q-16 0 -31 14l-852 1223v-1202q0 -35 -35 -35t-35 35z" />
<glyph unicode="O" horiz-adv-x="1550" d="M84 690.5q0 143.5 54.5 269t148.5 220t219 148.5t268.5 54t269 -54t221 -148.5t149.5 -220t54 -269t-54 -269.5t-149.5 -219t-221 -147.5t-269 -54.5t-268.5 54.5t-219 147.5t-148.5 219t-54.5 269.5zM154 690q0 -131 49 -243.5t133 -195.5t196.5 -132t241.5 -49 t242.5 49t198.5 132t134.5 195.5t49.5 243.5q0 129 -49.5 243t-134.5 199t-198.5 133t-242.5 48t-241.5 -48t-196.5 -133t-133 -199t-49 -243z" />
<glyph unicode="P" horiz-adv-x="917" d="M76 35v1313q0 35 35 34h370q72 0 137.5 -27.5t114.5 -75.5t78 -112.5t29 -134.5q0 -72 -29 -136.5t-78 -112.5t-114.5 -75.5t-137.5 -27.5h-336v-645q0 -35 -34.5 -35t-34.5 35zM145 750h336q61 0 113.5 21.5t91.5 60t61.5 90t22.5 111t-22.5 110.5t-61.5 89t-91 59.5 t-114 21.5h-336v-563z" />
<glyph unicode="Q" horiz-adv-x="1546" d="M82 690q0 143 54 269t147.5 220.5t219.5 148.5t269 54t269 -54t220.5 -148.5t149.5 -220t55 -269.5q0 -109 -31.5 -206t-87 -180t-134 -146.5t-171.5 -104.5l-41 -16q16 -43 57.5 -71.5t94.5 -31.5h4q35 0 35 -34.5t-35 -34.5h-4q-76 2 -136.5 45t-82.5 106 q-80 -16 -164 -16q-145 0 -266 53q-94 41 -171 104.5t-132.5 146.5t-87 180t-31.5 206zM152 690q0 -96 27.5 -184t76.5 -164t119.5 -133t156.5 -92l43 -17q-43 59 -43 140q0 49 18.5 92t51.5 75.5t76 51t92 18.5q51 0 94 -18.5t76 -51t51.5 -75.5t18.5 -92q0 -39 -9.5 -77 t-23.5 -61l37 15q84 35 154.5 92t121.5 133t79 164t28 184q0 129 -49.5 243t-134.5 199t-198.5 133t-242.5 48t-241.5 -48t-196.5 -133t-133 -199t-49 -243zM602 239.5q0 -69.5 49 -119.5t119 -50q72 2 121 51t49 118.5t-50 119t-120 49.5t-119 -49.5t-49 -119z" />
<glyph unicode="R" horiz-adv-x="980" d="M98 35v1313q0 35 35 34h371q72 0 136.5 -27.5t113.5 -75.5t78.5 -112.5t29.5 -134.5q0 -72 -29.5 -136.5t-78.5 -112.5t-112.5 -75.5t-135.5 -27.5l395 -627q8 -12 8 -21q0 -14 -16 -26q-14 -8 -26.5 -4t-22.5 14l-420 664h-256v-645q0 -35 -35 -35t-35 35zM168 750h340 q61 0 113.5 21.5t90.5 60t59.5 90t21.5 111t-21.5 110.5t-59.5 89t-90.5 59.5t-113.5 21.5h-340v-563z" />
<glyph unicode="S" horiz-adv-x="1019" d="M82 215q-5 12 -5 21q0 11 6 19q11 15 30 15q25 0 34 -16q23 -43 67 -78t96 -58.5t106.5 -36.5t95.5 -13q70 0 135.5 24.5t116.5 69.5t80.5 105.5t29.5 131.5q0 68 -25.5 119t-72.5 89t-109.5 66.5t-134.5 55.5q-68 20 -142.5 48t-138 67t-104.5 90t-41 117q0 76 38 138 t96.5 105t131 66.5t142.5 23.5q45 0 95 -9t99.5 -29.5t96.5 -54.5t86 -83q18 -25 -1.5 -44t-37.5 -15t-25 16q-35 51 -75.5 80t-83.5 45.5t-82 21.5t-72 5q-49 0 -107.5 -13.5t-108.5 -46t-84 -84t-34 -122.5q0 -47 34 -84t85 -67t111 -51l108 -40q100 -39 179 -77 t133.5 -84t83 -106.5t28.5 -142.5q0 -84 -36 -156.5t-96 -126t-138 -85t-162 -31.5q-61 0 -126 15.5t-123 43t-106 67.5t-73 89z" />
<glyph unicode="T" horiz-adv-x="976" d="M57 1354q0 35 35 35h793q35 0 35 -35t-35 -35h-363v-1284q0 -35 -35 -35q-33 0 -32 35v1284h-363q-35 0 -35 35z" />
<glyph unicode="U" horiz-adv-x="1140" d="M98 471v877q0 35 35 34.5t35 -34.5v-875q0 -82 30.5 -154.5t84 -128t127 -88t159.5 -32.5q82 0 156 31.5t129 87t88 128t33 154.5v881q0 35 34.5 34.5t34.5 -34.5v-881q0 -98 -37.5 -183t-103 -149.5t-151.5 -101.5t-183 -37q-98 0 -184 37t-149.5 101.5t-100.5 149.5 t-37 183z" />
<glyph unicode="V" horiz-adv-x="1208" d="M77 1365q5 13 19 19q8 3 16 4q6 0 12 -3q13 -5 17 -17l463 -1247l459 1247q6 12 18 17q6 2 12 3q8 0 17 -4q12 -6 17 -19q2 -6 3 -12q0 -7 -4 -14l-489 -1312q-12 -27 -33 -27q-25 0 -35 25l-491 1314q-3 7 -4 14q1 6 3 12z" />
<glyph unicode="W" horiz-adv-x="1918" d="M94 1341q-4 9 -3 17q0 19 22 28q9 3 17 4q20 0 28 -24l456 -1219l308 1205q8 31 34.5 30.5t34.5 -30.5l309 -1205l459 1219q7 24 28 24q8 0 17 -4q22 -10 22 -28q0 -7 -3 -17l-494 -1318q-9 -23 -31 -24q-7 0 -16 3q-12 4 -17 17.5t-1 25.5l36 102l29 -104 q4 -12 -4 -24.5t-22 -16.5q-5 -1 -11 -1q-26 0 -30 28l-306 1179l-301 -1179q-4 -23 -20 -27q-8 -2 -14 -2q-23 0 -33 23z" />
<glyph unicode="X" horiz-adv-x="1593" d="M104 36q0 13 11 25l630 629l-630 633q-11 11 -11.5 23.5t11.5 25.5q12 12 25 12t26 -12l629 -633l630 633q13 12 26 12t26 -12q11 -13 11 -25.5t-11 -23.5l-633 -633l633 -629q11 -12 11 -24.5t-11 -26.5q-10 -10 -24.5 -10t-27.5 10l-630 631l-629 -631q-13 -11 -26 -11 t-25 11q-11 13 -11 26z" />
<glyph unicode="Y" horiz-adv-x="1093" d="M88 1376q10 6 21 6l8 -1q14 -3 22 -13l408 -614l407 614q10 10 24 13q4 1 7 1q10 0 21 -6q10 -8 13 -22q1 -4 1 -8q0 -10 -6 -17l-432 -645v-649q0 -35 -35 -35t-35 35v649l-432 645q-6 7 -6 17q0 19 14 30z" />
<glyph unicode="Z" horiz-adv-x="1159" d="M76 1347.5q0 34.5 35 34.5h923q10 0 21 -6q27 -25 6 -49l-885 -1257h873q35 0 34.5 -35t-34.5 -35h-934q-14 0 -23 6q-12 8 -15 22.5t5 24.5l885 1260h-856q-35 0 -35 34.5z" />
<glyph unicode="[" horiz-adv-x="581" d="M113 -334v1774q0 12 10 23.5t24 11.5h310q14 0 24.5 -11.5t10.5 -23.5q0 -35 -35 -35h-275v-1704h275q35 0 35 -35q0 -14 -10.5 -24.5t-24.5 -10.5h-310q-14 0 -24 10.5t-10 24.5z" />
<glyph unicode="\" horiz-adv-x="667" d="M66 1413q-6 20 3 33.5t31 13.5q10 0 19.5 -6t13.5 -16l442 -1397q4 -16 -4 -29.5t-26 -13.5q-23 0 -33 25z" />
<glyph unicode="]" horiz-adv-x="583" d="M80 -336q0 35 35 35h274v1704h-274q-35 0 -35 35q0 12 10 23.5t25 11.5h309q14 0 24.5 -11.5t10.5 -23.5v-1774q0 -14 -10.5 -24.5t-24.5 -10.5h-309q-14 0 -24.5 10.5t-10.5 24.5z" />
<glyph unicode="^" horiz-adv-x="1357" d="M72 584q0 14 8 24l571 854q10 20 32 20h2q24 -1 34 -20l573 -856q8 -16 8 -24q0 -33 -32 -33q-10 0 -20.5 11t-14.5 18l-549 811l-545 -809q-6 -10 -15 -19.5t-20 -9.5q-32 0 -32 33z" />
<glyph unicode="_" horiz-adv-x="1214" d="M102 35q0 12 9.5 23.5t25.5 11.5h936q37 0 37 -35t-37 -35h-936q-35 0 -35 35z" />
<glyph unicode="`" horiz-adv-x="442" d="M74 1532q-14 29 14 49q18 8 31.5 4t17.5 -16l191 -328q6 -10 2 -25.5t-19 -23.5q-14 -6 -28.5 -2t-20.5 14z" />
<glyph unicode="a" horiz-adv-x="1232" d="M88 526.5q0 108.5 42 204.5t113.5 168t167 113t203.5 41q106 0 202.5 -41t168.5 -112t115 -166t43 -204v-495q0 -35 -35 -35t-35 35v239q-70 -121 -190.5 -197.5t-268.5 -76.5q-109 0 -204 41t-166.5 112.5t-113.5 168t-42 205zM158 526q0 -94 35.5 -178t98 -145.5 t145.5 -97t177.5 -35.5t177 35.5t145 97t99.5 145.5t37 178q0 92 -37 176t-99.5 145.5t-145 98.5t-177 37t-177.5 -37t-145.5 -98.5t-98 -145.5t-35.5 -176z" />
<glyph unicode="b" horiz-adv-x="1210" d="M80 35v1313q0 35 35 34.5t35 -34.5v-568q70 119 189.5 196t266.5 77q109 0 205 -41t168 -113t113 -167t41 -203.5t-42 -206t-114 -169t-167 -112.5t-204 -41q-147 0 -268 72.5t-188 191.5v-229q0 -35 -35 -35t-35 35zM150 510q2 -90 39.5 -170t100 -140.5t143.5 -95 t173 -34.5t176 36.5t145.5 98t98.5 145.5t37 178q0 92 -37 176t-98.5 145.5t-145.5 97.5t-176 36q-94 0 -177 -36t-145.5 -97.5t-98 -145t-35.5 -176.5v-18z" />
<glyph unicode="c" horiz-adv-x="1079" d="M88 526.5q0 108.5 42 204.5t113.5 168t167 113t203.5 41q106 0 200.5 -40t166.5 -110q10 -10 10 -26q0 -35 -35 -35q-16 0 -24 10q-63 61 -143 96t-174.5 35t-177.5 -37t-145.5 -98.5t-98 -145.5t-35.5 -176q0 -94 35.5 -178t98 -145.5t145.5 -97t177 -35.5 q90 0 171 34.5t145 90.5q10 12 24 12q35 0 35 -35q0 -12 -8 -25q-63 -76 -160.5 -111.5t-206 -35.5t-204 41t-167 112.5t-113.5 168t-42 205z" />
<glyph unicode="d" horiz-adv-x="1210" d="M80 528.5q0 108.5 42 203.5t112.5 167t168 113t205.5 41q147 0 266 -77t189 -196v568q0 35 35 34.5t35 -34.5v-1313q0 -35 -35 -35t-35 35v229q-66 -119 -186.5 -191.5t-268.5 -72.5q-109 0 -204 41t-166.5 112.5t-114.5 169t-43 206zM150 528q0 -94 36.5 -178t99 -145.5 t145.5 -98t177 -36.5q90 0 172 34.5t143.5 95t98.5 140.5t41 170v18q0 92 -36 176t-97.5 145.5t-145.5 97.5t-176 36q-94 0 -177 -36t-145.5 -97.5t-99 -145.5t-36.5 -176z" />
<glyph unicode="e" d="M84 526.5q0 108.5 42 204.5t113.5 168t167 113t203.5 41q106 0 201.5 -41t167.5 -112t114 -166t44 -202v-4v-2q-4 -33 -35 -32h-948q6 -90 45 -167t100 -133.5t141 -90t170 -33.5t169 32.5t141 87.5q25 25 51 3q23 -23 2 -50q-70 -63 -164 -103t-199 -40q-109 0 -204 41 t-166.5 112.5t-113.5 168t-42 205zM154 563h911q-6 86 -45 163t-100.5 133t-141.5 90t-168 34q-90 0 -170 -34t-140 -90t-100 -133t-46 -163z" />
<glyph unicode="f" horiz-adv-x="581" d="M59 1018q0 35 35 35h127v57q0 53 20.5 103.5t56.5 88t85 59t104 21.5q16 0 25.5 -10t9.5 -24q0 -35 -35 -35q-86 0 -141 -58.5t-55 -144.5v-57h192q35 0 35 -35q0 -12 -9 -23.5t-26 -11.5h-192v-948q0 -35 -35 -35t-35 35v948h-127q-16 0 -25.5 11.5t-9.5 23.5z" />
<glyph unicode="g" horiz-adv-x="1232" d="M88 526.5q0 108.5 43 204.5t114.5 168t167 113t203.5 41q147 0 268.5 -73t188.5 -192v230q0 35 35 35t35 -35v-918q0 -109 -42 -205t-114 -165.5t-167 -111.5t-204 -42q-104 0 -198 41t-164 102q-10 12 -9 25.5t11 26.5q10 10 24.5 9t24.5 -11q63 -57 142 -90t169 -33 q88 0 169 33.5t142.5 90t99.5 133.5t46 167v204q-70 -121 -189.5 -197.5t-267.5 -76.5q-109 0 -205 41t-167.5 112.5t-113.5 168t-42 205zM158 526q0 -94 36.5 -178t99 -145.5t145.5 -97t177.5 -35.5t177.5 35.5t145 97t98 145.5t36 178v17q-4 92 -42 171t-99.5 139t-142 95 t-173.5 35q-94 0 -177 -37t-145.5 -98.5t-99 -145.5t-36.5 -176z" />
<glyph unicode="h" horiz-adv-x="927" d="M86 35v1313q0 16 11.5 25t23.5 9q35 0 35 -34v-463q68 98 151.5 133t159.5 35q78 0 146.5 -31t119.5 -81t80 -119.5t29 -147.5v-639q0 -14 -10.5 -24.5t-24.5 -10.5q-35 0 -35 35v639q0 63 -23.5 120.5t-65.5 98.5t-97.5 64.5t-118.5 23.5q-66 0 -121 -23.5t-96 -63.5 t-66.5 -94.5t-27.5 -115.5v-649q0 -35 -35 -35q-12 0 -23.5 10.5t-11.5 24.5z" />
<glyph unicode="i" horiz-adv-x="270" d="M72 1261.5q0 24.5 16 41t41 16.5q23 0 40 -16.5t17 -41t-17 -41t-40 -16.5q-25 0 -41 16.5t-16 41zM100 33v983q0 35 35 35t35 -35v-983q0 -35 -35 -35t-35 35z" />
<glyph unicode="j" horiz-adv-x="315" d="M-193 -358q0 35 35 34q88 0 142.5 35t84 80t39 91t9.5 69v1067q0 35 34.5 35t34.5 -35v-1067q0 -47 -17 -106.5t-58 -113t-106.5 -89t-162.5 -35.5q-18 0 -26.5 11.5t-8.5 23.5zM92 1257q0 23 15.5 40.5t40 17.5t42 -17.5t17.5 -40.5q0 -25 -17.5 -41t-42 -16t-40 16 t-15.5 41z" />
<glyph unicode="k" horiz-adv-x="837" d="M82 35v1315q0 14 11 23t24 9q18 0 26.5 -9t8.5 -23v-836l530 528q10 10 27 11q35 0 34 -35q0 -14 -12 -27l-354 -344l182 -300q90 -151 189 -294q5 -9 5 -18q0 -8 -4 -17q-9 -18 -30 -18t-33 20l-358 572l-176 -174v-383q0 -35 -35 -35q-12 0 -23.5 10.5t-11.5 24.5z" />
<glyph unicode="l" horiz-adv-x="284" d="M109 35v1313q0 35 34.5 34.5t34.5 -34.5v-1313q0 -35 -34.5 -35t-34.5 35z" />
<glyph unicode="m" horiz-adv-x="1507" d="M102 35v983q0 16 10.5 25.5t24.5 9.5q35 0 35 -35v-133q68 98 141.5 133t149.5 35q111 0 189.5 -58.5t109.5 -152.5q37 96 126 153.5t193 57.5q78 0 138.5 -31t101.5 -81t62.5 -119.5t21.5 -147.5v-639q0 -14 -11.5 -24.5t-23.5 -10.5q-35 0 -35 35v639q0 63 -16 120.5 t-48 99.5t-79 66.5t-111 24.5q-66 0 -118 -25.5t-90.5 -69.5t-60 -100.5t-24.5 -115.5v-639v-4q-4 -31 -34 -31q-35 0 -35 35v639q0 63 -16.5 120.5t-49 99.5t-80 65.5t-110.5 23.5q-66 0 -118 -23.5t-90 -64.5t-59.5 -95.5t-23.5 -115.5v-649q0 -35 -35 -35 q-14 0 -24.5 10.5t-10.5 24.5z" />
<glyph unicode="n" horiz-adv-x="966" d="M100 45q0 2 2 2t2 -2h-2h-2zM104 45v8v-4v-4zM111 35v983q0 16 11 25.5t23 9.5q35 0 35 -35v-133q68 98 151 133t160.5 35t145.5 -31t119 -81t80.5 -119.5t29.5 -147.5v-639q0 -14 -11 -24.5t-24 -10.5q-35 0 -34 35v639q0 63 -23.5 120.5t-66.5 98.5t-98.5 64.5 t-116.5 23.5q-66 0 -121.5 -23.5t-97.5 -63.5t-66.5 -94.5t-26.5 -115.5v-649q0 -35 -35 -35q-12 0 -23 10.5t-11 24.5z" />
<glyph unicode="o" d="M84 526.5q0 108.5 42 204.5t113.5 168t167 113t204 41t203.5 -41t167 -113t114 -168t42 -204.5t-41 -205t-113 -168t-168 -112.5t-204.5 -41t-204 41t-167 112.5t-113.5 168t-42 205zM154 526q0 -94 35.5 -178t98 -145.5t145.5 -97t177 -35.5q92 0 176 35.5t145.5 97 t99.5 145.5t38 178q0 92 -38 176t-99.5 145.5t-145.5 98.5t-176 37q-94 0 -177 -37t-145.5 -98.5t-98 -145.5t-35.5 -176z" />
<glyph unicode="p" horiz-adv-x="1212" d="M80 -358v1376q0 35 34.5 35t34.5 -35v-230q68 119 189 192t268 73q109 0 204 -41t167 -113t114 -168t42 -204.5t-41 -205t-113 -168t-168 -112.5t-205 -41q-147 0 -267 77t-189 197v-632q0 -35 -35 -35t-35 35zM149 526q0 -94 36 -178t98.5 -145.5t145.5 -97t177 -35.5 q92 0 176 35.5t145.5 97t98.5 145.5t37 178q0 92 -37 176t-98.5 145.5t-145.5 98.5t-176 37t-173 -35t-143.5 -95t-100 -139t-40.5 -171v-17z" />
<glyph unicode="q" horiz-adv-x="1212" d="M80 526.5q0 108.5 43 204.5t114.5 168t167 113t203.5 41q147 0 268 -73t187 -192v230q0 35 35 35t35 -35v-1376q0 -35 -35 -35t-35 35v632q-70 -121 -188.5 -197.5t-266.5 -76.5q-109 0 -206 41t-167.5 112.5t-112.5 168t-42 205zM150 526q0 -94 36.5 -178t99 -145.5 t145.5 -97t177 -35.5q92 0 176 35.5t145.5 97t97.5 145.5t36 178v17q-4 92 -41 171t-98.5 139t-143.5 95t-172 35q-94 0 -177 -37t-145.5 -98.5t-99 -145.5t-36.5 -176z" />
<glyph unicode="r" horiz-adv-x="651" d="M80 35v983q0 10 9 22.5t26 12.5q14 0 24.5 -9.5t10.5 -25.5v-236q82 133 186 202t254 69q18 0 26.5 -12.5t8.5 -22.5t-8.5 -22.5t-26.5 -12.5q-90 0 -170 -36t-138.5 -96t-94 -140t-37.5 -166v-512q0 -16 -10.5 -24.5t-24.5 -8.5q-35 0 -35 35z" />
<glyph unicode="s" horiz-adv-x="921" d="M92 219q-3 10 -2 18q0 11 4 21q8 16 27 16q12 0 22.5 -5t20.5 -25q14 -39 46 -72t72 -55.5t85 -34.5t90 -12q63 0 120.5 16t99.5 47t66.5 75t24.5 101q0 41 -24.5 80t-66.5 68.5t-99.5 52t-118.5 33.5q-72 10 -134.5 30.5t-107.5 51t-71.5 74.5t-26.5 100q0 72 29.5 121 t77.5 77.5t107.5 42t123.5 13.5q51 0 103 -9.5t96 -30t77 -51t43 -73.5q6 -16 -4 -26.5t-33 -10.5q-16 0 -28 25q-31 55 -100.5 83.5t-153.5 28.5q-45 0 -91.5 -7t-85 -28.5t-64.5 -58.5t-26 -96q0 -47 26 -79t62.5 -52.5t82 -32.5t85.5 -19q82 -14 152 -39.5t123 -62.5 t84 -88t31 -117q0 -70 -31 -127t-81 -98t-119.5 -62.5t-147.5 -21.5q-133 0 -234.5 57.5t-130.5 161.5z" />
<glyph unicode="t" horiz-adv-x="628" d="M53 1018q0 35 35 35h193v295q0 35 34.5 34.5t34.5 -34.5v-295h191q35 0 34.5 -35t-34.5 -35h-191v-948q0 -35 -34.5 -35t-34.5 35v948h-193q-35 0 -35 35z" />
<glyph unicode="u" horiz-adv-x="958" d="M102 381v637q0 16 10.5 25.5t24.5 9.5q35 0 35 -35v-637q0 -66 23.5 -122t65.5 -98t97.5 -65.5t118.5 -23.5q66 0 121 23.5t96 64.5t66.5 95t27.5 114v649q0 35 35 35q12 0 23.5 -9.5t11.5 -25.5v-983q0 -14 -11 -24.5t-24 -10.5q-35 0 -35 35v133q-68 -98 -151.5 -133 t-159.5 -35q-78 0 -146.5 30.5t-119.5 82t-80 120t-29 148.5z" />
<glyph unicode="v" horiz-adv-x="962" d="M83 1029q5 13 19 20q8 3 16 3q6 0 12 -2q13 -5 17 -18l334 -911l336 911q4 12 17 18q6 2 12 2q8 0 16 -3q12 -6 18 -20q2 -6 2 -12q0 -7 -3 -13l-365 -977q-10 -27 -32.5 -27t-35.5 25l-362 979q-3 7 -3 13t2 12z" />
<glyph unicode="w" horiz-adv-x="1357" d="M97 1029q5 13 18 20q9 3 16 3q6 0 12 -2q12 -5 17 -18l336 -911l147 405l-176 478q-6 12 -1 25t17 20q9 3 17 3q7 0 13 -2q13 -5 17 -18l150 -409l149 409q4 12 18 18q6 2 12 2q8 0 15 -3q14 -6 19.5 -19.5t-0.5 -25.5l-178 -476l149 -407l334 911q4 12 17 18q6 2 13 2 q8 0 15 -3q14 -6 20 -20q2 -6 2 -12q0 -7 -3 -13l-365 -977q-12 -27 -33 -27q-25 0 -35 25l-151 405l-150 -403q-12 -27 -32 -27q-25 0 -35 25l-363 979q-3 7 -3 13t2 12z" />
<glyph unicode="x" horiz-adv-x="1245" d="M112 1043q9 9 24 11h3q14 0 25 -10l461 -469l456 469q8 8 23.5 7.5t27 -9t13.5 -22.5v-3q0 -13 -15 -28l-456 -463l461 -465q11 -11 10 -21v-4q-2 -13 -13.5 -23.5t-25.5 -12.5h-4q-12 0 -21 10l-456 465l-465 -465q-10 -10 -23.5 -8t-23 11.5t-10.5 21.5t12 26l454 465 l-454 463q-13 15 -14 29q1 15 11 25z" />
<glyph unicode="y" horiz-adv-x="962" d="M74 1008q-2 6 -2 11q0 8 4 15q6 12 20 17q9 3 17 2q21 0 28 -21l338 -893l342 895q8 21 29 21q7 0 16 -2q12 -4 20 -17q5 -8 4 -16q0 -5 -1 -10l-526 -1379q-4 -16 -19 -22q-7 -3 -14 -3l-15 3q-14 4 -19 17.5t-1 25.5l147 387z" />
<glyph unicode="z" horiz-adv-x="1167" d="M95 22q-2 7 -2 13q0 13 9 24l846 924h-817q-35 0 -35 35t35 35h895q16 0 25 -9q10 -10 11 -24t-9 -27l-846 -923h833q35 0 35 -35t-35 -35h-911q-27 0 -34 22z" />
<glyph unicode="{" horiz-adv-x="770" d="M63 702q0 16 10.5 25.5t24.5 9.5h166v525q0 74 30 142.5t80 121.5t116.5 83.5t144.5 30.5q45 0 45 -34q0 -12 -10.5 -23.5t-24.5 -11.5q-66 0 -122 -24.5t-97 -66.5t-65.5 -98.5t-24.5 -119.5v-1112q0 -63 24.5 -120t65.5 -99t97.5 -66.5t121.5 -24.5q14 0 24.5 -11 t10.5 -24q0 -35 -35 -34q-78 0 -147.5 29.5t-121.5 80.5t-82 121t-30 148v518h-166q-14 0 -24.5 11t-10.5 23z" />
<glyph unicode="|" horiz-adv-x="348" d="M137 -334v1776q0 12 10.5 23.5t24.5 11.5q16 0 27.5 -11.5t11.5 -23.5v-1776q0 -14 -11.5 -24.5t-27.5 -10.5q-14 0 -24.5 10.5t-10.5 24.5z" />
<glyph unicode="}" horiz-adv-x="770" d="M92 -195q0 12 9.5 23.5t23.5 11.5q66 0 122 24.5t98 66.5t65.5 98.5t23.5 120.5v1112q0 63 -23.5 119.5t-65.5 98.5t-98.5 66.5t-121.5 24.5q-14 0 -23.5 11t-9.5 24q0 35 45 34q76 0 143.5 -30.5t116.5 -83.5t79 -122t30 -142v-525h168q12 0 23.5 -9t11.5 -26 q0 -12 -11.5 -23t-23.5 -11h-168v-518q0 -78 -30 -148t-82 -121t-120.5 -80.5t-148.5 -29.5q-33 -1 -33 34z" />
<glyph unicode="~" horiz-adv-x="1142" d="M94 631q0 16 8 24q20 23 48 48.5t59 48t62.5 37t66.5 14.5q66 0 121 -27.5t106 -60.5t103.5 -61.5t111.5 -28.5q31 0 58.5 13t50 33.5t41 44t33.5 46.5q4 8 12 15t18 7q25 0 33 -19.5t-4 -37.5q-43 -78 -109.5 -125t-132 -47t-119 28.5t-104.5 61.5t-103.5 60.5 t-115.5 27.5q-51 0 -99.5 -38t-80.5 -81q-16 -23 -40 -15.5t-24 32.5z" />
<glyph unicode="&#xa1;" horiz-adv-x="438" d="M156 1040q0 -23 16 -40t39 -17q25 0 42 17.5t17 39.5q0 25 -17 41.5t-42 16.5q-23 0 -39 -16.5t-16 -41.5zM176 -274q0 -35 35 -35t35 35v983q0 35 -35 34.5t-35 -34.5v-983z" />
<glyph unicode="&#xa2;" horiz-adv-x="1046" d="M68 526q0 100 36.5 191.5t100 162t150.5 115.5t188 54v251q0 35 34.5 35t34.5 -35v-247q100 -4 189.5 -43t159.5 -107q10 -10 10 -26q0 -35 -35 -35q-18 0 -27 10q-61 59 -136 93t-161 38v-913q82 4 159 37.5t136 87.5q10 12 27 12q35 0 35 -35q0 -12 -8 -25 q-61 -74 -152.5 -108.5t-196.5 -38.5v-188q0 -35 -34.5 -35t-34.5 35v190q-100 8 -187.5 53t-151 116t-100 162t-36.5 193zM137 526q0 -88 32 -165.5t86 -140t129 -101.5t159 -47v909q-84 -10 -159 -49t-129 -101.5t-86 -140.5t-32 -164z" />
<glyph unicode="&#xa3;" horiz-adv-x="1193" d="M63 563q0 12 10.5 23.5t24.5 11.5h144v471q0 45 17 104.5t56 111.5t104.5 89t164.5 37q16 0 25 -11t9 -24q0 -35 -34 -35q-90 0 -144.5 -35.5t-84 -81.5t-38 -91.5t-8.5 -63.5v-471h154q14 0 24.5 -11.5t10.5 -23.5q0 -35 -35 -35h-154v-458h785q18 0 27 -11.5t9 -23.5 q0 -35 -36 -35h-818q-14 0 -24 10t-10 25v493h-144q-14 0 -24.5 9.5t-10.5 25.5z" />
<glyph unicode="&#xa4;" horiz-adv-x="1243" d="M104 748q0 117 48.5 221t138.5 188l-176 254q-12 25 -2 42t28.5 17t34.5 -22l174 -254q143 78 281 78q57 0 123.5 -16.5t128.5 -51.5l176 246q4 8 14 15.5t19 7.5q29 0 35 -19.5t-9 -44.5l-176 -238q100 -78 155.5 -192.5t55.5 -230.5q0 -121 -57.5 -228.5t-153.5 -189.5 l120 -180q50 -76 60 -99q10 -20 -2 -35.5t-30.5 -15.5t-30.5 22.5t-60 95.5l-118 177q-61 -35 -128 -52.5t-126 -17.5q-70 0 -138.5 20.5t-146.5 65.5l-83 -143l-85 -145q-6 -12 -14 -17.5t-21 -5.5q-14 0 -23.5 10t-9.5 23q0 10 7 20l174 295q-80 74 -131.5 177.5 t-51.5 222.5zM174 748q0 -94 35 -177.5t96.5 -143.5t145.5 -96t178 -36t178 36t144.5 96t96 143t35.5 178q0 96 -35.5 179t-96 144.5t-144.5 96t-178 34.5t-178 -34.5t-145.5 -96t-96.5 -144.5t-35 -179z" />
<glyph unicode="&#xa5;" horiz-adv-x="1148" d="M74 1372q0 16 10 26.5t22 10.5q18 0 33 -20l432 -621l430 621q4 10 11.5 16t19.5 6q37 0 37 -37q0 -6 -4 -13t-8 -11l-451 -641h307q16 0 26.5 -11.5t10.5 -23.5q0 -16 -10 -25.5t-27 -9.5h-309v-221h309q16 0 26.5 -10.5t10.5 -24.5t-10 -24.5t-27 -10.5h-309v-313 q0 -35 -33 -35q-37 0 -36 35v313h-306q-16 0 -27.5 10.5t-11.5 24.5t11.5 24.5t27.5 10.5h306v221h-306q-16 0 -27.5 9t-11.5 26q0 12 11.5 23.5t27.5 11.5h303l-452 643q-6 8 -6 20z" />
<glyph unicode="&#xa6;" horiz-adv-x="348" d="M139 -387v1821q0 35 35 34.5t35 -34.5v-1821q0 -35 -35 -35t-35 35z" />
<glyph unicode="&#xa7;" horiz-adv-x="1054" d="M86 461q0 92 48 185t140 163q-33 23 -63.5 54.5t-55 67.5t-39 73.5t-14.5 74.5q0 68 32 128.5t87 106.5t129 71.5t158 25.5q80 0 154.5 -24.5t130 -69.5t89 -105.5t33.5 -132.5q0 -35 -34.5 -35t-34.5 35v4q-2 45 -27.5 91.5t-72 84t-106.5 60t-132 22.5t-133.5 -20.5 t-106.5 -56t-70.5 -83.5t-25.5 -102q0 -37 10.5 -66.5t33 -55t52 -51t66.5 -54.5q94 37 178 37q90 0 168 -34t136 -93.5t93 -137t35 -163.5q0 -92 -40 -179t-113 -153q78 -57 119.5 -124.5t41.5 -143.5q0 -70 -30.5 -129.5t-86 -105.5t-130 -71.5t-158.5 -25.5 q-82 0 -156 23.5t-129 68.5t-89 105.5t-34 134.5q0 20 10.5 27.5t24.5 7.5q35 0 35 -35q0 -45 24.5 -92.5t70.5 -85t107.5 -61t135.5 -23.5q72 0 134 20.5t106 56t70 83.5t26 102q0 76 -43 124t-111 103q-55 -29 -108.5 -43t-108.5 -14q-88 0 -166 33.5t-135 91t-91 135.5 t-34 170zM156 463q0 -76 28.5 -142.5t78.5 -115.5t114.5 -77t140.5 -28q74 0 139.5 28t114.5 77t76 115.5t27 142.5q0 74 -27 138.5t-76 112.5t-114.5 76.5t-139.5 28.5q-76 0 -140.5 -28.5t-114.5 -76.5t-78.5 -112.5t-28.5 -138.5z" />
<glyph unicode="&#xa8;" horiz-adv-x="714" d="M98 1686q0 23 16.5 40t39.5 17q25 0 42 -17.5t17 -39.5q0 -25 -17.5 -41.5t-41.5 -16.5q-23 0 -39.5 16.5t-16.5 41.5zM465 1686q0 23 16.5 40t38.5 17q25 0 42.5 -17.5t17.5 -39.5q0 -25 -17.5 -41.5t-42.5 -16.5q-23 0 -39 16.5t-16 41.5z" />
<glyph unicode="&#xa9;" horiz-adv-x="1738" d="M84 713q0 166 63.5 312t172 256t254 174.5t309.5 64.5q168 0 314 -64.5t256 -174.5t173.5 -256t63.5 -312t-63.5 -311.5t-173.5 -255t-256 -174t-314 -64.5q-164 0 -309.5 64.5t-254 174t-172 255t-63.5 311.5zM154 711q0 -154 57 -287t156.5 -231.5t231.5 -157 t284 -58.5q156 0 290 58.5t233 157t156.5 231.5t57.5 287q0 152 -57.5 287t-156.5 235t-233.5 158.5t-289.5 58.5q-152 0 -284 -58.5t-231.5 -158.5t-156.5 -235t-57 -287zM444 713q0 92 36 176t98.5 145.5t144.5 97t176 35.5q92 0 174 -33.5t146 -95.5q8 -14 8 -22 q0 -31 -31 -31q-14 0 -25 8q-53 55 -121.5 86t-150.5 31q-80 0 -151.5 -31.5t-125 -86t-85 -127t-31.5 -152.5q0 -84 31.5 -156t85 -124t125 -84t151.5 -32q78 0 148.5 30t121.5 81q14 8 25 8q31 0 31 -30q0 -8 -2 -11.5t-4 -7.5q-57 -68 -142.5 -98.5t-177.5 -30.5 q-94 0 -176 36t-144.5 98.5t-98.5 144.5t-36 176z" />
<glyph unicode="&#xaa;" horiz-adv-x="976" d="M88 1081q0 80 31 152t84 125t123.5 84t152.5 31q80 0 150.5 -31t124 -84t85 -124t31.5 -151v-366q0 -12 -8 -20.5t-20 -8.5q-31 0 -31 27v178q-49 -90 -135 -146.5t-197 -56.5q-80 0 -151.5 31t-124.5 84t-84 124.5t-31 151.5zM166 1081.5q0 -67.5 23.5 -126t65.5 -101.5 t99.5 -67.5t125 -24.5t127 24.5t102.5 67.5t67.5 101.5t24.5 126t-24.5 126t-67.5 101.5t-102.5 68.5t-127 25.5t-125 -25.5t-99.5 -68.5t-65.5 -101.5t-23.5 -126z" />
<glyph unicode="&#xab;" horiz-adv-x="1040" d="M96 520.5q0 20.5 15 30.5l489 455q10 10 34 12h3q21 0 27 -29q2 -18 -13 -35l-473 -438l467 -444q14 -14 13 -40t-31 -26q-12 0 -23 8l-493 469q-15 17 -15 37.5zM371 520.5q0 20.5 16 30.5l487 455q10 10 35 12h3q11 0 19.5 -9t8.5 -24q0 -16 -12 -31l-473 -438 l465 -444q16 -14 15 -40t-32 -26q-12 0 -24 8l-492 469q-16 17 -16 37.5z" />
<glyph unicode="&#xac;" horiz-adv-x="1150" d="M76 686q0 12 10 23.5t25 11.5h925q12 0 23.5 -11.5t11.5 -23.5v-330q0 -16 -11 -25t-24 -9q-35 0 -35 34v295h-890q-35 0 -35 35z" />
<glyph unicode="&#xad;" horiz-adv-x="1005" d="M102 686q0 12 9.5 23.5t25.5 11.5h715q16 0 27.5 -11.5t11.5 -23.5q0 -35 -39 -35h-715q-35 0 -35 35z" />
<glyph unicode="&#xae;" horiz-adv-x="1738" d="M84 713q0 166 63.5 312t172 256t254 174.5t309.5 64.5q168 0 314 -64.5t256 -174.5t173.5 -256t63.5 -312t-63.5 -311.5t-173.5 -255t-256 -174t-314 -64.5q-164 0 -309.5 64.5t-254 174t-172 255t-63.5 311.5zM154 711q0 -154 57 -287t156.5 -231.5t231.5 -157 t284 -58.5q156 0 290 58.5t233 157t156.5 231.5t57.5 287q0 152 -57.5 287t-156.5 235t-233.5 158.5t-289.5 58.5q-152 0 -284 -58.5t-231.5 -158.5t-156.5 -235t-57 -287zM684 373v336q2 76 33 144.5t81 123.5t119.5 86t147.5 31q16 0 26.5 -9.5t10.5 -26t-10.5 -26.5 t-26.5 -10q-66 -4 -123 -28.5t-99 -67.5t-65.5 -99.5t-25.5 -117.5v-336q0 -35 -35 -35q-14 0 -23.5 10.5t-9.5 24.5z" />
<glyph unicode="&#xaf;" horiz-adv-x="843" d="M82 1278q0 14 10 24.5t25 10.5h551q37 0 37 -35t-37 -35h-551q-35 0 -35 35z" />
<glyph unicode="&#xb0;" horiz-adv-x="978" d="M84 1016q0 80 31.5 152.5t85 127t125 86t151.5 31.5q86 0 159 -31.5t127 -86t85 -127t31 -152.5t-31 -152.5t-85 -127t-127 -86.5t-159 -32q-80 0 -151.5 32t-125 86.5t-85 127t-31.5 152.5zM154 1016q0 -70 25.5 -129.5t68.5 -104.5t101.5 -69.5t127.5 -24.5 q68 0 128.5 24.5t105.5 69.5t70.5 104.5t25.5 129.5q0 68 -25.5 127t-70.5 105t-105.5 72t-128.5 26q-70 0 -128 -26t-101 -72t-68.5 -105t-25.5 -127z" />
<glyph unicode="&#xb1;" horiz-adv-x="929" d="M63 336q0 35 35 35h713q14 0 24.5 -9.5t10.5 -25.5q0 -12 -10.5 -22.5t-24.5 -10.5h-713q-16 0 -25.5 10.5t-9.5 22.5zM66 926q0 12 9 23.5t23 11.5h324v327q0 14 10 21.5t23.5 7.5t25 -7t11.5 -22v-327h325q12 0 23.5 -11.5t11.5 -23.5q0 -16 -11.5 -25.5t-23.5 -9.5 h-325v-326q0 -14 -10.5 -24.5t-25 -10.5t-24.5 8.5t-10 26.5v326h-324q-14 0 -23 9.5t-9 25.5z" />
<glyph unicode="&#xb2;" horiz-adv-x="874" d="M88 647q0 10 9 20.5t18 16.5l436 344q31 27 65.5 62.5t34.5 87.5q0 41 -20.5 72.5t-53 53t-72.5 32t-81 10.5q-33 0 -72 -10.5t-71.5 -30t-55 -49t-22.5 -64.5q0 -43 -43 -43q-18 0 -24.5 14.5t-6.5 28.5q0 47 23.5 87t64.5 70.5t95.5 48t113.5 17.5t113.5 -19.5 t96.5 -52t65.5 -75.5t23.5 -90q0 -51 -29.5 -94.5t-72.5 -79.5q-39 -35 -88 -75l-102 -84q-52 -44 -108 -86l-108 -81h516q12 -2 21.5 -12.5t9.5 -22.5q0 -14 -8 -25.5t-21 -13.5h-612q-10 0 -22.5 8t-12.5 35z" />
<glyph unicode="&#xb3;" horiz-adv-x="735" d="M86 688q0 14 12.5 24.5t26.5 10.5q35 0 35 -35q0 -82 52 -136t140 -54q86 0 140.5 54t54.5 136q0 76 -53.5 134.5t-141.5 58.5q-14 0 -23.5 11t-9.5 23q0 14 9.5 23.5t23.5 9.5q86 0 140.5 58.5t54.5 138.5t-53.5 119t-110.5 39q-88 0 -132 -56.5t-44 -138.5 q0 -35 -35 -35q-16 0 -27.5 9.5t-11.5 25.5q0 53 18.5 101t52.5 85t79 58.5t100 21.5q92 0 161.5 -60.5t69.5 -168.5q0 -61 -32.5 -127t-96.5 -103q68 -39 98.5 -103t30.5 -124q0 -47 -18 -95t-52 -86t-83 -61.5t-109 -23.5q-55 0 -103 21.5t-84 57.5t-57.5 85t-21.5 102z " />
<glyph unicode="&#xb4;" horiz-adv-x="440" d="M70 1215q-2 6 -2 12q0 8 4 14l190 328q4 12 18 16q4 1 9 2q10 0 22 -6q19 -14 19 -31q0 -9 -4 -18l-189 -328q-6 -10 -20 -14q-6 -2 -12 -2l-17 4q-14 8 -18 23z" />
<glyph unicode="&#xb5;" horiz-adv-x="983" d="M102 -385v1403q0 16 10.5 25.5t24.5 9.5q16 0 27.5 -9.5t11.5 -25.5v-637q0 -66 23.5 -122t66.5 -98t98.5 -65.5t116.5 -23.5q63 0 119.5 23.5t99.5 64.5t68 95t25 114v649q0 35 34 35q12 0 25.5 -7.5t13.5 -27.5v-983q0 -20 -13 -27.5t-26 -7.5q-35 0 -34 35v110 q-39 -35 -74 -61.5t-71 -45t-76 -28.5t-91 -10q-100 0 -171.5 43t-133.5 111v-539q0 -12 -11 -23.5t-28 -11.5q-14 0 -24.5 11.5t-10.5 23.5z" />
<glyph unicode="&#x3bc;" horiz-adv-x="983" d="M102 -385v1403q0 16 10.5 25.5t24.5 9.5q16 0 27.5 -9.5t11.5 -25.5v-637q0 -66 23.5 -122t66.5 -98t98.5 -65.5t116.5 -23.5q63 0 119.5 23.5t99.5 64.5t68 95t25 114v649q0 35 34 35q12 0 25.5 -7.5t13.5 -27.5v-983q0 -20 -13 -27.5t-26 -7.5q-35 0 -34 35v110 q-39 -35 -74 -61.5t-71 -45t-76 -28.5t-91 -10q-100 0 -171.5 43t-133.5 111v-539q0 -12 -11 -23.5t-28 -11.5q-14 0 -24.5 11.5t-10.5 23.5z" />
<glyph unicode="&#xb6;" horiz-adv-x="348" d="M135 35v1399q0 35 35 34.5t35 -34.5v-1399q0 -35 -35 -35t-35 35z" />
<glyph unicode="&#xb7;" horiz-adv-x="327" d="M104 522q0 25 16.5 42.5t39.5 17.5q25 0 42 -17.5t17 -42.5q0 -23 -17.5 -39t-41.5 -16q-23 0 -39.5 16t-16.5 39z" />
<glyph unicode="&#xb8;" horiz-adv-x="522" d="M72 -260q0 29 28 29q6 0 17.5 -6.5t11.5 -22.5q0 -43 34 -76t75 -33q43 0 73.5 30t30.5 79q0 51 -28.5 70.5t-59.5 31.5q-16 6 -32.5 14.5t-16.5 26.5v180h59v-157q63 -14 100 -56.5t37 -110t-50 -116.5t-113 -49q-70 0 -118 49t-48 117z" />
<glyph unicode="&#xb9;" horiz-adv-x="548" d="M78 1184q0 8 7 14t17 19l209 172q16 16 25.5 19t19.5 3q16 0 27.5 -8t11.5 -25v-727q0 -14 -7 -26.5t-26 -12.5q-14 0 -24 12.5t-10 26.5v666l-199 -162q-14 -10 -32.5 -0.5t-18.5 29.5z" />
<glyph unicode="&#xba;" horiz-adv-x="976" d="M84 1016q0 80 31.5 151.5t85 126t125 86t151.5 31.5q82 0 155 -31.5t128 -86t86 -126t31 -151.5t-31 -152.5t-86 -127t-128 -86.5t-155 -32q-80 0 -151.5 32t-125 86.5t-85 127t-31.5 152.5zM156 1015.5q0 -67.5 25.5 -126t68.5 -102.5t101.5 -70.5t126 -26.5t127 26.5 t103.5 70.5t69.5 102.5t25.5 126t-25.5 126t-69.5 103.5t-103.5 70.5t-127 25.5t-126 -25.5t-101.5 -70.5t-68.5 -103.5t-25.5 -126z" />
<glyph unicode="&#xbb;" horiz-adv-x="1015" d="M123 1018h3q24 -2 34 -12l489 -455q14 -10 14.5 -30.5t-14.5 -37.5l-493 -469q-10 -8 -23 -8q-31 0 -32 25.5t14 40.5l467 444l-473 438q-13 14 -13 31q0 15 8 24t19 9zM381 1018h3q24 -2 36 -12l487 -455q14 -10 14.5 -30.5t-14.5 -37.5l-493 -469q-10 -8 -23 -8 q-31 0 -32 25.5t14 40.5l467 444l-473 438q-13 14 -13 31q0 15 8 24t19 9z" />
<glyph unicode="&#xbc;" horiz-adv-x="1257" d="M76 1239q0 20 20 31l217 155q20 18 33.5 23.5t24.5 5.5q16 0 27.5 -5t11.5 -26v-727q0 -12 -8.5 -23t-29 -11t-28.5 11t-8 23v666l-211 -148q-16 -12 -32.5 -0.5t-16.5 25.5zM356 25l451 1394q4 12 13 18.5t20 6.5q16 0 26.5 -10.5t5.5 -28.5l-444 -1399 q-4 -14 -14.5 -20t-18.5 -6q-18 0 -30.5 13.5t-8.5 31.5zM722 286q-3 7 -3 16q0 10 4 24l145 481q8 27 31 27q16 0 29.5 -12.5t7.5 -30.5l-2 -9q-2 -8 -14 -49l-39 -132l-78 -261h229v164q0 12 10.5 22.5t22.5 10.5q16 0 25.5 -10.5t9.5 -22.5v-164q33 0 53.5 -4t20.5 -31 q0 -25 -20.5 -30t-53.5 -5v-233q0 -35 -35 -35q-12 0 -22.5 10.5t-10.5 24.5v233h-272q-31 1 -38 16z" />
<glyph unicode="&#xbd;" horiz-adv-x="1495" d="M74 1239q0 20 20 31l217 155q20 18 33.5 23.5t24.5 5.5q16 0 27.5 -5t11.5 -26v-727q0 -12 -8.5 -23t-29 -11t-28.5 11t-8 23v666l-211 -148q-16 -12 -32.5 -0.5t-16.5 25.5zM354 25l451 1394q4 12 13 18.5t20 6.5q16 0 26 -10.5t6 -28.5l-444 -1399q-4 -14 -14.5 -20 t-18.5 -6q-18 0 -30.5 13.5t-8.5 31.5zM745 29.5q0 13.5 7.5 27t17.5 21.5l438 344q33 23 66 61.5t33 85.5q0 43 -20.5 76t-53.5 53.5t-73 29.5t-81 9q-33 0 -69.5 -9t-69.5 -28.5t-55.5 -49t-26.5 -66.5q-4 -43 -39 -43q-18 0 -25.5 13t-7.5 30q0 43 24 84t63.5 71.5t94 50 t113.5 19.5q61 0 116.5 -19.5t95.5 -52t63.5 -77t23.5 -91.5q0 -43 -30.5 -93t-71.5 -83l-86 -71l-101 -82l-110 -87l-109 -83h517q14 -2 23 -10.5t9 -24.5q0 -18 -10 -25.5t-22 -9.5h-607q-20 0 -28.5 8t-8.5 21.5z" />
<glyph unicode="&#xbe;" horiz-adv-x="1394" d="M76 750q0 35 39 34q14 0 23 -10t9 -24q0 -82 53.5 -137.5t139.5 -55.5t140.5 55.5t54.5 137.5q0 78 -52.5 132t-142.5 62q-12 0 -21.5 10.5t-9.5 26.5q0 12 9.5 22.5t21.5 10.5q86 0 140.5 56t54.5 138q0 80 -45.5 134.5t-129.5 54.5q-86 0 -133 -54.5t-47 -134.5 q0 -14 -10 -24t-23 -10q-39 0 -38 34q0 55 18 101.5t52 81t80 56t101 21.5q111 0 177.5 -75.5t66.5 -184.5q0 -61 -32.5 -124.5t-90.5 -102.5q57 -41 90 -105.5t33 -125.5q0 -47 -18.5 -93.5t-52 -84t-83 -62.5t-110.5 -25q-53 0 -102.5 21.5t-85 57.5t-56 83.5t-20.5 102.5 zM512 25l453 1394q4 12 12 18.5t20 6.5q14 0 25.5 -10.5t5.5 -28.5l-444 -1399q-4 -14 -14.5 -20t-18.5 -6q-16 0 -29.5 13.5t-9.5 31.5zM878 286q-3 7 -4 16q0 10 5 24l145 481q10 27 31 27q18 0 30.5 -12.5t6.5 -30.5l-2 -9q-2 -8 -15 -49l-39 -132l-75 -261h227v164 q0 12 10 22.5t24.5 10.5t24.5 -10.5t10 -22.5v-164q33 0 53.5 -4t20.5 -31q0 -25 -20.5 -30t-53.5 -5v-233q0 -35 -34 -35q-14 0 -24.5 10.5t-10.5 24.5v233h-273q-30 1 -37 16z" />
<glyph unicode="&#xbf;" horiz-adv-x="991" d="M-10 60q0 86 33.5 162.5t90 133t133.5 90t165 33.5h104v148q0 27 12.5 35t26.5 8q16 0 25.5 -12.5t9.5 -30.5v-172q0 -47 -49 -47h-129q-74 0 -138.5 -27t-110.5 -74t-73.5 -109.5t-27.5 -136t27.5 -137t73.5 -110.5t110.5 -73.5t138.5 -26.5q70 0 132 26.5t110 73.5 t75 110.5t27 137.5q0 39 37 39q35 0 34 -39q0 -86 -33.5 -163t-90 -133.5t-132 -90t-159.5 -33.5q-88 0 -165 33.5t-133.5 90t-90 132.5t-33.5 162zM494 995q0 23 17 40.5t40 17.5q25 0 43 -17.5t18 -40.5q0 -25 -18 -43t-43 -18q-23 0 -40 18t-17 43z" />
<glyph unicode="&#xc0;" horiz-adv-x="1363" d="M81 22q-2 6 -2 11q0 7 3 14l567 1311q10 23 35 22q20 0 33 -26l569 -1307q3 -6 3 -12.5t-3 -12.5q-6 -13 -18 -20q-8 -3 -16 -3q-6 0 -12 2q-13 5 -17 19l-195 443h-692l-191 -443q-4 -14 -17 -19q-6 -2 -12 -2q-8 0 -16 3q-14 7 -19 20zM367 532h632l-315 728zM428 1821 q-5 10 -5 18q0 17 19 31q12 5 23 5q5 0 9 -1q13 -4 18 -16l190 -328q4 -6 4 -14q0 -5 -2 -12q-4 -15 -18 -23q-9 -4 -18 -4q-6 0 -11 2q-14 4 -21 14z" />
<glyph unicode="&#xc1;" horiz-adv-x="1363" d="M81 24q-2 6 -2 11q0 7 3 14l567 1311q10 23 35 22q20 0 33 -26l569 -1307q3 -6 3 -12.5t-3 -12.5q-6 -13 -18 -20q-8 -3 -16 -3q-6 0 -12 2q-13 5 -17 20l-195 442h-692l-191 -442q-4 -14 -17 -20q-6 -2 -12 -2q-8 0 -16 3q-14 7 -19 20zM367 535h632l-315 727zM649 1504 q-2 6 -1 12q0 8 3 14l191 328q4 12 17 16q4 1 10 1q10 0 22 -5q19 -14 19 -31q0 -9 -5 -18l-188 -328q-6 -10 -21 -14q-6 -2 -11 -2q-9 0 -17 4q-15 8 -19 23z" />
<glyph unicode="&#xc2;" horiz-adv-x="1363" d="M81 24q-2 6 -2 11q0 7 3 14l567 1311q10 23 35 22q20 0 33 -26l569 -1307q3 -6 3 -12.5t-3 -12.5q-6 -13 -18 -20q-8 -3 -16 -3q-6 0 -12 2q-13 5 -17 20l-195 442h-692l-191 -442q-4 -14 -17 -20q-6 -2 -12 -2q-8 0 -16 3q-14 7 -19 20zM307 1450q0 14 10 25l324 309 q8 8 24.5 8t26.5 -10l322 -299q12 -12 13 -19.5t1 -11.5q0 -25 -21.5 -31t-39.5 11l-299 280l-297 -285q-23 -16 -43.5 -9t-20.5 32zM367 535h632l-315 727z" />
<glyph unicode="&#xc3;" horiz-adv-x="1363" d="M81 24q-2 6 -2 11q0 7 3 14l567 1311q10 23 35 22q20 0 33 -26l569 -1307q3 -6 3 -12.5t-3 -12.5q-6 -13 -18 -20q-8 -3 -16 -3q-6 0 -12 2q-13 5 -17 20l-195 442h-692l-191 -442q-4 -14 -17 -20q-6 -2 -12 -2q-8 0 -16 3q-14 7 -19 20zM244 1530q0 16 8 24 q20 23 49 50.5t60.5 53t66.5 41t70 15.5q63 0 104 -26.5t76 -58.5t71.5 -58.5t94.5 -26.5q33 0 60.5 12.5t51 34t42 45t30.5 45.5q4 8 13.5 14.5t19.5 6.5q25 0 32 -20q3 -8 3 -15q0 -11 -6 -20q-43 -80 -111 -126t-135 -46q-66 0 -105 26.5t-71.5 58t-70.5 59.5t-99 28 q-27 0 -53.5 -13.5t-50 -33t-45 -44t-42.5 -43.5q-18 -23 -40.5 -15.5t-22.5 32.5zM367 535h632l-315 727z" />
<glyph unicode="&#xc4;" horiz-adv-x="1363" d="M81 24q-2 6 -2 11q0 7 3 14l567 1311q10 23 35 22q20 0 33 -26l569 -1307q3 -6 3 -12.5t-3 -12.5q-6 -13 -18 -20q-8 -3 -16 -3q-6 0 -12 2q-13 5 -17 20l-195 442h-692l-191 -442q-4 -14 -17 -20q-6 -2 -12 -2q-8 0 -16 3q-14 7 -19 20zM367 535h632l-315 727zM420 1528 q0 23 16.5 40t38.5 17q25 0 42.5 -17.5t17.5 -39.5q0 -25 -17.5 -41.5t-42.5 -16.5q-23 0 -39 16.5t-16 41.5zM786 1528q0 23 16.5 40t39.5 17q25 0 42 -17.5t17 -39.5q0 -25 -17.5 -41.5t-41.5 -16.5q-23 0 -39.5 16.5t-16.5 41.5z" />
<glyph unicode="&#xc5;" horiz-adv-x="1363" d="M81 24q-2 6 -2 11q0 7 3 14l567 1311q10 23 35 22q20 0 33 -26l569 -1307q3 -6 3 -12.5t-3 -12.5q-6 -13 -18 -20q-8 -3 -16 -3q-6 0 -12 2q-13 5 -17 20l-195 442h-692l-191 -442q-4 -14 -17 -20q-6 -2 -12 -2q-8 0 -16 3q-14 7 -19 20zM367 535h632l-315 727zM477 1661 q0 37 14.5 70.5t39 58.5t58.5 40t72.5 15t72.5 -15t58.5 -40t40 -58.5t15.5 -70.5q0 -39 -15.5 -73t-40 -58.5t-58.5 -38.5t-72 -14q-76 0 -130.5 54t-54.5 130zM543 1661q0 -55 32.5 -87t86.5 -32q51 0 85.5 32t34.5 87q0 53 -34.5 86t-85.5 33q-53 0 -86 -33t-33 -86z" />
<glyph unicode="&#xc6;" horiz-adv-x="2078" d="M105 24q-2 6 -2 11q0 7 3 14l568 1311q10 23 35 22q20 0 32 -26l570 -1307q6 -12 0 -25.5t-19 -19.5q-14 -6 -27.5 -1t-17.5 20l-194 442h-693l-190 -442q-4 -14 -17.5 -19.5t-28 1t-19.5 19.5zM391 535h633l-315 727zM1233 33v1313q0 35 35 34h696q35 0 35 -34.5 t-35 -34.5h-661v-578h428q35 0 34.5 -34.5t-34.5 -34.5h-428v-596h661q35 0 35 -35t-35 -35h-696q-35 0 -35 35z" />
<glyph unicode="&#xc7;" horiz-adv-x="1388" d="M84 690q0 106 31.5 204.5t87 181.5t132.5 148.5t171 104.5q63 27 128.5 40t135.5 13q141 0 271 -53t225 -149q16 -18 20 -25.5t4 -17.5q0 -29 -33 -29q-8 0 -15 3t-23 19q-88 88 -203 135.5t-242 47.5q-129 0 -241.5 -48t-196.5 -133t-133 -199t-49 -243 q0 -131 49 -243.5t133 -195.5t196.5 -132t241.5 -49q143 0 274.5 60t215.5 171q8 14 26 14q35 0 35 -34q0 -10 -10 -23q-92 -119 -234.5 -188.5t-306.5 -69.5q-143 0 -268 54.5t-219 147.5t-148.5 219t-54.5 269zM592 -289q0 29 29 29q6 0 17 -6t11 -23q0 -43 34 -75.5 t75 -32.5q43 0 73.5 29.5t30.5 78.5q0 51 -28.5 70.5t-59.5 32.5q-16 6 -32.5 14t-16.5 27v180h59v-158q63 -14 100.5 -56t37.5 -109.5t-50.5 -117t-113.5 -49.5q-70 0 -118 49t-48 117z" />
<glyph unicode="&#xc8;" horiz-adv-x="927" d="M80 35v1313q0 35 35 34h696q35 0 35 -34.5t-35 -34.5h-661v-578h428q35 0 34.5 -34.5t-34.5 -34.5h-428v-596h661q35 0 35 -35t-35 -35h-696q-35 0 -35 35zM252 1821q-5 10 -5 18q0 17 19 31q12 5 23 5q5 0 9 -1q13 -4 17 -16l191 -328q4 -6 4 -14q0 -5 -2 -12 q-4 -15 -19 -23q-9 -4 -17 -4q-6 0 -11 2q-14 4 -21 14z" />
<glyph unicode="&#xc9;" horiz-adv-x="927" d="M80 35v1313q0 35 35 34h696q35 0 35 -34.5t-35 -34.5h-661v-578h428q35 0 34.5 -34.5t-34.5 -34.5h-428v-596h661q35 0 35 -35t-35 -35h-696q-35 0 -35 35zM350 1502q-2 6 -1 12q0 8 3 14l191 327q4 12 17 17q4 1 10 1q10 0 22 -5q19 -14 19 -31q0 -9 -5 -18l-188 -328 q-6 -10 -21 -14q-6 -2 -11 -2q-9 0 -17 4q-15 8 -19 23z" />
<glyph unicode="&#xca;" horiz-adv-x="927" d="M80 35v1313q0 35 35 34h696q35 0 35 -34.5t-35 -34.5h-661v-578h428q35 0 34.5 -34.5t-34.5 -34.5h-428v-596h661q35 0 35 -35t-35 -35h-696q-35 0 -35 35zM115 1509q0 14 10 25l324 309q8 8 24 8t27 -10l321 -299q12 -12 13.5 -19t1.5 -12q0 -25 -21.5 -30.5t-40.5 10.5 l-299 281l-297 -285q-16 -11 -30 -12q-6 0 -13 3q-20 6 -20 31z" />
<glyph unicode="&#xcb;" horiz-adv-x="927" d="M80 35v1313q0 35 35 34h696q35 0 35 -34.5t-35 -34.5h-661v-578h428q35 0 34.5 -34.5t-34.5 -34.5h-428v-596h661q35 0 35 -35t-35 -35h-696q-35 0 -35 35zM205 1532q0 23 16.5 40t38.5 17q25 0 42 -17.5t17 -39.5q0 -25 -17 -41t-42 -16q-23 0 -39 16t-16 41zM571 1532 q0 23 16.5 40t39.5 17q25 0 42 -17.5t17 -39.5q0 -25 -17.5 -41t-41.5 -16q-23 0 -39.5 16t-16.5 41z" />
<glyph unicode="&#xcc;" horiz-adv-x="303" d="M-66 1823q-5 10 -4 18q0 17 19 31q12 5 22 5q5 0 10 -1q13 -4 17 -16l190 -328q6 -10 2 -25.5t-18 -23.5q-14 -6 -28.5 -2t-20.5 14zM123 35v1313q0 35 35 34.5t35 -34.5v-1313q0 -35 -35 -35t-35 35z" />
<glyph unicode="&#xcd;" horiz-adv-x="292" d="M109 35v1313q0 35 34.5 34.5t34.5 -34.5v-1313q0 -35 -34.5 -35t-34.5 35zM123 1502q-2 6 -2 12q0 8 4 14l190 327q4 12 18 17q4 1 9 1q10 0 23 -5q19 -14 19 -31q0 -9 -5 -18l-189 -328q-6 -10 -20 -14q-6 -2 -11 -2q-9 0 -18 4q-14 8 -18 23z" />
<glyph unicode="&#xce;" horiz-adv-x="337" d="M-172 1479q0 14 10 24l324 309q8 8 24.5 8.5t26.5 -10.5l322 -299q12 -12 13 -19t1 -11q0 -25 -21.5 -31t-40.5 10l-299 281l-297 -285q-23 -16 -43 -9t-20 32zM141 35v1313q0 35 35 34.5t35 -34.5v-1313q0 -35 -35 -35t-35 35z" />
<glyph unicode="&#xcf;" horiz-adv-x="292" d="M-96 1536q0 23 16.5 40t38.5 17q25 0 42 -17t17 -40q0 -25 -17 -41t-42 -16q-23 0 -39 16t-16 41zM109 35v1313q0 35 34.5 34.5t34.5 -34.5v-1313q0 -35 -34.5 -35t-34.5 35zM270 1536q0 23 16.5 40t39.5 17q25 0 42 -17t17 -40q0 -25 -17.5 -41t-41.5 -16 q-23 0 -39.5 16t-16.5 41z" />
<glyph unicode="&#xd0;" horiz-adv-x="1464" d="M82 649q0 14 10 24.5t23 10.5h139v668q0 16 12.5 25t26.5 9h391q143 0 268 -55t219.5 -149.5t148.5 -221t54 -270t-54 -269.5t-148.5 -219t-219.5 -147.5t-268 -54.5h-391q-14 0 -26.5 10t-12.5 25v581h-139q-12 0 -22.5 10.5t-10.5 22.5zM328 68h356q131 0 244.5 49 t196.5 132t132.5 196.5t49.5 244.5q0 129 -49.5 243t-132.5 201t-196.5 136t-244.5 49h-356v-635h153q37 0 37 -35q0 -12 -9 -22.5t-28 -10.5h-153v-548z" />
<glyph unicode="&#xd1;" horiz-adv-x="1196" d="M104 35v1313q0 23 25 32q12 4 24.5 -2t18.5 -16l850 -1219v1205q0 35 35 34.5t35 -34.5v-1313q0 -35 -35 -35q-16 0 -31 14l-852 1223v-1202q0 -35 -35 -35t-35 35zM168 1522q0 16 8 24q20 23 49 50.5t60.5 53t66.5 41t70 15.5q63 0 104 -26.5t76 -58.5t72 -58.5 t94 -26.5q33 0 60.5 12.5t51 34t42 45t30.5 45.5q4 8 13.5 14.5t19.5 6.5q25 0 32 -20q3 -8 3 -15q0 -11 -6 -21q-43 -80 -110.5 -126t-135.5 -46q-66 0 -104.5 27t-71.5 58.5t-71 59t-99 27.5q-27 0 -53.5 -13t-50 -32.5t-45 -44t-42.5 -43.5q-18 -23 -40.5 -15.5 t-22.5 32.5z" />
<glyph unicode="&#xd2;" horiz-adv-x="1550" d="M84 690.5q0 143.5 54.5 269t148.5 220t219 148.5t268.5 54t269 -54t221 -148.5t149.5 -220t54 -269t-54 -269.5t-149.5 -219t-221 -147.5t-269 -54.5t-268.5 54.5t-219 147.5t-148.5 219t-54.5 269.5zM154 690q0 -131 49 -243.5t133 -195.5t196.5 -132t241.5 -49 t242.5 49t198.5 132t134.5 195.5t49.5 243.5q0 129 -49.5 243t-134.5 199t-198.5 133t-242.5 48t-241.5 -48t-196.5 -133t-133 -199t-49 -243zM532 1798q-5 10 -4 18q0 17 19 31q12 5 22 6q5 0 10 -2q13 -4 17 -16l190 -328q4 -6 4 -14q0 -5 -2 -11q-4 -15 -18 -24 q-9 -4 -17 -4q-6 0 -12 2q-14 4 -20 14z" />
<glyph unicode="&#xd3;" horiz-adv-x="1550" d="M84 690.5q0 143.5 54.5 269t148.5 220t219 148.5t268.5 54t269 -54t221 -148.5t149.5 -220t54 -269t-54 -269.5t-149.5 -219t-221 -147.5t-269 -54.5t-268.5 54.5t-219 147.5t-148.5 219t-54.5 269.5zM154 690q0 -131 49 -243.5t133 -195.5t196.5 -132t241.5 -49 t242.5 49t198.5 132t134.5 195.5t49.5 243.5q0 129 -49.5 243t-134.5 199t-198.5 133t-242.5 48t-241.5 -48t-196.5 -133t-133 -199t-49 -243zM690 1504q-2 6 -1 12q0 8 3 14l191 328q4 12 17 16q4 1 10 1q10 0 22 -5q19 -14 19 -31q0 -9 -5 -18l-188 -328q-6 -10 -21 -14 q-6 -2 -11 -2q-9 0 -17 4q-15 8 -19 23z" />
<glyph unicode="&#xd4;" horiz-adv-x="1550" d="M84 690.5q0 143.5 54.5 269t148.5 220t219 148.5t268.5 54t269 -54t221 -148.5t149.5 -220t54 -269t-54 -269.5t-149.5 -219t-221 -147.5t-269 -54.5t-268.5 54.5t-219 147.5t-148.5 219t-54.5 269.5zM154 690q0 -131 49 -243.5t133 -195.5t196.5 -132t241.5 -49 t242.5 49t198.5 132t134.5 195.5t49.5 243.5q0 129 -49.5 243t-134.5 199t-198.5 133t-242.5 48t-241.5 -48t-196.5 -133t-133 -199t-49 -243zM385 1485q0 14 10 24l324 310q8 8 24.5 8t26.5 -10l322 -299q12 -12 13 -19.5t1 -11.5q0 -25 -21.5 -31t-40.5 10l-299 281 l-296 -285q-16 -11 -31 -11q-6 0 -12 2q-21 7 -21 32z" />
<glyph unicode="&#xd5;" horiz-adv-x="1550" d="M84 690.5q0 143.5 54.5 269t148.5 220t219 148.5t268.5 54t269 -54t221 -148.5t149.5 -220t54 -269t-54 -269.5t-149.5 -219t-221 -147.5t-269 -54.5t-268.5 54.5t-219 147.5t-148.5 219t-54.5 269.5zM154 690q0 -131 49 -243.5t133 -195.5t196.5 -132t241.5 -49 t242.5 49t198.5 132t134.5 195.5t49.5 243.5q0 129 -49.5 243t-134.5 199t-198.5 133t-242.5 48t-241.5 -48t-196.5 -133t-133 -199t-49 -243zM322 1518q0 16 8 24q20 23 49 50.5t60.5 53t66.5 41t69 15.5q63 0 104.5 -26.5t76.5 -58.5t71.5 -58.5t94.5 -26.5q33 0 60.5 12 t51 33.5t42 45.5t30.5 46q4 8 13 14.5t20 6.5q25 0 31 -20q3 -8 3 -15q0 -11 -6 -21q-43 -80 -110.5 -126t-134.5 -46q-66 0 -105 27t-71.5 58.5t-70.5 59t-100 27.5q-27 0 -53 -13t-49.5 -32.5t-45 -44t-42.5 -43.5q-18 -23 -40.5 -15.5t-22.5 32.5z" />
<glyph unicode="&#xd6;" horiz-adv-x="1550" d="M84 690.5q0 143.5 54.5 269t148.5 220t219 148.5t268.5 54t269 -54t221 -148.5t149.5 -220t54 -269t-54 -269.5t-149.5 -219t-221 -147.5t-269 -54.5t-268.5 54.5t-219 147.5t-148.5 219t-54.5 269.5zM154 690q0 -131 49 -243.5t133 -195.5t196.5 -132t241.5 -49 t242.5 49t198.5 132t134.5 195.5t49.5 243.5q0 129 -49.5 243t-134.5 199t-198.5 133t-242.5 48t-241.5 -48t-196.5 -133t-133 -199t-49 -243zM506 1536q0 23 16.5 40t38.5 17q25 0 42.5 -17t17.5 -40q0 -25 -17.5 -41t-42.5 -16q-23 0 -39 16t-16 41zM872 1536 q0 23 16.5 40t39.5 17q25 0 42 -17t17 -40q0 -25 -17.5 -41t-41.5 -16q-23 0 -39.5 16t-16.5 41z" />
<glyph unicode="&#xd7;" horiz-adv-x="1142" d="M105 87q0 13 10 22l413 413l-409 416q-10 8 -9 22.5t11 24.5q10 8 23 10q2 0 4 1q11 0 22 -11l408 -412l409 408q12 10 24.5 8t21.5 -11t11 -23q0 -2 1 -4q0 -11 -9 -19l-409 -410l407 -409q8 -8 8 -23.5t-8 -23.5q-12 -12 -26.5 -12.5t-24.5 12.5l-405 409l-412 -414 q-12 -12 -26.5 -12t-24.5 12q-10 10 -10 26z" />
<glyph unicode="&#xd8;" horiz-adv-x="1550" d="M84 690.5q0 143.5 54.5 269t148.5 220t219 148.5t268.5 54t269 -54t221 -148.5t149.5 -220t54 -269t-54 -269.5t-149.5 -219t-221 -147.5t-269 -54.5t-268.5 54.5t-219 147.5t-148.5 219t-54.5 269.5zM154 690q0 -131 49 -243.5t133 -195.5t196.5 -132t241.5 -49 t242.5 49t198.5 132t134.5 195.5t49.5 243.5q0 129 -49.5 243t-134.5 199t-198.5 133t-242.5 48t-241.5 -48t-196.5 -133t-133 -199t-49 -243zM494 16l450 1397q4 10 13.5 16.5t19.5 6.5q16 0 27 -10q7 -7 7 -18q0 -5 -1 -11l-445 -1397q-4 -16 -14 -21.5t-19 -5.5 q-18 0 -30 13.5t-8 29.5z" />
<glyph unicode="&#xd9;" horiz-adv-x="1140" d="M98 471v877q0 35 35 34.5t35 -34.5v-875q0 -82 30.5 -154.5t84 -128t127 -88t159.5 -32.5q82 0 156 31.5t129 87t88 128t33 154.5v881q0 35 34.5 34.5t34.5 -34.5v-881q0 -98 -37.5 -183t-103 -149.5t-151.5 -101.5t-183 -37q-98 0 -184 37t-149.5 101.5t-100.5 149.5 t-37 183zM338 1812q-5 10 -5 19q0 17 19 31q12 5 23 5q5 0 9 -1q13 -4 17 -17l191 -327q4 -6 4 -14q0 -5 -2 -12q-4 -15 -19 -23q-9 -4 -17 -4q-6 0 -11 1q-14 4 -21 15z" />
<glyph unicode="&#xda;" horiz-adv-x="1140" d="M98 471v877q0 35 35 34.5t35 -34.5v-875q0 -82 30.5 -154.5t84 -128t127 -88t159.5 -32.5q82 0 156 31.5t129 87t88 128t33 154.5v881q0 35 34.5 34.5t34.5 -34.5v-881q0 -98 -37.5 -183t-103 -149.5t-151.5 -101.5t-183 -37q-98 0 -184 37t-149.5 101.5t-100.5 149.5 t-37 183zM477 1504q-2 6 -1 12q0 8 3 14l191 328q4 12 17 16q4 1 10 1q10 0 22 -5q19 -14 19 -31q0 -9 -5 -18l-188 -328q-6 -10 -21 -14q-6 -2 -11 -2q-9 0 -17 4q-15 8 -19 23z" />
<glyph unicode="&#xdb;" horiz-adv-x="1140" d="M98 471v877q0 35 35 34.5t35 -34.5v-875q0 -82 30.5 -154.5t84 -128t127 -88t159.5 -32.5q82 0 156 31.5t129 87t88 128t33 154.5v881q0 35 34.5 34.5t34.5 -34.5v-881q0 -98 -37.5 -183t-103 -149.5t-151.5 -101.5t-183 -37q-98 0 -184 37t-149.5 101.5t-100.5 149.5 t-37 183zM213 1509q0 14 10 25l324 309q8 8 24.5 8t26.5 -10l322 -299q12 -12 13 -19t1 -12q0 -25 -21.5 -30.5t-40.5 10.5l-299 281l-297 -285q-16 -11 -30 -12q-6 0 -13 3q-20 6 -20 31z" />
<glyph unicode="&#xdc;" horiz-adv-x="1140" d="M98 471v877q0 35 35 34.5t35 -34.5v-875q0 -82 30.5 -154.5t84 -128t127 -88t159.5 -32.5q82 0 156 31.5t129 87t88 128t33 154.5v881q0 35 34.5 34.5t34.5 -34.5v-881q0 -98 -37.5 -183t-103 -149.5t-151.5 -101.5t-183 -37q-98 0 -184 37t-149.5 101.5t-100.5 149.5 t-37 183zM332 1534q0 23 16.5 40t38.5 17q25 0 42 -17.5t17 -39.5q0 -25 -17 -41t-42 -16q-23 0 -39 16t-16 41zM698 1534q0 23 16.5 40t39.5 17q25 0 42 -17.5t17 -39.5q0 -25 -17.5 -41t-41.5 -16q-23 0 -39.5 16t-16.5 41z" />
<glyph unicode="&#xdd;" horiz-adv-x="1093" d="M88 1376q14 8 28.5 5t22.5 -13l408 -614l407 614q10 10 23.5 13t28.5 -5q10 -8 13 -22q1 -4 1 -8q0 -10 -6 -17l-432 -645v-649q0 -35 -35 -35t-35 35v649l-432 645q-6 7 -6 17q0 19 14 30zM489 1502q-2 6 -1 12q0 8 4 14l190 327q4 12 17 17q4 1 10 1q10 0 22 -5 q19 -14 19 -31q0 -9 -5 -18l-188 -328q-6 -10 -20 -14q-6 -2 -12 -2q-9 0 -17 4q-15 8 -19 23z" />
<glyph unicode="&#xde;" horiz-adv-x="1122" d="M74 -381v1729q0 14 11 25t28 11q10 0 20 -10t10 -26v-600q98 125 213 180t211 55q104 0 194.5 -40t156 -107.5t103.5 -157.5t38 -186q0 -102 -40 -191.5t-107.5 -156t-156.5 -105.5t-186 -39q-53 0 -112.5 17.5t-116.5 51t-109.5 80t-87.5 105.5l-2 -635q0 -33 -35 -33 q-12 0 -22 9.5t-10 23.5zM143 492q0 -88 35 -165t93.5 -135.5t135 -92t162.5 -33.5q84 0 161 33.5t136.5 92t93 135t33.5 165.5q0 86 -33.5 163.5t-93 137t-136.5 92.5t-161 33q-86 0 -162.5 -36t-135 -95.5t-93.5 -136t-35 -158.5z" />
<glyph unicode="&#xdf;" horiz-adv-x="944" d="M94 20v1067q0 80 30 152t83 125t123.5 85t150.5 32q84 0 157 -32t126 -85t84 -125t31 -152q0 -49 -16.5 -102t-46.5 -101t-72 -87t-91 -62q51 -18 93 -57t71 -90t44.5 -106.5t15.5 -108.5q0 -80 -30 -150.5t-84 -124t-126 -83t-156 -29.5q-12 0 -22 9t-10 25 q0 12 11 22.5t23 10.5q76 8 136.5 35t102.5 70t63.5 98t21.5 117q0 66 -23.5 122t-65.5 100t-103.5 70.5t-133.5 30.5q-12 0 -22 10.5t-10 24.5t10 24.5t22 10.5q70 0 130.5 25.5t103.5 68.5t67.5 101.5t24.5 126t-24.5 127t-67.5 103.5t-103.5 68.5t-130.5 24.5 q-68 0 -126 -24.5t-100 -68.5t-65.5 -103.5t-23.5 -127.5v-1067q0 -35 -37 -34q-35 -1 -35 34z" />
<glyph unicode="&#xe0;" horiz-adv-x="1232" d="M88 526.5q0 108.5 42 204.5t113.5 168t167 113t203.5 41q106 0 202.5 -41t168.5 -112t115 -166t43 -204v-495q0 -35 -35 -35t-35 35v239q-70 -121 -190.5 -197.5t-268.5 -76.5q-109 0 -204 41t-166.5 112.5t-113.5 168t-42 205zM158 526q0 -94 35.5 -178t98 -145.5 t145.5 -97t177.5 -35.5t177 35.5t145 97t99.5 145.5t37 178q0 92 -37 176t-99.5 145.5t-145 98.5t-177 37t-177.5 -37t-145.5 -98.5t-98 -145.5t-35.5 -176zM358 1491q-5 10 -4 18q0 17 19 31q12 5 22 6q5 0 9 -2q13 -4 18 -16l190 -328q4 -6 4 -14q0 -5 -2 -11 q-4 -15 -18 -24q-9 -4 -17 -4q-6 0 -12 2q-14 4 -20 14z" />
<glyph unicode="&#xe1;" horiz-adv-x="1232" d="M88 526.5q0 108.5 42 204.5t113.5 168t167 113t203.5 41q106 0 202.5 -41t168.5 -112t115 -166t43 -204v-495q0 -35 -35 -35t-35 35v239q-70 -121 -190.5 -197.5t-268.5 -76.5q-109 0 -204 41t-166.5 112.5t-113.5 168t-42 205zM158 526q0 -94 35.5 -178t98 -145.5 t145.5 -97t177.5 -35.5t177 35.5t145 97t99.5 145.5t37 178q0 92 -37 176t-99.5 145.5t-145 98.5t-177 37t-177.5 -37t-145.5 -98.5t-98 -145.5t-35.5 -176zM528 1189q-2 6 -1 11q0 8 3 14l191 328q4 12 17 17q4 1 10 1q10 0 22 -6q19 -14 19 -31q0 -9 -5 -18l-188 -327 q-6 -10 -21 -15q-6 -2 -11 -1q-9 0 -17 3q-15 9 -19 24z" />
<glyph unicode="&#xe2;" horiz-adv-x="1232" d="M88 530.5q0 108.5 42 204.5t113.5 168t167 113t203.5 41q106 0 202.5 -41t168.5 -111.5t115 -166t43 -203.5v-496q0 -35 -35 -35t-35 35v240q-70 -121 -190.5 -198t-268.5 -77q-109 0 -204 41t-166.5 112.5t-113.5 168t-42 205zM158 530q0 -94 35.5 -178t98 -145.5 t145.5 -97t177.5 -35.5t177 35.5t145 97t99.5 145.5t37 178q0 92 -37 176.5t-99.5 145.5t-145 98t-177 37t-177.5 -37t-145.5 -98t-98 -145.5t-35.5 -176.5zM250 1128q0 14 10 25l324 309q8 8 24.5 8t26.5 -10l321 -299q12 -12 13.5 -19t1.5 -12q0 -25 -21.5 -30.5 t-40.5 10.5l-299 281l-297 -285q-16 -11 -30 -11q-6 0 -13 2q-20 6 -20 31z" />
<glyph unicode="&#xe3;" horiz-adv-x="1232" d="M88 526.5q0 108.5 42 204.5t113.5 168t167 113t203.5 41q106 0 202.5 -41t168.5 -112t115 -166t43 -204v-495q0 -35 -35 -35t-35 35v239q-70 -121 -190.5 -197.5t-268.5 -76.5q-109 0 -204 41t-166.5 112.5t-113.5 168t-42 205zM158 526q0 -94 35.5 -178t98 -145.5 t145.5 -97t177.5 -35.5t177 35.5t145 97t99.5 145.5t37 178q0 92 -37 176t-99.5 145.5t-145 98.5t-177 37t-177.5 -37t-145.5 -98.5t-98 -145.5t-35.5 -176zM176 1210q0 16 8 25q20 23 49 50.5t61 53t66.5 41t69.5 15.5q63 0 104 -27t76 -58.5t72 -58t94 -26.5q33 0 60.5 12 t51 33.5t42 45t31.5 46.5q4 8 13 14t19 6q25 0 32 -19q3 -8 3 -16q0 -11 -6 -20q-43 -80 -110.5 -126t-135.5 -46q-66 0 -104.5 26.5t-71.5 58.5t-70.5 59.5t-99.5 27.5q-27 0 -53.5 -13.5t-50 -32.5t-45 -44t-41.5 -43q-18 -23 -41 -16t-23 32z" />
<glyph unicode="&#xe4;" horiz-adv-x="1232" d="M88 526.5q0 108.5 42 204.5t113.5 168t167 113t203.5 41q106 0 202.5 -41t168.5 -112t115 -166t43 -204v-495q0 -35 -35 -35t-35 35v239q-70 -121 -190.5 -197.5t-268.5 -76.5q-109 0 -204 41t-166.5 112.5t-113.5 168t-42 205zM158 526q0 -94 35.5 -178t98 -145.5 t145.5 -97t177.5 -35.5t177 35.5t145 97t99.5 145.5t37 178q0 92 -37 176t-99.5 145.5t-145 98.5t-177 37t-177.5 -37t-145.5 -98.5t-98 -145.5t-35.5 -176zM346 1251q0 23 16.5 40.5t38.5 17.5q25 0 42.5 -17.5t17.5 -40.5q0 -25 -17.5 -41t-42.5 -16q-23 0 -39 16t-16 41z M713 1251q0 23 16 40.5t39 17.5q25 0 42 -17.5t17 -40.5q0 -25 -17 -41t-42 -16q-23 0 -39 16t-16 41z" />
<glyph unicode="&#xe5;" horiz-adv-x="1232" d="M88 526.5q0 108.5 42 204.5t113.5 168t167 113t203.5 41q106 0 202.5 -41t168.5 -112t115 -166t43 -204v-495q0 -35 -35 -35t-35 35v239q-70 -121 -190.5 -197.5t-268.5 -76.5q-109 0 -204 41t-166.5 112.5t-113.5 168t-42 205zM158 526q0 -94 35.5 -178t98 -145.5 t145.5 -97t177.5 -35.5t177 35.5t145 97t99.5 145.5t37 178q0 92 -37 176t-99.5 145.5t-145 98.5t-177 37t-177.5 -37t-145.5 -98.5t-98 -145.5t-35.5 -176zM395 1339q0 37 14.5 71t39 58.5t58.5 40t72.5 15.5t72.5 -15.5t58.5 -40t40 -58.5t15.5 -71q0 -39 -15.5 -72.5 t-40 -58t-58.5 -39t-72 -14.5q-76 0 -130.5 54t-54.5 130zM461 1339q0 -55 32.5 -86.5t86.5 -31.5q51 0 85.5 31.5t34.5 86.5q0 53 -34.5 86t-85.5 33q-53 0 -86 -33t-33 -86z" />
<glyph unicode="&#xe6;" horiz-adv-x="2213" d="M88 526.5q0 108.5 42 204.5t113.5 168t167 113t203.5 41q106 0 202.5 -41t168.5 -112t115 -166t43 -204v-495q0 -35 -35 -35t-35 35v239q-70 -121 -190.5 -197.5t-268.5 -76.5q-109 0 -204 41t-166.5 112.5t-113.5 168t-42 205zM158 526q0 -94 35.5 -178t98 -145.5 t145.5 -97t177.5 -35.5t177 35.5t145 97t99.5 145.5t37 178q0 92 -37 176t-99.5 145.5t-145 98.5t-177 37t-177.5 -37t-145.5 -98.5t-98 -145.5t-35.5 -176zM1069 526.5q0 108.5 42 204.5t113.5 168t167 113t203.5 41q106 0 201.5 -41t167.5 -112t114 -166t44 -202v-4v-2 q-4 -33 -35 -32h-948q6 -90 45 -167t100.5 -133.5t141 -90t170 -33.5t169 32.5t140.5 87.5q25 25 51 3q23 -23 2 -50q-70 -63 -164 -103t-199 -40q-109 0 -204 41t-166.5 112.5t-113.5 168t-42 205zM1139 563h911q-6 86 -45 163t-100.5 133t-141.5 90t-168 34 q-90 0 -169.5 -34t-140 -90t-100.5 -133t-46 -163z" />
<glyph unicode="&#xe7;" horiz-adv-x="1079" d="M88 526.5q0 108.5 42 204.5t113.5 168t167 113t203.5 41q106 0 200.5 -40t166.5 -110q10 -10 10 -26q0 -35 -35 -35q-16 0 -24 10q-63 61 -143 96t-174.5 35t-177.5 -37t-145.5 -98.5t-98 -145.5t-35.5 -176q0 -94 35.5 -178t98 -145.5t145.5 -97t177 -35.5 q90 0 171 34.5t145 90.5q10 12 24 12q35 0 35 -35q0 -12 -8 -25q-63 -76 -160.5 -111.5t-206 -35.5t-204 41t-167 112.5t-113.5 168t-42 205zM399 -281q0 29 29 29q6 0 17.5 -6t11.5 -23q0 -43 33.5 -75.5t74.5 -32.5q43 0 74 29.5t31 78.5q0 51 -29 71t-59 32q-16 6 -33 14 t-17 27v180h60v-158q63 -14 100 -56t37 -109.5t-50 -116.5t-114 -49q-70 0 -118 48.5t-48 116.5z" />
<glyph unicode="&#xe8;" d="M84 526.5q0 108.5 42 204.5t113.5 168t167 113t203.5 41q106 0 201.5 -41t167.5 -112t114 -166t44 -202v-4v-2q-4 -33 -35 -32h-948q6 -90 45 -167t100 -133.5t141 -90t170 -33.5t169 32.5t141 87.5q25 25 51 3q23 -23 2 -50q-70 -63 -164 -103t-199 -40q-109 0 -204 41 t-166.5 112.5t-113.5 168t-42 205zM154 563h911q-6 86 -45 163t-100.5 133t-141.5 90t-168 34q-90 0 -170 -34t-140 -90t-100 -133t-46 -163zM401 1503q-5 10 -4 18q0 17 19 31q12 5 22 6q5 0 9 -2q13 -4 18 -16l190 -328q4 -6 4 -14q0 -5 -2 -11q-4 -15 -18 -24 q-9 -4 -17 -3q-6 0 -12 1q-14 4 -20 15z" />
<glyph unicode="&#xe9;" d="M84 526.5q0 108.5 42 204.5t113.5 168t167 113t203.5 41q106 0 201.5 -41t167.5 -112t114 -166t44 -202v-4v-2q-4 -33 -35 -32h-948q6 -90 45 -167t100 -133.5t141 -90t170 -33.5t169 32.5t141 87.5q25 25 51 3q23 -23 2 -50q-70 -63 -164 -103t-199 -40q-109 0 -204 41 t-166.5 112.5t-113.5 168t-42 205zM154 563h911q-6 86 -45 163t-100.5 133t-141.5 90t-168 34q-90 0 -170 -34t-140 -90t-100 -133t-46 -163zM532 1189q-2 6 -1 11q0 8 4 14l190 328q4 12 17 17q4 1 10 1q10 0 22 -6q19 -14 19 -31q0 -9 -5 -18l-188 -327q-6 -10 -20 -15 q-6 -2 -12 -1q-9 0 -17 3q-15 9 -19 24z" />
<glyph unicode="&#xea;" d="M84 526.5q0 108.5 42 204.5t113.5 168t167 113t203.5 41q106 0 201.5 -41t167.5 -112t114 -166t44 -202v-4v-2q-4 -33 -35 -32h-948q6 -90 45 -167t100 -133.5t141 -90t170 -33.5t169 32.5t141 87.5q25 25 51 3q23 -23 2 -50q-70 -63 -164 -103t-199 -40q-109 0 -204 41 t-166.5 112.5t-113.5 168t-42 205zM154 563h911q-6 86 -45 163t-100.5 133t-141.5 90t-168 34q-90 0 -170 -34t-140 -90t-100 -133t-46 -163zM260 1128q0 14 10 25l324 309q8 8 24.5 8t26.5 -10l322 -299q12 -12 13 -19t1 -12q0 -25 -21.5 -30.5t-39.5 10.5l-299 281 l-297 -285q-16 -11 -31 -11q-6 0 -12 2q-21 6 -21 31z" />
<glyph unicode="&#xeb;" d="M84 526.5q0 108.5 42 204.5t113.5 168t167 113t203.5 41q106 0 201.5 -41t167.5 -112t114 -166t44 -202v-4v-2q-4 -33 -35 -32h-948q6 -90 45 -167t100 -133.5t141 -90t170 -33.5t169 32.5t141 87.5q25 25 51 3q23 -23 2 -50q-70 -63 -164 -103t-199 -40q-109 0 -204 41 t-166.5 112.5t-113.5 168t-42 205zM154 563h911q-6 86 -45 163t-100.5 133t-141.5 90t-168 34q-90 0 -170 -34t-140 -90t-100 -133t-46 -163zM356 1253q0 23 16.5 40.5t39.5 17.5q25 0 42 -17.5t17 -40.5q0 -25 -17.5 -41t-41.5 -16q-23 0 -39.5 16t-16.5 41zM723 1253 q0 23 16.5 40.5t38.5 17.5q25 0 42.5 -17.5t17.5 -40.5q0 -25 -17.5 -41t-42.5 -16q-23 0 -39 16t-16 41z" />
<glyph unicode="&#xec;" horiz-adv-x="305" d="M-51 1505q-5 10 -5 18q0 17 19 31q12 5 22 6q5 0 10 -1q13 -4 17 -17l191 -328q4 -6 3 -14q0 -5 -1 -11q-4 -15 -19 -24q-14 -6 -28.5 -2t-20.5 15zM111 35v983q0 35 34.5 35t34.5 -35v-983q0 -35 -34.5 -35t-34.5 35z" />
<glyph unicode="&#xed;" horiz-adv-x="331" d="M123 35v983q0 35 35 35t35 -35v-983q0 -35 -35 -35t-35 35zM156 1189q-2 6 -2 11q0 8 4 14l190 328q4 12 18 17q4 1 9 1q10 0 22 -6q19 -14 19 -31q0 -9 -4 -18l-189 -327q-6 -10 -20 -15q-6 -2 -12 -1q-9 0 -17 3q-14 9 -18 24z" />
<glyph unicode="&#xee;" horiz-adv-x="331" d="M-156 1153q0 14 11 25l323 309q8 8 24.5 8t26.5 -10l322 -299q12 -12 13 -19.5t1 -11.5q0 -25 -21.5 -31t-39.5 11l-299 280l-297 -285q-23 -16 -43.5 -9t-20.5 32zM127 35v983q0 35 35 35t35 -35v-983q0 -35 -35 -35t-35 35z" />
<glyph unicode="&#xef;" horiz-adv-x="339" d="M-43 1266q0 23 16.5 40t38.5 17q25 0 42.5 -17.5t17.5 -39.5q0 -25 -17.5 -41.5t-42.5 -16.5q-23 0 -39 16.5t-16 41.5zM131 35v983q0 35 35 35t35 -35v-983q0 -35 -35 -35t-35 35zM324 1266q0 23 16 40t39 17q25 0 42 -17.5t17 -39.5q0 -25 -17.5 -41.5t-41.5 -16.5 q-23 0 -39 16.5t-16 41.5z" />
<glyph unicode="&#xf0;" horiz-adv-x="964" d="M78 401q0 82 31.5 155t85 127t125 86t151.5 32q39 0 86 -10.5t92 -33t84 -54t66 -74.5v458q0 20 -8.5 63.5t-37 89.5t-83 80t-142.5 34q-18 0 -29.5 10t-11.5 24.5t11.5 24.5t29.5 10q94 0 161 -35.5t107 -86t57 -109.5t17 -105l2 -686q0 -80 -31.5 -151.5t-86 -125.5 t-127 -86t-156.5 -32q-80 0 -151.5 32t-125 86t-85 125.5t-31.5 151.5zM150 401q0 -70 25.5 -128t67.5 -101t100 -68.5t128 -25.5q68 0 127 25.5t104.5 68.5t71 101.5t25.5 127.5q0 68 -25.5 127.5t-71 104.5t-104.5 70.5t-127 25.5q-70 0 -128 -25.5t-100 -70.5 t-67.5 -104.5t-25.5 -127.5z" />
<glyph unicode="&#xf1;" horiz-adv-x="993" d="M68 1286q0 16 8 25q20 23 49 50.5t60.5 53t66.5 40.5t70 15q63 0 104 -26.5t76 -58t71.5 -58.5t94.5 -27q33 0 60.5 12.5t51 34t42 45t30.5 46.5q4 8 13 14t20 6q25 0 31 -19q3 -8 3 -16q0 -11 -6 -20q-43 -80 -110.5 -126t-134.5 -46q-66 0 -105 26.5t-71.5 58.5 t-70.5 59.5t-99 27.5q-27 0 -53.5 -13.5t-50 -33t-45 -44t-42.5 -42.5q-18 -23 -40.5 -16t-22.5 32zM106 45q0 2 2.5 2t2.5 -2h-2h-3zM111 45v8v-4v-4zM117 35v983q0 16 11 25.5t24 9.5q35 0 34 -35v-133q68 98 151 133t160.5 35t145.5 -31t119 -81t80.5 -119.5t29.5 -147.5 v-639q0 -14 -11 -24.5t-23 -10.5q-35 0 -35 35v639q0 63 -23.5 120.5t-66.5 98.5t-98.5 64.5t-116.5 23.5q-66 0 -121 -23.5t-97 -63.5t-67 -94.5t-27 -115.5v-649q0 -35 -34 -35q-12 0 -23.5 10.5t-11.5 24.5z" />
<glyph unicode="&#xf2;" d="M84 526.5q0 108.5 42 204.5t113.5 168t167 113t204 41t203.5 -41t167 -113t114 -168t42 -204.5t-41 -205t-113 -168t-168 -112.5t-204.5 -41t-204 41t-167 112.5t-113.5 168t-42 205zM154 526q0 -94 35.5 -178t98 -145.5t145.5 -97t177 -35.5q92 0 176 35.5t145.5 97 t99.5 145.5t38 178q0 92 -38 176t-99.5 145.5t-145.5 98.5t-176 37q-94 0 -177 -37t-145.5 -98.5t-98 -145.5t-35.5 -176zM348 1491q-5 10 -5 18q0 17 19 31q12 5 23 6q5 0 9 -2q13 -4 18 -16l190 -328q4 -6 4 -14q0 -5 -2 -11q-4 -15 -18 -24q-9 -4 -17 -4q-6 0 -12 2 q-14 4 -20 14z" />
<glyph unicode="&#xf3;" d="M84 526.5q0 108.5 42 204.5t113.5 168t167 113t204 41t203.5 -41t167 -113t114 -168t42 -204.5t-41 -205t-113 -168t-168 -112.5t-204.5 -41t-204 41t-167 112.5t-113.5 168t-42 205zM154 526q0 -94 35.5 -178t98 -145.5t145.5 -97t177 -35.5q92 0 176 35.5t145.5 97 t99.5 145.5t38 178q0 92 -38 176t-99.5 145.5t-145.5 98.5t-176 37q-94 0 -177 -37t-145.5 -98.5t-98 -145.5t-35.5 -176zM543 1189q-2 6 -2 11q0 8 4 14l190 328q4 12 18 17q4 1 9 1q10 0 22 -6q19 -14 19 -31q0 -9 -4 -18l-189 -327q-6 -10 -20 -15q-6 -2 -12 -1 q-9 0 -17 3q-14 9 -18 24z" />
<glyph unicode="&#xf4;" d="M84 526.5q0 108.5 42 204.5t113.5 168t167 113t204 41t203.5 -41t167 -113t114 -168t42 -204.5t-41 -205t-113 -168t-168 -112.5t-204.5 -41t-204 41t-167 112.5t-113.5 168t-42 205zM154 526q0 -94 35.5 -178t98 -145.5t145.5 -97t177 -35.5q92 0 176 35.5t145.5 97 t99.5 145.5t38 178q0 92 -38 176t-99.5 145.5t-145.5 98.5t-176 37q-94 0 -177 -37t-145.5 -98.5t-98 -145.5t-35.5 -176zM240 1151q0 14 10 25l323 309q8 8 24.5 8t27.5 -10l321 -299q12 -12 13.5 -19.5t1.5 -11.5q0 -25 -21.5 -31t-40.5 11l-299 280l-297 -285 q-16 -11 -30 -11q-6 0 -13 2q-20 7 -20 32z" />
<glyph unicode="&#xf5;" d="M84 526.5q0 108.5 42 204.5t113.5 168t167 113t204 41t203.5 -41t167 -113t114 -168t42 -204.5t-41 -205t-113 -168t-168 -112.5t-204.5 -41t-204 41t-167 112.5t-113.5 168t-42 205zM154 526q0 -94 35.5 -178t98 -145.5t145.5 -97t177 -35.5q92 0 176 35.5t145.5 97 t99.5 145.5t38 178q0 92 -38 176t-99.5 145.5t-145.5 98.5t-176 37q-94 0 -177 -37t-145.5 -98.5t-98 -145.5t-35.5 -176zM188 1180q0 16 9 24q20 23 48.5 50.5t60.5 53t67 41t69 15.5q63 0 104.5 -26.5t76 -58.5t71.5 -58.5t94 -26.5q33 0 61 12.5t51.5 34t42 45t30.5 45.5 q4 8 13 14.5t20 6.5q25 0 31 -20q3 -8 3 -15q0 -11 -6 -21q-43 -80 -110.5 -126t-135.5 -46q-66 0 -104.5 27t-71 58.5t-70.5 59t-100 27.5q-27 0 -53 -13t-50 -32.5t-45.5 -44t-41.5 -43.5q-18 -23 -41 -15.5t-23 32.5z" />
<glyph unicode="&#xf6;" d="M84 526.5q0 108.5 42 204.5t113.5 168t167 113t204 41t203.5 -41t167 -113t114 -168t42 -204.5t-41 -205t-113 -168t-168 -112.5t-204.5 -41t-204 41t-167 112.5t-113.5 168t-42 205zM154 526q0 -94 35.5 -178t98 -145.5t145.5 -97t177 -35.5q92 0 176 35.5t145.5 97 t99.5 145.5t38 178q0 92 -38 176t-99.5 145.5t-145.5 98.5t-176 37q-94 0 -177 -37t-145.5 -98.5t-98 -145.5t-35.5 -176zM358 1253q0 23 16.5 40.5t39.5 17.5q25 0 42 -17.5t17 -40.5q0 -25 -17.5 -41t-41.5 -16q-23 0 -39.5 16t-16.5 41zM725 1253q0 23 16.5 40.5 t38.5 17.5q25 0 42.5 -17.5t17.5 -40.5q0 -25 -17.5 -41t-42.5 -16q-23 0 -39 16t-16 41z" />
<glyph unicode="&#xf7;" horiz-adv-x="946" d="M49 686q0 12 11.5 23.5t23.5 11.5h758q18 0 28.5 -11.5t10.5 -23.5q0 -35 -39 -35h-758q-12 0 -23.5 10.5t-11.5 24.5zM395 284.5q0 24.5 16.5 41t39.5 16.5q25 0 42 -16.5t17 -41t-17.5 -41t-41.5 -16.5q-23 0 -39.5 16.5t-16.5 41zM395 1087.5q0 24.5 16.5 42 t39.5 17.5q25 0 42 -17.5t17 -42t-17.5 -40t-41.5 -15.5q-23 0 -39.5 15.5t-16.5 40z" />
<glyph unicode="&#xf8;" d="M84 526.5q0 108.5 42 204.5t113.5 168t167 113t204 41t203.5 -41t167 -113t114 -168t42 -204.5t-41 -205t-113 -168t-168 -112.5t-204.5 -41t-204 41t-167 112.5t-113.5 168t-42 205zM154 526q0 -94 35.5 -178t98 -145.5t145.5 -97t177 -35.5q92 0 176 35.5t145.5 97 t99.5 145.5t38 178q0 92 -38 176t-99.5 145.5t-145.5 98.5t-176 37q-94 0 -177 -37t-145.5 -98.5t-98 -145.5t-35.5 -176zM328 -174l450 1397q4 10 13.5 16t19.5 6q16 0 27 -9q7 -7 7 -19q0 -5 -1 -11l-445 -1396q-4 -16 -14 -21.5t-18 -5.5q-18 0 -30.5 13.5t-8.5 29.5z " />
<glyph unicode="&#xf9;" horiz-adv-x="958" d="M102 381v637q0 16 10.5 25.5t24.5 9.5q35 0 35 -35v-637q0 -66 23.5 -122t65.5 -98t97.5 -65.5t118.5 -23.5q66 0 121 23.5t96 64.5t66.5 95t27.5 114v649q0 35 35 35q12 0 23.5 -9.5t11.5 -25.5v-983q0 -14 -11 -24.5t-24 -10.5q-35 0 -35 35v133q-68 -98 -151.5 -133 t-159.5 -35q-78 0 -146.5 30.5t-119.5 82t-80 120t-29 148.5zM276 1503q-5 10 -4 18q0 17 19 31q12 5 22 6q5 0 10 -2q13 -4 17 -16l190 -328q4 -6 4 -14q0 -5 -2 -11q-4 -15 -18 -24q-9 -4 -17 -3q-6 0 -12 1q-14 4 -20 15z" />
<glyph unicode="&#xfa;" horiz-adv-x="958" d="M102 381v637q0 16 10.5 25.5t24.5 9.5q35 0 35 -35v-637q0 -66 23.5 -122t65.5 -98t97.5 -65.5t118.5 -23.5q66 0 121 23.5t96 64.5t66.5 95t27.5 114v649q0 35 35 35q12 0 23.5 -9.5t11.5 -25.5v-983q0 -14 -11 -24.5t-24 -10.5q-35 0 -35 35v133q-68 -98 -151.5 -133 t-159.5 -35q-78 0 -146.5 30.5t-119.5 82t-80 120t-29 148.5zM393 1189q-2 6 -1 11q0 8 3 14l191 328q4 12 17 17q4 1 10 1q10 0 22 -6q19 -14 19 -31q0 -9 -5 -18l-188 -327q-6 -10 -21 -15q-6 -2 -11 -1q-9 0 -17 3q-15 9 -19 24z" />
<glyph unicode="&#xfb;" horiz-adv-x="958" d="M102 381v637q0 16 10.5 25.5t24.5 9.5q35 0 35 -35v-637q0 -66 23.5 -122t65.5 -98t97.5 -65.5t118.5 -23.5q66 0 121 23.5t96 64.5t66.5 95t27.5 114v649q0 35 35 35q12 0 23.5 -9.5t11.5 -25.5v-983q0 -14 -11 -24.5t-24 -10.5q-35 0 -35 35v133q-68 -98 -151.5 -133 t-159.5 -35q-78 0 -146.5 30.5t-119.5 82t-80 120t-29 148.5zM113 1184q0 14 10 24l323 310q8 8 24.5 8t27.5 -10l321 -299q12 -12 13.5 -19.5t1.5 -11.5q0 -25 -21.5 -31t-40.5 10l-299 281l-297 -285q-16 -11 -30 -11q-6 0 -13 2q-20 7 -20 32z" />
<glyph unicode="&#xfc;" horiz-adv-x="958" d="M102 381v637q0 16 10.5 25.5t24.5 9.5q35 0 35 -35v-637q0 -66 23.5 -122t65.5 -98t97.5 -65.5t118.5 -23.5q66 0 121 23.5t96 64.5t66.5 95t27.5 114v649q0 35 35 35q12 0 23.5 -9.5t11.5 -25.5v-983q0 -14 -11 -24.5t-24 -10.5q-35 0 -35 35v133q-68 -98 -151.5 -133 t-159.5 -35q-78 0 -146.5 30.5t-119.5 82t-80 120t-29 148.5zM233 1257q0 23 16.5 40.5t39.5 17.5q25 0 42 -17.5t17 -40.5q0 -25 -17.5 -41t-41.5 -16q-23 0 -39.5 16t-16.5 41zM600 1257q0 23 16.5 40.5t38.5 17.5q25 0 42.5 -17.5t17.5 -40.5q0 -25 -17.5 -41t-42.5 -16 q-23 0 -39 16t-16 41z" />
<glyph unicode="&#xfd;" horiz-adv-x="962" d="M74 1008q-2 6 -2 11q0 8 4 15q6 12 20 17q35 10 45 -19l338 -893l342 895q10 29 45 19q12 -4 20 -17q5 -8 4 -16q0 -5 -1 -10l-527 -1379q-4 -16 -18 -22q-7 -3 -14 -3t-15 3q-14 4 -19 17.5t-1 25.5l147 387zM416 1189q-2 6 -2 11q0 8 4 14l190 328q4 12 18 17q4 1 9 1 q10 0 22 -6q19 -14 20 -31q0 -9 -5 -18l-189 -327q-6 -10 -20 -15q-6 -2 -12 -1q-9 0 -17 3q-14 9 -18 24z" />
<glyph unicode="&#xfe;" horiz-adv-x="1210" d="M80 -328v1704q0 12 10 23.5t24.5 11.5t23.5 -11t9 -24v-594q76 143 194 205t267 62q102 0 196.5 -42t166 -114t114.5 -169t43 -204q0 -109 -42 -203t-113.5 -164.5t-166.5 -111.5t-202 -41q-61 0 -122.5 12.5t-122 39t-115 71.5t-97.5 108v-559q0 -12 -9 -23t-23.5 -11 t-24.5 11t-10 23zM147 504q2 -92 40 -172t100.5 -138.5t143.5 -92t173 -33.5t175 35.5t144.5 96t96.5 143.5t35 177t-35 178t-96.5 144.5t-144.5 96.5t-175 36t-173 -34t-143.5 -94.5t-100 -144.5t-40.5 -182v-16z" />
<glyph unicode="&#xff;" horiz-adv-x="962" d="M74 1008q-2 6 -2 11q0 8 4 15q6 12 20 17q35 10 45 -19l338 -893l342 895q10 29 45 19q12 -4 20 -17q5 -8 4 -16q0 -5 -1 -10l-527 -1379q-4 -16 -18 -22q-7 -3 -14 -3t-15 3q-14 4 -19 17.5t-1 25.5l147 387zM219 1260q0 23 16.5 40t38.5 17q25 0 42.5 -17.5t17.5 -39.5 q0 -25 -17.5 -41.5t-42.5 -16.5q-23 0 -39 16.5t-16 41.5zM586 1260q0 23 16 40t39 17q25 0 42 -17.5t17 -39.5q0 -25 -17 -41.5t-42 -16.5q-23 0 -39 16.5t-16 41.5z" />
<glyph unicode="&#x100;" horiz-adv-x="1363" d="M81 24q-2 6 -2 11q0 7 3 14l567 1311q10 23 35 22q20 0 33 -26l569 -1307q3 -6 3 -12.5t-3 -12.5q-6 -13 -18 -20q-8 -3 -16 -3q-6 0 -12 2q-13 5 -17 20l-195 442h-692l-191 -442q-4 -14 -17 -20q-6 -2 -12 -2q-8 0 -16 3q-14 7 -19 20zM367 535h632l-315 727zM387 1501 q0 14 10.5 24.5t24.5 10.5h551q37 0 37 -35t-37 -35h-551q-35 0 -35 35z" />
<glyph unicode="&#x101;" horiz-adv-x="1232" d="M88 526.5q0 108.5 42 204.5t113.5 168t167 113t203.5 41q106 0 202.5 -41t168.5 -112t115 -166t43 -204v-495q0 -35 -35 -35t-35 35v239q-70 -121 -190.5 -197.5t-268.5 -76.5q-109 0 -204 41t-166.5 112.5t-113.5 168t-42 205zM158 526q0 -94 35.5 -178t98 -145.5 t145.5 -97t177.5 -35.5t177 35.5t145 97t99.5 145.5t37 178q0 92 -37 176t-99.5 145.5t-145 98.5t-177 37t-177.5 -37t-145.5 -98.5t-98 -145.5t-35.5 -176zM303 1190q0 14 10.5 24.5t24.5 10.5h551q37 0 37 -35t-37 -35h-551q-35 0 -35 35z" />
<glyph unicode="&#x102;" horiz-adv-x="1363" d="M81 24q-2 6 -2 11q0 7 3 14l567 1311q10 23 35 22q20 0 33 -26l569 -1307q3 -6 3 -12.5t-3 -12.5q-6 -13 -18 -20q-8 -3 -16 -3q-6 0 -12 2q-13 5 -17 20l-195 442h-692l-191 -442q-4 -14 -17 -20q-6 -2 -12 -2q-8 0 -16 3q-14 7 -19 20zM317 1786q0 16 9.5 25.5 t23.5 9.5q37 0 37 -35q0 -51 31 -96t77 -78t96 -51.5t85 -18.5q37 0 86 18.5t95 51.5t78 78t32 96q0 16 10 25.5t24 9.5q35 0 35 -35q0 -59 -30.5 -114.5t-81 -99.5t-116 -71.5t-132.5 -27.5q-70 0 -134.5 27.5t-114.5 71.5t-80 99.5t-30 114.5zM367 535h632l-315 727z" />
<glyph unicode="&#x103;" horiz-adv-x="1232" d="M88 526.5q0 108.5 42 204.5t113.5 168t167 113t203.5 41q106 0 202.5 -41t168.5 -112t115 -166t43 -204v-495q0 -35 -35 -35t-35 35v239q-70 -121 -190.5 -197.5t-268.5 -76.5q-109 0 -204 41t-166.5 112.5t-113.5 168t-42 205zM158 526q0 -94 35.5 -178t98 -145.5 t145.5 -97t177.5 -35.5t177 35.5t145 97t99.5 145.5t37 178q0 92 -37 176t-99.5 145.5t-145 98.5t-177 37t-177.5 -37t-145.5 -98.5t-98 -145.5t-35.5 -176zM248 1458q0 16 9 25.5t24 9.5q37 0 36 -35q0 -51 31 -96t77 -78t96 -51.5t85 -18.5q37 0 86 18.5t95.5 51.5t78 78 t31.5 96q0 16 10.5 25.5t24.5 9.5q35 0 35 -35q0 -59 -31 -114.5t-81 -99.5t-115.5 -71.5t-133.5 -27.5q-70 0 -134 27.5t-114.5 71.5t-80 99.5t-29.5 114.5z" />
<glyph unicode="&#x104;" horiz-adv-x="1363" d="M81 24q-2 6 -2 11q0 7 3 14l567 1311q10 23 35 22q20 0 33 -26l569 -1307q6 -12 0 -25.5t-18 -19.5q-14 -6 -27.5 -1t-17.5 20l-195 442h-692l-191 -442q-4 -14 -17 -19.5t-27.5 1t-19.5 19.5zM367 535h632l-315 727zM1116 -197q0 35 16.5 57.5t32.5 53.5 q16 25 31.5 57.5t24.5 63.5h69q-6 -29 -22.5 -74t-34.5 -72q-12 -20 -29.5 -37.5t-17.5 -48.5q0 -49 26.5 -72.5t69.5 -23.5q49 0 66.5 28.5t27.5 63.5q8 35 35 35q35 0 35 -35t-15.5 -64.5t-38 -51t-53 -33.5t-57.5 -12q-70 0 -118 48.5t-48 116.5z" />
<glyph unicode="&#x105;" horiz-adv-x="1226" d="M88 526.5q0 108.5 42 204.5t113.5 168t167 113t203.5 41q106 0 202.5 -41t168.5 -112t115 -166t43 -204v-495q0 -35 -35 -35t-35 35v239q-70 -121 -190.5 -197.5t-268.5 -76.5q-109 0 -204 41t-166.5 112.5t-113.5 168t-42 205zM158 526q0 -94 35.5 -178t98 -145.5 t145.5 -97t177.5 -35.5t177 35.5t145 97t99.5 145.5t37 178q0 92 -37 176t-99.5 145.5t-145 98.5t-177 37t-177.5 -37t-145.5 -98.5t-98 -145.5t-35.5 -176zM969 -199q0 35 16 57.5t33 53.5q16 25 31.5 57.5t23.5 63.5h70q-6 -29 -22.5 -74t-35.5 -72q-12 -20 -29.5 -37.5 t-17.5 -48.5q0 -49 27 -72.5t70 -23.5q49 0 66.5 28.5t27.5 63.5q8 35 35 35q35 0 34.5 -35t-15.5 -64.5t-37.5 -51t-53.5 -34t-57 -12.5q-70 0 -118 49t-48 117z" />
<glyph unicode="&#x106;" horiz-adv-x="1388" d="M84 690q0 106 31.5 204.5t87 181.5t132.5 148.5t171 104.5q63 27 128.5 40t135.5 13q141 0 271 -53t225 -149q16 -18 20 -25.5t4 -17.5q0 -29 -33 -29q-8 0 -15 3t-23 19q-88 88 -203 135.5t-242 47.5q-129 0 -241.5 -48t-196.5 -133t-133 -199t-49 -243 q0 -131 49 -243.5t133 -195.5t196.5 -132t241.5 -49q143 0 274.5 60t215.5 171q8 14 26 14q35 0 35 -34q0 -10 -10 -23q-92 -119 -234.5 -188.5t-306.5 -69.5q-143 0 -268 54.5t-219 147.5t-148.5 219t-54.5 269zM668 1504q-2 6 -2 12q0 8 4 14l190 328q4 12 18 16q4 1 9 1 q10 0 22 -5q19 -14 19 -31q0 -9 -4 -18l-189 -328q-6 -10 -20 -14q-6 -2 -12 -2q-9 0 -17 4q-14 8 -18 23z" />
<glyph unicode="&#x107;" horiz-adv-x="1079" d="M88 526.5q0 108.5 42 204.5t113.5 168t167 113t203.5 41q106 0 200.5 -40t166.5 -110q10 -10 10 -26q0 -35 -35 -35q-16 0 -24 10q-63 61 -143 96t-174.5 35t-177.5 -37t-145.5 -98.5t-98 -145.5t-35.5 -176q0 -94 35.5 -178t98 -145.5t145.5 -97t177 -35.5 q90 0 171 34.5t145 90.5q10 12 24 12q35 0 35 -35q0 -12 -8 -25q-63 -76 -160.5 -111.5t-206 -35.5t-204 41t-167 112.5t-113.5 168t-42 205zM487 1181q-2 6 -1 11q0 8 3 14l191 328q4 12 17 16q4 1 10 2q10 0 22 -6q19 -14 19 -31q0 -9 -5 -18l-188 -328q-6 -10 -20 -14 q-6 -2 -12 -2q-9 0 -17 4q-15 9 -19 24z" />
<glyph unicode="&#x108;" horiz-adv-x="1388" d="M84 690q0 106 31.5 204.5t87 181.5t132.5 148.5t171 104.5q63 27 128.5 40t135.5 13q141 0 271 -53t225 -149q16 -18 20 -25.5t4 -17.5q0 -29 -33 -29q-8 0 -15 3t-23 19q-88 88 -203 135.5t-242 47.5q-129 0 -241.5 -48t-196.5 -133t-133 -199t-49 -243 q0 -131 49 -243.5t133 -195.5t196.5 -132t241.5 -49q143 0 274.5 60t215.5 171q8 14 26 14q35 0 35 -34q0 -10 -10 -23q-92 -119 -234.5 -188.5t-306.5 -69.5q-143 0 -268 54.5t-219 147.5t-148.5 219t-54.5 269zM383 1503q0 14 10 25l324 309q8 8 24.5 8t26.5 -10l322 -299 q12 -12 13 -19.5t1 -11.5q0 -25 -21.5 -31t-40.5 11l-299 280l-297 -284q-16 -11 -30 -12q-6 0 -13 2q-20 7 -20 32z" />
<glyph unicode="&#x109;" horiz-adv-x="1079" d="M88 526.5q0 108.5 42 204.5t113.5 168t167 113t203.5 41q106 0 200.5 -40t166.5 -110q10 -10 10 -26q0 -35 -35 -35q-16 0 -24 10q-63 61 -143 96t-174.5 35t-177.5 -37t-145.5 -98.5t-98 -145.5t-35.5 -176q0 -94 35.5 -178t98 -145.5t145.5 -97t177 -35.5 q90 0 171 34.5t145 90.5q10 12 24 12q35 0 35 -35q0 -12 -8 -25q-63 -76 -160.5 -111.5t-206 -35.5t-204 41t-167 112.5t-113.5 168t-42 205zM225 1174q0 14 11 24l323 309q8 8 24.5 8.5t26.5 -10.5l322 -299q12 -12 13 -19t1 -11q0 -25 -21.5 -31t-39.5 10l-299 281 l-297 -285q-16 -11 -31 -11q-6 0 -12 2q-21 7 -21 32z" />
<glyph unicode="&#x10a;" horiz-adv-x="1388" d="M84 690q0 106 31.5 204.5t87 181.5t132.5 148.5t171 104.5q63 27 128.5 40t135.5 13q141 0 271 -53t225 -149q16 -18 20 -25.5t4 -17.5q0 -29 -33 -29q-8 0 -15 3t-23 19q-88 88 -203 135.5t-242 47.5q-129 0 -241.5 -48t-196.5 -133t-133 -199t-49 -243 q0 -131 49 -243.5t133 -195.5t196.5 -132t241.5 -49q143 0 274.5 60t215.5 171q8 14 26 14q35 0 35 -34q0 -10 -10 -23q-92 -119 -234.5 -188.5t-306.5 -69.5q-143 0 -268 54.5t-219 147.5t-148.5 219t-54.5 269zM655 1530q0 23 14.5 39t39.5 16q23 0 38 -16.5t15 -38.5 q0 -25 -15.5 -39t-37.5 -14q-25 0 -39.5 14t-14.5 39z" />
<glyph unicode="&#x10b;" horiz-adv-x="1079" d="M88 526.5q0 108.5 42 204.5t113.5 168t167 113t203.5 41q106 0 200.5 -40t166.5 -110q10 -10 10 -26q0 -35 -35 -35q-16 0 -24 10q-63 61 -143 96t-174.5 35t-177.5 -37t-145.5 -98.5t-98 -145.5t-35.5 -176q0 -94 35.5 -178t98 -145.5t145.5 -97t177 -35.5 q90 0 171 34.5t145 90.5q10 12 24 12q35 0 35 -35q0 -12 -8 -25q-63 -76 -160.5 -111.5t-206 -35.5t-204 41t-167 112.5t-113.5 168t-42 205zM504 1257q0 23 14 39.5t39 16.5q23 0 38 -16.5t15 -39.5q0 -25 -15 -39t-38 -14q-25 0 -39 14t-14 39z" />
<glyph unicode="&#x10c;" horiz-adv-x="1388" d="M84 690q0 106 31.5 204.5t87 181.5t132.5 148.5t171 104.5q63 27 128.5 40t135.5 13q141 0 271 -53t225 -149q16 -18 20 -25.5t4 -17.5q0 -29 -33 -29q-8 0 -15 3t-23 19q-88 88 -203 135.5t-242 47.5q-129 0 -241.5 -48t-196.5 -133t-133 -199t-49 -243 q0 -131 49 -243.5t133 -195.5t196.5 -132t241.5 -49q143 0 274.5 60t215.5 171q8 14 26 14q35 0 35 -34q0 -10 -10 -23q-92 -119 -234.5 -188.5t-306.5 -69.5q-143 0 -268 54.5t-219 147.5t-148.5 219t-54.5 269zM389 1812q0 25 21 32q6 2 12 2q15 0 31 -11l297 -285 l299 281q18 16 39.5 10t21.5 -31q0 -4 -1 -11t-13 -19l-322 -299q-10 -10 -26.5 -10.5t-24.5 8.5l-324 307q-10 12 -10 26z" />
<glyph unicode="&#x10d;" horiz-adv-x="1079" d="M88 526.5q0 108.5 42 204.5t113.5 168t167 113t203.5 41q106 0 200.5 -40t166.5 -110q10 -10 10 -26q0 -35 -35 -35q-16 0 -24 10q-63 61 -143 96t-174.5 35t-177.5 -37t-145.5 -98.5t-98 -145.5t-35.5 -176q0 -94 35.5 -178t98 -145.5t145.5 -97t177 -35.5 q90 0 171 34.5t145 90.5q10 12 24 12q35 0 35 -35q0 -12 -8 -25q-63 -76 -160.5 -111.5t-206 -35.5t-204 41t-167 112.5t-113.5 168t-42 205zM223 1491q0 25 21 32q6 2 12 2q15 0 31 -12l297 -284l299 280q18 16 39.5 10t21.5 -30q0 -4 -1 -11.5t-13 -19.5l-322 -299 q-10 -10 -26.5 -10t-24.5 8l-324 307q-10 13 -10 27z" />
<glyph unicode="&#x10e;" horiz-adv-x="1316" d="M92 35v1313q0 16 10.5 25t22.5 9h395q143 0 270.5 -54t221.5 -147.5t148 -220t54 -270t-54 -269.5t-148 -219t-221 -147.5t-271 -54.5h-395q-12 0 -22.5 10.5t-10.5 24.5zM160 70h360q129 0 243 49t199 133t134 197.5t49 240.5q0 133 -49 247t-134 198t-199 131t-243 47 h-360v-1243zM201 1815q0 25 20 31q6 2 13 2q15 0 30 -11l297 -285l299 281q18 16 40 10t22 -31q0 -4 -1 -11t-14 -19l-321 -299q-10 -10 -26.5 -10t-24.5 8l-324 307q-10 13 -10 27z" />
<glyph unicode="&#x10f;" horiz-adv-x="1576" d="M80 528.5q0 108.5 42 203.5t112.5 167t168 113t205.5 41q147 0 266 -77t189 -196v568q0 35 35 34.5t35 -34.5v-1313q0 -35 -35 -35t-35 35v229q-66 -119 -186.5 -191.5t-268.5 -72.5q-109 0 -204 41t-166.5 112.5t-114.5 169t-43 206zM150 528q0 -94 36.5 -178t99 -145.5 t145.5 -98t177 -36.5q90 0 172 34.5t143.5 95t98.5 140.5t41 170v18q0 92 -36 176t-97.5 145.5t-145.5 97.5t-176 36q-94 0 -177 -36t-145.5 -97.5t-99 -145.5t-36.5 -176zM1221 1057l190 329q10 14 24 17h5q11 0 24 -6q16 -14 17 -30q0 -8 -4 -17l-191 -330q-6 -10 -19 -15 q-5 -2 -11 -2q-8 0 -17 5q-23 14 -23 32q1 8 5 17z" />
<glyph unicode="&#x110;" horiz-adv-x="1476" d="M49 772q0 14 10.5 24.5t24.5 10.5h715q18 0 28.5 -10.5t10.5 -24.5q0 -35 -39 -35h-715q-35 0 -35 35zM283 35v1313q0 16 10 25t24 9h396q143 0 270 -54t220 -147.5t147.5 -220t54.5 -270t-54.5 -269.5t-147.5 -219t-220 -147.5t-270 -54.5h-396q-14 0 -24 10.5t-10 24.5 zM352 70h361q127 0 241.5 49t198.5 133t133 197.5t49 240.5q0 133 -49 247t-133 198t-198.5 131t-241.5 47h-361v-1243z" />
<glyph unicode="&#x111;" horiz-adv-x="1505" d="M80 528.5q0 108.5 42 203.5t112.5 167t168 113t205.5 41q147 0 266 -77t189 -196v568q0 35 35 34.5t35 -34.5v-1313q0 -35 -35 -35t-35 35v229q-66 -119 -186.5 -191.5t-268.5 -72.5q-109 0 -204 41t-166.5 112.5t-114.5 169t-43 206zM150 528q0 -94 36.5 -178t99 -145.5 t145.5 -98t177 -36.5q90 0 172 34.5t143.5 95t98.5 140.5t41 170v18q0 92 -36 176t-97.5 145.5t-145.5 97.5t-176 36q-94 0 -177 -36t-145.5 -97.5t-99 -145.5t-36.5 -176zM659 1206q0 14 10.5 24.5t24.5 10.5h715q16 0 27.5 -10t11.5 -25q0 -35 -39 -35h-715q-35 0 -35 35z " />
<glyph unicode="&#x112;" horiz-adv-x="927" d="M80 35v1313q0 35 35 34h696q35 0 35 -34.5t-35 -34.5h-661v-578h428q35 0 34.5 -34.5t-34.5 -34.5h-428v-596h661q35 0 35 -35t-35 -35h-696q-35 0 -35 35zM166 1505q0 14 10 24.5t25 10.5h551q37 0 36.5 -35t-36.5 -35h-551q-35 0 -35 35z" />
<glyph unicode="&#x113;" d="M84 526.5q0 108.5 42 204.5t113.5 168t167 113t203.5 41q106 0 201.5 -41t167.5 -112t114 -166t44 -202v-4v-2q-4 -33 -35 -32h-948q6 -90 45 -167t100 -133.5t141 -90t170 -33.5t169 32.5t141 87.5q25 25 51 3q23 -23 2 -50q-70 -63 -164 -103t-199 -40q-109 0 -204 41 t-166.5 112.5t-113.5 168t-42 205zM154 563h911q-6 86 -45 163t-100.5 133t-141.5 90t-168 34q-90 0 -170 -34t-140 -90t-100 -133t-46 -163zM311 1192q0 14 10.5 24.5t24.5 10.5h551q37 0 37 -35t-37 -35h-551q-35 0 -35 35z" />
<glyph unicode="&#x114;" horiz-adv-x="927" d="M80 35v1313q0 35 35 34h696q35 0 35 -34.5t-35 -34.5h-661v-578h428q35 0 34.5 -34.5t-34.5 -34.5h-428v-596h661q35 0 35 -35t-35 -35h-696q-35 0 -35 35zM96 1778q0 16 9.5 25t23.5 9q37 0 37 -34q0 -51 30.5 -96.5t76.5 -78t96.5 -51t85.5 -18.5q37 0 86 18.5t95 51 t77.5 77.5t31.5 97q0 16 10.5 25t24.5 9q35 0 35 -34q0 -59 -30.5 -114.5t-81 -99.5t-116 -72t-132.5 -28q-70 0 -134.5 28t-114.5 72t-80 99.5t-30 114.5z" />
<glyph unicode="&#x115;" d="M84 526.5q0 108.5 42 204.5t113.5 168t167 113t203.5 41q106 0 201.5 -41t167.5 -112t114 -166t44 -202v-4v-2q-4 -33 -35 -32h-948q6 -90 45 -167t100 -133.5t141 -90t170 -33.5t169 32.5t141 87.5q25 25 51 3q23 -23 2 -50q-70 -63 -164 -103t-199 -40q-109 0 -204 41 t-166.5 112.5t-113.5 168t-42 205zM154 563h911q-6 86 -45 163t-100.5 133t-141.5 90t-168 34q-90 0 -170 -34t-140 -90t-100 -133t-46 -163zM238 1458q0 16 9 25.5t23 9.5q37 0 37 -35q0 -51 31 -96t77 -78t96 -51.5t85 -18.5q37 0 86 18.5t95 51.5t78 78t32 96 q0 16 10 25.5t25 9.5q35 0 34 -35q0 -59 -30.5 -114.5t-80.5 -99.5t-115.5 -71.5t-133.5 -27.5q-70 0 -134.5 27.5t-114.5 71.5t-79.5 99.5t-29.5 114.5z" />
<glyph unicode="&#x116;" horiz-adv-x="927" d="M80 35v1313q0 35 35 34h696q35 0 35 -34.5t-35 -34.5h-661v-578h428q35 0 34.5 -34.5t-34.5 -34.5h-428v-596h661q35 0 35 -35t-35 -35h-696q-35 0 -35 35zM371 1534q0 23 14 39t39 16q23 0 38 -16.5t15 -38.5q0 -25 -15.5 -39t-37.5 -14q-25 0 -39 14t-14 39z" />
<glyph unicode="&#x117;" d="M84 526.5q0 108.5 42 204.5t113.5 168t167 113t203.5 41q106 0 201.5 -41t167.5 -112t114 -166t44 -202v-4v-2q-4 -33 -35 -32h-948q6 -90 45 -167t100 -133.5t141 -90t170 -33.5t169 32.5t141 87.5q25 25 51 3q23 -23 2 -50q-70 -63 -164 -103t-199 -40q-109 0 -204 41 t-166.5 112.5t-113.5 168t-42 205zM154 563h911q-6 86 -45 163t-100.5 133t-141.5 90t-168 34q-90 0 -170 -34t-140 -90t-100 -133t-46 -163zM516 1257q0 23 14.5 39.5t38.5 16.5q23 0 38.5 -16.5t15.5 -39.5q0 -25 -15.5 -39t-38.5 -14q-25 0 -39 14t-14 39z" />
<glyph unicode="&#x118;" horiz-adv-x="927" d="M80 35v1313q0 35 35 34h696q35 0 35 -34.5t-35 -34.5h-661v-578h428q35 0 34.5 -34.5t-34.5 -34.5h-428v-596h661q35 0 35 -35t-35 -35h-696q-35 0 -35 35zM324 -217q0 35 16 57.5t33 53.5q16 25 31.5 57.5t23.5 62.5h70q-6 -29 -22.5 -73.5t-35.5 -71.5 q-12 -20 -29.5 -37.5t-17.5 -48.5q0 -49 26.5 -72.5t69.5 -23.5q49 0 66.5 28.5t28.5 63.5q8 35 34 35q35 0 35 -35t-15 -64.5t-37.5 -51t-53.5 -34t-58 -12.5q-70 0 -117.5 49t-47.5 117z" />
<glyph unicode="&#x119;" d="M84 526.5q0 108.5 42 204.5t113.5 168t167 113t203.5 41q106 0 201.5 -41t167.5 -112t114 -166t44 -202v-4v-2q-4 -33 -35 -32h-948q6 -90 45 -167t100 -133.5t141 -90t170 -33.5t169 32.5t141 87.5q25 25 51 3q23 -23 2 -50q-70 -63 -164 -103t-199 -40q-109 0 -204 41 t-166.5 112.5t-113.5 168t-42 205zM154 563h911q-6 86 -45 163t-100.5 133t-141.5 90t-168 34q-90 0 -170 -34t-140 -90t-100 -133t-46 -163zM469 -217q0 35 16.5 57.5t32.5 53.5q16 25 31.5 57.5t23.5 62.5h70q-6 -29 -22.5 -73.5t-34.5 -71.5q-12 -20 -29.5 -37.5 t-17.5 -48.5q0 -49 26.5 -72.5t69.5 -23.5q49 0 66.5 28.5t27.5 63.5q8 35 35 35q35 0 35 -35t-15.5 -64.5t-38 -51t-53 -34t-57.5 -12.5q-70 0 -118 49t-48 117z" />
<glyph unicode="&#x11a;" horiz-adv-x="927" d="M80 35v1313q0 35 35 34h696q35 0 35 -34.5t-35 -34.5h-661v-578h428q35 0 34.5 -34.5t-34.5 -34.5h-428v-596h661q35 0 35 -35t-35 -35h-696q-35 0 -35 35zM109 1808q0 25 20 32q6 2 13 2q15 0 30 -11l297 -285l299 281q18 16 39.5 10t21.5 -31q0 -4 -1 -11t-13 -19 l-321 -299q-10 -10 -26.5 -10.5t-25.5 8.5l-323 307q-10 12 -10 26z" />
<glyph unicode="&#x11b;" d="M84 526.5q0 108.5 42 204.5t113.5 168t167 113t203.5 41q106 0 201.5 -41t167.5 -112t114 -166t44 -202v-4v-2q-4 -33 -35 -32h-948q6 -90 45 -167t100 -133.5t141 -90t170 -33.5t169 32.5t141 87.5q25 25 51 3q23 -23 2 -50q-70 -63 -164 -103t-199 -40q-109 0 -204 41 t-166.5 112.5t-113.5 168t-42 205zM154 563h911q-6 86 -45 163t-100.5 133t-141.5 90t-168 34q-90 0 -170 -34t-140 -90t-100 -133t-46 -163zM238 1503q0 25 20 32q6 2 13 2q15 0 30 -11l297 -285l299 281q18 16 39.5 10t21.5 -31q0 -4 -1 -11t-13 -20l-321 -299 q-10 -10 -26.5 -10t-25.5 8l-323 308q-10 12 -10 26z" />
<glyph unicode="&#x11c;" horiz-adv-x="1536" d="M82 690q0 106 31.5 204.5t87 181.5t132.5 148.5t171 104.5q121 53 262 53t272 -53t224 -149l14 -17q25 -25 0 -47q-10 -10 -23.5 -10t-23.5 10l-15 14q-86 88 -200.5 135.5t-241.5 47.5q-129 0 -241.5 -48t-196.5 -133t-133 -199t-49 -243q0 -131 49 -243.5t133 -195.5 t196.5 -132t241.5 -49q96 0 185.5 26.5t164 76.5t133 121t93.5 155q16 39 26 79h-373q-35 0 -34.5 35t34.5 35h418q16 0 27 -12q7 -9 7 -21q0 -5 -1 -10q-14 -74 -41 -133q-39 -94 -104.5 -171t-147.5 -132.5t-181 -87t-206 -31.5q-143 0 -269 54.5t-219.5 147.5t-147.5 219 t-54 269zM393 1503q0 14 10 25l324 309q8 8 24.5 8t26.5 -10l322 -299q12 -12 13 -19.5t1 -11.5q0 -25 -21.5 -31t-39.5 11l-299 280l-297 -284q-16 -11 -31 -12q-6 0 -12 2q-21 7 -21 32z" />
<glyph unicode="&#x11d;" horiz-adv-x="1232" d="M88 526.5q0 108.5 43 204.5t114.5 168t167 113t203.5 41q147 0 268.5 -73t188.5 -192v230q0 35 35 35t35 -35v-918q0 -109 -42 -205t-114 -165.5t-167 -111.5t-204 -42q-104 0 -198 41t-164 102q-10 12 -9 25.5t11 26.5q10 10 24.5 9t24.5 -11q63 -57 142 -90t169 -33 q88 0 169 33.5t142.5 90t99.5 133.5t46 167v204q-70 -121 -189.5 -197.5t-267.5 -76.5q-109 0 -205 41t-167.5 112.5t-113.5 168t-42 205zM158 526q0 -94 36.5 -178t99 -145.5t145.5 -97t177.5 -35.5t177.5 35.5t145 97t98 145.5t36 178v17q-4 92 -42 171t-99.5 139t-142 95 t-173.5 35q-94 0 -177 -37t-145.5 -98.5t-99 -145.5t-36.5 -176zM262 1151q0 14 10 25l324 309q8 8 24.5 8t26.5 -10l322 -299q12 -12 13 -19.5t1 -11.5q0 -25 -21.5 -31t-39.5 11l-299 280l-297 -285q-16 -11 -31 -11q-6 0 -12 2q-21 7 -21 32z" />
<glyph unicode="&#x11e;" horiz-adv-x="1536" d="M82 690q0 106 31.5 204.5t87 181.5t132.5 148.5t171 104.5q121 53 262 53t272 -53t224 -149l14 -17q25 -25 0 -47q-10 -10 -23.5 -10t-23.5 10l-15 14q-86 88 -200.5 135.5t-241.5 47.5q-129 0 -241.5 -48t-196.5 -133t-133 -199t-49 -243q0 -131 49 -243.5t133 -195.5 t196.5 -132t241.5 -49q96 0 185.5 26.5t164 76.5t133 121t93.5 155q16 39 26 79h-373q-35 0 -34.5 35t34.5 35h418q16 0 27 -12q7 -9 7 -21q0 -5 -1 -10q-14 -74 -41 -133q-39 -94 -104.5 -171t-147.5 -132.5t-181 -87t-206 -31.5q-143 0 -269 54.5t-219.5 147.5t-147.5 219 t-54 269zM383 1782q0 16 9 25.5t24 9.5q37 0 37 -35q0 -51 30.5 -96.5t76.5 -78t96.5 -51t84.5 -18.5q37 0 86.5 18.5t95.5 51t77.5 78t31.5 96.5q0 16 10.5 25.5t24.5 9.5q35 0 35 -35q0 -59 -31 -114.5t-81 -99.5t-115.5 -72t-133.5 -28q-70 0 -134 28t-114.5 72t-80 99.5 t-29.5 114.5z" />
<glyph unicode="&#x11f;" horiz-adv-x="1232" d="M88 526.5q0 108.5 43 204.5t114.5 168t167 113t203.5 41q147 0 268.5 -73t188.5 -192v230q0 35 35 35t35 -35v-918q0 -109 -42 -205t-114 -165.5t-167 -111.5t-204 -42q-104 0 -198 41t-164 102q-10 12 -9 25.5t11 26.5q10 10 24.5 9t24.5 -11q63 -57 142 -90t169 -33 q88 0 169 33.5t142.5 90t99.5 133.5t46 167v204q-70 -121 -189.5 -197.5t-267.5 -76.5q-109 0 -205 41t-167.5 112.5t-113.5 168t-42 205zM158 526q0 -94 36.5 -178t99 -145.5t145.5 -97t177.5 -35.5t177.5 35.5t145 97t98 145.5t36 178v17q-4 92 -42 171t-99.5 139t-142 95 t-173.5 35q-94 0 -177 -37t-145.5 -98.5t-99 -145.5t-36.5 -176zM272 1466q0 16 9.5 25.5t23.5 9.5q37 0 37 -35q0 -51 30.5 -96t77 -77.5t96.5 -51t85 -18.5q37 0 86 18.5t95 51t78 77.5t32 96q0 16 10 25.5t24 9.5q35 0 35 -35q0 -59 -30.5 -114.5t-81 -99.5t-116 -71.5 t-132.5 -27.5q-70 0 -134.5 27.5t-114.5 71.5t-80 99.5t-30 114.5z" />
<glyph unicode="&#x120;" horiz-adv-x="1536" d="M82 690q0 106 31.5 204.5t87 181.5t132.5 148.5t171 104.5q121 53 262 53t272 -53t224 -149l14 -17q25 -25 0 -47q-10 -10 -23.5 -10t-23.5 10l-15 14q-86 88 -200.5 135.5t-241.5 47.5q-129 0 -241.5 -48t-196.5 -133t-133 -199t-49 -243q0 -131 49 -243.5t133 -195.5 t196.5 -132t241.5 -49q96 0 185.5 26.5t164 76.5t133 121t93.5 155q16 39 26 79h-373q-35 0 -34.5 35t34.5 35h418q16 0 27 -12q7 -9 7 -21q0 -5 -1 -10q-14 -74 -41 -133q-39 -94 -104.5 -171t-147.5 -132.5t-181 -87t-206 -31.5q-143 0 -269 54.5t-219.5 147.5t-147.5 219 t-54 269zM666 1532q0 23 14 39t39 16q23 0 38 -16.5t15 -38.5q0 -25 -15.5 -39t-37.5 -14q-25 0 -39 14t-14 39z" />
<glyph unicode="&#x121;" horiz-adv-x="1232" d="M88 526.5q0 108.5 43 204.5t114.5 168t167 113t203.5 41q147 0 268.5 -73t188.5 -192v230q0 35 35 35t35 -35v-918q0 -109 -42 -205t-114 -165.5t-167 -111.5t-204 -42q-104 0 -198 41t-164 102q-10 12 -9 25.5t11 26.5q10 10 24.5 9t24.5 -11q63 -57 142 -90t169 -33 q88 0 169 33.5t142.5 90t99.5 133.5t46 167v204q-70 -121 -189.5 -197.5t-267.5 -76.5q-109 0 -205 41t-167.5 112.5t-113.5 168t-42 205zM158 526q0 -94 36.5 -178t99 -145.5t145.5 -97t177.5 -35.5t177.5 35.5t145 97t98 145.5t36 178v17q-4 92 -42 171t-99.5 139t-142 95 t-173.5 35q-94 0 -177 -37t-145.5 -98.5t-99 -145.5t-36.5 -176zM514 1249q0 23 14.5 39.5t38.5 16.5q23 0 38.5 -16.5t15.5 -39.5q0 -25 -15.5 -39t-38.5 -14q-25 0 -39 14t-14 39z" />
<glyph unicode="&#x122;" horiz-adv-x="1536" d="M82 690q0 106 31.5 204.5t87 181.5t132.5 148.5t171 104.5q121 53 262 53t272 -53t224 -149l14 -17q25 -25 0 -47q-10 -10 -23.5 -10t-23.5 10l-15 14q-86 88 -200.5 135.5t-241.5 47.5q-129 0 -241.5 -48t-196.5 -133t-133 -199t-49 -243q0 -131 49 -243.5t133 -195.5 t196.5 -132t241.5 -49q96 0 185.5 26.5t164 76.5t133 121t93.5 155q16 39 26 79h-373q-35 0 -34.5 35t34.5 35h418q16 0 27 -12q7 -9 7 -21q0 -5 -1 -10q-14 -74 -41 -133q-39 -94 -104.5 -171t-147.5 -132.5t-181 -87t-206 -31.5q-143 0 -269 54.5t-219.5 147.5t-147.5 219 t-54 269zM729 -250q0 16 10.5 27.5t26.5 11.5q18 0 27.5 -11t9.5 -28v-356q0 -12 -9.5 -23.5t-27.5 -11.5q-14 0 -25.5 10t-11.5 25v356z" />
<glyph unicode="&#x123;" horiz-adv-x="1232" d="M88 526.5q0 108.5 43 204.5t114.5 168t167 113t203.5 41q147 0 268.5 -73t188.5 -192v230q0 35 35 35t35 -35v-918q0 -109 -42 -205t-114 -165.5t-167 -111.5t-204 -42q-104 0 -198 41t-164 102q-10 12 -9 25.5t11 26.5q10 10 24.5 9t24.5 -11q63 -57 142 -90t169 -33 q88 0 169 33.5t142.5 90t99.5 133.5t46 167v204q-70 -121 -189.5 -197.5t-267.5 -76.5q-109 0 -205 41t-167.5 112.5t-113.5 168t-42 205zM158 526q0 -94 36.5 -178t99 -145.5t145.5 -97t177.5 -35.5t177.5 35.5t145 97t98 145.5t36 178v17q-4 92 -42 171t-99.5 139t-142 95 t-173.5 35q-94 0 -177 -37t-145.5 -98.5t-99 -145.5t-36.5 -176zM375 1505q-4 9 -4 17q0 16 16 30q13 7 25 7h6q14 -2 22 -17l191 -330q5 -10 5 -18q0 -17 -22 -31q-10 -5 -19 -5q-6 0 -10 2q-13 5 -20 16z" />
<glyph unicode="&#x124;" horiz-adv-x="1148" d="M104 35v1313q0 35 35 34.5t35 -34.5v-672h803v672q0 35 35 34.5t35 -34.5v-1313q0 -35 -35 -35t-35 35v571h-803v-571q0 -35 -35 -35t-35 35zM209 1503q0 14 10 25l324 309q8 8 24.5 8t26.5 -10l321 -299q12 -12 13.5 -19.5t1.5 -11.5q0 -25 -21.5 -31t-40.5 11l-299 280 l-297 -284q-16 -11 -30 -12q-6 0 -13 2q-20 7 -20 32z" />
<glyph unicode="&#x125;" horiz-adv-x="946" d="M88 1483q0 14 10 24l324 310q8 8 24.5 8t26.5 -10l322 -299q12 -12 13 -19.5t1 -11.5q0 -25 -21.5 -31t-39.5 10l-299 281l-297 -285q-23 -16 -43.5 -9t-20.5 32zM102 35v1313q0 16 11.5 25t23.5 9q35 0 35 -34v-463q68 98 152 133t159 35q78 0 146.5 -31t120 -81 t80 -119.5t28.5 -147.5v-639q0 -14 -10 -24.5t-25 -10.5q-35 0 -35 35v639q0 63 -23.5 120.5t-65.5 98.5t-97 64.5t-119 23.5q-66 0 -121 -23.5t-96 -63.5t-66.5 -94.5t-27.5 -115.5v-649q0 -35 -35 -35q-12 0 -23.5 10.5t-11.5 24.5z" />
<glyph unicode="&#x126;" horiz-adv-x="1148" d="M104 35v1313q0 35 35 34.5t35 -34.5v-672h803v672q0 35 35 34.5t35 -34.5v-1313q0 -35 -35 -35t-35 35v571h-803v-571q0 -35 -35 -35t-35 35zM272 1106q0 14 10.5 24.5t24.5 10.5h551q37 0 37 -35t-37 -35h-551q-35 0 -35 35z" />
<glyph unicode="&#x127;" horiz-adv-x="1009" d="M57 1229q0 12 9.5 23.5t25.5 11.5h713q18 0 28.5 -11.5t10.5 -23.5q0 -35 -39 -35h-713q-35 0 -35 35zM170 35v1313q0 16 10 25t25 9q35 0 35 -34v-463q66 98 149.5 133t159.5 35q78 0 146.5 -31t119.5 -81t81 -119.5t30 -147.5v-639q0 -14 -11.5 -24.5t-23.5 -10.5 q-35 0 -35 35v639q0 63 -24.5 120.5t-66.5 98.5t-97.5 64.5t-118.5 23.5q-66 0 -121 -23.5t-96 -63.5t-65.5 -94.5t-26.5 -115.5v-649q0 -35 -35 -35q-14 0 -24.5 10.5t-10.5 24.5z" />
<glyph unicode="&#x128;" horiz-adv-x="327" d="M-256 1536q0 16 8 25q20 23 49 50t61 53t66.5 41t69.5 15q63 0 104 -26.5t76 -58t72 -58.5t94 -27q33 0 60.5 12.5t51 34t42 45t30.5 46.5q4 8 13.5 14t19.5 6q25 0 32 -19q3 -8 3 -16q0 -11 -6 -20q-43 -80 -110.5 -126t-135.5 -46q-66 0 -104.5 26.5t-71.5 58t-71 59.5 t-99 28q-27 0 -53.5 -13.5t-50 -33t-45 -44t-42.5 -42.5q-18 -23 -40.5 -16t-22.5 32zM131 35v1313q0 35 35 34.5t35 -34.5v-1313q0 -35 -35 -35t-35 35z" />
<glyph unicode="&#x129;" horiz-adv-x="348" d="M-221 1202q0 16 8 25q20 23 49 50.5t60.5 53t66.5 40.5t70 15q63 0 104 -26.5t76 -58t72 -58t94 -26.5q33 0 60.5 12t51 33.5t42 45t30.5 46.5q4 8 13.5 14t19.5 6q25 0 32 -19q3 -8 3 -16q0 -11 -6 -20q-43 -80 -111 -126t-135 -46q-66 0 -104.5 26.5t-71.5 58.5 t-71 59.5t-99 27.5q-27 0 -53.5 -13.5t-50 -33t-45 -44t-42.5 -42.5q-18 -23 -40.5 -16t-22.5 32zM135 35v983q0 35 35 35t35 -35v-983q0 -35 -35 -35t-35 35z" />
<glyph unicode="&#x12a;" horiz-adv-x="278" d="M-139 1509q0 14 10 24.5t25 10.5h550q37 0 37 -34.5t-37 -34.5h-550q-35 -1 -35 34zM104 35v1313q0 35 35 34.5t35 -34.5v-1313q0 -35 -35 -35t-35 35z" />
<glyph unicode="&#x12b;" horiz-adv-x="348" d="M-78 1194q0 14 10.5 24.5t24.5 10.5h551q37 0 37 -35t-37 -35h-551q-35 0 -35 35zM133 35v983q0 35 35 35t35 -35v-983q0 -35 -35 -35t-35 35z" />
<glyph unicode="&#x12c;" horiz-adv-x="292" d="M-190 1782q0 16 9 25.5t23 9.5q37 0 37 -35q0 -51 31 -96.5t77 -78t96 -51t85 -18.5q37 0 86 18.5t95 51t78 78t32 96.5q0 16 10 25.5t25 9.5q35 0 34 -35q0 -59 -30.5 -114.5t-80.5 -99.5t-115.5 -72t-133.5 -28q-70 0 -134.5 28t-114.5 72t-79.5 99.5t-29.5 114.5z M119 35v1313q0 35 34.5 34.5t34.5 -34.5v-1313q0 -35 -34.5 -35t-34.5 35z" />
<glyph unicode="&#x12e;" horiz-adv-x="303" d="M14 -197q0 35 16.5 57.5t32.5 53.5q16 25 32 57.5t24 63.5h69q-6 -29 -22 -74t-35 -72q-12 -20 -29.5 -37.5t-17.5 -48.5q0 -49 26.5 -72.5t69.5 -23.5q49 0 66.5 28.5t27.5 63.5q8 35 35 35q35 0 35 -35t-15.5 -64.5t-38 -51t-53 -33.5t-57.5 -12q-70 0 -118 48.5 t-48 116.5zM117 35v1313q0 35 34.5 34.5t34.5 -34.5v-1313q0 -35 -34.5 -35t-34.5 35z" />
<glyph unicode="&#x12f;" horiz-adv-x="333" d="M23 -203q0 35 15 59l34 52q14 25 29.5 58.5t23.5 64.5h70q-6 -29 -22.5 -74t-33.5 -72q-14 -23 -30.5 -40t-16.5 -48q0 -47 26.5 -70.5t67.5 -23.5q51 0 67.5 27.5t29.5 62.5q8 35 34 35q35 0 35 -35t-15 -63.5t-38 -50t-53.5 -34t-59.5 -12.5q-70 0 -116.5 49t-46.5 115 zM102 1208q0 25 16.5 42.5t39.5 17.5q25 0 42 -17.5t17 -42.5q0 -23 -17.5 -39t-41.5 -16q-23 0 -39.5 16t-16.5 39zM125 35v983q0 35 35 35t35 -35v-983q0 -35 -35 -35t-35 35z" />
<glyph unicode="&#x130;" horiz-adv-x="393" d="M92 35v1313q0 35 35 34.5t35 -34.5v-1313q0 -35 -35 -35t-35 35zM238 776q0 23 14 39t39 16q23 0 38 -16t15 -39q0 -25 -15.5 -39t-37.5 -14q-25 0 -39 14t-14 39z" />
<glyph unicode="&#x131;" horiz-adv-x="305" d="M123 35v983q0 35 35 35t35 -35v-983q0 -35 -35 -35t-35 35z" />
<glyph unicode="&#x134;" horiz-adv-x="305" d="M-303 -358q0 35 35 34q84 0 155.5 31t123.5 83t81 123t29 153v1282q0 35 34.5 34.5t34.5 -34.5v-1282q0 -94 -35.5 -177.5t-97 -145.5t-146.5 -99t-179 -37q-14 0 -24.5 10.5t-10.5 24.5zM-211 1483q0 14 10 24l324 310q8 8 24.5 8t26.5 -10l322 -299q12 -12 13 -19.5 t1 -11.5q0 -25 -21.5 -31t-39.5 10l-299 281l-297 -285q-16 -11 -31 -11q-6 0 -12 2q-21 7 -21 32z" />
<glyph unicode="&#x135;" horiz-adv-x="315" d="M-201 1182q0 14 11 24l323 310q8 8 24.5 8t26.5 -11l322 -299q12 -12 13 -19t1 -11q0 -25 -21.5 -31t-39.5 10l-299 281l-297 -285q-23 -16 -43.5 -9t-20.5 32zM-186 -358q0 35 34 34q88 0 142.5 35t84 80t39 91t9.5 69v1067q0 35 35 35t35 -35v-1067q0 -47 -17.5 -106.5 t-58.5 -113t-106.5 -89t-162.5 -35.5q-18 0 -26 11.5t-8 23.5z" />
<glyph unicode="&#x136;" horiz-adv-x="1107" d="M100 35v1313q0 35 35 34.5t35 -34.5v-691l776 721q13 11 25 11q13 0 26 -13q9 -11 10 -22q0 -13 -14 -25l-506 -471l510 -805q6 -10 6 -19q0 -16 -18 -28q-31 -16 -47 10l-502 793l-266 -246v-528q0 -35 -35 -35t-35 35zM498 -250q0 16 10 27.5t27 11.5q18 0 27 -11 t9 -28v-356q0 -12 -9 -23.5t-27 -11.5q-14 0 -25.5 10t-11.5 25v356z" />
<glyph unicode="&#x137;" horiz-adv-x="837" d="M82 35v1315q0 14 11 23t24 9q18 0 26.5 -9t8.5 -23v-836l530 528q10 10 27 11q35 0 34 -35q0 -14 -12 -27l-354 -344l182 -300q90 -151 189 -294q5 -9 5 -18q0 -8 -4 -17q-9 -18 -30 -18t-33 20l-358 572l-176 -174v-383q0 -35 -35 -35q-12 0 -23.5 10.5t-11.5 24.5z M365 -250q0 16 10 27.5t26 11.5q18 0 27.5 -11t9.5 -28v-356q0 -12 -9 -23.5t-28 -11.5q-14 0 -25 10t-11 25v356z" />
<glyph unicode="&#x139;" horiz-adv-x="876" d="M80 1500q-2 6 -2 12q0 8 4 14l190 327q4 12 18 17q4 1 9 1q10 0 23 -5q29 -20 14 -49l-189 -328q-6 -10 -20 -14.5t-29 2.5q-14 8 -18 23zM94 33v1313q0 14 10.5 24t22.5 10q16 0 26.5 -10t10.5 -24v-1276h606q35 0 35 -37q0 -12 -10.5 -22.5t-24.5 -10.5h-647 q-18 0 -23.5 10.5t-5.5 22.5z" />
<glyph unicode="&#x13a;" horiz-adv-x="307" d="M115 1498q-2 6 -2 12q0 8 4 14l190 327q4 12 18 17q4 1 9 1q10 0 22 -5q19 -14 19 -31q0 -9 -4 -18l-189 -328q-6 -10 -20.5 -14.5t-28.5 2.5q-14 8 -18 23zM117 35v1313q0 35 34.5 34.5t34.5 -34.5v-1313q0 -35 -34.5 -35t-34.5 35z" />
<glyph unicode="&#x13b;" horiz-adv-x="856" d="M74 33v1313q0 14 10 24t22 10q16 0 26.5 -10t10.5 -24v-1276h607q35 0 34 -37q0 -12 -10 -22.5t-24 -10.5h-648q-18 0 -23 10.5t-5 22.5zM381 -250q0 16 10 27.5t27 11.5q18 0 27.5 -11t9.5 -28v-356q0 -12 -9.5 -23.5t-27.5 -11.5q-14 0 -25.5 10t-11.5 25v356z" />
<glyph unicode="&#x13c;" horiz-adv-x="292" d="M109 35v1313q0 35 34.5 34.5t34.5 -34.5v-1313q0 -35 -34.5 -35t-34.5 35zM113 -248q0 16 10 27.5t27 11.5q18 0 27 -11t9 -28v-356q0 -12 -9 -23.5t-27 -11.5q-14 0 -25.5 10.5t-11.5 24.5v356z" />
<glyph unicode="&#x13d;" horiz-adv-x="897" d="M-215 1812q0 25 20 32q6 2 13 2q15 0 30 -11l297 -285l299 281q18 16 40 10t22 -31q0 -4 -1 -11t-13 -19l-322 -299q-10 -10 -26.5 -10.5t-24.5 8.5l-324 307q-10 12 -10 26zM115 33v1313q0 14 10 24t22 10q16 0 26.5 -10t10.5 -24v-1276h607q35 0 34 -37 q0 -12 -10 -22.5t-24 -10.5h-648q-18 0 -23 10.5t-5 22.5z" />
<glyph unicode="&#x13e;" horiz-adv-x="622" d="M115 35v1313q0 35 34.5 34.5t34.5 -34.5v-1313q0 -35 -34.5 -35t-34.5 35zM287 811l190 332q8 12 23 14q3 0 6 1q12 0 24 -7q16 -14 17 -29q0 -8 -4 -16l-191 -332q-6 -10 -19 -15q-5 -2 -11 -2q-9 0 -19 5q-22 15 -22 32q1 8 6 17z" />
<glyph unicode="&#x13f;" horiz-adv-x="856" d="M74 33v1313q0 14 10 24t22 10q16 0 26.5 -10t10.5 -24v-1276h607q35 0 34 -37q0 -12 -10 -22.5t-24 -10.5h-648q-18 0 -23 10.5t-5 22.5zM387 522q0 25 16.5 42.5t38.5 17.5q25 0 42.5 -17.5t17.5 -42.5q0 -23 -17.5 -39t-42.5 -16q-23 0 -39 16t-16 39z" />
<glyph unicode="&#x140;" horiz-adv-x="507" d="M109 35v1313q0 35 34.5 34.5t34.5 -34.5v-1313q0 -35 -34.5 -35t-34.5 35zM340 692.5q0 24.5 16.5 42t41 17.5t42 -17.5t17.5 -42t-17.5 -40t-42 -15.5t-41 15.5t-16.5 40z" />
<glyph unicode="&#x141;" horiz-adv-x="1116" d="M57 686q0 12 9.5 23.5t25.5 11.5h715q16 0 27.5 -11.5t11.5 -23.5q0 -35 -39 -35h-715q-35 0 -35 35zM334 33v1313q0 14 10 24t23 10q16 0 26 -10t10 -24v-1276h607q35 0 34 -37q0 -12 -10 -22.5t-24 -10.5h-648q-18 0 -23 10.5t-5 22.5z" />
<glyph unicode="&#x142;" horiz-adv-x="284" d="M-248 686q0 12 9.5 23.5t25.5 11.5h715q16 0 27.5 -11.5t11.5 -23.5q0 -35 -39 -35h-715q-35 0 -35 35zM109 35v1313q0 35 34.5 34.5t34.5 -34.5v-1313q0 -35 -34.5 -35t-34.5 35z" />
<glyph unicode="&#x143;" horiz-adv-x="1196" d="M104 35v1313q0 23 25 32q12 4 24.5 -2t18.5 -16l850 -1219v1205q0 35 35 34.5t35 -34.5v-1313q0 -35 -35 -35q-16 0 -31 14l-852 1223v-1202q0 -35 -35 -35t-35 35zM549 1502q-2 6 -2 12q0 8 4 14l190 327q4 12 18 17q4 1 9 1q10 0 23 -5q19 -14 19 -31q0 -9 -5 -18 l-189 -328q-6 -10 -20 -14q-6 -2 -12 -2q-9 0 -17 4q-14 8 -18 23z" />
<glyph unicode="&#x144;" horiz-adv-x="966" d="M100 45q0 2 2 2t2 -2h-2h-2zM104 45v8v-4v-4zM106 1177q-2 6 -1 11q0 8 4 14l190 328q4 12 17 16q4 1 10 2q10 0 22 -6q29 -20 14 -49l-188 -328q-6 -10 -20.5 -14t-28.5 2q-15 9 -19 24zM111 35v983q0 16 11 25.5t23 9.5q35 0 35 -35v-133q68 98 151 133t160.5 35 t145.5 -31t119 -81t80.5 -119.5t29.5 -147.5v-639q0 -14 -11 -24.5t-24 -10.5q-35 0 -34 35v639q0 63 -23.5 120.5t-66.5 98.5t-98.5 64.5t-116.5 23.5q-66 0 -121.5 -23.5t-97.5 -63.5t-66.5 -94.5t-26.5 -115.5v-649q0 -35 -35 -35q-12 0 -23 10.5t-11 24.5z" />
<glyph unicode="&#x145;" horiz-adv-x="1196" d="M104 35v1313q0 23 25 32q12 4 24.5 -2t18.5 -16l850 -1219v1205q0 35 35 34.5t35 -34.5v-1313q0 -35 -35 -35q-16 0 -31 14l-852 1223v-1202q0 -35 -35 -35t-35 35zM541 -250q0 16 10 27.5t27 11.5q18 0 27 -11t9 -28v-356q0 -12 -9 -23.5t-27 -11.5q-14 0 -25.5 10 t-11.5 25v356z" />
<glyph unicode="&#x146;" horiz-adv-x="968" d="M102 -250q0 16 10.5 27.5t26.5 11.5q18 0 27.5 -11t9.5 -28v-356q0 -12 -9 -23.5t-28 -11.5q-14 0 -25.5 10t-11.5 25v356zM104 45q0 2 2.5 2t2.5 -2h-3h-2zM109 45v8v-4v-4zM115 35v983q0 16 11 25.5t24 9.5q35 0 34 -35v-133q68 98 151 133t160.5 35t145.5 -31t119 -81 t80.5 -119.5t29.5 -147.5v-639q0 -14 -11 -24.5t-23 -10.5q-35 0 -35 35v639q0 63 -23.5 120.5t-66.5 98.5t-98.5 64.5t-116.5 23.5q-66 0 -121.5 -23.5t-97 -63.5t-66.5 -94.5t-27 -115.5v-649q0 -35 -34 -35q-12 0 -23.5 10.5t-11.5 24.5z" />
<glyph unicode="&#x147;" horiz-adv-x="1196" d="M104 35v1313q0 23 25 32q12 4 24.5 -2t18.5 -16l850 -1219v1205q0 35 35 34.5t35 -34.5v-1313q0 -35 -35 -35q-16 0 -31 14l-852 1223v-1202q0 -35 -35 -35t-35 35zM250 1792q0 25 20 32q6 2 13 2q15 0 30 -11l297 -285l299 280q18 16 40 10.5t22 -30.5q0 -4 -1 -11 t-14 -20l-321 -299q-10 -10 -26.5 -10t-24.5 8l-324 307q-10 13 -10 27z" />
<glyph unicode="&#x148;" horiz-adv-x="978" d="M-172 1489q0 25 20 32q6 2 13 2q15 0 30 -12l297 -284l299 280q18 16 40 10t22 -30q0 -4 -1 -11.5t-13 -19.5l-322 -299q-10 -10 -26.5 -10t-24.5 8l-324 307q-10 13 -10 27zM111 45q0 2 2 2t2 -2h-2h-2zM115 45v8v-4v-4zM121 35v983q0 16 11 25.5t24 9.5q35 0 34 -35 v-133q68 98 151 133t161 35t145.5 -31t118.5 -81t81 -119.5t30 -147.5v-639q0 -14 -11.5 -24.5t-23.5 -10.5q-35 0 -35 35v639q0 63 -23.5 120.5t-66.5 98.5t-98.5 64.5t-116.5 23.5q-66 0 -121 -23.5t-97 -63.5t-66.5 -94.5t-27.5 -115.5v-649q0 -35 -34 -35 q-12 0 -23.5 10.5t-11.5 24.5z" />
<glyph unicode="&#x14c;" horiz-adv-x="1550" d="M84 690.5q0 143.5 54.5 269t148.5 220t219 148.5t268.5 54t269 -54t221 -148.5t149.5 -220t54 -269t-54 -269.5t-149.5 -219t-221 -147.5t-269 -54.5t-268.5 54.5t-219 147.5t-148.5 219t-54.5 269.5zM154 690q0 -131 49 -243.5t133 -195.5t196.5 -132t241.5 -49 t242.5 49t198.5 132t134.5 195.5t49.5 243.5q0 129 -49.5 243t-134.5 199t-198.5 133t-242.5 48t-241.5 -48t-196.5 -133t-133 -199t-49 -243zM473 1518q0 14 10.5 24t24.5 10h551q37 0 37 -34.5t-37 -34.5h-551q-35 0 -35 35z" />
<glyph unicode="&#x14e;" horiz-adv-x="1550" d="M84 690.5q0 143.5 54.5 269t148.5 220t219 148.5t268.5 54t269 -54t221 -148.5t149.5 -220t54 -269t-54 -269.5t-149.5 -219t-221 -147.5t-269 -54.5t-268.5 54.5t-219 147.5t-148.5 219t-54.5 269.5zM154 690q0 -131 49 -243.5t133 -195.5t196.5 -132t241.5 -49 t242.5 49t198.5 132t134.5 195.5t49.5 243.5q0 129 -49.5 243t-134.5 199t-198.5 133t-242.5 48t-241.5 -48t-196.5 -133t-133 -199t-49 -243zM401 1782q0 16 9.5 25.5t23.5 9.5q37 0 37 -35q0 -51 30.5 -96.5t77 -78t96.5 -51t85 -18.5q37 0 86 18.5t95 51t78 78t32 96.5 q0 16 10 25.5t24 9.5q35 0 35 -35q0 -59 -30.5 -114.5t-81 -99.5t-116 -72t-132.5 -28q-70 0 -134.5 28t-114.5 72t-80 99.5t-30 114.5z" />
<glyph unicode="&#x14f;" d="M84 526.5q0 108.5 42 204.5t113.5 168t167 113t204 41t203.5 -41t167 -113t114 -168t42 -204.5t-41 -205t-113 -168t-168 -112.5t-204.5 -41t-204 41t-167 112.5t-113.5 168t-42 205zM154 526q0 -94 35.5 -178t98 -145.5t145.5 -97t177 -35.5q92 0 176 35.5t145.5 97 t99.5 145.5t38 178q0 92 -38 176t-99.5 145.5t-145.5 98.5t-176 37q-94 0 -177 -37t-145.5 -98.5t-98 -145.5t-35.5 -176zM227 1452q0 16 9.5 25.5t23.5 9.5q37 0 37 -35q0 -51 30.5 -96t77 -78t96.5 -51.5t85 -18.5q37 0 86 18.5t95 51.5t78 78t32 96q0 16 10 25.5t24 9.5 q35 0 35 -35q0 -59 -30.5 -114.5t-81 -99.5t-116 -71.5t-132.5 -27.5q-70 0 -134.5 27.5t-114.5 71.5t-80 99.5t-30 114.5z" />
<glyph unicode="&#x150;" horiz-adv-x="1550" d="M84 690.5q0 143.5 54.5 269t148.5 220t219 148.5t268.5 54t269 -54t221 -148.5t149.5 -220t54 -269t-54 -269.5t-149.5 -219t-221 -147.5t-269 -54.5t-268.5 54.5t-219 147.5t-148.5 219t-54.5 269.5zM154 690q0 -131 49 -243.5t133 -195.5t196.5 -132t241.5 -49 t242.5 49t198.5 132t134.5 195.5t49.5 243.5q0 129 -49.5 243t-134.5 199t-198.5 133t-242.5 48t-241.5 -48t-196.5 -133t-133 -199t-49 -243zM580 1497q0 8 6 19l159 270q12 20 33 20q35 0 35 -32q0 -14 -6 -23l-160 -266q-16 -23 -33 -23q-34 0 -34 35zM819 1497q0 8 8 19 l160 270q10 20 33 20q35 0 35 -32q0 -14 -6 -23l-162 -266q-14 -23 -33 -23q-35 0 -35 35z" />
<glyph unicode="&#x151;" d="M84 526.5q0 108.5 42 204.5t113.5 168t167 113t204 41t203.5 -41t167 -113t114 -168t42 -204.5t-41 -205t-113 -168t-168 -112.5t-204.5 -41t-204 41t-167 112.5t-113.5 168t-42 205zM154 526q0 -94 35.5 -178t98 -145.5t145.5 -97t177 -35.5q92 0 176 35.5t145.5 97 t99.5 145.5t38 178q0 92 -38 176t-99.5 145.5t-145.5 98.5t-176 37q-94 0 -177 -37t-145.5 -98.5t-98 -145.5t-35.5 -176zM428 1186q0 8 6 18l160 271q12 20 33 20q35 0 35 -33q0 -14 -7 -22l-159 -266q-16 -23 -33 -23q-35 0 -35 35zM668 1186q0 8 8 18l160 271 q10 20 32 20q35 0 35 -33q0 -14 -6 -22l-162 -266q-14 -23 -33 -23q-34 0 -34 35z" />
<glyph unicode="&#x152;" horiz-adv-x="2240" d="M84 690.5q0 143.5 54.5 269t148.5 220t219 148.5t268.5 54t269 -54t221 -148.5t149.5 -220t54 -269t-54 -269.5t-149.5 -219t-221 -147.5t-269 -54.5t-268.5 54.5t-219 147.5t-148.5 219t-54.5 269.5zM154 690q0 -131 49 -243.5t133 -195.5t196.5 -132t241.5 -49 t242.5 49t198.5 132t134.5 195.5t49.5 243.5q0 129 -49.5 243t-134.5 199t-198.5 133t-242.5 48t-241.5 -48t-196.5 -133t-133 -199t-49 -243zM1391 35v1313q0 35 34 34h697q35 0 35 -34.5t-35 -34.5h-662v-578h428q35 0 35 -34.5t-35 -34.5h-428v-596h662q35 0 35 -35 t-35 -35h-697q-34 0 -34 35z" />
<glyph unicode="&#x153;" horiz-adv-x="2199" d="M84 526.5q0 108.5 42 204.5t113.5 168t167 113t204 41t203.5 -41t167 -113t114 -168t42 -204.5t-41 -205t-113 -168t-168 -112.5t-204.5 -41t-204 41t-167 112.5t-113.5 168t-42 205zM154 526q0 -94 35.5 -178t98 -145.5t145.5 -97t177 -35.5q92 0 176 35.5t145.5 97 t99.5 145.5t38 178q0 92 -38 176t-99.5 145.5t-145.5 98.5t-176 37q-94 0 -177 -37t-145.5 -98.5t-98 -145.5t-35.5 -176zM1063 526.5q0 108.5 42 204.5t113.5 168t167 113t203.5 41q106 0 201.5 -41t167.5 -112t114 -166t44 -202v-4v-2q-4 -33 -35 -32h-948q6 -90 45 -167 t100 -133.5t141 -90t170 -33.5t169 32.5t140 87.5q25 25 52 3q23 -23 2 -50q-70 -63 -164 -103t-199 -40q-109 0 -204 41t-166.5 112.5t-113.5 168t-42 205zM1133 563h911q-6 86 -45 163t-100.5 133t-141.5 90t-168 34q-90 0 -170 -34t-140 -90t-100 -133t-46 -163z" />
<glyph unicode="&#x154;" horiz-adv-x="980" d="M98 35v1313q0 35 35 34h371q72 0 136.5 -27.5t113.5 -75.5t78.5 -112.5t29.5 -134.5q0 -72 -29.5 -136.5t-78.5 -112.5t-112.5 -75.5t-135.5 -27.5l395 -627q8 -12 8 -21q0 -14 -16 -26q-14 -8 -26.5 -4t-22.5 14l-420 664h-256v-645q0 -35 -35 -35t-35 35zM168 750h340 q61 0 113.5 21.5t90.5 60t59.5 90t21.5 111t-21.5 110.5t-59.5 89t-90.5 59.5t-113.5 21.5h-340v-563zM313 1498q-2 6 -1 12q0 8 3 14l191 327q4 12 17 17q4 1 10 1q10 0 22 -5q19 -14 19 -31q0 -9 -5 -18l-188 -328q-6 -10 -21 -14q-6 -2 -11 -2q-9 0 -17 4q-15 8 -19 23z " />
<glyph unicode="&#x155;" horiz-adv-x="704" d="M80 35v983q0 10 9 22.5t26 12.5q14 0 24.5 -9.5t10.5 -25.5v-236q82 133 186 202t254 69q18 0 26.5 -12.5t8.5 -22.5t-8.5 -22.5t-26.5 -12.5q-90 0 -170 -36t-138.5 -96t-94 -140t-37.5 -166v-512q0 -16 -10.5 -24.5t-24.5 -8.5q-35 0 -35 35zM233 1187q-2 6 -1 11 q0 8 4 14l190 328q4 12 17 16q4 1 10 2q10 0 22 -6q19 -14 19 -31q0 -9 -5 -18l-188 -327q-6 -10 -20 -15q-6 -2 -12 -1q-9 0 -17 3q-15 9 -19 24z" />
<glyph unicode="&#x156;" horiz-adv-x="980" d="M98 35v1313q0 35 35 34h371q72 0 136.5 -27.5t113.5 -75.5t78.5 -112.5t29.5 -134.5q0 -72 -29.5 -136.5t-78.5 -112.5t-112.5 -75.5t-135.5 -27.5l395 -627q8 -12 8 -21q0 -14 -16 -26q-14 -8 -26.5 -4t-22.5 14l-420 664h-256v-645q0 -35 -35 -35t-35 35zM168 750h340 q61 0 113.5 21.5t90.5 60t59.5 90t21.5 111t-21.5 110.5t-59.5 89t-90.5 59.5t-113.5 21.5h-340v-563zM434 -250q0 16 10.5 27.5t26.5 11.5q18 0 27.5 -11t9.5 -28v-356q0 -12 -9.5 -23.5t-27.5 -11.5q-14 0 -25.5 10t-11.5 25v356z" />
<glyph unicode="&#x157;" horiz-adv-x="708" d="M82 -227q0 16 10 27.5t27 11.5q18 0 27.5 -11.5t9.5 -27.5v-357q0 -12 -9.5 -23t-27.5 -11q-14 0 -25.5 10t-11.5 24v357zM84 35v983q0 10 9 22.5t26 12.5q14 0 24.5 -9.5t10.5 -25.5v-236q82 133 186 202t254 69q18 0 26.5 -12.5t8.5 -22.5t-8.5 -22.5t-26.5 -12.5 q-90 0 -170 -36t-138.5 -96t-94 -140t-37.5 -166v-512q0 -16 -10.5 -24.5t-24.5 -8.5q-35 0 -35 35z" />
<glyph unicode="&#x158;" horiz-adv-x="980" d="M98 35v1313q0 35 35 34h371q72 0 136.5 -27.5t113.5 -75.5t78.5 -112.5t29.5 -134.5q0 -72 -29.5 -136.5t-78.5 -112.5t-112.5 -75.5t-135.5 -27.5l395 -627q8 -12 8 -21q0 -14 -16 -26q-14 -8 -26.5 -4t-22.5 14l-420 664h-256v-645q0 -35 -35 -35t-35 35zM113 1808 q0 25 20 32q6 2 13 2q15 0 30 -11l297 -285l299 281q18 16 40 10t22 -31q0 -4 -1.5 -11t-13.5 -19l-321 -299q-10 -10 -26.5 -10.5t-25.5 8.5l-323 307q-10 12 -10 26zM168 750h340q61 0 113.5 21.5t90.5 60t59.5 90t21.5 111t-21.5 110.5t-59.5 89t-90.5 59.5t-113.5 21.5 h-340v-563z" />
<glyph unicode="&#x159;" horiz-adv-x="741" d="M-14 1487q0 25 20 32q6 2 13 2q15 0 30 -12l297 -284l299 280q18 16 40 10t22 -30q0 -4 -1 -11.5t-14 -19.5l-321 -299q-10 -10 -26.5 -10t-25.5 8l-323 307q-10 13 -10 27zM96 35v983q0 10 9.5 22.5t25.5 12.5q14 0 24.5 -9.5t10.5 -25.5v-236q82 133 186.5 202 t253.5 69q18 0 26.5 -12.5t8.5 -22.5t-8 -22.5t-27 -12.5q-90 0 -170 -36t-138 -96t-94 -140t-38 -166v-512q0 -16 -10.5 -24.5t-24.5 -8.5q-35 0 -35 35z" />
<glyph unicode="&#x15a;" horiz-adv-x="1019" d="M82 215q-5 12 -5 21q0 11 6 19q11 15 30 15q25 0 34 -16q23 -43 67 -78t96 -58.5t106.5 -36.5t95.5 -13q70 0 135.5 24.5t116.5 69.5t80.5 105.5t29.5 131.5q0 68 -25.5 119t-72.5 89t-109.5 66.5t-134.5 55.5q-68 20 -142.5 48t-138 67t-104.5 90t-41 117q0 76 38 138 t96.5 105t131 66.5t142.5 23.5q45 0 95 -9t99.5 -29.5t96.5 -54.5t86 -83q18 -25 -1.5 -44t-37.5 -15t-25 16q-35 51 -75.5 80t-83.5 45.5t-82 21.5t-72 5q-49 0 -107.5 -13.5t-108.5 -46t-84 -84t-34 -122.5q0 -47 34 -84t85 -67t111 -51l108 -40q100 -39 179 -77 t133.5 -84t83 -106.5t28.5 -142.5q0 -84 -36 -156.5t-96 -126t-138 -85t-162 -31.5q-61 0 -126 15.5t-123 43t-106 67.5t-73 89zM428 1496q-2 6 -2 12q0 8 4 14l191 327q4 12 17 17q4 1 9 1q10 0 23 -5q19 -14 19 -31q0 -9 -5 -19l-188 -327q-6 -10 -21 -15q-6 -2 -11 -1 q-9 0 -18 4q-14 8 -18 23z" />
<glyph unicode="&#x15b;" horiz-adv-x="923" d="M92 219q-3 10 -2 18q0 11 4 21q8 16 27 16q12 0 22.5 -5t20.5 -25q14 -39 46 -72t72 -55.5t85 -34.5t90 -12q63 0 120.5 16t99.5 47t66.5 75t24.5 101q0 41 -24.5 80t-66.5 68.5t-99.5 52t-118.5 33.5q-72 10 -134.5 30.5t-107.5 51t-71.5 74.5t-26.5 100q0 72 29.5 121 t77.5 77.5t107.5 42t123.5 13.5q51 0 103 -9.5t96 -30t77 -51t43 -73.5q6 -16 -4 -26.5t-33 -10.5q-16 0 -28 25q-31 55 -100.5 83.5t-153.5 28.5q-45 0 -91.5 -7t-85 -28.5t-64.5 -58.5t-26 -96q0 -47 26 -79t62.5 -52.5t82 -32.5t85.5 -19q82 -14 152 -39.5t123 -62.5 t84 -88t31 -117q0 -70 -31 -127t-81 -98t-119.5 -62.5t-147.5 -21.5q-133 0 -234.5 57.5t-130.5 161.5zM375 1183q-2 6 -2 11q0 8 4 14l190 328q4 12 18 16q4 1 9 2q10 0 22 -6q19 -14 20 -31q0 -9 -5 -18l-189 -328q-6 -10 -20 -14q-6 -2 -12 -2q-9 0 -17 4q-14 9 -18 24z " />
<glyph unicode="&#x15c;" horiz-adv-x="1019" d="M82 215q-5 12 -5 21q0 11 6 19q11 15 30 15q25 0 34 -16q23 -43 67 -78t96 -58.5t106.5 -36.5t95.5 -13q70 0 135.5 24.5t116.5 69.5t80.5 105.5t29.5 131.5q0 68 -25.5 119t-72.5 89t-109.5 66.5t-134.5 55.5q-68 20 -142.5 48t-138 67t-104.5 90t-41 117q0 76 38 138 t96.5 105t131 66.5t142.5 23.5q45 0 95 -9t99.5 -29.5t96.5 -54.5t86 -83q18 -25 -1.5 -44t-37.5 -15t-25 16q-35 51 -75.5 80t-83.5 45.5t-82 21.5t-72 5q-49 0 -107.5 -13.5t-108.5 -46t-84 -84t-34 -122.5q0 -47 34 -84t85 -67t111 -51l108 -40q100 -39 179 -77 t133.5 -84t83 -106.5t28.5 -142.5q0 -84 -36 -156.5t-96 -126t-138 -85t-162 -31.5q-61 0 -126 15.5t-123 43t-106 67.5t-73 89zM131 1497q0 14 10 25l324 309q8 8 24.5 8t26.5 -10l322 -299q12 -12 13 -19.5t1 -11.5q0 -25 -21.5 -31t-39.5 11l-299 280l-297 -284 q-16 -11 -31 -12q-6 0 -12 2q-21 7 -21 32z" />
<glyph unicode="&#x15d;" horiz-adv-x="925" d="M92 1151q0 14 10 25l324 309q8 8 24.5 8t26.5 -10l322 -299q12 -12 13 -19.5t1 -11.5q0 -25 -21.5 -31t-39.5 11l-299 280l-297 -285q-23 -16 -43.5 -9t-20.5 32zM94 219q-3 10 -2 18q0 11 4 21q8 16 27 16q12 0 22.5 -5t20.5 -25q14 -39 46 -72t72 -55.5t85 -34.5 t90 -12q63 0 120.5 16t99.5 47t66.5 75t24.5 101q0 41 -24.5 80t-66.5 68.5t-99.5 52t-118.5 33.5q-72 10 -134.5 30.5t-107.5 51t-71.5 74.5t-26.5 100q0 72 29.5 121t77.5 77.5t107.5 42t123.5 13.5q51 0 103 -9.5t96 -30t77 -51t43 -73.5q6 -16 -4 -26.5t-33 -10.5 q-16 0 -28 25q-31 55 -100.5 83.5t-153.5 28.5q-45 0 -91 -7t-85 -28.5t-64.5 -58.5t-25.5 -96q0 -47 25.5 -79t62 -52.5t82 -32.5t86.5 -19q82 -14 151.5 -39.5t122.5 -62.5t84 -88t31 -117q0 -70 -31 -127t-81 -98t-119.5 -62.5t-147.5 -21.5q-133 0 -234.5 57.5 t-130.5 161.5z" />
<glyph unicode="&#x15e;" horiz-adv-x="1019" d="M82 215q-5 12 -5 21q0 11 6 19q11 15 30 15q25 0 34 -16q23 -43 67 -78t96 -58.5t106.5 -36.5t95.5 -13q70 0 135.5 24.5t116.5 69.5t80.5 105.5t29.5 131.5q0 68 -25.5 119t-72.5 89t-109.5 66.5t-134.5 55.5q-68 20 -142.5 48t-138 67t-104.5 90t-41 117q0 76 38 138 t96.5 105t131 66.5t142.5 23.5q45 0 95 -9t99.5 -29.5t96.5 -54.5t86 -83q18 -25 -1.5 -44t-37.5 -15t-25 16q-35 51 -75.5 80t-83.5 45.5t-82 21.5t-72 5q-49 0 -107.5 -13.5t-108.5 -46t-84 -84t-34 -122.5q0 -47 34 -84t85 -67t111 -51l108 -40q100 -39 179 -77 t133.5 -84t83 -106.5t28.5 -142.5q0 -84 -36 -156.5t-96 -126t-138 -85t-162 -31.5q-61 0 -126 15.5t-123 43t-106 67.5t-73 89zM317 -274q0 29 29 28q6 0 17.5 -6t11.5 -22q0 -43 33.5 -76t74.5 -33q43 0 74 29.5t31 79.5q0 51 -29 70.5t-59 31.5q-16 6 -32.5 14t-16.5 27 v180h59v-158q63 -14 100 -56t37 -109.5t-50 -116.5t-114 -49q-70 0 -118 49t-48 117z" />
<glyph unicode="&#x15f;" horiz-adv-x="923" d="M92 219q-3 10 -2 18q0 11 4 21q8 16 27 16q12 0 22.5 -5t20.5 -25q14 -39 46 -72t72 -55.5t85 -34.5t90 -12q63 0 120.5 16t99.5 47t66.5 75t24.5 101q0 41 -24.5 80t-66.5 68.5t-99.5 52t-118.5 33.5q-72 10 -134.5 30.5t-107.5 51t-71.5 74.5t-26.5 100q0 72 29.5 121 t77.5 77.5t107.5 42t123.5 13.5q51 0 103 -9.5t96 -30t77 -51t43 -73.5q6 -16 -4 -26.5t-33 -10.5q-16 0 -28 25q-31 55 -100.5 83.5t-153.5 28.5q-45 0 -91.5 -7t-85 -28.5t-64.5 -58.5t-26 -96q0 -47 26 -79t62.5 -52.5t82 -32.5t85.5 -19q82 -14 152 -39.5t123 -62.5 t84 -88t31 -117q0 -70 -31 -127t-81 -98t-119.5 -62.5t-147.5 -21.5q-133 0 -234.5 57.5t-130.5 161.5zM272 -285q0 29 29 29q6 0 17.5 -6t11.5 -23q0 -43 33.5 -75.5t74.5 -32.5q43 0 74 29.5t31 78.5q0 51 -29 70.5t-59 32.5q-16 6 -32.5 14t-16.5 27v180h59v-158 q63 -14 100 -56t37 -109.5t-50 -117t-114 -49.5q-70 0 -118 49t-48 117z" />
<glyph unicode="&#x160;" horiz-adv-x="1019" d="M82 215q-5 12 -5 21q0 11 6 19q11 15 30 15q25 0 34 -16q23 -43 67 -78t96 -58.5t106.5 -36.5t95.5 -13q70 0 135.5 24.5t116.5 69.5t80.5 105.5t29.5 131.5q0 68 -25.5 119t-72.5 89t-109.5 66.5t-134.5 55.5q-68 20 -142.5 48t-138 67t-104.5 90t-41 117q0 76 38 138 t96.5 105t131 66.5t142.5 23.5q45 0 95 -9t99.5 -29.5t96.5 -54.5t86 -83q18 -25 -1.5 -44t-37.5 -15t-25 16q-35 51 -75.5 80t-83.5 45.5t-82 21.5t-72 5q-49 0 -107.5 -13.5t-108.5 -46t-84 -84t-34 -122.5q0 -47 34 -84t85 -67t111 -51l108 -40q100 -39 179 -77 t133.5 -84t83 -106.5t28.5 -142.5q0 -84 -36 -156.5t-96 -126t-138 -85t-162 -31.5q-61 0 -126 15.5t-123 43t-106 67.5t-73 89zM160 1802q0 25 20 32q6 2 13 2q15 0 30 -11l297 -285l299 281q18 16 40 10t22 -31q0 -4 -1 -11t-14 -20l-321 -299q-10 -10 -26.5 -10t-24.5 8 l-324 308q-10 12 -10 26z" />
<glyph unicode="&#x161;" horiz-adv-x="1372" d="M100 389q0 6 6 19l271 487q74 74 172 113t198.5 39t196.5 -39t169 -109t116 -165t43 -208q0 -109 -41 -204t-112.5 -166.5t-166 -112.5t-200.5 -41q-98 0 -193.5 36t-173.5 112q-4 4 -9 11t-5 17q0 12 11 23.5t24 11.5q14 0 24 -10q72 -63 155 -97t165 -34q90 0 173 36.5 t144 98t98 143.5t37 172t-34.5 172t-96 145.5t-144.5 100.5t-177 37q-88 0 -178.5 -39t-161.5 -111l-244 -454q-12 -16 -29 -17q-14 0 -25.5 9.5t-11.5 23.5zM362 1485q0 25 21 32q6 2 13 2q15 0 30 -12l297 -284l299 280q18 16 39.5 10t21.5 -30q0 -4 -1 -12.5t-11 -18.5 l-321 -299q-12 -10 -28.5 -10t-25.5 8l-323 307q-11 13 -11 27z" />
<glyph unicode="&#x162;" horiz-adv-x="976" d="M57 1354q0 35 35 35h793q35 0 35 -35t-35 -35h-363v-1284q0 -35 -35 -35q-33 0 -32 35v1284h-363q-35 0 -35 35zM444 -184q0 16 10.5 27.5t26.5 11.5q18 0 27.5 -11.5t9.5 -27.5v-357q0 -12 -9 -23t-28 -11q-14 0 -25.5 10t-11.5 24v357z" />
<glyph unicode="&#x163;" horiz-adv-x="628" d="M53 1018q0 35 35 35h193v295q0 35 34.5 34.5t34.5 -34.5v-295h191q35 0 34.5 -35t-34.5 -35h-191v-948q0 -35 -34.5 -35t-34.5 35v948h-193q-35 0 -35 35zM272 -227q0 16 10.5 27.5t26.5 11.5q18 0 27.5 -11.5t9.5 -27.5v-357q0 -12 -9 -23t-28 -11q-14 0 -25.5 10 t-11.5 24v357z" />
<glyph unicode="&#x164;" horiz-adv-x="976" d="M57 1354q0 35 35 35h793q35 0 35 -35t-35 -35h-363v-1284q0 -35 -35 -35q-33 0 -32 35v1284h-363q-35 0 -35 35zM131 1812q0 25 21 32q6 2 12 2q15 0 31 -11l297 -285l299 281q18 16 39.5 10t21.5 -31q0 -4 -1 -11t-13 -19l-322 -299q-10 -10 -26.5 -10.5t-24.5 8.5 l-324 307q-10 12 -10 26z" />
<glyph unicode="&#x165;" horiz-adv-x="628" d="M53 1018q0 35 35 35h193v295q0 35 34.5 34.5t34.5 -34.5v-295h191q35 0 34.5 -35t-34.5 -35h-191v-948q0 -35 -34.5 -35t-34.5 35v948h-193q-35 0 -35 35zM279 1513l190 330q10 14 24 17h5q11 0 24 -7q16 -14 17 -30q0 -8 -4 -17l-191 -329q-6 -10 -19 -16q-5 -2 -11 -2 q-8 0 -17 5q-23 14 -23 33q1 7 5 16z" />
<glyph unicode="&#x166;" horiz-adv-x="976" d="M57 1354q0 35 35 35h793q35 0 35 -35t-35 -35h-363v-1284q0 -35 -35 -35q-33 0 -32 35v1284h-363q-35 0 -35 35zM199 1505q0 14 10 24.5t24 10.5h551q37 0 37 -35t-37 -35h-551q-34 0 -34 35z" />
<glyph unicode="&#x167;" horiz-adv-x="731" d="M55 586q0 14 10.5 24.5t24.5 10.5h551q37 0 37 -35t-37 -35h-551q-35 0 -35 35zM88 1018q0 35 35 35h192v295q0 35 35 34.5t35 -34.5v-295h190q35 0 35 -35t-35 -35h-190v-948q0 -35 -35 -35t-35 35v948h-192q-35 0 -35 35z" />
<glyph unicode="&#x168;" horiz-adv-x="1140" d="M98 471v877q0 35 35 34.5t35 -34.5v-875q0 -82 30.5 -154.5t84 -128t127 -88t159.5 -32.5q82 0 156 31.5t129 87t88 128t33 154.5v881q0 35 34.5 34.5t34.5 -34.5v-881q0 -98 -37.5 -183t-103 -149.5t-151.5 -101.5t-183 -37q-98 0 -184 37t-149.5 101.5t-100.5 149.5 t-37 183zM145 1528q0 16 9 24q20 23 48.5 50.5t60.5 53t67 41t69 15.5q63 0 104.5 -26.5t76 -58.5t71.5 -58.5t94 -26.5q33 0 61 12.5t51.5 34t42 45t30.5 45.5q4 8 13 14.5t20 6.5q25 0 31 -20q3 -8 3 -15q0 -11 -6 -20q-43 -80 -110.5 -126t-135.5 -46q-66 0 -104.5 26.5 t-71 58t-70.5 59.5t-100 28q-27 0 -53.5 -13.5t-50 -33t-45 -44t-41.5 -43.5q-18 -23 -41 -15.5t-23 32.5z" />
<glyph unicode="&#x169;" horiz-adv-x="954" d="M61 1208q0 16 9 25q20 23 48.5 50.5t60.5 53t67 41t69 15.5q63 0 104.5 -27t76 -58.5t71.5 -58t95 -26.5q33 0 60.5 12t51 33.5t42 45t30.5 46.5q4 8 13 14t20 6q25 0 31 -19q3 -8 3 -16q0 -11 -6 -20q-43 -80 -110.5 -126t-134.5 -46q-66 0 -105 26.5t-71.5 58.5 t-70.5 59.5t-100 27.5q-27 0 -53 -13.5t-50 -32.5t-45.5 -44t-41.5 -43q-18 -23 -41 -16t-23 32zM100 381v637q0 16 10.5 25.5t24.5 9.5q35 0 35 -35v-637q0 -66 23.5 -122t65.5 -98t97.5 -65.5t118.5 -23.5q66 0 121 23.5t96 64.5t66.5 95t27.5 114v649q0 35 35 35 q12 0 23.5 -9.5t11.5 -25.5v-983q0 -14 -11 -24.5t-24 -10.5q-35 0 -35 35v133q-68 -98 -151.5 -133t-159.5 -35q-78 0 -146.5 30.5t-119.5 82t-80 120t-29 148.5z" />
<glyph unicode="&#x16a;" horiz-adv-x="1140" d="M98 471v877q0 35 35 34.5t35 -34.5v-875q0 -82 30.5 -154.5t84 -128t127 -88t159.5 -32.5q82 0 156 31.5t129 87t88 128t33 154.5v881q0 35 34.5 34.5t34.5 -34.5v-881q0 -98 -37.5 -183t-103 -149.5t-151.5 -101.5t-183 -37q-98 0 -184 37t-149.5 101.5t-100.5 149.5 t-37 183zM289 1505q0 14 10 24.5t25 10.5h550q37 0 37 -35t-37 -35h-550q-35 0 -35 35z" />
<glyph unicode="&#x16b;" horiz-adv-x="958" d="M102 381v637q0 16 10.5 25.5t24.5 9.5q35 0 35 -35v-637q0 -66 23.5 -122t65.5 -98t97.5 -65.5t118.5 -23.5q66 0 121 23.5t96 64.5t66.5 95t27.5 114v649q0 35 35 35q12 0 23.5 -9.5t11.5 -25.5v-983q0 -14 -11 -24.5t-24 -10.5q-35 0 -35 35v133q-68 -98 -151.5 -133 t-159.5 -35q-78 0 -146.5 30.5t-119.5 82t-80 120t-29 148.5zM186 1190q0 14 10.5 24.5t24.5 10.5h551q37 0 37 -35t-37 -35h-551q-35 0 -35 35z" />
<glyph unicode="&#x16c;" horiz-adv-x="1140" d="M98 471v877q0 35 35 34.5t35 -34.5v-875q0 -82 30.5 -154.5t84 -128t127 -88t159.5 -32.5q82 0 156 31.5t129 87t88 128t33 154.5v881q0 35 34.5 34.5t34.5 -34.5v-881q0 -98 -37.5 -183t-103 -149.5t-151.5 -101.5t-183 -37q-98 0 -184 37t-149.5 101.5t-100.5 149.5 t-37 183zM217 1782q0 16 9.5 25.5t23.5 9.5q37 0 37 -35q0 -51 30.5 -96.5t76.5 -78t96.5 -51t84.5 -18.5q37 0 86.5 18.5t95.5 51t77.5 78t31.5 96.5q0 16 10.5 25.5t24.5 9.5q35 0 35 -35q0 -59 -31 -114.5t-81 -99.5t-115.5 -72t-133.5 -28q-70 0 -134 28t-114.5 72 t-80 99.5t-29.5 114.5z" />
<glyph unicode="&#x16d;" horiz-adv-x="958" d="M102 381v637q0 16 10.5 25.5t24.5 9.5q35 0 35 -35v-637q0 -66 23.5 -122t65.5 -98t97.5 -65.5t118.5 -23.5q66 0 121 23.5t96 64.5t66.5 95t27.5 114v649q0 35 35 35q12 0 23.5 -9.5t11.5 -25.5v-983q0 -14 -11 -24.5t-24 -10.5q-35 0 -35 35v133q-68 -98 -151.5 -133 t-159.5 -35q-78 0 -146.5 30.5t-119.5 82t-80 120t-29 148.5zM123 1475q0 16 9 25t24 9q37 0 37 -34q0 -51 30.5 -96.5t76.5 -78t96 -51t85 -18.5q37 0 86 18.5t95.5 51t78 77.5t31.5 97q0 16 10.5 25t24.5 9q35 0 35 -34q0 -59 -31 -114.5t-81 -99.5t-115.5 -72t-133.5 -28 q-70 0 -134 28t-114.5 72t-80 99.5t-29.5 114.5z" />
<glyph unicode="&#x16e;" horiz-adv-x="1140" d="M98 471v877q0 35 35 34.5t35 -34.5v-875q0 -82 30.5 -154.5t84 -128t127 -88t159.5 -32.5q82 0 156 31.5t129 87t88 128t33 154.5v881q0 35 34.5 34.5t34.5 -34.5v-881q0 -98 -37.5 -183t-103 -149.5t-151.5 -101.5t-183 -37q-98 0 -184 37t-149.5 101.5t-100.5 149.5 t-37 183zM362 1657q0 37 14.5 70.5t39 58t58.5 40t73 15.5t72.5 -15.5t58 -40t40 -58t15.5 -70.5q0 -39 -15.5 -73t-40 -58.5t-58 -38.5t-72.5 -14q-76 0 -130.5 54t-54.5 130zM428 1657q0 -55 33 -87t86 -32q51 0 86 32t35 87q0 53 -35 86t-86 33q-53 0 -86 -33t-33 -86z " />
<glyph unicode="&#x16f;" horiz-adv-x="958" d="M102 381v637q0 16 10.5 25.5t24.5 9.5q35 0 35 -35v-637q0 -66 23.5 -122t65.5 -98t97.5 -65.5t118.5 -23.5q66 0 121 23.5t96 64.5t66.5 95t27.5 114v649q0 35 35 35q12 0 23.5 -9.5t11.5 -25.5v-983q0 -14 -11 -24.5t-24 -10.5q-35 0 -35 35v133q-68 -98 -151.5 -133 t-159.5 -35q-78 0 -146.5 30.5t-119.5 82t-80 120t-29 148.5zM268 1329q0 37 14.5 71t39 58.5t58.5 39.5t73 15t72.5 -15t58 -39.5t40 -58.5t15.5 -71q0 -39 -15.5 -72.5t-40 -58t-58 -39t-72.5 -14.5q-76 0 -130.5 54t-54.5 130zM334 1329q0 -55 32.5 -87t86.5 -32 q51 0 85.5 32t34.5 87q0 53 -34.5 86t-85.5 33q-53 0 -86 -33t-33 -86z" />
<glyph unicode="&#x170;" horiz-adv-x="1140" d="M98 471v877q0 35 35 34.5t35 -34.5v-875q0 -82 30.5 -154.5t84 -128t127 -88t159.5 -32.5q82 0 156 31.5t129 87t88 128t33 154.5v881q0 35 34.5 34.5t34.5 -34.5v-881q0 -98 -37.5 -183t-103 -149.5t-151.5 -101.5t-183 -37q-98 0 -184 37t-149.5 101.5t-100.5 149.5 t-37 183zM379 1513q0 8 6 19l160 270q12 20 33 21q35 0 34 -33q0 -14 -6 -23l-160 -266q-16 -23 -32 -22q-35 -1 -35 34zM618 1513q0 8 9 19l159 270q10 20 33 21q35 0 35 -33q0 -14 -6 -23l-162 -266q-14 -23 -33 -22q-35 -1 -35 34z" />
<glyph unicode="&#x171;" horiz-adv-x="958" d="M102 381v637q0 16 10.5 25.5t24.5 9.5q35 0 35 -35v-637q0 -66 23.5 -122t65.5 -98t97.5 -65.5t118.5 -23.5q66 0 121 23.5t96 64.5t66.5 95t27.5 114v649q0 35 35 35q12 0 23.5 -9.5t11.5 -25.5v-983q0 -14 -11 -24.5t-24 -10.5q-35 0 -35 35v133q-68 -98 -151.5 -133 t-159.5 -35q-78 0 -146.5 30.5t-119.5 82t-80 120t-29 148.5zM303 1180q0 8 6 18l160 270q12 20 33 21q35 0 35 -33q0 -14 -7 -22l-159 -267q-16 -23 -33 -22q-35 0 -35 35zM543 1180q0 8 8 18l160 270q10 20 32 21q35 0 35 -33q0 -14 -6 -22l-162 -267q-14 -23 -32 -22 q-35 0 -35 35z" />
<glyph unicode="&#x172;" horiz-adv-x="1140" d="M98 471v877q0 35 35 34.5t35 -34.5v-875q0 -82 30.5 -154.5t84 -128t127 -88t159.5 -32.5q82 0 156 31.5t129 87t88 128t33 154.5v881q0 35 34.5 34.5t34.5 -34.5v-881q0 -98 -37.5 -183t-103 -149.5t-151.5 -101.5t-183 -37q-98 0 -184 37t-149.5 101.5t-100.5 149.5 t-37 183zM446 -203q0 35 16.5 57.5t33.5 53.5q16 25 31.5 57.5t23.5 63.5h70q-6 -29 -22.5 -74t-35.5 -72q-12 -20 -29.5 -37.5t-17.5 -48.5q0 -49 26.5 -72.5t69.5 -23.5q49 0 66.5 28.5t28.5 63.5q8 35 34 35q35 0 35 -35t-15.5 -64.5t-38 -51t-53 -34t-57.5 -12.5 q-70 0 -118 49t-48 117z" />
<glyph unicode="&#x173;" horiz-adv-x="958" d="M102 381v637q0 16 10.5 25.5t24.5 9.5q35 0 35 -35v-637q0 -66 23.5 -122t65.5 -98t97.5 -65.5t118.5 -23.5q66 0 121 23.5t96 64.5t66.5 95t27.5 114v649q0 35 35 35q12 0 23.5 -9.5t11.5 -25.5v-983q0 -14 -11 -24.5t-24 -10.5q-35 0 -35 35v133q-68 -98 -151.5 -133 t-159.5 -35q-78 0 -146.5 30.5t-119.5 82t-80 120t-29 148.5zM684 -199q0 35 16.5 57.5t32.5 53.5q16 25 31.5 57.5t23.5 63.5h70q-6 -29 -22.5 -74t-34.5 -72q-12 -20 -29.5 -37.5t-17.5 -48.5q0 -49 26.5 -72.5t69.5 -23.5q49 0 66.5 28.5t27.5 63.5q8 35 35 35 q35 0 35 -35t-15.5 -64.5t-38 -51t-53 -34t-57.5 -12.5q-70 0 -118 49t-48 117z" />
<glyph unicode="&#x174;" horiz-adv-x="1918" d="M94 1341q-4 9 -3 17q0 19 22 28q35 12 45 -20l456 -1219l308 1205q8 31 34.5 30.5t34.5 -30.5l309 -1205l459 1219q10 33 45 20q22 -10 22 -28q0 -7 -3 -17l-494 -1318q-9 -23 -31 -24q-7 0 -16 3q-12 4 -17 17.5t-1 25.5l36 102l29 -104q4 -12 -4 -24.5t-22 -16.5 q-5 -1 -11 -1q-26 0 -30 28l-306 1179l-301 -1179q-4 -23 -20 -27q-8 -2 -14 -2q-23 0 -33 23zM606 1497q0 14 10 25l324 309q8 8 24.5 8t26.5 -10l322 -299q12 -12 13 -19.5t1 -11.5q0 -25 -21.5 -31t-39.5 11l-299 280l-297 -284q-16 -11 -31 -12q-6 0 -12 2q-21 7 -21 32 z" />
<glyph unicode="&#x175;" horiz-adv-x="1357" d="M97 1029q5 13 18 20q16 6 28.5 0.5t16.5 -17.5l336 -911l147 405l-176 478q-6 12 -1 25t17 20q16 6 29.5 0.5t17.5 -17.5l150 -409l149 409q4 12 17.5 17.5t28 -1t19.5 -19.5t-1 -25l-178 -476l149 -407l334 911q4 12 17.5 17.5t27.5 -1t20 -19.5q2 -6 2 -12q0 -7 -3 -13 l-365 -977q-12 -27 -33 -27q-25 0 -35 25l-151 405l-150 -403q-12 -27 -32 -27q-25 0 -35 25l-363 979q-3 7 -3 13t2 12zM311 1178q0 14 11 24l323 309q8 8 24.5 8.5t26.5 -10.5l322 -299q12 -12 13 -19t1 -11q0 -25 -21.5 -31t-39.5 10l-299 281l-297 -285q-16 -11 -31 -11 q-6 0 -12 2q-21 7 -21 32z" />
<glyph unicode="&#x176;" horiz-adv-x="1093" d="M88 1376q14 8 28.5 5t22.5 -13l408 -614l407 614q10 10 23.5 13t28.5 -5q10 -8 13 -22q1 -4 1 -8q0 -10 -6 -17l-432 -645v-649q0 -35 -35 -35t-35 35v649l-432 645q-6 7 -6 17q0 19 14 30zM184 1503q0 14 11 25l323 309q8 8 24.5 8t26.5 -10l322 -299q12 -12 13 -19.5 t1 -11.5q0 -25 -21.5 -31t-39.5 11l-299 280l-297 -284q-16 -11 -31 -12q-6 0 -12 2q-21 7 -21 32z" />
<glyph unicode="&#x177;" horiz-adv-x="962" d="M74 1008q-2 6 -2 11q0 8 4 15q6 12 20 17q35 10 45 -19l338 -893l342 895q10 29 45 19q12 -4 20 -17q5 -8 4 -16q0 -5 -1 -10l-527 -1379q-4 -16 -18 -22q-7 -3 -14 -3t-15 3q-14 4 -19 17.5t-1 25.5l147 387zM102 1184q0 14 11 24l323 310q8 8 24.5 8t26.5 -10l322 -299 q12 -12 13 -19.5t1 -11.5q0 -25 -21.5 -31t-39.5 10l-299 281l-297 -285q-16 -11 -30 -11q-6 0 -13 2q-21 7 -21 32z" />
<glyph unicode="&#x178;" horiz-adv-x="1093" d="M88 1376q14 8 28.5 5t22.5 -13l408 -614l407 614q10 10 23.5 13t28.5 -5q10 -8 13 -22q1 -4 1 -8q0 -10 -6 -17l-432 -645v-649q0 -35 -35 -35t-35 35v649l-432 645q-6 7 -6 17q0 19 14 30zM299 1520q0 23 16.5 40t38.5 17q25 0 42.5 -17.5t17.5 -39.5q0 -25 -17.5 -41.5 t-42.5 -16.5q-23 0 -39 16.5t-16 41.5zM666 1520q0 23 16 40t39 17q25 0 42 -17.5t17 -39.5q0 -25 -17.5 -41.5t-41.5 -16.5q-23 0 -39 16.5t-16 41.5z" />
<glyph unicode="&#x179;" horiz-adv-x="1159" d="M76 1347.5q0 34.5 35 34.5h923q10 0 21 -6q27 -25 6 -49l-885 -1257h873q35 0 34.5 -35t-34.5 -35h-934q-14 0 -23 6q-12 8 -15 22.5t5 24.5l885 1260h-856q-35 0 -35 34.5zM557 1494q-2 6 -2 11q0 8 4 15l191 327q4 12 17 17q4 1 9 1q10 0 23 -5q19 -14 19 -31 q0 -9 -5 -19l-188 -327q-6 -10 -21 -15q-6 -2 -11 -1q-9 0 -18 3q-14 9 -18 24z" />
<glyph unicode="&#x17a;" horiz-adv-x="1167" d="M95 22q-2 7 -2 13q0 13 9 24l846 924h-817q-35 0 -35 35t35 35h895q16 0 25 -9q10 -10 11 -24t-9 -27l-846 -923h833q35 0 35 -35t-35 -35h-911q-27 0 -34 22zM516 1181q-2 6 -2 11q0 8 4 14l191 328q4 12 17 16q4 1 9 2q10 0 23 -6q19 -14 19 -31q0 -9 -5 -18l-188 -328 q-6 -10 -21 -14q-6 -2 -11 -2q-9 0 -17 4q-15 9 -19 24z" />
<glyph unicode="&#x17b;" horiz-adv-x="1159" d="M76 1347.5q0 34.5 35 34.5h923q10 0 21 -6q27 -25 6 -49l-885 -1257h873q35 0 34.5 -35t-34.5 -35h-934q-14 0 -23 6q-12 8 -15 22.5t5 24.5l885 1260h-856q-35 0 -35 34.5zM479 1520q0 23 14.5 39t38.5 16q23 0 38.5 -16.5t15.5 -38.5q0 -25 -15.5 -39.5t-38.5 -14.5 q-25 0 -39 14.5t-14 39.5z" />
<glyph unicode="&#x17c;" horiz-adv-x="1167" d="M95 22q-2 7 -2 13q0 13 9 24l846 924h-817q-35 0 -35 35t35 35h895q16 0 25 -9q10 -10 11 -24t-9 -27l-846 -923h833q35 0 35 -35t-35 -35h-911q-27 0 -34 22zM496 1249q0 23 14 39.5t39 16.5q23 0 38 -16.5t15 -39.5q0 -25 -15.5 -39t-37.5 -14q-25 0 -39 14t-14 39z " />
<glyph unicode="&#x17d;" horiz-adv-x="1159" d="M76 1347.5q0 34.5 35 34.5h923q10 0 21 -6q27 -25 6 -49l-885 -1257h873q35 0 34.5 -35t-34.5 -35h-934q-14 0 -23 6q-12 8 -15 22.5t5 24.5l885 1260h-856q-35 0 -35 34.5zM223 1800q0 25 21 32q6 2 12 2q15 0 31 -11l297 -285l299 281q18 16 39.5 10t21.5 -31 q0 -4 -1 -11t-13 -20l-322 -299q-10 -10 -26.5 -10t-24.5 8l-324 308q-10 12 -10 26z" />
<glyph unicode="&#x17e;" horiz-adv-x="1167" d="M95 22q-2 7 -2 13q0 13 9 24l846 924h-817q-35 0 -35 35t35 35h895q16 0 25 -9q10 -10 11 -24t-9 -27l-846 -923h833q35 0 35 -35t-35 -35h-911q-27 0 -34 22zM231 1497q0 25 21 32q6 2 13 2q15 0 30 -11l297 -285l299 281q18 16 39.5 10t21.5 -31q0 -4 -1 -11t-13 -20 l-322 -299q-10 -10 -26.5 -10t-24.5 8l-323 307q-11 13 -11 27z" />
<glyph unicode="&#x192;" horiz-adv-x="819" d="M53 -354q0 14 10.5 24.5t24.5 10.5q92 0 146.5 34.5t84 80.5t38 90t8.5 67v764h-125q-16 0 -25.5 10t-9.5 24.5t9 25.5t26 11h125v340q0 45 17 105.5t56 114t105.5 89.5t165.5 36q14 0 24 -11.5t10 -23.5q0 -35 -34 -35q-90 0 -144.5 -35t-84 -82t-38 -92t-8.5 -66v-340 h135q12 0 23.5 -11t11.5 -25.5t-11 -24.5t-24 -10h-135v-764q0 -47 -17.5 -105.5t-57.5 -111.5t-106.5 -89t-164.5 -36q-35 0 -35 35z" />
<glyph unicode="&#x1fe;" horiz-adv-x="1550" d="M84 690.5q0 143.5 54.5 269t148.5 220t219 148.5t268.5 54t269 -54t221 -148.5t149.5 -220t54 -269t-54 -269.5t-149.5 -219t-221 -147.5t-269 -54.5t-268.5 54.5t-219 147.5t-148.5 219t-54.5 269.5zM154 690q0 -131 49 -243.5t133 -195.5t196.5 -132t241.5 -49 t242.5 49t198.5 132t134.5 195.5t49.5 243.5q0 129 -49.5 243t-134.5 199t-198.5 133t-242.5 48t-241.5 -48t-196.5 -133t-133 -199t-49 -243zM500 41l450 1397q4 10 13.5 16t19.5 6q16 0 27 -9q7 -7 7 -19q0 -5 -1 -11l-445 -1396q-4 -16 -14 -21.5t-18 -5.5 q-18 0 -30.5 13.5t-8.5 29.5zM637 1504q-2 6 -2 12q0 8 4 14l190 328q4 12 18 16q4 1 9 1q10 0 23 -5q19 -14 19 -31q0 -9 -5 -18l-188 -328q-6 -10 -21 -14q-6 -2 -11 -2q-9 0 -18 4q-14 8 -18 23z" />
<glyph unicode="&#x1ff;" d="M84 526.5q0 108.5 42 204.5t113.5 168t167 113t204 41t203.5 -41t167 -113t114 -168t42 -204.5t-41 -205t-113 -168t-168 -112.5t-204.5 -41t-204 41t-167 112.5t-113.5 168t-42 205zM154 526q0 -94 35.5 -178t98 -145.5t145.5 -97t177 -35.5q92 0 176 35.5t145.5 97 t99.5 145.5t38 178q0 92 -38 176t-99.5 145.5t-145.5 98.5t-176 37q-94 0 -177 -37t-145.5 -98.5t-98 -145.5t-35.5 -176zM352 -152l451 1397q4 10 13 16.5t20 6.5q16 0 26 -10q7 -7 8 -18q0 -5 -2 -11l-444 -1397q-4 -16 -14.5 -21.5t-18.5 -5.5q-18 0 -30.5 13.5 t-8.5 29.5zM467 1183q-2 6 -2 11q0 8 4 14l190 328q4 12 18 16q4 1 9 2q10 0 23 -6q19 -14 19 -31q0 -9 -5 -18l-188 -328q-6 -10 -21 -14q-6 -2 -11 -2q-9 0 -18 4q-14 9 -18 24z" />
<glyph unicode="&#x218;" horiz-adv-x="1044" d="M90 215q-5 12 -5 21q0 11 6 19q11 15 30 15q25 0 35 -16q23 -43 66.5 -78t96 -58.5t106.5 -36.5t95 -13q70 0 135.5 24.5t116.5 69.5t81 105.5t30 131.5q0 68 -26 119t-73 89t-109.5 66.5t-133.5 55.5q-68 20 -142.5 48t-138 67t-104.5 90t-41 117q0 76 37.5 138t96 105 t131.5 66.5t142 23.5q45 0 95.5 -9t99.5 -29.5t96 -54.5t86 -83q18 -25 -1 -44t-37.5 -15t-24.5 16q-35 51 -76 80t-84 45.5t-82 21.5t-72 5q-49 0 -107.5 -13.5t-108.5 -46t-84 -84t-34 -122.5q0 -47 34 -84t85 -67t111 -51l108 -40q100 -39 179 -77t133.5 -84t83 -106.5 t28.5 -142.5q0 -84 -35.5 -156.5t-96 -126t-138.5 -85t-162 -31.5q-61 0 -125.5 15.5t-123 43t-106.5 67.5t-73 89z" />
<glyph unicode="&#x219;" horiz-adv-x="923" d="M92 219q-3 10 -2 18q0 11 4 21q8 16 27 16q12 0 22.5 -5t20.5 -25q14 -39 46 -72t72 -55.5t85 -34.5t90 -12q63 0 120.5 16t99.5 47t66.5 75t24.5 101q0 41 -24.5 80t-66.5 68.5t-99.5 52t-118.5 33.5q-72 10 -134.5 30.5t-107.5 51t-71.5 74.5t-26.5 100q0 72 29.5 121 t77.5 77.5t107.5 42t123.5 13.5q51 0 103 -9.5t96 -30t77 -51t43 -73.5q6 -16 -4 -26.5t-33 -10.5q-16 0 -28 25q-31 55 -100.5 83.5t-153.5 28.5q-45 0 -91.5 -7t-85 -28.5t-64.5 -58.5t-26 -96q0 -47 26 -79t62.5 -52.5t82 -32.5t85.5 -19q82 -14 152 -39.5t123 -62.5 t84 -88t31 -117q0 -70 -31 -127t-81 -98t-119.5 -62.5t-147.5 -21.5q-133 0 -234.5 57.5t-130.5 161.5zM412 -242q0 16 10 27.5t27 11.5q18 0 27 -11t9 -28v-356q0 -12 -9 -23.5t-27 -11.5q-14 0 -25.5 10.5t-11.5 24.5v356z" />
<glyph unicode="&#x237;" horiz-adv-x="315" d="M-193 -358q0 35 35 34q88 0 142.5 35t84 80t39 91t9.5 69v1067q0 35 34.5 35t34.5 -35v-1067q0 -47 -17 -106.5t-58 -113t-106.5 -89t-162.5 -35.5q-18 0 -26.5 11.5t-8.5 23.5z" />
<glyph unicode="&#x2c6;" horiz-adv-x="937" d="M102 1583q0 14 11 25l323 309q8 8 24.5 8t26.5 -10l322 -299q12 -12 13 -19.5t1 -11.5q0 -25 -21.5 -31t-39.5 11l-299 280l-297 -284q-16 -11 -30 -12q-6 0 -13 2q-21 7 -21 32z" />
<glyph unicode="&#x2c7;" horiz-adv-x="931" d="M102 1888q0 25 21 32q6 2 13 2q15 0 30 -11l297 -285l299 281q18 16 39.5 10t21.5 -31q0 -4 -1 -11t-13 -20l-322 -299q-10 -10 -26.5 -10t-24.5 8l-323 308q-11 12 -11 26z" />
<glyph unicode="&#x2d8;" horiz-adv-x="931" d="M96 1884q0 16 9.5 25.5t23.5 9.5q37 0 37 -35q0 -51 30.5 -96t76.5 -78t96.5 -51.5t85.5 -18.5q37 0 86 18.5t95 51.5t77.5 78t31.5 96q0 16 10.5 25.5t24.5 9.5q35 0 35 -35q0 -59 -30.5 -114.5t-81 -99.5t-116 -71.5t-132.5 -27.5q-70 0 -134.5 27.5t-114.5 71.5 t-80 99.5t-30 114.5z" />
<glyph unicode="&#x2d9;" horiz-adv-x="1894" d="M655 1378q0 23 14.5 39.5t39.5 16.5q23 0 38 -16.5t15 -39.5q0 -25 -15.5 -39t-37.5 -14q-25 0 -39.5 14t-14.5 39z" />
<glyph unicode="&#x2da;" horiz-adv-x="1472" d="M535 1378q0 37 14 71t38.5 58.5t58.5 40t73 15.5t72.5 -15.5t58 -40t40 -58.5t15.5 -71q0 -39 -15.5 -72.5t-40 -58t-58 -39t-72.5 -14.5q-76 0 -130 54t-54 130zM600 1378q0 -55 33 -86.5t86 -31.5q51 0 86 31.5t35 86.5q0 53 -35 86t-86 33q-53 0 -86 -33t-33 -86z" />
<glyph unicode="&#x2db;" horiz-adv-x="522" d="M72 -260q0 35 16 57.5t33 53.5q16 25 31.5 57.5t23.5 62.5h70q-6 -29 -22.5 -73.5t-35.5 -71.5q-12 -20 -29.5 -37.5t-17.5 -48.5q0 -49 27 -72.5t70 -23.5q49 0 66.5 28.5t27.5 63.5q8 35 35 35q35 0 34.5 -35t-15.5 -64.5t-37.5 -51t-53.5 -34t-57 -12.5q-70 0 -118 49 t-48 117z" />
<glyph unicode="&#x2dc;" horiz-adv-x="1054" d="M94 1243q0 16 8 25q20 23 49 50.5t61 53t66.5 40.5t69.5 15q63 0 104.5 -26.5t76 -58t71.5 -58.5t94 -27q33 0 60.5 12.5t51 34t42 45t31.5 46.5q4 8 13 14t19 6q25 0 32 -19.5t-3 -35.5q-43 -80 -110.5 -126t-135.5 -46q-66 0 -104.5 26.5t-71.5 58.5t-70.5 59.5 t-99.5 27.5q-27 0 -53.5 -13.5t-50 -33t-45 -44t-41.5 -42.5q-18 -23 -41 -16t-23 32z" />
<glyph unicode="&#x2dd;" horiz-adv-x="792" d="M63 1227q0 8 7 18l159 271q12 20 33 20q35 0 35 -33q0 -14 -6 -22l-160 -267q-16 -23 -33 -22q-35 0 -35 35zM303 1227q0 8 8 18l160 271q10 20 33 20q35 0 35 -33q0 -14 -7 -22l-161 -267q-14 -23 -33 -22q-35 0 -35 35z" />
<glyph unicode="&#x1e80;" horiz-adv-x="1918" d="M94 1341q-4 9 -3 17q0 19 22 28q35 12 45 -20l456 -1219l308 1205q8 31 34.5 30.5t34.5 -30.5l309 -1205l459 1219q10 33 45 20q22 -10 22 -28q0 -7 -3 -17l-494 -1318q-9 -23 -31 -24q-7 0 -16 3q-12 4 -17 17.5t-1 25.5l36 102l29 -104q4 -12 -4 -24.5t-22 -16.5 q-5 -1 -11 -1q-26 0 -30 28l-306 1179l-301 -1179q-4 -23 -20 -27q-8 -2 -14 -2q-23 0 -33 23zM733 1812q-5 10 -5 19q0 17 20 31q12 5 22 5q5 0 9 -1q13 -4 18 -17l190 -327q4 -6 4 -14q0 -5 -2 -12q-4 -15 -18 -23q-9 -4 -17 -4q-6 0 -12 1q-14 4 -20 15z" />
<glyph unicode="&#x1e81;" horiz-adv-x="1357" d="M97 1029q5 13 18 20q16 6 28.5 0.5t16.5 -17.5l336 -911l147 405l-176 478q-6 12 -1 25t17 20q16 6 29.5 0.5t17.5 -17.5l150 -409l149 409q4 12 17.5 17.5t28 -1t19.5 -19.5t-1 -25l-178 -476l149 -407l334 911q4 12 17.5 17.5t27.5 -1t20 -19.5q2 -6 2 -12q0 -7 -3 -13 l-365 -977q-12 -27 -33 -27q-25 0 -35 25l-151 405l-150 -403q-12 -27 -32 -27q-25 0 -35 25l-363 979q-3 7 -3 13t2 12zM434 1511q-5 10 -5 19q0 17 20 31q12 5 22 5q5 0 9 -1q13 -4 18 -17l190 -327q4 -6 4 -15q0 -5 -2 -11q-4 -15 -18 -24q-9 -4 -17 -3q-6 0 -12 1 q-14 4 -20 15z" />
<glyph unicode="&#x1e82;" horiz-adv-x="1918" d="M94 1341q-4 9 -3 17q0 19 22 28q35 12 45 -20l456 -1219l308 1205q8 31 34.5 30.5t34.5 -30.5l309 -1205l459 1219q10 33 45 20q22 -10 22 -28q0 -7 -3 -17l-494 -1318q-9 -23 -31 -24q-7 0 -16 3q-12 4 -17 17.5t-1 25.5l36 102l29 -104q4 -12 -4 -24.5t-22 -16.5 q-5 -1 -11 -1q-26 0 -30 28l-306 1179l-301 -1179q-4 -23 -20 -27q-8 -2 -14 -2q-23 0 -33 23zM926 1508q-2 6 -2 12q0 8 4 14l190 328q4 12 18 16q4 1 9 1q10 0 22 -5q19 -14 19 -31q0 -9 -4 -18l-189 -328q-6 -10 -20 -14q-6 -2 -12 -2q-9 0 -17 4q-14 8 -18 23z" />
<glyph unicode="&#x1e83;" horiz-adv-x="1357" d="M97 1029q5 13 18 20q16 6 28.5 0.5t16.5 -17.5l336 -911l147 405l-176 478q-6 12 -1 25t17 20q16 6 29.5 0.5t17.5 -17.5l150 -409l149 409q4 12 17.5 17.5t28 -1t19.5 -19.5t-1 -25l-178 -476l149 -407l334 911q4 12 17.5 17.5t27.5 -1t20 -19.5q2 -6 2 -12q0 -7 -3 -13 l-365 -977q-12 -27 -33 -27q-25 0 -35 25l-151 405l-150 -403q-12 -27 -32 -27q-25 0 -35 25l-363 979q-3 7 -3 13t2 12zM535 1181q-2 6 -2 11q0 8 4 14l190 328q4 12 17 16q4 1 10 2q10 0 22 -6q19 -14 19 -31q0 -9 -4 -18l-189 -328q-6 -10 -20 -14q-6 -2 -12 -2 q-9 0 -17 4q-14 9 -18 24z" />
<glyph unicode="&#x1e84;" horiz-adv-x="1918" d="M94 1341q-4 9 -3 17q0 19 22 28q35 12 45 -20l456 -1219l308 1205q8 31 34.5 30.5t34.5 -30.5l309 -1205l459 1219q10 33 45 20q22 -10 22 -28q0 -7 -3 -17l-494 -1318q-9 -23 -31 -24q-7 0 -16 3q-12 4 -17 17.5t-1 25.5l36 102l29 -104q4 -12 -4 -24.5t-22 -16.5 q-5 -1 -11 -1q-26 0 -30 28l-306 1179l-301 -1179q-4 -23 -20 -27q-8 -2 -14 -2q-23 0 -33 23zM717 1526q0 23 16.5 40t38.5 17q25 0 42 -17.5t17 -39.5q0 -25 -17 -41.5t-42 -16.5q-23 0 -39 16.5t-16 41.5zM1083 1526q0 23 16.5 40t39.5 17q25 0 42 -17.5t17 -39.5 q0 -25 -17.5 -41.5t-41.5 -16.5q-23 0 -39.5 16.5t-16.5 41.5z" />
<glyph unicode="&#x1e85;" horiz-adv-x="1357" d="M97 1029q5 13 18 20q16 6 28.5 0.5t16.5 -17.5l336 -911l147 405l-176 478q-6 12 -1 25t17 20q16 6 29.5 0.5t17.5 -17.5l150 -409l149 409q4 12 17.5 17.5t28 -1t19.5 -19.5t-1 -25l-178 -476l149 -407l334 911q4 12 17.5 17.5t27.5 -1t20 -19.5q2 -6 2 -12q0 -7 -3 -13 l-365 -977q-12 -27 -33 -27q-25 0 -35 25l-151 405l-150 -403q-12 -27 -32 -27q-25 0 -35 25l-363 979q-3 7 -3 13t2 12zM422 1253q0 23 16.5 40.5t38.5 17.5q25 0 42.5 -17.5t17.5 -40.5q0 -25 -17.5 -41t-42.5 -16q-23 0 -39 16t-16 41zM788 1253q0 23 16.5 40.5 t39.5 17.5q25 0 42 -17.5t17 -40.5q0 -25 -17.5 -41t-41.5 -16q-23 0 -39.5 16t-16.5 41z" />
<glyph unicode="&#x1ef2;" horiz-adv-x="1093" d="M88 1376q14 8 28.5 5t22.5 -13l408 -614l407 614q10 10 23.5 13t28.5 -5q10 -8 13 -22q1 -4 1 -8q0 -10 -6 -17l-432 -645v-649q0 -35 -35 -35t-35 35v649l-432 645q-6 7 -6 17q0 19 14 30zM330 1802q-5 10 -5 18q0 17 19 31q12 5 22 6q5 0 10 -2q13 -4 17 -16l191 -328 q4 -6 3 -14q0 -5 -1 -11q-4 -15 -19 -24q-9 -4 -17 -3q-6 0 -11 1q-14 4 -21 15z" />
<glyph unicode="&#x1ef3;" horiz-adv-x="962" d="M74 1008q-2 6 -2 11q0 8 4 15q6 12 20 17q35 10 45 -19l338 -893l342 895q10 29 45 19q12 -4 20 -17q5 -8 4 -16q0 -5 -1 -10l-527 -1379q-4 -16 -18 -22q-7 -3 -14 -3t-15 3q-14 4 -19 17.5t-1 25.5l147 387zM266 1491q-5 10 -5 18q0 17 20 31q12 5 22 6q5 0 9 -2 q13 -4 18 -16l190 -328q4 -6 4 -14q0 -5 -2 -11q-4 -15 -18 -24q-9 -4 -17 -4q-6 0 -12 2q-14 4 -20 14z" />
<glyph unicode="&#x2000;" horiz-adv-x="960" />
<glyph unicode="&#x2001;" horiz-adv-x="1923" />
<glyph unicode="&#x2002;" horiz-adv-x="960" />
<glyph unicode="&#x2003;" horiz-adv-x="1923" />
<glyph unicode="&#x2004;" horiz-adv-x="641" />
<glyph unicode="&#x2005;" horiz-adv-x="479" />
<glyph unicode="&#x2006;" horiz-adv-x="319" />
<glyph unicode="&#x2007;" horiz-adv-x="319" />
<glyph unicode="&#x2008;" horiz-adv-x="239" />
<glyph unicode="&#x2009;" horiz-adv-x="382" />
<glyph unicode="&#x200a;" horiz-adv-x="106" />
<glyph unicode="&#x2010;" horiz-adv-x="1005" d="M102 686q0 12 9.5 23.5t25.5 11.5h715q16 0 27.5 -11.5t11.5 -23.5q0 -35 -39 -35h-715q-35 0 -35 35z" />
<glyph unicode="&#x2011;" horiz-adv-x="1005" d="M102 686q0 12 9.5 23.5t25.5 11.5h715q16 0 27.5 -11.5t11.5 -23.5q0 -35 -39 -35h-715q-35 0 -35 35z" />
<glyph unicode="&#x2012;" horiz-adv-x="1005" d="M102 686q0 12 9.5 23.5t25.5 11.5h715q16 0 27.5 -11.5t11.5 -23.5q0 -35 -39 -35h-715q-35 0 -35 35z" />
<glyph unicode="&#x2013;" horiz-adv-x="1005" d="M102 686q0 12 9.5 23.5t25.5 11.5h715q16 0 27.5 -11.5t11.5 -23.5q0 -35 -39 -35h-715q-35 0 -35 35z" />
<glyph unicode="&#x2014;" horiz-adv-x="1212" d="M102 686q0 12 9.5 23.5t25.5 11.5h934q14 0 26.5 -11.5t12.5 -23.5q0 -14 -12.5 -24.5t-26.5 -10.5h-934q-35 0 -35 35z" />
<glyph unicode="&#x2018;" horiz-adv-x="440" d="M74 1350q-12 27 12 47q16 8 30.5 6t22.5 -17l191 -329q16 -29 -17 -49q-16 -8 -29.5 -3t-19.5 15z" />
<glyph unicode="&#x2019;" horiz-adv-x="442" d="M74 1057l190 329q10 14 24 17h5q11 0 24 -6q16 -14 17 -30q0 -8 -4 -17l-191 -330q-6 -10 -19 -15q-5 -2 -11 -2q-8 0 -17 5q-23 14 -23 32q1 8 5 17z" />
<glyph unicode="&#x201a;" horiz-adv-x="331" d="M70 -369l86 320q2 23 18 37t39 14q25 0 41 -17.5t16 -41.5q0 -8 -4 -21l-133 -311q-4 -10 -14 -22q-9 -10 -18 -9h-3q-31 6 -31 35q1 7 3 16z" />
<glyph unicode="&#x201c;" horiz-adv-x="714" d="M96 1348q-5 9 -5 17q0 16 18 30q11 7 22 6h6q14 -2 23 -17l192 -329q14 -29 -18 -49q-9 -5 -17 -5q-5 0 -11 1q-13 5 -19 16zM352 1348q-5 9 -5 17q0 16 18 30q13 7 24 6h5q13 -2 24 -17l190 -329q4 -9 5 -17q0 -18 -23 -32q-9 -5 -17 -5q-5 0 -11 1q-13 5 -19 16z" />
<glyph unicode="&#x201d;" horiz-adv-x="700" d="M96 1055l191 329q8 14 22 17h6l23 -6q27 -20 14 -47l-192 -330q-6 -10 -19 -16q-5 -2 -10 -1q-9 0 -18 5q-22 14 -22 31q0 8 5 18zM352 1055q-5 -10 -5 -18q0 -17 22 -31q10 -5 18 -5q5 0 10 1q12 5 21 16l190 330q4 8 4 16q0 17 -18 31q-11 7 -23 6h-6q-14 -2 -22 -17z " />
<glyph unicode="&#x201e;" horiz-adv-x="778" d="M94 -369l86 320q2 23 18.5 37t39 14t40 -17.5t17.5 -41.5q0 -8 -4 -21l-135 -311q-4 -10 -13.5 -20.5t-21.5 -10.5q-18 0 -26 16q-4 8 -4 18q0 8 3 17zM512 -369l88 320q2 23 18.5 37t36.5 14q25 0 42.5 -17.5t17.5 -41.5q0 -8 -4 -21l-136 -311q-4 -10 -14 -20.5 t-20 -10.5q-20 0 -27 16q-4 9 -4 20q0 7 2 15z" />
<glyph unicode="&#x2020;" horiz-adv-x="897" d="M47 878.5q0 34.5 35 34.5h324v529q0 35 34.5 35t34.5 -35v-529h324q35 0 35 -34.5t-35 -34.5h-324v-1178q0 -35 -34.5 -35t-34.5 35v1178h-324q-35 0 -35 34.5z" />
<glyph unicode="&#x2021;" horiz-adv-x="876" d="M49 1063q0 35 35 35h324v344q0 35 34.5 35t34.5 -35v-344h324q35 0 35 -35t-35 -35h-324v-514h314q12 0 23 -10t11 -29q0 -12 -11 -23.5t-23 -11.5h-314v-774q0 -35 -34.5 -35t-34.5 35v774l-304 2q-12 0 -23 11.5t-11 23.5q0 18 11 28.5t23 10.5l304 -2v514h-324 q-35 0 -35 35z" />
<glyph unicode="&#x2022;" horiz-adv-x="507" d="M115 522q0 61 43 103.5t102 42.5q61 0 103.5 -42t42.5 -104q0 -59 -42 -102t-104 -43q-59 0 -102 43t-43 102z" />
<glyph unicode="&#x2026;" horiz-adv-x="1214" d="M100 57q0 23 16.5 40.5t39.5 17.5q25 0 42 -17.5t17 -40.5q0 -25 -17.5 -41t-41.5 -16q-23 0 -39.5 16t-16.5 41zM547 57q0 23 16.5 40.5t40.5 17.5q23 0 40.5 -17.5t17.5 -40.5q0 -25 -17.5 -41t-40.5 -16q-25 0 -41 16t-16 41zM997 57q0 23 15.5 40.5t40 17.5t42 -17.5 t17.5 -40.5q0 -25 -17.5 -41t-42 -16t-40 16t-15.5 41z" />
<glyph unicode="&#x202f;" horiz-adv-x="382" />
<glyph unicode="&#x2030;" horiz-adv-x="2156" d="M74 1171q0 61 23.5 115.5t64.5 94.5t95 63.5t115.5 23.5t116 -23.5t94.5 -63.5t64.5 -94t24.5 -116q0 -59 -24.5 -113t-64.5 -96t-94.5 -66t-116 -24t-115.5 24t-95 66t-64.5 96t-23.5 113zM145 1171.5q0 -47.5 17.5 -89.5t48.5 -73.5t72 -50t90 -18.5q98 0 162.5 67.5 t64.5 163.5q0 47 -17.5 89.5t-48 73t-71.5 49t-90 18.5t-90 -18.5t-72 -49t-48.5 -72.5t-17.5 -89.5zM449 41l452 1397q4 10 12.5 16t20.5 6q14 0 25.5 -9t7.5 -30l-447 -1396q-4 -16 -13 -21.5t-20 -5.5q-16 0 -29 13.5t-9 29.5zM780 297q0 61 23.5 114.5t63.5 93.5 t94.5 62.5t117.5 22.5q59 0 114.5 -22.5t95.5 -62.5t63.5 -93.5t23.5 -114.5q0 -59 -23.5 -113.5t-63.5 -96.5t-95 -65.5t-115 -23.5q-63 0 -117.5 23.5t-94.5 65.5t-63.5 96.5t-23.5 113.5zM852 297q0 -47 16.5 -89t47 -74t71.5 -50t92 -18q47 0 88 18t73 50t49.5 74 t17.5 89q0 45 -17.5 88t-49.5 72.5t-73 49t-88 19.5q-51 0 -92 -19.5t-71.5 -49t-47 -72.5t-16.5 -88zM1448 297q0 61 23.5 114.5t64.5 93.5t95.5 62.5t115.5 22.5t115.5 -22.5t94.5 -62.5t64.5 -93.5t24.5 -114.5q0 -59 -24.5 -113.5t-64.5 -96.5t-94.5 -65.5t-115.5 -23.5 t-115.5 23.5t-95.5 65.5t-64.5 96.5t-23.5 113.5zM1520 297q0 -47 17 -89t48 -74t72 -50t90 -18t90 18t73 50t49 74t17 89q0 45 -17 88t-49 72.5t-73 49t-90 19.5t-90 -19.5t-72 -49t-48 -72.5t-17 -88z" />
<glyph unicode="&#x2039;" horiz-adv-x="751" d="M88 520.5q0 20.5 16 30.5l488 455q12 10 36 12h3q11 0 19 -9t8 -24q0 -16 -13 -31l-473 -438l467 -444q14 -14 13 -40t-31 -26q-12 0 -23 8l-494 469q-16 17 -16 37.5z" />
<glyph unicode="&#x203a;" horiz-adv-x="749" d="M117 1018h3q24 -2 34 -12l489 -455q14 -10 14 -30.5t-14 -37.5l-494 -469q-10 -8 -24 -8q-29 0 -30 25.5t14 40.5l466 444l-473 438q-15 15 -14 31q0 15 9 24t20 9z" />
<glyph unicode="&#x2044;" horiz-adv-x="667" d="M63 43l449 1395q4 10 13.5 16t19.5 6q25 -2 30 -14q4 -7 4 -15q0 -5 -1 -10l-445 -1396q-12 -27 -32.5 -27t-30.5 12q-7 9 -8 22q0 5 1 11z" />
<glyph unicode="&#x205f;" horiz-adv-x="479" />
<glyph unicode="&#x20ac;" horiz-adv-x="1224" d="M82 528q0 16 10 26.5t23 10.5h80v287h-80q-12 0 -22.5 9t-10.5 28q0 16 10 26.5t23 10.5h78q8 106 50 197t110.5 159t156.5 106.5t186 38.5q137 0 253 -69.5t184 -183.5q6 -12 6 -17q0 -18 -9.5 -28.5t-27.5 -10.5q-20 0 -31 17q-57 96 -156.5 157.5t-218.5 61.5 q-84 0 -157.5 -33t-131 -91.5t-94.5 -136t-47 -167.5h277q14 0 26.5 -9.5t12.5 -27.5q0 -20 -12.5 -28.5t-26.5 -8.5h-275v-287h275q14 0 26.5 -10t12.5 -27q0 -18 -12.5 -27t-26.5 -9h-279q10 -92 46 -171t93.5 -138.5t132 -91.5t160.5 -32q125 0 221.5 56.5t155.5 152.5 q8 16 29 17q37 0 37 -37q0 -14 -9 -27q-70 -106 -183 -170.5t-251 -64.5q-98 0 -187 38.5t-156.5 105.5t-109.5 160t-50 202h-78q-12 0 -22.5 9t-10.5 27z" />
<glyph unicode="&#x2122;" horiz-adv-x="1878" d="M96 1380q0 14 9.5 24.5t25.5 10.5h455q16 0 25.5 -10t9.5 -25q0 -35 -35 -34h-193v-500q0 -14 -12 -24.5t-25 -10.5q-35 0 -34 35v500h-191q-35 -1 -35 34zM776 844v307q0 51 21.5 100t58.5 86t84 58.5t104 21.5q63 0 124 -33.5t110 -95.5q51 63 111.5 96t123.5 33 q53 0 102.5 -21.5t86.5 -57t57.5 -84t20.5 -99.5v-311q0 -14 -10.5 -24.5t-24.5 -10.5q-35 0 -35 35v315q-8 82 -65.5 135.5t-131.5 53.5q-88 0 -143 -57.5t-55 -139.5v-307q0 -35 -37 -35t-37 35v307q-2 41 -18.5 77t-42 62.5t-61.5 42t-75 15.5q-41 0 -76.5 -16.5t-63 -42 t-43 -60.5t-15.5 -72v-313q0 -35 -35 -35q-12 0 -23.5 10.5t-11.5 24.5z" />
<glyph unicode="&#x2212;" horiz-adv-x="1005" d="M102 686q0 12 9.5 23.5t25.5 11.5h715q16 0 27.5 -11.5t11.5 -23.5q0 -35 -39 -35h-715q-35 0 -35 35z" />
<glyph unicode="&#xe000;" horiz-adv-x="1055" d="M0 1055h1055v-1055h-1055v1055z" />
<glyph unicode="&#xfb01;" horiz-adv-x="851" d="M59 1020q0 35 35 35h131v82q0 55 20.5 105t57.5 88t87 59.5t108 21.5q14 0 24 -11t10 -24q0 -35 -34 -35q-88 0 -145.5 -58t-57.5 -146v-82h424q12 -2 22.5 -11.5t10.5 -23.5v-985q0 -35 -35 -35q-14 0 -24.5 10t-10.5 25v950h-387v-950q0 -14 -10.5 -24.5t-24.5 -10.5 q-35 0 -35 35v950h-131q-16 0 -25.5 11.5t-9.5 23.5zM657 1352q0 25 17.5 42t42.5 17q23 0 40 -17.5t17 -41.5q0 -23 -17.5 -41.5t-39.5 -18.5q-25 0 -42.5 18.5t-17.5 41.5z" />
<glyph unicode="&#xfb02;" horiz-adv-x="864" d="M59 1020q0 35 35 35h131v82q0 55 20.5 105t57.5 88t87 59.5t108 21.5h227q12 0 22.5 -11t10.5 -24v-1341q0 -14 -10.5 -24.5t-22.5 -10.5q-35 0 -35 35v1306h-192q-88 0 -144.5 -58t-56.5 -146v-82h197q35 0 34 -35q0 -12 -10 -23.5t-24 -11.5h-197v-950 q0 -14 -10.5 -24.5t-26.5 -10.5q-35 0 -35 35v950h-131q-16 0 -25.5 11.5t-9.5 23.5z" />
<glyph horiz-adv-x="641" />
<glyph horiz-adv-x="729" d="M297 -250q0 16 10 27.5t27 11.5q18 0 27.5 -11t9.5 -28v-356q0 -12 -9.5 -23.5t-27.5 -11.5q-14 0 -25.5 10t-11.5 25v356z" />
<glyph horiz-adv-x="729" d="M297 -240q0 16 10 27.5t27 11.5q18 0 27.5 -11t9.5 -28v-354q0 -14 -9.5 -24.5t-27.5 -10.5q-14 0 -25.5 9.5t-11.5 25.5v354z" />
</font>
</defs>
</svg>
