<?xml version="1.0" standalone="no"?>
<!DOCTYPE svg PUBLIC "-//W3C//DTD SVG 1.1//EN" "http://www.w3.org/Graphics/SVG/1.1/DTD/svg11.dtd" >
<svg xmlns="http://www.w3.org/2000/svg">
<metadata>
This is a custom SVG webfont generated by Font Squirrel.
Copyright   : Copyright c 2010 by Studio Kmzero All rights reserved
Designer    : Francesco Canovaro Cosimo Lorenzo Pancini Katiuscia Mari Matteo Di Iorio
Foundry     : Studio Kmzero
Foundry URL : wwwzerofontscom
</metadata>
<defs>
<font id="AntipastoRegular" horiz-adv-x="1239" >
<font-face units-per-em="2048" ascent="1638" descent="-410" />
<missing-glyph horiz-adv-x="339" />
<glyph unicode=" "  horiz-adv-x="339" />
<glyph unicode="&#x09;" horiz-adv-x="339" />
<glyph unicode="&#xa0;" horiz-adv-x="339" />
<glyph unicode="!" horiz-adv-x="335" d="M78 90q0 39 26.5 65.5t63.5 26.5t63.5 -26.5t26.5 -65.5q0 -37 -26.5 -63.5t-63.5 -26.5t-63.5 26.5t-26.5 63.5zM100 442v904q0 29 19.5 48t48.5 19t49.5 -19.5t20.5 -47.5v-904q0 -29 -20.5 -48t-49.5 -19t-48.5 19t-19.5 48z" />
<glyph unicode="&#x22;" horiz-adv-x="593" d="M106 1063v342q0 29 19.5 48.5t48.5 19.5t49.5 -19.5t20.5 -48.5v-342q0 -23 -20.5 -45.5t-49.5 -22.5t-48.5 19.5t-19.5 48.5zM344 1063v342q0 29 20.5 48.5t49 19.5t48 -19.5t19.5 -48.5v-342q0 -23 -19.5 -45.5t-48 -22.5t-49 19.5t-20.5 48.5z" />
<glyph unicode="#" horiz-adv-x="1398" d="M66 516q0 29 20 48.5t49 19.5h213l101 319h-164q-29 0 -48.5 19.5t-19.5 48t19.5 49t48.5 20.5h209l118 375q6 23 25.5 35t42.5 12q31 0 48 -22.5t17 -46.5q0 -12 -2 -19l-106 -334h332l118 375q8 23 27 35t41 12q31 0 48.5 -22.5t17.5 -46.5q0 -12 -2 -19l-107 -334h154 q29 0 48 -20.5t19 -49t-19.5 -48t-47.5 -19.5h-197l-102 -319h159q29 0 48.5 -19.5t19.5 -48.5t-19.5 -49.5t-48.5 -20.5h-204l-127 -399q-8 -23 -27.5 -36t-40.5 -13q-31 0 -49.5 22.5t-18.5 45.5q0 10 5 22l114 358h-332l-127 -399q-8 -23 -27.5 -36t-39.5 -13 q-31 0 -49.5 22.5t-18.5 45.5q0 10 4 22l115 358h-168q-29 0 -49 20.5t-20 49.5zM494 584h329l101 319h-332z" />
<glyph unicode="$" horiz-adv-x="1064" d="M80 266q0 23 17.5 45.5t56.5 22.5t59 -35q14 -31 42 -56.5t62.5 -46t71.5 -33.5t76 -20v592q-61 20 -123.5 49t-111 69t-79 91t-30.5 115q0 74 28.5 133t77.5 102t109.5 71t128.5 40v137q0 29 19.5 48.5t48 19.5t49 -19.5t20.5 -48.5v-133q84 -8 170 -47t156 -133 q14 -23 14 -45q0 -31 -19.5 -52.5t-50.5 -21.5q-41 0 -63 35q-41 68 -97.5 93.5t-109.5 31.5v-432q2 0 3 -1t5 -1q84 -31 152.5 -66t119 -84t78 -113.5t27.5 -152.5q0 -80 -31.5 -150.5t-84 -126t-122 -91.5t-147.5 -48v-154q0 -29 -20.5 -49t-49 -20t-48 20.5t-19.5 48.5 v154q-53 6 -119.5 28.5t-126 58.5t-99.5 80t-40 95zM260 1059q0 -31 18.5 -55.5t47 -45t64.5 -38t75 -33.5v381q-39 -6 -75 -22.5t-64.5 -40t-47 -60.5t-18.5 -86zM602 143q51 10 96 35t78 61.5t53.5 83t20.5 97.5q0 104 -68.5 163.5t-179.5 102.5v-543z" />
<glyph unicode="%" horiz-adv-x="1460" d="M76 1151q0 66 25.5 123t68.5 100t100.5 68.5t122.5 25.5q68 0 125 -25.5t100.5 -68.5t69 -100t25.5 -123q0 -68 -25.5 -125t-69 -100t-100.5 -69t-125 -26q-66 0 -123 26t-100 69t-68.5 100t-25.5 125zM213 1151q0 -76 53 -129t127 -53q76 0 129 53t53 129q0 74 -53 127 t-129 53q-74 0 -127 -53t-53 -127zM432 61q0 16 4 25l443 1327q6 23 24.5 37t42.5 14q29 0 47.5 -24.5t18.5 -46.5q0 -12 -4 -17l-443 -1329q-8 -25 -26.5 -37t-40.5 -12q-31 0 -48.5 19t-17.5 44zM748 315q0 68 25.5 125.5t68.5 100.5t100 68.5t125 25.5q66 0 123 -25.5 t100 -68.5t68.5 -100.5t25.5 -125.5q0 -66 -25.5 -123t-68.5 -100t-100 -68.5t-123 -25.5q-68 0 -125 25.5t-100 68.5t-68.5 100t-25.5 123zM885 315q0 -74 53 -127t129 -53q74 0 127 53.5t53 126.5q0 76 -53 129.5t-127 53.5q-76 0 -129 -53.5t-53 -129.5z" />
<glyph unicode="&#x26;" horiz-adv-x="1273" d="M84 393q0 106 50 196.5t134 145.5q-2 0 -2 2q-72 49 -114.5 131t-42.5 179q0 80 29.5 149.5t81.5 121.5t122 82t149.5 30t149.5 -30t121 -82t81.5 -122t30.5 -149q0 -72 -25.5 -135.5t-68.5 -115t-103.5 -86t-127.5 -42.5l328 -291l186 170q18 14 45 14q29 0 47.5 -19.5 t18.5 -47.5q0 -31 -21 -52l-176 -159l188 -177q23 -20 23 -51q0 -29 -18.5 -50t-47.5 -21q-25 0 -47 18l-198 188l-82 -75q-66 -57 -137.5 -94t-165.5 -37q-84 0 -159 32.5t-130.5 88t-87 130t-31.5 158.5zM219 393q0 -57 20.5 -105t58.5 -86t87 -59.5t107 -21.5 q68 0 133 42t149 120l-397 356q-72 -33 -115 -99.5t-43 -146.5zM248 1046.5q0 -51.5 17.5 -94.5t51 -76.5t77.5 -52t98 -20.5q51 0 95 18.5t76.5 52t52 77.5t19.5 95.5t-19.5 95.5t-52 76.5t-76.5 52t-95.5 19.5t-95.5 -19.5t-77.5 -52t-52 -76.5t-18.5 -95.5z" />
<glyph unicode="'" horiz-adv-x="348" d="M106 1069v340q0 29 19.5 48.5t48.5 19.5t49.5 -19.5t20.5 -48.5v-340q0 -29 -20.5 -49.5t-49.5 -20.5t-48.5 20.5t-19.5 49.5z" />
<glyph unicode="(" horiz-adv-x="620" d="M78 176v1061q0 80 29.5 151.5t83 126t124 87t150.5 32.5q35 0 56.5 -19.5t21.5 -48t-20.5 -49t-49.5 -20.5q-53 0 -100 -20.5t-83 -56.5t-55.5 -83t-19.5 -100v-1061q0 -53 19.5 -100t55.5 -83t83 -56.5t100 -20.5q29 0 49.5 -19.5t20.5 -50.5q0 -29 -20.5 -48t-49.5 -19 q-82 0 -153.5 30.5t-126 85t-85 127t-30.5 154.5z" />
<glyph unicode=")" horiz-adv-x="622" d="M80 1566.5q0 28.5 20.5 48t57.5 19.5q80 0 150.5 -32.5t123.5 -87t83 -126t30 -151.5v-1061q0 -82 -32 -154.5t-85 -127t-126 -85t-155 -30.5q-29 0 -48 19.5t-19 47.5q0 31 19.5 50.5t47.5 19.5q53 0 101.5 20.5t83.5 56.5t55.5 83t20.5 100v1061q0 53 -20.5 100 t-55.5 83t-83 56.5t-102 20.5q-29 0 -48 20.5t-19 49z" />
<glyph unicode="*" horiz-adv-x="686" d="M80 1118q0 18 7 33.5t26 26.5l98 55l-98 55q-31 16 -31 60q0 31 20.5 48t44.5 17q12 0 35 -8l94 -55v110q0 29 19.5 48.5t46.5 19.5q29 0 49.5 -19.5t20.5 -48.5v-112l96 57q16 8 39 8q18 0 39.5 -16.5t21.5 -46.5q0 -41 -33 -60l-96 -57l99 -55q31 -20 30 -60 q0 -31 -19.5 -48t-43.5 -17q-18 0 -35 8l-98 55v-112q0 -27 -20.5 -46.5t-49.5 -19.5q-27 0 -46.5 19.5t-19.5 46.5v110l-94 -55q-23 -8 -35 -8q-20 0 -43.5 17t-23.5 50z" />
<glyph unicode="+" horiz-adv-x="925" d="M53 686q0 29 19.5 48.5t48.5 19.5h272v274q0 29 20.5 49.5t49.5 20.5t48 -20.5t19 -49.5v-274h275q29 0 49 -19.5t20 -48.5t-20 -49.5t-49 -20.5h-275v-274q0 -29 -19 -48.5t-48 -19.5t-49.5 19.5t-20.5 48.5v274h-272q-29 0 -48.5 20.5t-19.5 49.5z" />
<glyph unicode="," horiz-adv-x="348" d="M106 86q0 29 19.5 49.5t48.5 20.5t49.5 -20.5t20.5 -49.5v-340q0 -25 -20.5 -47.5t-49.5 -22.5t-48.5 20.5t-19.5 49.5v340z" />
<glyph unicode="-" horiz-adv-x="1026" d="M104 688q0 29 19.5 48.5t48.5 19.5h682q29 0 48.5 -19.5t19.5 -48.5t-19.5 -49.5t-48.5 -20.5h-682q-29 0 -48.5 20.5t-19.5 49.5z" />
<glyph unicode="." horiz-adv-x="354" d="M86 90q0 39 26.5 65.5t63.5 26.5q39 0 65.5 -26.5t26.5 -65.5q0 -37 -26.5 -63.5t-65.5 -26.5q-37 0 -63.5 26.5t-26.5 63.5z" />
<glyph unicode="/" horiz-adv-x="679" d="M57 66q0 10 4 22l426 1327q6 23 24.5 35t41.5 12q31 0 48 -22.5t17 -46.5q0 -12 -2 -19l-423 -1327q-6 -23 -27 -36t-39 -13q-33 0 -51.5 22.5t-18.5 45.5z" />
<glyph unicode="0" horiz-adv-x="1581" d="M86 702q0 147 55.5 275.5t150.5 224.5t223 151.5t276 55.5q145 0 273 -55.5t224 -151.5t151.5 -224t55.5 -276q0 -145 -55.5 -273t-151.5 -223t-224 -150.5t-273 -55.5q-147 0 -275.5 55.5t-223.5 150.5t-150.5 223t-55.5 273zM223 702q0 -117 44 -220t121 -180 t180.5 -121t222.5 -44q117 0 220 44t181 121t122 180.5t44 219.5q0 119 -44 222.5t-122 181.5t-181.5 122t-219.5 44q-119 0 -222.5 -44t-180.5 -122t-121 -181.5t-44 -222.5z" />
<glyph unicode="1" horiz-adv-x="561" d="M82 1180q0 16 8 31.5t25 27.5l247 156q23 16 51.5 16t48 -17.5t19.5 -47.5v-1278q0 -29 -19.5 -48.5t-48 -19.5t-49 19.5t-20.5 48.5v1151l-158 -97q-18 -12 -36 -12q-23 0 -45.5 19.5t-22.5 50.5z" />
<glyph unicode="2" horiz-adv-x="1071" d="M86 72q2 29 37 63l491 467q76 70 122 122t73 95t36 82t9 84q0 63 -22.5 118.5t-62.5 97.5t-95.5 65.5t-120.5 23.5q-104 0 -180 -56t-103 -157q-10 -29 -24.5 -47t-43 -18t-47 18.5t-18.5 46.5q0 49 30 108.5t85 111t134 85t177 33.5q90 0 166 -34.5t133.5 -95t91 -141.5 t33.5 -169q0 -109 -52 -208t-165 -202l-465 -430h610q29 0 49.5 -20.5t20.5 -49t-20.5 -47t-49.5 -18.5h-745q-6 0 -20.5 2t-27.5 10t-24.5 22.5t-11.5 37.5z" />
<glyph unicode="3" horiz-adv-x="1044" d="M80 430q0 29 19.5 48.5t48 19.5t49 -19.5t20.5 -48.5q0 -66 24.5 -121t65.5 -96t96.5 -65.5t118.5 -24.5q61 0 117.5 24.5t97.5 65.5t65.5 96.5t24.5 120.5q0 61 -23.5 115.5t-63.5 95.5t-92 65.5t-116 28.5h-10q-29 0 -49 19.5t-20 48t20.5 49t48.5 20.5h8 q80 4 136.5 61.5t56.5 139.5q0 84 -58.5 142.5t-142.5 58.5t-142 -58.5t-58 -140.5q0 -31 -20.5 -50t-51.5 -19t-49.5 19t-18.5 50q0 68 25.5 130.5t73 108.5t109 72.5t132.5 26.5q70 0 132.5 -26.5t108.5 -72.5t72.5 -108.5t26.5 -132.5q0 -80 -32.5 -147.5t-88.5 -114.5 q98 -57 161 -157.5t63 -223.5q0 -92 -36 -173t-95.5 -140.5t-140.5 -94t-171 -34.5t-171 34.5t-141 94t-95 140.5t-35 173z" />
<glyph unicode="4" horiz-adv-x="1011" d="M76 412q0 29 14 53l569 919q20 29 54 29q27 0 48 -20.5t21 -55.5v-872h90q29 0 48.5 -20.5t19.5 -49t-19.5 -48t-48.5 -19.5h-90v-252q0 -29 -19.5 -49.5t-48 -20.5t-49 20.5t-20.5 49.5v252h-489q-37 0 -58.5 24.5t-21.5 59.5zM248 465h397v631z" />
<glyph unicode="5" horiz-adv-x="1101" d="M84 315q0 25 15.5 44.5t45.5 19.5q25 0 46.5 -18.5t33.5 -41.5q45 -82 127 -132t180 -50q74 0 136.5 28t110.5 75t76 110.5t28 136.5q0 72 -28 135.5t-76 110.5t-110.5 75t-136.5 28q-29 0 -63.5 -4.5t-68 -15.5t-62.5 -28.5t-45 -44.5q-18 -25 -33.5 -40t-42.5 -15 t-44 19.5t-17 44.5q0 4 1 7t1 7l94 584q2 27 22.5 45t47.5 18h544q29 0 49.5 -19.5t20.5 -48t-20.5 -49t-49.5 -20.5h-487l-57 -352q100 49 210 49q100 0 188.5 -39t155 -104.5t105.5 -154.5t39 -188q0 -100 -39 -188t-105.5 -154.5t-154.5 -105.5t-189 -39 q-141 0 -254.5 71.5t-177.5 188.5q-16 24 -16 55z" />
<glyph unicode="6" horiz-adv-x="1087" d="M72 473q0 76 23.5 145.5t66.5 133.5l401 630q12 16 27.5 23.5t34.5 7.5q31 0 48 -20.5t17 -46.5q0 -20 -8 -37l-242 -375q25 4 50.5 7t52.5 3q96 0 182 -36t150.5 -100.5t102.5 -150.5t38 -184q0 -96 -38 -183t-102.5 -150.5t-150.5 -101.5t-182 -38q-98 0 -184.5 38 t-151 101.5t-100 150.5t-35.5 183zM209 473q0 -70 25.5 -131t70.5 -105t105.5 -71t132.5 -27q68 0 130 27t107 71t72 105t27 131t-27 131.5t-72 106.5t-107.5 71.5t-129.5 26.5q-72 0 -132.5 -26.5t-105.5 -71.5t-70.5 -106.5t-25.5 -131.5z" />
<glyph unicode="7" horiz-adv-x="925" d="M66 1343.5q0 28.5 20 48t49 19.5h656q33 0 50 -20.5t17 -47.5q0 -18 -6 -34l-578 -1274q-23 -35 -61 -35q-31 0 -50.5 22.5t-19.5 45.5q0 18 11 34l520 1172h-539q-29 0 -49 20.5t-20 49z" />
<glyph unicode="8" horiz-adv-x="1036" d="M84 436q0 119 58.5 217.5t156.5 155.5q-57 49 -90 116.5t-33 147.5q0 70 26.5 132.5t74 108.5t108.5 72.5t133 26.5q70 0 132.5 -26.5t108.5 -72.5t72.5 -108.5t26.5 -132.5q0 -80 -32.5 -147.5t-90.5 -114.5q98 -57 157.5 -156.5t59.5 -218.5q0 -92 -33.5 -170t-92 -138 t-138.5 -94t-170 -34q-92 0 -170 34t-136 94t-93 138t-35 170zM223 434q0 -63 23.5 -115.5t63.5 -92.5t92.5 -63.5t115.5 -23.5q61 0 115.5 23.5t94.5 63.5t62.5 92.5t22.5 115.5q0 61 -22.5 115.5t-62.5 94.5t-94 62.5t-116 22.5q-63 0 -115.5 -22.5t-92.5 -62.5 t-63.5 -94.5t-23.5 -115.5zM313 1073q0 -43 15.5 -80t43 -64.5t65.5 -44t81 -16.5q41 0 79 16.5t65.5 44t43 64.5t15.5 80q0 41 -15.5 79t-43 65.5t-65.5 43t-79 15.5q-43 0 -81 -15.5t-65.5 -43t-43 -65.5t-15.5 -79z" />
<glyph unicode="9" horiz-adv-x="1085" d="M72 940q0 98 36.5 184t101 149.5t150.5 101.5t185 38q96 0 182 -38t150.5 -101.5t101.5 -149.5t37 -184q0 -76 -25.5 -146.5t-66.5 -131.5l-402 -631q-23 -33 -59 -33q-31 0 -50.5 22.5t-19.5 47.5q0 18 13 36l239 375q-25 -4 -49.5 -7t-50.5 -3q-98 0 -184.5 37 t-151 100.5t-101 149.5t-36.5 184zM209 940q0 -72 25.5 -132t71.5 -105.5t106.5 -72t132.5 -26.5q68 0 130 26.5t106 72t71 105.5t27 132q0 68 -27 130.5t-71 106.5t-106.5 70.5t-129.5 26.5q-72 0 -132.5 -26.5t-106.5 -70.5t-71.5 -106.5t-25.5 -130.5z" />
<glyph unicode=":" horiz-adv-x="364" d="M90 90q0 39 26.5 65.5t65.5 26.5q37 0 63.5 -26.5t26.5 -65.5q0 -37 -26.5 -63.5t-63.5 -26.5q-39 0 -65.5 26.5t-26.5 63.5zM90 983q0 37 26.5 63.5t65.5 26.5q37 0 63.5 -26.5t26.5 -63.5q0 -39 -26.5 -65.5t-63.5 -26.5q-39 0 -65.5 26.5t-26.5 65.5z" />
<glyph unicode=";" horiz-adv-x="325" d="M74 979q0 39 26.5 65.5t63.5 26.5t63.5 -26.5t26.5 -65.5q0 -37 -26.5 -63.5t-63.5 -26.5t-63.5 26.5t-26.5 63.5zM92 86q0 29 20.5 49.5t49 20.5t48 -20.5t19.5 -49.5v-340q0 -25 -19.5 -47.5t-48 -22.5t-49 20.5t-20.5 49.5v340z" />
<glyph unicode="=" horiz-adv-x="997" d="M104 508q0 29 19.5 49.5t48.5 20.5h653q29 0 48.5 -20.5t19.5 -49.5t-19.5 -48.5t-48.5 -19.5h-653q-29 0 -48.5 19.5t-19.5 48.5zM104 960.5q0 28.5 19.5 48t48.5 19.5h653q29 0 48.5 -19.5t19.5 -48t-19.5 -49t-48.5 -20.5h-653q-29 0 -48.5 20.5t-19.5 49z" />
<glyph unicode="&#x3e;" horiz-adv-x="847" d="M80 977q0 29 18.5 47t44.5 18q23 0 39 -10l561 -301q25 -12 25 -49t-27 -49l-559 -299q-16 -8 -35 -8q-27 0 -46 16t-19 47q0 20 12 37.5t29 26.5l473 231l-483 238q-18 10 -25.5 24.5t-7.5 30.5z" />
<glyph unicode="?" horiz-adv-x="991" d="M61 977q0 92 35 171t93.5 138.5t137.5 93t169 33.5q88 0 167.5 -33.5t138 -93t93.5 -138.5t35 -169t-35 -169t-93.5 -137.5t-138 -92t-167.5 -33.5h-70v-105q0 -35 -19.5 -56t-48 -21t-49 21.5t-20.5 55.5v164q0 35 21.5 56.5t56.5 21.5h129q61 0 115.5 22.5t94 62.5 t63.5 93t24 115q0 63 -24 117.5t-63.5 93.5t-94 62.5t-115.5 23.5q-59 0 -112.5 -23.5t-94.5 -62.5t-64.5 -93.5t-23.5 -117.5q0 -31 -19.5 -49.5t-50.5 -18.5t-50.5 18.5t-19.5 49.5zM268 90q0 39 27 65.5t63.5 26.5t63.5 -26.5t27 -65.5q0 -37 -27 -63.5t-63.5 -26.5 t-63.5 26.5t-27 63.5z" />
<glyph unicode="@" horiz-adv-x="1761" d="M82 674q0 166 63.5 312.5t170 255t253 171t312.5 62.5t311 -62.5t253.5 -171t172 -255t63.5 -312.5q0 -66 -12 -139.5t-45 -135t-91 -101.5t-147 -40q-82 0 -138 51t-89 121q-51 -51 -126 -88t-152.5 -37t-145 28.5t-119 80t-80 119t-28.5 143.5q0 78 28.5 145.5 t80 118.5t119 80t145 29t145.5 -29t118 -80t78.5 -118.5t28.5 -145.5v-141q0 -59 40 -99.5t98 -40.5q51 0 81.5 27t48 67.5t21.5 90t4 92.5q0 137 -52 259t-141 212t-211 141t-259.5 51t-258 -51t-209.5 -141t-141.5 -212t-52.5 -259t52.5 -257t141.5 -210t209.5 -142.5 t258.5 -52.5q51 0 101 7.5t95 19.5q20 8 37 8q27 0 47.5 -16.5t20.5 -47t-33 -51t-79 -33t-98 -16.5t-91 -4q-166 0 -312.5 62.5t-253 170t-170 253t-63.5 311.5zM645 676q0 -98 67.5 -166t168.5 -68q94 0 161.5 65.5t71.5 168.5q0 100 -67.5 167.5t-165.5 67.5 q-100 0 -168 -67.5t-68 -167.5z" />
<glyph unicode="A" horiz-adv-x="1390" d="M76 68q0 14 6 26l551 1268q6 18 23.5 34.5t40 16.5t40 -15.5t27.5 -35.5l545 -1268q6 -8 6 -26q0 -25 -18.5 -45.5t-49.5 -20.5q-47 0 -63 43l-178 404h-621l-176 -404q-10 -20 -27.5 -31.5t-38.5 -11.5q-31 0 -49 20.5t-18 45.5zM444 586h502l-250 571z" />
<glyph unicode="B" horiz-adv-x="1081" d="M94 68v1278q0 29 20.5 48t49.5 19h393q72 0 133.5 -26.5t108.5 -72.5t74.5 -109.5t27.5 -133.5q0 -80 -36 -148.5t-93 -117.5q96 -55 155.5 -153.5t59.5 -219.5q0 -90 -33.5 -168t-92 -137t-137.5 -93t-167 -34h-393q-29 0 -49.5 19.5t-20.5 48.5zM231 137h326 q59 0 112.5 24.5t93.5 64.5t63.5 92.5t23.5 113.5q0 59 -23.5 113.5t-63.5 94.5t-93.5 62.5t-112.5 22.5h-326v-588zM231 862h326q43 0 80 17.5t64.5 47t44 66.5t16.5 78t-16.5 78t-44 65.5t-64.5 45t-80 16.5h-326v-414z" />
<glyph unicode="C" horiz-adv-x="1415" d="M86 702q0 147 55.5 275.5t150.5 224.5t223 151.5t275.5 55.5t276.5 -57.5t227 -157.5q10 -10 19.5 -27.5t9.5 -36.5q0 -29 -20.5 -44t-47.5 -15q-33 0 -51 23q-80 68 -186.5 123t-226.5 55q-119 0 -222.5 -44t-180.5 -122t-121 -181.5t-44 -222.5q0 -117 44 -220 t121 -180t180.5 -121t222.5 -44q123 0 230 47t185 131q10 14 26.5 20.5t35.5 6.5q29 0 43 -19.5t14 -43.5q0 -35 -20 -56q-96 -106 -229.5 -164.5t-284.5 -58.5q-147 0 -275.5 55.5t-223.5 150.5t-150.5 223t-55.5 273z" />
<glyph unicode="D" horiz-adv-x="1341" d="M92 68v1278q0 29 20.5 48t49.5 19h381q145 0 273 -55t224.5 -151.5t151.5 -224.5t55 -273q0 -147 -55 -276.5t-151.5 -225.5t-224.5 -151.5t-273 -55.5h-381q-29 0 -49.5 19.5t-20.5 48.5zM229 137h314q117 0 220 45t181 123t122 181.5t44 222.5q0 117 -44 220t-122 181 t-181.5 122t-219.5 44h-314v-1139z" />
<glyph unicode="E" horiz-adv-x="974" d="M82 68v1278q0 29 19.5 48t48.5 19h673q29 0 48.5 -19.5t19.5 -48t-19.5 -49t-48.5 -20.5h-604v-494h402q31 0 50 -19.5t19 -48t-19.5 -49t-49.5 -20.5h-402v-508h604q29 0 48.5 -19.5t19.5 -49.5q0 -29 -19.5 -48.5t-48.5 -19.5h-673q-29 0 -48.5 19.5t-19.5 48.5z" />
<glyph unicode="F" horiz-adv-x="960" d="M76 68v1278q0 29 19.5 48t47.5 19h676q29 0 48.5 -19.5t19.5 -48t-19.5 -49t-48.5 -20.5h-606v-494h383q29 0 48.5 -19.5t19.5 -48t-19.5 -49t-48.5 -20.5h-383v-577q0 -29 -20.5 -48.5t-49 -19.5t-48 19.5t-19.5 48.5z" />
<glyph unicode="G" horiz-adv-x="1538" d="M84 702q0 147 55.5 275.5t150.5 224.5t223 151.5t273 55.5q178 0 328 -80t244 -213q16 -23 16 -45t-18.5 -43.5t-48.5 -21.5q-14 0 -30.5 7t-31.5 25q-106 123 -223 178.5t-236 55.5q-117 0 -220 -44t-180 -122t-121 -181.5t-44 -222.5q0 -117 44 -220t121 -180 t180.5 -121t219.5 -44q94 0 177.5 28t153 76t121.5 116.5t83 150.5h-307q-29 0 -49.5 20.5t-20.5 49t20.5 48t49.5 19.5h399q31 0 49.5 -20.5t18.5 -49.5q0 -4 -2 -9t-2 -9q-23 -119 -86.5 -222.5t-155.5 -177t-207 -115.5t-242 -42q-145 0 -273 55.5t-223 150.5t-150.5 223 t-55.5 273z" />
<glyph unicode="H" horiz-adv-x="1191" d="M106 68v1278q0 29 19.5 48t48.5 19t49.5 -19.5t20.5 -47.5v-623h704v623q0 29 20.5 48t49.5 19t48 -19.5t19 -47.5v-1278q0 -29 -19 -48.5t-48 -19.5t-49.5 19.5t-20.5 48.5v518h-704v-518q0 -29 -20.5 -48.5t-49.5 -19.5t-48.5 19.5t-19.5 48.5z" />
<glyph unicode="I" horiz-adv-x="354" d="M109 68v1278q0 29 19 48t48 19t49.5 -19.5t20.5 -47.5v-1278q0 -29 -20.5 -48.5t-49.5 -19.5t-48 19.5t-19 48.5z" />
<glyph unicode="J" horiz-adv-x="311" d="M-309 -331.5q0 28.5 19.5 48t47.5 19.5q74 0 136.5 26.5t108.5 73.5t72.5 108.5t26.5 133.5v1268q0 29 19.5 48t48.5 19t49.5 -19.5t20.5 -47.5v-1268q0 -98 -38 -185.5t-102.5 -153t-151.5 -102t-190 -36.5q-29 0 -48 19.5t-19 48z" />
<glyph unicode="K" horiz-adv-x="1150" d="M102 68v1278q0 29 19.5 48t48.5 19t49.5 -19.5t20.5 -47.5v-588l692 635q18 20 47 20t49.5 -19.5t20.5 -48t-21 -49.5l-475 -436l477 -756q12 -18 12 -36q0 -23 -19 -45.5t-50 -22.5q-37 0 -58 33l-464 735l-211 -195v-505q0 -29 -20.5 -48.5t-49.5 -19.5t-48.5 19.5 t-19.5 48.5z" />
<glyph unicode="L" horiz-adv-x="847" d="M76 68v1278q0 29 19.5 48t48 19t49 -19.5t20.5 -47.5v-1209h561q29 0 48.5 -19.5t19.5 -49.5q0 -29 -19.5 -48.5t-48.5 -19.5h-631q-29 0 -48 19.5t-19 48.5z" />
<glyph unicode="M" horiz-adv-x="1697" d="M98 66q0 2 1 5t1 7l181 1278q4 25 23.5 41t45.5 16q45 0 64 -41l448 -1120l447 1120q18 41 65 41q27 0 45.5 -17.5t22.5 -43.5l155 -1276v-13q0 -27 -18 -45t-41 -18q-33 0 -52.5 16.5t-23.5 40.5l-125 1018l-407 -1028q-10 -20 -27.5 -35.5t-40 -15.5t-40 16.5 t-23.5 34.5l-418 1038l-148 -1026q-4 -27 -23.5 -43t-43.5 -16q-31 4 -49.5 21.5t-18.5 44.5z" />
<glyph unicode="N" d="M106 68v1278q0 29 19.5 48t48.5 19q25 0 37 -10t27 -27l759 -1077v1047q0 29 20.5 48t49.5 19t48.5 -19.5t19.5 -47.5v-1278q0 -29 -19.5 -48.5t-48.5 -19.5q-25 0 -40 14.5t-28 32.5l-755 1069v-1048q0 -29 -20.5 -48.5t-49.5 -19.5t-48.5 19.5t-19.5 48.5z" />
<glyph unicode="O" horiz-adv-x="1581" d="M86 702q0 147 55.5 275.5t150.5 224.5t223 151.5t276 55.5q145 0 273 -55.5t224 -151.5t151.5 -224t55.5 -276q0 -145 -55.5 -273t-151.5 -223t-224 -150.5t-273 -55.5q-147 0 -275.5 55.5t-223.5 150.5t-150.5 223t-55.5 273zM223 702q0 -117 44 -220t121 -180 t180.5 -121t222.5 -44q117 0 220 44t181 121t122 180.5t44 219.5q0 119 -44 222.5t-122 181.5t-181.5 122t-219.5 44q-119 0 -222.5 -44t-180.5 -122t-121 -181.5t-44 -222.5z" />
<glyph unicode="P" horiz-adv-x="964" d="M78 68v1275q0 29 19.5 49.5t47.5 20.5h361q80 0 148.5 -29.5t120.5 -82t82 -121t30 -146.5q0 -76 -30 -145.5t-82 -120.5t-120.5 -81t-148.5 -30h-291v-589q0 -29 -20.5 -48.5t-49 -19.5t-48 19.5t-19.5 48.5zM215 795h291q49 0 93 18t78 51t52.5 77t18.5 93t-18.5 93 t-52.5 78t-78 52.5t-93 18.5h-291v-481z" />
<glyph unicode="Q" horiz-adv-x="1576" d="M84 702q0 147 55.5 275.5t150.5 224.5t223 151.5t273 55.5q147 0 275.5 -55.5t224.5 -151.5t151.5 -224t55.5 -276q0 -102 -28.5 -198t-81 -177t-125 -146.5t-158.5 -106.5q14 -16 40.5 -21.5t52.5 -12.5t43 -20.5t17 -46.5q0 -29 -19.5 -48t-47.5 -19q-74 0 -131.5 32.5 t-93.5 81.5q-39 -10 -80 -15t-95 -5q-133 0 -261 53t-225 148.5t-156.5 223t-59.5 277.5zM221 702q0 -166 84 -299t221 -204l-4 47q0 61 20.5 113.5t57.5 91t84 59t102 20.5q53 0 101.5 -20.5t84.5 -57t57.5 -83.5t21.5 -101v-24l-7 -47q68 35 125.5 87t98.5 117.5t64.5 141 t23.5 159.5q0 119 -44 222.5t-122 181.5t-181.5 122t-222.5 44q-117 0 -220 -44t-180 -122t-121 -181.5t-44 -222.5zM659 266q0 -51 35 -88t92 -41q53 0 91 38t38 91t-37.5 90t-91.5 37q-51 0 -89 -37t-38 -90z" />
<glyph unicode="R" horiz-adv-x="1019" d="M100 68v1275q0 29 19.5 49.5t48.5 20.5h362q80 0 149 -29.5t121 -82t81.5 -121t29.5 -146.5q0 -70 -24.5 -132t-66.5 -111.5t-100 -84t-124 -45.5l336 -546q6 -10 11 -23.5t5 -30t-16.5 -39t-46.5 -22.5q-20 0 -37 11.5t-27 27.5l-379 618h-204v-589q0 -29 -20.5 -48.5 t-49.5 -19.5t-48.5 19.5t-19.5 48.5zM238 795h292q49 0 93.5 18t78 51t52 77t18.5 93t-18.5 93t-52 78t-77.5 52.5t-94 18.5h-292v-481z" />
<glyph unicode="S" horiz-adv-x="1064" d="M78 264q0 25 20.5 47.5t51.5 22.5q43 0 63 -35q18 -41 57 -70.5t86 -50t94.5 -31t84.5 -10.5q61 0 118.5 22.5t100.5 59.5t69.5 89t26.5 111.5t-23.5 104.5t-65.5 78t-99.5 59.5t-124.5 49.5q-66 18 -139.5 49t-135 72.5t-101.5 98t-40 128.5q0 84 38 149.5t97 110.5 t134 68.5t147 23.5q49 0 101 -8t103.5 -27.5t98.5 -55.5t88 -91q12 -18 12 -45q0 -31 -18.5 -52.5t-49.5 -21.5q-41 0 -63 35q-27 45 -61.5 70.5t-71.5 39t-74 16.5t-65 3q-43 0 -92.5 -11.5t-90.5 -35t-67.5 -64.5t-26.5 -104q0 -43 39 -79t94.5 -62.5t115.5 -46t101 -35.5 q84 -31 152.5 -66t119 -84t78 -113.5t27.5 -152.5t-38 -166t-101.5 -134.5t-145 -88t-170.5 -31.5q-61 0 -128.5 16.5t-128 46t-110.5 71.5t-77 93q-10 19 -10 37z" />
<glyph unicode="T" horiz-adv-x="1017" d="M57 1345.5q0 28.5 20.5 48t49.5 19.5h766q29 0 49.5 -19.5t20.5 -48t-20.5 -49t-49.5 -20.5h-313v-1208q0 -29 -19.5 -48.5t-50.5 -19.5q-29 0 -48.5 19.5t-19.5 48.5v1208h-315q-29 0 -49.5 20.5t-20.5 49z" />
<glyph unicode="U" horiz-adv-x="1181" d="M100 492v851q0 23 19.5 46.5t50.5 23.5t49.5 -21.5t18.5 -52.5v-847q0 -74 27.5 -138.5t74.5 -111.5t112.5 -76t137.5 -29q74 0 138.5 29t112.5 76t76.5 111.5t28.5 138.5v851q0 23 20.5 46.5t51.5 23.5t48 -24.5t17 -49.5v-847q0 -102 -39.5 -191.5t-105.5 -156 t-156 -105.5t-192 -39q-100 0 -190.5 39t-157 105.5t-104.5 156t-38 191.5z" />
<glyph unicode="V" horiz-adv-x="1245" d="M76 1348q0 27 18.5 46t48.5 19q20 0 38 -12t28 -29l416 -1116l409 1116q10 16 26.5 28.5t39.5 12.5q31 0 48 -19.5t17 -45.5q0 -18 -4 -27l-471 -1270q-8 -20 -27.5 -35.5t-37.5 -15.5q-23 0 -41.5 16.5t-24.5 34.5l-477 1270q-6 13 -6 27z" />
<glyph unicode="W" horiz-adv-x="1953" d="M88 1348q0 27 19.5 46t50.5 19q18 0 36.5 -12t26.5 -29l416 -1116l270 1094q4 20 22.5 41.5t47.5 21.5t46 -19.5t26 -43.5l274 -1094l412 1116q8 16 24.5 28.5t38.5 12.5q31 0 48.5 -19.5t17.5 -45.5q0 -18 -4 -27l-471 -1270q-8 -20 -25.5 -35.5t-46.5 -15.5t-48.5 16.5 t-23.5 34.5l-268 1030l-262 -1030q-4 -20 -24.5 -35.5t-47.5 -15.5q-29 0 -46 16.5t-24 34.5l-479 1270q-6 13 -6 27z" />
<glyph unicode="X" horiz-adv-x="1622" d="M104 68q0 31 19 49l592 592l-592 589q-18 20 -18.5 49t19 48.5t48.5 19.5t49 -20l590 -590l592 590q18 20 47 20q31 0 50.5 -19.5t19.5 -48t-21 -49.5l-590 -589l590 -592q20 -18 21 -49q0 -29 -19.5 -48.5t-50.5 -19.5q-29 0 -47 20l-592 590l-590 -590q-20 -20 -49 -20 t-48.5 19.5t-19.5 48.5z" />
<glyph unicode="Y" horiz-adv-x="1144" d="M76 1343q0 27 18.5 47.5t48.5 20.5q39 0 58 -29l372 -555l371 555q20 29 57 29q29 0 49.5 -20.5t20.5 -47.5q0 -20 -12 -38l-418 -621v-616q0 -29 -19.5 -48.5t-48 -19.5t-49 19.5t-20.5 48.5v616l-416 621q-12 15 -12 38z" />
<glyph unicode="Z" horiz-adv-x="1204" d="M78 1345.5q0 28.5 19.5 48t47.5 19.5h914q29 0 49 -19.5t20 -47.5q0 -18 -10 -34t-8 -14l-842 -1161h791q29 0 49 -19.5t20 -49.5q0 -29 -20.5 -48.5t-48.5 -19.5h-914q-29 0 -48 19.5t-19 48.5q0 18 12 43l842 1165h-787q-29 0 -48 20.5t-19 49z" />
<glyph unicode="[" horiz-adv-x="591" d="M80 -283v1690q0 29 19.5 48.5t47.5 19.5h295q29 0 48.5 -19.5t19.5 -48.5t-19.5 -49.5t-48.5 -20.5h-225v-1552h225q29 0 48.5 -19.5t19.5 -48t-19.5 -49t-48.5 -20.5h-295q-29 0 -48 20t-19 49z" />
<glyph unicode="\" horiz-adv-x="679" d="M57 1393q0 25 18.5 47t51.5 22q20 0 39.5 -12t26.5 -35l423 -1327q4 -12 5 -22q0 -23 -18.5 -45.5t-49.5 -22.5q-23 2 -41 14.5t-25 34.5l-426 1327q-4 13 -4 19z" />
<glyph unicode="]" horiz-adv-x="593" d="M82 -282.5q0 28.5 19.5 48t48.5 19.5h227v1552h-227q-29 0 -48.5 20.5t-19.5 49.5t19.5 48.5t48.5 19.5h294q29 0 49.5 -19.5t20.5 -48.5v-1690q0 -29 -20.5 -49t-49.5 -20h-294q-29 0 -48.5 20.5t-19.5 49z" />
<glyph unicode="^" horiz-adv-x="1384" d="M74 588q0 20 8 39q0 2 3 7l18 29l49 71l91 137l147 224l220 332q10 16 28.5 36t49.5 20t45 -18l31 -38l218 -332l150 -224l91 -137l50 -71.5t20 -28.5t5 -7q8 -16 9 -35q0 -20 -17.5 -42t-46.5 -22q-35 0 -53 29l-504 713l-481 -701q-10 -16 -28.5 -30.5t-41.5 -14.5 q-27 0 -44 19.5t-17 44.5z" />
<glyph unicode="_" horiz-adv-x="1236" d="M104 68q0 31 19.5 50t48.5 19h895q29 0 48.5 -19.5t19.5 -49.5q0 -29 -19.5 -48.5t-48.5 -19.5h-895q-29 0 -48.5 19.5t-19.5 48.5z" />
<glyph unicode="`" horiz-adv-x="450" d="M66 1509q0 23 19 46.5t50 23.5q18 0 33.5 -7t24.5 -26l184 -317q6 -16 6 -31q0 -27 -19.5 -48.5t-50.5 -21.5q-41 0 -57 33l-182 320q-8 12 -8 28z" />
<glyph unicode="a" horiz-adv-x="1251" d="M90 532q0 111 41 209.5t112.5 172t171 115.5t214.5 42q106 0 202.5 -43t169 -116.5t115.5 -171t43 -208.5v-466q0 -29 -20.5 -48.5t-49 -19.5t-48 19.5t-19.5 48.5v135q-74 -82 -176.5 -140.5t-220.5 -58.5q-111 0 -207 40t-170 110.5t-116 167.5t-42 212zM227 532.5 q0 -81.5 31 -153.5t85 -126t127 -85t155 -31q78 0 149.5 30t124.5 83t86 124.5t37 157.5q0 82 -30.5 156t-85 127t-127 85t-154.5 32t-155 -32t-127 -85t-85 -127t-31 -155.5z" />
<glyph unicode="b" horiz-adv-x="1232" d="M82 68v1278q0 29 19.5 48t48 19t49 -19.5t20.5 -47.5v-480q74 80 175.5 138.5t223.5 64.5q106 0 203 -43t169.5 -116.5t116.5 -171t44 -208.5q0 -109 -42 -205t-114.5 -168.5t-170 -114.5t-210.5 -42q-119 0 -220 45t-175 125v-102q0 -29 -20.5 -48.5t-49 -19.5t-48 19.5 t-19.5 48.5zM219 514q2 -80 35 -148.5t86 -119.5t124 -81t150 -30q82 0 155 31t127 85t86 126t32 153.5t-32 154.5t-86 127t-127 86t-155 32q-80 0 -150.5 -31t-123.5 -83t-86 -126t-35 -160v-16z" />
<glyph unicode="c" horiz-adv-x="1110" d="M90 530q0 111 41 207.5t112.5 168t171 114.5t214.5 49q88 0 158.5 -26.5t122 -61.5t79 -68.5t27.5 -52.5q0 -25 -20.5 -42t-45.5 -17q-29 0 -47 20q-55 47 -125.5 78t-152.5 31t-155 -32t-127 -86t-85 -127t-31 -154.5t31 -153.5t85 -126t127 -85t155 -31t152.5 30 t125.5 83q18 20 47 20q27 0 48.5 -19.5t21.5 -47.5q0 -16 -25.5 -51t-77 -68t-125 -57.5t-167.5 -24.5q-111 0 -207 40t-170 110.5t-116 167.5t-42 212z" />
<glyph unicode="d" horiz-adv-x="1232" d="M82 532q0 111 43 208.5t115.5 171t169 116.5t202.5 43q125 -4 226.5 -63.5t175.5 -139.5v478q0 29 19.5 48t48 19t49 -19.5t20.5 -47.5v-1278q0 -29 -20.5 -48.5t-49 -19.5t-48 19.5t-19.5 48.5v104l-21 -18q-74 -72 -171 -112t-206 -40q-113 0 -210 42t-168.5 114.5 t-113.5 168.5t-42 205zM219 532.5q0 -81.5 31 -153.5t85 -126t127 -85t154.5 -31t153.5 31t126 85t86 126t32 153q-6 86 -38 160t-85 127t-124 83t-151 30q-82 0 -154.5 -32t-126.5 -85t-85 -127t-31 -155.5z" />
<glyph unicode="e" d="M86 532q0 111 41 207.5t112.5 168t170 115.5t215.5 48q102 0 198.5 -42t170 -115.5t117.5 -170t44 -206.5q0 -33 -22.5 -50.5t-47.5 -17.5h-858q12 -72 47 -132.5t87.5 -104.5t119 -69.5t138.5 -25.5q82 0 152.5 30t125.5 83q20 20 49 20t49.5 -20.5t20.5 -49t-21 -46.5 q-74 -82 -165 -117t-211 -35q-111 0 -207.5 40t-169 110.5t-114.5 167.5t-42 212zM229 606h783q-14 68 -49 128.5t-87.5 103.5t-118 68.5t-139.5 25.5q-72 0 -137 -25.5t-117.5 -68.5t-86.5 -103.5t-48 -128.5z" />
<glyph unicode="f" horiz-adv-x="638" d="M59 1005.5q0 28.5 20.5 49t49.5 20.5h90v47q0 59 22.5 112.5t61.5 92.5t92.5 62.5t114.5 23.5q31 0 50.5 -19.5t19.5 -48t-19.5 -49t-50.5 -20.5q-63 0 -108.5 -45t-45.5 -109v-47h150q29 0 49 -20.5t20 -49t-20 -48t-49 -19.5h-150v-870q0 -29 -20.5 -48.5t-49 -19.5 t-48 19.5t-19.5 48.5v870h-90q-29 0 -49.5 19.5t-20.5 48z" />
<glyph unicode="g" horiz-adv-x="1251" d="M90 530q0 111 41 207.5t112.5 168t171 114.5t214.5 49q115 -2 216 -51t177 -133v98q0 29 19.5 48.5t48 19.5t49 -19.5t20.5 -48.5v-854q0 -109 -42 -205t-113.5 -169.5t-169 -115.5t-209.5 -42q-115 0 -209 39.5t-168 111.5l-2 2q-20 20 -21 47q0 29 21.5 49.5t50.5 20.5 t45 -17q55 -55 127 -86.5t156 -31.5q82 0 154.5 31.5t127 85t85 126t30.5 154.5v47q-74 -82 -176.5 -129t-220.5 -47q-111 0 -207 40t-170 110.5t-116 167.5t-42 212zM227 530.5q0 -81.5 31 -153.5t85 -126t127 -85t155 -31q78 0 149.5 30t124.5 81t86 119.5t37 148.5v33 q-4 80 -37 149.5t-86 120.5t-125 82t-149 31q-82 0 -155 -32t-127 -86t-85 -127t-31 -154.5z" />
<glyph unicode="h" horiz-adv-x="968" d="M86 68v1278q0 29 20.5 48t49 19t48 -19.5t19.5 -47.5v-373q51 45 118 71.5t140 26.5q82 0 156 -31.5t128 -85t85 -127t31 -155.5v-604q0 -29 -20.5 -48.5t-49.5 -19.5t-48.5 19.5t-19.5 48.5v604q0 53 -21.5 101t-56 83t-82.5 55.5t-102 20.5q-51 0 -98 -20.5t-82 -53.5 t-55.5 -78t-22.5 -96v-616q0 -31 -18.5 -49.5t-48.5 -18.5q-29 0 -48.5 19.5t-21.5 48.5z" />
<glyph unicode="i" horiz-adv-x="339" d="M80 1323q0 37 26.5 63.5t63.5 26.5q39 0 64.5 -26.5t25.5 -63.5q0 -39 -25.5 -64.5t-64.5 -25.5q-37 0 -63.5 25.5t-26.5 64.5zM102 68v938q0 29 19.5 49t48.5 20t49.5 -20.5t20.5 -48.5v-938q0 -29 -20.5 -48.5t-49.5 -19.5t-48.5 19.5t-19.5 48.5z" />
<glyph unicode="j" horiz-adv-x="321" d="M-197 -331.5q0 28.5 19.5 48t48.5 19.5q74 0 118 29.5t68.5 67.5t32.5 75t8 53v1045q0 29 19.5 49t48.5 20t48 -20.5t19 -48.5v-1045q0 -49 -18 -111.5t-61 -118t-112 -93t-171 -37.5q-29 0 -48.5 19.5t-19.5 48zM76 1323q0 37 26.5 63.5t63.5 26.5t63.5 -26.5 t26.5 -63.5q0 -39 -26.5 -64.5t-63.5 -25.5t-63.5 25.5t-26.5 64.5z" />
<glyph unicode="k" horiz-adv-x="878" d="M84 68v1275q0 29 19.5 48.5t50.5 19.5q29 0 48 -19.5t19 -48.5v-735l447 445q20 20 48.5 20t48 -20.5t19.5 -49t-18 -47.5l-320 -311l338 -543q10 -16 11 -34q0 -23 -19.5 -46.5t-48.5 -23.5q-37 0 -59 35l-320 514l-127 -127v-352q0 -29 -19.5 -48.5t-47.5 -19.5 q-31 0 -50.5 19.5t-19.5 48.5z" />
<glyph unicode="l" horiz-adv-x="356" d="M111 68v1278q0 29 19.5 48t47.5 19q31 0 50.5 -19.5t19.5 -47.5v-1278q0 -29 -19.5 -48.5t-50.5 -19.5q-29 0 -48 19.5t-19 48.5z" />
<glyph unicode="m" horiz-adv-x="1517" d="M104 68v938q0 29 19.5 49t48.5 20t49.5 -20.5t20.5 -48.5v-23q37 37 97 67.5t126 30.5q92 0 168 -41t123 -108q51 68 126.5 108.5t168.5 40.5q76 0 142.5 -28.5t114.5 -76.5t76.5 -114.5t28.5 -142.5v-651q0 -29 -19.5 -48.5t-48 -19.5t-49 19.5t-20.5 48.5v651 q0 47 -17.5 88t-48 71.5t-71.5 48t-88 17.5t-88 -17.5t-71 -48t-47.5 -71.5t-17.5 -88v-651q0 -29 -20.5 -48.5t-49 -19.5t-48 19.5t-19.5 48.5v651q-4 98 -69.5 161.5t-155.5 63.5q-94 0 -156.5 -62.5t-66.5 -154.5v-659q0 -29 -20.5 -48.5t-49.5 -19.5t-48.5 19.5 t-19.5 48.5z" />
<glyph unicode="n" horiz-adv-x="999" d="M102 68v938q0 29 19.5 49t48.5 20t49.5 -20.5t20.5 -48.5v-29q49 45 115.5 71.5t142.5 26.5q82 0 154.5 -30.5t127 -85t85 -128t30.5 -155.5v-608q0 -29 -19.5 -48.5t-48 -19.5t-49 19.5t-20.5 48.5v608q0 53 -20.5 101t-56.5 83t-83 55.5t-100.5 20.5t-99.5 -20.5 t-81.5 -53.5t-55 -78t-21.5 -96v-620q0 -29 -20.5 -48.5t-49.5 -19.5t-48.5 19.5t-19.5 48.5z" />
<glyph unicode="o" d="M86 532q0 111 41 207.5t112.5 168t170 115.5t215.5 48q104 0 200.5 -43t170 -116.5t116.5 -171t43 -208.5q0 -109 -42 -205t-113.5 -168.5t-170.5 -114.5t-211 -42q-111 0 -207 40t-168.5 110.5t-114.5 167.5t-42 212zM223 532.5q0 -81.5 31 -153.5t85 -126t126 -85 t153.5 -31t155.5 31t128 85t85 126t31 153.5t-31 155.5t-85 127t-128 85t-155.5 32t-153.5 -32t-126 -85t-85 -127t-31 -155.5z" />
<glyph unicode="p" horiz-adv-x="1230" d="M82 -332v1338q0 29 19.5 49t48 20t49 -20.5t20.5 -48.5v-111q74 82 175.5 128t219.5 46q113 0 210.5 -42t170 -115.5t114.5 -170t42 -204.5q0 -111 -44 -208.5t-116.5 -170t-169 -115.5t-203.5 -43q-123 4 -224 62.5t-175 138.5v-533q0 -29 -20.5 -48t-49 -19t-48 19 t-19.5 48zM219 537q2 -86 35 -159t86 -126t124 -83t150 -30q82 0 155 31t127 85t86 127t32 154.5t-32 154.5t-86 127t-127 85t-155 31q-80 0 -150.5 -30t-123.5 -81t-86 -120.5t-35 -149.5v-16z" />
<glyph unicode="q" horiz-adv-x="1230" d="M82 537q0 109 42 205t113.5 169.5t169 115.5t209.5 42q119 0 220.5 -46t177.5 -128v111q0 29 19.5 49t48 20t49 -20.5t20.5 -48.5v-1338q0 -29 -20.5 -48t-49 -19t-48 19.5t-19.5 47.5v533q-74 -80 -175.5 -138.5t-226.5 -62.5q-106 0 -202.5 43t-169 115.5t-115.5 170 t-43 208.5zM219 537q0 -82 31 -155t85 -127t127 -85t154 -31q80 0 151 30t124 83t85 126t38 159q0 82 -32 154.5t-86 126.5t-126 85t-153.5 31t-154.5 -31t-127 -85t-85 -126.5t-31 -154.5z" />
<glyph unicode="r" horiz-adv-x="712" d="M78 68v938q0 29 19.5 49t48 20t49 -20.5t20.5 -48.5v-109q70 78 170 128t217 50q35 0 56.5 -20.5t21.5 -49t-21.5 -48t-56.5 -19.5q-80 0 -148.5 -30.5t-120.5 -84t-84 -122t-34 -144.5v-489q0 -29 -20.5 -48.5t-49 -19.5t-48 19.5t-19.5 48.5z" />
<glyph unicode="s" horiz-adv-x="962" d="M90 260q0 29 19.5 51.5t50.5 22.5q25 0 43 -14.5t28 -38.5q29 -70 98.5 -107t147.5 -37q109 0 185.5 50.5t76.5 140.5q0 72 -75.5 123t-186.5 67q-158 23 -257 87.5t-99 189.5q0 78 31.5 130t82 85.5t115 48t127.5 14.5q53 0 113.5 -12t111 -37t84 -59.5t33.5 -83.5 q0 -25 -17.5 -48.5t-53.5 -23.5q-41 0 -64 49q-20 43 -77.5 63.5t-129.5 20.5q-37 0 -76 -5t-69.5 -22.5t-52 -46t-21.5 -73.5q0 -33 21.5 -57.5t53.5 -41t70.5 -25.5t73.5 -16q82 -14 153.5 -39.5t126 -65.5t87.5 -95.5t33 -126.5q0 -74 -32 -134.5t-85 -103.5t-127 -66.5 t-156 -23.5q-139 0 -243.5 64.5t-141.5 177.5q-2 6 -2 18z" />
<glyph unicode="t" horiz-adv-x="675" d="M55 1005.5q0 28.5 19.5 49t48.5 20.5h147v271q0 29 19.5 48t48.5 19t49.5 -19.5t20.5 -47.5v-271h145q29 0 48.5 -20.5t19.5 -49t-19.5 -48t-48.5 -19.5h-145v-870q0 -29 -20.5 -48.5t-49.5 -19.5t-48.5 19.5t-19.5 48.5v870h-147q-29 0 -48.5 19.5t-19.5 48z" />
<glyph unicode="u" horiz-adv-x="1001" d="M104 397v607q0 29 19.5 49t48.5 20t49.5 -20.5t20.5 -48.5v-607q0 -53 20.5 -100t56 -83t83 -55.5t100.5 -19.5t99 19.5t81 53.5t55.5 79t24.5 96v617q0 29 19.5 49t48 20t48 -20.5t19.5 -48.5v-936q0 -29 -19.5 -48.5t-48 -19.5t-48 19.5t-19.5 48.5v30 q-51 -45 -117.5 -71.5t-142.5 -26.5q-82 0 -155 30.5t-127 85t-85 127t-31 154.5z" />
<glyph unicode="v" horiz-adv-x="1001" d="M78 1006q0 29 16.5 48t46.5 19q25 0 42.5 -11t25.5 -30l287 -784l299 784q6 18 23.5 29.5t37.5 11.5q31 0 49.5 -21.5t18.5 -45.5q0 -12 -6 -27q-2 -4 -16.5 -45t-53.5 -144l-107 -282l-172 -453q-10 -25 -26.5 -40t-47 -15t-50 18.5t-25.5 36.5l-157 430l-104 284 l-58 156q-17 48 -17 50q-6 15 -6 31z" />
<glyph unicode="w" horiz-adv-x="1388" d="M94 1006q0 29 17.5 48t48.5 19q25 0 42 -11t23 -30l289 -784l104 278l-73 205l-51.5 138.5t-29.5 78t-9 27.5q-6 14 -6 31q0 29 16 48t49 19q23 0 41 -11t25 -30l112 -319l119 319q8 18 25.5 29.5t38.5 11.5q31 0 49 -21.5t18 -45.5q0 -12 -6 -27q-2 -2 -10 -25l-28 -74 l-52 -139l-80 -217l100 -276l299 784q6 18 24.5 29.5t37.5 11.5q33 0 51 -21.5t18 -45.5q0 -12 -6 -27q-2 -4 -16 -45t-53 -144l-107 -282l-174 -453q-8 -25 -25.5 -40t-48 -15t-49 18.5t-24.5 36.5l-54 150l-47 133q-25 -61 -50.5 -133l-55.5 -150q-8 -25 -24.5 -40 t-47.5 -15q-33 0 -51.5 18.5t-24.5 36.5l-157 430l-104 284l-57 156q-17 48 -18 50q-8 15 -8 31z" />
<glyph unicode="x" horiz-adv-x="1263" d="M102 65.5q0 26.5 19 51.5l414 418l-412 417q-20 27 -21 52q0 31 21.5 49t48.5 18q29 0 47 -18l414 -420l414 420q16 18 47 18q25 0 46 -18.5t21 -48.5q0 -29 -20 -52l-414 -417l416 -418q20 -25 20 -51.5t-20.5 -46t-46.5 -19.5q-29 0 -49 23l-414 415l-414 -415 q-20 -23 -49 -23q-27 0 -47.5 19.5t-20.5 46z" />
<glyph unicode="y" horiz-adv-x="995" d="M74 1006q0 29 16 48t47 19q25 0 42.5 -11t23.5 -30l289 -784l299 784q6 18 23 29.5t38 11.5q31 0 49.5 -21.5t18.5 -45.5q0 -12 -7 -27l-503 -1335q-18 -43 -62 -43q-33 0 -51 20.5t-18 46.5q0 6 1 12.5t3 12.5l133 362l-157 430l-104 284l-58 156q-17 48 -17 50 q-6 15 -6 31z" />
<glyph unicode="z" horiz-adv-x="1196" d="M94 65.5q0 26.5 21 51.5l753 819h-702q-29 0 -48.5 19.5t-19.5 48t19.5 49t48.5 20.5h862q25 0 46.5 -20.5t21.5 -47t-23 -53.5l-745 -815h704q29 0 49.5 -19.5t20.5 -49.5q0 -29 -20.5 -48.5t-49.5 -19.5h-868q-29 0 -49.5 19.5t-20.5 46z" />
<glyph unicode="{" horiz-adv-x="784" d="M63 707q0 29 20.5 48t49.5 19h123v463q0 80 29.5 151.5t83 126t124 87t150.5 32.5q37 0 57.5 -19.5t20.5 -48t-19.5 -49t-48.5 -20.5q-53 0 -101 -20.5t-83 -56.5t-55.5 -83t-20.5 -100v-1061q0 -53 20.5 -100t55.5 -83t83 -56.5t101 -20.5q29 0 48.5 -19.5t19.5 -50.5 q0 -29 -19.5 -48t-48.5 -19q-82 0 -154.5 30.5t-126 85t-85 127t-31.5 154.5v461h-123q-29 0 -49.5 19.5t-20.5 50.5z" />
<glyph unicode="|" horiz-adv-x="354" d="M109 -283v1692q0 29 19 48.5t48 19.5t49.5 -19.5t20.5 -48.5v-1692q0 -29 -20.5 -49t-49.5 -20t-48 20t-19 49z" />
<glyph unicode="}" horiz-adv-x="784" d="M63 -154q0 31 20.5 50.5t49.5 19.5q53 0 100.5 20.5t83 56.5t55 83t19.5 100v1061q0 53 -19.5 100t-55 83t-83 56.5t-100.5 20.5q-29 0 -49.5 20.5t-20.5 49t21.5 48t56.5 19.5q80 0 150.5 -32.5t124 -87t83 -126t29.5 -151.5v-463h125q29 0 48.5 -19.5t19.5 -47.5 q0 -31 -19.5 -50.5t-48.5 -19.5h-125v-461q0 -82 -30.5 -154.5t-85 -127t-126 -85t-153.5 -30.5q-29 0 -49.5 19t-20.5 48z" />
<glyph unicode="~" horiz-adv-x="1165" d="M94 610.5q0 26.5 21 46.5q22 29 52 60t63.5 56.5t70.5 41.5t78 16q25 0 44 -2t38.5 -9t43 -17t54.5 -27q39 -20 68.5 -40.5t57.5 -37t54.5 -26.5t57.5 -10q41 0 69.5 24.5t49.5 53.5l41 55q19 25 47 24q31 0 47 -21.5t16 -45.5q0 -37 -27.5 -77t-68.5 -71t-89 -51.5 t-85 -20.5q-29 0 -50.5 2.5t-43 10.5t-45 21.5t-56.5 35.5l-108 68q-51 31 -115 30q-39 0 -69.5 -23.5t-56.5 -50.5l-48 -53q-23 -25 -45 -24q-25 0 -45.5 17.5t-20.5 44z" />
<glyph unicode="&#xa1;" horiz-adv-x="446" d="M133 1028q0 -39 26.5 -65.5t63.5 -26.5t63.5 26.5t26.5 65.5q0 37 -26.5 63.5t-63.5 26.5t-63.5 -26.5t-26.5 -63.5zM156 -227q0 -29 19.5 -48.5t48 -19.5t49 19.5t20.5 48.5v903q0 29 -20.5 48t-49 19t-48 -19t-19.5 -48v-903z" />
<glyph unicode="&#xa2;" horiz-adv-x="1067" d="M68 528q0 98 32.5 185.5t91 156t138.5 115.5t174 68v217q0 31 22.5 53.5t55.5 22.5q31 0 52 -23t21 -53v-209q74 -8 137.5 -35t107.5 -58.5t68.5 -61t24.5 -48.5q0 -25 -20.5 -42t-42.5 -17q-29 0 -49 20q-47 39 -104.5 65.5t-121.5 37.5v-787q63 8 121 37t105 74 q20 20 49 20q27 0 47 -19.5t20 -47.5q0 -20 -23.5 -51t-66.5 -62t-106.5 -55.5t-145.5 -30.5v-143q0 -31 -21.5 -53.5t-51.5 -22.5q-33 0 -55.5 22.5t-22.5 53.5v149q-92 16 -172 61.5t-138.5 114t-92 156.5t-33.5 190zM205 528.5q0 -69.5 22.5 -132t62.5 -114t95 -87 t119 -52.5v770q-63 -18 -118.5 -53t-95.5 -86t-62.5 -113.5t-22.5 -132z" />
<glyph unicode="&#xa3;" horiz-adv-x="1216" d="M63 571.5q0 28.5 20.5 48t49.5 19.5h98v414q0 47 19.5 109.5t62.5 117.5t112 94t171 39q29 0 48.5 -19.5t19.5 -48t-19.5 -49t-48.5 -20.5q-74 0 -118 -29.5t-68.5 -67.5t-32.5 -74t-8 -52v-414h110q29 0 49.5 -19.5t20.5 -48t-20.5 -49t-49.5 -20.5h-110v-365h714 q29 0 49.5 -19.5t20.5 -49.5q0 -29 -20.5 -48.5t-49.5 -19.5h-782q-27 0 -48.5 19.5t-21.5 48.5v434h-98q-29 0 -49.5 20.5t-20.5 49z" />
<glyph unicode="&#xa4;" horiz-adv-x="1265" d="M100 748q0 117 45 216t123 173l-151 221q-14 31 -14.5 51.5t16 42t49.5 21.5q43 0 63 -35l150 -221q57 31 120.5 49t135.5 18q61 0 120.5 -15.5t110.5 -41.5l150 211q27 35 61 35q33 0 51.5 -20.5t18.5 -45.5q0 -29 -18 -49l-148 -207q84 -76 134 -180.5t50 -222.5 q0 -121 -50 -225.5t-138 -180.5l85 -123q32 -47 47 -71.5t21 -31.5l5 -7q14 -20 14 -41q0 -29 -20.5 -49.5t-51.5 -20.5q-37 0 -55 31l-5 9q-5 9 -23 35l-48 72l-84 125q-53 -25 -110.5 -39t-120.5 -14q-137 0 -254 62l-150 -250q-18 -31 -57 -31q-29 0 -47.5 19.5 t-18.5 48.5q0 23 11 43l151 247q-78 70 -123 171.5t-45 220.5zM240 747.5q0 -81.5 30.5 -153.5t85 -126t126 -85t153.5 -31t154.5 31t127 85t85 126t30.5 153.5t-30.5 154.5t-85 127t-127 85t-154.5 31t-153.5 -31t-126 -85t-85 -127t-30.5 -154.5z" />
<glyph unicode="&#xa5;" horiz-adv-x="1171" d="M76 1350q0 20 17.5 41.5t47.5 21.5q35 0 62 -35l381 -549l383 549q10 16 27.5 25.5t33.5 9.5q31 0 49.5 -20.5t18.5 -45t-19 -47.5l-401 -557h235q29 0 48.5 -20.5t19.5 -49t-19.5 -48t-48.5 -19.5h-258v-137h258q29 0 48.5 -19.5t19.5 -50.5q0 -29 -19.5 -48t-48.5 -19 h-258v-264q0 -29 -20.5 -48.5t-49 -19.5t-48 19.5t-19.5 48.5v264h-258q-29 0 -48.5 19.5t-19.5 47.5q0 31 19.5 50.5t48.5 19.5h258v137h-258q-29 0 -48.5 19.5t-19.5 48t19.5 49t48.5 20.5h231l-399 557q-14 32 -14 50z" />
<glyph unicode="&#xa6;" horiz-adv-x="354" d="M109 -336v1739q0 29 19 48t48 19t49.5 -19t20.5 -48v-1739q0 -29 -20.5 -49.5t-49.5 -20.5t-48 20.5t-19 49.5z" />
<glyph unicode="&#xa7;" horiz-adv-x="1073" d="M88 471q0 102 42 189.5t114 148.5q-66 47 -103 112.5t-37 141.5q0 74 33 138.5t90.5 110.5t135 73.5t163.5 27.5q84 0 161 -26.5t135.5 -72.5t92 -108.5t33.5 -132.5q0 -35 -18.5 -55.5t-47 -20.5t-49 18.5t-20.5 47.5q0 39 -21.5 78t-60.5 69.5t-91 49t-114 18.5 q-59 0 -111.5 -17.5t-92 -46t-61 -68.5t-21.5 -83q0 -63 33.5 -99t93.5 -81q39 14 79.5 23t83.5 9q94 0 174 -34.5t140.5 -95t95.5 -141.5t35 -173t-35 -173t-94 -140q63 -47 101 -112.5t38 -143.5q0 -72 -33.5 -136.5t-91 -110.5t-135.5 -73.5t-164 -27.5t-161.5 26.5 t-133 72.5t-92.5 108.5t-35 132.5q0 35 18.5 55t47 20t49 -18.5t20.5 -48.5q0 -37 22.5 -76t60.5 -69.5t90.5 -49t113.5 -18.5q59 0 111.5 17.5t92.5 46t62.5 67.5t22.5 82q0 61 -34 98t-85 76q-90 -47 -201 -47q-92 0 -173 34.5t-140 94t-94 140.5t-35 173zM225 471 q0 -63 24.5 -118.5t66.5 -97.5t97.5 -66.5t119 -24.5t120 24.5t97.5 66.5t64.5 97.5t23.5 118.5q0 61 -23.5 117.5t-64.5 97.5t-97.5 65.5t-120 24.5t-119 -24.5t-97.5 -65.5t-66.5 -97.5t-24.5 -117.5z" />
<glyph unicode="&#xa8;" horiz-adv-x="729" d="M100 1638q0 39 27 66t63.5 27t63.5 -27t27 -66q0 -37 -27 -63.5t-63.5 -26.5t-63.5 26.5t-27 63.5zM449 1638q0 39 26.5 66t65.5 27q37 0 63.5 -27t26.5 -66q0 -37 -26.5 -63.5t-63.5 -26.5q-39 0 -65.5 26.5t-26.5 63.5z" />
<glyph unicode="&#xa9;" horiz-adv-x="1771" d="M86 715q0 166 63.5 311t170 254t253 172.5t312.5 63.5t312 -63.5t254 -172.5t171.5 -254t63.5 -311t-63.5 -312.5t-171.5 -253t-254 -170t-312 -63.5t-312.5 63.5t-253 170t-170 253t-63.5 312.5zM223 712.5q0 -137.5 52.5 -258t141.5 -209.5t210 -141.5t258 -52.5 t259 52.5t211 141.5t141 209.5t52 258t-52 259.5t-141 211t-211 141t-259 52t-258 -52t-210 -141t-141.5 -211t-52.5 -259.5zM504 715q0 78 29.5 145.5t81 117.5t119 79.5t145.5 29.5q55 0 101 -14t81 -33.5t56.5 -40t31.5 -32.5q20 -20 20 -52q0 -25 -16 -43t-45 -18 q-25 0 -49.5 14.5t-52 33t-58 32.5t-67.5 14q-49 0 -92.5 -18.5t-74 -50t-50 -74.5t-19.5 -92q0 -100 67.5 -168t168.5 -68q49 0 91 16.5t72 49.5q18 20 49 20t49.5 -20.5t18.5 -46.5q0 -37 -31.5 -67t-77.5 -49.5t-93.5 -29.5t-79.5 -10q-78 0 -145.5 29.5t-119 81t-81 119 t-29.5 145.5z" />
<glyph unicode="&#xaa;" horiz-adv-x="995" d="M90 1063q0 88 32 161.5t87 129t130 87.5t161 32q82 0 155.5 -32t129 -88.5t88 -130t32.5 -159.5v-354q0 -23 -16.5 -46.5t-52.5 -23.5q-35 0 -51.5 23.5t-16.5 46.5v82q-57 -63 -117.5 -97.5t-152.5 -34.5q-84 0 -158 31t-129 85t-88 128t-33 160zM229 1067 q0 -55 21.5 -105.5t57.5 -87t86 -57t105.5 -20.5t105.5 20.5t86 57t57.5 87t21.5 105.5t-21.5 104.5t-57.5 86t-86 57t-105.5 20.5t-105.5 -20.5t-86 -57t-57.5 -86t-21.5 -104.5z" />
<glyph unicode="&#xab;" horiz-adv-x="1179" d="M92 524.5q0 28.5 21 48.5l473 445q20 20 49 20t48 -20.5t19 -49t-18 -48.5l-424 -396l424 -403q18 -18 18 -47t-19 -49.5t-48 -20.5t-49 21l-471 448q-23 23 -23 51.5zM489 524.5q0 28.5 19 48.5l475 445q18 20 47 20t49.5 -20.5t20.5 -49t-21 -48.5l-422 -396l422 -403 q20 -18 20.5 -47t-20 -49.5t-49.5 -20.5t-47 21l-475 450q-19 21 -19 49.5z" />
<glyph unicode="&#xac;" horiz-adv-x="1173" d="M78 688q0 29 19.5 48.5t47.5 19.5h883q29 0 49.5 -19.5t20.5 -48.5v-313q0 -31 -20.5 -50.5t-49.5 -19.5t-48 19.5t-19 50.5v243h-816q-29 0 -48 20.5t-19 49.5z" />
<glyph unicode="&#xad;" horiz-adv-x="1026" d="M104 688q0 29 19.5 48.5t48.5 19.5h682q29 0 48.5 -19.5t19.5 -48.5t-19.5 -49.5t-48.5 -20.5h-682q-29 0 -48.5 20.5t-19.5 49.5z" />
<glyph unicode="&#xae;" horiz-adv-x="1771" d="M86 702.5q0 165.5 63.5 312t170 255t253 171t312.5 62.5t312 -62.5t254 -171t171.5 -255t63.5 -312t-63.5 -311t-171.5 -253t-254 -170t-312 -62.5t-312.5 62.5t-253 170t-170 253t-63.5 311zM223 700.5q0 -137.5 52.5 -257t141.5 -210t210 -142.5t258 -52t259 52 t211 142.5t141 210t52 257t-52 259t-141 212t-211 141.5t-259 51t-258 -51t-210 -141.5t-141.5 -212t-52.5 -259zM725 375v317q2 80 35 153t85 129t124.5 90t156.5 34q31 0 50.5 -20.5t19.5 -51.5t-19.5 -50.5t-50.5 -19.5q-57 -4 -105 -25.5t-82 -57t-54.5 -82t-22.5 -99.5 v-317q0 -31 -19.5 -50.5t-48 -19.5t-49 19.5t-20.5 50.5z" />
<glyph unicode="&#xaf;" horiz-adv-x="860" d="M84 1302.5q0 28.5 19.5 49t50.5 20.5h497q29 0 48.5 -20.5t19.5 -49t-19.5 -48t-48.5 -19.5h-497q-31 0 -50.5 19.5t-19.5 48z" />
<glyph unicode="&#xb0;" horiz-adv-x="997" d="M86 1001q0 86 32 162t89 132.5t131 88t160 31.5t161.5 -31.5t132 -88t88 -132.5t31.5 -162t-31.5 -159.5t-88 -130t-132 -89t-161.5 -32.5t-160 32.5t-131 89t-89 130t-32 159.5zM223 1001.5q0 -57.5 21.5 -106.5t58.5 -87t87 -59.5t107.5 -21.5t107.5 21.5t87 59.5 t59.5 87t22.5 106.5t-22.5 107.5t-59.5 88t-87 59.5t-107.5 21.5t-107.5 -21.5t-87 -59.5t-58.5 -88t-21.5 -107.5z" />
<glyph unicode="&#xb1;" horiz-adv-x="948" d="M63 356.5q0 28.5 20.5 48t49.5 19.5h680q29 0 49.5 -19.5t20.5 -48t-20.5 -49t-49.5 -20.5h-680q-29 0 -49.5 20.5t-20.5 49zM63 915.5q0 28.5 20.5 49t49.5 20.5h273v275q0 29 19 48t48 19t49.5 -19.5t20.5 -47.5v-275h274q29 0 48.5 -20.5t19.5 -49t-19.5 -48 t-48.5 -19.5h-274v-275q0 -29 -20.5 -49t-49.5 -20t-48 20.5t-19 48.5v275h-273q-29 0 -49.5 19.5t-20.5 48z" />
<glyph unicode="&#xb2;" horiz-adv-x="890" d="M90 651q0 20 13.5 35.5t25.5 26.5l227 181l123 99q49 39 64 49q27 20 55.5 50t28.5 63t-17.5 56.5t-43 39t-58.5 22.5t-66 7q-27 0 -56.5 -7t-56 -20.5t-44 -35t-19.5 -48.5q-2 -37 -22.5 -56t-46.5 -19q-25 0 -46.5 18.5t-21.5 48.5q0 53 24.5 100.5t68.5 82t101.5 54 t120.5 19.5q66 0 124.5 -20.5t101.5 -56t68.5 -83t25.5 -102.5q0 -57 -32 -103t-75 -87l-57 -50l-95 -76l-157 -124h391q27 -2 45.5 -22.5t18.5 -47.5q0 -29 -18.5 -47t-45.5 -20h-579q-23 0 -46.5 16t-23.5 57z" />
<glyph unicode="&#xb3;" horiz-adv-x="749" d="M88 690q0 29 20.5 48.5t49 19.5t48 -19.5t19.5 -48.5q0 -61 42 -104t108 -43q63 0 106 43t43 104q0 57 -42 103.5t-107 46.5q-31 0 -49.5 20.5t-18.5 49t18.5 47t49.5 18.5q63 0 106 44t43 107q0 61 -43 104.5t-106 43.5q-66 0 -108 -43t-42 -105q0 -29 -19.5 -49 t-48 -20t-49 20.5t-20.5 48.5q0 59 22.5 111.5t61.5 92.5t90 61.5t113 21.5q59 0 110.5 -21.5t91 -61.5t62.5 -92t23 -112q0 -66 -28 -123t-75 -94q47 -41 75 -97t28 -122q0 -51 -20.5 -102t-57.5 -93t-90.5 -67t-118.5 -25q-61 0 -112.5 21.5t-90.5 61.5t-61.5 92.5 t-22.5 111.5z" />
<glyph unicode="&#xb4;" horiz-adv-x="448" d="M63 1198q0 16 9 29l182 319q18 33 57 33q31 0 50.5 -21.5t19.5 -48.5q0 -18 -6 -32l-185 -316q-8 -18 -24 -26.5t-33 -8.5q-31 0 -50.5 23.5t-19.5 48.5z" />
<glyph unicode="&#xb5;" horiz-adv-x="1001" d="M104 -332v1336q0 29 19.5 49t48.5 20t49.5 -20.5t20.5 -48.5v-607q0 -53 20.5 -100t56 -83t83 -55.5t100.5 -19.5t101 19.5t82 53.5t55.5 79t21.5 96v617q0 29 19.5 49t48 20t48 -20.5t19.5 -48.5v-936q0 -29 -19.5 -48.5t-48 -19.5t-48 19.5t-19.5 48.5v30 q-51 -45 -117.5 -71.5t-142.5 -26.5t-142.5 26.5t-117.5 71.5v-430q0 -29 -20.5 -48t-49.5 -19t-48.5 19t-19.5 48z" />
<glyph unicode="&#x3bc;" horiz-adv-x="1001" d="M104 -332v1336q0 29 19.5 49t48.5 20t49.5 -20.5t20.5 -48.5v-607q0 -53 20.5 -100t56 -83t83 -55.5t100.5 -19.5t101 19.5t82 53.5t55.5 79t21.5 96v617q0 29 19.5 49t48 20t48 -20.5t19.5 -48.5v-936q0 -29 -19.5 -48.5t-48 -19.5t-48 19.5t-19.5 48.5v30 q-51 -45 -117.5 -71.5t-142.5 -26.5t-142.5 26.5t-117.5 71.5v-430q0 -29 -20.5 -48t-49.5 -19t-48.5 19t-19.5 48z" />
<glyph unicode="&#xb6;" horiz-adv-x="354" d="M109 68v1335q0 29 19 48t48 19t49.5 -19t20.5 -48v-1335q0 -29 -20.5 -48.5t-49.5 -19.5t-48 19.5t-19 48.5z" />
<glyph unicode="&#xb7;" horiz-adv-x="333" d="M88 535q0 35 22.5 57t55.5 22t56.5 -22.5t23.5 -56.5q0 -33 -23.5 -54.5t-56.5 -21.5t-55.5 21.5t-22.5 54.5z" />
<glyph unicode="&#xb8;" horiz-adv-x="532" d="M74 -215q0 25 18.5 43t42.5 18q33 0 44 -19.5t20.5 -45t20.5 -45t46 -19.5q29 0 48.5 19.5t19.5 48.5q0 37 -19.5 47t-45 19.5t-46 22.5t-20.5 50v207h125v-162q57 -20 94 -69.5t37 -114.5q0 -80 -57.5 -136.5t-135.5 -56.5q-80 0 -136 56.5t-56 136.5z" />
<glyph unicode="&#xb9;" horiz-adv-x="559" d="M80 1182q0 16 7 31.5t26 27.5l247 158q23 14 51.5 14t48 -17.5t19.5 -47.5v-693q0 -29 -19.5 -49t-48 -20t-49 20.5t-20.5 48.5v566l-158 -97q-18 -12 -37 -12q-25 0 -46 19.5t-21 50.5z" />
<glyph unicode="&#xba;" horiz-adv-x="995" d="M86 1001q0 86 32 161t89 131.5t131 88t160 31.5t159.5 -31.5t131 -88t89 -131.5t31.5 -161t-31.5 -159.5t-89 -130t-131 -89t-159.5 -32.5t-160 32.5t-131 89t-89 130t-32 159.5zM223 1001q0 -57 22.5 -106t58.5 -86t86 -59.5t108 -22.5q55 0 106 22.5t87 59.5t58.5 86 t22.5 106q0 55 -22.5 106.5t-58.5 88.5t-87 58.5t-106 21.5q-57 0 -107.5 -21.5t-86.5 -58.5t-58.5 -88.5t-22.5 -106.5z" />
<glyph unicode="&#xbb;" horiz-adv-x="1179" d="M92 73.5q0 28.5 21 47.5l422 403l-422 396q-20 20 -20.5 48.5t20 49t49 20.5t49.5 -20l473 -445q18 -20 18 -48.5t-18 -49.5l-473 -450q-20 -20 -49 -20.5t-49.5 20t-20.5 49zM489 73.5q0 28.5 19 47.5l424 403l-424 396q-18 20 -18.5 48.5t19 49t48.5 20.5t49 -20 l473 -445q20 -20 20.5 -48.5t-22.5 -51.5l-471 -448q-20 -20 -49 -20.5t-48.5 20t-19.5 49z" />
<glyph unicode="&#xbc;" horiz-adv-x="1282" d="M78 1225q0 18 7 33.5t26 25.5l247 158q23 16 51.5 16t48 -18.5t19.5 -48.5v-693q0 -29 -19.5 -48t-48 -19t-49 19.5t-20.5 47.5v568l-158 -99q-18 -10 -37 -10q-25 0 -46 18.5t-21 49.5zM356 61q0 16 4 25l443 1327q6 23 26.5 36t42.5 13q31 0 47.5 -21.5t16.5 -45.5 q0 -12 -2 -19l-442 -1329q-10 -25 -29 -37t-41 -12q-31 0 -48.5 19t-17.5 44zM702 328q0 12 5 20l141 465q12 49 63 49q31 0 49.5 -20.5t18.5 -48.5q0 -12 -2 -19l-113 -381h137v121q0 29 20.5 48.5t49.5 19.5t48.5 -19.5t19.5 -48.5v-121q29 0 49 -19.5t20 -48t-20.5 -49 t-48.5 -20.5v-184q0 -29 -19.5 -49.5t-48.5 -20.5t-49.5 20.5t-20.5 49.5v184h-225q-29 0 -51.5 20.5t-22.5 51.5z" />
<glyph unicode="&#xbd;" horiz-adv-x="1523" d="M76 1225q0 18 7 33.5t26 25.5l247 158q23 16 51.5 16t48 -18.5t19.5 -48.5v-693q0 -29 -19.5 -48t-48 -19t-49 19.5t-20.5 47.5v568l-160 -99q-16 -10 -35 -10q-25 0 -46 18.5t-21 49.5zM354 61q0 16 4 25l443 1327q6 23 26.5 36t40.5 13q33 0 49.5 -21.5t16.5 -45.5 q0 -12 -2 -19l-443 -1329q-10 -25 -28.5 -37t-40.5 -12q-31 0 -48.5 19t-17.5 44zM737 74q0 20 13.5 36.5t23.5 24.5l227 181l125 100q47 39 62 49q27 23 55.5 51.5t28.5 61t-16.5 56t-43 39t-58.5 22.5t-67 7q-27 0 -56.5 -7t-56 -20t-44 -34.5t-19.5 -48.5 q-2 -37 -22.5 -56.5t-46.5 -19.5q-23 0 -45.5 18.5t-22.5 49.5q0 53 25.5 100t68.5 82t100.5 54.5t121.5 19.5q68 0 125 -20.5t100 -56.5t68.5 -83t25.5 -102q0 -57 -30.5 -102.5t-75.5 -88.5l-58 -49q-33 -29 -94 -77l-158 -124h391q27 -2 45.5 -22.5t18.5 -46.5 q0 -29 -18.5 -47.5t-45.5 -20.5h-579q-23 0 -45.5 16.5t-22.5 57.5z" />
<glyph unicode="&#xbe;" horiz-adv-x="1421" d="M78 750q0 29 19.5 49t48 20t49 -20.5t20.5 -48.5q0 -61 42 -104.5t105.5 -43.5t107.5 43t44 105q0 59 -42 102t-110 49q-29 0 -47 19.5t-18 48t18.5 47t46.5 18.5q63 0 107.5 45t44.5 106.5t-44 104.5t-107.5 43t-105.5 -43t-42 -104q0 -29 -20.5 -49.5t-49 -20.5 t-48 20.5t-19.5 49.5q0 59 21.5 111.5t60.5 92.5t91 61.5t111.5 21.5t111.5 -21.5t92 -61.5t62.5 -92.5t22.5 -111.5q0 -63 -27.5 -121.5t-74.5 -95.5q47 -39 74.5 -95.5t27.5 -123.5q0 -51 -20.5 -101.5t-58 -92.5t-90 -67.5t-120.5 -25.5q-59 0 -111 21.5t-91 61.5 t-60.5 92.5t-21.5 111.5zM498 61q0 16 4 25l442 1327q6 23 25.5 36t44.5 13q31 0 47 -21.5t16 -45.5q0 -12 -2 -19l-442 -1329q-8 -25 -27.5 -37t-42.5 -12q-31 0 -48 19t-17 44zM838 328q0 12 2 20l143 465q12 49 64 49q31 0 49 -20.5t18 -48.5q0 -12 -2 -19l-113 -381h138 v121q0 29 20.5 48.5t49 19.5t48 -19.5t19.5 -48.5v-121q29 0 49 -19.5t20 -48t-20 -49t-49 -20.5v-184q0 -29 -19.5 -49.5t-48 -20.5t-49 20.5t-20.5 49.5v184h-226q-29 0 -51 20.5t-22 51.5z" />
<glyph unicode="&#xbf;" horiz-adv-x="1009" d="M-12 94q0 90 35 169t93 137.5t138 92t168 33.5h70v105q0 35 19.5 56.5t48 21.5t49 -21.5t20.5 -56.5v-164q0 -35 -21.5 -56.5t-56.5 -21.5h-129q-61 0 -115.5 -22.5t-94.5 -62.5t-63.5 -93t-23.5 -115q0 -63 23.5 -117.5t63.5 -93t94.5 -62t115.5 -23.5q59 0 112.5 23.5 t94.5 62t64.5 93t23.5 117.5q0 31 19.5 49.5t50 18.5t50 -18.5t19.5 -49.5q0 -92 -35 -170.5t-93 -138t-137 -93.5t-169 -34q-88 0 -168 34t-138 93.5t-93 138t-35 168.5zM469 983q0 37 26.5 63.5t63.5 26.5t63.5 -26.5t26.5 -63.5q0 -39 -26.5 -65.5t-63.5 -26.5 t-63.5 26.5t-26.5 65.5z" />
<glyph unicode="&#xc0;" horiz-adv-x="1390" d="M76 66q0 14 6 26l551 1268q6 18 23.5 34.5t40 16.5t40 -15.5t27.5 -35.5l545 -1268q6 -8 6 -26q0 -25 -18.5 -45.5t-49.5 -20.5q-47 0 -63 43l-178 403h-621l-176 -403q-10 -20 -27.5 -31.5t-38.5 -11.5q-31 0 -49 20.5t-18 45.5zM426 1892q0 23 19.5 46.5t50.5 23.5 q18 0 33.5 -7t23.5 -26l184 -317q6 -16 6 -31q0 -27 -19 -48.5t-50 -21.5q-41 0 -58 33l-182 320q-8 12 -8 28zM444 584h502l-250 571z" />
<glyph unicode="&#xc1;" horiz-adv-x="1390" d="M76 68q0 14 6 26l551 1268q6 18 23.5 34.5t40 16.5t40 -15.5t27.5 -35.5l545 -1268q6 -8 6 -26q0 -25 -18.5 -45.5t-49.5 -20.5q-47 0 -63 43l-178 404h-621l-176 -404q-10 -20 -27.5 -31.5t-38.5 -11.5q-31 0 -49 20.5t-18 45.5zM444 586h502l-250 571zM625 1579 q0 16 8 29l182 319q18 33 57 33q31 0 50.5 -21.5t19.5 -48.5q0 -18 -6 -32l-184 -316q-8 -18 -24.5 -26.5t-33.5 -8.5q-31 0 -50 23.5t-19 48.5z" />
<glyph unicode="&#xc2;" horiz-adv-x="1390" d="M76 68q0 14 6 26l551 1268q6 18 23.5 34.5t40 16.5t40 -15.5t27.5 -35.5l545 -1268q6 -8 6 -26q0 -25 -18.5 -45.5t-49.5 -20.5q-47 0 -63 43l-178 404h-621l-176 -404q-10 -20 -27.5 -31.5t-38.5 -11.5q-31 0 -49 20.5t-18 45.5zM319 1530q0 29 19 47l309 295 q18 20 47 20t49 -20l310 -289q20 -20 20 -49t-19.5 -49.5t-48 -20.5t-49.5 21l-262 246l-258 -250q-20 -20 -49 -20.5t-48.5 20t-19.5 49.5zM444 586h502l-250 571z" />
<glyph unicode="&#xc3;" horiz-adv-x="1390" d="M76 68q0 14 6 26l551 1268q6 18 23.5 34.5t40 16.5t40 -15.5t27.5 -35.5l545 -1268q6 -8 6 -26q0 -25 -18.5 -45.5t-49.5 -20.5q-47 0 -63 43l-178 404h-621l-176 -404q-10 -20 -27.5 -31.5t-38.5 -11.5q-31 0 -49 20.5t-18 45.5zM248 1575q0 25 29.5 61.5t71.5 72.5 t91 61.5t92 25.5q45 0 91.5 -26.5t89.5 -59.5l80 -58q37 -26 69 -26q41 0 70 23.5t50 53.5l41 54q19 25 46 25q31 0 46 -20.5t15 -45.5q0 -39 -27.5 -78t-68.5 -70.5t-88 -51t-84 -19.5q-47 0 -89 26.5t-83 57.5l-80 57q-39 27 -78 27q-27 0 -51 -13.5t-46.5 -33 t-40.5 -41.5l-32 -41q-16 -25 -49 -25q-25 0 -45 18.5t-20 45.5zM444 586h502l-250 571z" />
<glyph unicode="&#xc4;" horiz-adv-x="1390" d="M76 68q0 14 6 26l551 1268q6 18 23.5 34.5t40 16.5t40 -15.5t27.5 -35.5l545 -1268q6 -8 6 -26q0 -25 -18.5 -45.5t-49.5 -20.5q-47 0 -63 43l-178 404h-621l-176 -404q-10 -20 -27.5 -31.5t-38.5 -11.5q-31 0 -49 20.5t-18 45.5zM428 1595q0 39 26.5 66t63.5 27 t63.5 -27t26.5 -66q0 -37 -26.5 -63.5t-63.5 -26.5t-63.5 26.5t-26.5 63.5zM444 586h502l-250 571zM776 1595q0 39 26.5 66t65.5 27q37 0 63.5 -27t26.5 -66q0 -37 -26.5 -63.5t-63.5 -26.5q-39 0 -65.5 26.5t-26.5 63.5z" />
<glyph unicode="&#xc5;" horiz-adv-x="1390" d="M76 68q0 14 6 26l551 1268q6 18 23.5 34.5t40 16.5t40 -15.5t27.5 -35.5l545 -1268q6 -8 6 -26q0 -25 -18.5 -45.5t-49.5 -20.5q-47 0 -63 43l-178 404h-621l-176 -404q-10 -20 -27.5 -31.5t-38.5 -11.5q-31 0 -49 20.5t-18 45.5zM444 586h502l-250 571zM487 1685.5 q0 88.5 60.5 149.5t148.5 61t150.5 -61t62.5 -149.5t-62.5 -149.5t-150.5 -61t-148.5 61t-60.5 149.5zM618 1686q0 -37 22 -57.5t56 -20.5q37 0 58.5 20.5t21.5 57.5q0 35 -21.5 57t-58.5 22q-35 0 -56.5 -22t-21.5 -57z" />
<glyph unicode="&#xc6;" horiz-adv-x="2117" d="M100 68q0 14 6 26l551 1268q6 18 23.5 34.5t40 16.5t40 -15.5t27.5 -35.5l545 -1268q6 -8 6 -26q0 -25 -18 -45.5t-49 -20.5q-47 0 -64 43l-178 404h-620l-177 -404q-10 -20 -27.5 -31.5t-37.5 -11.5q-31 0 -49.5 20.5t-18.5 45.5zM469 586h502l-250 571zM1200 68v1278 q0 29 19.5 48t48.5 19h674q29 0 48 -19.5t19 -48t-19.5 -49t-47.5 -20.5h-605v-494h402q31 0 50 -19.5t19 -48t-19.5 -49t-49.5 -20.5h-402v-508h605q29 0 48 -19.5t19 -49.5q0 -29 -19.5 -48.5t-47.5 -19.5h-674q-29 0 -48.5 19.5t-19.5 48.5z" />
<glyph unicode="&#xc7;" horiz-adv-x="1415" d="M86 702q0 147 55.5 275.5t150.5 224.5t223 151.5t275.5 55.5t276.5 -57.5t227 -157.5q10 -10 19.5 -27.5t9.5 -36.5q0 -29 -20.5 -44t-47.5 -15q-33 0 -51 23q-80 68 -186.5 123t-226.5 55q-119 0 -222.5 -44t-180.5 -122t-121 -181.5t-44 -222.5q0 -117 44 -220 t121 -180t180.5 -121t222.5 -44q123 0 230 47t185 131q10 14 26.5 20.5t35.5 6.5q29 0 43 -19.5t14 -43.5q0 -35 -20 -56q-96 -106 -229.5 -164.5t-284.5 -58.5q-147 0 -275.5 55.5t-223.5 150.5t-150.5 223t-55.5 273zM559 -289q0 25 18.5 43.5t43.5 18.5q33 0 44 -19.5 t20 -45t20.5 -45t46.5 -19.5q29 0 48 19.5t19 47.5q0 37 -19.5 47.5t-45 19.5t-46 22.5t-20.5 49.5v207h125v-161q57 -20 94 -69.5t37 -115.5q0 -80 -57.5 -136t-134.5 -56q-80 0 -136.5 56t-56.5 136z" />
<glyph unicode="&#xc8;" horiz-adv-x="974" d="M82 68v1278q0 29 19.5 48t48.5 19h673q29 0 48.5 -19.5t19.5 -48t-19.5 -49t-48.5 -20.5h-604v-494h402q31 0 50 -19.5t19 -48t-19.5 -49t-49.5 -20.5h-402v-508h604q29 0 48.5 -19.5t19.5 -49.5q0 -29 -19.5 -48.5t-48.5 -19.5h-673q-29 0 -48.5 19.5t-19.5 48.5z M248 1892q0 23 19.5 46.5t49.5 23.5q18 0 34 -7t24 -26l184 -317q6 -16 6 -31q0 -27 -19.5 -48.5t-49.5 -21.5q-41 0 -58 33l-182 320q-8 12 -8 28z" />
<glyph unicode="&#xc9;" horiz-adv-x="974" d="M82 68v1278q0 29 19.5 48t48.5 19h673q29 0 48.5 -19.5t19.5 -48t-19.5 -49t-48.5 -20.5h-604v-494h402q31 0 50 -19.5t19 -48t-19.5 -49t-49.5 -20.5h-402v-508h604q29 0 48.5 -19.5t19.5 -49.5q0 -29 -19.5 -48.5t-48.5 -19.5h-673q-29 0 -48.5 19.5t-19.5 48.5z M459 1579q0 16 8 29l182 319q18 33 58 33q31 0 50 -21.5t19 -48.5q0 -18 -6 -32l-184 -316q-8 -18 -24.5 -26.5t-33.5 -8.5q-31 0 -50 23.5t-19 48.5z" />
<glyph unicode="&#xca;" horiz-adv-x="974" d="M82 68v1278q0 29 19.5 48t48.5 19h673q29 0 48.5 -19.5t19.5 -48t-19.5 -49t-48.5 -20.5h-604v-494h402q31 0 50 -19.5t19 -48t-19.5 -49t-49.5 -20.5h-402v-508h604q29 0 48.5 -19.5t19.5 -49.5q0 -29 -19.5 -48.5t-48.5 -19.5h-673q-29 0 -48.5 19.5t-19.5 48.5z M117 1573q0 29 18 47l309 295q18 20 47 20t50 -20l309 -289q20 -20 20 -49t-19.5 -49.5t-48 -20.5t-48.5 21l-262 246l-259 -250q-20 -20 -48.5 -20.5t-48 20t-19.5 49.5z" />
<glyph unicode="&#xcb;" horiz-adv-x="974" d="M82 68v1278q0 29 19.5 48t48.5 19h673q29 0 48.5 -19.5t19.5 -48t-19.5 -49t-48.5 -20.5h-604v-494h402q31 0 50 -19.5t19 -48t-19.5 -49t-49.5 -20.5h-402v-508h604q29 0 48.5 -19.5t19.5 -49.5q0 -29 -19.5 -48.5t-48.5 -19.5h-673q-29 0 -48.5 19.5t-19.5 48.5z M229 1602q0 39 27 65.5t63.5 26.5t63.5 -27t27 -65q0 -37 -27 -64t-63.5 -27t-63.5 27t-27 64zM578 1602q0 39 26.5 65.5t65.5 26.5q37 0 63.5 -27t26.5 -65q0 -37 -26.5 -64t-63.5 -27q-39 0 -65.5 27t-26.5 64z" />
<glyph unicode="&#xcc;" horiz-adv-x="354" d="M-76 1894q0 23 19.5 46.5t50.5 23.5q18 0 33.5 -7t23.5 -26l185 -317q6 -16 6 -31q0 -27 -19.5 -48.5t-50.5 -21.5q-41 0 -57 33l-183 320q-8 12 -8 28zM111 68v1278q0 29 19.5 48t48 19t49 -19.5t20.5 -47.5v-1278q0 -29 -20.5 -48.5t-49 -19.5t-48 19.5t-19.5 48.5z " />
<glyph unicode="&#xcd;" horiz-adv-x="354" d="M109 68v1278q0 29 19 48t48 19t49.5 -19.5t20.5 -47.5v-1278q0 -29 -20.5 -48.5t-49.5 -19.5t-48 19.5t-19 48.5zM117 1583q0 16 8 29l182 319q18 33 58 33q31 0 50 -21.5t19 -48.5q0 -18 -6 -32l-184 -316q-8 -18 -24.5 -26.5t-33.5 -8.5q-31 0 -50 23.5t-19 48.5z" />
<glyph unicode="&#xce;" horiz-adv-x="374" d="M-174 1564.5q0 28.5 18 47.5l310 295q18 20 46.5 20t49.5 -20l309 -289q20 -20 20.5 -49t-19 -49.5t-48.5 -20.5t-49 21l-262 245l-258 -249q-20 -20 -49 -20.5t-48.5 20t-19.5 49zM117 68v1278q0 29 19.5 48t48 19t49 -19.5t20.5 -47.5v-1278q0 -29 -20.5 -48.5 t-49 -19.5t-48 19.5t-19.5 48.5z" />
<glyph unicode="&#xcf;" horiz-adv-x="331" d="M-98 1618q0 39 26.5 65.5t63.5 26.5t63.5 -26.5t26.5 -65.5q0 -37 -26.5 -63.5t-63.5 -26.5t-63.5 26.5t-26.5 63.5zM96 68v1278q0 29 19.5 48t48.5 19t49 -19.5t20 -47.5v-1278q0 -29 -20 -48.5t-49 -19.5t-48.5 19.5t-19.5 48.5zM250 1618q0 39 26.5 65.5t65.5 26.5 q37 0 63.5 -26.5t26.5 -65.5q0 -37 -26.5 -63.5t-63.5 -26.5q-39 0 -65.5 26.5t-26.5 63.5z" />
<glyph unicode="&#xd0;" horiz-adv-x="1492" d="M84 663.5q0 28.5 19.5 48t50.5 19.5h100v615q0 29 20.5 48t49.5 19h378q147 0 275.5 -56.5t224.5 -152.5t151.5 -225t55.5 -277q0 -145 -55.5 -273t-151.5 -223t-224 -150.5t-276 -55.5h-378q-29 0 -49.5 19.5t-20.5 48.5v528h-100q-31 0 -50.5 19.5t-19.5 48zM391 137 h311q119 0 222.5 44t181.5 121t122 180.5t44 219.5q0 119 -44 222.5t-122 182.5t-181.5 124t-222.5 45h-311v-545h117q29 0 49.5 -19.5t20.5 -48t-20.5 -48t-49.5 -19.5h-117v-459z" />
<glyph unicode="&#xd1;" d="M106 68v1278q0 29 19.5 48t48.5 19q25 0 37 -10t27 -27l759 -1077v1047q0 29 20.5 48t49.5 19t48.5 -19.5t19.5 -47.5v-1278q0 -29 -19.5 -48.5t-48.5 -19.5q-25 0 -40 14.5t-28 32.5l-755 1069v-1048q0 -29 -20.5 -48.5t-49.5 -19.5t-48.5 19.5t-19.5 48.5zM178 1579 q0 25 30 61.5t72 72.5t91 61.5t92 25.5q45 0 91 -26.5t89 -59.5l80 -58q37 -26 70 -26q41 0 69.5 23.5t49.5 53.5l41 54q19 25 46 25q31 0 46.5 -20.5t15.5 -45.5q0 -39 -27.5 -77.5t-68.5 -70.5t-88.5 -51.5t-83.5 -19.5q-47 0 -89 26.5t-83 57.5l-80 57q-39 27 -78 27 q-27 0 -51.5 -13.5t-47 -32.5t-39.5 -42l-32 -41q-16 -25 -49 -24q-25 0 -45.5 18t-20.5 45z" />
<glyph unicode="&#xd2;" horiz-adv-x="1581" d="M86 702q0 147 55.5 275.5t150.5 224.5t223 151.5t276 55.5q145 0 273 -55.5t224 -151.5t151.5 -224t55.5 -276q0 -145 -55.5 -273t-151.5 -223t-224 -150.5t-273 -55.5q-147 0 -275.5 55.5t-223.5 150.5t-150.5 223t-55.5 273zM223 702q0 -117 44 -220t121 -180 t180.5 -121t222.5 -44q117 0 220 44t181 121t122 180.5t44 219.5q0 119 -44 222.5t-122 181.5t-181.5 122t-219.5 44q-119 0 -222.5 -44t-180.5 -122t-121 -181.5t-44 -222.5zM532 1892q0 23 19.5 46.5t50.5 23.5q18 0 33.5 -7t23.5 -26l185 -317q6 -16 6 -31 q0 -27 -19.5 -48.5t-50.5 -21.5q-41 0 -57 33l-182 320q-9 12 -9 28z" />
<glyph unicode="&#xd3;" horiz-adv-x="1581" d="M86 702q0 147 55.5 275.5t150.5 224.5t223 151.5t276 55.5q145 0 273 -55.5t224 -151.5t151.5 -224t55.5 -276q0 -145 -55.5 -273t-151.5 -223t-224 -150.5t-273 -55.5q-147 0 -275.5 55.5t-223.5 150.5t-150.5 223t-55.5 273zM223 702q0 -117 44 -220t121 -180 t180.5 -121t222.5 -44q117 0 220 44t181 121t122 180.5t44 219.5q0 119 -44 222.5t-122 181.5t-181.5 122t-219.5 44q-119 0 -222.5 -44t-180.5 -122t-121 -181.5t-44 -222.5zM727 1581q0 16 8 29l183 319q18 33 57 33q31 0 50 -21.5t19 -48.5q0 -18 -6 -32l-184 -316 q-8 -18 -24.5 -26.5t-32.5 -8.5q-31 0 -50.5 23.5t-19.5 48.5z" />
<glyph unicode="&#xd4;" horiz-adv-x="1581" d="M86 702q0 147 55.5 275.5t150.5 224.5t223 151.5t276 55.5q145 0 273 -55.5t224 -151.5t151.5 -224t55.5 -276q0 -145 -55.5 -273t-151.5 -223t-224 -150.5t-273 -55.5q-147 0 -275.5 55.5t-223.5 150.5t-150.5 223t-55.5 273zM223 702q0 -117 44 -220t121 -180 t180.5 -121t222.5 -44q117 0 220 44t181 121t122 180.5t44 219.5q0 119 -44 222.5t-122 181.5t-181.5 122t-219.5 44q-119 0 -222.5 -44t-180.5 -122t-121 -181.5t-44 -222.5zM416 1550.5q0 28.5 18 46.5l309 295q18 20 47 20.5t50 -20.5l309 -288q20 -20 20 -49 t-19.5 -49.5t-48 -20.5t-48.5 20l-262 246l-259 -250q-20 -20 -48.5 -20t-48 20.5t-19.5 49z" />
<glyph unicode="&#xd5;" horiz-adv-x="1581" d="M86 702q0 147 55.5 275.5t150.5 224.5t223 151.5t276 55.5q145 0 273 -55.5t224 -151.5t151.5 -224t55.5 -276q0 -145 -55.5 -273t-151.5 -223t-224 -150.5t-273 -55.5q-147 0 -275.5 55.5t-223.5 150.5t-150.5 223t-55.5 273zM223 702q0 -117 44 -220t121 -180 t180.5 -121t222.5 -44q117 0 220 44t181 121t122 180.5t44 219.5q0 119 -44 222.5t-122 181.5t-181.5 122t-219.5 44q-119 0 -222.5 -44t-180.5 -122t-121 -181.5t-44 -222.5zM340 1575q0 25 29.5 61.5t71.5 72.5t91.5 61.5t92.5 25.5q45 0 91 -26.5t89 -59.5l80 -58 q37 -26 69 -26q41 0 70 23.5t50 53.5l41 54q19 25 46 25q31 0 46.5 -20.5t15.5 -45.5q0 -39 -28 -78t-69 -70.5t-88 -51t-84 -19.5q-47 0 -89 26.5t-83 57.5l-80 57q-39 27 -77 27q-27 0 -51.5 -13.5t-47 -33t-40.5 -41.5l-31 -41q-16 -25 -49 -25q-25 0 -45.5 18.5 t-20.5 45.5z" />
<glyph unicode="&#xd6;" horiz-adv-x="1581" d="M86 702q0 147 55.5 275.5t150.5 224.5t223 151.5t276 55.5q145 0 273 -55.5t224 -151.5t151.5 -224t55.5 -276q0 -145 -55.5 -273t-151.5 -223t-224 -150.5t-273 -55.5q-147 0 -275.5 55.5t-223.5 150.5t-150.5 223t-55.5 273zM223 702q0 -117 44 -220t121 -180 t180.5 -121t222.5 -44q117 0 220 44t181 121t122 180.5t44 219.5q0 119 -44 222.5t-122 181.5t-181.5 122t-219.5 44q-119 0 -222.5 -44t-180.5 -122t-121 -181.5t-44 -222.5zM530 1595q0 39 27 66t63.5 27t63.5 -27t27 -66q0 -37 -27 -63.5t-63.5 -26.5t-63.5 26.5 t-27 63.5zM879 1595q0 39 26.5 66t65.5 27q37 0 63.5 -27t26.5 -66q0 -37 -26.5 -63.5t-63.5 -26.5q-39 0 -65.5 26.5t-26.5 63.5z" />
<glyph unicode="&#xd7;" horiz-adv-x="1165" d="M102 114.5q0 26.5 19 51.5l366 369l-360 362q-23 27 -23 51q0 31 21.5 49.5t48.5 18.5q29 0 47 -19l363 -364l360 362q18 18 47 19q27 0 47.5 -18.5t20.5 -49.5q0 -29 -19 -51l-360 -360l364 -365q18 -25 18.5 -51.5t-20 -46t-47.5 -19.5q-29 0 -49 23l-362 362 l-365 -366q-20 -23 -49 -23q-27 0 -47.5 19.5t-20.5 46z" />
<glyph unicode="&#xd8;" horiz-adv-x="1581" d="M86 702q0 147 55.5 275.5t150.5 224.5t223 151.5t276 55.5q145 0 273 -55.5t224 -151.5t151.5 -224t55.5 -276q0 -145 -55.5 -273t-151.5 -223t-224 -150.5t-273 -55.5q-147 0 -275.5 55.5t-223.5 150.5t-150.5 223t-55.5 273zM223 702q0 -117 44 -220t121 -180 t180.5 -121t222.5 -44q117 0 220 44t181 121t122 180.5t44 219.5q0 119 -44 222.5t-122 181.5t-181.5 122t-219.5 44q-119 0 -222.5 -44t-180.5 -122t-121 -181.5t-44 -222.5zM504 41q0 10 4 22l426 1328q6 23 24.5 35t40.5 12q31 0 48.5 -22.5t17.5 -47.5q0 -12 -2 -18 l-424 -1327q-6 -23 -26.5 -36.5t-39.5 -13.5q-33 0 -51 22.5t-18 45.5z" />
<glyph unicode="&#xd9;" horiz-adv-x="1181" d="M100 492v851q0 23 19.5 46.5t50.5 23.5t49.5 -21.5t18.5 -52.5v-847q0 -74 27.5 -138.5t74.5 -111.5t112.5 -76t137.5 -29q74 0 138.5 29t112.5 76t76.5 111.5t28.5 138.5v851q0 23 20.5 46.5t51.5 23.5t48 -24.5t17 -49.5v-847q0 -102 -39.5 -191.5t-105.5 -156 t-156 -105.5t-192 -39q-100 0 -190.5 39t-157 105.5t-104.5 156t-38 191.5zM350 1890q0 23 19.5 46.5t50.5 23.5q18 0 33.5 -7t23.5 -26l185 -317q6 -16 6 -31q0 -27 -19.5 -48.5t-50.5 -21.5q-41 0 -57 33l-183 320q-8 12 -8 28z" />
<glyph unicode="&#xda;" horiz-adv-x="1181" d="M100 492v851q0 23 19.5 46.5t50.5 23.5t49.5 -21.5t18.5 -52.5v-847q0 -74 27.5 -138.5t74.5 -111.5t112.5 -76t137.5 -29q74 0 138.5 29t112.5 76t76.5 111.5t28.5 138.5v851q0 23 20.5 46.5t51.5 23.5t48 -24.5t17 -49.5v-847q0 -102 -39.5 -191.5t-105.5 -156 t-156 -105.5t-192 -39q-100 0 -190.5 39t-157 105.5t-104.5 156t-38 191.5zM477 1579q0 16 8 29l183 319q18 33 57 33q31 0 50.5 -21.5t19.5 -48.5q0 -18 -7 -32l-184 -316q-8 -18 -24.5 -26.5t-32.5 -8.5q-31 0 -50.5 23.5t-19.5 48.5z" />
<glyph unicode="&#xdb;" horiz-adv-x="1181" d="M100 492v851q0 23 19.5 46.5t50.5 23.5t49.5 -21.5t18.5 -52.5v-847q0 -74 27.5 -138.5t74.5 -111.5t112.5 -76t137.5 -29q74 0 138.5 29t112.5 76t76.5 111.5t28.5 138.5v851q0 23 20.5 46.5t51.5 23.5t48 -24.5t17 -49.5v-847q0 -102 -39.5 -191.5t-105.5 -156 t-156 -105.5t-192 -39q-100 0 -190.5 39t-157 105.5t-104.5 156t-38 191.5zM233 1573q0 29 19 47l309 295q18 20 47 20t49 -20l310 -289q20 -20 20 -49t-19.5 -49.5t-48 -20.5t-49.5 21l-262 246l-258 -250q-20 -20 -49 -20.5t-48.5 20t-19.5 49.5z" />
<glyph unicode="&#xdc;" horiz-adv-x="1181" d="M100 492v851q0 23 19.5 46.5t50.5 23.5t49.5 -21.5t18.5 -52.5v-847q0 -74 27.5 -138.5t74.5 -111.5t112.5 -76t137.5 -29q74 0 138.5 29t112.5 76t76.5 111.5t28.5 138.5v851q0 23 20.5 46.5t51.5 23.5t48 -24.5t17 -49.5v-847q0 -102 -39.5 -191.5t-105.5 -156 t-156 -105.5t-192 -39q-100 0 -190.5 39t-157 105.5t-104.5 156t-38 191.5zM326 1616q0 39 26.5 65.5t63.5 26.5t63.5 -26.5t26.5 -65.5q0 -37 -26.5 -63.5t-63.5 -26.5t-63.5 26.5t-26.5 63.5zM674 1616q0 39 26.5 65.5t65.5 26.5q37 0 63.5 -26.5t26.5 -65.5 q0 -37 -26.5 -63.5t-63.5 -26.5q-39 0 -65.5 26.5t-26.5 63.5z" />
<glyph unicode="&#xdd;" horiz-adv-x="1144" d="M76 1343q0 27 18.5 47.5t48.5 20.5q39 0 58 -29l372 -555l371 555q20 29 57 29q29 0 49.5 -20.5t20.5 -47.5q0 -20 -12 -38l-418 -621v-616q0 -29 -19.5 -48.5t-48 -19.5t-49 19.5t-20.5 48.5v616l-416 621q-12 15 -12 38zM494 1579q0 16 8 29l182 319q18 33 57 33 q31 0 50.5 -21.5t19.5 -48.5q0 -18 -6 -32l-184 -316q-8 -18 -24.5 -26.5t-33.5 -8.5q-31 0 -50 23.5t-19 48.5z" />
<glyph unicode="&#xde;" horiz-adv-x="1142" d="M76 -332v1671q0 25 19.5 48.5t51.5 23.5q25 0 46.5 -20.5t21.5 -51.5v-475q49 41 101.5 71t102.5 49.5t94 29.5t75 10q109 0 203 -42t163.5 -111.5t108.5 -164t39 -196.5q0 -104 -41 -197.5t-111.5 -163t-164 -109.5t-195.5 -40q-111 0 -209 46t-168 124v-502 q0 -29 -20.5 -48t-49 -19t-48 19t-19.5 48zM215 510q0 -76 30.5 -144.5t82 -119.5t120 -81t142.5 -30q76 0 143.5 30t119.5 81t83 119.5t31 144.5q0 78 -31 146.5t-83 120.5t-119.5 82t-143.5 30q-74 0 -142.5 -32t-120 -85t-82 -120.5t-30.5 -141.5z" />
<glyph unicode="&#xdf;" horiz-adv-x="960" d="M94 53v1020q0 84 33 159t88 130t129 88t158 33t159.5 -33t131 -88t87 -130t31.5 -159q0 -106 -50 -196.5t-134 -145.5q82 -57 132 -145t50 -195q0 -84 -31.5 -157.5t-87 -129t-130 -88t-158.5 -32.5q-29 0 -48.5 20.5t-19.5 49t19.5 48t48.5 19.5q129 12 201.5 89 t72.5 181q0 55 -19.5 103.5t-56 84t-88 58t-110.5 27.5q-29 0 -48.5 19t-19.5 48q0 31 19.5 50.5t48.5 19.5q57 0 107 20.5t88 58.5t58.5 87t20.5 106q0 55 -20.5 104.5t-58.5 87.5t-88 59.5t-107.5 21.5t-105.5 -21.5t-86 -59.5t-59.5 -87.5t-21.5 -104.5v-1020 q0 -29 -19.5 -49t-48 -20t-48 20t-19.5 49z" />
<glyph unicode="&#xe0;" horiz-adv-x="1251" d="M90 532q0 111 41 209.5t112.5 172t171 115.5t214.5 42q106 0 202.5 -43t169 -116.5t115.5 -171t43 -208.5v-466q0 -29 -20.5 -48.5t-49 -19.5t-48 19.5t-19.5 48.5v135q-74 -82 -176.5 -140.5t-220.5 -58.5q-111 0 -207 40t-170 110.5t-116 167.5t-42 212zM227 532.5 q0 -81.5 31 -153.5t85 -126t127 -85t155 -31q78 0 149.5 30t124.5 83t86 124.5t37 157.5q0 82 -30.5 156t-85 127t-127 85t-154.5 32t-155 -32t-127 -85t-85 -127t-31 -155.5zM354 1567q0 23 19.5 46t50.5 23q18 0 33.5 -7t23.5 -25l185 -318q6 -16 6 -31q0 -27 -19.5 -48 t-50.5 -21q-41 0 -57 33l-183 319q-8 13 -8 29z" />
<glyph unicode="&#xe1;" horiz-adv-x="1251" d="M90 532q0 111 41 209.5t112.5 172t171 115.5t214.5 42q106 0 202.5 -43t169 -116.5t115.5 -171t43 -208.5v-466q0 -29 -20.5 -48.5t-49 -19.5t-48 19.5t-19.5 48.5v135q-74 -82 -176.5 -140.5t-220.5 -58.5q-111 0 -207 40t-170 110.5t-116 167.5t-42 212zM227 532.5 q0 -81.5 31 -153.5t85 -126t127 -85t155 -31q78 0 149.5 30t124.5 83t86 124.5t37 157.5q0 82 -30.5 156t-85 127t-127 85t-154.5 32t-155 -32t-127 -85t-85 -127t-31 -155.5zM565 1257q0 16 8 29l183 320q18 33 57 32q31 0 50.5 -21.5t19.5 -47.5q0 -18 -6 -33l-185 -315 q-8 -18 -24.5 -26.5t-32.5 -8.5q-31 0 -50.5 23t-19.5 48z" />
<glyph unicode="&#xe2;" horiz-adv-x="1251" d="M90 537q0 111 41 209t112.5 171.5t171 115.5t214.5 42q106 0 202.5 -43t169 -116.5t115.5 -171t43 -207.5v-467q0 -29 -20.5 -48.5t-49 -19.5t-48 19.5t-19.5 48.5v135q-74 -82 -176.5 -140.5t-220.5 -58.5q-111 0 -207 40t-170 110.5t-116 168t-42 212.5zM227 536.5 q0 -81.5 31 -153.5t85 -126t127 -85t155 -31q78 0 149.5 30t124.5 83t86 125t37 158q0 82 -30.5 155.5t-85 126.5t-127 85t-154.5 32t-155 -32t-127 -85t-85 -127t-31 -155.5zM254 1255.5q0 28.5 18 47.5l310 294q18 20 46.5 20.5t49.5 -20.5l309 -288q20 -20 20.5 -49 t-19 -49.5t-48.5 -20.5t-49 20l-262 246l-258 -250q-20 -20 -49 -20t-48.5 20.5t-19.5 49z" />
<glyph unicode="&#xe3;" horiz-adv-x="1251" d="M90 532q0 111 41 209.5t112.5 172t171 115.5t214.5 42q106 0 202.5 -43t169 -116.5t115.5 -171t43 -208.5v-466q0 -29 -20.5 -48.5t-49 -19.5t-48 19.5t-19.5 48.5v135q-74 -82 -176.5 -140.5t-220.5 -58.5q-111 0 -207 40t-170 110.5t-116 167.5t-42 212zM197 1235 q0 25 29.5 61.5t71.5 72.5t91 61.5t92 25.5q45 0 91 -26.5t90 -59.5l79 -58q37 -26 70 -26q41 0 69.5 23.5t50.5 53.5l41 54q19 25 46 25q31 0 46 -20.5t15 -45.5q0 -39 -27.5 -77.5t-68.5 -70.5t-88 -51.5t-84 -19.5q-47 0 -89 26.5t-83 57.5l-80 57q-39 27 -78 27 q-27 0 -51 -13.5t-47 -32.5t-40 -42l-32 -41q-16 -25 -49 -25q-25 0 -45 18.5t-20 45.5zM227 532.5q0 -81.5 31 -153.5t85 -126t127 -85t155 -31q78 0 149.5 30t124.5 83t86 124.5t37 157.5q0 82 -30.5 156t-85 127t-127 85t-154.5 32t-155 -32t-127 -85t-85 -127 t-31 -155.5z" />
<glyph unicode="&#xe4;" horiz-adv-x="1251" d="M90 532q0 111 41 209.5t112.5 172t171 115.5t214.5 42q106 0 202.5 -43t169 -116.5t115.5 -171t43 -208.5v-466q0 -29 -20.5 -48.5t-49 -19.5t-48 19.5t-19.5 48.5v135q-74 -82 -176.5 -140.5t-220.5 -58.5q-111 0 -207 40t-170 110.5t-116 167.5t-42 212zM227 532.5 q0 -81.5 31 -153.5t85 -126t127 -85t155 -31q78 0 149.5 30t124.5 83t86 124.5t37 157.5q0 82 -30.5 156t-85 127t-127 85t-154.5 32t-155 -32t-127 -85t-85 -127t-31 -155.5zM367 1319q0 39 26.5 65.5t63.5 26.5t63.5 -26.5t26.5 -65.5q0 -37 -26.5 -63.5t-63.5 -26.5 t-63.5 26.5t-26.5 63.5zM715 1319q0 39 26.5 65.5t65.5 26.5q37 0 63.5 -26.5t26.5 -65.5q0 -37 -26.5 -63.5t-63.5 -26.5q-39 0 -65.5 26.5t-26.5 63.5z" />
<glyph unicode="&#xe5;" horiz-adv-x="1251" d="M90 532q0 111 41 209.5t112.5 172t171 115.5t214.5 42q106 0 202.5 -43t169 -116.5t115.5 -171t43 -208.5v-466q0 -29 -20.5 -48.5t-49 -19.5t-48 19.5t-19.5 48.5v135q-74 -82 -176.5 -140.5t-220.5 -58.5q-111 0 -207 40t-170 110.5t-116 167.5t-42 212zM227 532.5 q0 -81.5 31 -153.5t85 -126t127 -85t155 -31q78 0 149.5 30t124.5 83t86 124.5t37 157.5q0 82 -30.5 156t-85 127t-127 85t-154.5 32t-155 -32t-127 -85t-85 -127t-31 -155.5zM418 1393q0 88 60.5 149.5t148.5 61.5t150.5 -61.5t62.5 -149.5t-62.5 -149.5t-150.5 -61.5 t-148.5 61.5t-60.5 149.5zM549 1393q0 -37 21.5 -57.5t56.5 -20.5q37 0 58.5 20.5t21.5 57.5q0 35 -21.5 57.5t-58.5 22.5q-35 0 -56.5 -22.5t-21.5 -57.5z" />
<glyph unicode="&#xe6;" horiz-adv-x="2185" d="M90 532q0 111 41 209.5t112.5 172t171 115.5t214.5 42q106 0 202.5 -43t169 -116.5t115.5 -171t43 -208.5v-466q0 -29 -20.5 -48.5t-49 -19.5t-48 19.5t-19.5 48.5v135q-74 -82 -176.5 -140.5t-220.5 -58.5q-111 0 -207 40t-170 110.5t-116 167.5t-42 212zM227 532.5 q0 -81.5 31 -153.5t85 -126t127 -85t155 -31q78 0 149.5 30t124.5 83t86 124.5t37 157.5q0 82 -30.5 156t-85 127t-127 85t-154.5 32t-155 -32t-127 -85t-85 -127t-31 -155.5zM1024 532q0 111 41 207.5t112.5 168t170 115.5t215.5 48q102 0 198.5 -42t170 -115.5t117.5 -170 t44 -206.5q0 -33 -22.5 -50.5t-47.5 -17.5h-858q12 -72 47 -132.5t87.5 -104.5t119 -69.5t137.5 -25.5q82 0 153 30t126 83q20 20 49 20t49.5 -20.5t20.5 -49t-21 -46.5q-74 -82 -165 -117t-212 -35q-111 0 -207 40t-168.5 110.5t-114.5 167.5t-42 212zM1167 606h783 q-14 68 -49 128.5t-87.5 103.5t-118 68.5t-139.5 25.5q-72 0 -137 -25.5t-117.5 -68.5t-86.5 -103.5t-48 -128.5z" />
<glyph unicode="&#xe7;" horiz-adv-x="1110" d="M90 530q0 111 41 207.5t112.5 168t171 114.5t214.5 49q88 0 158.5 -26.5t122 -61.5t79 -68.5t27.5 -52.5q0 -25 -20.5 -42t-45.5 -17q-29 0 -47 20q-55 47 -125.5 78t-152.5 31t-155 -32t-127 -86t-85 -127t-31 -154.5t31 -153.5t85 -126t127 -85t155 -31t152.5 30 t125.5 83q18 20 47 20q27 0 48.5 -19.5t21.5 -47.5q0 -16 -25.5 -51t-77 -68t-125 -57.5t-167.5 -24.5q-111 0 -207 40t-170 110.5t-116 167.5t-42 212zM408 -236q0 25 18 43.5t43 18.5q33 0 44 -19.5t20.5 -45t20.5 -45t46 -19.5q29 0 48.5 19.5t19.5 47.5q0 37 -19.5 47.5 t-45 19.5t-46 22.5t-20.5 50.5v207h125v-162q57 -20 94 -69.5t37 -115.5q0 -80 -57.5 -136t-135.5 -56q-80 0 -136 56t-56 136z" />
<glyph unicode="&#xe8;" d="M86 532q0 111 41 207.5t112.5 168t170 115.5t215.5 48q102 0 198.5 -42t170 -115.5t117.5 -170t44 -206.5q0 -33 -22.5 -50.5t-47.5 -17.5h-858q12 -72 47 -132.5t87.5 -104.5t119 -69.5t137.5 -25.5q82 0 153 30t126 83q20 20 49 20t49.5 -20.5t20.5 -49t-21 -46.5 q-74 -82 -165 -117t-212 -35q-111 0 -207 40t-168.5 110.5t-114.5 167.5t-42 212zM229 606h783q-14 68 -49 128.5t-87.5 103.5t-118 68.5t-139.5 25.5q-72 0 -137 -25.5t-117.5 -68.5t-86.5 -103.5t-48 -128.5zM360 1567q0 23 19.5 46t50.5 23q18 0 33.5 -7t23.5 -25 l185 -318q6 -16 6 -31q0 -27 -19.5 -48t-50.5 -21q-41 0 -57 33l-182 319q-9 13 -9 29z" />
<glyph unicode="&#xe9;" d="M86 532q0 111 41 207.5t112.5 168t170 115.5t215.5 48q102 0 198.5 -42t170 -115.5t117.5 -170t44 -206.5q0 -33 -22.5 -50.5t-47.5 -17.5h-858q12 -72 47 -132.5t87.5 -104.5t119 -69.5t137.5 -25.5q82 0 153 30t126 83q20 20 49 20t49.5 -20.5t20.5 -49t-21 -46.5 q-74 -82 -165 -117t-212 -35q-111 0 -207 40t-168.5 110.5t-114.5 167.5t-42 212zM229 606h783q-14 68 -49 128.5t-87.5 103.5t-118 68.5t-139.5 25.5q-72 0 -137 -25.5t-117.5 -68.5t-86.5 -103.5t-48 -128.5zM561 1257q0 16 8 29l183 320q18 33 57 32q31 0 50.5 -21.5 t19.5 -47.5q0 -18 -7 -33l-184 -315q-8 -18 -24.5 -26.5t-32.5 -8.5q-31 0 -50.5 23t-19.5 48z" />
<glyph unicode="&#xea;" d="M86 532q0 111 41 207.5t112.5 168t170 115.5t215.5 48q102 0 198.5 -42t170 -115.5t117.5 -170t44 -206.5q0 -33 -22.5 -50.5t-47.5 -17.5h-858q12 -72 47 -132.5t87.5 -104.5t119 -69.5t137.5 -25.5q82 0 153 30t126 83q20 20 49 20t49.5 -20.5t20.5 -49t-21 -46.5 q-74 -82 -165 -117t-212 -35q-111 0 -207 40t-168.5 110.5t-114.5 167.5t-42 212zM223 1255.5q0 28.5 19 47.5l309 294q18 20 47 20.5t49 -20.5l309 -288q20 -20 20.5 -49t-19 -49.5t-48 -20.5t-49.5 20l-262 246l-258 -250q-20 -20 -49 -20t-48.5 20.5t-19.5 49zM229 606 h783q-14 68 -49 128.5t-87.5 103.5t-118 68.5t-139.5 25.5q-72 0 -137 -25.5t-117.5 -68.5t-86.5 -103.5t-48 -128.5z" />
<glyph unicode="&#xeb;" d="M86 532q0 111 41 207.5t112.5 168t170 115.5t215.5 48q102 0 198.5 -42t170 -115.5t117.5 -170t44 -206.5q0 -33 -22.5 -50.5t-47.5 -17.5h-858q12 -72 47 -132.5t87.5 -104.5t119 -69.5t137.5 -25.5q82 0 153 30t126 83q20 20 49 20t49.5 -20.5t20.5 -49t-21 -46.5 q-74 -82 -165 -117t-212 -35q-111 0 -207 40t-168.5 110.5t-114.5 167.5t-42 212zM229 606h783q-14 68 -49 128.5t-87.5 103.5t-118 68.5t-139.5 25.5q-72 0 -137 -25.5t-117.5 -68.5t-86.5 -103.5t-48 -128.5zM338 1305q0 39 26.5 65.5t63.5 26.5t63.5 -27t26.5 -65 q0 -37 -26.5 -64t-63.5 -27t-63.5 27t-26.5 64zM686 1305q0 39 26.5 65.5t65.5 26.5q37 0 63.5 -27t26.5 -65q0 -37 -26.5 -64t-63.5 -27q-39 0 -65.5 27t-26.5 64z" />
<glyph unicode="&#xec;" horiz-adv-x="311" d="M-88 1569q0 23 19.5 46t50.5 23q18 0 33.5 -7t23.5 -25l184 -318q6 -16 6 -31q0 -27 -19.5 -48t-49.5 -21q-41 0 -58 33l-182 319q-8 13 -8 29zM102 68v923q0 29 19.5 48.5t48.5 19.5t49.5 -19.5t20.5 -48.5v-923q0 -29 -20.5 -48.5t-49.5 -19.5t-48.5 19.5t-19.5 48.5z " />
<glyph unicode="&#xed;" horiz-adv-x="311" d="M80 68v923q0 29 19.5 48.5t48 19.5t49 -19.5t20.5 -48.5v-923q0 -29 -20.5 -48.5t-49 -19.5t-48 19.5t-19.5 48.5zM84 1257q0 16 8 29l182 320q18 33 58 32q31 0 50 -21.5t19 -47.5q0 -18 -6 -33l-184 -315q-8 -18 -24.5 -26.5t-32.5 -8.5q-31 0 -50.5 23t-19.5 48z" />
<glyph unicode="&#xee;" horiz-adv-x="337" d="M-205 1235q0 29 19 47l309 295q18 20 47 20t49 -20l309 -289q20 -20 20.5 -49t-19 -49.5t-48 -20.5t-49.5 21l-262 246l-258 -250q-20 -20 -49 -20.5t-48.5 20t-19.5 49.5zM100 68v923q0 29 19.5 48.5t48.5 19.5t49.5 -19.5t20.5 -48.5v-923q0 -29 -20.5 -48.5 t-49.5 -19.5t-48.5 19.5t-19.5 48.5z" />
<glyph unicode="&#xef;" horiz-adv-x="346" d="M-90 1313q0 39 26.5 65.5t63.5 26.5t63.5 -26.5t26.5 -65.5q0 -37 -26.5 -63.5t-63.5 -26.5t-63.5 26.5t-26.5 63.5zM104 68v923q0 29 19.5 48.5t48.5 19.5t49.5 -19.5t20.5 -48.5v-923q0 -29 -20.5 -48.5t-49.5 -19.5t-48.5 19.5t-19.5 48.5zM258 1313q0 39 26.5 65.5 t65.5 26.5q37 0 63.5 -26.5t26.5 -65.5q0 -37 -26.5 -63.5t-63.5 -26.5q-39 0 -65.5 26.5t-26.5 63.5z" />
<glyph unicode="&#xf0;" horiz-adv-x="983" d="M80 418q0 86 31.5 161.5t88 132t131.5 88t161 31.5q80 0 150.5 -27.5t125.5 -78.5v348q0 14 -8 50t-33 73t-69 65.5t-115 28.5q-29 0 -49.5 19.5t-20.5 48t20.5 49t49.5 20.5q100 0 168.5 -37.5t110.5 -92t61.5 -117t19.5 -107.5l2 -655q0 -86 -32.5 -160t-89 -130 t-131 -89t-160.5 -33t-161 33t-131.5 89t-88 130t-31.5 160zM217 417.5q0 -57.5 20.5 -107.5t58.5 -87t88 -58.5t107.5 -21.5t106.5 21.5t87 58.5t60.5 87t22.5 107.5t-22.5 107.5t-60.5 88t-87 59.5t-106.5 21.5t-107.5 -21.5t-88 -59.5t-58.5 -88t-20.5 -107.5z" />
<glyph unicode="&#xf1;" horiz-adv-x="1003" d="M51 1253q0 25 30 62t72 72.5t91 61.5t92 26q45 0 91 -27t89 -59l80 -59q37 -26 70 -25q41 0 69.5 23.5t49.5 52.5l41 55q19 25 46 24q31 0 46.5 -20.5t15.5 -44.5q0 -39 -27.5 -78t-68.5 -71t-88.5 -51t-83.5 -19q-47 0 -89 26.5t-83 57.5l-80 57q-39 27 -78 26 q-27 0 -51.5 -13t-47 -32.5t-39.5 -42.5l-32 -41q-16 -25 -49 -24q-25 0 -45.5 18t-20.5 45zM102 68v938q0 29 19.5 49t48.5 20t49.5 -20.5t20.5 -48.5v-29q49 45 115.5 71.5t142.5 26.5q82 0 154.5 -30.5t127 -85t85 -128t30.5 -155.5v-608q0 -29 -19.5 -48.5t-48 -19.5 t-49 19.5t-20.5 48.5v608q0 53 -20.5 101t-56.5 83t-83 55.5t-100.5 20.5t-99.5 -20.5t-81.5 -53.5t-55 -78t-21.5 -96v-620q0 -29 -20.5 -48.5t-49.5 -19.5t-48.5 19.5t-19.5 48.5z" />
<glyph unicode="&#xf2;" d="M86 532q0 111 41 207.5t112.5 168t170 115.5t215.5 48q104 0 200.5 -43t170 -116.5t116.5 -171t43 -208.5q0 -109 -42 -205t-113.5 -168.5t-170 -114.5t-211.5 -42q-111 0 -207 40t-168.5 110.5t-114.5 167.5t-42 212zM223 532.5q0 -81.5 31 -153.5t85 -126t126 -85 t153.5 -31t155.5 31t128 85t85 126t31 153.5t-31 155.5t-85 127t-128 85t-155.5 32t-153.5 -32t-126 -85t-85 -127t-31 -155.5zM342 1559q0 23 19.5 46t50.5 23q18 0 33.5 -7t23.5 -26l184 -317q6 -16 6 -31q0 -27 -19 -48t-50 -21q-41 0 -58 32l-182 320q-8 13 -8 29z" />
<glyph unicode="&#xf3;" d="M86 532q0 111 41 207.5t112.5 168t170 115.5t215.5 48q104 0 200.5 -43t170 -116.5t116.5 -171t43 -208.5q0 -109 -42 -205t-113.5 -168.5t-170 -114.5t-211.5 -42q-111 0 -207 40t-168.5 110.5t-114.5 167.5t-42 212zM223 532.5q0 -81.5 31 -153.5t85 -126t126 -85 t153.5 -31t155.5 31t128 85t85 126t31 153.5t-31 155.5t-85 127t-128 85t-155.5 32t-153.5 -32t-126 -85t-85 -127t-31 -155.5zM553 1255q0 16 8 29l182 320q18 33 58 32q31 0 50 -21.5t19 -47.5q0 -18 -6 -33l-184 -315q-8 -18 -24.5 -26.5t-32.5 -8.5q-31 0 -50.5 23 t-19.5 48z" />
<glyph unicode="&#xf4;" d="M86 532q0 111 41 207.5t112.5 168t170 115.5t215.5 48q104 0 200.5 -43t170 -116.5t116.5 -171t43 -208.5q0 -109 -42 -205t-113.5 -168.5t-170 -114.5t-211.5 -42q-111 0 -207 40t-168.5 110.5t-114.5 167.5t-42 212zM223 532.5q0 -81.5 31 -153.5t85 -126t126 -85 t153.5 -31t155.5 31t128 85t85 126t31 153.5t-31 155.5t-85 127t-128 85t-155.5 32t-153.5 -32t-126 -85t-85 -127t-31 -155.5zM246 1235q0 29 18 47l309 295q18 20 47 20t50 -20l309 -289q20 -20 20 -49t-19 -49.5t-48 -20.5t-49 21l-262 246l-259 -250 q-20 -20 -48.5 -20.5t-48 20t-19.5 49.5z" />
<glyph unicode="&#xf5;" d="M86 532q0 111 41 207.5t112.5 168t170 115.5t215.5 48q104 0 200.5 -43t170 -116.5t116.5 -171t43 -208.5q0 -109 -42 -205t-113.5 -168.5t-170 -114.5t-211.5 -42q-111 0 -207 40t-168.5 110.5t-114.5 167.5t-42 212zM178 1251q0 25 30 62t72 72.5t91 61.5t92 26 q45 0 91 -27t89 -60l80 -58q37 -26 70 -25q41 0 69.5 23.5t49.5 52.5l41 55q19 25 46 24q31 0 46.5 -20.5t15.5 -44.5q0 -39 -27.5 -78t-68.5 -71t-88.5 -51t-83.5 -19q-47 0 -89 26.5t-83 56.5l-80 58q-39 27 -78 26q-27 0 -51.5 -13t-47 -32.5t-39.5 -42.5l-32 -41 q-16 -25 -49 -24q-25 0 -45.5 18t-20.5 45zM223 532.5q0 -81.5 31 -153.5t85 -126t126 -85t153.5 -31t155.5 31t128 85t85 126t31 153.5t-31 155.5t-85 127t-128 85t-155.5 32t-153.5 -32t-126 -85t-85 -127t-31 -155.5z" />
<glyph unicode="&#xf6;" d="M86 532q0 111 41 207.5t112.5 168t170 115.5t215.5 48q104 0 200.5 -43t170 -116.5t116.5 -171t43 -208.5q0 -109 -42 -205t-113.5 -168.5t-170 -114.5t-211.5 -42q-111 0 -207 40t-168.5 110.5t-114.5 167.5t-42 212zM223 532.5q0 -81.5 31 -153.5t85 -126t126 -85 t153.5 -31t155.5 31t128 85t85 126t31 153.5t-31 155.5t-85 127t-128 85t-155.5 32t-153.5 -32t-126 -85t-85 -127t-31 -155.5zM342 1270q0 39 26.5 65.5t63.5 26.5t63.5 -26.5t26.5 -65.5q0 -37 -26.5 -63.5t-63.5 -26.5t-63.5 26.5t-26.5 63.5zM690 1270q0 39 26.5 65.5 t65.5 26.5q37 0 63.5 -26.5t26.5 -65.5q0 -37 -26.5 -63.5t-63.5 -26.5q-39 0 -65.5 26.5t-26.5 63.5z" />
<glyph unicode="&#xf7;" horiz-adv-x="962" d="M51 688q0 29 19.5 48.5t48.5 19.5h723q31 0 50 -19.5t19 -48.5t-19.5 -49.5t-49.5 -20.5h-723q-29 0 -48.5 20.5t-19.5 49.5zM389 305q0 31 23.5 55.5t54.5 24.5q35 0 57.5 -24.5t22.5 -55.5t-22.5 -54.5t-57.5 -23.5q-31 0 -54.5 23.5t-23.5 54.5zM389 1073 q0 31 23.5 55.5t54.5 24.5q35 0 57.5 -24.5t22.5 -55.5t-22.5 -54.5t-57.5 -23.5q-31 0 -54.5 23.5t-23.5 54.5z" />
<glyph unicode="&#xf8;" d="M86 532q0 111 41 207.5t112.5 168t170 115.5t215.5 48q104 0 200.5 -43t170 -116.5t116.5 -171t43 -208.5q0 -109 -42 -205t-113.5 -168.5t-170 -114.5t-211.5 -42q-111 0 -207 40t-168.5 110.5t-114.5 167.5t-42 212zM223 532.5q0 -81.5 31 -153.5t85 -126t126 -85 t153.5 -31t155.5 31t128 85t85 126t31 153.5t-31 155.5t-85 127t-128 85t-155.5 32t-153.5 -32t-126 -85t-85 -127t-31 -155.5zM340 -109q0 10 4 23l426 1327q6 23 24.5 35t41.5 12q31 0 48 -22.5t17 -46.5q0 -12 -2 -19l-424 -1327q-6 -23 -26.5 -36t-38.5 -13 q-33 0 -51.5 22t-18.5 45z" />
<glyph unicode="&#xf9;" horiz-adv-x="1001" d="M104 397v607q0 29 19.5 49t48.5 20t49.5 -20.5t20.5 -48.5v-607q0 -53 20.5 -100t56 -83t83 -55.5t100.5 -19.5t99 19.5t81 53.5t55.5 79t24.5 96v617q0 29 19.5 49t48 20t48 -20.5t19.5 -48.5v-936q0 -29 -19.5 -48.5t-48 -19.5t-48 19.5t-19.5 48.5v30 q-51 -45 -117.5 -71.5t-142.5 -26.5q-82 0 -155 30.5t-127 85t-85 127t-31 154.5zM250 1567q0 23 19.5 46t49.5 23q18 0 34 -7t24 -25l184 -318q6 -16 6 -31q0 -27 -19.5 -48t-49.5 -21q-41 0 -58 33l-182 319q-8 13 -8 29z" />
<glyph unicode="&#xfa;" horiz-adv-x="1001" d="M104 397v607q0 29 19.5 49t48.5 20t49.5 -20.5t20.5 -48.5v-607q0 -53 20.5 -100t56 -83t83 -55.5t100.5 -19.5t99 19.5t81 53.5t55.5 79t24.5 96v617q0 29 19.5 49t48 20t48 -20.5t19.5 -48.5v-936q0 -29 -19.5 -48.5t-48 -19.5t-48 19.5t-19.5 48.5v30 q-51 -45 -117.5 -71.5t-142.5 -26.5q-82 0 -155 30.5t-127 85t-85 127t-31 154.5zM459 1257q0 16 8 29l182 320q18 33 58 32q31 0 50 -21.5t19 -47.5q0 -18 -6 -33l-184 -315q-8 -18 -24.5 -26.5t-33.5 -8.5q-31 0 -50 23t-19 48z" />
<glyph unicode="&#xfb;" horiz-adv-x="1001" d="M104 397v607q0 29 19.5 49t48.5 20t49.5 -20.5t20.5 -48.5v-607q0 -53 20.5 -100t56 -83t83 -55.5t100.5 -19.5t99 19.5t81 53.5t55.5 79t24.5 96v617q0 29 19.5 49t48 20t48 -20.5t19.5 -48.5v-936q0 -29 -19.5 -48.5t-48 -19.5t-48 19.5t-19.5 48.5v30 q-51 -45 -117.5 -71.5t-142.5 -26.5q-82 0 -155 30.5t-127 85t-85 127t-31 154.5zM131 1243q0 29 19 47l309 295q18 20 47 20.5t49 -20.5l309 -289q20 -20 20.5 -48.5t-19 -49t-48.5 -20.5t-49 20l-262 246l-258 -250q-20 -20 -49 -20t-48.5 20t-19.5 49z" />
<glyph unicode="&#xfc;" horiz-adv-x="1001" d="M104 397v607q0 29 19.5 49t48.5 20t49.5 -20.5t20.5 -48.5v-607q0 -53 20.5 -100t56 -83t83 -55.5t100.5 -19.5t99 19.5t81 53.5t55.5 79t24.5 96v617q0 29 19.5 49t48 20t48 -20.5t19.5 -48.5v-936q0 -29 -19.5 -48.5t-48 -19.5t-48 19.5t-19.5 48.5v30 q-51 -45 -117.5 -71.5t-142.5 -26.5q-82 0 -155 30.5t-127 85t-85 127t-31 154.5zM242 1313q0 39 26.5 65.5t63.5 26.5t63.5 -26.5t26.5 -65.5q0 -37 -26.5 -63.5t-63.5 -26.5t-63.5 26.5t-26.5 63.5zM590 1313q0 39 26.5 65.5t65.5 26.5q37 0 63.5 -26.5t26.5 -65.5 q0 -37 -26.5 -63.5t-63.5 -26.5q-39 0 -65.5 26.5t-26.5 63.5z" />
<glyph unicode="&#xfd;" horiz-adv-x="995" d="M74 1006q0 29 16 48t47 19q25 0 42.5 -11t23.5 -30l289 -784l299 784q6 18 23 29.5t38 11.5q31 0 49.5 -21.5t18.5 -45.5q0 -12 -7 -27l-503 -1335q-18 -43 -62 -43q-33 0 -51 20.5t-18 46.5q0 6 1 12.5t3 12.5l133 362l-157 430l-104 284l-58 156q-17 48 -17 50 q-6 15 -6 31zM453 1257q0 16 8 29l182 320q18 33 57 32q31 0 50.5 -21.5t19.5 -47.5q0 -18 -6 -33l-184 -315q-8 -18 -24.5 -26.5t-33.5 -8.5q-31 0 -50 23t-19 48z" />
<glyph unicode="&#xfe;" horiz-adv-x="1232" d="M82 -276v1622q0 29 19.5 48t48 19t49 -19.5t20.5 -47.5v-480q74 80 175.5 138.5t223.5 64.5q106 0 203 -43t169.5 -116.5t116.5 -171t44 -208.5q0 -109 -42 -205t-114.5 -168.5t-170 -114.5t-210.5 -42q-119 0 -220 45t-175 125v-446q0 -29 -20.5 -48.5t-49 -19.5 t-48 19.5t-19.5 48.5zM219 514q2 -80 35 -148.5t86 -119.5t124 -81t150 -30q82 0 155 31t127 85t86 126t32 153.5t-32 154.5t-86 127t-127 86t-155 32q-80 0 -150.5 -31t-123.5 -83t-86 -126t-35 -160v-16z" />
<glyph unicode="&#xff;" horiz-adv-x="995" d="M74 1006q0 29 16 48t47 19q25 0 42.5 -11t23.5 -30l289 -784l299 784q6 18 23 29.5t38 11.5q31 0 49.5 -21.5t18.5 -45.5q0 -12 -7 -27l-503 -1335q-18 -43 -62 -43q-33 0 -51 20.5t-18 46.5q0 6 1 12.5t3 12.5l133 362l-157 430l-104 284l-58 156q-17 48 -17 50 q-6 15 -6 31zM250 1315q0 39 26.5 65.5t63.5 26.5t63.5 -26.5t26.5 -65.5q0 -37 -26.5 -63.5t-63.5 -26.5t-63.5 26.5t-26.5 63.5zM598 1315q0 39 26.5 65.5t65.5 26.5q37 0 63.5 -26.5t26.5 -65.5q0 -37 -26.5 -63.5t-63.5 -26.5q-39 0 -65.5 26.5t-26.5 63.5z" />
<glyph unicode="&#x100;" horiz-adv-x="1390" d="M76 68q0 14 6 26l551 1268q6 18 23.5 34.5t40 16.5t40 -15.5t27.5 -35.5l545 -1268q6 -8 6 -26q0 -25 -18.5 -45.5t-49.5 -20.5q-47 0 -63 43l-178 404h-621l-176 -404q-10 -20 -27.5 -31.5t-38.5 -11.5q-31 0 -49 20.5t-18 45.5zM379 1573q0 29 19.5 49t50.5 20h497 q29 0 48.5 -20t19.5 -49t-19.5 -48.5t-48.5 -19.5h-497q-31 0 -50.5 19.5t-19.5 48.5zM444 586h502l-250 571z" />
<glyph unicode="&#x101;" horiz-adv-x="1251" d="M90 532q0 111 41 209.5t112.5 172t171 115.5t214.5 42q106 0 202.5 -43t169 -116.5t115.5 -171t43 -208.5v-466q0 -29 -20.5 -48.5t-49 -19.5t-48 19.5t-19.5 48.5v135q-74 -82 -176.5 -140.5t-220.5 -58.5q-111 0 -207 40t-170 110.5t-116 167.5t-42 212zM227 532.5 q0 -81.5 31 -153.5t85 -126t127 -85t155 -31q78 0 149.5 30t124.5 83t86 124.5t37 157.5q0 82 -30.5 156t-85 127t-127 85t-154.5 32t-155 -32t-127 -85t-85 -127t-31 -155.5zM307 1247.5q0 28.5 19.5 49t50.5 20.5h497q29 0 48.5 -20.5t19.5 -49t-19.5 -48t-48.5 -19.5 h-497q-31 0 -50.5 19.5t-19.5 48z" />
<glyph unicode="&#x102;" horiz-adv-x="1390" d="M76 68q0 14 6 26l551 1268q6 18 23.5 34.5t40 16.5t40 -15.5t27.5 -35.5l545 -1268q6 -8 6 -26q0 -25 -18.5 -45.5t-49.5 -20.5q-47 0 -63 43l-178 404h-621l-176 -404q-10 -20 -27.5 -31.5t-38.5 -11.5q-31 0 -49 20.5t-18 45.5zM319 1831q0 29 20.5 49.5t49.5 20.5 t48.5 -20.5t19.5 -49.5q0 -41 26.5 -77t64.5 -62.5t79 -41t71.5 -14.5t71.5 14.5t79 41t64.5 62.5t26.5 77q0 29 19.5 49.5t48 20.5t49 -20.5t20.5 -49.5q0 -59 -30.5 -118.5t-84 -108t-122 -77t-142 -28.5t-141.5 28.5t-121 77t-85 108t-32 118.5zM444 586h502l-250 571z " />
<glyph unicode="&#x103;" horiz-adv-x="1251" d="M90 532q0 111 41 209.5t112.5 172t171 115.5t214.5 42q106 0 202.5 -43t169 -116.5t115.5 -171t43 -208.5v-466q0 -29 -20.5 -48.5t-49 -19.5t-48 19.5t-19.5 48.5v135q-74 -82 -176.5 -140.5t-220.5 -58.5q-111 0 -207 40t-170 110.5t-116 167.5t-42 212zM227 532.5 q0 -81.5 31 -153.5t85 -126t127 -85t155 -31q78 0 149.5 30t124.5 83t86 124.5t37 157.5q0 82 -30.5 156t-85 127t-127 85t-154.5 32t-155 -32t-127 -85t-85 -127t-31 -155.5zM248 1503q0 29 20.5 49.5t49 20.5t48 -20.5t19.5 -49.5q0 -41 26.5 -76.5t64.5 -62.5t79 -41 t71.5 -14t71.5 14t79 41t64.5 62.5t26.5 76.5q0 29 19.5 49.5t48.5 20.5t49.5 -20.5t20.5 -49.5q0 -59 -31 -118.5t-84 -107.5t-122 -77t-142.5 -29t-141 29t-121 77t-85 107.5t-31.5 118.5z" />
<glyph unicode="&#x104;" horiz-adv-x="1390" d="M76 68q0 14 6 26l551 1268q6 18 23.5 34.5t40 16.5t40 -15.5t27.5 -35.5l545 -1268q6 -8 6 -26q0 -25 -18.5 -45.5t-49.5 -20.5q-47 0 -63 43l-178 404h-621l-176 -404q-10 -20 -27.5 -31.5t-38.5 -11.5q-31 0 -49 20.5t-18 45.5zM444 586h502l-250 571zM1081 -176 q0 31 16.5 63.5t37 64.5t38 63.5t17.5 66.5h123q0 -41 -16.5 -78t-36.5 -67l-38 -59q-17 -28 -18 -54q0 -29 20.5 -48.5t49.5 -19.5q33 0 45 19.5t20.5 45t19.5 45t44 19.5q25 0 44 -18.5t19 -42.5q0 -80 -57 -136.5t-135 -56.5q-80 0 -136.5 56.5t-56.5 136.5z" />
<glyph unicode="&#x105;" horiz-adv-x="1251" d="M90 532q0 111 41 209.5t112.5 172t171 115.5t214.5 42q106 0 202.5 -43t169 -116.5t115.5 -171t43 -208.5v-466q0 -29 -20.5 -48.5t-49 -19.5t-48 19.5t-19.5 48.5v135q-74 -82 -176.5 -140.5t-220.5 -58.5q-111 0 -207 40t-170 110.5t-116 167.5t-42 212zM227 532.5 q0 -81.5 31 -153.5t85 -126t127 -85t155 -31q78 0 149.5 30t124.5 83t86 124.5t37 157.5q0 82 -30.5 156t-85 127t-127 85t-154.5 32t-155 -32t-127 -85t-85 -127t-31 -155.5zM915 -199q0 31 16.5 64t37 64.5t38 63.5t17.5 66h123q0 -41 -16.5 -77.5t-36.5 -67.5l-38 -58 q-17 -28 -18 -55q0 -29 20.5 -48t49.5 -19q33 0 45 19.5t20.5 45t19.5 45t44 19.5q25 0 44 -18.5t19 -43.5q0 -80 -57 -136t-135 -56q-80 0 -136.5 56t-56.5 136z" />
<glyph unicode="&#x106;" horiz-adv-x="1415" d="M86 702q0 147 55.5 275.5t150.5 224.5t223 151.5t275.5 55.5t276.5 -57.5t227 -157.5q10 -10 19.5 -27.5t9.5 -36.5q0 -29 -20.5 -44t-47.5 -15q-33 0 -51 23q-80 68 -186.5 123t-226.5 55q-119 0 -222.5 -44t-180.5 -122t-121 -181.5t-44 -222.5q0 -117 44 -220 t121 -180t180.5 -121t222.5 -44q123 0 230 47t185 131q10 14 26.5 20.5t35.5 6.5q29 0 43 -19.5t14 -43.5q0 -35 -20 -56q-96 -106 -229.5 -164.5t-284.5 -58.5q-147 0 -275.5 55.5t-223.5 150.5t-150.5 223t-55.5 273zM739 1573q0 16 9 29l182 319q18 33 57 33 q31 0 50.5 -21.5t19.5 -48.5q0 -18 -6 -33l-185 -315q-8 -18 -24.5 -26.5t-32.5 -8.5q-31 0 -50.5 23.5t-19.5 48.5z" />
<glyph unicode="&#x107;" horiz-adv-x="1110" d="M90 530q0 111 41 207.5t112.5 168t171 114.5t214.5 49q88 0 158.5 -26.5t122 -61.5t79 -68.5t27.5 -52.5q0 -25 -20.5 -42t-45.5 -17q-29 0 -47 20q-55 47 -125.5 78t-152.5 31t-155 -32t-127 -86t-85 -127t-31 -154.5t31 -153.5t85 -126t127 -85t155 -31t152.5 30 t125.5 83q18 20 47 20q27 0 48.5 -19.5t21.5 -47.5q0 -16 -25.5 -51t-77 -68t-125 -57.5t-167.5 -24.5q-111 0 -207 40t-170 110.5t-116 167.5t-42 212zM555 1245q0 16 8 29l182 319q18 33 58 33q31 0 50 -21.5t19 -48.5q0 -18 -6 -32l-184 -316q-8 -18 -24.5 -26t-32.5 -8 q-31 0 -50.5 23t-19.5 48z" />
<glyph unicode="&#x108;" horiz-adv-x="1415" d="M86 702q0 147 55.5 275.5t150.5 224.5t223 151.5t275.5 55.5t276.5 -57.5t227 -157.5q10 -10 19.5 -27.5t9.5 -36.5q0 -29 -20.5 -44t-47.5 -15q-33 0 -51 23q-80 68 -186.5 123t-226.5 55q-119 0 -222.5 -44t-180.5 -122t-121 -181.5t-44 -222.5q0 -117 44 -220 t121 -180t180.5 -121t222.5 -44q123 0 230 47t185 131q10 14 26.5 20.5t35.5 6.5q29 0 43 -19.5t14 -43.5q0 -35 -20 -56q-96 -106 -229.5 -164.5t-284.5 -58.5q-147 0 -275.5 55.5t-223.5 150.5t-150.5 223t-55.5 273zM391 1552.5q0 28.5 19 46.5l309 295q18 20 47 20.5 t49 -20.5l309 -288q20 -20 20.5 -49t-19 -49.5t-48 -20.5t-49.5 20l-262 246l-258 -250q-20 -20 -49 -20t-48.5 20.5t-19.5 49z" />
<glyph unicode="&#x109;" horiz-adv-x="1110" d="M90 530q0 111 41 207.5t112.5 168t171 114.5t214.5 49q88 0 158.5 -26.5t122 -61.5t79 -68.5t27.5 -52.5q0 -25 -20.5 -42t-45.5 -17q-29 0 -47 20q-55 47 -125.5 78t-152.5 31t-155 -32t-127 -86t-85 -127t-31 -154.5t31 -153.5t85 -126t127 -85t155 -31t152.5 30 t125.5 83q18 20 47 20q27 0 48.5 -19.5t21.5 -47.5q0 -16 -25.5 -51t-77 -68t-125 -57.5t-167.5 -24.5q-111 0 -207 40t-170 110.5t-116 167.5t-42 212zM178 1228.5q0 28.5 19 47.5l309 295q18 20 47 20t49 -20l309 -289q20 -20 20.5 -49t-19 -49.5t-48 -20.5t-49.5 21 l-262 246l-258 -250q-20 -20 -49 -20.5t-48.5 20t-19.5 49z" />
<glyph unicode="&#x10a;" horiz-adv-x="1415" d="M86 702q0 147 55.5 275.5t150.5 224.5t223 151.5t275.5 55.5t276.5 -57.5t227 -157.5q10 -10 19.5 -27.5t9.5 -36.5q0 -29 -20.5 -44t-47.5 -15q-33 0 -51 23q-80 68 -186.5 123t-226.5 55q-119 0 -222.5 -44t-180.5 -122t-121 -181.5t-44 -222.5q0 -117 44 -220 t121 -180t180.5 -121t222.5 -44q123 0 230 47t185 131q10 14 26.5 20.5t35.5 6.5q29 0 43 -19.5t14 -43.5q0 -35 -20 -56q-96 -106 -229.5 -164.5t-284.5 -58.5q-147 0 -275.5 55.5t-223.5 150.5t-150.5 223t-55.5 273zM670 1599q0 37 24.5 63t61.5 26q39 0 63.5 -26 t24.5 -63q0 -39 -24.5 -62.5t-63.5 -23.5q-37 0 -61.5 23.5t-24.5 62.5z" />
<glyph unicode="&#x10b;" horiz-adv-x="1110" d="M90 530q0 111 41 207.5t112.5 168t171 114.5t214.5 49q88 0 158.5 -26.5t122 -61.5t79 -68.5t27.5 -52.5q0 -25 -20.5 -42t-45.5 -17q-29 0 -47 20q-55 47 -125.5 78t-152.5 31t-155 -32t-127 -86t-85 -127t-31 -154.5t31 -153.5t85 -126t127 -85t155 -31t152.5 30 t125.5 83q18 20 47 20q27 0 48.5 -19.5t21.5 -47.5q0 -16 -25.5 -51t-77 -68t-125 -57.5t-167.5 -24.5q-111 0 -207 40t-170 110.5t-116 167.5t-42 212zM471 1262q0 37 24.5 62.5t61.5 25.5q39 0 63.5 -26t24.5 -62q0 -39 -24.5 -62.5t-63.5 -23.5q-37 0 -61.5 23.5 t-24.5 62.5z" />
<glyph unicode="&#x10c;" horiz-adv-x="1415" d="M86 702q0 147 55.5 275.5t150.5 224.5t223 151.5t275.5 55.5t276.5 -57.5t227 -157.5q10 -10 19.5 -27.5t9.5 -36.5q0 -29 -20.5 -44t-47.5 -15q-33 0 -51 23q-80 68 -186.5 123t-226.5 55q-119 0 -222.5 -44t-180.5 -122t-121 -181.5t-44 -222.5q0 -117 44 -220 t121 -180t180.5 -121t222.5 -44q123 0 230 47t185 131q10 14 26.5 20.5t35.5 6.5q29 0 43 -19.5t14 -43.5q0 -35 -20 -56q-96 -106 -229.5 -164.5t-284.5 -58.5q-147 0 -275.5 55.5t-223.5 150.5t-150.5 223t-55.5 273zM401 1861.5q0 28.5 19.5 49t48.5 20.5t49 -20 l258 -250l262 246q20 20 49 20t48.5 -20.5t19.5 -49t-20 -49.5l-308 -286q-23 -23 -51 -23t-47 21l-309 295q-19 18 -19 46.5z" />
<glyph unicode="&#x10d;" horiz-adv-x="1110" d="M90 530q0 111 41 207.5t112.5 168t171 114.5t214.5 49q88 0 158.5 -26.5t122 -61.5t79 -68.5t27.5 -52.5q0 -25 -20.5 -42t-45.5 -17q-29 0 -47 20q-55 47 -125.5 78t-152.5 31t-155 -32t-127 -86t-85 -127t-31 -154.5t31 -153.5t85 -126t127 -85t155 -31t152.5 30 t125.5 83q18 20 47 20q27 0 48.5 -19.5t21.5 -47.5q0 -16 -25.5 -51t-77 -68t-125 -57.5t-167.5 -24.5q-111 0 -207 40t-170 110.5t-116 167.5t-42 212zM227 1538q0 29 19.5 49.5t48.5 20.5t49 -21l258 -250l262 246q20 20 49 20.5t48.5 -20t19.5 -49.5t-20 -49l-308 -287 q-23 -23 -51.5 -22.5t-46.5 20.5l-309 295q-19 18 -19 47z" />
<glyph unicode="&#x10e;" horiz-adv-x="1341" d="M92 68v1278q0 29 20.5 48t49.5 19h381q145 0 273 -55t224.5 -151.5t151.5 -224.5t55 -273q0 -147 -55 -276.5t-151.5 -225.5t-224.5 -151.5t-273 -55.5h-381q-29 0 -49.5 19.5t-20.5 48.5zM205 1865.5q0 28.5 19.5 49t48 20.5t49.5 -20l258 -250l262 246q20 20 49 20 t48 -20.5t19 -49t-20 -49.5l-307 -286q-23 -23 -51.5 -23t-47.5 21l-309 295q-18 18 -18 46.5zM229 137h314q117 0 220 45t181 123t122 181.5t44 222.5q0 117 -44 220t-122 181t-181.5 122t-219.5 44h-314v-1139z" />
<glyph unicode="&#x10f;" horiz-adv-x="1648" d="M82 532q0 111 43 208.5t115.5 171t169 116.5t202.5 43q125 -4 226.5 -63.5t175.5 -139.5v478q0 29 19.5 48t48 19t49 -19.5t20.5 -47.5v-1278q0 -29 -20.5 -48.5t-49 -19.5t-48 19.5t-19.5 48.5v104l-21 -18q-74 -72 -171 -112t-206 -40q-113 0 -210 42t-168.5 114.5 t-113.5 168.5t-42 205zM219 532.5q0 -81.5 31 -153.5t85 -126t127 -85t154.5 -31t153.5 31t126 85t86 126t32 153q-6 86 -38 160t-85 127t-124 83t-151 30q-82 0 -154.5 -32t-126.5 -85t-85 -127t-31 -155.5zM1233 1022q0 18 10 33l178 317q16 35 58 35q31 0 51 -21.5 t20 -52.5q0 -14 -6 -28l-182 -316q-23 -37 -62 -37q-31 0 -49 22.5t-18 47.5z" />
<glyph unicode="&#x110;" horiz-adv-x="1646" d="M51 753.5q0 28.5 19.5 49t48.5 20.5h682q29 0 48 -20.5t19 -49t-19.5 -48t-47.5 -19.5h-682q-29 0 -48.5 19.5t-19.5 48zM397 68v1278q0 29 20.5 48t49.5 19h381q145 0 273 -55t224.5 -151.5t151.5 -224.5t55 -273q0 -147 -55 -276.5t-151.5 -225.5t-224.5 -151.5 t-273 -55.5h-381q-29 0 -49.5 19.5t-20.5 48.5zM535 137h313q117 0 220 45t181 123t122 181.5t44 222.5q0 117 -44 220t-122 181t-181 122t-220 44h-313v-1139z" />
<glyph unicode="&#x111;" horiz-adv-x="1533" d="M82 532q0 111 43 208.5t115.5 171t169 116.5t202.5 43q125 -4 226.5 -63.5t175.5 -139.5v478q0 29 19.5 48t48 19t49 -19.5t20.5 -47.5v-1278q0 -29 -20.5 -48.5t-49 -19.5t-48 19.5t-19.5 48.5v104l-21 -18q-74 -72 -171 -112t-206 -40q-113 0 -210 42t-168.5 114.5 t-113.5 168.5t-42 205zM219 532.5q0 -81.5 31 -153.5t85 -126t127 -85t154.5 -31t153.5 31t126 85t86 126t32 153q-6 86 -38 160t-85 127t-124 83t-151 30q-82 0 -154.5 -32t-126.5 -85t-85 -127t-31 -155.5zM672 1218.5q0 28.5 20.5 49t48.5 20.5h680q29 0 49.5 -20.5 t20.5 -49t-20.5 -48t-49.5 -19.5h-680q-29 0 -49 19.5t-20 48z" />
<glyph unicode="&#x112;" horiz-adv-x="974" d="M82 68v1278q0 29 19.5 48t48.5 19h673q29 0 48.5 -19.5t19.5 -48t-19.5 -49t-48.5 -20.5h-604v-494h402q31 0 50 -19.5t19 -48t-19.5 -49t-49.5 -20.5h-402v-508h604q29 0 48.5 -19.5t19.5 -49.5q0 -29 -19.5 -48.5t-48.5 -19.5h-673q-29 0 -48.5 19.5t-19.5 48.5z M160 1575q0 29 19.5 49.5t49.5 20.5h498q29 0 48.5 -20.5t19.5 -49.5t-19.5 -48.5t-48.5 -19.5h-498q-31 0 -50 19.5t-19 48.5z" />
<glyph unicode="&#x113;" d="M86 532q0 111 41 207.5t112.5 168t170 115.5t215.5 48q102 0 198.5 -42t170 -115.5t117.5 -170t44 -206.5q0 -33 -22.5 -50.5t-47.5 -17.5h-858q12 -72 47 -132.5t87.5 -104.5t119 -69.5t137.5 -25.5q82 0 153 30t126 83q20 20 49 20t49.5 -20.5t20.5 -49t-21 -46.5 q-74 -82 -165 -117t-212 -35q-111 0 -207 40t-168.5 110.5t-114.5 167.5t-42 212zM229 606h783q-14 68 -49 128.5t-87.5 103.5t-118 68.5t-139.5 25.5q-72 0 -137 -25.5t-117.5 -68.5t-86.5 -103.5t-48 -128.5zM305 1245.5q0 28.5 19.5 49t50.5 20.5h497q29 0 48.5 -20.5 t19.5 -49t-19.5 -48t-48.5 -19.5h-497q-31 0 -50.5 19.5t-19.5 48z" />
<glyph unicode="&#x114;" horiz-adv-x="974" d="M82 68v1278q0 29 19.5 48t48.5 19h673q29 0 48.5 -19.5t19.5 -48t-19.5 -49t-48.5 -20.5h-604v-494h402q31 0 50 -19.5t19 -48t-19.5 -49t-49.5 -20.5h-402v-508h604q29 0 48.5 -19.5t19.5 -49.5q0 -29 -19.5 -48.5t-48.5 -19.5h-673q-29 0 -48.5 19.5t-19.5 48.5z M86 1837q0 29 20.5 49.5t49 20.5t48 -20.5t19.5 -49.5q0 -41 26.5 -77t64.5 -62.5t79 -41t72 -14.5t72 14.5t78.5 41t64.5 62.5t27 77q0 29 19 49.5t48 20.5t49.5 -20.5t20.5 -49.5q0 -59 -31 -118.5t-84 -107.5t-121.5 -77t-142.5 -29t-141.5 29t-120.5 77t-85 107.5 t-32 118.5z" />
<glyph unicode="&#x115;" d="M86 532q0 111 41 207.5t112.5 168t170 115.5t215.5 48q102 0 198.5 -42t170 -115.5t117.5 -170t44 -206.5q0 -33 -22.5 -50.5t-47.5 -17.5h-858q12 -72 47 -132.5t87.5 -104.5t119 -69.5t137.5 -25.5q82 0 153 30t126 83q20 20 49 20t49.5 -20.5t20.5 -49t-21 -46.5 q-74 -82 -165 -117t-212 -35q-111 0 -207 40t-168.5 110.5t-114.5 167.5t-42 212zM229 606h783q-14 68 -49 128.5t-87.5 103.5t-118 68.5t-139.5 25.5q-72 0 -137 -25.5t-117.5 -68.5t-86.5 -103.5t-48 -128.5zM242 1505q0 29 20.5 49.5t49 20.5t48 -20.5t19.5 -49.5 q0 -41 26.5 -76.5t64.5 -62.5t79 -41t71.5 -14t71.5 14t79 41t64.5 62.5t26.5 76.5q0 29 19.5 49.5t48 20.5t49 -20.5t20.5 -49.5q0 -59 -30.5 -118.5t-84 -107.5t-122 -76.5t-142 -28.5t-141 28.5t-121 76.5t-85 107.5t-31.5 118.5z" />
<glyph unicode="&#x116;" horiz-adv-x="974" d="M82 68v1278q0 29 19.5 48t48.5 19h673q29 0 48.5 -19.5t19.5 -48t-19.5 -49t-48.5 -20.5h-604v-494h402q31 0 50 -19.5t19 -48t-19.5 -49t-49.5 -20.5h-402v-508h604q29 0 48.5 -19.5t19.5 -49.5q0 -29 -19.5 -48.5t-48.5 -19.5h-673q-29 0 -48.5 19.5t-19.5 48.5z M401 1599q0 37 25 63t61 26q39 0 63.5 -26t24.5 -63q0 -39 -24.5 -62.5t-63.5 -23.5q-37 0 -61.5 23.5t-24.5 62.5z" />
<glyph unicode="&#x117;" d="M86 532q0 111 41 207.5t112.5 168t170 115.5t215.5 48q102 0 198.5 -42t170 -115.5t117.5 -170t44 -206.5q0 -33 -22.5 -50.5t-47.5 -17.5h-858q12 -72 47 -132.5t87.5 -104.5t119 -69.5t137.5 -25.5q82 0 153 30t126 83q20 20 49 20t49.5 -20.5t20.5 -49t-21 -46.5 q-74 -82 -165 -117t-212 -35q-111 0 -207 40t-168.5 110.5t-114.5 167.5t-42 212zM229 606h783q-14 68 -49 128.5t-87.5 103.5t-118 68.5t-139.5 25.5q-72 0 -137 -25.5t-117.5 -68.5t-86.5 -103.5t-48 -128.5zM535 1313q0 37 24.5 62.5t61.5 25.5q39 0 63.5 -25.5 t24.5 -62.5q0 -39 -25 -62.5t-63 -23.5q-37 0 -61.5 23.5t-24.5 62.5z" />
<glyph unicode="&#x118;" horiz-adv-x="974" d="M82 68v1278q0 29 19.5 48t48.5 19h673q29 0 48.5 -19.5t19.5 -48t-19.5 -49t-48.5 -20.5h-604v-494h402q31 0 50 -19.5t19 -48t-19.5 -49t-49.5 -20.5h-402v-508h604q29 0 48.5 -19.5t19.5 -49.5q0 -29 -19.5 -48.5t-48.5 -19.5h-673q-29 0 -48.5 19.5t-19.5 48.5z M330 -215q0 31 16 63.5t36.5 64.5t38 63.5t17.5 66.5h123q0 -41 -16.5 -78t-36.5 -67l-38 -59q-17 -28 -17 -54q0 -29 20.5 -48.5t48.5 -19.5q33 0 45.5 19.5t20.5 45t19 45t44 19.5q25 0 44.5 -18t19.5 -43q0 -80 -57.5 -136.5t-135.5 -56.5q-80 0 -136 56.5t-56 136.5z " />
<glyph unicode="&#x119;" d="M86 532q0 111 41 207.5t112.5 168t170 115.5t215.5 48q102 0 198.5 -42t170 -115.5t117.5 -170t44 -206.5q0 -33 -22.5 -50.5t-47.5 -17.5h-858q12 -72 47 -132.5t87.5 -104.5t119 -69.5t137.5 -25.5q82 0 153 30t126 83q20 20 49 20t49.5 -20.5t20.5 -49t-21 -46.5 q-74 -82 -165 -117t-212 -35q-111 0 -207 40t-168.5 110.5t-114.5 167.5t-42 212zM229 606h783q-14 68 -49 128.5t-87.5 103.5t-118 68.5t-139.5 25.5q-72 0 -137 -25.5t-117.5 -68.5t-86.5 -103.5t-48 -128.5zM455 -215q0 31 16 63.5t36.5 64.5t38 63.5t17.5 66.5h123 q0 -41 -16.5 -78t-36.5 -67l-38 -59q-17 -28 -17 -54q0 -29 20 -48.5t49 -19.5q33 0 45.5 19.5t20.5 45t19 45t44 19.5q25 0 44.5 -18t19.5 -43q0 -80 -57.5 -136.5t-135.5 -56.5q-80 0 -136 56.5t-56 136.5z" />
<glyph unicode="&#x11a;" horiz-adv-x="974" d="M82 68v1278q0 29 19.5 48t48.5 19h673q29 0 48.5 -19.5t19.5 -48t-19.5 -49t-48.5 -20.5h-604v-494h402q31 0 50 -19.5t19 -48t-19.5 -49t-49.5 -20.5h-402v-508h604q29 0 48.5 -19.5t19.5 -49.5q0 -29 -19.5 -48.5t-48.5 -19.5h-673q-29 0 -48.5 19.5t-19.5 48.5z M111 1857.5q0 28.5 19.5 49t48 20.5t48.5 -20l258 -250l263 246q20 20 48.5 20t48 -20.5t19.5 -49t-20 -49.5l-307 -286q-23 -23 -51.5 -23t-47.5 21l-309 294q-18 19 -18 47.5z" />
<glyph unicode="&#x11b;" d="M86 532q0 111 41 207.5t112.5 168t170 115.5t215.5 48q102 0 198.5 -42t170 -115.5t117.5 -170t44 -206.5q0 -33 -22.5 -50.5t-47.5 -17.5h-858q12 -72 47 -132.5t87.5 -104.5t119 -69.5t137.5 -25.5q82 0 153 30t126 83q20 20 49 20t49.5 -20.5t20.5 -49t-21 -46.5 q-74 -82 -165 -117t-212 -35q-111 0 -207 40t-168.5 110.5t-114.5 167.5t-42 212zM229 606h783q-14 68 -49 128.5t-87.5 103.5t-118 68.5t-139.5 25.5q-72 0 -137 -25.5t-117.5 -68.5t-86.5 -103.5t-48 -128.5zM246 1507.5q0 28.5 19.5 49t48 20.5t48.5 -21l259 -249 l262 245q20 20 49 20.5t48 -20t19 -49t-20 -49.5l-307 -287q-23 -23 -51.5 -22.5t-47.5 20.5l-309 295q-18 19 -18 47.5z" />
<glyph unicode="&#x11c;" horiz-adv-x="1521" d="M84 702q0 147 55.5 275.5t150.5 224.5t223 151.5t273 55.5q178 0 328 -80t244 -213q16 -23 16 -45t-18.5 -43.5t-48.5 -21.5q-14 0 -30.5 7t-31.5 25q-106 123 -223 178.5t-236 55.5q-117 0 -220 -44t-180 -122t-121 -181.5t-44 -222.5q0 -117 44 -220t121 -180 t180.5 -121t219.5 -44q94 0 177.5 28t153 76t121.5 116.5t83 150.5h-307q-29 0 -49.5 20.5t-20.5 49t20.5 48t49.5 19.5h399q31 0 49.5 -20.5t18.5 -49.5q0 -4 -2 -9t-2 -9q-23 -119 -86.5 -222.5t-155.5 -177t-207 -115.5t-242 -42q-145 0 -273 55.5t-223 150.5t-150.5 223 t-55.5 273zM406 1548.5q0 28.5 18 46.5l309 295q18 20 47 20.5t49 -20.5l310 -288q20 -20 20 -49t-19.5 -49.5t-48 -20.5t-49.5 20l-262 246l-258 -250q-20 -20 -49 -20t-48 20.5t-19 49z" />
<glyph unicode="&#x11d;" horiz-adv-x="1251" d="M90 530q0 111 41 207.5t112.5 168t171 114.5t214.5 49q115 -2 216 -51t177 -133v98q0 29 19.5 48.5t48 19.5t49 -19.5t20.5 -48.5v-854q0 -109 -42 -205t-113.5 -169.5t-169 -115.5t-209.5 -42q-115 0 -209 39.5t-168 111.5l-2 2q-20 20 -21 47q0 29 21.5 49.5t50.5 20.5 t45 -17q55 -55 127 -86.5t156 -31.5q82 0 154.5 31.5t127 85t85 126t30.5 154.5v47q-74 -82 -176.5 -129t-220.5 -47q-111 0 -207 40t-170 110.5t-116 167.5t-42 212zM227 530.5q0 -81.5 31 -153.5t85 -126t127 -85t155 -31q78 0 149.5 30t124.5 81t86 119.5t37 148.5v33 q-4 80 -37 149.5t-86 120.5t-125 82t-149 31q-82 0 -155 -32t-127 -86t-85 -127t-31 -154.5zM248 1237q0 29 18 47l309 295q18 20 47 20t50 -20l309 -289q20 -20 20 -49t-19 -49.5t-48 -20.5t-49 21l-262 246l-258 -250q-20 -20 -49 -20.5t-48.5 20t-19.5 49.5z" />
<glyph unicode="&#x11e;" horiz-adv-x="1542" d="M84 702q0 147 55.5 275.5t150.5 224.5t223 151.5t273 55.5q178 0 328 -80t244 -213q16 -23 16 -45t-18.5 -43.5t-48.5 -21.5q-14 0 -30.5 7t-31.5 25q-106 123 -223 178.5t-236 55.5q-117 0 -220 -44t-180 -122t-121 -181.5t-44 -222.5q0 -117 44 -220t121 -180 t180.5 -121t219.5 -44q94 0 177.5 28t153 76t121.5 116.5t83 150.5h-307q-29 0 -49.5 20.5t-20.5 49t20.5 48t49.5 19.5h399q31 0 49.5 -20.5t18.5 -49.5q0 -4 -2 -9t-2 -9q-23 -119 -86.5 -222.5t-155.5 -177t-207 -115.5t-242 -42q-145 0 -273 55.5t-223 150.5t-150.5 223 t-55.5 273zM403 1833q0 29 20.5 49.5t49.5 20.5t48.5 -20.5t19.5 -49.5q0 -41 26.5 -77t64.5 -62.5t79 -41t71.5 -14.5t71.5 14.5t79 41t64.5 62.5t26.5 77q0 29 19.5 49.5t48 20.5t49 -20.5t20.5 -49.5q0 -59 -30.5 -118.5t-84 -107.5t-122 -77t-142 -29t-141.5 29t-121 77 t-85 107.5t-32 118.5z" />
<glyph unicode="&#x11f;" horiz-adv-x="1251" d="M90 530q0 111 41 207.5t112.5 168t171 114.5t214.5 49q115 -2 216 -51t177 -133v98q0 29 19.5 48.5t48 19.5t49 -19.5t20.5 -48.5v-854q0 -109 -42 -205t-113.5 -169.5t-169 -115.5t-209.5 -42q-115 0 -209 39.5t-168 111.5l-2 2q-20 20 -21 47q0 29 21.5 49.5t50.5 20.5 t45 -17q55 -55 127 -86.5t156 -31.5q82 0 154.5 31.5t127 85t85 126t30.5 154.5v47q-74 -82 -176.5 -129t-220.5 -47q-111 0 -207 40t-170 110.5t-116 167.5t-42 212zM227 530.5q0 -81.5 31 -153.5t85 -126t127 -85t155 -31q78 0 149.5 30t124.5 81t86 119.5t37 148.5v33 q-4 80 -37 149.5t-86 120.5t-125 82t-149 31q-82 0 -155 -32t-127 -86t-85 -127t-31 -154.5zM248 1499q0 29 20.5 49.5t49 20.5t48 -20.5t19.5 -49.5q0 -41 26.5 -77t64.5 -62.5t79 -40.5t71.5 -14t71.5 14t79 40.5t64.5 62.5t26.5 77q0 29 19.5 49.5t48.5 20.5t49.5 -20.5 t20.5 -49.5q0 -59 -31 -118.5t-84 -107.5t-122 -77t-142.5 -29t-141 29t-121 77t-85 107.5t-31.5 118.5z" />
<glyph unicode="&#x120;" horiz-adv-x="1527" d="M84 702q0 147 55.5 275.5t150.5 224.5t223 151.5t273 55.5q178 0 328 -80t244 -213q16 -23 16 -45t-18.5 -43.5t-48.5 -21.5q-14 0 -30.5 7t-31.5 25q-106 123 -223 178.5t-236 55.5q-117 0 -220 -44t-180 -122t-121 -181.5t-44 -222.5q0 -117 44 -220t121 -180 t180.5 -121t219.5 -44q94 0 177.5 28t153 76t121.5 116.5t83 150.5h-307q-29 0 -49.5 20.5t-20.5 49t20.5 48t49.5 19.5h399q31 0 49.5 -20.5t18.5 -49.5q0 -4 -2 -9t-2 -9q-23 -119 -86.5 -222.5t-155.5 -177t-207 -115.5t-242 -42q-145 0 -273 55.5t-223 150.5t-150.5 223 t-55.5 273zM672 1599q0 37 24.5 63t61.5 26q39 0 63.5 -26t24.5 -63q0 -39 -24.5 -62.5t-63.5 -23.5q-37 0 -61.5 23.5t-24.5 62.5z" />
<glyph unicode="&#x121;" horiz-adv-x="1251" d="M90 530q0 111 41 207.5t112.5 168t171 114.5t214.5 49q115 -2 216 -51t177 -133v98q0 29 19.5 48.5t48 19.5t49 -19.5t20.5 -48.5v-854q0 -109 -42 -205t-113.5 -169.5t-169 -115.5t-209.5 -42q-115 0 -209 39.5t-168 111.5l-2 2q-20 20 -21 47q0 29 21.5 49.5t50.5 20.5 t45 -17q55 -55 127 -86.5t156 -31.5q82 0 154.5 31.5t127 85t85 126t30.5 154.5v47q-74 -82 -176.5 -129t-220.5 -47q-111 0 -207 40t-170 110.5t-116 167.5t-42 212zM227 530.5q0 -81.5 31 -153.5t85 -126t127 -85t155 -31q78 0 149.5 30t124.5 81t86 119.5t37 148.5v33 q-4 80 -37 149.5t-86 120.5t-125 82t-149 31q-82 0 -155 -32t-127 -86t-85 -127t-31 -154.5zM530 1309q0 37 25 62.5t61 25.5q39 0 64 -25.5t25 -62.5q0 -39 -25 -62.5t-64 -23.5q-37 0 -61.5 23.5t-24.5 62.5z" />
<glyph unicode="&#x122;" horiz-adv-x="1515" d="M84 702q0 147 55.5 275.5t150.5 224.5t223 151.5t273 55.5q178 0 328 -80t244 -213q16 -23 16 -45t-18.5 -43.5t-48.5 -21.5q-14 0 -30.5 7t-31.5 25q-106 123 -223 178.5t-236 55.5q-117 0 -220 -44t-180 -122t-121 -181.5t-44 -222.5q0 -117 44 -220t121 -180 t180.5 -121t219.5 -44q94 0 177.5 28t153 76t121.5 116.5t83 150.5h-307q-29 0 -49.5 20.5t-20.5 49t20.5 48t49.5 19.5h399q31 0 49.5 -20.5t18.5 -49.5q0 -4 -2 -9t-2 -9q-23 -119 -86.5 -222.5t-155.5 -177t-207 -115.5t-242 -42q-145 0 -273 55.5t-223 150.5t-150.5 223 t-55.5 273zM715 -199q0 29 19.5 48.5t48 19.5t49 -19.5t20.5 -48.5v-342q0 -23 -20.5 -45t-49 -22t-48 19.5t-19.5 47.5v342z" />
<glyph unicode="&#x123;" horiz-adv-x="1251" d="M90 530q0 111 41 207.5t112.5 168t171 114.5t214.5 49q115 -2 216 -51t177 -133v98q0 29 19.5 48.5t48 19.5t49 -19.5t20.5 -48.5v-854q0 -109 -42 -205t-113.5 -169.5t-169 -115.5t-209.5 -42q-115 0 -209 39.5t-168 111.5l-2 2q-20 20 -21 47q0 29 21.5 49.5t50.5 20.5 t45 -17q55 -55 127 -86.5t156 -31.5q82 0 154.5 31.5t127 85t85 126t30.5 154.5v47q-74 -82 -176.5 -129t-220.5 -47q-111 0 -207 40t-170 110.5t-116 167.5t-42 212zM227 530.5q0 -81.5 31 -153.5t85 -126t127 -85t155 -31q78 0 149.5 30t124.5 81t86 119.5t37 148.5v33 q-4 80 -37 149.5t-86 120.5t-125 82t-149 31q-82 0 -155 -32t-127 -86t-85 -127t-31 -154.5zM399 1552q0 23 18.5 45.5t49.5 22.5q41 0 61 -33l183 -317q6 -12 6 -31q0 -29 -20.5 -51.5t-51.5 -22.5q-39 0 -57 39l-178 316q-11 16 -11 32z" />
<glyph unicode="&#x124;" horiz-adv-x="1191" d="M106 68v1278q0 29 19.5 48t48.5 19t49.5 -19.5t20.5 -47.5v-623h704v623q0 29 20.5 48t49.5 19t48 -19.5t19 -47.5v-1278q0 -29 -19 -48.5t-48 -19.5t-49.5 19.5t-20.5 48.5v518h-704v-518q0 -29 -20.5 -48.5t-49.5 -19.5t-48.5 19.5t-19.5 48.5zM217 1570.5 q0 28.5 19 47.5l309 295q18 20 47 20t49 -20l309 -289q20 -20 20.5 -49t-19 -49.5t-48.5 -20.5t-49 21l-262 246l-258 -250q-20 -20 -49 -20.5t-48.5 20t-19.5 49z" />
<glyph unicode="&#x125;" horiz-adv-x="968" d="M86 68v1278q0 29 20.5 48t49 19t48 -19.5t19.5 -47.5v-373q51 45 118 71.5t140 26.5q82 0 156 -31.5t128 -85t85 -127t31 -155.5v-604q0 -29 -20.5 -48.5t-49.5 -19.5t-48.5 19.5t-19.5 48.5v604q0 53 -21.5 101t-56 83t-82.5 55.5t-102 20.5q-51 0 -98 -20.5t-82 -53.5 t-55.5 -78t-22.5 -96v-616q0 -31 -18.5 -49.5t-48.5 -18.5q-29 0 -48.5 19.5t-21.5 48.5zM106 1540q0 29 19 47l309 295q18 20 47 20.5t49 -20.5l310 -289q20 -20 20 -48.5t-19.5 -49t-48 -20.5t-49.5 20l-262 246l-258 -250q-20 -20 -49 -20.5t-48.5 20t-19.5 49.5z" />
<glyph unicode="&#x126;" horiz-adv-x="1191" d="M106 68v1278q0 29 19.5 48t48.5 19t49.5 -19.5t20.5 -47.5v-623h704v623q0 29 20.5 48t49.5 19t48 -19.5t19 -47.5v-1278q0 -29 -19 -48.5t-48 -19.5t-49.5 19.5t-20.5 48.5v518h-704v-518q0 -29 -20.5 -48.5t-49.5 -19.5t-48.5 19.5t-19.5 48.5zM279 1132.5 q0 28.5 19 49t50 20.5h498q29 0 48 -20.5t19 -49t-19.5 -48t-47.5 -19.5h-498q-31 0 -50 19.5t-19 48z" />
<glyph unicode="&#x127;" horiz-adv-x="1075" d="M57 1243q0 29 20.5 48.5t49.5 19.5h680q29 0 49.5 -19.5t20.5 -48.5t-20.5 -49t-49.5 -20h-680q-29 0 -49.5 20t-20.5 49zM195 68v1278q0 29 19 48t50 19q29 0 48.5 -19.5t19.5 -47.5v-373q51 45 117.5 71.5t140.5 26.5q82 0 155.5 -31.5t128 -85t85 -127t30.5 -155.5 v-604q0 -29 -20.5 -48.5t-49 -19.5t-48 19.5t-19.5 48.5v604q0 53 -21.5 101t-56.5 83t-83 55.5t-101 20.5t-99.5 -20.5t-81 -53.5t-55 -78t-22.5 -96v-616q0 -31 -18.5 -49.5t-49.5 -18.5t-49 19.5t-20 48.5z" />
<glyph unicode="&#x128;" horiz-adv-x="354" d="M-262 1548q0 25 29.5 62t71.5 72.5t91.5 61t92.5 25.5q45 0 91 -26.5t89 -59.5l80 -58q37 -26 69 -26q41 0 70 24t50 53l41 55q19 25 46 24q31 0 46.5 -20.5t15.5 -44.5q0 -39 -28 -78t-69 -71t-88 -51.5t-84 -19.5q-47 0 -89 27t-83 57l-80 58q-39 27 -77 26 q-27 0 -51.5 -13t-47 -32.5t-40.5 -42.5l-31 -41q-16 -25 -50 -24q-25 0 -45 18t-20 45zM109 68v1278q0 29 19 48t48 19t49.5 -19.5t20.5 -47.5v-1278q0 -29 -20.5 -48.5t-49.5 -19.5t-48 19.5t-19 48.5z" />
<glyph unicode="&#x129;" horiz-adv-x="354" d="M-262 1221q0 25 29.5 61.5t71.5 72.5t91.5 61.5t92.5 25.5q45 0 91 -26.5t89 -59.5l80 -59q37 -26 69 -25q41 0 70 23.5t50 53.5l41 54q19 25 46 24q31 0 46.5 -20.5t15.5 -44.5q0 -39 -28 -78t-69 -70.5t-88 -51t-84 -19.5q-47 0 -89 26.5t-83 57.5l-80 57 q-39 27 -77 27q-27 0 -51.5 -13.5t-47 -33t-40.5 -41.5l-31 -41q-16 -25 -50 -25q-25 0 -45 18.5t-20 45.5zM109 68v923q0 29 19 48.5t48 19.5t49.5 -19.5t20.5 -48.5v-923q0 -29 -20.5 -48.5t-49.5 -19.5t-48 19.5t-19 48.5z" />
<glyph unicode="&#x12a;" horiz-adv-x="354" d="M-141 1577q0 29 19.5 49.5t49.5 20.5h498q29 0 48.5 -20.5t19.5 -49.5t-19.5 -48.5t-48.5 -19.5h-498q-31 0 -50 19.5t-19 48.5zM109 68v1278q0 29 19 48t48 19t49.5 -19.5t20.5 -47.5v-1278q0 -29 -20.5 -48.5t-49.5 -19.5t-48 19.5t-19 48.5z" />
<glyph unicode="&#x12b;" horiz-adv-x="354" d="M-137 1259.5q0 28.5 19.5 49t49.5 20.5h498q29 0 48.5 -20.5t19.5 -49t-19.5 -48t-48.5 -19.5h-498q-31 0 -50 19.5t-19 48zM109 68v923q0 29 19 48.5t48 19.5t49.5 -19.5t20.5 -48.5v-923q0 -29 -20.5 -48.5t-49.5 -19.5t-48 19.5t-19 48.5z" />
<glyph unicode="&#x12c;" horiz-adv-x="352" d="M-199 1829q0 29 20.5 49t49.5 20t48.5 -20t19.5 -49q0 -41 26.5 -77t64.5 -62.5t79 -41t71.5 -14.5t71.5 14.5t79 41t64.5 62.5t26.5 77q0 29 19.5 49t48 20t49 -20t20.5 -49q0 -59 -30.5 -118.5t-84 -108t-122 -77t-142.5 -28.5t-141.5 28.5t-120.5 77t-85 108 t-32 118.5zM109 68v1278q0 29 19 48t48 19t49.5 -19.5t20.5 -47.5v-1278q0 -29 -20.5 -48.5t-49.5 -19.5t-48 19.5t-19 48.5z" />
<glyph unicode="&#x12e;" horiz-adv-x="354" d="M16 -180q0 31 16.5 63.5t37 64t38 63.5t17.5 67h123q0 -41 -16.5 -78t-36.5 -68l-38 -58q-17 -28 -18 -54q0 -29 20.5 -48.5t49.5 -19.5q33 0 45 19.5t20.5 45t19.5 45t44 19.5q25 0 44 -18.5t19 -42.5q0 -80 -57 -136.5t-135 -56.5q-80 0 -136.5 56.5t-56.5 136.5z M109 68v1278q0 29 19 48t48 19t49.5 -19.5t20.5 -47.5v-1278q0 -29 -20.5 -48.5t-49.5 -19.5t-48 19.5t-19 48.5z" />
<glyph unicode="&#x12f;" horiz-adv-x="339" d="M8 -197q0 31 16.5 64t37 64.5t38 63.5t17.5 66h123q0 -41 -16.5 -77.5t-37.5 -67.5l-38 -58q-17 -28 -17 -55q0 -29 20.5 -48t49.5 -19q33 0 45 19.5t20 45t19.5 45t44.5 19.5q25 0 44 -18.5t19 -43.5q0 -80 -57 -136t-135 -56q-80 0 -136.5 56t-56.5 136zM80 1323 q0 37 26.5 63.5t63.5 26.5q39 0 64.5 -26.5t25.5 -63.5q0 -39 -25.5 -64.5t-64.5 -25.5q-37 0 -63.5 25.5t-26.5 64.5zM102 68v938q0 29 19.5 49t48.5 20t49.5 -20.5t20.5 -48.5v-938q0 -29 -20.5 -48.5t-49.5 -19.5t-48.5 19.5t-19.5 48.5z" />
<glyph unicode="&#x130;" horiz-adv-x="354" d="M92 1688q0 37 24.5 62.5t61.5 25.5q39 0 63.5 -26t24.5 -62q0 -39 -24.5 -62.5t-63.5 -23.5q-37 0 -61.5 23.5t-24.5 62.5zM109 68v1278q0 29 19 48t48 19t49.5 -19.5t20.5 -47.5v-1278q0 -29 -20.5 -48.5t-49.5 -19.5t-48 19.5t-19 48.5z" />
<glyph unicode="&#x131;" horiz-adv-x="311" d="M80 68v923q0 29 19.5 48.5t48 19.5t49 -19.5t20.5 -48.5v-923q0 -29 -20.5 -48.5t-49 -19.5t-48 19.5t-19.5 48.5z" />
<glyph unicode="&#x134;" horiz-adv-x="311" d="M-309 -331.5q0 28.5 19.5 48t47.5 19.5q74 0 136.5 26.5t108.5 73.5t72.5 108.5t26.5 133.5v1268q0 29 19.5 48t48.5 19t49.5 -19.5t20.5 -47.5v-1268q0 -98 -38 -185.5t-102.5 -153t-151.5 -102t-190 -36.5q-29 0 -48 19.5t-19 48zM-203 1507.5q0 28.5 19 46.5l309 295 q18 20 47 20.5t49 -20.5l309 -288q20 -20 20.5 -49t-19 -49.5t-48 -20.5t-49.5 20l-262 246l-258 -250q-20 -20 -49 -20t-48.5 20.5t-19.5 49z" />
<glyph unicode="&#x135;" horiz-adv-x="321" d="M-205 1210.5q0 28.5 19 46.5l309 295q18 20 47 20.5t49 -20.5l309 -288q20 -20 20.5 -49t-19 -49.5t-48 -20.5t-49.5 20l-262 246l-258 -250q-20 -20 -49 -20t-48.5 20.5t-19.5 49zM-197 -331.5q0 28.5 19.5 48t48.5 19.5q74 0 118 29.5t68.5 67.5t32.5 75t8 53v1045 q0 29 19.5 49t48.5 20t48 -20.5t19 -48.5v-1045q0 -49 -18 -111.5t-61 -118t-112 -93t-171 -37.5q-29 0 -48.5 19.5t-19.5 48z" />
<glyph unicode="&#x136;" horiz-adv-x="1150" d="M102 68v1278q0 29 19.5 48t48.5 19t49.5 -19.5t20.5 -47.5v-588l692 635q18 20 47 20t49.5 -19.5t20.5 -48t-21 -49.5l-475 -436l477 -756q12 -18 12 -36q0 -23 -19 -45.5t-50 -22.5q-37 0 -58 33l-464 735l-211 -195v-505q0 -29 -20.5 -48.5t-49.5 -19.5t-48.5 19.5 t-19.5 48.5zM506 -201q0 29 19.5 48.5t48 19.5t49 -19.5t20.5 -48.5v-342q0 -23 -20.5 -45t-49 -22t-48 19.5t-19.5 47.5v342z" />
<glyph unicode="&#x137;" horiz-adv-x="878" d="M84 68v1275q0 29 19.5 48.5t50.5 19.5q29 0 48 -19.5t19 -48.5v-735l447 445q20 20 48.5 20t48 -20.5t19.5 -49t-18 -47.5l-320 -311l338 -543q10 -16 11 -34q0 -23 -19.5 -46.5t-48.5 -23.5q-37 0 -59 35l-320 514l-127 -127v-352q0 -29 -19.5 -48.5t-47.5 -19.5 q-31 0 -50.5 19.5t-19.5 48.5zM371 -143q0 29 19.5 48t48 19t49 -19.5t20.5 -47.5v-342q0 -23 -20.5 -45.5t-49 -22.5t-48 19.5t-19.5 48.5v342z" />
<glyph unicode="&#x139;" horiz-adv-x="917" d="M76 68v1278q0 29 19.5 48t48 19t49 -19.5t20.5 -47.5v-1209h561q29 0 48.5 -19.5t19.5 -49.5q0 -29 -19.5 -48.5t-48.5 -19.5h-631q-29 0 -48 19.5t-19 48.5zM82 1563q0 16 8 28l182 320q18 33 58 33q31 0 50 -21.5t19 -48.5q0 -18 -6 -33l-184 -315q-8 -18 -24.5 -26.5 t-32.5 -8.5q-31 0 -50.5 23.5t-19.5 48.5z" />
<glyph unicode="&#x13a;" horiz-adv-x="356" d="M111 68v1278q0 29 19.5 48t47.5 19q31 0 50.5 -19.5t19.5 -47.5v-1278q0 -29 -19.5 -48.5t-50.5 -19.5q-29 0 -48 19.5t-19 48.5zM111 1575q0 16 8 29l182 319q18 33 57 33q31 0 50.5 -21.5t19.5 -48.5q0 -18 -6 -33l-184 -315q-8 -18 -24.5 -26.5t-33.5 -8.5 q-31 0 -50 23.5t-19 48.5z" />
<glyph unicode="&#x13b;" horiz-adv-x="917" d="M76 68v1278q0 29 19.5 48t48 19t49 -19.5t20.5 -47.5v-1209h561q29 0 48.5 -19.5t19.5 -49.5q0 -29 -19.5 -48.5t-48.5 -19.5h-631q-29 0 -48 19.5t-19 48.5zM389 -178q0 29 19.5 48t48 19t49 -19.5t20.5 -47.5v-342q0 -23 -20.5 -45.5t-49 -22.5t-48 19.5t-19.5 48.5 v342z" />
<glyph unicode="&#x13c;" horiz-adv-x="356" d="M111 68v1278q0 29 19.5 48t47.5 19q31 0 50.5 -19.5t19.5 -47.5v-1278q0 -29 -19.5 -48.5t-50.5 -19.5q-29 0 -48 19.5t-19 48.5zM113 -244q0 29 19.5 48.5t48 19.5t49 -19.5t20.5 -48.5v-342q0 -23 -20.5 -45t-49 -22t-48 19.5t-19.5 47.5v342z" />
<glyph unicode="&#x13d;" horiz-adv-x="917" d="M76 68v1278q0 29 19.5 48t48 19t49 -19.5t20.5 -47.5v-1209h561q29 0 48.5 -19.5t19.5 -49.5q0 -29 -19.5 -48.5t-48.5 -19.5h-631q-29 0 -48 19.5t-19 48.5zM389 1204q0 18 10 33l179 317q16 35 57 35q31 0 51.5 -21.5t20.5 -51.5q0 -14 -7 -29l-182 -316 q-23 -37 -61 -36q-31 0 -49.5 22t-18.5 47z" />
<glyph unicode="&#x13e;" horiz-adv-x="720" d="M111 68v1278q0 29 19.5 48t47.5 19q31 0 50.5 -19.5t19.5 -47.5v-1278q0 -29 -19.5 -48.5t-50.5 -19.5q-29 0 -48 19.5t-19 48.5zM313 995q0 18 11 33l178 318q16 35 57 34q31 0 51.5 -21.5t20.5 -51.5q0 -14 -6 -29l-183 -315q-23 -35 -61 -35q-31 0 -49.5 21t-18.5 46z " />
<glyph unicode="&#x13f;" horiz-adv-x="917" d="M76 68v1278q0 29 19.5 48t48 19t49 -19.5t20.5 -47.5v-1209h561q29 0 48.5 -19.5t19.5 -49.5q0 -29 -19.5 -48.5t-48.5 -19.5h-631q-29 0 -48 19.5t-19 48.5zM442 653q0 35 22.5 57.5t55.5 22.5t56.5 -22.5t23.5 -57.5q0 -33 -23.5 -54t-56.5 -21t-55.5 21t-22.5 54z" />
<glyph unicode="&#x140;" horiz-adv-x="581" d="M111 68v1278q0 29 19.5 48t47.5 19q31 0 50.5 -19.5t19.5 -47.5v-1278q0 -29 -19.5 -48.5t-50.5 -19.5q-29 0 -48 19.5t-19 48.5zM358 535q0 35 22.5 57t55.5 22t56.5 -22.5t23.5 -56.5q0 -33 -23.5 -54.5t-56.5 -21.5t-55.5 21.5t-22.5 54.5z" />
<glyph unicode="&#x141;" horiz-adv-x="1079" d="M57 688q0 29 19.5 48.5t48.5 19.5h682q29 0 48 -19.5t19 -48.5t-19 -49.5t-48 -20.5h-682q-29 0 -48.5 20.5t-19.5 49.5zM238 68v1278q0 29 19 48t48 19t49.5 -19.5t20.5 -47.5v-1209h561q29 0 48.5 -19.5t19.5 -49.5q0 -29 -19.5 -48.5t-48.5 -19.5h-631q-29 0 -48 19.5 t-19 48.5z" />
<glyph unicode="&#x142;" horiz-adv-x="356" d="M-227 688q0 29 19.5 48.5t47.5 19.5h682q29 0 48.5 -19.5t19.5 -48.5t-19.5 -49.5t-48.5 -20.5h-682q-29 0 -48 20.5t-19 49.5zM111 68v1278q0 29 19.5 48t47.5 19q31 0 50.5 -19.5t19.5 -47.5v-1278q0 -29 -19.5 -48.5t-50.5 -19.5q-29 0 -48 19.5t-19 48.5z" />
<glyph unicode="&#x143;" d="M106 68v1278q0 29 19.5 48t48.5 19q25 0 37 -10t27 -27l759 -1077v1047q0 29 20.5 48t49.5 19t48.5 -19.5t19.5 -47.5v-1278q0 -29 -19.5 -48.5t-48.5 -19.5q-25 0 -40 14.5t-28 32.5l-755 1069v-1048q0 -29 -20.5 -48.5t-49.5 -19.5t-48.5 19.5t-19.5 48.5zM590 1573 q0 16 8 29l182 319q18 33 58 33q31 0 50 -21.5t19 -48.5q0 -18 -6 -33l-184 -315q-8 -18 -24.5 -26.5t-33.5 -8.5q-31 0 -50 23.5t-19 48.5z" />
<glyph unicode="&#x144;" horiz-adv-x="999" d="M102 68v938q0 29 19.5 49t48.5 20t49.5 -20.5t20.5 -48.5v-29q49 45 115.5 71.5t142.5 26.5q82 0 154.5 -30.5t127 -85t85 -128t30.5 -155.5v-608q0 -29 -19.5 -48.5t-48 -19.5t-49 19.5t-20.5 48.5v608q0 53 -20.5 101t-56.5 83t-83 55.5t-100.5 20.5t-99.5 -20.5 t-81.5 -53.5t-55 -78t-21.5 -96v-620q0 -29 -20.5 -48.5t-49.5 -19.5t-48.5 19.5t-19.5 48.5zM467 1245q0 16 8 29l182 319q18 33 58 33q31 0 50 -21.5t19 -48.5q0 -18 -6 -32l-184 -316q-8 -18 -24.5 -26t-32.5 -8q-31 0 -50.5 23t-19.5 48z" />
<glyph unicode="&#x145;" d="M106 68v1278q0 29 19.5 48t48.5 19q25 0 37 -10t27 -27l759 -1077v1047q0 29 20.5 48t49.5 19t48.5 -19.5t19.5 -47.5v-1278q0 -29 -19.5 -48.5t-48.5 -19.5q-25 0 -40 14.5t-28 32.5l-755 1069v-1048q0 -29 -20.5 -48.5t-49.5 -19.5t-48.5 19.5t-19.5 48.5zM502 -168 q0 29 19.5 48.5t48 19.5t49 -19.5t20.5 -48.5v-342q0 -23 -20.5 -45.5t-49 -22.5t-48 19.5t-19.5 48.5v342z" />
<glyph unicode="&#x146;" horiz-adv-x="999" d="M102 68v938q0 29 19.5 49t48.5 20t49.5 -20.5t20.5 -48.5v-29q49 45 115.5 71.5t142.5 26.5q82 0 154.5 -30.5t127 -85t85 -128t30.5 -155.5v-608q0 -29 -19.5 -48.5t-48 -19.5t-49 19.5t-20.5 48.5v608q0 53 -20.5 101t-56.5 83t-83 55.5t-100.5 20.5t-99.5 -20.5 t-81.5 -53.5t-55 -78t-21.5 -96v-620q0 -29 -20.5 -48.5t-49.5 -19.5t-48.5 19.5t-19.5 48.5zM432 -227q0 29 19.5 48t48 19t49 -19.5t20.5 -47.5v-342q0 -23 -20.5 -45.5t-49 -22.5t-48 19.5t-19.5 48.5v342z" />
<glyph unicode="&#x147;" d="M106 68v1278q0 29 19.5 48t48.5 19q25 0 37 -10t27 -27l759 -1077v1047q0 29 20.5 48t49.5 19t48.5 -19.5t19.5 -47.5v-1278q0 -29 -19.5 -48.5t-48.5 -19.5q-25 0 -40 14.5t-28 32.5l-755 1069v-1048q0 -29 -20.5 -48.5t-49.5 -19.5t-48.5 19.5t-19.5 48.5zM254 1863.5 q0 28.5 19.5 49t48 20.5t49.5 -20l258 -250l262 246q20 20 49 20t48.5 -20.5t19.5 -49t-21 -49.5l-307 -286q-23 -23 -51.5 -23t-46.5 21l-310 295q-18 18 -18 46.5z" />
<glyph unicode="&#x148;" horiz-adv-x="999" d="M102 68v938q0 29 19.5 49t48.5 20t49.5 -20.5t20.5 -48.5v-29q49 45 115.5 71.5t142.5 26.5q82 0 154.5 -30.5t127 -85t85 -128t30.5 -155.5v-608q0 -29 -19.5 -48.5t-48 -19.5t-49 19.5t-20.5 48.5v608q0 53 -20.5 101t-56.5 83t-83 55.5t-100.5 20.5t-99.5 -20.5 t-81.5 -53.5t-55 -78t-21.5 -96v-620q0 -29 -20.5 -48.5t-49.5 -19.5t-48.5 19.5t-19.5 48.5zM141 1538q0 29 19.5 49.5t48.5 20.5t49 -21l258 -250l262 246q20 20 49 20.5t48.5 -20t19.5 -49.5t-21 -49l-307 -287q-23 -23 -51.5 -22.5t-46.5 20.5l-309 295q-19 18 -19 47z " />
<glyph unicode="&#x14c;" horiz-adv-x="1581" d="M86 702q0 147 55.5 275.5t150.5 224.5t223 151.5t276 55.5q145 0 273 -55.5t224 -151.5t151.5 -224t55.5 -276q0 -145 -55.5 -273t-151.5 -223t-224 -150.5t-273 -55.5q-147 0 -275.5 55.5t-223.5 150.5t-150.5 223t-55.5 273zM223 702q0 -117 44 -220t121 -180 t180.5 -121t222.5 -44q117 0 220 44t181 121t122 180.5t44 219.5q0 119 -44 222.5t-122 181.5t-181.5 122t-219.5 44q-119 0 -222.5 -44t-180.5 -122t-121 -181.5t-44 -222.5zM469 1577q0 29 19.5 49.5t50.5 20.5h497q29 0 48.5 -20.5t19.5 -49.5t-19.5 -48.5t-48.5 -19.5 h-497q-31 0 -50.5 19.5t-19.5 48.5z" />
<glyph unicode="&#x14d;" d="M86 532q0 111 41 207.5t112.5 168t170 115.5t215.5 48q104 0 200.5 -43t170 -116.5t116.5 -171t43 -208.5q0 -109 -42 -205t-113.5 -168.5t-170 -114.5t-211.5 -42q-111 0 -207 40t-168.5 110.5t-114.5 167.5t-42 212zM223 532.5q0 -81.5 31 -153.5t85 -126t126 -85 t153.5 -31t155.5 31t128 85t85 126t31 153.5t-31 155.5t-85 127t-128 85t-155.5 32t-153.5 -32t-126 -85t-85 -127t-31 -155.5zM303 1247.5q0 28.5 19.5 49t50.5 20.5h497q29 0 48.5 -20.5t19.5 -49t-19.5 -48t-48.5 -19.5h-497q-31 0 -50.5 19.5t-19.5 48z" />
<glyph unicode="&#x14e;" horiz-adv-x="1581" d="M86 702q0 147 55.5 275.5t150.5 224.5t223 151.5t276 55.5q145 0 273 -55.5t224 -151.5t151.5 -224t55.5 -276q0 -145 -55.5 -273t-151.5 -223t-224 -150.5t-273 -55.5q-147 0 -275.5 55.5t-223.5 150.5t-150.5 223t-55.5 273zM223 702q0 -117 44 -220t121 -180 t180.5 -121t222.5 -44q117 0 220 44t181 121t122 180.5t44 219.5q0 119 -44 222.5t-122 181.5t-181.5 122t-219.5 44q-119 0 -222.5 -44t-180.5 -122t-121 -181.5t-44 -222.5zM410 1829q0 29 20.5 49t49 20t48 -20t19.5 -49q0 -41 26.5 -77t64.5 -62.5t79 -41t71.5 -14.5 t71.5 14.5t79 41t64.5 62.5t26.5 77q0 29 19.5 49t48 20t49 -20t20.5 -49q0 -59 -30.5 -118.5t-84 -108t-122 -77t-142 -28.5t-141 28.5t-121 77t-85 108t-31.5 118.5z" />
<glyph unicode="&#x14f;" d="M86 532q0 111 41 207.5t112.5 168t170 115.5t215.5 48q104 0 200.5 -43t170 -116.5t116.5 -171t43 -208.5q0 -109 -42 -205t-113.5 -168.5t-170 -114.5t-211.5 -42q-111 0 -207 40t-168.5 110.5t-114.5 167.5t-42 212zM223 532.5q0 -81.5 31 -153.5t85 -126t126 -85 t153.5 -31t155.5 31t128 85t85 126t31 153.5t-31 155.5t-85 127t-128 85t-155.5 32t-153.5 -32t-126 -85t-85 -127t-31 -155.5zM240 1509q0 29 20.5 49.5t49 20.5t48 -20.5t19.5 -49.5q0 -41 26.5 -76.5t64.5 -62.5t79 -41t71.5 -14t71.5 14t79 41t64.5 62.5t26.5 76.5 q0 29 19.5 49.5t48 20.5t49 -20.5t20.5 -49.5q0 -59 -30.5 -118.5t-84 -107.5t-122 -76.5t-142 -28.5t-141 28.5t-121 76.5t-85 107.5t-31.5 118.5z" />
<glyph unicode="&#x150;" horiz-adv-x="1581" d="M86 702q0 147 55.5 275.5t150.5 224.5t223 151.5t276 55.5q145 0 273 -55.5t224 -151.5t151.5 -224t55.5 -276q0 -145 -55.5 -273t-151.5 -223t-224 -150.5t-273 -55.5q-147 0 -275.5 55.5t-223.5 150.5t-150.5 223t-55.5 273zM223 702q0 -117 44 -220t121 -180 t180.5 -121t222.5 -44q117 0 220 44t181 121t122 180.5t44 219.5q0 119 -44 222.5t-122 181.5t-181.5 122t-219.5 44q-119 0 -222.5 -44t-180.5 -122t-121 -181.5t-44 -222.5zM596 1561q0 16 8 28l160 275q18 35 57 34q33 0 51.5 -22.5t18.5 -48.5q0 -18 -6 -31l-162 -272 q-8 -18 -24.5 -26.5t-32.5 -8.5q-31 0 -50.5 23.5t-19.5 48.5zM825 1561q0 16 6 28l162 275q16 35 58 34q31 0 49 -22.5t18 -48.5q0 -18 -6 -31l-162 -272q-8 -18 -23.5 -26.5t-33.5 -8.5q-31 0 -49.5 23.5t-18.5 48.5z" />
<glyph unicode="&#x151;" d="M86 532q0 111 41 207.5t112.5 168t170 115.5t215.5 48q104 0 200.5 -43t170 -116.5t116.5 -171t43 -208.5q0 -109 -42 -205t-113.5 -168.5t-170 -114.5t-211.5 -42q-111 0 -207 40t-168.5 110.5t-114.5 167.5t-42 212zM223 532.5q0 -81.5 31 -153.5t85 -126t126 -85 t153.5 -31t155.5 31t128 85t85 126t31 153.5t-31 155.5t-85 127t-128 85t-155.5 32t-153.5 -32t-126 -85t-85 -127t-31 -155.5zM426 1243q0 16 8 29l160 274q18 35 57 35q33 0 51.5 -22.5t18.5 -49.5q0 -18 -6 -30l-162 -273q-8 -18 -24.5 -26.5t-32.5 -8.5 q-31 0 -50.5 23.5t-19.5 48.5zM655 1243q0 16 7 29l161 274q16 35 58 35q31 0 49 -22.5t18 -49.5q0 -18 -6 -30l-162 -273q-8 -18 -23.5 -26.5t-33.5 -8.5q-31 0 -49.5 23.5t-18.5 48.5z" />
<glyph unicode="&#x152;" horiz-adv-x="2246" d="M86 702q0 147 55.5 275.5t150.5 224.5t223 151.5t276 55.5q145 0 273 -55.5t224 -151.5t151.5 -224t55.5 -276q0 -145 -55.5 -273t-151.5 -223t-224 -150.5t-273 -55.5q-147 0 -275.5 55.5t-223.5 150.5t-150.5 223t-55.5 273zM223 702q0 -117 44 -220t121 -180 t180.5 -121t222.5 -44q117 0 220 44t181 121t122 180.5t44 219.5q0 119 -44 222.5t-122 181.5t-181.5 122t-219.5 44q-119 0 -222.5 -44t-180.5 -122t-121 -181.5t-44 -222.5zM1352 68v1278q0 29 19.5 48t47.5 19h674q29 0 48.5 -19.5t19.5 -48t-19.5 -49t-48.5 -20.5h-604 v-494h401q31 0 50.5 -19.5t19.5 -48t-19.5 -49t-50.5 -20.5h-401v-508h604q29 0 48.5 -19.5t19.5 -49.5q0 -29 -19.5 -48.5t-48.5 -19.5h-674q-29 0 -48 19.5t-19 48.5z" />
<glyph unicode="&#x153;" horiz-adv-x="2174" d="M86 532q0 111 41 207.5t112.5 168t170 115.5t215.5 48q104 0 200.5 -43t170 -116.5t116.5 -171t43 -208.5q0 -109 -42 -205t-113.5 -168.5t-170 -114.5t-211.5 -42q-111 0 -207 40t-168.5 110.5t-114.5 167.5t-42 212zM223 532.5q0 -81.5 31 -153.5t85 -126t126 -85 t153.5 -31t155.5 31t128 85t85 126t31 153.5t-31 155.5t-85 127t-128 85t-155.5 32t-153.5 -32t-126 -85t-85 -127t-31 -155.5zM1022 532q0 111 41 207.5t112.5 168t170 115.5t215.5 48q102 0 198 -42t170 -115.5t118 -170t44 -206.5q0 -33 -22.5 -50.5t-47.5 -17.5h-858 q12 -72 47 -132.5t87.5 -104.5t119 -69.5t137.5 -25.5q82 0 153 30t126 83q20 20 49 20t49.5 -20.5t20.5 -49t-21 -46.5q-74 -82 -165 -117t-212 -35q-111 0 -207 40t-168.5 110.5t-114.5 167.5t-42 212zM1165 606h783q-14 68 -49 128.5t-87.5 103.5t-118 68.5t-139.5 25.5 q-72 0 -137 -25.5t-117.5 -68.5t-86.5 -103.5t-48 -128.5z" />
<glyph unicode="&#x154;" horiz-adv-x="1019" d="M100 68v1275q0 29 19.5 49.5t48.5 20.5h362q80 0 149 -29.5t121 -82t81.5 -121t29.5 -146.5q0 -70 -24.5 -132t-66.5 -111.5t-100 -84t-124 -44.5l336 -547q6 -10 11 -23.5t5 -30t-16.5 -39t-46.5 -22.5q-20 0 -37 11.5t-27 27.5l-379 618h-204v-589q0 -29 -20.5 -48.5 t-49.5 -19.5t-48.5 19.5t-19.5 48.5zM238 795h292q49 0 93.5 18t78 51t52 77t18.5 93t-18.5 93t-52 78t-77.5 52.5t-94 18.5h-292v-481zM432 1573q0 16 8 29l183 319q18 33 57 33q31 0 50.5 -21.5t19.5 -48.5q0 -18 -7 -33l-184 -315q-8 -18 -24.5 -26.5t-32.5 -8.5 q-31 0 -50.5 23.5t-19.5 48.5z" />
<glyph unicode="&#x155;" horiz-adv-x="755" d="M78 68v938q0 29 19.5 49t48 20t49 -20.5t20.5 -48.5v-109q70 78 170 128t217 50q35 0 56.5 -20.5t21.5 -49t-21.5 -48t-56.5 -19.5q-80 0 -148.5 -30.5t-120.5 -84t-84 -122t-34 -144.5v-489q0 -29 -20.5 -48.5t-49 -19.5t-48 19.5t-19.5 48.5zM336 1245q0 16 8 29 l182 319q18 33 58 33q31 0 50 -21.5t19 -48.5q0 -18 -6 -32l-184 -316q-8 -18 -24.5 -26t-32.5 -8q-31 0 -50.5 23t-19.5 48z" />
<glyph unicode="&#x156;" horiz-adv-x="1019" d="M100 68v1275q0 29 19.5 49.5t48.5 20.5h362q80 0 149 -29.5t121 -82t81.5 -121t29.5 -146.5q0 -70 -24.5 -132t-66.5 -111.5t-100 -84t-124 -44.5l336 -547q6 -10 11 -23.5t5 -30t-16.5 -39t-46.5 -22.5q-20 0 -37 11.5t-27 27.5l-379 618h-204v-589q0 -29 -20.5 -48.5 t-49.5 -19.5t-48.5 19.5t-19.5 48.5zM238 795h292q49 0 93.5 18t78 51t52 77t18.5 93t-18.5 93t-52 78t-77.5 52.5t-94 18.5h-292v-481zM442 -137q0 29 19.5 48t48.5 19t49.5 -19.5t20.5 -47.5v-342q0 -23 -20.5 -45.5t-49.5 -22.5t-48.5 19.5t-19.5 48.5v342z" />
<glyph unicode="&#x157;" horiz-adv-x="755" d="M78 68v938q0 29 19.5 49t48 20t49 -20.5t20.5 -48.5v-109q70 78 170 128t217 50q35 0 56.5 -20.5t21.5 -49t-21.5 -48t-56.5 -19.5q-80 0 -148.5 -30.5t-120.5 -84t-84 -122t-34 -144.5v-489q0 -29 -20.5 -48.5t-49 -19.5t-48 19.5t-19.5 48.5zM80 -209q0 29 19.5 48.5 t48 19.5t49 -19.5t20.5 -48.5v-342q0 -23 -20.5 -45t-49 -22t-48 19t-19.5 48v342z" />
<glyph unicode="&#x158;" horiz-adv-x="1019" d="M100 68v1275q0 29 19.5 49.5t48.5 20.5h362q80 0 149 -29.5t121 -82t81.5 -121t29.5 -146.5q0 -70 -24.5 -132t-66.5 -111.5t-100 -84t-124 -44.5l336 -547q6 -10 11 -23.5t5 -30t-16.5 -39t-46.5 -22.5q-20 0 -37 11.5t-27 27.5l-379 618h-204v-589q0 -29 -20.5 -48.5 t-49.5 -19.5t-48.5 19.5t-19.5 48.5zM115 1859.5q0 28.5 19.5 49t48 20.5t48.5 -20l258 -250l263 246q20 20 48.5 20t48 -20.5t19.5 -49t-20 -49.5l-307 -286q-23 -23 -51.5 -23t-47.5 21l-309 294q-18 19 -18 47.5zM238 795h292q49 0 93.5 18t78 51t52 77t18.5 93t-18.5 93 t-52 78t-77.5 52.5t-94 18.5h-292v-481z" />
<glyph unicode="&#x159;" horiz-adv-x="755" d="M-14 1534q0 29 19.5 49.5t48 20.5t48.5 -21l258 -250l263 246q20 20 48.5 20t48 -20t19.5 -49t-20 -49l-307 -287q-23 -23 -51.5 -23t-47.5 21l-309 295q-18 18 -18 47zM78 68v938q0 29 19.5 49t48 20t49 -20.5t20.5 -48.5v-109q70 78 170 128t217 50q35 0 56.5 -20.5 t21.5 -49t-21.5 -48t-56.5 -19.5q-80 0 -148.5 -30.5t-120.5 -84t-84 -122t-34 -144.5v-489q0 -29 -20.5 -48.5t-49 -19.5t-48 19.5t-19.5 48.5z" />
<glyph unicode="&#x15a;" horiz-adv-x="1064" d="M78 264q0 25 20.5 47.5t51.5 22.5q43 0 63 -35q18 -41 57 -70.5t86 -50t94.5 -31t84.5 -10.5q61 0 118.5 22.5t100.5 59.5t69.5 89t26.5 111.5t-23.5 104.5t-65.5 78t-99.5 59.5t-124.5 49.5q-66 18 -139.5 49t-135 72.5t-101.5 98t-40 128.5q0 84 38 149.5t97 110.5 t134 68.5t147 23.5q49 0 101 -8t103.5 -27.5t98.5 -55.5t88 -91q12 -18 12 -45q0 -31 -18.5 -52.5t-49.5 -21.5q-41 0 -63 35q-27 45 -61.5 70.5t-71.5 39t-74 16.5t-65 3q-43 0 -92.5 -11.5t-90.5 -35t-67.5 -64.5t-26.5 -104q0 -43 39 -79t94.5 -62.5t115.5 -46t101 -35.5 q84 -31 152.5 -66t119 -84t78 -113.5t27.5 -152.5t-38 -166t-101.5 -134.5t-145 -88t-170.5 -31.5q-61 0 -128.5 16.5t-128 46t-110.5 71.5t-77 93q-10 19 -10 37zM494 1573q0 16 8 29l182 319q18 33 57 33q31 0 50.5 -21.5t19.5 -48.5q0 -18 -6 -33l-184 -315 q-8 -18 -24.5 -26.5t-33.5 -8.5q-31 0 -50 23.5t-19 48.5z" />
<glyph unicode="&#x15b;" horiz-adv-x="962" d="M90 260q0 29 19.5 51.5t50.5 22.5q25 0 43 -14.5t28 -38.5q29 -70 98.5 -107t147.5 -37q109 0 185.5 50.5t76.5 140.5q0 72 -75.5 123t-186.5 67q-158 23 -257 87.5t-99 189.5q0 78 31.5 130t82 85.5t115 48t127.5 14.5q53 0 113.5 -12t111 -37t84 -59.5t33.5 -83.5 q0 -25 -17.5 -48.5t-53.5 -23.5q-41 0 -64 49q-20 43 -77.5 63.5t-129.5 20.5q-37 0 -76 -5t-69.5 -22.5t-52 -46t-21.5 -73.5q0 -33 21.5 -57.5t53.5 -41t70.5 -25.5t73.5 -16q82 -14 153.5 -39.5t126 -65.5t87.5 -95.5t33 -126.5q0 -74 -32 -134.5t-85 -103.5t-127 -66.5 t-156 -23.5q-139 0 -243.5 64.5t-141.5 177.5q-2 6 -2 18zM424 1245q0 16 8 29l182 319q18 33 58 33q31 0 50 -21.5t19 -48.5q0 -18 -6 -32l-184 -316q-8 -18 -24.5 -26t-32.5 -8q-31 0 -50.5 23t-19.5 48z" />
<glyph unicode="&#x15c;" horiz-adv-x="1064" d="M78 264q0 25 20.5 47.5t51.5 22.5q43 0 63 -35q18 -41 57 -70.5t86 -50t94.5 -31t84.5 -10.5q61 0 118.5 22.5t100.5 59.5t69.5 89t26.5 111.5t-23.5 104.5t-65.5 78t-99.5 59.5t-124.5 49.5q-66 18 -139.5 49t-135 72.5t-101.5 98t-40 128.5q0 84 38 149.5t97 110.5 t134 68.5t147 23.5q49 0 101 -8t103.5 -27.5t98.5 -55.5t88 -91q12 -18 12 -45q0 -31 -18.5 -52.5t-49.5 -21.5q-41 0 -63 35q-27 45 -61.5 70.5t-71.5 39t-74 16.5t-65 3q-43 0 -92.5 -11.5t-90.5 -35t-67.5 -64.5t-26.5 -104q0 -43 39 -79t94.5 -62.5t115.5 -46t101 -35.5 q84 -31 152.5 -66t119 -84t78 -113.5t27.5 -152.5t-38 -166t-101.5 -134.5t-145 -88t-170.5 -31.5q-61 0 -128.5 16.5t-128 46t-110.5 71.5t-77 93q-10 19 -10 37zM156 1560.5q0 28.5 18 47.5l309 295q18 20 47 20t50 -20l309 -289q20 -20 20 -49t-19.5 -49.5t-48 -20.5 t-48.5 21l-263 245l-258 -250q-20 -20 -48.5 -20t-48 20.5t-19.5 49z" />
<glyph unicode="&#x15d;" horiz-adv-x="962" d="M90 260q0 29 19.5 51.5t50.5 22.5q25 0 43 -14.5t28 -38.5q29 -70 98.5 -107t147.5 -37q109 0 185.5 50.5t76.5 140.5q0 72 -75.5 123t-186.5 67q-158 23 -257 87.5t-99 189.5q0 78 31.5 130t82 85.5t115 48t127.5 14.5q53 0 113.5 -12t111 -37t84 -59.5t33.5 -83.5 q0 -25 -17.5 -48.5t-53.5 -23.5q-41 0 -64 49q-20 43 -77.5 63.5t-129.5 20.5q-37 0 -76 -5t-69.5 -22.5t-52 -46t-21.5 -73.5q0 -33 21.5 -57.5t53.5 -41t70.5 -25.5t73.5 -16q82 -14 153.5 -39.5t126 -65.5t87.5 -95.5t33 -126.5q0 -74 -32 -134.5t-85 -103.5t-127 -66.5 t-156 -23.5q-139 0 -243.5 64.5t-141.5 177.5q-2 6 -2 18zM104 1245.5q0 28.5 19 46.5l309 295q18 20 47 20.5t49 -20.5l310 -289q20 -20 20 -48.5t-19.5 -49t-48 -20.5t-49.5 20l-262 246l-258 -250q-20 -20 -49 -20t-48.5 20.5t-19.5 49z" />
<glyph unicode="&#x15e;" horiz-adv-x="1064" d="M78 264q0 25 20.5 47.5t51.5 22.5q43 0 63 -35q18 -41 57 -70.5t86 -50t94.5 -31t84.5 -10.5q61 0 118.5 22.5t100.5 59.5t69.5 89t26.5 111.5t-23.5 104.5t-65.5 78t-99.5 59.5t-124.5 49.5q-66 18 -139.5 49t-135 72.5t-101.5 98t-40 128.5q0 84 38 149.5t97 110.5 t134 68.5t147 23.5q49 0 101 -8t103.5 -27.5t98.5 -55.5t88 -91q12 -18 12 -45q0 -31 -18.5 -52.5t-49.5 -21.5q-41 0 -63 35q-27 45 -61.5 70.5t-71.5 39t-74 16.5t-65 3q-43 0 -92.5 -11.5t-90.5 -35t-67.5 -64.5t-26.5 -104q0 -43 39 -79t94.5 -62.5t115.5 -46t101 -35.5 q84 -31 152.5 -66t119 -84t78 -113.5t27.5 -152.5t-38 -166t-101.5 -134.5t-145 -88t-170.5 -31.5q-61 0 -128.5 16.5t-128 46t-110.5 71.5t-77 93q-10 19 -10 37zM342 -236q0 25 18.5 43.5t42.5 18.5q33 0 44.5 -19.5t20.5 -45t20.5 -45t46.5 -19.5q29 0 48 19.5t19 47.5 q0 37 -19.5 47.5t-45 19.5t-46 22.5t-20.5 50.5v207h125v-162q57 -20 94 -69.5t37 -115.5q0 -80 -57.5 -136t-134.5 -56q-80 0 -136.5 56t-56.5 136z" />
<glyph unicode="&#x15f;" horiz-adv-x="962" d="M90 260q0 29 19.5 51.5t50.5 22.5q25 0 43 -14.5t28 -38.5q29 -70 98.5 -107t147.5 -37q109 0 185.5 50.5t76.5 140.5q0 72 -75.5 123t-186.5 67q-158 23 -257 87.5t-99 189.5q0 78 31.5 130t82 85.5t115 48t127.5 14.5q53 0 113.5 -12t111 -37t84 -59.5t33.5 -83.5 q0 -25 -17.5 -48.5t-53.5 -23.5q-41 0 -64 49q-20 43 -77.5 63.5t-129.5 20.5q-37 0 -76 -5t-69.5 -22.5t-52 -46t-21.5 -73.5q0 -33 21.5 -57.5t53.5 -41t70.5 -25.5t73.5 -16q82 -14 153.5 -39.5t126 -65.5t87.5 -95.5t33 -126.5q0 -74 -32 -134.5t-85 -103.5t-127 -66.5 t-156 -23.5q-139 0 -243.5 64.5t-141.5 177.5q-2 6 -2 18zM291 -258q0 25 18.5 43t42.5 18q33 0 44.5 -19.5t20.5 -45t20.5 -45t45.5 -19.5q29 0 48.5 19.5t19.5 48.5q0 37 -19.5 47t-45 19.5t-46 22.5t-20.5 50v207h125v-162q57 -20 94 -69.5t37 -114.5q0 -80 -57.5 -136.5 t-135.5 -56.5q-80 0 -136 56.5t-56 136.5z" />
<glyph unicode="&#x160;" horiz-adv-x="1064" d="M78 264q0 25 20.5 47.5t51.5 22.5q43 0 63 -35q18 -41 57 -70.5t86 -50t94.5 -31t84.5 -10.5q61 0 118.5 22.5t100.5 59.5t69.5 89t26.5 111.5t-23.5 104.5t-65.5 78t-99.5 59.5t-124.5 49.5q-66 18 -139.5 49t-135 72.5t-101.5 98t-40 128.5q0 84 38 149.5t97 110.5 t134 68.5t147 23.5q49 0 101 -8t103.5 -27.5t98.5 -55.5t88 -91q12 -18 12 -45q0 -31 -18.5 -52.5t-49.5 -21.5q-41 0 -63 35q-27 45 -61.5 70.5t-71.5 39t-74 16.5t-65 3q-43 0 -92.5 -11.5t-90.5 -35t-67.5 -64.5t-26.5 -104q0 -43 39 -79t94.5 -62.5t115.5 -46t101 -35.5 q84 -31 152.5 -66t119 -84t78 -113.5t27.5 -152.5t-38 -166t-101.5 -134.5t-145 -88t-170.5 -31.5q-61 0 -128.5 16.5t-128 46t-110.5 71.5t-77 93q-10 19 -10 37zM170 1863.5q0 28.5 19.5 49t48 20.5t49.5 -20l258 -250l262 246q20 20 49 20t48.5 -20.5t19.5 -49t-21 -49.5 l-307 -286q-23 -23 -51.5 -23t-46.5 21l-310 295q-18 18 -18 46.5z" />
<glyph unicode="&#x161;" horiz-adv-x="1398" d="M102 395q0 25 17 47l260 461q80 84 179 124t206 40q102 0 199.5 -40t172 -110.5t118.5 -168t44 -213.5q0 -111 -42 -207.5t-114.5 -169t-168.5 -114.5t-205 -42q-100 0 -197.5 38t-177.5 116q-23 18 -22 47q0 27 22.5 47t46.5 20q29 0 45 -18q59 -57 132 -86t149 -29 q80 0 151.5 32t126 86t86 126t31.5 151.5t-30.5 151.5t-85 126t-126 88t-153.5 34q-78 0 -154.5 -32t-136.5 -93l-256 -459q-23 -23 -51.5 -22.5t-47 21.5t-18.5 48zM430 1546.5q0 28.5 19.5 48t48 19.5t49.5 -19l258 -249l262 245q18 18 47 18.5t49.5 -19t20.5 -48.5 t-21 -49l-307 -287q-23 -23 -51.5 -22.5t-48.5 20.5l-307 293q-19 21 -19 49.5z" />
<glyph unicode="&#x162;" horiz-adv-x="1017" d="M57 1345.5q0 28.5 20.5 48t49.5 19.5h766q29 0 49.5 -19.5t20.5 -48t-20.5 -49t-49.5 -20.5h-313v-1208q0 -29 -19.5 -48.5t-50.5 -19.5q-29 0 -48.5 19.5t-19.5 48.5v1208h-315q-29 0 -49.5 20.5t-20.5 49zM442 -168q0 29 19.5 48.5t48.5 19.5t49.5 -19.5t20.5 -48.5 v-342q0 -23 -20.5 -45.5t-49.5 -22.5t-48.5 19.5t-19.5 48.5v342z" />
<glyph unicode="&#x163;" horiz-adv-x="675" d="M55 1005.5q0 28.5 19.5 49t48.5 20.5h147v271q0 29 19.5 48t48.5 19t49.5 -19.5t20.5 -47.5v-271h145q29 0 48.5 -20.5t19.5 -49t-19.5 -48t-48.5 -19.5h-145v-870q0 -29 -20.5 -48.5t-49.5 -19.5t-48.5 19.5t-19.5 48.5v870h-147q-29 0 -48.5 19.5t-19.5 48zM272 -229 q0 29 19.5 48t48.5 19t49.5 -19.5t20.5 -47.5v-342q0 -23 -20.5 -45.5t-49.5 -22.5t-48.5 19.5t-19.5 48.5v342z" />
<glyph unicode="&#x164;" horiz-adv-x="1017" d="M57 1345.5q0 28.5 20.5 48t49.5 19.5h766q29 0 49.5 -19.5t20.5 -48t-20.5 -49t-49.5 -20.5h-313v-1208q0 -29 -19.5 -48.5t-50.5 -19.5q-29 0 -48.5 19.5t-19.5 48.5v1208h-315q-29 0 -49.5 20.5t-20.5 49zM137 1863.5q0 28.5 19.5 49t48 20.5t49.5 -20l258 -250 l262 246q20 20 49 20t48.5 -20.5t19.5 -49t-21 -49.5l-307 -286q-23 -23 -51.5 -23t-46.5 21l-309 295q-19 18 -19 46.5z" />
<glyph unicode="&#x165;" horiz-adv-x="1093" d="M55 1005.5q0 28.5 19.5 49t48.5 20.5h147v271q0 29 19.5 48t48.5 19t49.5 -19.5t20.5 -47.5v-271h145q29 0 48.5 -20.5t19.5 -49t-19.5 -48t-48.5 -19.5h-145v-870q0 -29 -20.5 -48.5t-49.5 -19.5t-48.5 19.5t-19.5 48.5v870h-147q-29 0 -48.5 19.5t-19.5 48zM696 1022 q0 18 11 33l178 317q16 35 57 35q31 0 51.5 -21.5t20.5 -52.5q0 -14 -6 -28l-183 -316q-23 -37 -61 -37q-31 0 -49.5 22.5t-18.5 47.5z" />
<glyph unicode="&#x166;" horiz-adv-x="1017" d="M57 1345.5q0 28.5 20.5 48t49.5 19.5h766q29 0 49.5 -19.5t20.5 -48t-20.5 -49t-49.5 -20.5h-313v-1208q0 -29 -19.5 -48.5t-50.5 -19.5q-29 0 -48.5 19.5t-19.5 48.5v1208h-315q-29 0 -49.5 20.5t-20.5 49zM195 805q0 29 19 49t50 20h498q29 0 48 -20t19 -49t-19 -48.5 t-48 -19.5h-498q-31 0 -50 19.5t-19 48.5z" />
<glyph unicode="&#x167;" horiz-adv-x="743" d="M57 579.5q0 28.5 19.5 49t50.5 20.5h498q29 0 48 -20.5t19 -49t-19.5 -48t-47.5 -19.5h-498q-31 0 -50.5 19.5t-19.5 48zM88 1005.5q0 28.5 19.5 49t48.5 20.5h147v271q0 29 19.5 48t48 19t49 -19.5t20.5 -47.5v-271h146q29 0 48 -20.5t19 -49t-19.5 -48t-47.5 -19.5 h-146v-870q0 -29 -20.5 -48.5t-49 -19.5t-48 19.5t-19.5 48.5v870h-147q-29 0 -48.5 19.5t-19.5 48z" />
<glyph unicode="&#x168;" horiz-adv-x="1181" d="M100 492v851q0 23 19.5 46.5t50.5 23.5t49.5 -21.5t18.5 -52.5v-847q0 -74 27.5 -138.5t74.5 -111.5t112.5 -76t137.5 -29q74 0 138.5 29t112.5 76t76.5 111.5t28.5 138.5v851q0 23 20.5 46.5t51.5 23.5t48 -24.5t17 -49.5v-847q0 -102 -39.5 -191.5t-105.5 -156 t-156 -105.5t-192 -39q-100 0 -190.5 39t-157 105.5t-104.5 156t-38 191.5zM150 1548q0 25 29.5 62t71.5 72.5t91 61t92 25.5q45 0 91 -26.5t89 -59.5l80 -58q37 -26 70 -26q41 0 69.5 24t50.5 53l41 55q19 25 46 24q31 0 46 -20.5t15 -44.5q0 -39 -27.5 -78t-68.5 -71 t-88 -51.5t-84 -19.5q-47 0 -89 27t-83 57l-80 58q-39 27 -78 26q-27 0 -51.5 -13t-47 -32.5t-39.5 -42.5l-32 -41q-16 -25 -49 -24q-25 0 -45 18t-20 45z" />
<glyph unicode="&#x169;" horiz-adv-x="1001" d="M61 1231q0 25 30 61.5t72 72.5t91 61.5t92 25.5q45 0 91 -26.5t89 -59.5l80 -58q37 -26 70 -26q41 0 69.5 23.5t50.5 53.5l41 54q19 25 46 25q31 0 46 -20.5t15 -45.5q0 -39 -27.5 -78t-68.5 -70.5t-88 -51t-84 -19.5q-47 0 -89 26.5t-83 57.5l-80 57q-39 27 -78 27 q-27 0 -51.5 -13.5t-47 -33t-39.5 -41.5l-32 -41q-16 -25 -49 -25q-25 0 -45.5 18.5t-20.5 45.5zM104 397v607q0 29 19.5 49t48.5 20t49.5 -20.5t20.5 -48.5v-607q0 -53 20.5 -100t56 -83t83 -55.5t100.5 -19.5t99 19.5t81 53.5t55.5 79t24.5 96v617q0 29 19.5 49t48 20 t48 -20.5t19.5 -48.5v-936q0 -29 -19.5 -48.5t-48 -19.5t-48 19.5t-19.5 48.5v30q-51 -45 -117.5 -71.5t-142.5 -26.5q-82 0 -155 30.5t-127 85t-85 127t-31 154.5z" />
<glyph unicode="&#x16a;" horiz-adv-x="1181" d="M100 492v851q0 23 19.5 46.5t50.5 23.5t49.5 -21.5t18.5 -52.5v-847q0 -74 27.5 -138.5t74.5 -111.5t112.5 -76t137.5 -29q74 0 138.5 29t112.5 76t76.5 111.5t28.5 138.5v851q0 23 20.5 46.5t51.5 23.5t48 -24.5t17 -49.5v-847q0 -102 -39.5 -191.5t-105.5 -156 t-156 -105.5t-192 -39q-100 0 -190.5 39t-157 105.5t-104.5 156t-38 191.5zM276 1570.5q0 28.5 19.5 49t50.5 20.5h498q29 0 48 -20.5t19 -49t-19.5 -48t-47.5 -19.5h-498q-31 0 -50.5 19.5t-19.5 48z" />
<glyph unicode="&#x16b;" horiz-adv-x="1001" d="M104 397v607q0 29 19.5 49t48.5 20t49.5 -20.5t20.5 -48.5v-607q0 -53 20.5 -100t56 -83t83 -55.5t100.5 -19.5t99 19.5t81 53.5t55.5 79t24.5 96v617q0 29 19.5 49t48 20t48 -20.5t19.5 -48.5v-936q0 -29 -19.5 -48.5t-48 -19.5t-48 19.5t-19.5 48.5v30 q-51 -45 -117.5 -71.5t-142.5 -26.5q-82 0 -155 30.5t-127 85t-85 127t-31 154.5zM193 1247.5q0 28.5 19 49t50 20.5h498q29 0 48 -20.5t19 -49t-19.5 -48t-47.5 -19.5h-498q-31 0 -50 19.5t-19 48z" />
<glyph unicode="&#x16c;" horiz-adv-x="1181" d="M100 492v851q0 23 19.5 46.5t50.5 23.5t49.5 -21.5t18.5 -52.5v-847q0 -74 27.5 -138.5t74.5 -111.5t112.5 -76t137.5 -29q74 0 138.5 29t112.5 76t76.5 111.5t28.5 138.5v851q0 23 20.5 46.5t51.5 23.5t48 -24.5t17 -49.5v-847q0 -102 -39.5 -191.5t-105.5 -156 t-156 -105.5t-192 -39q-100 0 -190.5 39t-157 105.5t-104.5 156t-38 191.5zM211 1837q0 29 20.5 49.5t49 20.5t48 -20.5t19.5 -49.5q0 -41 26.5 -77t64.5 -62.5t79 -41t72 -14.5t71.5 14.5t78.5 41t64.5 62.5t26.5 77q0 29 19.5 49.5t48.5 20.5t49.5 -20.5t20.5 -49.5 q0 -59 -31 -118.5t-84 -107.5t-121.5 -77t-142.5 -29t-141.5 29t-121 77t-85 107.5t-31.5 118.5z" />
<glyph unicode="&#x16d;" horiz-adv-x="1001" d="M104 397v607q0 29 19.5 49t48.5 20t49.5 -20.5t20.5 -48.5v-607q0 -53 20.5 -100t56 -83t83 -55.5t100.5 -19.5t99 19.5t81 53.5t55.5 79t24.5 96v617q0 29 19.5 49t48 20t48 -20.5t19.5 -48.5v-936q0 -29 -19.5 -48.5t-48 -19.5t-48 19.5t-19.5 48.5v30 q-51 -45 -117.5 -71.5t-142.5 -26.5q-82 0 -155 30.5t-127 85t-85 127t-31 154.5zM117 1509q0 29 20.5 49.5t49 20.5t48 -20.5t19.5 -49.5q0 -41 26.5 -76.5t64.5 -62.5t79 -41t71.5 -14t71.5 14t79 41t64.5 62.5t26.5 76.5q0 29 19.5 49.5t48.5 20.5t49 -20.5t20 -49.5 q0 -59 -30.5 -118.5t-83.5 -107.5t-122 -76.5t-142.5 -28.5t-141 28.5t-121 76.5t-85 107.5t-31.5 118.5z" />
<glyph unicode="&#x16e;" horiz-adv-x="1181" d="M100 492v851q0 23 19.5 46.5t50.5 23.5t49.5 -21.5t18.5 -52.5v-847q0 -74 27.5 -138.5t74.5 -111.5t112.5 -76t137.5 -29q74 0 138.5 29t112.5 76t76.5 111.5t28.5 138.5v851q0 23 20.5 46.5t51.5 23.5t48 -24.5t17 -49.5v-847q0 -102 -39.5 -191.5t-105.5 -156 t-156 -105.5t-192 -39q-100 0 -190.5 39t-157 105.5t-104.5 156t-38 191.5zM373 1708q0 88 60.5 149.5t148.5 61.5t150.5 -61.5t62.5 -149.5t-62.5 -149.5t-150.5 -61.5t-148.5 61.5t-60.5 149.5zM504 1708q0 -37 21.5 -57.5t56.5 -20.5q37 0 58.5 20.5t21.5 57.5 q0 35 -22 57.5t-58 22.5q-35 0 -56.5 -22.5t-21.5 -57.5z" />
<glyph unicode="&#x16f;" horiz-adv-x="1001" d="M104 397v607q0 29 19.5 49t48.5 20t49.5 -20.5t20.5 -48.5v-607q0 -53 20.5 -100t56 -83t83 -55.5t100.5 -19.5t99 19.5t81 53.5t55.5 79t24.5 96v617q0 29 19.5 49t48 20t48 -20.5t19.5 -48.5v-936q0 -29 -19.5 -48.5t-48 -19.5t-48 19.5t-19.5 48.5v30 q-51 -45 -117.5 -71.5t-142.5 -26.5q-82 0 -155 30.5t-127 85t-85 127t-31 154.5zM293 1382q0 88 60.5 149.5t148.5 61.5t150.5 -61.5t62.5 -149.5t-62.5 -149.5t-150.5 -61.5t-148.5 61.5t-60.5 149.5zM424 1382q0 -37 21.5 -57t56.5 -20q37 0 58.5 20.5t21.5 56.5 q0 35 -21.5 57.5t-58.5 22.5q-35 0 -56.5 -22.5t-21.5 -57.5z" />
<glyph unicode="&#x170;" horiz-adv-x="1181" d="M100 492v851q0 23 19.5 46.5t50.5 23.5t49.5 -21.5t18.5 -52.5v-847q0 -74 27.5 -138.5t74.5 -111.5t112.5 -76t137.5 -29q74 0 138.5 29t112.5 76t76.5 111.5t28.5 138.5v851q0 23 20.5 46.5t51.5 23.5t48 -24.5t17 -49.5v-847q0 -102 -39.5 -191.5t-105.5 -156 t-156 -105.5t-192 -39q-100 0 -190.5 39t-157 105.5t-104.5 156t-38 191.5zM395 1583q0 16 8 29l160 274q18 35 58 35q33 0 51 -22.5t18 -49.5q0 -18 -6 -30l-162 -273q-8 -18 -24.5 -26.5t-32.5 -8.5q-31 0 -50.5 23.5t-19.5 48.5zM625 1583q0 16 6 29l162 274q16 35 57 35 q31 0 49.5 -22.5t18.5 -49.5q0 -18 -7 -30l-161 -273q-8 -18 -23.5 -26.5t-34.5 -8.5q-31 0 -49 23.5t-18 48.5z" />
<glyph unicode="&#x171;" horiz-adv-x="1001" d="M104 397v607q0 29 19.5 49t48.5 20t49.5 -20.5t20.5 -48.5v-607q0 -53 20.5 -100t56 -83t83 -55.5t100.5 -19.5t99 19.5t81 53.5t55.5 79t24.5 96v617q0 29 19.5 49t48 20t48 -20.5t19.5 -48.5v-936q0 -29 -19.5 -48.5t-48 -19.5t-48 19.5t-19.5 48.5v30 q-51 -45 -117.5 -71.5t-142.5 -26.5q-82 0 -155 30.5t-127 85t-85 127t-31 154.5zM330 1243q0 16 8 29l160 274q18 35 57 35q33 0 51.5 -22.5t18.5 -49.5q0 -18 -7 -30l-161 -273q-8 -18 -24.5 -26.5t-33.5 -8.5q-31 0 -50 23.5t-19 48.5zM559 1243q0 16 6 29l162 274 q16 35 57 35q31 0 49.5 -22.5t18.5 -49.5q0 -18 -6 -30l-162 -273q-8 -18 -23.5 -26.5t-33.5 -8.5q-31 0 -49.5 23.5t-18.5 48.5z" />
<glyph unicode="&#x172;" horiz-adv-x="1181" d="M100 492v851q0 23 19.5 46.5t50.5 23.5t49.5 -21.5t18.5 -52.5v-847q0 -74 27.5 -138.5t74.5 -111.5t112.5 -76t137.5 -29q74 0 138.5 29t112.5 76t76.5 111.5t28.5 138.5v851q0 23 20.5 46.5t51.5 23.5t48 -24.5t17 -49.5v-847q0 -102 -39.5 -191.5t-105.5 -156 t-156 -105.5t-192 -39q-100 0 -190.5 39t-157 105.5t-104.5 156t-38 191.5zM442 -193q0 31 16.5 64t37 64.5t38 63.5t17.5 67h123q0 -41 -16.5 -78t-36.5 -68l-38 -58q-17 -28 -18 -55q0 -29 20.5 -48t49.5 -19q33 0 45 19.5t20.5 45t19.5 45t44 19.5q25 0 44 -18.5 t19 -43.5q0 -80 -57 -136t-135 -56q-80 0 -136.5 56t-56.5 136z" />
<glyph unicode="&#x173;" horiz-adv-x="1001" d="M104 397v607q0 29 19.5 49t48.5 20t49.5 -20.5t20.5 -48.5v-607q0 -53 20.5 -100t56 -83t83 -55.5t100.5 -19.5t99 19.5t81 53.5t55.5 79t24.5 96v617q0 29 19.5 49t48 20t48 -20.5t19.5 -48.5v-936q0 -29 -19.5 -48.5t-48 -19.5t-48 19.5t-19.5 48.5v30 q-51 -45 -117.5 -71.5t-142.5 -26.5q-82 0 -155 30.5t-127 85t-85 127t-31 154.5zM666 -186q0 31 16 63.5t36.5 64t38 63.5t17.5 67h123q0 -41 -16.5 -78t-36.5 -68l-38 -58q-17 -28 -18 -54q0 -29 20.5 -48.5t49.5 -19.5q33 0 45 19.5t20.5 45t19.5 45t44 19.5 q25 0 44.5 -18.5t19.5 -42.5q0 -80 -57.5 -136.5t-135.5 -56.5q-80 0 -136 56.5t-56 136.5z" />
<glyph unicode="&#x174;" horiz-adv-x="1953" d="M88 1348q0 27 19.5 46t50.5 19q18 0 36.5 -12t26.5 -29l416 -1116l270 1094q4 20 22.5 41.5t47.5 21.5t46 -19.5t26 -43.5l274 -1094l412 1116q8 16 24.5 28.5t38.5 12.5q31 0 48.5 -19.5t17.5 -45.5q0 -18 -4 -27l-471 -1270q-8 -20 -25.5 -35.5t-46.5 -15.5t-48.5 16.5 t-23.5 34.5l-268 1030l-262 -1030q-4 -20 -24.5 -35.5t-47.5 -15.5q-29 0 -46 16.5t-24 34.5l-479 1270q-6 13 -6 27zM600 1548.5q0 28.5 18 46.5l310 295q18 20 47 20.5t49 -20.5l309 -288q20 -20 20.5 -49t-19 -49.5t-48.5 -20.5t-49 20l-262 246l-258 -250 q-20 -20 -49 -20t-48.5 20.5t-19.5 49z" />
<glyph unicode="&#x175;" horiz-adv-x="1388" d="M94 1006q0 29 17.5 48t48.5 19q25 0 42 -11t23 -30l289 -784l104 278l-73 205l-51.5 138.5t-29.5 78t-9 27.5q-6 14 -6 31q0 29 16 48t49 19q23 0 41 -11t25 -30l112 -319l119 319q8 18 25.5 29.5t37.5 11.5q31 0 49.5 -21.5t18.5 -45.5q0 -12 -6 -27q-2 -2 -10 -25 l-28 -74l-52 -139l-80 -217l100 -276l299 784q6 18 24.5 29.5t37.5 11.5q33 0 51 -21.5t18 -45.5q0 -12 -6 -27q-2 -4 -16 -45t-53 -144l-107 -282l-174 -453q-8 -25 -25.5 -40t-48 -15t-49 18.5t-24.5 36.5l-54 150l-47 133q-25 -61 -50.5 -133l-55.5 -150 q-8 -25 -24.5 -40t-47.5 -15q-33 0 -51.5 18.5t-24.5 36.5l-157 430l-104 284l-57 156q-17 48 -18 50q-8 15 -8 31zM317 1237q0 29 19 47l309 295q18 20 47 20t49 -20l310 -289q20 -20 20 -49t-19.5 -49.5t-48 -20.5t-49.5 21l-262 246l-258 -250q-20 -20 -49 -20.5 t-48.5 20t-19.5 49.5z" />
<glyph unicode="&#x176;" horiz-adv-x="1144" d="M76 1343q0 27 18.5 47.5t48.5 20.5q39 0 58 -29l372 -555l371 555q20 29 57 29q29 0 49.5 -20.5t20.5 -47.5q0 -20 -12 -38l-418 -621v-616q0 -29 -19.5 -48.5t-48 -19.5t-49 19.5t-20.5 48.5v616l-416 621q-12 15 -12 38zM197 1570.5q0 28.5 18 47.5l309 295 q18 20 47 20t50 -20l309 -289q20 -20 20 -49t-19.5 -49.5t-48 -20.5t-48.5 21l-263 246l-258 -250q-20 -20 -48.5 -20.5t-48 20t-19.5 49z" />
<glyph unicode="&#x177;" horiz-adv-x="995" d="M74 1006q0 29 16 48t47 19q25 0 42.5 -11t23.5 -30l289 -784l299 784q6 18 23 29.5t38 11.5q31 0 49.5 -21.5t18.5 -45.5q0 -12 -7 -27l-503 -1335q-18 -43 -62 -43q-33 0 -51 20.5t-18 46.5q0 6 1 12.5t3 12.5l133 362l-157 430l-104 284l-58 156q-17 48 -17 50 q-6 15 -6 31zM121 1241q0 29 18 47l310 295q18 20 46.5 20.5t49.5 -20.5l309 -289q20 -20 20 -48.5t-19 -49t-48 -20.5t-49 20l-262 246l-258 -250q-20 -20 -49 -20.5t-48.5 20t-19.5 49.5z" />
<glyph unicode="&#x178;" horiz-adv-x="1144" d="M76 1343q0 27 18.5 47.5t48.5 20.5q39 0 58 -29l372 -555l371 555q20 29 57 29q29 0 49.5 -20.5t20.5 -47.5q0 -20 -12 -38l-418 -621v-616q0 -29 -19.5 -48.5t-48 -19.5t-49 19.5t-20.5 48.5v616l-416 621q-12 15 -12 38zM291 1618q0 39 26.5 65.5t63.5 26.5t63.5 -26.5 t26.5 -65.5q0 -37 -26.5 -63.5t-63.5 -26.5t-63.5 26.5t-26.5 63.5zM639 1618q0 39 26.5 65.5t65.5 26.5q37 0 63.5 -26.5t26.5 -65.5q0 -37 -26.5 -63.5t-63.5 -26.5q-39 0 -65.5 26.5t-26.5 63.5z" />
<glyph unicode="&#x179;" horiz-adv-x="1204" d="M78 68q0 18 12 43l842 1165h-787q-29 0 -48 20.5t-19 49t19.5 48t47.5 19.5h914q29 0 49 -19.5t20 -47.5q0 -18 -10 -34t-8 -14l-842 -1161h791q29 0 49 -19.5t20 -49.5q0 -29 -20.5 -48.5t-48.5 -19.5h-914q-29 0 -48 19.5t-19 48.5zM565 1569q0 16 8 28l183 320 q18 33 57 33q31 0 50.5 -21.5t19.5 -48.5q0 -18 -6 -33l-185 -315q-8 -18 -24.5 -26.5t-32.5 -8.5q-31 0 -50.5 23.5t-19.5 48.5z" />
<glyph unicode="&#x17a;" horiz-adv-x="1196" d="M94 65.5q0 26.5 21 51.5l753 819h-702q-29 0 -48.5 19.5t-19.5 48t19.5 49t48.5 20.5h862q25 0 46.5 -20.5t21.5 -47t-23 -53.5l-745 -815h704q29 0 49.5 -19.5t20.5 -49.5q0 -29 -20.5 -48.5t-49.5 -19.5h-868q-29 0 -49.5 19.5t-20.5 46zM528 1243q0 16 9 29l182 319 q18 33 57 33q31 0 50.5 -21.5t19.5 -48.5q0 -18 -6 -32l-185 -316q-8 -18 -24.5 -26.5t-32.5 -8.5q-31 0 -50.5 23.5t-19.5 48.5z" />
<glyph unicode="&#x17b;" horiz-adv-x="1204" d="M78 68q0 18 12 43l842 1165h-787q-29 0 -48 20.5t-19 49t19.5 48t47.5 19.5h914q29 0 49 -19.5t20 -47.5q0 -18 -10 -34t-8 -14l-842 -1161h791q29 0 49 -19.5t20 -49.5q0 -29 -20.5 -48.5t-48.5 -19.5h-914q-29 0 -48 19.5t-19 48.5zM518 1599q0 37 24.5 63t61.5 26 q39 0 63.5 -26t24.5 -63q0 -39 -24.5 -62.5t-63.5 -23.5q-37 0 -61.5 23.5t-24.5 62.5z" />
<glyph unicode="&#x17c;" horiz-adv-x="1196" d="M94 65.5q0 26.5 21 51.5l753 819h-702q-29 0 -48.5 19.5t-19.5 48t19.5 49t48.5 20.5h862q25 0 46.5 -20.5t21.5 -47t-23 -53.5l-745 -815h704q29 0 49.5 -19.5t20.5 -49.5q0 -29 -20.5 -48.5t-49.5 -19.5h-868q-29 0 -49.5 19.5t-20.5 46zM512 1262q0 37 24.5 62.5 t61.5 25.5q39 0 63.5 -26t24.5 -62q0 -39 -24.5 -62.5t-63.5 -23.5q-37 0 -61.5 23.5t-24.5 62.5z" />
<glyph unicode="&#x17d;" horiz-adv-x="1204" d="M78 68q0 18 12 43l842 1165h-787q-29 0 -48 20.5t-19 49t19.5 48t47.5 19.5h914q29 0 49 -19.5t20 -47.5q0 -18 -10 -34t-8 -14l-842 -1161h791q29 0 49 -19.5t20 -49.5q0 -29 -20.5 -48.5t-48.5 -19.5h-914q-29 0 -48 19.5t-19 48.5zM233 1863.5q0 28.5 19.5 49 t48.5 20.5t49 -20l258 -250l262 246q20 20 49 20t48.5 -20.5t19.5 -49t-20 -49.5l-308 -286q-23 -23 -51 -23t-47 21l-309 295q-19 18 -19 46.5z" />
<glyph unicode="&#x17e;" horiz-adv-x="1196" d="M94 65.5q0 26.5 21 51.5l753 819h-702q-29 0 -48.5 19.5t-19.5 48t19.5 49t48.5 20.5h862q25 0 46.5 -20.5t21.5 -47t-23 -53.5l-745 -815h704q29 0 49.5 -19.5t20.5 -49.5q0 -29 -20.5 -48.5t-49.5 -19.5h-868q-29 0 -49.5 19.5t-20.5 46zM244 1546.5q0 28.5 19.5 49 t48 20.5t48.5 -21l258 -249l263 245q20 20 48.5 20.5t48 -20t19.5 -49.5t-20 -49l-307 -287q-23 -23 -51.5 -22.5t-47.5 20.5l-309 295q-18 19 -18 47.5z" />
<glyph unicode="&#x192;" horiz-adv-x="835" d="M55 -303q0 29 19.5 49.5t48.5 20.5q74 0 118 28.5t68.5 66.5t32.5 74.5t8 53.5v694h-84q-29 0 -49 19.5t-20 48t20.5 49t48.5 20.5h84v291q0 47 18.5 109.5t61.5 118t111.5 94.5t171.5 39q29 0 48 -19.5t19 -48.5t-19.5 -49.5t-47.5 -20.5q-74 0 -118 -29.5t-68.5 -67.5 t-32 -74t-7.5 -52v-291h93q29 0 48 -20.5t19 -49t-19.5 -48t-47.5 -19.5h-93v-694q0 -49 -19 -111.5t-62.5 -118t-112 -93.5t-170.5 -38q-29 0 -48.5 19.5t-19.5 48.5z" />
<glyph unicode="&#x1fe;" horiz-adv-x="1581" d="M86 702q0 147 55.5 275.5t150.5 224.5t223 151.5t276 55.5q145 0 273 -55.5t224 -151.5t151.5 -224t55.5 -276q0 -145 -55.5 -273t-151.5 -223t-224 -150.5t-273 -55.5q-147 0 -275.5 55.5t-223.5 150.5t-150.5 223t-55.5 273zM223 702q0 -117 44 -220t121 -180 t180.5 -121t222.5 -44q117 0 220 44t181 121t122 180.5t44 219.5q0 119 -44 222.5t-122 181.5t-181.5 122t-219.5 44q-119 0 -222.5 -44t-180.5 -122t-121 -181.5t-44 -222.5zM504 66q0 10 4 22l426 1327q6 23 24.5 35t40.5 12q31 0 48.5 -22.5t17.5 -46.5q0 -12 -2 -19 l-424 -1327q-6 -23 -26.5 -36t-39.5 -13q-33 0 -51 22.5t-18 45.5zM635 1573q0 16 8 29l182 319q18 33 58 33q31 0 50 -21.5t19 -48.5q0 -18 -6 -33l-184 -315q-8 -18 -24.5 -26.5t-32.5 -8.5q-31 0 -50.5 23.5t-19.5 48.5z" />
<glyph unicode="&#x1ff;" d="M86 532q0 111 41 207.5t112.5 168t170 115.5t215.5 48q104 0 200.5 -43t170 -116.5t116.5 -171t43 -208.5q0 -109 -42 -205t-113.5 -168.5t-170 -114.5t-211.5 -42q-111 0 -207 40t-168.5 110.5t-114.5 167.5t-42 212zM223 532.5q0 -81.5 31 -153.5t85 -126t126 -85 t153.5 -31t155.5 31t128 85t85 126t31 153.5t-31 155.5t-85 127t-128 85t-155.5 32t-153.5 -32t-126 -85t-85 -127t-31 -155.5zM338 -129q0 10 4 23l426 1327q6 23 24.5 35t41.5 12q31 0 48 -22.5t17 -47.5q0 -12 -2 -18l-424 -1327q-6 -23 -26.5 -36.5t-38.5 -13.5 q-33 0 -51.5 22.5t-18.5 45.5zM461 1255q0 16 8 29l182 320q18 33 58 32q31 0 50 -21.5t19 -47.5q0 -18 -6 -33l-184 -315q-8 -18 -24.5 -26.5t-33.5 -8.5q-31 0 -50 23t-19 48z" />
<glyph unicode="&#x218;" horiz-adv-x="1064" d="M78 264q0 25 20.5 47.5t51.5 22.5q43 0 63 -35q18 -41 57 -70.5t86 -50t94.5 -31t84.5 -10.5q61 0 118.5 22.5t100.5 59.5t69.5 89t26.5 111.5t-23.5 104.5t-65.5 78t-99.5 59.5t-124.5 49.5q-66 18 -139.5 49t-135 72.5t-101.5 98t-40 128.5q0 84 38 149.5t97 110.5 t134 68.5t147 23.5q49 0 101 -8t103.5 -27.5t98.5 -55.5t88 -91q12 -18 12 -45q0 -31 -18.5 -52.5t-49.5 -21.5q-41 0 -63 35q-27 45 -61.5 70.5t-71.5 39t-74 16.5t-65 3q-43 0 -92.5 -11.5t-90.5 -35t-67.5 -64.5t-26.5 -104q0 -43 39 -79t94.5 -62.5t115.5 -46t101 -35.5 q84 -31 152.5 -66t119 -84t78 -113.5t27.5 -152.5t-38 -166t-101.5 -134.5t-145 -88t-170.5 -31.5q-61 0 -128.5 16.5t-128 46t-110.5 71.5t-77 93q-10 19 -10 37z" />
<glyph unicode="&#x219;" horiz-adv-x="962" d="M90 260q0 29 19.5 51.5t50.5 22.5q25 0 43 -14.5t28 -38.5q29 -70 98.5 -107t147.5 -37q109 0 185.5 50.5t76.5 140.5q0 72 -75.5 123t-186.5 67q-158 23 -257 87.5t-99 189.5q0 78 31.5 130t82 85.5t115 48t127.5 14.5q53 0 113.5 -12t111 -37t84 -59.5t33.5 -83.5 q0 -25 -17.5 -48.5t-53.5 -23.5q-41 0 -64 49q-20 43 -77.5 63.5t-129.5 20.5q-37 0 -76 -5t-69.5 -22.5t-52 -46t-21.5 -73.5q0 -33 21.5 -57.5t53.5 -41t70.5 -25.5t73.5 -16q82 -14 153.5 -39.5t126 -65.5t87.5 -95.5t33 -126.5q0 -74 -32 -134.5t-85 -103.5t-127 -66.5 t-156 -23.5q-139 0 -243.5 64.5t-141.5 177.5q-2 6 -2 18z" />
<glyph unicode="&#x237;" horiz-adv-x="321" d="M-197 -331.5q0 28.5 19.5 48t48.5 19.5q74 0 118 29.5t68.5 67.5t32.5 75t8 53v1045q0 29 19.5 49t48.5 20t48 -20.5t19 -48.5v-1045q0 -49 -18 -111.5t-61 -118t-112 -93t-171 -37.5q-29 0 -48.5 19.5t-19.5 48z" />
<glyph unicode="&#x2c6;" horiz-adv-x="956" d="M104 1540q0 29 19 47l309 295q18 20 47 20.5t49 -20.5l310 -289q20 -20 20 -48.5t-19.5 -49t-48 -20.5t-49.5 20l-262 246l-258 -250q-20 -20 -49 -20.5t-48.5 20t-19.5 49.5z" />
<glyph unicode="&#x2c7;" horiz-adv-x="950" d="M104 1833q0 29 19.5 49.5t48.5 20.5t49 -21l258 -250l262 246q20 20 49 20t48.5 -20t19.5 -49t-20 -49l-308 -287q-23 -23 -51 -23t-47 21l-309 295q-19 18 -19 47z" />
<glyph unicode="&#x2d8;" horiz-adv-x="950" d="M94 1829q0 29 20.5 49t49.5 20t48 -20t19 -49q0 -41 27 -77t64.5 -62.5t78.5 -41t72 -14.5t72 14.5t79 41t64.5 62.5t26.5 77q0 29 19.5 49t48 20t49 -20t20.5 -49q0 -59 -30.5 -118.5t-84 -108t-122 -77t-142.5 -28.5t-141.5 28.5t-120.5 77t-85 108t-32 118.5z" />
<glyph unicode="&#x2d9;" horiz-adv-x="1929" d="M668 1348q0 37 24.5 62.5t61.5 25.5q39 0 63.5 -26t24.5 -62q0 -39 -24.5 -62.5t-63.5 -23.5q-37 0 -61.5 23.5t-24.5 62.5z" />
<glyph unicode="&#x2da;" horiz-adv-x="1501" d="M545 1348q0 88 60.5 149.5t148.5 61.5t150.5 -61.5t62.5 -149.5t-62.5 -149.5t-150.5 -61.5t-148.5 61.5t-60.5 149.5zM676 1348q0 -37 21.5 -57.5t56.5 -20.5q37 0 58.5 20.5t21.5 57.5q0 35 -21.5 57t-58.5 22q-35 0 -56.5 -22t-21.5 -57z" />
<glyph unicode="&#x2db;" horiz-adv-x="532" d="M74 -215q0 31 16 63.5t36.5 64.5t38 63.5t17.5 66.5h123q0 -41 -16.5 -78t-36.5 -67l-38 -59q-17 -28 -17 -54q0 -29 20.5 -48.5t48.5 -19.5q33 0 45.5 19.5t20.5 45t19 45t44 19.5q25 0 44.5 -18t19.5 -43q0 -80 -57.5 -136.5t-135.5 -56.5q-80 0 -136 56.5t-56 136.5z " />
<glyph unicode="&#x2dc;" horiz-adv-x="1073" d="M94 1208q0 25 30 62t72 72.5t91 61.5t92 26q45 0 91 -27t89 -60l80 -58q37 -26 70 -25q41 0 69.5 23.5t49.5 52.5l41 55q19 25 46 24q31 0 46.5 -20.5t15.5 -44.5q0 -39 -27.5 -78t-68.5 -71t-88.5 -51.5t-83.5 -19.5q-47 0 -89 27t-83 57l-80 58q-39 27 -78 26 q-27 0 -51.5 -13t-47 -32.5t-39.5 -42.5l-32 -41q-16 -25 -49 -24q-25 0 -45.5 18t-20.5 45z" />
<glyph unicode="&#x2dd;" horiz-adv-x="808" d="M63 1198q0 16 9 29l159 274q18 35 58 35q33 0 51 -22.5t18 -49.5q0 -18 -6 -30l-162 -273q-8 -18 -24 -26.5t-33 -8.5q-31 0 -50.5 23.5t-19.5 48.5zM293 1198q0 16 6 29l162 274q16 35 57 35q31 0 49.5 -22.5t18.5 -49.5q0 -18 -6 -30l-162 -273q-8 -18 -23.5 -26.5 t-34.5 -8.5q-31 0 -49 23.5t-18 48.5z" />
<glyph unicode="&#x1e80;" horiz-adv-x="1953" d="M88 1348q0 27 19.5 46t50.5 19q18 0 36.5 -12t26.5 -29l416 -1116l270 1094q4 20 22.5 41.5t47.5 21.5t46 -19.5t26 -43.5l274 -1094l412 1116q8 16 24.5 28.5t38.5 12.5q31 0 48.5 -19.5t17.5 -45.5q0 -18 -4 -27l-471 -1270q-8 -20 -25.5 -35.5t-46.5 -15.5t-48.5 16.5 t-23.5 34.5l-268 1030l-262 -1030q-4 -20 -24.5 -35.5t-47.5 -15.5q-29 0 -46 16.5t-24 34.5l-479 1270q-6 13 -6 27zM711 1880q0 23 19.5 46.5t49.5 23.5q18 0 33.5 -7.5t24.5 -25.5l184 -318q6 -16 6 -30q0 -27 -19.5 -48.5t-50.5 -21.5q-41 0 -57 33l-182 319 q-8 13 -8 29z" />
<glyph unicode="&#x1e81;" horiz-adv-x="1388" d="M94 1006q0 29 17.5 48t48.5 19q25 0 42 -11t23 -30l289 -784l104 278l-73 205l-51.5 138.5t-29.5 78t-9 27.5q-6 14 -6 31q0 29 16 48t49 19q23 0 41 -11t25 -30l112 -319l119 319q8 18 25.5 29.5t37.5 11.5q31 0 49.5 -21.5t18.5 -45.5q0 -12 -6 -27q-2 -2 -10 -25 l-28 -74l-52 -139l-80 -217l100 -276l299 784q6 18 24.5 29.5t37.5 11.5q33 0 51 -21.5t18 -45.5q0 -12 -6 -27q-2 -4 -16 -45t-53 -144l-107 -282l-174 -453q-8 -25 -25.5 -40t-48 -15t-49 18.5t-24.5 36.5l-54 150l-47 133q-25 -61 -50.5 -133l-55.5 -150 q-8 -25 -24.5 -40t-47.5 -15q-33 0 -51.5 18.5t-24.5 36.5l-157 430l-104 284l-57 156q-17 48 -18 50q-8 15 -8 31zM440 1556q0 23 19.5 46.5t50.5 23.5q18 0 33.5 -7t23.5 -26l185 -317q6 -16 6 -31q0 -27 -19.5 -48t-50.5 -21q-41 0 -57 32l-182 320q-9 12 -9 28z" />
<glyph unicode="&#x1e82;" horiz-adv-x="1953" d="M88 1348q0 27 19.5 46t50.5 19q18 0 36.5 -12t26.5 -29l416 -1116l270 1094q4 20 22.5 41.5t47.5 21.5t46 -19.5t26 -43.5l274 -1094l412 1116q8 16 24.5 28.5t38.5 12.5q31 0 48.5 -19.5t17.5 -45.5q0 -18 -4 -27l-471 -1270q-8 -20 -25.5 -35.5t-46.5 -15.5t-48.5 16.5 t-23.5 34.5l-268 1030l-262 -1030q-4 -20 -24.5 -35.5t-47.5 -15.5q-29 0 -46 16.5t-24 34.5l-479 1270q-6 13 -6 27zM905 1583q0 16 8 29l183 319q18 33 57 33q31 0 50.5 -21.5t19.5 -48.5q0 -18 -6 -32l-185 -316q-8 -18 -24.5 -26.5t-32.5 -8.5q-31 0 -50.5 23.5 t-19.5 48.5z" />
<glyph unicode="&#x1e83;" horiz-adv-x="1388" d="M94 1006q0 29 17.5 48t48.5 19q25 0 42 -11t23 -30l289 -784l104 278l-73 205l-51.5 138.5t-29.5 78t-9 27.5q-6 14 -6 31q0 29 16 48t49 19q23 0 41 -11t25 -30l112 -319l119 319q8 18 25.5 29.5t37.5 11.5q31 0 49.5 -21.5t18.5 -45.5q0 -12 -6 -27q-2 -2 -10 -25 l-28 -74l-52 -139l-80 -217l100 -276l299 784q6 18 24.5 29.5t37.5 11.5q33 0 51 -21.5t18 -45.5q0 -12 -6 -27q-2 -4 -16 -45t-53 -144l-107 -282l-174 -453q-8 -25 -25.5 -40t-48 -15t-49 18.5t-24.5 36.5l-54 150l-47 133q-25 -61 -50.5 -133l-55.5 -150 q-8 -25 -24.5 -40t-47.5 -15q-33 0 -51.5 18.5t-24.5 36.5l-157 430l-104 284l-57 156q-17 48 -18 50q-8 15 -8 31zM627 1235q0 16 8 29l182 319q18 33 57 33q31 0 50.5 -21.5t19.5 -48.5q0 -18 -6 -33l-184 -315q-8 -18 -24.5 -26.5t-33.5 -8.5q-31 0 -50 23.5t-19 48.5z " />
<glyph unicode="&#x1e84;" horiz-adv-x="1953" d="M88 1348q0 27 19.5 46t50.5 19q18 0 36.5 -12t26.5 -29l416 -1116l270 1094q4 20 22.5 41.5t47.5 21.5t46 -19.5t26 -43.5l274 -1094l412 1116q8 16 24.5 28.5t38.5 12.5q31 0 48.5 -19.5t17.5 -45.5q0 -18 -4 -27l-471 -1270q-8 -20 -25.5 -35.5t-46.5 -15.5t-48.5 16.5 t-23.5 34.5l-268 1030l-262 -1030q-4 -20 -24.5 -35.5t-47.5 -15.5q-29 0 -46 16.5t-24 34.5l-479 1270q-6 13 -6 27zM713 1606q0 39 26.5 65.5t63.5 26.5t63.5 -26.5t26.5 -65.5q0 -37 -26.5 -63.5t-63.5 -26.5t-63.5 26.5t-26.5 63.5zM1061 1606q0 39 26.5 65.5t65.5 26.5 q37 0 63.5 -26.5t26.5 -65.5q0 -37 -26.5 -63.5t-63.5 -26.5q-39 0 -65.5 26.5t-26.5 63.5z" />
<glyph unicode="&#x1e85;" horiz-adv-x="1388" d="M94 1006q0 29 17.5 48t48.5 19q25 0 42 -11t23 -30l289 -784l104 278l-73 205l-51.5 138.5t-29.5 78t-9 27.5q-6 14 -6 31q0 29 16 48t49 19q23 0 41 -11t25 -30l112 -319l119 319q8 18 25.5 29.5t37.5 11.5q31 0 49.5 -21.5t18.5 -45.5q0 -12 -6 -27q-2 -2 -10 -25 l-28 -74l-52 -139l-80 -217l100 -276l299 784q6 18 24.5 29.5t37.5 11.5q33 0 51 -21.5t18 -45.5q0 -12 -6 -27q-2 -4 -16 -45t-53 -144l-107 -282l-174 -453q-8 -25 -25.5 -40t-48 -15t-49 18.5t-24.5 36.5l-54 150l-47 133q-25 -61 -50.5 -133l-55.5 -150 q-8 -25 -24.5 -40t-47.5 -15q-33 0 -51.5 18.5t-24.5 36.5l-157 430l-104 284l-57 156q-17 48 -18 50q-8 15 -8 31zM430 1264q0 39 26.5 65.5t63.5 26.5t63.5 -26.5t26.5 -65.5q0 -37 -26.5 -63.5t-63.5 -26.5t-63.5 26.5t-26.5 63.5zM778 1264q0 39 26.5 65.5t65.5 26.5 q37 0 64 -26.5t27 -65.5q0 -37 -27 -63.5t-64 -26.5q-39 0 -65.5 26.5t-26.5 63.5z" />
<glyph unicode="&#x1ef2;" horiz-adv-x="1144" d="M76 1343q0 27 18.5 47.5t48.5 20.5q39 0 58 -29l372 -555l371 555q20 29 57 29q29 0 49.5 -20.5t20.5 -47.5q0 -20 -12 -38l-418 -621v-616q0 -29 -19.5 -48.5t-48 -19.5t-49 19.5t-20.5 48.5v616l-416 621q-12 15 -12 38zM305 1894q0 23 19.5 46.5t50.5 23.5 q18 0 33.5 -7t23.5 -26l184 -317q6 -16 7 -31q0 -27 -19.5 -48.5t-50.5 -21.5q-41 0 -57 33l-183 320q-8 12 -8 28z" />
<glyph unicode="&#x1ef3;" horiz-adv-x="995" d="M74 1006q0 29 16 48t47 19q25 0 42.5 -11t23.5 -30l289 -784l299 784q6 18 23 29.5t38 11.5q31 0 49.5 -21.5t18.5 -45.5q0 -12 -7 -27l-503 -1335q-18 -43 -62 -43q-33 0 -51 20.5t-18 46.5q0 6 1 12.5t3 12.5l133 362l-157 430l-104 284l-58 156q-17 48 -17 50 q-6 15 -6 31zM248 1554q0 23 19.5 46.5t49.5 23.5q18 0 34 -7t24 -26l184 -317q6 -16 6 -31q0 -27 -19.5 -48t-49.5 -21q-41 0 -58 32l-182 320q-8 12 -8 28z" />
<glyph unicode="&#x2000;" horiz-adv-x="980" />
<glyph unicode="&#x2001;" horiz-adv-x="1964" />
<glyph unicode="&#x2002;" horiz-adv-x="980" />
<glyph unicode="&#x2003;" horiz-adv-x="1964" />
<glyph unicode="&#x2004;" horiz-adv-x="653" />
<glyph unicode="&#x2005;" horiz-adv-x="489" />
<glyph unicode="&#x2006;" horiz-adv-x="325" />
<glyph unicode="&#x2007;" horiz-adv-x="325" />
<glyph unicode="&#x2008;" horiz-adv-x="243" />
<glyph unicode="&#x2009;" horiz-adv-x="391" />
<glyph unicode="&#x200a;" horiz-adv-x="108" />
<glyph unicode="&#x2010;" horiz-adv-x="1026" d="M104 688q0 29 19.5 48.5t48.5 19.5h682q29 0 48.5 -19.5t19.5 -48.5t-19.5 -49.5t-48.5 -20.5h-682q-29 0 -48.5 20.5t-19.5 49.5z" />
<glyph unicode="&#x2011;" horiz-adv-x="1026" d="M104 688q0 29 19.5 48.5t48.5 19.5h682q29 0 48.5 -19.5t19.5 -48.5t-19.5 -49.5t-48.5 -20.5h-682q-29 0 -48.5 20.5t-19.5 49.5z" />
<glyph unicode="&#x2012;" horiz-adv-x="1026" d="M104 688q0 29 19.5 48.5t48.5 19.5h682q29 0 48.5 -19.5t19.5 -48.5t-19.5 -49.5t-48.5 -20.5h-682q-29 0 -48.5 20.5t-19.5 49.5z" />
<glyph unicode="&#x2013;" horiz-adv-x="1026" d="M104 688q0 29 19.5 48.5t48.5 19.5h682q29 0 48.5 -19.5t19.5 -48.5t-19.5 -49.5t-48.5 -20.5h-682q-29 0 -48.5 20.5t-19.5 49.5z" />
<glyph unicode="&#x2014;" horiz-adv-x="1234" d="M104 688q0 29 19.5 48.5t48.5 19.5h891q31 0 50.5 -19.5t19.5 -48.5t-19.5 -49.5t-50.5 -20.5h-891q-29 0 -48.5 20.5t-19.5 49.5z" />
<glyph unicode="&#x2018;" horiz-adv-x="448" d="M66 1339q0 23 18 45.5t49 22.5q41 0 62 -33l182 -317q6 -12 6 -31q0 -29 -20.5 -51.5t-51.5 -22.5q-39 0 -57 39l-178 316q-10 16 -10 32z" />
<glyph unicode="&#x2019;" horiz-adv-x="450" d="M66 1022q0 18 10 33l178 317q16 35 57 35q31 0 51.5 -21.5t20.5 -52.5q0 -14 -6 -28l-182 -316q-23 -37 -62 -37q-31 0 -49 22.5t-18 47.5z" />
<glyph unicode="&#x201a;" horiz-adv-x="337" d="M63 -399q0 2 1.5 9t8.5 45l21 119l41 228q4 27 21.5 48.5t46 21.5t49 -20.5t20.5 -49.5q0 -4 -3 -15.5t-16 -49.5l-41 -117l-79 -219q-12 -35 -35 -35q-35 0 -35 35z" />
<glyph unicode="&#x201c;" horiz-adv-x="786" d="M88 1331q0 31 20.5 52.5t51.5 21.5q41 0 57 -35l178 -317q10 -14 11 -33q0 -25 -18.5 -47.5t-49.5 -22.5q-39 0 -62 37l-182 316q-6 14 -6 28zM381 1331q0 31 19.5 52.5t50.5 21.5q43 0 57 -35l180 -317q8 -14 8 -33q0 -25 -17 -47.5t-48 -22.5q-41 0 -62 37l-182 316 q-6 14 -6 28z" />
<glyph unicode="&#x201d;" horiz-adv-x="786" d="M88 1020q0 18 10 33l178 317q16 35 58 35q31 0 51.5 -21.5t20.5 -52.5q0 -14 -9 -28l-180 -316q-23 -37 -61 -37q-33 0 -50.5 22.5t-17.5 47.5zM381 1020q0 18 8 33l180 317q14 35 58 35q31 0 50 -21.5t19 -52.5q0 -14 -6 -28l-182 -316q-20 -37 -62 -37q-31 0 -48 22.5 t-17 47.5z" />
<glyph unicode="&#x201e;" horiz-adv-x="792" d="M88 -399q0 2 1 9t8 45l22 119l41 228q4 27 21.5 48.5t46 21.5t49 -20.5t20.5 -49.5q0 -4 -4 -15.5t-16.5 -50l-39.5 -116.5l-79 -219q-12 -35 -37 -35q-33 0 -33 35zM496 -399q0 2 1 9t7 45t21.5 119t39.5 228q6 27 23.5 48.5t46.5 21.5t48 -20.5t19 -49.5q0 -4 -3 -15.5 t-16 -49.5l-41 -117l-79 -219q-10 -35 -35 -35q-32 0 -32 35z" />
<glyph unicode="&#x2020;" horiz-adv-x="915" d="M49 872q0 29 19.5 48.5t48.5 19.5h272v469q0 29 20.5 48.5t49 19.5t48 -19.5t19.5 -48.5v-469h273q29 0 48 -19.5t19 -48.5q0 -31 -19.5 -50t-47.5 -19h-273v-1086q0 -29 -19.5 -49t-48 -20t-49 20.5t-20.5 48.5v1086h-272q-29 0 -48.5 19t-19.5 50z" />
<glyph unicode="&#x2021;" horiz-adv-x="892" d="M51 491.5q0 28.5 19.5 48t48.5 19.5h256v420h-256q-29 0 -48.5 20.5t-19.5 49t19.5 48t48.5 19.5h256v291q0 29 19.5 48.5t48 19.5t48 -19.5t19.5 -48.5v-291h262q29 0 48.5 -19.5t19.5 -48t-19.5 -49t-48.5 -20.5h-262v-420h262q29 0 48.5 -19.5t19.5 -48t-19.5 -49 t-48.5 -20.5h-262v-707q0 -29 -19.5 -49t-48 -20t-48 20.5t-19.5 48.5v707h-256q-29 0 -48.5 20.5t-19.5 49z" />
<glyph unicode="&#x2022;" horiz-adv-x="516" d="M86 532q0 74 52 124.5t118 50.5q41 0 72.5 -16.5t55.5 -41t36 -56.5t12 -61q0 -70 -52 -120t-124 -50q-70 0 -120 50t-50 120z" />
<glyph unicode="&#x2026;" horiz-adv-x="1236" d="M102 90q0 39 27 65.5t63.5 26.5t63.5 -26.5t27 -65.5q0 -37 -27 -63.5t-63.5 -26.5t-63.5 26.5t-27 63.5zM528 90q0 39 27 65.5t63 26.5q39 0 66 -26.5t27 -65.5q0 -37 -27 -63.5t-66 -26.5q-37 0 -63.5 26.5t-26.5 63.5zM956 90q0 39 26 65.5t65 26.5q37 0 63.5 -26.5 t26.5 -65.5q0 -37 -27 -63.5t-63 -26.5q-39 0 -65 26.5t-26 63.5z" />
<glyph unicode="&#x202f;" horiz-adv-x="391" />
<glyph unicode="&#x2030;" horiz-adv-x="2197" d="M76 1151q0 66 25.5 123t68.5 100t100.5 68.5t122.5 25.5q68 0 125 -25.5t100.5 -68.5t69 -100t25.5 -123q0 -68 -25.5 -125t-69 -100t-100.5 -69t-125 -26q-66 0 -123 26t-100 69t-68.5 100t-25.5 125zM213 1151q0 -76 53 -129t127 -53q76 0 129 53t53 129q0 74 -53 127 t-129 53q-74 0 -127 -53t-53 -127zM432 61q0 16 4 25l443 1327q6 23 24.5 37t42.5 14q29 0 47.5 -24.5t18.5 -46.5q0 -12 -4 -17l-443 -1329q-8 -25 -26.5 -37t-40.5 -12q-31 0 -48.5 19t-17.5 44zM748 315q0 68 25.5 125.5t68.5 100.5t100 68.5t125 25.5q66 0 123 -25.5 t100 -68.5t68.5 -100.5t25.5 -125.5q0 -66 -25.5 -123t-68.5 -100t-100 -68.5t-123 -25.5q-68 0 -125 25.5t-100 68.5t-68.5 100t-25.5 123zM885 315q0 -74 53 -127t129 -53q74 0 127 53.5t53 126.5q0 76 -53 129.5t-127 53.5q-76 0 -129 -53.5t-53 -129.5zM1487 315 q0 68 25.5 125.5t68.5 100.5t100.5 68.5t122.5 25.5q68 0 125.5 -25.5t100.5 -68.5t68.5 -100.5t25.5 -125.5q0 -66 -25.5 -123t-68.5 -100t-100.5 -68.5t-125.5 -25.5q-66 0 -123 25.5t-100 68.5t-68.5 100t-25.5 123zM1624 315q0 -74 53.5 -127t126.5 -53q76 0 129.5 53.5 t53.5 126.5q0 76 -53.5 129.5t-129.5 53.5q-74 0 -127 -53.5t-53 -129.5z" />
<glyph unicode="&#x2039;" horiz-adv-x="765" d="M78 524.5q0 28.5 20 48.5l473 445q18 20 47 20t49.5 -20.5t20.5 -49t-20 -48.5l-422 -396l422 -403q20 -18 20 -47t-20.5 -49.5t-49 -20.5t-47.5 21l-473 450q-20 21 -20 49.5z" />
<glyph unicode="&#x203a;" horiz-adv-x="763" d="M78 73.5q0 28.5 20 47.5l422 403l-422 396q-20 20 -20 48.5t19.5 49t48 20.5t49.5 -20l473 -445q20 -20 20 -48.5t-20 -49.5l-473 -450q-20 -20 -49 -20.5t-48.5 20t-19.5 49z" />
<glyph unicode="&#x2044;" horiz-adv-x="679" d="M57 66q0 10 4 22l426 1327q6 23 24.5 35t41.5 12q31 0 48 -22.5t17 -46.5q0 -12 -2 -19l-423 -1327q-6 -23 -27 -36t-39 -13q-33 0 -51.5 22.5t-18.5 45.5z" />
<glyph unicode="&#x205f;" horiz-adv-x="489" />
<glyph unicode="&#x20ac;" horiz-adv-x="1249" d="M84 536.5q0 28.5 19.5 49t50.5 20.5h41v205h-41q-31 0 -50.5 20.5t-19.5 49t19.5 48t50.5 19.5h41q6 100 48 188.5t111.5 153t159.5 102.5t195 38q141 0 258.5 -71t185.5 -188q8 -14 8 -36q0 -27 -16.5 -47.5t-48.5 -20.5q-18 0 -35 8t-29 27q-47 84 -134 137t-189 53 q-74 0 -140.5 -26.5t-116 -73.5t-82 -109.5t-38.5 -134.5h229q29 0 49.5 -19.5t20.5 -48t-20.5 -49t-49.5 -20.5h-229v-205h229q29 0 49.5 -20.5t20.5 -49t-20.5 -48t-49.5 -19.5h-229q6 -74 36.5 -136.5t82 -110.5t117 -74.5t141.5 -26.5q104 0 191 52t134 136q23 33 64 33 q31 0 48 -20.5t17 -47.5q0 -18 -10 -41q-68 -113 -185.5 -181t-258.5 -68q-104 0 -195.5 37.5t-160 103t-110.5 154t-48 190.5h-41q-31 0 -50.5 19.5t-19.5 48z" />
<glyph unicode="&#x2122;" horiz-adv-x="1871" d="M98 1349.5q0 28.5 19.5 48t48.5 19.5h434q29 0 48.5 -19.5t19.5 -48t-19.5 -49t-48.5 -20.5h-149v-440q0 -29 -19.5 -48.5t-48.5 -19.5t-49.5 19.5t-20.5 48.5v440h-147q-29 0 -48.5 20.5t-19.5 49zM748 838v290q0 59 22.5 112.5t62 93.5t92 62.5t113.5 22.5 q66 0 124.5 -27.5t99.5 -74.5q39 45 96 73.5t127 28.5q59 0 112.5 -21.5t91 -61.5t61.5 -92t24 -111v-295q0 -29 -19.5 -48.5t-48.5 -19.5t-49.5 19.5t-20.5 48.5v297q-6 66 -49 106.5t-102 40.5q-66 0 -111 -45t-45 -109v-290q0 -29 -19.5 -48.5t-48 -19.5t-49 19.5 t-20.5 48.5v297q-4 63 -48 105t-106 42q-66 0 -109.5 -44t-43.5 -103v-297q0 -29 -19.5 -48.5t-48.5 -19.5q-31 0 -50 19.5t-19 48.5z" />
<glyph unicode="&#x2212;" horiz-adv-x="1026" d="M104 688q0 29 19.5 48.5t48.5 19.5h682q29 0 48.5 -19.5t19.5 -48.5t-19.5 -49.5t-48.5 -20.5h-682q-29 0 -48.5 20.5t-19.5 49.5z" />
<glyph unicode="&#xe000;" horiz-adv-x="1070" d="M0 1070h1070v-1070h-1070v1070z" />
<glyph unicode="&#xfb01;" horiz-adv-x="890" d="M59 1005.5q0 28.5 20.5 49t49.5 20.5h90v47q0 59 22.5 112.5t61.5 92.5t92.5 62.5t114.5 23.5q31 0 50.5 -19.5t19.5 -48t-19.5 -49t-50.5 -20.5q-63 0 -108.5 -45t-45.5 -109v-47h369q27 -2 46.5 -22.5t19.5 -46.5v-938q0 -29 -20.5 -48.5t-49.5 -19.5t-48.5 19.5 t-19.5 48.5v870h-297v-870q0 -29 -20.5 -48.5t-49 -19.5t-48 19.5t-19.5 48.5v870h-90q-29 0 -49.5 19.5t-20.5 48zM631 1323q0 37 26.5 63.5t63.5 26.5t63.5 -26.5t26.5 -63.5q0 -39 -26.5 -64.5t-63.5 -25.5t-63.5 25.5t-26.5 64.5z" />
<glyph unicode="&#xfb02;" horiz-adv-x="905" d="M59 1005.5q0 28.5 20.5 49t49.5 20.5h90v47q0 59 22.5 112.5t61.5 92.5t92.5 62.5t114.5 23.5h217q29 0 49.5 -19.5t20.5 -47.5v-1278q0 -29 -20.5 -48.5t-49.5 -19.5t-48.5 19.5t-19.5 48.5v1208h-149q-63 0 -108.5 -45t-45.5 -109v-47h150q29 0 49 -20.5t20 -49 t-20 -48t-49 -19.5h-150v-870q0 -29 -20.5 -48.5t-49 -19.5t-48 19.5t-19.5 48.5v870h-90q-29 0 -49.5 19.5t-20.5 48z" />
<glyph horiz-adv-x="919" d="M88 1020q0 18 10 33l178 317q16 35 58 35q31 0 51.5 -21.5t20.5 -52.5q0 -14 -9 -28l-180 -316q-23 -37 -61 -37q-33 0 -50.5 22.5t-17.5 47.5zM516 1020q0 18 8 33l178 317q16 35 60 35q31 0 50 -21.5t19 -52.5q0 -14 -6 -28l-182 -316q-23 -37 -61 -37 q-31 0 -48.5 22.5t-17.5 47.5z" />
<glyph horiz-adv-x="653" />
<glyph horiz-adv-x="1566" d="M90 73.5q0 28.5 21 47.5l421 403l-421 396q-20 20 -20.5 48.5t20 49t49 20.5t49.5 -20l473 -445q18 -20 18 -48.5t-18 -49.5l-473 -450q-20 -20 -49 -20.5t-49.5 20t-20.5 49zM864 73.5q0 28.5 21 47.5l422 403l-422 396q-20 20 -20.5 48.5t20 49t49.5 20.5t49 -20 l473 -445q18 -20 18.5 -48.5t-18.5 -49.5l-473 -450q-20 -20 -49 -20.5t-49.5 20t-20.5 49z" />
<glyph horiz-adv-x="741" d="M303 131q0 29 19.5 48.5t48 19.5t49 -19.5t20.5 -48.5v-342q0 -23 -20.5 -45.5t-49 -22.5t-48 19.5t-19.5 48.5v342z" />
<glyph horiz-adv-x="741" d="M303 -268q0 29 19.5 49t48 20t49 -20.5t20.5 -48.5v-340q0 -25 -20.5 -46.5t-49 -21.5t-48 19.5t-19.5 48.5v340z" />
<glyph horiz-adv-x="0" />
<glyph horiz-adv-x="339" />
<glyph horiz-adv-x="0" />
</font>
</defs>
</svg>
