<?xml version="1.0" standalone="no"?>
<!DOCTYPE svg PUBLIC "-//W3C//DTD SVG 1.1//EN" "http://www.w3.org/Graphics/SVG/1.1/DTD/svg11.dtd" >
<svg xmlns="http://www.w3.org/2000/svg">
<metadata>
This is a custom SVG webfont generated by Font Squirrel.
Copyright   : Converted by ALLTYPE
</metadata>
<defs>
<font id="Freehand575Regular" horiz-adv-x="1002" >
<font-face units-per-em="1000" ascent="800" descent="-200" />
<missing-glyph horiz-adv-x="414" />
<glyph unicode=" "  horiz-adv-x="414" />
<glyph unicode="&#x09;" horiz-adv-x="414" />
<glyph unicode="&#xa0;" horiz-adv-x="414" />
<glyph unicode="!" horiz-adv-x="424" d="M197 279q-2 -20 -5 -32.5t-8 -19.5q-7 -7 -17 -10t-27 -3q-11 0 -18.5 2.5t-14.5 3.5q-5 4 -7.5 9t-2.5 11q0 31 12.5 100t39.5 176q26 107 59.5 215.5t75.5 220.5l3 10q25 62 51 94.5t53 32.5q13 0 25 -4.5t22 -12.5q10 -7 14 -16t4 -17v-8q0 -4 -3 -7q-2 -4 -6 -10 l-9 -15q-17 -42 -40 -112l-57 -169l-69 -207l-75 -234v2zM72 -13q-17 0 -31 2.5t-24 10.5q-10 3 -13.5 12.5t-3.5 20.5q0 24 8.5 44t28.5 38q20 19 39 28t36 9q13 0 21.5 -4t15.5 -13q6 -8 9.5 -20.5t3.5 -27.5q0 -22 -6.5 -39.5t-20.5 -34.5q-13 -13 -29 -19.5t-34 -6.5z " />
<glyph unicode="&#x22;" horiz-adv-x="480" d="M404 1169v-451h-97v451h97zM172 1169v-451h-97v451h97z" />
<glyph unicode="#" horiz-adv-x="1284" d="M793 701h-215l-79 -220h216zM752 1186l-136 -384h212l137 384h115l-133 -384h250l-35 -101h-254l-75 -220h269l-35 -100h-270l-137 -381h-117l137 381h-217l-137 -381h-117l137 381h-262l35 100h262l77 220h-279l35 101h280l137 384h121z" />
<glyph unicode="$" horiz-adv-x="826" d="M553 1010q18 84 36.5 144t35.5 97q11 25 23 41t23 22q5 5 12 7t12 2q8 0 14.5 -2.5t10.5 -6.5q5 -5 7.5 -12.5t2.5 -17.5q0 -6 -2.5 -16t-7.5 -24v-2v-1q-4 -22 -11.5 -48.5t-17.5 -56.5l-24 -65q-14 -36 -32 -76q3 -1 9 -8l16 -18q8 -12 20.5 -28.5t27.5 -38.5l56 -38 q24 -17 36 -31q13 -11 19 -26t6 -30q0 -7 -5 -13.5t-15 -13.5q-8 -7 -18 -10.5t-20 -3.5q-4 0 -6.5 1t-5.5 1q-7 3 -13 7.5t-11 9.5q-8 8 -19 27.5t-24 45.5q-2 0 -2.5 1t-0.5 3q-12 25 -28.5 38t-35.5 13q-16 0 -33 -5t-35 -16q-10 -5 -19.5 -12.5t-17.5 -14.5l-17 -17 l-20 -20q-31 -35 -57 -73.5t-45 -81.5q-18 -42 -27 -79.5t-9 -70.5q0 -30 8 -59.5t25 -57.5l14 -20l13 -20q17 -20 37 -39l43 -41q5 -6 14 -13.5t21 -15.5q38 -30 57.5 -56t19.5 -49q0 -28 -15 -53.5t-49 -45.5q-31 -20 -71 -29t-87 -9h-3q-1 0 -1 -2h-6q-2 0 -5 -1h-5h-4 q-16 -39 -33 -86.5t-33 -102.5q-17 -54 -34 -80.5t-32 -26.5q-10 0 -18 3.5t-17 11.5q-6 8 -10.5 18t-4.5 24q0 12 4.5 34.5t14.5 52.5l25 74q15 43 36 96q-43 12 -82 36t-73 59q-32 35 -48.5 65t-16.5 54q0 11 4 21t11 19q8 8 17.5 13t17.5 5q9 0 16.5 -8t13.5 -25 q2 -4 3 -7t2 -7q0 -1 1 -3.5t3 -4.5q18 -35 43 -61.5t57 -45.5q31 -18 69.5 -28t82.5 -10q20 0 37.5 5t30.5 13q14 9 22 20.5t12 28.5q-4 16 -12 33.5t-22 34.5q-13 18 -38 43l-60 56q-39 33 -64 61.5t-38 50.5q-12 23 -18.5 49t-6.5 52q0 34 11.5 75t33.5 91q23 50 54 98.5 t68 93.5q21 28 44 50t46 38q23 17 44 28t43 16v1z" />
<glyph unicode="%" horiz-adv-x="796" d="M777 842l-376 -421l-117 -132l-124 -145q-63 -76 -98 -111.5t-44 -35.5q-6 0 -12 1.5t-9 4.5q-4 2 -7 5l-5 5q-8 10 -11.5 22t-3.5 25q0 8 22.5 38.5t67.5 81.5l7 7l536 600l18 16q94 104 158 157.5t99 53.5q7 0 12 -2.5t10 -7.5q3 -5 5 -12t2 -15t-12 -24t-37 -36 t-45 -39.5t-36 -37.5v2zM414 47q0 -5 2 -8.5t5 -6.5q2 -2 3.5 -3t3.5 -1q3 -1 6.5 -2t6.5 -1q18 0 37.5 16t40.5 48q20 33 30 64t10 61q0 18 -1.5 30.5t-6.5 22.5q-5 9 -11.5 13t-15.5 4q-13 0 -30.5 -20t-37.5 -64q-22 -41 -32 -79.5t-10 -75.5v2zM481 362q3 2 7.5 3.5 t9.5 3.5q3 2 7 2.5t8 2.5q8 3 16.5 4t14.5 1q22 0 40.5 -11t33.5 -32q15 -22 22.5 -49.5t7.5 -61.5q0 -53 -15 -97t-43 -83q-29 -35 -63 -52.5t-74 -17.5q-47 0 -77 5t-45 15q-14 7 -21.5 23.5t-7.5 41.5t7 58.5t22 73.5t31.5 72.5t38.5 57.5q6 9 13 15.5t14 9.5q8 4 21.5 8 t31.5 6v1zM254 693q0 -13 2.5 -22.5t7.5 -15.5q3 -7 10 -9.5t13 -2.5q19 0 36.5 17.5t38.5 54.5q20 37 30 72t10 70q0 10 -2.5 19t-7.5 16q-3 8 -8 10.5t-12 2.5q-15 0 -32.5 -19t-40.5 -58q-22 -40 -33.5 -74t-11.5 -63v2zM392 977q24 -2 40.5 -8.5t28.5 -19.5 q13 -14 19 -34t6 -47q0 -51 -17.5 -100.5t-50.5 -92.5q-34 -45 -74 -67t-87 -22q-27 0 -47 7t-33 22t-20.5 36.5t-7.5 48.5q0 20 5 45t16 53q10 30 24.5 59.5t32.5 57.5q10 19 23.5 32t30.5 25q18 10 34 16t32 6q4 0 7 -1t7 -1q1 -2 3 -2t3 -1q7 -2 13 -5.5t12 -8.5v2z" />
<glyph unicode="&#x26;" horiz-adv-x="866" d="M407 584q24 29 43 59t34 60q14 28 21.5 52.5t7.5 42.5q0 5 -1 9.5t-4 7.5q-2 3 -4.5 5.5t-5.5 2.5q-5 0 -11 -5t-14 -13q-7 -7 -14.5 -18.5t-14.5 -24.5q-10 -21 -17.5 -41t-12.5 -38q-3 -20 -5.5 -38.5t-2.5 -36.5v-6v-7v-3q0 -2 1 -4v-4v-1v1zM321 416l-7 -7 q-104 -100 -155.5 -165t-51.5 -99q0 -20 8.5 -35t23.5 -25q16 -10 38.5 -15t54.5 -5q27 0 55.5 3.5t56.5 9.5q28 9 55 20t52 24l-36 65q-18 33 -34 70q-17 37 -32 76t-28 81v2zM514 53q-16 -10 -33 -18t-32 -13q-16 -7 -33 -13t-34 -9q-31 -7 -65.5 -10t-67.5 -3 q-62 0 -113 10.5t-91 35.5q-38 27 -57.5 59t-19.5 68q0 54 82 137.5t247 200.5l7 6q-3 17 -5.5 34.5t-4.5 34.5q-2 18 -3.5 36.5t-1.5 38.5q0 53 12.5 96.5t37.5 75.5t58.5 47t75.5 15h6q4 0 9 -2q3 -2 8 -2.5t12 -4.5q18 -1 34 -10.5t29 -25.5q13 -17 19 -35.5t6 -38.5 q0 -27 -10 -57t-33 -65q-22 -33 -55.5 -71.5t-78.5 -81.5l13 -52q7 -24 14 -45l13 -45l14 -39q13 -36 29 -69t32 -61q19 15 34 30t25 30q10 13 15 27.5t5 26.5v3q0 2 -2 3v4q0 1 -1 3q-7 -2 -13.5 -2.5t-13.5 -2.5h-11h-6q-5 0 -11 1.5t-12 5.5q-7 3 -13 7t-11 11 q-11 13 -18 24t-7 21q0 12 20 22.5t60 19.5q39 10 87.5 14t103.5 4q18 0 31.5 -2.5t20.5 -5.5q8 -5 11.5 -14.5t3.5 -22.5q0 -18 -17 -30t-50 -15q-32 -5 -60.5 -11t-51.5 -12q3 -2 5.5 -5.5t6.5 -4.5q1 -4 3.5 -6.5t4.5 -5.5l5 -13q3 -5 3 -10q0 -17 -5.5 -37t-19.5 -42 q-8 -15 -19 -29l-22 -28q-7 -6 -13.5 -13.5t-13.5 -14.5l22 -21l28 -24q13 -12 20.5 -20.5t7.5 -11.5t-5 -8t-15 -10t-19 -7.5t-17 -2.5q-7 0 -16.5 2.5t-17.5 7.5q-8 3 -24 13t-38 27v1z" />
<glyph unicode="'" horiz-adv-x="247" d="M172 1169v-451h-97v451h97z" />
<glyph unicode="(" horiz-adv-x="492" d="M277 -232q0 -5 -2.5 -9t-5.5 -6q-2 -2 -4.5 -2.5t-3.5 -0.5q-4 -2 -5 -2h-6q-26 0 -57 30t-63 92q-31 62 -47 131t-16 146q0 80 16 167.5t47 184.5q34 97 76.5 184t97.5 165q30 47 63.5 82t70.5 59q36 23 73.5 35.5t74.5 12.5q19 0 34 -3.5t26 -9.5q14 -7 20.5 -13.5 t6.5 -15.5q0 -11 -10 -17t-33 -9q-22 -2 -39.5 -6t-32.5 -11q-34 -13 -65.5 -38.5t-59.5 -61.5q-31 -35 -58.5 -83.5t-53.5 -108.5q-34 -77 -59 -152t-43 -144q-19 -70 -28 -132t-9 -117q0 -50 6.5 -95t18.5 -88q12 -44 29.5 -85t40.5 -79z" />
<glyph unicode=")" horiz-adv-x="492" d="M190 1017q0 2 1 4.5t3 3.5q1 2 2 3t3 2q3 4 7 5.5t8 1.5q30 0 61 -31t62 -93q34 -61 49.5 -131.5t15.5 -150.5q0 -78 -15.5 -166t-49.5 -183q-31 -95 -75.5 -182.5t-97.5 -164.5q-32 -45 -65.5 -80t-70.5 -59q-23 -16 -46.5 -27t-48.5 -16q-11 -2 -24 -3.5t-24 -1.5 q-19 0 -34.5 2.5t-29.5 9.5q-13 6 -19.5 13.5t-6.5 16.5q0 10 10.5 15.5t32.5 9.5q22 1 40 5.5t32 9.5q35 15 66 40t57 62q30 36 58 82t53 106q35 79 60.5 152.5t42.5 141.5q19 69 27 131.5t8 117.5q0 52 -5 99.5t-16 89.5q-12 43 -29.5 85t-41.5 78v2z" />
<glyph unicode="*" horiz-adv-x="414" d="M324 954q3 3 5.5 10.5t6.5 17.5q13 38 25.5 56.5t27.5 18.5q7 0 11 -1.5t7 -5.5q4 -3 5.5 -7t1.5 -9t-3.5 -15t-11.5 -27q-5 -10 -7.5 -17.5t-5.5 -10.5q21 11 35.5 19.5t21.5 10.5l14 6q7 2 14 2q3 0 7.5 -1t5.5 -2q4 0 4.5 -1t0.5 -3q0 -5 -14 -16.5t-42 -31.5l-30 -20 l-22 -17l22 -15q13 -8 25 -17q13 -6 19 -10.5t6 -5.5q0 -4 -2 -9.5t-7 -12.5t-10 -10t-10 -3q-1 0 -12 5.5t-30 17.5q-10 7 -18 12t-15 8q-3 -10 -7.5 -23.5t-7.5 -29.5q-10 -30 -20 -45t-22 -15h-3h-2q-1 0 -3 0.5t-3 2.5q-2 2 -3 2.5t-1 2.5v1v2q0 7 1 15.5t3 19.5 q3 10 6.5 23.5t9.5 30.5q-23 -17 -42 -29l-33 -21q-13 -7 -22.5 -11t-14.5 -4q-1 0 -3.5 0.5t-6.5 2.5q-1 2 -2 2.5t-1 2.5v1v2q0 10 20 29.5t60 45.5q12 9 21 14.5t16 10.5l-31 18q-13 9 -21 16q-8 8 -13 14t-5 13q0 5 2.5 9t5.5 7q3 4 7.5 5.5t9.5 1.5q6 0 14 -3l19 -5 q10 -5 22.5 -12t24.5 -15v2z" />
<glyph unicode="+" horiz-adv-x="1391" d="M743 995v-449h439v-95h-439v-451h-95v451h-441v95h441v449h95z" />
<glyph unicode="," horiz-adv-x="414" d="M3 -150q-3 0 -6.5 1.5t-6.5 6.5q-3 3 -5 8t-2 12q0 10 16 44.5t49 92.5v3q2 2 4 6l6 9q20 39 38 59t31 20q3 0 6.5 -1t6.5 -2q4 0 7 -2.5t7 -6.5q6 -6 9.5 -13t3.5 -14q0 -5 -11 -23t-34 -50l-36 -52l-29 -45l-1 -3q-1 -2 -4 -5q-15 -24 -27 -34.5t-22 -10.5z" />
<glyph unicode="-" horiz-adv-x="571" d="M68 271q16 3 40 8t56 7q33 3 70.5 4.5t79.5 1.5q38 0 64 -3t40 -12q13 -6 19.5 -20.5t6.5 -34.5q-1 -7 -2 -12t-4 -8q-4 -3 -9 -5t-13 -3q-42 -5 -82 -8.5t-80 -6.5q-39 -2 -69 -4.5t-48 -2.5q-25 0 -39 4t-20 11q-5 7 -7.5 27.5t-2.5 54.5v2z" />
<glyph unicode="." horiz-adv-x="414" d="M107 -25q-17 0 -31 3.5t-24 11.5q-9 7 -14 17t-5 25q0 21 9.5 39.5t25.5 35.5q17 15 35.5 22.5t40.5 7.5q13 0 23 -2.5t17 -10.5q8 -7 12 -16t4 -19q0 -19 -8 -38t-27 -39q-16 -17 -30.5 -27t-27.5 -10z" />
<glyph unicode="/" horiz-adv-x="492" d="M576 989l-184 -367l-178 -385q-87 -197 -135.5 -294t-60.5 -97q-11 0 -19.5 3.5t-15.5 11.5q-8 7 -12 17t-4 22q0 16 21.5 77t68.5 168l113 248l149 313l5 12q83 170 140 256t87 86q8 0 15 -3t12 -8q5 -7 8.5 -14.5t3.5 -19.5q0 -5 -1 -9t-3 -7q-2 -2 -4.5 -5.5 t-5.5 -6.5v2z" />
<glyph unicode="0" horiz-adv-x="826" d="M271 53q26 -1 53 6.5t53 22.5q29 15 55 37.5t49 50.5q48 62 90 134.5t74 158.5q31 85 47 160t16 140q0 44 -6 74.5t-19 49.5q-12 18 -32.5 27.5t-50.5 9.5q-21 0 -43.5 -6t-47.5 -18q-23 -12 -45.5 -27.5t-45.5 -37.5q-64 -60 -116 -133.5t-93 -160.5q-40 -85 -60 -163.5 t-20 -150.5q0 -43 9 -75.5t26 -56.5q18 -22 44.5 -32.5t62.5 -10.5v1zM277 -33q-55 0 -102.5 20t-85.5 61q-39 44 -59 97.5t-20 116.5q0 34 6.5 72t20.5 84q13 45 32 93l40 99q23 48 48 91.5t52 83.5q26 40 52 73.5t53 59.5q30 31 56.5 52.5t52.5 33.5q23 13 49 19.5t52 6.5 q27 0 54.5 -5.5t56.5 -17.5q30 -12 56.5 -27t49.5 -33q19 -12 32.5 -33.5t23.5 -50.5q8 -28 13 -62t5 -73q0 -57 -10 -118t-30 -126q-20 -66 -47.5 -127t-64.5 -118q-40 -67 -86 -119t-94 -87q-50 -33 -101 -49.5t-105 -16.5z" />
<glyph unicode="1" horiz-adv-x="440" d="M53 120q10 52 32 130.5t54 180.5l75 224l92 260h-8h-7q-4 -2 -8 -2h-7h-7h-8q-4 -1 -9 -1h-10q-18 0 -32.5 2.5t-22.5 5.5q-7 5 -11 12.5t-4 16.5q0 23 14 39t41 26q29 10 74.5 15t110.5 5q16 0 29 -3.5t23 -11.5q10 -7 16 -15.5t6 -18.5q0 -5 -10 -30l-28 -68 q-82 -191 -150.5 -380.5t-123.5 -377.5l6 1q20 -1 37 -4.5t28 -11.5q14 -7 20.5 -16t6.5 -21q0 -17 -15 -28.5t-45 -16.5h-7h-6q-2 -2 -5 -2h-4q-33 -7 -69.5 -12.5t-75.5 -12.5l-58 -8q-20 -2 -22 -2q-13 0 -25 3.5t-22 13.5t-15 22.5t-5 25.5q0 18 32 31.5t93 22.5 q9 1 16.5 2t13.5 3v1z" />
<glyph unicode="2" horiz-adv-x="826" d="M276 134q8 -2 19 -2t26 2q41 3 72 4t51 1q52 0 85.5 -2.5t49.5 -11.5q19 -6 27.5 -19.5t8.5 -33.5q0 -9 -2.5 -17t-9.5 -15q-5 -7 -14 -10l-20 -7h-16q-7 0 -15 2h-14h-13h-14q-6 0 -13 2h-12h-13q-77 0 -162 -8.5t-178 -21.5l-41 -6q-15 -3 -20 -3q-11 0 -20.5 6 t-17.5 14q-7 14 -10 29.5t-3 35.5q0 14 11.5 24t36.5 15l38 10l36 10q43 18 90.5 55.5t104.5 94.5q55 59 113.5 131.5t120.5 162.5q30 44 54 84t41 78q18 39 26.5 69.5t8.5 52.5q0 12 -3.5 20t-11.5 15q-7 8 -16 10.5t-22 2.5q-17 0 -38 -5t-44 -18q-24 -12 -49 -27.5 t-51 -37.5q-37 -32 -72 -66l-69 -66l-59 -68q-28 -32 -49 -66q-5 -5 -10 -11.5t-10 -16.5q-12 -20 -23.5 -29t-20.5 -9q-10 0 -20 5.5t-18 15.5q-10 10 -15 20t-5 20q0 9 10 29t32 52q20 33 46.5 69t59.5 76q54 67 103 118t95 86q45 33 83 50.5t70 17.5q19 0 34.5 -4 t30.5 -14t25 -22t15 -27q32 -11 56.5 -27t40.5 -36q19 -20 27 -42.5t8 -46.5q0 -58 -38.5 -137.5t-113.5 -179.5q-76 -102 -174 -196.5t-216 -182.5v2z" />
<glyph unicode="3" horiz-adv-x="826" d="M493 496q38 -12 68 -30t52 -43q22 -26 32.5 -54t12.5 -62v-5q0 -3 2 -6v-4v-3v-3v-4v-3v-3q0 -22 -10 -47t-30 -54q-22 -26 -50.5 -52t-63.5 -50q-42 -26 -83 -45.5t-79 -30.5q-37 -14 -73 -21.5t-69 -7.5q-45 0 -82.5 12t-67.5 32q-32 23 -45.5 49t-13.5 54q0 17 4.5 32 t12.5 28q5 7 10 12l10 10q3 3 8 5t10 2q14 0 24 -12.5t20 -37.5q2 -5 3.5 -10t3.5 -10q0 -5 1.5 -8.5t3.5 -6.5q6 -12 14.5 -22t20.5 -19q10 -6 21.5 -9.5t23.5 -3.5q13 0 35.5 6.5t54.5 20.5q32 13 64.5 30.5t65.5 39.5q34 22 60.5 42t43.5 40q18 20 27 38.5t9 34.5 q0 25 -10.5 44.5t-34.5 32.5q-21 13 -54.5 19t-77.5 6h-29h-27q-14 -1 -28 -1h-27q-6 -2 -9 -2h-3q-5 0 -9.5 2.5t-7.5 5.5q-3 4 -5 9.5t-2 14.5q0 35 28 57.5t84 30.5q5 0 9.5 1t5.5 2q25 5 56 17t68 28q38 19 70.5 38t61.5 41q30 23 54 47.5t41 46.5q18 23 25.5 43t7.5 37 q0 15 -5 26.5t-15 18.5q-10 8 -25.5 11.5t-37.5 3.5q-37 0 -83.5 -12.5t-103.5 -36.5q-55 -23 -109.5 -55.5t-107.5 -72.5l-21 -18q-11 -9 -24 -21q-12 -11 -19.5 -17t-10.5 -6q-7 0 -14.5 4t-15.5 11q-4 3 -7 6.5t-5 6.5q-2 4 -2.5 7t-0.5 7q0 10 10 25.5t28 37.5 q20 22 46 44.5t58 47.5q51 40 102 72.5t101 56.5q52 23 91.5 35.5t67.5 12.5q17 0 31 -5t26 -13q13 -7 21.5 -18.5t13.5 -25.5q30 -15 52.5 -32.5t39.5 -35.5q15 -20 22.5 -43.5t7.5 -48.5q0 -40 -22.5 -80t-67.5 -82q-47 -42 -111.5 -80.5t-147.5 -73.5v2z" />
<glyph unicode="4" horiz-adv-x="826" d="M419 217q-60 -3 -119.5 -7.5t-117.5 -10.5l-89 -11l-30 -3q-13 0 -24.5 6t-20.5 18q-8 11 -13 25.5t-5 31.5q0 18 23.5 56.5t70.5 95.5q45 56 148 172l266 288q33 39 64 69t58 52q28 21 46.5 32t28.5 11q23 0 44 -5t39 -13q19 -7 28 -16t9 -18q0 -1 -4 -12t-13 -29 q-62 -142 -118.5 -300t-110.5 -332h7h7h5h3q4 -1 5 -1h4q33 0 57 -3.5t38 -11.5q13 -7 19.5 -21t6.5 -35v-6q0 -4 -1 -9v-6v-4h-4q-1 0 -3 2h-4h-3q-18 2 -31.5 2.5t-21.5 0.5h-8h-12q-5 -1 -12 -1h-15q-15 -2 -34 -3l-38 -2l-27 -75q-14 -40 -28 -87q-13 -45 -27 -67.5 t-29 -22.5q-12 0 -22 4t-19 12q-6 7 -9.5 17t-3.5 23q0 15 9 61t30 123zM454 319q24 60 53 141l64 181l60 172l39 111l-153 -171l-143 -162l-130 -152l-117 -140q45 3 87.5 7.5t84.5 5.5q42 4 80.5 4.5t74.5 0.5v2z" />
<glyph unicode="5" horiz-adv-x="826" d="M247 546l34 16q16 9 33 16q15 8 31.5 14t33.5 11q33 10 66 15t64 5q47 0 87 -16t72 -48q33 -31 48 -67t15 -76q0 -32 -10.5 -67t-34.5 -73q-21 -37 -53.5 -74.5t-76.5 -74.5q-43 -38 -87.5 -68.5t-89.5 -51.5q-43 -19 -83 -29.5t-77 -10.5q-45 0 -83.5 12.5t-68.5 33.5 q-30 24 -46 55.5t-16 68.5q0 20 6 39t16 36q11 18 22 26.5t21 8.5q12 0 17 -8.5t7 -24.5q1 -17 3 -29.5t5 -19.5q8 -21 22.5 -39.5t32.5 -31.5q18 -16 37.5 -22.5t37.5 -6.5t40 6.5t49 18.5q26 14 52 31.5t51 40.5q44 38 79.5 78.5t64.5 83.5q28 43 42.5 78.5t14.5 58.5 q0 18 -6 30.5t-18 19.5q-10 8 -27.5 11.5t-40.5 3.5q-24 0 -53 -4t-64 -14t-69.5 -22.5t-67.5 -31.5q-12 -5 -26 -13l-29 -17q-17 -10 -26 -14t-14 -4q-9 0 -21.5 7.5t-27.5 24.5q-15 16 -23 28.5t-8 19.5q0 5 12.5 41t38.5 101l16 46l14 36l20 53l27 67l45 111q17 39 22 46 q10 13 43.5 24t90.5 19q56 9 125.5 12t151.5 3q38 0 60.5 -2.5t31.5 -8.5q8 -7 13 -19.5t5 -32.5q0 -22 -41 -35t-121 -18q-77 -5 -143.5 -12t-122.5 -15q-16 -32 -33 -70.5t-35 -83.5l-37 -95q-20 -50 -40 -109v2z" />
<glyph unicode="6" horiz-adv-x="826" d="M249 453q-17 -35 -30.5 -70.5t-23.5 -70.5q-8 -35 -13 -69t-5 -68q0 -26 6.5 -47t18.5 -36q13 -15 30 -22.5t39 -7.5q15 0 32.5 4t37.5 14t40 25t40 32q47 42 82 82t60 80t37.5 76t12.5 68q0 25 -8.5 45t-25.5 33q-16 13 -40.5 20.5t-54.5 7.5t-59 -5.5t-58 -19.5 q-28 -11 -58 -29.5t-60 -43.5v2zM294 569q27 21 52.5 36t52.5 25t51 15.5t48 5.5q21 0 43.5 -6.5t44.5 -19.5q22 -14 47 -35t53 -49q9 -12 16.5 -24.5t12.5 -25.5q5 -12 7.5 -27.5t2.5 -34.5q0 -42 -12.5 -85t-36.5 -87q-23 -45 -55.5 -84t-74.5 -74q-17 -15 -34.5 -28 t-33.5 -23q-17 -10 -34.5 -19t-34.5 -16q-35 -13 -71 -19t-72 -6q-49 0 -89 14.5t-68 45.5q-29 32 -44 74.5t-15 94.5q0 59 16 127t48 145q33 79 75.5 154t96.5 147q51 67 96.5 119.5t86.5 89.5q42 38 72 57t50 19q14 0 25.5 -3t23.5 -12q11 -6 16 -13.5t5 -14.5t-7.5 -14.5 t-22.5 -15.5q-3 -2 -5.5 -4.5t-5.5 -3.5q-27 -17 -63 -54.5t-83 -97.5q-46 -59 -91.5 -127.5t-88.5 -146.5v1z" />
<glyph unicode="7" horiz-adv-x="688" d="M636 930l-156 -16q-79 -9 -158 -22l-116 -19q-39 -6 -41 -6q-6 0 -13 1.5t-10 4.5q-3 4 -5 9.5t-2 12.5q0 13 2 26t7 23q5 11 11.5 18t14.5 10q29 13 80.5 26.5t126.5 25.5q77 11 156.5 16t161.5 5h29q12 0 19 -3q3 -2 6 -3.5t6 -3.5q2 -1 5 -3.5t5 -6.5 q10 -11 17.5 -20.5t12.5 -17.5t7.5 -15.5t2.5 -11.5v-5q0 -3 -2 -6q0 -4 -1.5 -6.5t-3.5 -5.5q-3 -5 -9.5 -12t-15.5 -15l-189 -253l-177 -246l-159 -231l-144 -213q-5 -4 -9.5 -4.5t-7.5 -0.5q-3 -2 -9 -2h-10q-11 0 -21 3.5t-19 11.5q-5 5 -9 11t-6 12q0 2 -0.5 4.5 t-0.5 5.5q0 19 45 92.5t132 203.5l200 286l247 339v1z" />
<glyph unicode="8" horiz-adv-x="826" d="M438 591q63 37 115 73.5t88 73.5q39 37 58 67t19 53q0 15 -6.5 28.5t-20.5 25.5q-13 13 -29.5 19t-35.5 6q-21 0 -44 -6.5t-46 -20.5q-23 -12 -48 -30t-50 -43q-22 -19 -37 -38l-29 -37q-11 -21 -17 -37.5t-6 -31.5q0 -7 1.5 -13.5t5.5 -11.5q1 -7 6 -14l10 -13 q12 -13 28 -25.5t38 -25.5v1zM443 478l-72 -48q-34 -23 -62 -44l-56 -47q-26 -22 -49 -45q-45 -45 -67.5 -82t-22.5 -65q0 -17 7.5 -30t20.5 -23q13 -12 32.5 -17t42.5 -5q27 0 54.5 6t57.5 17q15 5 30 12.5t30 16.5l28 17q16 9 31 21q38 28 68 55t50 52q18 23 28.5 45 t10.5 40q0 20 -9.5 36.5t-27.5 30.5q-17 13 -49.5 27.5t-75.5 27.5v2zM326 523q-29 16 -49 34.5t-32 35.5q-11 17 -17 37t-6 43q0 28 7.5 56.5t20.5 57.5q16 30 36 59t46 56q29 32 64 57t73 41q39 19 77 28t77 9q33 0 61.5 -7.5t50.5 -22.5q23 -13 39 -35.5t26 -53.5 q8 -13 13 -25.5t7 -24.5q3 -10 5 -19t2 -17q0 -30 -16 -61t-48 -65q-32 -31 -85 -73.5t-129 -93.5q41 -13 72.5 -33t54.5 -48q24 -27 35.5 -58t11.5 -64q0 -27 -9 -53t-28 -54q-16 -27 -43 -53t-60 -54q-47 -38 -93.5 -67.5t-92.5 -47.5q-45 -17 -86.5 -27t-80.5 -10 q-45 0 -85 16.5t-75 50.5q-35 35 -52.5 73.5t-17.5 79.5q0 34 22.5 73t66.5 86q45 45 104 88.5t133 83.5v2z" />
<glyph unicode="9" horiz-adv-x="826" d="M556 481q32 50 55.5 95t38.5 85q16 40 23.5 75.5t7.5 66.5q0 32 -5.5 57t-19.5 45q-11 20 -28 30t-35 10q-20 0 -46 -9t-56 -29l-30 -21q-15 -11 -30 -24q-17 -15 -32 -30t-30 -32q-33 -35 -60 -73.5t-47 -80.5q-20 -41 -30 -75.5t-10 -61.5q0 -20 7.5 -35t24.5 -25 q15 -10 37.5 -15t54.5 -5q21 0 44.5 3.5t50.5 10.5q27 5 55 15l60 21v2zM481 361q-27 -12 -48 -19.5t-39 -12.5t-34 -7.5t-29 -2.5q-47 0 -86.5 15t-72.5 42q-32 28 -49.5 62.5t-17.5 75.5q0 35 13.5 81t38.5 103t58.5 109.5t73.5 102.5q28 34 55.5 59.5t54.5 42.5 q27 18 51 25.5t48 7.5q18 0 36.5 -3t38.5 -12q22 -6 46 -18.5t51 -31.5q33 -18 57.5 -40t39.5 -47q16 -26 24.5 -55.5t8.5 -62.5q0 -22 -3.5 -46t-11.5 -51q-7 -27 -15 -52.5t-22 -51.5q-37 -75 -80 -147.5t-94 -144.5t-103.5 -135t-111.5 -119q-15 -16 -28.5 -26t-26.5 -17 q-12 -7 -27 -10t-33 -3q-15 0 -25 1.5t-17 4.5q-7 2 -10 6t-3 11q0 2 25 28l78 84q50 57 98 120.5t91 131.5v2z" />
<glyph unicode=":" horiz-adv-x="414" d="M189 394q-12 -2 -20.5 1.5t-14.5 10.5q-5 6 -8.5 16.5t-3.5 25.5q0 21 10 39.5t27 33.5q18 15 39 23.5t48 8.5q8 0 15.5 -4.5t14.5 -12.5q8 -7 11.5 -16t3.5 -19q0 -17 -11 -34.5t-31 -35.5q-13 -12 -26.5 -21t-27.5 -13q-6 -3 -13 -4t-13 -1v2zM134 -25q-19 0 -34 3.5 t-23 11.5q-10 7 -14.5 17t-4.5 25q0 21 8.5 39.5t25.5 35.5q18 15 37.5 22.5t40.5 7.5q12 0 22 -2.5t17 -10.5q6 -7 9.5 -16t3.5 -19q0 -19 -7.5 -38t-24.5 -39q-16 -17 -30.5 -27t-25.5 -10z" />
<glyph unicode=";" horiz-adv-x="414" d="M204 424q-12 -1 -21 2t-18 8q-6 7 -9.5 15.5t-3.5 19.5q0 5 1 11t2 11q4 12 11.5 22.5t17.5 20.5q15 17 30.5 24.5t32.5 7.5q14 0 25.5 -4t18.5 -13q8 -6 12 -18t4 -25q0 -17 -8 -32t-23 -26q-17 -12 -34.5 -18.5t-37.5 -6.5v1zM175 92q-8 -14 -19 -31l-24 -34l-26 -43 l-33 -52q-3 -5 -7 -10.5t-8 -6.5q-3 -4 -7 -4.5t-11 -0.5t-12 2.5t-10 5.5q-5 4 -7.5 8t-2.5 7q0 7 5 18l12 27q8 17 20 38l30 49q3 5 8.5 12.5t11.5 19.5q17 30 33.5 45t33.5 15q8 0 16.5 -2.5t15.5 -5.5q6 -4 9.5 -9t3.5 -11q0 -7 -1.5 -12t-5.5 -8q-1 -2 -3.5 -4.5 t-6.5 -4.5q-3 -3 -6.5 -4.5t-8.5 -5.5v2z" />
<glyph unicode="&#x3c;" horiz-adv-x="1391" d="M1176 830l-817 -334l817 -329v-105l-962 392v85l962 395v-104z" />
<glyph unicode="=" horiz-adv-x="1391" d="M1182 387v-95h-975v95h975zM1182 700v-95h-975v95h975z" />
<glyph unicode="&#x3e;" horiz-adv-x="1391" d="M1176 539v-85l-962 -392v105l816 329l-816 334v104z" />
<glyph unicode="?" horiz-adv-x="793" d="M200 -22q-15 0 -26.5 3.5t-19.5 11.5q-9 7 -13 16t-4 23q0 20 10 41t30 42q22 22 43.5 33t43.5 11q12 0 22.5 -5t20.5 -15t15 -21t5 -23q0 -20 -10 -40t-30 -40q-21 -17 -42 -27t-45 -10zM625 1009q36 -19 63 -36.5t43 -37.5q17 -20 25.5 -44t8.5 -53q0 -51 -58.5 -144.5 t-173.5 -230.5l-111 -133l-83 -103q-5 -2 -10 -4.5t-8 -2.5q-5 -1 -12 -2t-15 -1q-12 0 -22 2.5t-15 4.5q-5 3 -7.5 9t-2.5 12q0 14 26 55t78 111l48 64l39 51l11 18l17 24q80 113 120 190t40 119q0 18 -4 31.5t-12 23.5q-9 8 -22.5 13t-29.5 5q-32 0 -70.5 -15t-83.5 -47 q-45 -31 -85 -71t-77 -91q-17 10 -27.5 19.5t-17.5 17.5q-5 9 -8.5 17t-3.5 18q0 12 5 25.5t15 26.5q10 15 27 32l39 40q41 40 78.5 70t69.5 52q34 21 59 31.5t43 10.5t33 -4.5t27 -12.5q14 -10 24 -25t20 -37v2z" />
<glyph unicode="@" horiz-adv-x="1670" d="M1052 688l49 99h88l-114 -465q0 -5 -0.5 -7.5t-2.5 -5.5q-2 -7 -2.5 -12.5t-2.5 -10.5q-2 -9 -2 -16v-14q0 -17 5 -31.5t17 -22.5q12 -10 28.5 -15t38.5 -5q18 0 39 5t43 15q23 10 44 22.5t41 29.5q35 32 63.5 72t50.5 88q20 49 30 101.5t10 107.5q0 108 -40.5 195 t-118.5 154q-80 65 -185.5 98.5t-237.5 33.5q-68 0 -132.5 -11t-122.5 -33q-59 -21 -111.5 -52t-100.5 -71q-57 -50 -100.5 -107.5t-71.5 -123.5q-29 -66 -43 -138t-14 -152q0 -70 12.5 -132t35.5 -115q26 -54 63.5 -100.5t88.5 -83.5q42 -33 90.5 -59t105.5 -43 q58 -18 118.5 -26.5t123.5 -8.5q68 0 136.5 10t135.5 28q67 20 127 48.5t115 65.5l37 -53q-60 -44 -123.5 -78t-131.5 -56q-67 -23 -139 -35t-145 -12q-77 0 -149 10t-135 29q-64 18 -120 46.5t-104 66.5q-62 47 -108.5 101t-78.5 118q-30 63 -45 134t-15 152q0 66 10 129.5 t30 122.5q22 60 52 115t70 105q60 72 132 126t153 91q84 39 176 56.5t193 17.5q69 0 132.5 -8.5t121.5 -26.5q60 -17 110.5 -43t91.5 -59q54 -40 94 -87t67 -100q26 -54 39.5 -110.5t13.5 -120.5q0 -68 -12.5 -130.5t-37.5 -119.5q-27 -57 -63.5 -105.5t-85.5 -88.5 q-28 -22 -58 -38.5t-63 -29.5q-32 -12 -65.5 -17t-68.5 -5q-40 0 -70 7.5t-50 24.5q-20 15 -30 38t-10 55v5v5v3l1 2v3q-21 -35 -47 -61.5t-56 -44.5q-32 -19 -66 -28t-73 -9q-62 0 -109.5 16.5t-80.5 51.5q-34 35 -50.5 85.5t-16.5 116.5q0 94 28.5 173.5t83.5 144.5 q57 63 124.5 95.5t145.5 32.5q39 0 70 -7.5t56 -23.5q26 -17 45.5 -40.5t32.5 -55.5v2zM979 384l50 199q-7 35 -22 63.5t-37 48.5q-21 20 -49 30t-61 10q-60 0 -110 -27t-90 -80q-39 -54 -59 -120.5t-20 -146.5q0 -45 10 -79.5t32 -57.5q20 -25 50 -37.5t67 -12.5 q43 0 80 15t70 43q34 29 55.5 66.5t33.5 83.5v2z" />
<glyph unicode="A" horiz-adv-x="749" d="M187 339q38 2 75 5t74 5q11 0 23 1t23 1l44 2q23 1 45 1q3 85 8 163t12 148q5 70 12.5 134t17.5 123q-65 -97 -149 -243zM471 256q-42 -4 -84.5 -9t-85.5 -12q-44 -6 -88 -13t-89 -15l-23 -50q-12 -27 -26 -62q-23 -65 -50 -96t-57 -31q-5 0 -10 2.5t-10 7.5q-1 2 -3 5.5 t-3 4.5q0 4 -1 6.5t-1 5.5q0 27 27.5 97t79.5 185q53 115 122 244l153 272l2 2q68 118 126.5 178.5t105.5 60.5q8 0 20 -2.5t24 -7.5l21 -9l14 -5q13 -3 23 -7t15 -8q5 -5 7.5 -10.5t4.5 -14.5q0 -5 -3.5 -14t-11.5 -22q-7 -12 -12 -22t-8 -19q-10 -30 -20 -97.5t-20 -174.5 t-15 -219.5t-5 -232.5v-30q0 -15 1 -32v-28v-14q0 -15 -4 -26.5t-13 -20.5q-6 -6 -18.5 -11t-27.5 -5q-27 0 -40.5 47.5t-14.5 144.5v16v15q-2 7 -2 13v11v2z" />
<glyph unicode="B" horiz-adv-x="771" d="M110 78q7 -6 13 -9.5t12 -6.5q9 -2 18 -3t21 -1q33 0 71.5 12t83.5 35q47 24 92 56.5t90 72.5q8 6 15 14t13 14q7 7 12 14.5t8 14.5q5 6 8.5 13t5.5 13q3 5 4 12t1 13q0 20 -11 35t-34 25q-22 12 -54.5 17t-74.5 5q-25 0 -49 -0.5t-48 -4.5q-16 -1 -32 -3t-31 -5 q-9 0 -16.5 -2t-15.5 -3l-10 -27l-10 -27q-8 -26 -17.5 -52t-17.5 -55q-12 -40 -23 -83l-24 -85v1zM252 521q99 22 177.5 53.5t136.5 73.5q59 42 89 85.5t30 88.5q0 18 -7.5 30.5t-22.5 19.5q-14 8 -39 12t-60 4q-27 0 -52 -1.5t-48 -4.5q-22 -2 -43.5 -6t-41.5 -9 q-9 -22 -17 -43.5t-17 -43.5q-6 -22 -13.5 -43.5t-16.5 -43.5q-6 -22 -13 -44l-15 -43l-13 -44l-14 -43v2zM242 880v-1v1q-2 0 -2 1v1v2v3v20q0 27 13 47.5t38 32.5q25 13 62.5 20t89.5 7q41 0 78 -5t70 -19q34 -11 60.5 -27t44.5 -36q22 -22 39 -43.5t28 -45.5 q14 -23 19.5 -42t5.5 -36q0 -32 -21 -65.5t-62 -66.5q-42 -33 -98 -64t-129 -60q43 -3 80 -18t65 -43q30 -27 45 -59.5t15 -69.5q0 -22 -6.5 -43t-20.5 -42q-8 -15 -19 -29.5t-24 -27.5l-14 -15q-8 -7 -16 -13q-49 -40 -103 -71t-113 -55q-56 -21 -113 -32t-110 -11 q-32 0 -57 7.5t-44 19.5q-18 15 -28 32.5t-10 37.5q0 28 17.5 101.5t49.5 190.5q33 119 75.5 247.5t94.5 266.5v2z" />
<glyph unicode="C" horiz-adv-x="733" d="M611 1007q32 -12 57 -26t43 -32q19 -19 29 -39t10 -43q0 -15 -5 -28.5t-15 -25.5q-10 -11 -21 -17t-23 -6q-11 0 -18.5 4t-12.5 11q-5 8 -10 25.5t-9 44.5q-1 10 -6 18.5t-15 14.5q-10 9 -23 12.5t-28 3.5q-25 0 -53 -12t-58 -35q-30 -22 -62 -56t-65 -78 q-45 -58 -80.5 -123.5t-61.5 -135.5q-27 -72 -40.5 -135t-13.5 -120q0 -42 10 -73.5t30 -55.5q20 -22 47 -33.5t62 -11.5q23 0 46.5 4t50.5 13q25 8 52.5 21.5t57.5 31.5l30 21l40 26q22 17 37 25t23 8h3q1 0 1 -1q1 0 3.5 -2t2.5 -5q4 -2 4.5 -7t0.5 -10q0 -6 -5 -18 t-16 -25q-10 -13 -25.5 -28t-35.5 -32q-31 -25 -63.5 -45t-66.5 -32q-32 -13 -62 -20t-55 -7q-67 0 -121 17t-92 52q-41 35 -61 82.5t-20 107.5q0 54 17.5 120.5t49.5 148.5q34 80 79.5 164.5t102.5 171.5q37 53 69.5 93t60.5 67q31 28 56.5 40.5t47.5 12.5q13 0 27.5 -2.5 t29.5 -8.5q15 -5 31 -13.5t32 -20.5v2z" />
<glyph unicode="D" horiz-adv-x="858" d="M389 888q-47 -126 -86 -243l-73 -226q-31 -108 -53.5 -197.5t-36.5 -158.5q54 14 105.5 36.5t100.5 54.5q48 30 95 67.5t88 84.5q49 48 85.5 100t63.5 103q28 54 40.5 101.5t12.5 89.5q0 48 -16.5 83t-49.5 60q-34 25 -83 37.5t-114 12.5h-4h-5q-3 -1 -7 -1h-8 q-3 0 -6.5 -1t-6.5 -1q-8 0 -18.5 -1t-23.5 -2v1zM266 920q-4 7 -6.5 15.5t-5.5 14.5q0 2 -1 4.5t-1 4.5q0 5 -1 9t-1 7q0 17 6 28t18 16q10 5 35 7.5t62 2.5q110 0 195 -25t147 -77q62 -50 92 -120.5t30 -158.5q0 -57 -16.5 -114.5t-51.5 -115.5q-36 -59 -86.5 -116.5 t-119.5 -116.5q-57 -48 -117 -87.5t-120 -69.5q-62 -26 -113 -40.5t-92 -14.5q-24 0 -41.5 5t-30.5 15q-12 7 -18.5 21t-6.5 33q0 38 16.5 120.5t50.5 209.5q33 129 77 264.5t100 276.5v2z" />
<glyph unicode="E" horiz-adv-x="758" d="M209 337q-12 -41 -23 -75q-11 -33 -19 -62q-7 -28 -15 -53l-13 -45q90 12 159 19l118 13q48 5 81.5 7.5t51.5 2.5q20 0 35.5 -2t25.5 -5t15 -10t5 -15q0 -17 -20 -28t-59 -16q-5 -1 -9 -1h-8q-51 -9 -114.5 -23t-137.5 -34q-73 -17 -120 -26t-65 -9q-17 0 -31 6.5 t-28 18.5q-13 12 -19.5 27.5t-6.5 32.5q0 10 14 66l41 158l71 263l106 383q10 34 20 53t20 24q12 7 44.5 9.5t87.5 2.5q27 0 72 -3.5t107 -10.5l111 -11q49 -5 82 -9q7 0 12 -0.5t8 -4.5q4 -1 5.5 -5.5t1.5 -7.5q0 -22 -50 -36t-150 -23q-37 -1 -71.5 -4.5t-64.5 -5.5 l-58 -6q-27 -2 -50 -5l-31 -93l-33 -103l-33 -116l-35 -129l99 9q46 4 86 6q40 3 75 4t65 1q24 0 40 -1.5t26 -6.5q10 -4 15 -11.5t5 -17.5q0 -11 -2.5 -19.5t-7.5 -13.5q-5 -7 -12.5 -10.5t-17.5 -4.5q-32 -2 -73 -5.5t-89 -8.5q-47 -5 -107 -13l-132 -18v1z" />
<glyph unicode="F" horiz-adv-x="657" d="M215 322l-31 -110q-15 -55 -29 -113q-11 -57 -18.5 -86.5t-7.5 -30.5q-4 -9 -9.5 -14t-14.5 -6q-6 -4 -17 -5.5t-25 -1.5q-15 0 -25.5 2.5t-19.5 9.5q-6 5 -11 13t-5 20q0 8 5.5 35.5t15.5 71.5q10 43 25 101.5t36 132.5l58 206q28 98 55 183q27 87 45.5 141t29.5 78 q4 11 21.5 18.5t43.5 11.5q29 3 100.5 4.5t187.5 1.5q58 0 95.5 -2.5t52.5 -8.5q15 -7 22.5 -18.5t7.5 -28.5q0 -7 -2.5 -13.5t-7.5 -10.5q-5 -3 -11.5 -4.5t-16.5 -1.5h-8q-5 0 -14 1h-9q-3 0 -8 2h-6h-5q-17 0 -68.5 -6t-140.5 -19q-42 -7 -76 -11l-59 -7l-43 -134 l-34 -113l-27 -96l-20 -83h36q19 0 41 2q22 1 36 2t21 1q35 0 61.5 -3.5t45.5 -9.5q18 -7 27 -15.5t9 -21.5q0 -24 -40.5 -38t-122.5 -17q-45 -2 -81 -4.5t-65 -5.5v1z" />
<glyph unicode="G" horiz-adv-x="771" d="M606 327v-1l-1 1h-1h-1q-12 2 -22 3t-17 1q-16 0 -44.5 -3.5t-66.5 -11.5q-37 -7 -64.5 -10.5t-46.5 -3.5q-18 0 -33 4.5t-25 10.5q-10 9 -15 19.5t-5 22.5q0 5 6 11t19 12q12 7 30 13t43 11q50 12 104.5 17t114.5 5q39 0 64 -5t36 -17q14 -10 20.5 -29.5t6.5 -47.5 q0 -15 -10 -37.5t-28 -52.5q-20 -32 -46 -62t-58 -60q-37 -37 -75 -63.5t-77 -45.5q-37 -15 -76 -24t-81 -9q-15 0 -29 2.5t-28 5.5l-28 9l-30 11q-45 24 -75 44.5t-44 37.5q-15 19 -20 43t-5 52q0 55 10 119.5t35 136.5q25 73 58 141.5t74 135.5q44 64 91.5 120.5 t100.5 103.5q54 47 90.5 70t58.5 23q8 0 19 -4t23 -12q13 -7 32.5 -21t40.5 -33q27 -15 49.5 -35t42.5 -47q20 -26 30 -46t10 -34q0 -5 -2.5 -10t-5.5 -10q-2 -3 -4.5 -5.5t-4.5 -2.5q-3 -2 -4.5 -2.5t-5.5 -0.5q-6 0 -22 17.5t-39 48.5q-22 34 -44.5 50.5t-42.5 16.5 q-17 0 -39.5 -7.5t-47.5 -24.5q-25 -15 -50 -35t-50 -45q-22 -21 -43 -45.5t-39 -49.5q-18 -23 -35 -50l-37 -55q-32 -57 -57.5 -111t-44.5 -106q-16 -52 -25.5 -98t-9.5 -89q0 -32 6 -56t18 -39q11 -16 29.5 -22.5t45.5 -6.5q28 0 55.5 4t56.5 14q26 9 54.5 22.5t55.5 31.5 q55 37 99 85.5t76 108.5v1z" />
<glyph unicode="H" horiz-adv-x="833" d="M185 299q-16 -54 -30.5 -113t-27.5 -126q-12 -57 -27.5 -85t-34.5 -28q-15 0 -27.5 3t-20.5 10q-9 7 -13 16t-4 21q0 16 16.5 87t48.5 193q34 124 74 256t88 274q2 5 4.5 12.5t5.5 18.5q19 55 41.5 83.5t48.5 28.5q19 0 34 -3t28 -12q13 -8 20 -17.5t7 -19.5 q0 -6 -6 -15.5t-16 -20.5q-12 -12 -19.5 -23t-13.5 -21q-12 -23 -28 -64t-36 -99l-12 -39q-6 -20 -13 -40q-13 -40 -25.5 -83.5t-24.5 -90.5q7 -1 13 -1h10h15h16q23 0 54 0.5t69 2.5q39 3 80.5 5.5t84.5 6.5l26 82q91 307 157 461.5t106 154.5h10q4 0 9 -2q10 -1 19 -4.5 t17 -8.5q14 -8 20.5 -16t6.5 -14q0 -4 -0.5 -6.5t-2.5 -5.5q-2 -5 -7 -11t-12 -12q-10 -9 -15.5 -15.5t-9.5 -9.5q-11 -17 -23 -41t-25 -56l-28 -78q-17 -46 -35 -106l-43 -141q-21 -71 -39 -144q-19 -72 -36.5 -146.5t-32.5 -149.5q-6 -33 -13 -54t-13 -30q-7 -8 -15.5 -12 t-21.5 -4q-14 0 -26.5 5t-22.5 15t-15 22.5t-5 25.5q0 14 6 41.5t18 68.5q8 31 13 55t10 42q-72 -1 -128.5 -4.5t-96.5 -6.5q-40 -2 -73 -6t-58 -8v2z" />
<glyph unicode="I" horiz-adv-x="382" d="M129 45v-12v-4v-1v-4q0 -2 1 -4v-5v-3q0 -7 -3 -10.5t-8 -6.5t-12.5 -5t-17.5 -2q-22 0 -38 2.5t-26 9.5t-16 17t-6 23q0 18 15 76.5t44 159.5l65 220l85 267q3 5 5.5 15t7.5 22q39 118 75 178.5t71 60.5q8 0 18 -5t22 -15q7 -5 11 -10l7 -9q4 -5 5.5 -10t1.5 -10 q0 -1 -6 -18t-19 -47q-85 -200 -155.5 -418t-126.5 -454v2z" />
<glyph unicode="J" horiz-adv-x="627" d="M-53 85q1 0 -0.5 2t-3.5 3q-18 17 -27.5 29.5t-9.5 22.5q0 12 6 22.5t18 22.5q5 5 10 9t10 6q7 3 12 4t10 1q6 0 13 -3.5t12 -11.5q3 -7 6.5 -19.5t4.5 -30.5q10 -15 25 -27.5t37 -22.5t43.5 -16t45.5 -6q56 0 116.5 125.5t123.5 375.5l52 206q23 91 43 162 q7 23 15.5 40.5t19.5 29.5q12 11 28 17t34 6q14 0 26.5 -3.5t22.5 -9.5l9 -7q4 -3 6 -7q3 -5 4 -8t1 -7q0 -1 -4.5 -12t-12.5 -29q-7 -17 -13.5 -36.5t-11.5 -39.5l-51 -164l-58 -198l-50 -175q-20 -69 -31 -97q-22 -60 -54.5 -107.5t-76.5 -86.5q-43 -37 -85 -54.5 t-82 -17.5q-26 0 -50.5 7t-46.5 20q-5 2 -10 5t-11 7q-14 13 -30 32l-34 40z" />
<glyph unicode="K" horiz-adv-x="701" d="M259 534l92 92q50 49 110 102q58 54 138 122l178 150l24 18l19 12q8 5 17.5 7.5t15.5 2.5q7 0 12 -2.5t8 -5.5q4 -5 5.5 -11t1.5 -14q0 -7 -1.5 -12.5t-6.5 -10.5q-4 -5 -9.5 -8.5t-14.5 -6.5l-80 -71l-100 -95l-145 -138l-211 -207q64 -64 117.5 -125.5t94.5 -123.5 q42 -60 62 -103t20 -68q0 -13 -6.5 -25.5t-20.5 -22.5q-6 -7 -13 -11t-13 -7q-7 -2 -13.5 -3.5t-13.5 -1.5h-8q-4 0 -7 3l-3 3v2q-2 2 -2 3v4q0 1 1 4l4 9q2 2 2.5 3.5t2.5 1.5v2v1q0 14 -67.5 100.5t-201.5 243.5l-20 24q-8 10 -15 16q-8 -31 -17.5 -63.5t-17.5 -64.5 t-17.5 -64.5t-17.5 -64.5q-17 -63 -25 -96.5t-10 -33.5q-2 -8 -8.5 -14t-16.5 -11q-9 -5 -19.5 -6.5t-24.5 -1.5q-8 0 -16.5 2.5t-13.5 8.5q-5 4 -6.5 9.5t-1.5 10.5v4v3q0 17 15 83.5t47 183.5l78 272l102 344v3v2q-2 2 -2 4v5v1q0 26 6 45t18 34q13 15 28 21.5t34 6.5 q13 0 24.5 -2.5t23.5 -10.5q10 -7 15 -15t5 -17q0 -8 -11.5 -49t-36.5 -114l-47 -142l-40 -127v1z" />
<glyph unicode="L" horiz-adv-x="611" d="M132 100q47 7 92 14.5t87 12.5q41 5 79.5 7.5t73.5 2.5q24 0 39.5 -2.5t25.5 -7.5q10 -7 15 -15t5 -20t-14 -20.5t-42 -11.5l-27 -4q-12 -1 -20 -1q-59 -8 -119.5 -20t-124.5 -27q-62 -11 -97 -18.5t-42 -7.5q-15 0 -25 5t-18 13q-7 7 -10 21t-3 34q0 22 17.5 96 t52.5 201t79 266l94 289q2 3 4 7t3 11q17 47 38 70.5t47 23.5q24 0 43 -2.5t34 -9.5q15 -5 22.5 -12.5t7.5 -17.5q0 -7 -5.5 -19.5t-19.5 -30.5l-1 -2l-104 -251q-47 -118 -85 -226q-37 -109 -63 -196.5t-39 -152.5v1z" />
<glyph unicode="M" horiz-adv-x="970" d="M394 912q-72 -154 -136 -309t-121 -314t-90.5 -237.5t-43.5 -78.5q-3 0 -8 1t-12 4q-5 2 -10 5.5t-10 8.5q-10 6 -15 14.5t-5 18.5q0 18 21 78l58 161q40 103 93 226l119 267l19 43l23 55q28 70 60.5 105t69.5 35q23 0 40.5 -2.5t31.5 -7.5q13 -5 20.5 -10.5t7.5 -14.5 q0 -1 -3 -8l-7 -20q-47 -142 -76 -313t-41 -372l166 314q78 140 146 246q69 106 115 159t67 53q32 0 58 -3.5t48 -10.5q21 -6 31 -15.5t10 -17.5v-3v-2q0 -2 -0.5 -3.5t-2.5 -3.5q0 -1 -2.5 -3.5t-4.5 -6.5q0 -1 -0.5 -2t-2.5 -3q-42 -85 -78 -177.5t-69 -194.5t-60 -204.5 t-48 -206.5q-4 -13 -7.5 -30.5t-6.5 -41.5q-7 -47 -19.5 -68.5t-28.5 -21.5q-12 0 -21 2.5t-18 10.5q-6 9 -9.5 20.5t-3.5 28.5q0 57 16.5 143.5t50.5 203.5q33 117 78 248t102 278q-40 -48 -84 -113l-93 -142l-104 -176l-116 -213q-5 -10 -12.5 -23.5t-16.5 -32.5 q-25 -50 -46.5 -74t-40.5 -24q-18 0 -33 5t-28 13q-14 9 -20.5 21.5t-6.5 27.5q0 62 7.5 139.5t22.5 170.5q13 94 33 192.5t47 203.5v2z" />
<glyph unicode="N" horiz-adv-x="796" d="M337 828l-83 -239l-69 -215q-31 -102 -53.5 -188.5t-37.5 -155.5q-2 -7 -3.5 -15t-3.5 -15q-5 -22 -10 -32.5t-12 -10.5t-12.5 0.5t-10.5 2.5q-7 2 -13 5t-12 7q-12 6 -16 13.5t-4 14.5q0 10 2.5 30t7.5 52l18 69l22 83l61 201l64 190l61 164q28 73 51 124q8 19 23 34 t35 25t45 15t54 5q10 0 19 -1t16 -4q2 -2 3.5 -2.5t3.5 -2.5q3 -2 4 -4.5t1 -5.5q0 -2 -1 -7.5t-4 -14.5q-2 -6 -6 -15.5t-11 -21.5q-5 -21 -9 -46l-8 -52q-1 -27 -3 -57t-2 -63q0 -69 2.5 -135t9.5 -129q7 -64 17 -125.5t21 -120.5q32 139 79.5 294.5t112.5 328.5l7 20 q3 10 9 26l13 36q26 75 53 113.5t54 38.5q8 0 14 -1.5t11 -5.5q5 -1 7.5 -6t2.5 -10q0 -2 -2 -7l-5 -12q-2 -6 -7 -14.5t-10 -18.5l-86 -245l-72 -221q-34 -105 -58 -194.5t-41 -162.5q-2 -2 -2.5 -7t-2.5 -12q-10 -47 -31 -71t-54 -24q-7 0 -17.5 5t-24.5 15 q-11 10 -21.5 21t-16.5 23q-12 18 -23.5 69t-25.5 138q-11 86 -18 176.5t-7 183.5v35v39q2 22 3 44.5t2 47.5v1z" />
<glyph unicode="O" horiz-adv-x="898" d="M142 257q0 -48 12.5 -85.5t34.5 -64.5q23 -27 55.5 -40.5t74.5 -13.5t82 14.5t80 41.5q40 28 76 66.5t68 90.5q31 50 56 108.5t45 124.5q20 67 29.5 128t9.5 116q0 47 -7.5 81t-26.5 58q-16 23 -41 35.5t-59 12.5q-18 0 -39 -4t-41 -13l-20 -10q-10 -5 -20 -11 q-32 -17 -62.5 -45.5t-64.5 -64.5q-57 -67 -101 -135.5t-76 -137.5q-32 -68 -48.5 -131.5t-16.5 -121.5v1zM673 994q48 -9 85 -30.5t62 -55.5q25 -35 36.5 -82.5t11.5 -107.5q0 -47 -6.5 -98.5t-21.5 -110.5q-13 -56 -33 -110.5t-44 -106.5q-37 -75 -83.5 -135t-103.5 -105 q-57 -44 -112 -64.5t-110 -20.5q-30 0 -63.5 6.5t-70.5 19.5q-36 12 -63.5 28t-46.5 34q-20 18 -35 41.5t-27 53.5q-10 29 -15 62t-5 70q0 54 11 111.5t33 117.5q23 60 55.5 120t76.5 121q46 65 94.5 117.5t100.5 94.5q52 40 93 60t72 20q14 0 27.5 -2.5t24.5 -9.5 q14 -5 27 -16t30 -24v2z" />
<glyph unicode="P" horiz-adv-x="701" d="M244 464q83 12 156 45.5t134 85.5q62 53 93 105t31 103q0 25 -14 46t-43 36q-27 17 -62.5 24.5t-80.5 7.5h-20q-10 0 -20 -2q-4 0 -6.5 -1t-5.5 -2q-7 -2 -13 -3t-11 -4l-40 -115q-20 -57 -36 -114l-33 -108q-16 -54 -29 -105v1zM217 367l-25 -99l-22 -88 q-10 -40 -18 -76t-13 -67q-2 -17 -7 -28t-12 -16q-6 -8 -15.5 -11.5t-22.5 -3.5q-14 0 -26.5 3.5t-23.5 10.5q-12 6 -18 12t-6 13q0 23 18.5 103t53.5 217q35 136 80 293.5t102 339.5v10q0 17 6 29.5t18 19.5q13 8 34 10.5t51 2.5q88 0 159 -17.5t125 -52.5q53 -35 80 -80 t27 -104q0 -72 -38.5 -138t-115.5 -126q-75 -58 -173 -98t-218 -60v1z" />
<glyph unicode="Q" horiz-adv-x="871" d="M377 92q-11 7 -26 18.5t-34 24.5q-23 19 -34.5 31.5t-11.5 18.5q0 7 1.5 11t4.5 8q5 3 11 4t13 1q13 0 32 -4.5t43 -14.5l23 -11q12 -5 24 -12l21 -15l24 -15q60 48 108.5 113.5t84.5 150.5q39 85 56.5 172.5t17.5 179.5q0 47 -6 81t-19 56q-14 22 -34.5 33t-49.5 11 q-31 0 -62 -8.5t-60 -23.5q-28 -17 -57 -43t-61 -61q-55 -63 -101 -135.5t-81 -156.5q-37 -82 -54.5 -151t-17.5 -128q0 -42 7.5 -72.5t24.5 -52.5q16 -22 39.5 -32t55.5 -10h10h10q10 2 20 3.5t20 3.5q15 3 30 10l28 13v2zM468 27q-24 -14 -48 -21.5t-48 -12.5 q-25 -6 -48 -9.5t-47 -3.5q-52 0 -97.5 18.5t-84.5 58.5q-37 40 -56 91t-19 113q0 71 21 152t63 170q41 88 99 175t131 171q28 33 54 57t48 38q23 15 44 22.5t41 7.5q7 0 13.5 -1t13.5 -1q6 -2 13 -3.5t13 -3.5q14 -5 27.5 -12.5t26.5 -18.5q53 -4 94 -26.5t68 -60.5 q27 -39 39.5 -95.5t12.5 -131.5q0 -89 -19.5 -176.5t-59.5 -172.5t-92.5 -153t-117.5 -118q33 -33 55 -58l35 -37q13 -15 18 -26t5 -17q0 -14 -5 -26.5t-13 -25.5q-10 -14 -20 -20.5t-18 -6.5q-2 0 -12 14t-29 43q-18 27 -43 53.5t-58 51.5v2z" />
<glyph unicode="R" horiz-adv-x="758" d="M249 489q83 2 157.5 28t137.5 73q66 48 97.5 99t31.5 103q0 33 -17.5 61.5t-52.5 51.5q-35 24 -77 35.5t-90 11.5h-7h-13q-4 0 -7 -1t-5 -1q-3 0 -5.5 -0.5t-4.5 -0.5l-46 -133l-41 -120l-31 -108q-15 -52 -27 -100v1zM199 337q-5 -15 -12 -42l-18 -70l-23 -90l-27 -107 q0 -10 -2.5 -17.5t-7.5 -10.5q-5 -5 -12 -7.5t-15 -2.5q-10 0 -20 5t-24 17q-3 5 -6.5 9t-6.5 9q-5 8 -7.5 17.5t-2.5 19.5q0 8 5 34l13 68l22 91l27 99l64 225l58 194l48 148q20 59 32 86q7 15 18.5 25t28.5 17q18 5 44 8t61 3q70 0 132.5 -23t116.5 -68q55 -45 82.5 -93.5 t27.5 -97.5q0 -60 -33.5 -115t-101.5 -105q-67 -49 -157.5 -86.5t-205.5 -60.5q52 -57 104.5 -108t107.5 -96l83 -65l28 -22q0 -8 -6 -18t-19 -22q-5 -5 -11 -8.5t-13 -6.5l-12 -3q-6 -2 -11 -2q-19 0 -51.5 17.5t-78.5 52.5q-47 37 -101.5 87t-117.5 114v1z" />
<glyph unicode="S" horiz-adv-x="666" d="M635 925q36 -23 59.5 -41.5t35.5 -31.5q11 -12 17 -26t6 -29q0 -9 -5 -16.5t-15 -13.5q-5 -4 -10 -6.5t-8 -3.5q-5 -2 -10 -3t-10 -1t-12.5 2.5t-14.5 7.5q-3 2 -6.5 6t-6.5 8q-12 13 -22 29t-18 36q-2 1 -3 3.5t-1 4.5q-6 20 -19.5 31t-32.5 11q-21 0 -43.5 -8.5 t-47.5 -26.5q-25 -17 -49.5 -41t-47.5 -56q-25 -32 -43.5 -65.5t-31.5 -68.5q-12 -35 -18.5 -69t-6.5 -68q0 -26 8 -55.5t25 -61.5q18 -31 41.5 -61t55.5 -59q6 -7 16 -15l24 -18q37 -30 55 -57t18 -50q0 -28 -15.5 -54t-49.5 -46q-31 -19 -72 -29.5t-90 -10.5 q-65 0 -124 20t-113 58q-50 42 -76.5 82t-26.5 78q0 9 2 14l6 13q2 3 3.5 6.5t4.5 6.5q9 9 18 14t19 5q5 0 11 -7.5t12 -22.5q4 -7 6.5 -13.5t3.5 -10.5q19 -35 42.5 -61.5t54.5 -44.5q32 -17 68.5 -27t78.5 -10q22 0 39.5 5t29.5 12q13 8 21.5 19.5t13.5 28.5 q-5 18 -14.5 35.5t-24.5 36.5q-15 20 -38 43.5t-55 51.5q-35 30 -57.5 57.5t-34.5 50.5q-12 24 -17 51.5t-5 59.5q0 43 10 86.5t30 90.5q20 46 50.5 94t68.5 96q28 34 54 59.5t49 44.5q24 18 44 28t35 10l2 -1l6 -2q4 -2 7 -3t5 -1l5 2q18 -2 35 -7t28 -13q14 -10 31.5 -30 t39.5 -53v1z" />
<glyph unicode="T" horiz-adv-x="706" d="M399 873q-32 -3 -65 -5.5t-67 -5.5q-33 -2 -51.5 -3.5t-20.5 -1.5q-11 0 -20.5 4t-17.5 14q-7 8 -11 20.5t-4 29.5q0 14 38.5 25.5t113.5 21.5q75 12 167 17.5t199 5.5q53 0 90 -3t58 -10q22 -7 32 -18.5t10 -28.5q0 -5 -1 -12.5t-4 -15.5v-3v-1l-2 -1q-46 -2 -88 -3.5 t-80 -5.5q-37 -1 -69 -5l-60 -6l-88 -259l-77 -237q-37 -112 -63.5 -199.5t-43.5 -149.5q-5 -17 -10 -29.5t-10 -22.5q-4 -3 -5.5 -7.5t-4.5 -5.5q-7 -9 -15.5 -12t-21.5 -3t-24 3t-19 10q-7 7 -12 17t-5 18q0 18 17.5 86.5t52.5 189.5l80 266l102 325v1z" />
<glyph unicode="U" horiz-adv-x="831" d="M513 200q-32 -53 -65.5 -95t-70.5 -73q-36 -30 -68 -45t-60 -15q-42 0 -75.5 14t-59.5 41q-27 30 -40.5 69t-13.5 88q0 46 13.5 117t40.5 167q26 95 62 192.5t80 197.5q3 4 5.5 9.5t4.5 12.5q26 62 53.5 93t56.5 31q13 0 25.5 -4.5t24.5 -12.5q13 -8 19 -18t6 -22 q0 -7 -1.5 -12t-5.5 -10q-1 -1 -3.5 -4t-4.5 -4q-3 -4 -6.5 -5.5t-6.5 -4.5q-57 -127 -103 -241.5t-78 -216.5t-47.5 -182t-15.5 -140q0 -20 3 -36t10 -28q7 -11 15 -18t20 -7t28 7.5t36 21.5q18 13 40 34l45 46q28 33 54 67.5t46 66.5q22 33 36 64t22 57l74 222l58 169 l42 123l27 71q6 17 14 27t14 16q9 5 19.5 8.5t22.5 3.5q25 0 44 -4t34 -13q14 -6 20.5 -18t6.5 -25q0 -7 -1 -13.5t-4 -13.5q-2 -1 -4.5 -3.5t-3.5 -4.5q-4 -3 -7 -5t-8 -5q-62 -130 -110.5 -254.5t-86.5 -243.5q-37 -117 -55.5 -199.5t-18.5 -130.5q0 -17 2 -33t5 -31v-5 q0 -2 2 -2v-2v-1q0 -2 -2 -6t-5 -7l-3 -4q-2 -1 -5 -3q-4 -3 -7 -5.5t-7 -4.5q-5 -2 -8.5 -2.5t-6.5 -0.5q-17 0 -28.5 10t-21.5 28q-8 18 -12.5 44t-4.5 58v6v7v7v7q0 3 1 7t1 8q0 3 1 7t1 8v1z" />
<glyph unicode="V" horiz-adv-x="688" d="M242 100l135 265l134 243q68 117 130 212t119 167q3 3 6.5 9t8.5 13q18 26 38 39.5t40 13.5q12 0 20.5 -1t13.5 -4q5 -2 8 -5t3 -8q0 -12 -11.5 -33t-34.5 -49l-28 -36l-21 -29l-104 -168l-126 -215l-137 -246l-142 -266q-5 -2 -10 -4.5t-12 -5.5q-5 -2 -12.5 -5.5 t-15.5 -4.5q-9 -4 -17 -5.5t-17 -3.5q-8 0 -16.5 -0.5t-16.5 -0.5q-20 0 -32.5 8t-20.5 22q-7 18 -11 57.5t-4 100.5v82q0 75 5 153t13 159q8 84 23 176.5t35 199.5q4 14 9 25.5t11 18.5q7 6 15.5 9.5t18.5 3.5t24 -5t33 -17q18 -11 27 -22t9 -21q0 -7 -4 -26t-12 -49 q-40 -156 -59.5 -307t-19.5 -300v-17v-18v-19v-17q2 -17 2.5 -34.5t2.5 -35.5v1z" />
<glyph unicode="W" horiz-adv-x="988" d="M523 690l-77 -141q-37 -70 -72 -143l-74 -158l-83 -186q-7 -22 -16 -35.5t-17 -19.5q-7 -7 -18 -8.5t-24 -1.5t-25.5 3t-26.5 15q-12 12 -17 23.5t-5 24.5q0 19 2.5 59t9.5 102q7 60 15.5 126t18.5 136q11 77 22 144.5t23 127.5q13 59 23 100.5t18 66.5q5 14 12.5 25.5 t19.5 18.5q7 5 12 7l13 6q5 2 11 2.5t13 0.5q10 0 17.5 -2.5t12.5 -7.5q3 -5 5.5 -12.5t2.5 -17.5q0 -6 -13.5 -74t-41.5 -198q-27 -130 -51 -261t-44 -265q66 159 129 286.5t120 224.5q58 97 99 145.5t67 48.5q4 0 8 -1t8 -3q3 -1 7 -3.5t9 -6.5q9 -1 14.5 -4.5t9.5 -8.5 q3 -5 5.5 -11.5t2.5 -15.5q0 -5 -2.5 -20.5t-7.5 -41.5q-22 -115 -32 -227.5t-10 -222.5v-24q0 -12 2 -23v-24v-21q2 -22 2.5 -43t2.5 -42l92 240l90 219q43 103 87 198l88 181q12 25 23 41.5t22 26.5q10 9 23.5 14t28.5 5q12 0 21 -2.5t16 -6.5q7 -3 10 -7t3 -11 q0 -5 -11.5 -30t-35.5 -72q-103 -207 -193 -415.5t-169 -419.5q-2 -2 -2.5 -5t-0.5 -8q-17 -45 -43 -67.5t-61 -22.5q-27 0 -45 16.5t-28 49.5q-10 35 -15 111t-5 192q0 43 2.5 87.5t3.5 87.5q4 45 9 89l10 88v2z" />
<glyph unicode="X" horiz-adv-x="688" d="M266 446q-22 72 -39.5 138.5t-31.5 128.5q-13 62 -19.5 102t-6.5 57q0 13 3 24t10 17q8 9 17.5 13t20.5 4h1h3q1 -1 2 -1h1h5h3h2q2 0 3 1q7 4 11.5 4.5t5.5 0.5q22 0 34.5 -2.5t17.5 -5.5q5 -5 7.5 -15t4.5 -25l10 -78q5 -39 11 -79q5 -39 12.5 -79t17.5 -82l68 84 l84 105q102 127 173 190.5t113 63.5q7 0 12.5 -2.5t10.5 -7.5q4 -3 5.5 -5.5t3.5 -6.5q0 -3 0.5 -5.5t0.5 -5.5q0 -4 -1.5 -8t-6.5 -9l-4 -4l-4 -4q-4 -4 -7 -5.5t-8 -4.5l-113 -130l-104 -126q-34 -40 -66 -82l-65 -85l-32 -41l-31 -42q23 -101 45 -174.5t40 -119.5 q18 -47 37.5 -76.5t37.5 -42.5q-3 -10 -9 -17.5t-14 -9.5q-7 -5 -16 -7.5t-21 -2.5q-27 0 -52 17.5t-48 56.5q-22 38 -48.5 105.5t-55.5 163.5l-91 -123q-46 -64 -92 -138q-47 -70 -76.5 -104t-37.5 -34q-12 0 -22 3t-16 12q-9 8 -12 19t-3 24q0 18 71 121t212 288z" />
<glyph unicode="Y" horiz-adv-x="657" d="M337 518l157 230q72 104 136 181q63 78 104 116.5t59 38.5q9 0 16.5 -3.5t12.5 -10.5q6 -6 9.5 -15.5t3.5 -17.5q0 -5 -25 -37l-75 -97l-95 -119l-87 -116q-7 -7 -16 -19.5t-21 -27.5q-55 -70 -94.5 -136t-62.5 -128q-22 -56 -41 -122t-36 -140q-15 -57 -31 -85t-34 -28 q-13 0 -25.5 5.5t-24.5 14.5q-10 11 -16 24.5t-6 30.5q0 15 7.5 50t21.5 88q15 54 34 114l41 127q-20 87 -36 163.5t-28 143.5q-11 67 -16 117t-5 84q0 16 4 28.5t11 19.5q8 8 20.5 12.5t29.5 4.5q28 0 47.5 -54.5t29.5 -162.5q8 -82 15.5 -151.5t15.5 -124.5v2z" />
<glyph unicode="Z" horiz-adv-x="739" d="M127 94l88 12q44 6 86 11q43 3 83 5.5t77 2.5q23 0 38 -4t25 -12q10 -7 15 -19.5t5 -29.5q0 -12 -3 -19.5t-12 -10.5q-6 -5 -20.5 -7.5t-35.5 -2.5q-44 -2 -95 -7t-109 -13q-57 -5 -123 -16l-139 -24q-12 10 -22 20t-17 20q-8 8 -10.5 18t-2.5 20q0 25 30 74.5t92 121.5 v3l251 281l163 177q60 63 111 111.5t93 83.5q-127 -7 -247.5 -26t-235.5 -47q-18 -5 -28 -7.5t-14 -2.5q-6 0 -15.5 5t-17.5 13t-13 17.5t-5 15.5q0 4 1.5 8t4.5 6q4 3 8 6.5t11 4.5q63 29 135 52.5t154 39.5q81 19 158 26.5t149 7.5q22 0 42 -4.5t36 -14.5q19 -8 28 -18 t9 -22q0 -16 -10 -32t-28 -30q-10 -6 -17 -13l-13 -12l-181 -187l-173 -195q-86 -97 -162 -194.5t-144 -194.5v2z" />
<glyph unicode="[" horiz-adv-x="492" d="M165 -195q12 -2 21 -3t16 -2h7q3 0 6 -2h5h4h7h8q3 2 8 2h10h20h10q9 0 15.5 -1t9.5 -3q4 -3 5.5 -6.5t1.5 -6.5q0 -10 -10 -18.5t-32 -14.5q-20 -6 -48.5 -9t-64.5 -3q-27 0 -44.5 6t-29.5 16q-10 10 -16 28t-6 42q0 16 2.5 41t4.5 56q3 30 7.5 60.5t11.5 65.5 q25 152 52.5 290t58.5 263q32 127 61.5 221.5t55.5 156.5q9 16 22 28t33 18q20 9 49.5 11.5t67.5 2.5q17 0 28.5 -1t18.5 -3q8 -1 11.5 -5.5t3.5 -9.5q0 -10 -17.5 -17.5t-52.5 -15.5l-35 -8l-28 -7q-52 -180 -94.5 -347t-76.5 -321q-33 -152 -55 -277.5t-32 -226.5z" />
<glyph unicode="\" horiz-adv-x="382" d="M115 1000v-1v1q-1 0 -1 1v1q-2 3 -3.5 6.5t-1.5 5.5q0 8 3 15.5t8 14.5q4 3 7 5.5t7 4.5q3 1 6.5 2t6.5 1q10 0 19 -4t18 -13q8 -6 14 -16t9 -22q3 -17 6.5 -35t6.5 -38q4 -21 6.5 -41.5t3.5 -44.5q14 -130 23 -253.5t16 -242.5q7 -118 9.5 -223.5t2.5 -191.5 q0 -26 -2.5 -42.5t-9.5 -24.5q-7 -10 -18.5 -14.5t-30.5 -4.5q-10 0 -17.5 3.5t-12.5 11.5q-3 7 -5.5 22t-4.5 39q-3 118 -7 223t-8 197l-9 168l-7 138q-7 124 -16 211.5t-18 139.5v1z" />
<glyph unicode="]" horiz-adv-x="492" d="M319 979q-5 0 -13.5 0.5t-18.5 2.5q-11 2 -18 2h-10h-13q-9 0 -19 -2h-10h-8q-4 -2 -7 -2h-5q-8 0 -14 2t-9 5q-4 3 -5.5 6.5t-1.5 8.5q0 8 10 15.5t30 14.5q22 5 50.5 7.5t64.5 2.5q27 0 44.5 -5t29.5 -15q10 -10 16 -28.5t6 -43.5q0 -13 -3 -35.5t-6 -54.5 q-2 -32 -7 -64.5t-11 -67.5q-25 -157 -53.5 -298t-60.5 -268q-32 -125 -60 -216t-53 -150q-7 -15 -21 -25.5t-34 -17.5q-20 -9 -49.5 -12t-66.5 -3q-16 0 -28.5 0.5t-19.5 4.5q-8 1 -10.5 5.5t-2.5 9.5q0 8 17.5 16.5t50.5 16.5q18 4 34 7t28 7q52 180 94.5 346t75.5 318 q34 154 55.5 281t31.5 227v2z" />
<glyph unicode="^" horiz-adv-x="1670" d="M900 1187l423 -454h-129l-359 358l-361 -358h-130l423 454h133z" />
<glyph unicode="_" horiz-adv-x="835" d="M835 -297v-95h-835v95h835z" />
<glyph unicode="`" horiz-adv-x="835" d="M431 591q-3 -1 -7.5 0.5t-7.5 3.5q-4 3 -6.5 5.5t-5.5 7.5l-3 7q-2 1 -13 16l-29 37q-17 23 -31 45t-22 39l-5 10q-2 0 -2 1v2v5q0 2 2 3q3 2 5 2h6l77 2q3 -2 7.5 -3t5.5 -4q4 -2 6.5 -6t3.5 -11l2 -3q5 -22 12 -41l15 -38q8 -18 16.5 -33t15.5 -25l5 -5v-2q0 -1 1 -1 v-2v-1q0 -1 2 -2v-1v-3q0 -1 -1 -2t-2 -3h-3h-2q-2 -1 -3 -1h-4z" />
<glyph unicode="a" horiz-adv-x="437" d="M224 382q0 5 -2 10t-5 7q-2 3 -7 5.5t-10 2.5q-13 0 -29 -10t-34 -28t-35.5 -44t-36.5 -59q-17 -32 -31 -63t-24 -59q-8 -29 -12.5 -51.5t-4.5 -35.5q0 -7 1 -10.5t3 -6.5l1 -1q0 -1 2 -1q0 -1 1 -1h1q8 0 19.5 7.5t26.5 22.5q15 13 30.5 32.5t30.5 40.5q25 37 45 73.5 t36 75.5q19 38 26.5 60.5t7.5 31.5v1zM172 125q-22 -38 -43.5 -66.5t-46.5 -48.5q-24 -18 -47 -28t-43 -10q-19 0 -34.5 7.5t-27.5 20.5q-12 12 -18 29.5t-6 38.5q0 31 6 62.5t18 64.5q10 34 26 69t39 72q17 38 39.5 66.5t47.5 50.5q23 23 45.5 33t44.5 10q10 0 20 -2.5 t20 -9.5q5 -1 9 -5.5t9 -7.5q5 -5 9.5 -10t9.5 -12q3 0 5.5 1t4.5 1q5 2 9 2.5t8 0.5q5 2 10 2h8q15 0 27.5 -2.5t20.5 -9.5q10 -6 14.5 -13.5t4.5 -16.5q0 -7 -6 -20t-16 -37q-10 -18 -17 -33l-11 -27q-17 -35 -29.5 -66t-20.5 -59q-9 -27 -14 -47t-5 -31q0 -7 1 -11.5 t2 -7.5q4 -2 6.5 -3.5t5.5 -1.5q7 0 15.5 7t19.5 18q12 14 31 39l46 63q5 7 10 15t12 18l13 16q5 6 8 6q2 0 4.5 -1t4.5 -2q2 0 4.5 -2.5t3.5 -6.5q4 -5 6.5 -9t2.5 -7q1 -2 1 -4v-5q0 -6 -6.5 -20.5t-20.5 -37.5q-11 -22 -28 -46t-37 -48q-13 -20 -26.5 -33t-24.5 -22 q-12 -6 -25.5 -8.5t-26.5 -2.5q-17 0 -31 5t-24 16q-10 14 -14.5 32t-4.5 42v12v8v7q0 3 2 5v1z" />
<glyph unicode="b" horiz-adv-x="440" d="M250 418q-10 -2 -25.5 -10.5t-34.5 -23.5q-18 -15 -39 -36t-42 -46q-22 -28 -40.5 -56.5t-30.5 -56.5q-11 -29 -17 -58t-6 -59q0 -14 3.5 -24.5t9.5 -19.5q9 -6 19 -10.5t21 -4.5q16 0 29 5t25 15l9 7l8 8q8 9 16.5 21.5t16.5 25.5q23 40 41.5 79.5t33.5 77.5 q14 40 21.5 71t7.5 53q0 8 -2.5 14.5t-6.5 13.5q-1 5 -6 8.5t-11 3.5v2zM94 367q25 30 48 53t45 38t42.5 22.5t41.5 7.5q20 0 35 -8.5t26 -26.5q12 -17 17 -41.5t5 -57.5q0 -32 -7.5 -68.5t-22.5 -80.5q-17 -41 -37.5 -82t-47.5 -81q-14 -19 -30.5 -32t-36.5 -25 q-10 -5 -20 -9l-20 -8q-12 -1 -22 -3t-20 -2q-12 0 -23.5 2.5t-23.5 6.5q-11 5 -22 13t-21 17q-12 1 -21 3t-16 3q-6 2 -11 3.5t-9 3.5q-6 3 -8.5 10t-2.5 13q0 29 13 92.5t42 163.5q25 98 61 207.5t79 226.5q17 47 30 77t22 47q8 15 17 22.5t16 7.5h6q2 0 6 -2 q1 0 4.5 -1.5t5.5 -3.5q3 -2 5.5 -4.5t5.5 -3.5l7 -6l5 -6q7 -3 12 -6.5t8 -6.5q4 -4 4.5 -6.5t0.5 -3.5q0 -7 -4 -13t-12 -14q-9 -7 -15 -12.5t-9 -9.5q-12 -11 -27.5 -49t-37.5 -98t-43.5 -127.5t-39.5 -142.5v1z" />
<glyph unicode="c" horiz-adv-x="367" d="M215 443l-6 1q-5 -1 -11 -3.5t-13 -6.5l-12 -10q-6 -5 -11 -13q-28 -37 -53 -81t-44 -95q-20 -50 -29 -90.5t-9 -74.5q0 -18 2.5 -32.5t8.5 -24.5q9 -10 19 -12.5t21 -2.5q24 0 46.5 6t44.5 23q23 18 49 43t54 60q14 17 25 34l24 38q11 20 18 30t8 10q4 0 9 -1.5t11 -5.5 q4 -1 5.5 -3.5t3.5 -4.5q1 -3 2 -5t1 -5q0 -7 -3.5 -17.5t-11.5 -25.5q-7 -17 -17 -33.5t-23 -35.5q-25 -37 -52.5 -65t-57.5 -45q-32 -20 -63 -30t-62 -10q-36 0 -62.5 10t-43.5 28q-21 17 -31 44.5t-10 61.5q0 45 12.5 97.5t37.5 112.5q21 58 50.5 104t61.5 78q8 8 17 15 t19 8q9 4 20.5 5.5t23.5 1.5q6 0 12 -1t11 -1q3 -1 5.5 -1t6.5 -2q8 -2 16.5 -7t16.5 -11q14 -2 24.5 -8.5t17.5 -18.5q8 -12 12.5 -26t4.5 -33q0 -28 -7.5 -57t-22.5 -59t-30.5 -45.5t-31.5 -15.5q-9 0 -16.5 3.5t-15.5 10.5q-7 7 -10 14.5t-3 13.5q0 14 4 34.5t14 47.5 q8 28 15 48.5t8 33.5v2z" />
<glyph unicode="d" horiz-adv-x="424" d="M227 362q-2 2 -4.5 3.5t-3.5 5.5q-2 1 -4.5 3t-4.5 3q-1 2 -3.5 3t-4.5 1h-4h-4q-10 0 -21 -6t-24 -19l-29 -35q-16 -20 -35 -49q-20 -32 -35 -63.5t-28 -64.5q-12 -32 -17 -60.5t-5 -51.5q0 -7 1.5 -13.5t5.5 -13.5q1 -2 3 -3.5t3 -1.5q4 0 7 -1t7 -1q18 0 40.5 23.5 t51.5 75.5q28 50 55.5 116t52.5 148v1zM172 85q-18 -38 -38 -66.5t-42 -50.5q-22 -23 -41 -33t-38 -10q-16 0 -33 10t-30 30t-20 43.5t-7 53.5q0 38 11 82.5t34 90.5q22 49 49.5 92.5t64.5 81.5q10 9 20 16l17 13q8 5 16.5 7.5t14.5 2.5q10 0 20 -3.5t22 -10.5 q12 -5 23.5 -13.5t24.5 -19.5l33 91l39 118q40 118 69.5 178t46.5 60q13 0 24.5 -2.5t20.5 -7.5q8 -6 12 -13t4 -15q0 -7 -7.5 -27t-22.5 -53l-18 -41q-8 -18 -15 -31q-39 -92 -70.5 -177t-54.5 -165q-22 -79 -34.5 -136.5t-12.5 -90.5q0 -9 1.5 -15.5t3.5 -10.5 q3 -5 5.5 -6.5t7.5 -1.5q7 0 15.5 5t18.5 17q11 12 26 32t34 50q3 6 8 13.5t10 17.5q7 14 12.5 19.5t10.5 5.5h3h1q1 -1 4 -1t3 -2q3 -2 4 -4.5t1 -5.5q0 -5 -2.5 -13.5t-6.5 -19.5q-5 -12 -12.5 -27t-17.5 -33q-17 -36 -34.5 -61t-32.5 -40q-15 -11 -31.5 -18.5t-35.5 -7.5 q-16 0 -30.5 6.5t-24.5 18.5q-10 13 -15.5 32t-7.5 45v1z" />
<glyph unicode="e" horiz-adv-x="332" d="M95 237q14 -2 27 12.5t27 44.5q6 15 10.5 30t7.5 30q3 13 5 28t2 30v4q0 3 -2 5q0 2 -1 4.5t-2 3.5l-3 3l-2 2q-2 2 -4.5 3t-5.5 1q-12 0 -25.5 -15.5t-31.5 -43.5q-17 -30 -25.5 -53.5t-8.5 -41.5q0 -12 2 -20t7 -15q3 -7 10 -10.5t13 -3.5v2zM35 209q-2 -14 -4.5 -24.5 t-3.5 -20.5q-2 -12 -2 -23v-24q0 -22 2.5 -39.5t9.5 -30.5q6 -12 15.5 -18t20.5 -6q24 0 50.5 14.5t58.5 42.5q32 29 59.5 64.5t49.5 79.5q3 3 5.5 9t5.5 12q9 17 14.5 25.5t10.5 8.5h6q1 0 4 -2q2 -1 4.5 -2t4.5 -4q3 -5 4.5 -10t1.5 -14q0 -7 -4 -21t-14 -32 q-10 -19 -23.5 -39t-29.5 -41q-31 -39 -58.5 -66.5t-53.5 -44.5q-27 -15 -55.5 -23t-56.5 -8q-32 0 -53.5 9t-38.5 24q-15 18 -23.5 45t-8.5 64q0 38 9.5 84.5t27.5 98.5q18 54 40 101.5t50 87.5q8 13 18.5 23t20.5 17q10 8 20 11.5t20 3.5q6 0 11 -1t10 -4l12 -5 q7 -3 13 -8q5 -2 12.5 -3.5t16.5 -3.5q25 -7 37.5 -22t12.5 -38q0 -52 -15 -98t-44 -89q-28 -44 -58 -65.5t-62 -21.5q-7 0 -12.5 2.5t-12.5 4.5q-7 3 -12.5 7t-12.5 11v2z" />
<glyph unicode="f" horiz-adv-x="308" d="M154 334q-20 -60 -36 -122.5t-28 -131.5q-8 -52 -25.5 -76t-42.5 -24q-12 0 -18.5 2.5t-11.5 7.5q-5 3 -8.5 8t-3.5 14q0 13 6 42l14 71l28 95q15 52 37 114l-5 2q-15 -2 -27.5 0.5t-20.5 7.5q-9 5 -11.5 12.5t-2.5 15.5q0 7 3.5 12t15.5 10q11 5 28.5 9t43.5 8 q35 135 79 245.5t96 193.5q52 85 99.5 127t89.5 42q6 0 12 -2.5t13 -9.5q6 -7 11 -16t10 -22q4 -5 9 -10t11 -12q19 -22 28 -35.5t9 -18.5q0 -6 -3.5 -12t-11.5 -11q-7 -5 -12.5 -7.5t-12.5 -2.5q-10 0 -17.5 6.5t-15.5 18.5q-7 12 -16 17.5t-18 5.5q-47 0 -111 -116 t-148 -349l-10 -25q2 -2 4 -2h3q2 -2 5 -2h3h10h5q25 0 43 -2.5t24 -5.5q9 -4 13 -11.5t4 -18.5q0 -14 -5 -22t-15 -13t-35 -7t-65 -2z" />
<glyph unicode="g" horiz-adv-x="409" d="M-30 55q2 -12 4.5 -19.5t5.5 -12.5q5 -5 10 -7.5t10 -2.5t9 1t8 3q3 3 7 5.5t9 7.5q9 8 19.5 20.5t22.5 29.5l55 84q25 40 44 78q18 39 27 66.5t9 43.5q0 10 -1.5 17t-6.5 12t-12.5 7.5t-15.5 2.5q-10 0 -24.5 -9.5t-32.5 -29.5q-17 -18 -36 -45.5t-41 -62.5 q-17 -27 -28.5 -54.5t-19.5 -54.5q-10 -26 -15 -47t-5 -35zM160 105q-28 -40 -50.5 -67.5t-41.5 -39.5q-16 -15 -33.5 -23t-34.5 -8t-33.5 8t-29.5 23q-14 12 -20 33t-6 46q0 35 9.5 75t27.5 85q17 45 39.5 87t49.5 78q18 22 32.5 36.5t24.5 20.5q11 9 23 12t23 3 q10 0 22 -3t23 -10q12 -7 25.5 -16t29.5 -22q12 3 19.5 4t11.5 2h7h4q14 0 24.5 -2.5t19.5 -10.5q8 -7 12 -16t4 -19q0 -4 -3 -13t-12 -24q-31 -70 -57 -150t-48 -171q-5 -21 -12.5 -56t-15.5 -86q-10 -48 -18.5 -82t-16.5 -51q-12 -25 -30.5 -44.5t-46.5 -32.5 q-27 -13 -58.5 -20t-65.5 -7q-33 0 -58 5t-45 15t-29.5 22.5t-9.5 29.5q0 7 2 12.5t5 9.5q3 5 7.5 7.5t9.5 2.5t8 -2.5t7 -6.5q1 -1 3 -3.5t3 -4.5q2 -3 3.5 -6.5t3.5 -6.5q5 -2 10 -3.5t8 -3.5q5 -2 10 -2.5t10 -2.5q9 -2 19 -2.5t20 -0.5q22 0 40 3t33 10q17 7 30.5 16 t24.5 23q9 16 17.5 43.5t16.5 62.5l22 95l31 148v1z" />
<glyph unicode="h" horiz-adv-x="409" d="M179 252q-15 -23 -32 -55l-40 -70q-50 -85 -86 -127t-61 -42q-13 0 -23 2.5t-17 7.5q-5 7 -8.5 15.5t-3.5 16.5q0 27 15 85.5t47 149.5q28 92 67.5 198t91.5 227l7 19l9 26q44 100 79 151t62 51q6 0 11 -2t9 -5q5 -3 6.5 -8t1.5 -10q0 -2 -8 -20l-22 -50 q-82 -181 -154.5 -368.5t-134.5 -383.5l52 82l67 107q65 103 112.5 155t77.5 52q8 0 15 -2.5t12 -9.5q5 -5 8 -12.5t3 -15.5q0 -7 -0.5 -13t-2.5 -12q-2 -7 -5 -14.5t-8 -15.5q-29 -62 -49 -111l-35 -81q-12 -34 -18.5 -58t-6.5 -41q0 -5 1.5 -9t3.5 -8q2 -1 4.5 -3.5 t5.5 -2.5q8 0 20 8t25 25q15 15 34.5 42.5t42.5 64.5q2 3 3.5 5.5t3.5 6.5q10 15 16.5 22.5t11.5 7.5q3 0 7.5 -3.5t10.5 -11.5q7 -7 9.5 -13t2.5 -9q0 -7 -6.5 -23.5t-21.5 -41.5q-14 -23 -31.5 -46.5t-37.5 -45.5q-6 -7 -13 -12.5t-12 -10.5q-6 -5 -13 -8.5t-13 -5.5 q-12 -8 -26.5 -10.5t-29.5 -2.5q-16 0 -30.5 5t-24.5 13q-10 10 -15 26t-5 38q0 15 2.5 32.5t7.5 39.5q4 20 12 48l17 63v2z" />
<glyph unicode="i" horiz-adv-x="248" d="M109 498q-12 -2 -22 1.5t-19 9.5q-6 7 -10.5 16t-4.5 21q0 15 7.5 27.5t24.5 22.5q10 7 21 11l23 8q5 0 10.5 0.5t10.5 0.5q12 0 20.5 -2.5t13.5 -8.5q5 -5 8 -13t3 -18q0 -15 -6.5 -28t-19.5 -25q-14 -12 -29 -18.5t-31 -6.5v2zM45 -13q-22 0 -37.5 8t-27.5 25 q-13 18 -19 43.5t-6 56.5q0 37 6 79.5t17 89.5l13 43l11 37q5 17 10.5 29.5t12.5 20.5q5 9 12.5 14.5t17.5 10.5q12 5 23.5 7t25.5 2q6 0 12 -2t9 -5q5 -2 7.5 -7t2.5 -13q0 -2 -3 -11l-8 -23q-5 -10 -7.5 -18t-6.5 -15l-10 -28q-35 -97 -51.5 -156.5t-16.5 -82.5 q0 -10 1.5 -17t4.5 -12q4 -5 9.5 -6.5t12.5 -1.5q10 0 25 10t35 30t40 47.5t40 59.5q4 3 6.5 10t7.5 15q6 13 11 20t10 7t10 -2.5t11 -6.5q5 -5 7.5 -10.5t2.5 -12.5q0 -2 -8 -16l-21 -37q-7 -12 -13.5 -21t-9.5 -16q-22 -42 -44.5 -70.5t-40.5 -44.5q-20 -17 -40.5 -23.5 t-43.5 -6.5z" />
<glyph unicode="j" horiz-adv-x="175" d="M-189 -302q20 20 44.5 97.5t54.5 211.5l37 159l30 126q1 5 3 10t2 12q1 7 3 13.5t3 13.5q12 58 31 86.5t46 28.5q12 0 20.5 -1.5t14.5 -6.5q7 -4 9.5 -10.5t2.5 -14.5q0 -5 -1 -10.5t-4 -11.5l-4 -8l-6 -9l-4 -4l-4 -4q-22 -77 -44.5 -169.5t-44.5 -203.5 q-22 -107 -40 -172t-32 -87q-13 -23 -34 -42t-48 -36q-28 -18 -54 -26.5t-53 -8.5q-38 0 -70.5 10t-59.5 30q-28 18 -42.5 40t-14.5 45q0 2 1 4.5t1 4.5q2 1 2.5 3.5t2.5 4.5q3 3 7.5 5.5t9.5 2.5q1 0 5.5 -2.5t7.5 -7.5q2 -3 3.5 -5.5t3.5 -5.5q2 -4 3.5 -6.5t3.5 -5.5 q16 -14 34.5 -25.5t40.5 -18.5q10 -3 20 -6.5t20 -4.5q11 -4 21.5 -4.5t20.5 -0.5q6 0 12 0.5t13 2.5q3 0 6.5 1t6.5 2q5 0 8.5 1t6.5 3h-2zM165 584q0 -8 -1.5 -15.5t-4.5 -14.5q-5 -8 -10 -14l-12 -16q-13 -15 -28 -22.5t-34 -7.5q-12 0 -20 3.5t-17 8.5q-6 7 -8.5 15 t-2.5 18q0 14 6.5 27t18.5 25q13 12 26.5 18t30.5 6q18 0 29 -2.5t16 -6.5q6 -1 8.5 -8t2.5 -15v1z" />
<glyph unicode="k" horiz-adv-x="409" d="M20 147q-10 -28 -18.5 -59t-14.5 -68q-9 -37 -20.5 -56t-24.5 -19q-10 0 -18.5 3.5t-15.5 9.5q-8 7 -10.5 14.5t-2.5 15.5q0 5 9 37.5t28 94.5q10 29 17 53l13 41l72 251q31 103 50 160l31 99l24 68v6q13 34 30.5 51.5t39.5 17.5q10 0 19 -3.5t17 -10.5q9 -6 13 -13 t4 -13q-1 -2 -2 -3t-3 -4q-15 -17 -28.5 -41t-26.5 -58q-17 -40 -34 -87l-34 -101l-37 -119q-19 -63 -37 -137l31 28l39 36q75 65 122 98.5t65 33.5q14 0 24 -1t15 -4q6 -2 8.5 -4.5t2.5 -7.5t-18 -22.5t-57 -47.5l-72 -63l-66 -61q8 -57 18 -99.5t20 -72.5q12 -30 24.5 -44 t25.5 -14q8 0 20 7.5t24 22.5q13 15 34 49l54 86q0 2 1 3.5t2 3.5q5 11 11 17t13 8q3 0 7 -2.5t10 -7.5q3 -5 5.5 -10t2.5 -10q0 -10 -6 -27t-19 -42q-12 -25 -28 -49t-34 -48q-15 -16 -30 -28t-32 -20q-15 -8 -31.5 -13t-35.5 -5q-21 0 -41 10.5t-39 29.5q-16 21 -34.5 63 t-38.5 104z" />
<glyph unicode="l" horiz-adv-x="332" d="M122 327q52 97 95.5 189t74.5 177q34 87 50.5 142t16.5 78v9q0 5 -3 7q-2 3 -4.5 4t-5.5 1q-2 0 -5.5 -1t-6.5 -3h-2h-1l-65 -168l-57 -157l-47 -146q-22 -70 -40 -133v1zM12 182q-2 -2 -4 -2h-3q0 -1 -2 -1h-1h-2l-2 -2q-8 0 -14 4t-11 11q-5 8 -7.5 16.5t-2.5 16.5 q0 7 7 10.5t20 4.5q12 4 23.5 10t19.5 16q24 90 50 177l52 173l56 168q28 83 58 163v3v4v1v2q-2 2 -2 3v4q0 10 7.5 20t21.5 20q10 6 19 10l17 6q5 0 9.5 1t9.5 1q16 0 33.5 -8.5t34.5 -24.5q19 -17 28 -33.5t9 -30.5q0 -37 -23.5 -106t-68.5 -173q-47 -102 -106 -208.5 t-133 -215.5q0 -7 -0.5 -13.5t-2.5 -13.5q-2 -5 -2.5 -11.5t-0.5 -11.5q-2 -12 -2 -22v-18q0 -27 2.5 -47t7.5 -32q5 -11 12.5 -16t19.5 -5q11 0 23.5 6.5t26.5 19.5q13 14 29.5 36.5t35.5 54.5l5 9l7 9q5 8 10.5 19t12.5 23q8 18 15 25.5t8 7.5q5 0 11 -2.5t13 -9.5 q8 -5 10.5 -10t2.5 -10v-3q0 -2 -1 -2l-1 -1q0 -2 -0.5 -3t-0.5 -2l-42 -79q-18 -33 -30 -52q-3 -6 -7.5 -12t-7.5 -11l-17 -19q-7 -9 -13 -18q-14 -10 -27 -18l-23 -15q-12 -5 -25.5 -7.5t-26.5 -2.5q-22 0 -43 10t-39 30q-18 23 -28 48t-10 52v10q0 5 1 10v3v4v6v7 q0 5 1 9.5t1 9.5q0 3 1 7t1 9v2z" />
<glyph unicode="m" horiz-adv-x="591" d="M369 50q-7 5 -12.5 12.5t-9.5 14.5q-1 7 -3 15t-2 17q0 18 15 71.5t47 143.5l5 17q-22 -37 -45 -82l-52 -99q-41 -80 -73 -119t-54 -39q-11 0 -20.5 4t-15.5 11q-7 6 -10.5 16t-3.5 22q0 13 7.5 53.5t22.5 108.5q4 15 6.5 27t3.5 20q-25 -39 -50 -86l-53 -100 q-25 -50 -44.5 -74t-32.5 -24q-20 0 -34 5t-23 13q-8 5 -12 18.5t-4 31.5q0 12 10 50.5t30 105.5q15 46 25 84t16 68q9 30 16.5 48.5t12.5 24.5q6 9 13.5 12t17.5 3q12 0 22 -5t20 -15t15 -20t5 -23q0 -7 -5 -15l-13 -19q-10 -10 -16.5 -18t-10.5 -17q-7 -10 -15 -34 l-20 -63q-12 -36 -23.5 -79.5t-21.5 -92.5q53 104 96 176.5t71 112.5t50 61t37 21q8 0 15 -3.5t10 -9.5q5 -7 8.5 -15.5t4.5 -21.5l-13 -22q-10 -30 -18.5 -59t-16.5 -61l-14 -62l-13 -65l93 172q42 74 74 120q32 49 55.5 73t38.5 24q3 0 4.5 -0.5t5.5 -0.5q1 -2 3.5 -3.5 t4.5 -5.5q3 -3 7.5 -9.5t9.5 -15.5q5 -5 8 -10t5 -8q2 -2 2 -2.5t1 -2.5q0 -3 1 -5.5t1 -4.5q0 -4 -1 -9t-4 -10q-2 -5 -9 -15l-14 -23q-19 -28 -35.5 -61.5t-29.5 -72.5q-14 -36 -20.5 -63.5t-6.5 -46.5q0 -8 1.5 -14.5t3.5 -11.5q3 -5 7.5 -8t9.5 -3q10 0 20 6t20 18 q10 13 26 38l37 60q3 5 6.5 12t8.5 12l7 13l6 13q7 16 11 22.5t6 6.5q5 0 11 -2.5t13 -10.5q8 -7 11.5 -14t3.5 -12q0 -6 -4.5 -18t-12.5 -30q-8 -17 -20 -36l-25 -41q-17 -26 -33.5 -48t-31.5 -35q-17 -14 -30.5 -21.5t-26.5 -7.5q-5 0 -9 1t-8 3q-3 1 -7.5 3.5t-9.5 4.5 q-5 3 -9 6.5t-7 6.5l-8 10q-4 5 -9 10v2z" />
<glyph unicode="n" horiz-adv-x="427" d="M197 284l-46 -80q-24 -42 -51 -95q-33 -62 -58 -92t-42 -30q-13 0 -25.5 4t-22.5 11q-10 10 -14.5 23t-4.5 30q0 20 6 57t19 90q14 54 29.5 104.5t35.5 99.5q7 17 13.5 27.5t13.5 15.5t14.5 7.5t19.5 2.5q10 0 19 -2.5t16 -7.5q8 -6 12 -12t4 -14q0 -2 -3 -9t-8 -17 q-35 -70 -58.5 -145t-37.5 -153l97 178q42 75 72 120q30 44 53.5 66.5t38.5 22.5q13 0 25.5 -4t24.5 -13q12 -8 17 -19t5 -22q0 -4 -1 -7t-3 -7q-1 -3 -4 -7l-7 -6q-9 -7 -13 -10.5t-6 -3.5q-1 -1 -4.5 -10.5t-10.5 -24.5q-1 -5 -3.5 -10t-4.5 -11q-3 -10 -8 -23l-9 -27 q-6 -29 -13.5 -57.5t-12.5 -54.5l-9 -47q-3 -20 -3 -33q0 -9 1.5 -16.5t3.5 -10.5q3 -5 5.5 -7.5t7.5 -2.5q14 0 38 31t61 92q6 12 11 20.5t9 14.5q1 4 3 6.5t3 7.5q4 8 10.5 13t13.5 5q3 0 8 -2.5t12 -9.5q8 -5 11.5 -10t3.5 -10q0 -6 -10 -28t-29 -57q-18 -35 -39.5 -64 t-45.5 -53q-6 -6 -15.5 -11t-17.5 -10q-8 -4 -17.5 -6.5t-17.5 -2.5q-20 0 -36 8.5t-29 23.5q-12 17 -17 41t-5 54q0 15 1.5 33.5t3.5 40.5q3 21 8 47t12 56v2z" />
<glyph unicode="o" horiz-adv-x="384" d="M177 418q0 -2 1 -2t2 2h7q3 0 7 1h7h6q18 0 31.5 -8.5t25.5 -26.5q10 -17 16 -41t6 -54q23 7 42 21t38 36q18 23 29 34t17 11t11 -1t8 -4q3 -4 5.5 -8t2.5 -9q0 -7 -2.5 -13.5t-5.5 -13.5q-3 -6 -8 -13.5t-14 -16.5q-15 -21 -31 -38t-32 -30q-17 -14 -34.5 -22t-35.5 -12 q-19 -61 -42.5 -110.5t-51.5 -82.5q-28 -30 -60.5 -46t-71.5 -16q-27 0 -47.5 8.5t-37.5 26.5q-17 17 -24.5 41t-7.5 56q0 28 7 60.5t20 71.5q12 38 29.5 75t38.5 72q14 20 26.5 35t23.5 25q14 10 26.5 15t24.5 5q8 0 14.5 -2.5t13.5 -5.5q7 -4 12 -9t8 -13v2zM27 78 q0 -13 1.5 -23t6.5 -17q3 -6 10 -8.5t17 -2.5q22 0 44.5 24t48.5 71q25 48 37.5 93.5t12.5 90.5q0 10 -2.5 18t-5.5 15q-5 7 -10 9.5t-13 2.5q-20 0 -43.5 -22.5t-50.5 -71.5q-27 -47 -40 -92t-13 -88v1z" />
<glyph unicode="p" horiz-adv-x="409" d="M23 97q2 -13 6 -22.5t13 -17.5q8 -7 16.5 -11t18.5 -4q17 0 31 7.5t26 20.5q6 7 13 16t13 21q5 12 12 26t13 31q12 25 19 50l15 48q5 24 8 45.5t3 39.5q0 14 -1.5 24t-4.5 16q-4 7 -9 10.5t-10 3.5q-15 0 -36.5 -22.5t-49.5 -67.5q-27 -44 -51.5 -98t-44.5 -118v2z M89 379l39 51q17 23 31 36q15 13 28 19t25 6q23 0 41 -10t31 -32q13 -21 20.5 -48t7.5 -60q0 -69 -17.5 -132.5t-52.5 -119.5q-35 -57 -71.5 -84t-76.5 -27q-17 0 -31.5 4.5t-27.5 12.5q-12 7 -22 16t-13 21l-28 -136q-14 -63 -24 -115q-10 -50 -15 -82.5t-5 -45.5 q0 -5 2 -10t5 -9q3 -5 5 -7.5t2 -3.5q0 -7 -2.5 -12t-7.5 -10t-12 -7.5t-14 -2.5q-15 0 -26.5 3.5t-19.5 9.5q-9 7 -13 17t-4 23q0 20 10 76l28 150q20 92 45 193l54 213q5 15 10 35t10 46q33 122 58.5 183t45.5 61q3 0 6.5 -0.5t8.5 -0.5q3 -2 6.5 -3.5t6.5 -5.5 q7 -3 9.5 -9t2.5 -14q0 -5 -5 -23.5t-15 -50.5q-12 -31 -20.5 -60.5t-14.5 -56.5v2z" />
<glyph unicode="q" horiz-adv-x="449" d="M177 107q-23 -32 -45.5 -53.5t-41.5 -36.5q-18 -14 -35.5 -19t-34.5 -5q-5 0 -9 1t-8 1l-6 4l-9 3q-8 6 -14 14.5t-11 20.5q-3 5 -6.5 10t-6.5 10q-3 3 -5 8t-3 10q-4 7 -5.5 13.5t-1.5 13.5q-2 3 -2 6v7q0 35 12.5 75t36.5 84q21 45 54.5 94.5t78.5 100.5l18 17 q7 8 12 10q5 3 11 4t13 1q6 0 14 -1l14 -2q7 0 14.5 -2.5t13.5 -6.5q15 -5 31 -15t33 -23l12 5q5 2 10 3q5 2 9 2h7q10 0 20 -3.5t20 -11.5t14.5 -15.5t4.5 -16.5q0 -2 -2.5 -8.5t-7.5 -14.5l-10 -18q-5 -9 -9 -17q-33 -82 -64 -169.5t-56 -178.5q-27 -86 -46 -173t-32 -171 h1l2 -1q3 -4 5.5 -5.5t4.5 -4.5q2 -2 2.5 -4.5t0.5 -4.5q0 -3 -1.5 -6.5t-4.5 -6.5l-9 -7q-5 -3 -11 -6q-15 -9 -27.5 -12t-24.5 -3q-8 0 -15 2.5t-12 7.5q-5 3 -6.5 10.5t-1.5 17.5q0 5 1.5 11.5t3.5 16.5v1q0 1 1 1v2q4 33 11.5 75.5t19.5 91.5q11 46 31 113l47 152v2z M-2 89q2 -5 2 -8v-6v-4v-4q3 -2 6.5 -3.5t6.5 -1.5q19 0 36.5 8t35.5 25q19 19 42 49.5t52 74.5q18 26 30.5 51.5t22.5 48.5q10 25 15 42.5t5 29.5q0 5 -1 7.5t-2 5.5q0 2 -1 3.5t-3 3.5q-1 1 -3.5 3t-4.5 2q-2 2 -4 2h-4q-12 0 -24.5 -7t-29.5 -20q-16 -12 -33 -31t-35 -44 q-25 -35 -46 -68t-36 -64q-15 -30 -20 -54.5t-5 -42.5z" />
<glyph unicode="r" horiz-adv-x="354" d="M33 436q-8 3 -14 7.5t-9 7.5q0 2 -1 3.5t-2 3.5q-2 3 -3 6.5t-1 6.5q0 13 7.5 25.5t22.5 24.5q15 13 32 20t34 7q8 0 15.5 -2.5t12.5 -9.5q7 -5 9.5 -11t2.5 -12v-9q0 -5 -2 -11q-2 -5 -2.5 -11t-2.5 -14l55 -15q2 1 2.5 3t2.5 5l5 5l3 3q4 5 9 10t11 9l8 2q4 1 6 3h5h3 q10 0 20 -2.5t20 -11.5q10 -6 15 -13.5t5 -16.5q0 -5 -2 -11l-6 -12q-3 -5 -10.5 -11t-16.5 -14q-27 -44 -46 -84.5t-32 -79.5q-14 -38 -20.5 -73t-6.5 -65q0 -10 1.5 -18.5t5.5 -15.5q3 -7 6.5 -9.5t8.5 -2.5q13 0 27 10t31 29q17 20 34.5 48.5t35.5 64.5q2 4 5 9l5 13 q9 18 15.5 27.5t11.5 9.5q7 0 12 -2.5t10 -7.5q5 -4 7.5 -9t2.5 -10q0 -6 -3.5 -17t-11.5 -24q-7 -15 -16 -32.5t-23 -36.5q-25 -41 -45.5 -69.5t-39.5 -43.5q-17 -12 -36 -18.5t-39 -6.5q-23 0 -41.5 6.5t-31.5 18.5q-12 15 -19 34t-7 46q0 25 4.5 54t12.5 63q9 33 22 71.5 t30 80.5l-45 16q-22 -60 -40.5 -102.5t-31.5 -67.5q-15 -25 -27.5 -37.5t-24.5 -12.5h-2h-3q-3 2 -5.5 3.5t-4.5 3.5q-3 3 -4.5 7t-1.5 9q0 2 3 9l8 20q25 55 42.5 111.5t32.5 113.5v2z" />
<glyph unicode="s" horiz-adv-x="277" d="M-50 70q7 -3 11 -5.5t9 -6.5q10 -3 19 -7t16 -8l31 -10l32 -10q0 10 -4 33.5t-12 58.5q-7 35 -12 65t-8 55l-16 -38l-16 -42q-8 -20 -20 -41l-28 -46zM-89 13q-1 -3 -4.5 -5.5t-8.5 -5.5q-13 -7 -22.5 -11t-12.5 -4q-7 0 -11 2.5t-6 5.5q-3 3 -4 10.5t-1 19.5 q0 2 4.5 7.5t12.5 17.5q72 100 121 216t78 248v5v4v3q0 2 1 3v1v1q0 12 2.5 19.5t7.5 13.5q4 7 11.5 10.5t15.5 3.5q10 0 22.5 -5t27.5 -14q15 -10 22.5 -17.5t7.5 -13.5l-1 -2q0 -3 -4 -7q-33 -41 -49.5 -92t-16.5 -113q0 -30 6.5 -68.5t18.5 -86.5q13 -47 19 -79.5 t6 -51.5q0 -21 -6 -39.5t-19 -35.5q-12 -16 -25.5 -23.5t-28.5 -7.5q-12 0 -32.5 10t-45.5 31q-29 20 -49 32t-35 17z" />
<glyph unicode="t" horiz-adv-x="245" d="M75 628q-22 -3 -42 -4t-35 -1q-18 -2 -32 -2h-21q-18 0 -31.5 2.5t-22.5 7.5q-10 7 -15 14.5t-5 17.5t11 17.5t31 12.5q20 3 68.5 9t127.5 13q13 43 24.5 70t18.5 38q8 12 19 17t24 5q10 0 19.5 -1.5t15.5 -6.5q9 -5 11.5 -10t2.5 -14l-3 -7q-2 -8 -11 -23 q-6 -15 -11 -31l-10 -32l41 2q21 1 39 3h18q9 0 19 1h16h15q39 0 65.5 -3t43.5 -8q15 -7 22.5 -17t7.5 -23q0 -5 -2.5 -7.5t-7.5 -6.5q-3 -1 -14 -2t-28 -1q-18 0 -50.5 -2.5t-76.5 -5.5q-45 -4 -79 -6.5t-58 -5.5l-58 -168q-27 -81 -45 -156q-20 -75 -30 -129.5t-10 -87.5 q0 -12 2.5 -21t5.5 -16t9 -10t13 -3q10 0 21.5 7.5t25.5 18.5q13 14 27 33t29 44l20 40l20 45q10 24 17.5 35.5t11.5 11.5q8 0 14 -3l13 -5q6 -5 8.5 -11t2.5 -13q0 -6 -7.5 -26t-22.5 -50t-33.5 -60t-39.5 -59q-14 -18 -29 -32.5t-31 -22.5q-17 -7 -34 -11t-35 -4 q-20 0 -35 7.5t-27 24.5q-11 18 -17 41.5t-6 53.5q0 37 7.5 87.5t22.5 117.5q13 67 35 144t50 165v2z" />
<glyph unicode="u" horiz-adv-x="454" d="M195 139q-18 -39 -37 -68t-38 -48q-18 -18 -37.5 -26.5t-37.5 -8.5q-8 0 -17.5 2t-17.5 5q-3 2 -6.5 3.5t-6.5 4.5q-4 2 -7 5l-7 9q-8 8 -14 17t-9 18q-3 8 -5 20t-2 23q0 35 7 77.5t22 94.5t32.5 99.5t40.5 91.5q5 10 10 17.5t12 10.5q5 5 12.5 6.5t14.5 1.5 q11 0 20.5 -4t17.5 -12q8 -7 12.5 -17t4.5 -20v-4q0 -1 -2 -3q0 -1 -1 -3t-1 -3q-1 -2 -4.5 -6t-6.5 -8q-25 -52 -44.5 -99.5t-34.5 -90.5q-13 -42 -20.5 -75.5t-7.5 -56.5q0 -12 2.5 -21t3.5 -14q4 -7 9.5 -9.5t14.5 -2.5q17 0 37 22.5t43 67.5t53 116l66 168 q1 15 5.5 27.5t10.5 21.5q9 8 18 12t19 4q12 0 22.5 -4t20.5 -12q10 -9 15 -18t5 -19q0 -2 -5 -13l-13 -29q-43 -90 -65 -167t-22 -140q0 -10 1 -17.5t3 -14.5q3 -7 5.5 -10t4.5 -3q13 0 27 10.5t29 30.5q15 22 33 54l38 75q0 3 0.5 5.5t2.5 4.5q5 13 11.5 19t13.5 6 q3 0 9 -2.5t13 -9.5q8 -5 11.5 -10t3.5 -10t-7 -21.5t-20 -44.5q-13 -27 -28.5 -53t-33.5 -49q-12 -19 -26 -31.5t-27 -18.5q-14 -9 -29 -14t-31 -5q-20 0 -36 8.5t-30 21.5q-13 17 -19.5 38.5t-6.5 48.5q1 4 1 8v11q2 6 3 13l2 15v2z" />
<glyph unicode="v" horiz-adv-x="354" d="M48 68l126 250q51 98 82 145q31 48 57 70.5t48 22.5q13 0 22 -1t14 -2q5 -2 8.5 -7t3.5 -12q0 -1 -6 -8l-17 -22q-2 -1 -3.5 -3t-1.5 -3l-80 -126l-74 -123l-62 -115l-55 -104q-6 -17 -14.5 -26t-18.5 -14q-9 -5 -22 -7.5t-32 -2.5q-18 0 -29.5 4t-18.5 13 q-5 6 -7.5 30.5t-2.5 66.5q0 76 6.5 142t21.5 121q12 54 28.5 81.5t35.5 27.5q8 0 20 -4t25 -13q13 -8 19 -15.5t6 -15.5q0 -4 -1.5 -8t-5.5 -9q-3 -5 -8 -11t-12 -13q-11 -26 -19.5 -58.5t-15.5 -73.5q-7 -38 -10 -83t-7 -95v1z" />
<glyph unicode="w" horiz-adv-x="562" d="M172 110q-17 -38 -33.5 -66.5t-34.5 -45.5q-19 -21 -36.5 -31t-34.5 -10q-11 0 -22 3t-19 12q-5 3 -11 7t-11 11q-15 15 -22.5 35t-7.5 43q0 27 5 59.5t15 71.5q5 20 11 39t11 38q6 18 13 37t13 39q10 25 19.5 42t15.5 24q9 8 16.5 12t15.5 4q9 0 14.5 -1.5t12.5 -4.5 l7 -5q3 -2 6 -5q9 -7 15.5 -17t8.5 -20q-4 -7 -8 -13t-9 -11q-3 -5 -7.5 -9t-7.5 -7q-17 -42 -31 -84l-26 -80q-10 -38 -15 -68.5t-5 -48.5v-11q0 -4 2 -7q1 -2 3 -4.5t3 -2.5q12 0 26 17.5t33 49.5q18 33 51 107l81 190q3 3 4.5 4t3.5 3q3 1 5 2t3 1q14 0 27.5 -3.5 t24.5 -11.5q7 -3 11 -6.5t8 -6.5q1 -5 3 -8.5t2 -6.5q0 -2 -2 -6t-5 -11q-30 -57 -45 -117t-15 -123q0 -7 1 -13t2 -9q2 -3 4.5 -5t5.5 -4q14 0 34 28t45 84q23 55 44.5 123t38.5 148q0 7 -2.5 12.5t-7.5 12.5l-5 13q-2 5 -2 9q0 3 2 7t7 6q5 3 11 4t12 1q12 0 23 -4t21 -14 q11 -9 16 -18t5 -19q0 -20 -7.5 -55t-22.5 -89q-13 -51 -30.5 -99t-39.5 -91q-20 -40 -37.5 -67.5t-34.5 -46.5q-16 -16 -33.5 -23t-36.5 -7h-3h-5q-3 0 -5 1t-5 1q-4 2 -11.5 3.5t-15.5 4.5q-12 4 -22 11.5t-16 18.5q-7 14 -9.5 33t-2.5 43v1z" />
<glyph unicode="x" horiz-adv-x="414" d="M89 89q-5 -7 -12 -15.5t-15 -20.5q-32 -38 -54 -68l-38 -53q-3 0 -6.5 -1t-5.5 -3h-6h-5q-9 0 -15.5 2.5t-13.5 7.5t-10 11t-3 13q0 8 8.5 23t24.5 37l46 63q29 39 73 92q-9 28 -15.5 54t-9.5 48q-5 23 -7 38t-2 27q0 20 7.5 37.5t24.5 32.5q18 15 33.5 23.5t26.5 8.5 q14 0 21.5 -20t10.5 -59l5 -42l5 -33l107 116q45 45 67 65q23 21 40.5 31t29.5 10q8 0 14 -2.5t13 -7.5q6 -5 9.5 -10t3.5 -10q0 -6 -3.5 -12t-9.5 -13l-17 -14q-10 -9 -27 -19q-17 -15 -39 -38l-48 -52l-57 -68l-65 -83q7 -31 15.5 -57t18.5 -46l6 -13q2 -6 5 -9 q7 -10 13 -14t11 -4q6 0 17 10t28 30q8 10 15.5 21t16.5 22q6 12 14.5 25.5t15.5 28.5q3 8 9 18t12 22q10 20 17.5 31t12.5 11t12 -3.5t15 -12.5q9 -6 13 -13t4 -12t-7.5 -22.5t-20.5 -45.5l-32 -55q-17 -27 -35 -52q-14 -18 -29 -31.5t-31 -21.5q-17 -10 -34.5 -15 t-36.5 -5q-21 0 -40.5 6.5t-34.5 19.5q-13 10 -27 33.5t-29 55.5v2z" />
<glyph unicode="y" horiz-adv-x="395" d="M147 139q-13 -30 -28 -52t-32 -39q-17 -15 -33 -22.5t-29 -7.5q-7 0 -12 2t-10 3q-1 2 -2 3.5t-3 3.5q0 2 -1.5 4.5t-3.5 3.5q-10 9 -16.5 17t-9.5 20q-5 12 -7 24.5t-2 29.5q0 58 11 117.5t31 115.5q23 59 46.5 88t45.5 29q10 0 20 -3t20 -12q5 -3 9 -6.5t6 -6.5 q3 -5 4 -8.5t1 -6.5t-1 -6.5t-2 -6.5q-2 -2 -6 -4.5t-9 -4.5q-22 -42 -38 -84.5t-29 -84.5q-12 -41 -18.5 -73t-6.5 -55q0 -3 0.5 -5.5t2.5 -6.5q2 -1 4.5 -2t3.5 -1q12 0 32 26t52 77q32 52 57.5 109.5t47.5 119.5q0 5 2.5 14.5t4.5 20.5q5 29 19 43t39 14q12 0 22 -1.5 t17 -6.5q8 -5 13 -12t7 -15q3 -2 4 -4.5t2 -5.5q0 -2 1 -3l1 -2q2 -2 2 -4v-3q-2 -5 -3 -9t-4 -7q-2 -4 -7 -7t-10 -7q-45 -82 -76 -175.5t-49 -200.5l-26 -157q-9 -55 -9 -56q-10 -35 -32.5 -64.5t-55.5 -52.5q-17 -12 -34.5 -21t-34.5 -14q-17 -7 -33.5 -9.5t-33.5 -2.5 q-21 0 -39.5 4t-33.5 14q-15 9 -31 24t-33 37q-8 6 -14 13t-11 15q-3 7 -5.5 16t-2.5 17q0 12 2.5 19.5t7.5 12.5q3 5 10.5 6.5t16.5 1.5q10 0 17.5 -11.5t10.5 -34.5q2 -7 3.5 -13t3.5 -12q11 -10 25.5 -17t32.5 -13q17 -5 35.5 -7.5t36.5 -2.5h7h8q3 0 10.5 0.5t16.5 2.5 q20 10 41.5 78.5t45.5 195.5q5 33 10 59t8 46v2z" />
<glyph unicode="z" horiz-adv-x="454" d="M78 80q16 2 36 5.5t46 8.5q30 5 50 8t27 3q13 0 25 -2.5t20 -8.5q9 -5 14 -13.5t5 -17.5q0 -6 -1 -9.5t-4 -6.5q-2 -2 -6 -4.5t-13 -4.5q-21 -1 -53 -10.5t-72 -24.5l-67 -19q-27 -7 -42 -7t-29 6.5t-26 18.5q-13 13 -19.5 25.5t-6.5 24.5q0 13 23 45t70 82 q49 51 119 116l160 148q-30 -2 -62 -6l-70 -9q-37 -5 -57.5 -8.5t-29.5 -3.5q-6 0 -12 4t-11 11q-7 7 -9.5 15t-5.5 20q48 17 91.5 28.5t80.5 18.5q38 6 70.5 9.5t61.5 3.5q13 0 25.5 -4t22.5 -13q4 -3 6.5 -6.5t5.5 -6.5q5 -7 7.5 -12.5t2.5 -14.5q0 -13 -34.5 -52.5 t-102.5 -102.5l-128 -124q-59 -58 -108 -112v2z" />
<glyph unicode="{" horiz-adv-x="835" d="M698 1101q-2 -2 -7 -2h-11h-6q-3 0 -4 2h-6h-3q-48 0 -81.5 -10.5t-51.5 -28.5q-17 -20 -26 -60t-9 -100v-197q0 -69 -8.5 -117.5t-26.5 -76.5q-17 -27 -49 -47.5t-77 -34.5q45 -11 77 -31.5t49 -48.5q18 -28 26.5 -76t8.5 -116v-194q0 -62 9 -102t27 -58 q19 -18 52.5 -28t84.5 -10h32v-102h-28q-40 0 -73 2.5t-58 7.5q-23 5 -44 13t-39 20q-22 13 -38 34t-24 48q-10 25 -14 68.5t-4 105.5v197q0 60 -11 103.5t-34 68.5q-22 25 -61.5 37.5t-94.5 12.5h-3h-3q-2 -2 -5 -2h-5h-12h-8v105q1 -1 3 -1h5q3 -2 5 -2h7h10h6 q55 0 94.5 12.5t61.5 37.5q23 25 34 68.5t11 105.5v200q0 62 4 105.5t14 69.5q8 26 24 46t38 33q18 12 39 20t44 13q25 5 58 7.5t73 2.5l28 2v-103z" />
<glyph unicode="|" horiz-adv-x="835" d="M468 1276v-1668h-102v1668h102z" />
<glyph unicode="}" horiz-adv-x="835" d="M458 905v-199q0 -63 11.5 -106.5t34.5 -68.5q24 -25 62.5 -37.5t93.5 -12.5h6h10h6q3 0 6 2h3h4v-102q-2 -2 -7 -2h-12h-6q-2 0 -4 2h-3h-3q-55 0 -93.5 -13.5t-62.5 -38.5q-23 -25 -34.5 -68.5t-11.5 -105.5v-193q0 -64 -4.5 -107.5t-12.5 -69.5q-10 -27 -25 -47 t-37 -35q-17 -10 -37 -17.5t-43 -12.5t-56 -7.5t-74 -2.5h-34v102h8h11h5q3 0 5 -2h4h4q48 0 81.5 10t50.5 30q18 18 27.5 58t9.5 104v194q0 66 9 114t26 76q18 28 49 48.5t76 31.5q-45 14 -76 34.5t-49 47.5q-17 28 -26 76.5t-9 115.5v200q0 59 -9.5 99t-27.5 58 q-17 20 -52 30.5t-85 10.5l-32 1v102h29q40 -2 72.5 -4.5t57.5 -7.5t46.5 -13t38.5 -20q22 -13 37 -33t25 -47q8 -25 12.5 -68.5t4.5 -107.5v2z" />
<glyph unicode="~" horiz-adv-x="1391" d="M1247 511q-41 -32 -81 -53.5t-80 -36.5q-39 -15 -77.5 -22.5t-76.5 -7.5q-17 0 -36 2.5t-39 5.5q-19 3 -39 8t-43 12q-12 4 -29.5 10.5t-40.5 16.5q-82 28 -144.5 43t-102.5 15q-34 0 -69 -7.5t-72 -23.5q-36 -15 -79.5 -40.5t-93.5 -58.5v110q43 27 84 49.5t81 37.5 q40 13 77.5 21t72.5 8q24 0 48 -2.5t47 -7.5q25 -6 60.5 -16t81.5 -26l15 -6q10 -4 22 -8q64 -25 114 -36.5t87 -11.5q33 0 69 7.5t72 24.5q37 15 80.5 39t91.5 59v-105z" />
<glyph unicode="&#xa1;" horiz-adv-x="424" d="M406 1091q18 -2 31.5 -4.5t23.5 -11.5q10 -6 15 -15.5t5 -22.5q0 -22 -10 -42t-30 -38q-10 -10 -20 -16.5t-19 -11.5q-10 -5 -20 -8t-20 -3q-11 0 -19.5 5.5t-15.5 13.5q-6 8 -9.5 20.5t-3.5 27.5q0 22 7.5 39.5t20.5 34.5q14 15 29.5 22.5t34.5 7.5v2zM281 798 q1 17 4.5 28t8.5 17q7 7 17 10.5t26 3.5q12 0 20.5 -2t13.5 -5q5 -2 8 -7t3 -10q0 -30 -13 -98.5t-40 -175.5q-27 -106 -61 -216.5t-76 -222.5q-2 -3 -3.5 -7t-3.5 -8q-23 -60 -48 -89t-52 -29q-12 0 -23.5 3t-21.5 10q-10 8 -15 16.5t-5 16.5q0 4 3.5 12t9.5 20q2 2 3 2.5 t1 2.5q1 0 2 1t1 2l40 111l57 168l69 210l75 235v1z" />
<glyph unicode="&#xa2;" horiz-adv-x="826" d="M546 813l19 -11l14 -9q9 -5 14 -10l10 -10q8 -10 12.5 -21.5t4.5 -25.5q0 -30 -8.5 -57.5t-23.5 -50.5t-32.5 -36t-39.5 -13q-12 0 -22 2.5t-18 9.5q-7 5 -11 12.5t-4 17.5q0 14 6 33t17 42q10 25 16 37l6 13q-2 2 -2.5 4.5t-2.5 5.5h-2v2l-10 5q-10 -1 -20 -5.5 t-20 -12.5q-11 -9 -24.5 -23t-32.5 -37q-31 -42 -59.5 -90.5t-51.5 -103.5q-22 -55 -34 -98.5t-12 -75.5q0 -18 4.5 -32t14.5 -23q8 -10 22.5 -14t30.5 -4q20 0 40 5t40 13q19 10 39 24.5t40 34.5q10 10 16.5 15.5t8.5 5.5q3 0 9 -3t13 -12q8 -6 10.5 -10.5t2.5 -7.5 q0 -18 -16 -38.5t-49 -41.5q-33 -22 -71 -33t-78 -11l-3 2q-7 -22 -15 -44.5t-15 -47.5q-8 -25 -15.5 -51t-16.5 -52q-18 -64 -35 -95t-30 -31q-12 0 -21 1t-14 4q-5 4 -6.5 10.5t-1.5 16.5q0 15 5.5 43.5t17.5 68.5l29 89q16 48 38 101q-27 12 -45.5 27t-31.5 35 q-12 19 -17.5 44t-5.5 55q0 18 2.5 37t7.5 40q3 21 10.5 43t17.5 43q20 49 42.5 91.5t44.5 79.5q23 36 48 67t50 56l24 20q10 9 20 12q10 5 21 6.5t22 1.5l5 2q9 22 19 53l21 67q29 89 55.5 133t50.5 44h14q6 0 11 -3q3 -2 5.5 -6t2.5 -7v-5v-4q-2 -1 -2 -3v-3q-1 -4 -2 -7 t-3 -7l-17 -59q-9 -31 -21 -64l-26 -69q-13 -38 -31 -77z" />
<glyph unicode="&#xa3;" horiz-adv-x="826" d="M159 114q-24 8 -43 16.5t-34 11.5q-17 5 -28.5 7.5t-20.5 2.5q-11 0 -21 -3.5t-17 -11.5q-5 -3 -9 -6.5t-6 -6.5q-3 -4 -4 -7t-1 -7q0 -10 11 -23.5t29 -29.5q22 -17 38.5 -24.5t28.5 -7.5q8 0 17.5 5t17.5 15l19 29q11 16 23 38v2zM683 1007q32 -12 57 -26t45 -32 q18 -19 28 -39t10 -43q0 -15 -5 -28.5t-16 -25.5q-10 -11 -21 -17t-23 -6q-8 0 -16.5 4t-15.5 11q-6 8 -10.5 17.5t-4.5 19.5q0 3 2 9t3 12q4 9 4.5 14.5t0.5 10.5q0 12 -7.5 23t-20.5 19q-13 9 -30 13t-37 4q-43 0 -78 -25t-62 -75t-55.5 -147t-56.5 -242q69 0 114 -2.5 t66 -9.5q22 -7 32 -17.5t10 -27.5q0 -5 -0.5 -7.5t-4.5 -6.5q-3 -1 -8 -3t-12 -2h-4q-3 0 -6 2h-6h-9q-7 2 -13 2h-10h-28q-19 0 -47 -2q-14 0 -26.5 -1t-24.5 -1q-11 0 -21 -0.5t-20 -0.5q-7 -34 -17 -64.5t-20 -57.5t-20 -49.5t-22 -42.5q45 -13 94 -30l100 -35l81 -26 q29 -9 36 -9q8 0 18 5t22 13q13 10 23 15t17 5q8 0 14 -1.5t11 -4.5q5 -2 7.5 -7t2.5 -10q0 -4 -4 -15.5t-14 -29.5q-9 -17 -18 -29.5t-17 -20.5q-7 -7 -13.5 -12t-13.5 -7q-7 -3 -15 -4t-18 -1q-12 0 -89.5 25t-219.5 77q-17 5 -30.5 10t-21.5 9q-29 -34 -51.5 -56.5 t-38.5 -32.5q-17 -13 -33 -20t-31 -7q-27 0 -52 10t-48 27q-23 20 -35.5 40t-12.5 42q0 20 10 41.5t31 45.5q22 23 44.5 34t49.5 11q10 0 23.5 -2t29.5 -5q17 -2 35.5 -7t38.5 -11q8 18 14 37t12 41q5 22 10 47t12 55l-30 2h-22q-45 -2 -73 0.5t-42 5.5q-12 5 -18.5 14.5 t-6.5 21.5q0 10 8.5 17.5t24.5 10.5q17 3 60.5 5.5t113.5 4.5q19 137 50.5 245.5t74.5 188.5q44 80 90.5 120t96.5 40q14 0 27.5 -2.5t28.5 -7.5q15 -6 30.5 -14.5t32.5 -20.5v2z" />
<glyph unicode="&#xa4;" horiz-adv-x="1010" d="M763 723q0 52 -18.5 97t-56.5 82q-37 37 -82 55t-98 18q-54 0 -99 -18t-83 -55q-37 -37 -56.5 -82t-19.5 -99q0 -53 19.5 -99t56.5 -84q38 -37 83 -56t99 -19q53 0 98 19t82 57q38 39 56.5 84t18.5 98v2zM297 987q24 17 49 31t51 24q26 8 53.5 13t55.5 5t56 -5t54 -13 q27 -10 52 -24t50 -33l165 171l59 -59l-167 -167q18 -25 31.5 -50t21.5 -50q9 -27 13 -54.5t4 -55.5q0 -29 -4 -57t-13 -55q-8 -27 -21.5 -50.5t-31.5 -46.5l167 -165l-59 -62l-165 169q-23 -19 -48 -33t-52 -23q-27 -8 -54.5 -12t-57.5 -4t-58.5 4t-53.5 12q-25 9 -49 23 t-48 31l-168 -167l-61 62l171 167q-19 21 -32 45.5t-23 51.5q-9 26 -13 53.5t-4 56.5q0 28 4 55t13 53q10 27 23 52t32 49l-171 168l61 59z" />
<glyph unicode="&#xa5;" horiz-adv-x="826" d="M414 518l151 225q73 102 136 182q66 79 107.5 119t58.5 40q8 0 14 -3.5t12 -11.5q4 -4 6.5 -8t2.5 -7q1 -5 2 -9.5t1 -7.5q0 -5 -22.5 -36t-69.5 -89l-88 -110l-79 -104h3h6q1 -2 4 -2h7q70 -8 105.5 -19.5t35.5 -25.5v-6q0 -4 -2 -7v-3q0 -2 -2 -4q0 -1 -0.5 -3t-2.5 -3 q-35 0 -87 2l-120 3l-82 -112q43 -4 77.5 -6.5t61.5 -3.5q26 -4 45.5 -5.5t30.5 -4.5q22 -5 32 -13.5t10 -20.5v-3v-2q0 -1 -0.5 -3t-0.5 -3q0 -4 -1 -6.5t-3 -5.5h-11h-11h-20h-23q-17 2 -42 2h-60l-135 1q-30 -77 -55 -153t-44 -154q-10 -38 -19 -66.5t-17 -47.5 q-9 -20 -18 -28t-19 -8q-12 0 -22.5 5t-21.5 11q-8 12 -12 24.5t-4 29.5q0 15 6.5 50t21.5 88q14 54 33 114l42 127l-1 7h-49q-18 -2 -36 -2h-37q-19 -2 -37 -2h-37h-11h-7q-13 0 -23 2.5t-17 9.5q-7 5 -9.5 15t-2.5 22q0 8 14.5 12t42.5 8q28 3 76 5l114 3l-25 110h-130 q-15 -1 -25 2t-17 10q-6 7 -8.5 16t-2.5 21q0 3 1.5 5.5t4.5 4.5q2 0 4.5 0.5t5.5 2.5q4 2 8 2.5t9 0.5q15 4 42.5 4.5t65.5 2.5h18h13q-9 45 -14.5 82.5t-11.5 69.5q-3 33 -5.5 56.5t-2.5 37.5q0 16 5 28.5t12 19.5q8 8 20 12.5t27 4.5q28 0 47 -58t31 -171 q8 -80 15.5 -145.5t14.5 -118.5v2z" />
<glyph unicode="&#xa6;" horiz-adv-x="835" d="M468 332v-616h-102v616h102zM468 1167v-618h-102v618h102z" />
<glyph unicode="&#xa7;" horiz-adv-x="835" d="M454 192q34 12 59 28.5t41 33.5q15 17 23.5 37t8.5 41q0 39 -58.5 101.5t-176.5 152.5q-7 4 -10.5 7t-6.5 5q-28 -12 -50 -27t-37 -33q-15 -17 -22.5 -38t-7.5 -44q0 -37 44.5 -91t130.5 -125l36 -28l26 -22v2zM486 154q17 -19 29.5 -38t22.5 -39q8 -20 13 -40t5 -37 q0 -52 -20 -98t-58 -86q-39 -40 -85 -60t-99 -20q-52 0 -100.5 18.5t-94.5 55.5q-46 36 -69 69.5t-23 65.5q0 12 4 22t11 20q3 5 6.5 8t6.5 5q3 0 6.5 1t6.5 1q9 0 14.5 -6t12.5 -18q3 -3 4 -7t3 -6q15 -32 36.5 -57t48.5 -42q27 -18 58 -26.5t62 -8.5q37 0 66 12t53 35 q23 22 35 48.5t12 60.5q0 31 -33.5 73t-98.5 94q-7 6 -13.5 11t-10.5 7q-47 37 -78.5 68t-49.5 57q-17 27 -25.5 56t-8.5 61q0 39 10 73t32 62q20 29 52.5 50.5t76.5 38.5l-16 23q-8 10 -14 22q-7 10 -12 21l-10 22q-5 10 -7.5 21t-6.5 23q-1 12 -2 22.5t-1 20.5 q0 49 17.5 91.5t54.5 79.5q37 35 80.5 52.5t93.5 17.5q26 0 52 -5t53 -17q28 -12 52.5 -27.5t45.5 -37.5q15 -15 27.5 -31t21.5 -33q10 -16 15 -29.5t5 -25.5q0 -11 -4.5 -21t-12.5 -19q-7 -8 -15 -12t-18 -4q-5 0 -11 8t-14 25q-7 17 -14.5 29.5t-14.5 20.5 q-15 18 -33 33.5t-42 26.5q-22 12 -44.5 18t-45.5 6q-30 0 -56 -10t-48 -31q-21 -21 -31 -44.5t-10 -51.5q0 -12 1.5 -23t6.5 -21q3 -11 9 -22t14 -23q17 -22 48 -50t76 -65q58 -47 94 -82t53 -58q15 -25 22.5 -51t7.5 -55q0 -35 -11 -65t-34 -58q-22 -27 -58 -50.5 t-84 -46.5v2z" />
<glyph unicode="&#xa8;" horiz-adv-x="835" d="M531 735q10 -2 18.5 -4.5t14.5 -9.5q5 -5 8.5 -13t3.5 -18q0 -17 -6 -33t-17 -29q-12 -12 -26 -19.5t-29 -7.5q-7 0 -14.5 3.5t-14.5 10.5q-5 6 -8 14.5t-3 18.5q0 17 5.5 32t17.5 28t24.5 19t25.5 6v2zM351 735q11 -2 18.5 -4.5t12.5 -9.5q5 -5 7.5 -13t2.5 -18 q0 -17 -5 -33t-16 -29q-12 -12 -25.5 -19.5t-28.5 -7.5q-6 0 -13.5 3.5t-14.5 10.5q-5 6 -8.5 14.5t-3.5 18.5q0 17 6 32t18 28q11 13 23.5 19t26.5 6v2z" />
<glyph unicode="&#xa9;" horiz-adv-x="1391" d="M868 741q-6 31 -20.5 56t-37.5 41q-22 19 -51 27t-63 8q-46 0 -83 -18t-65 -57q-27 -36 -40.5 -89t-13.5 -121q0 -67 14.5 -118t40.5 -89q27 -37 64 -55.5t83 -18.5q37 0 66.5 9.5t54.5 29.5q23 20 38 47.5t20 60.5l105 2q-3 -54 -25.5 -95.5t-62.5 -74.5 q-40 -32 -90 -49t-109 -17q-72 0 -128.5 25.5t-100.5 73.5q-41 50 -63 117t-22 150q0 84 22 151.5t65 119.5q43 50 102.5 76t131.5 26q57 0 103.5 -15t84.5 -47q39 -30 60 -69.5t26 -87.5zM1222 591q0 52 -10 102t-30 99q-18 48 -46.5 91.5t-65.5 80.5q-36 38 -79.5 65.5 t-92.5 47.5q-46 20 -98 29.5t-105 9.5q-54 0 -105 -9.5t-97 -29.5q-47 -18 -89 -46.5t-80 -65.5q-37 -38 -66 -82.5t-49 -92.5q-20 -49 -30 -99t-10 -101q0 -52 10 -102t30 -99q18 -47 47.5 -90t65.5 -82q39 -37 82.5 -66t89.5 -49q49 -18 99 -28.5t102 -10.5q53 0 103 10.5 t99 30.5q48 20 92.5 49t82.5 66q37 38 65.5 80t46.5 88q20 47 29 98t9 105v1zM695 1189q62 -2 119.5 -12.5t112.5 -32.5q53 -22 102.5 -55.5t91.5 -76.5q43 -42 74.5 -89.5t53.5 -102.5q24 -53 34 -111.5t10 -118.5q0 -62 -10 -120.5t-34 -112.5q-22 -53 -53.5 -100.5 t-74.5 -87.5q-44 -44 -94 -77.5t-105 -56.5q-55 -22 -112 -32t-115 -10q-60 0 -117 10t-110 32q-54 23 -102.5 56t-91.5 76q-44 43 -76.5 91.5t-55.5 102.5q-22 53 -33.5 110.5t-11.5 118.5q0 58 11.5 115t33.5 112q23 55 56.5 104t77.5 93q41 43 88.5 75.5t101.5 54.5 q53 23 110 33t119 10v2z" />
<glyph unicode="&#xaa;" horiz-adv-x="327" d="M169 1022q0 3 -2 6.5t-5 5.5q-2 3 -5 4.5t-8 1.5q-10 0 -22 -6.5t-25 -19.5q-12 -14 -26 -32t-29 -43q-12 -22 -22 -44t-18 -42q-7 -20 -9.5 -35t-2.5 -23v-5q0 -3 2 -7h1q0 -1 2 -1h1h1q6 0 14.5 5t20.5 13q11 10 22 24l23 29q18 24 34 50t28 52q13 27 19 43t6 22v2z M129 842q-15 -27 -32 -47t-35 -33q-17 -16 -34.5 -23.5t-32.5 -7.5q-13 0 -25.5 5t-21.5 16q-8 10 -12 22.5t-4 27.5q0 21 4 43.5t12 44.5q7 23 19.5 47.5t29.5 49.5q11 25 27 45t34 33q19 14 36.5 20.5t34.5 6.5q11 0 19.5 -0.5t15.5 -4.5q6 -1 12 -6.5t11 -11.5h2h3 q8 3 15.5 4.5t12.5 1.5q12 0 21 -2.5t16 -7.5q9 -5 12 -10t3 -13q0 -2 -3 -11t-12 -22l-13 -26q-7 -13 -10 -21q-12 -23 -21 -45t-16 -42t-11 -33.5t-4 -21.5q0 -5 1 -7.5t2 -5.5q2 -2 3.5 -3t5.5 -1q3 0 10.5 5t14.5 14q8 8 23 25.5t35 44.5l8 11l9 12q5 9 9 12t6 5 q2 0 3.5 -1t3.5 -1q0 -1 1.5 -3t3.5 -5q1 -2 3 -4.5t2 -4.5q1 -1 1 -3v-5q0 -3 -5 -13l-13 -27l-10 -16q-5 -9 -12 -17q-5 -9 -11 -17l-14 -17q-12 -13 -22.5 -23t-19.5 -15q-8 -5 -17 -7.5t-21 -2.5t-22 4t-18 13q-7 10 -10 22.5t-3 28.5v24z" />
<glyph unicode="&#xab;" horiz-adv-x="492" d="M287 230q7 -23 14.5 -44t17.5 -41q12 -20 17 -30t5 -13q0 -7 -5 -12t-14 -10q-6 -5 -17 -7.5t-24 -2.5q-5 0 -15 16t-26 46q-15 32 -23 55t-8 40q0 5 7.5 17t18.5 28l33 38q18 21 41 44q3 3 6.5 8t10.5 12q6 8 11 11.5t7 3.5q8 0 17.5 -1.5t20.5 -6.5q10 -4 15 -9t5 -11 q0 -2 -5 -10.5t-15 -19.5l-34 -38q-22 -26 -61 -64v1zM127 230q5 -23 12.5 -43t17.5 -40q10 -22 14 -32t4 -13q0 -7 -4 -12t-12 -10q-9 -5 -19 -7.5t-23 -2.5q-5 0 -15 16t-25 46q-15 32 -22.5 55t-7.5 40q0 5 7.5 17t18.5 28l33 38l39 44q4 3 9 8t10 12q6 8 10.5 11.5 t5.5 3.5h10q5 0 10 -2q4 -1 9 -2t10 -4q10 -4 15.5 -9t5.5 -11q0 -2 -5.5 -10.5t-15.5 -19.5l-32 -38q-23 -26 -60 -64v1z" />
<glyph unicode="&#xac;" horiz-adv-x="1391" d="M1182 698v-409h-93v314h-882v95h975z" />
<glyph unicode="&#xad;" horiz-adv-x="571" d="M68 271q16 3 40 8t56 7q33 3 70.5 4.5t79.5 1.5q38 0 64 -3t40 -12q13 -6 19.5 -20.5t6.5 -34.5q-1 -7 -2 -12t-4 -8q-4 -3 -9 -5t-13 -3q-42 -5 -82 -8.5t-80 -6.5q-39 -2 -69 -4.5t-48 -2.5q-25 0 -39 4t-20 11q-5 7 -7.5 27.5t-2.5 54.5v2z" />
<glyph unicode="&#xae;" horiz-adv-x="1391" d="M690 868h-119v-238h122q50 -2 85 5.5t57 20.5q22 14 32 35.5t10 51.5q0 34 -10 57t-34 37q-21 15 -58 22.5t-85 7.5v1zM710 942q73 -2 126.5 -13t88.5 -34q37 -23 54.5 -58t17.5 -84q0 -37 -11 -67t-32 -55q-22 -23 -51.5 -39t-67.5 -23l154 -312h-127l-144 299h-147 v-299h-115v685h254zM1222 588q0 52 -9 103.5t-29 98.5q-20 48 -47.5 91.5t-64.5 80.5q-38 38 -81.5 66.5t-92.5 48.5q-46 20 -98 29.5t-105 9.5q-54 0 -105 -9.5t-97 -29.5q-47 -18 -89 -45.5t-78 -64.5q-37 -38 -67 -82.5t-50 -92.5q-20 -49 -30 -99t-10 -103 q0 -52 10 -102t30 -99q18 -47 47.5 -90t65.5 -82q39 -37 81.5 -66t89.5 -49q48 -18 98 -28.5t102 -10.5q53 0 104 9.5t98 29.5q49 20 93 49t82 66q37 39 65.5 80.5t48.5 88.5q20 48 29 98t9 102v2zM695 1189q60 -2 118.5 -12.5t111.5 -34.5q55 -21 104.5 -54.5t91.5 -77.5 q43 -41 74.5 -89t53.5 -103q24 -53 34 -110.5t10 -117.5q0 -62 -10 -120.5t-34 -112.5q-22 -53 -54.5 -100.5t-75.5 -87.5q-44 -44 -94 -77.5t-103 -56.5q-55 -22 -112 -32t-115 -10q-60 0 -117 10t-110 32q-56 23 -104 56.5t-92 77.5q-43 41 -75.5 89.5t-56.5 102.5 q-21 55 -32 111.5t-11 117.5q0 58 11.5 115.5t33.5 112.5q23 55 57.5 105.5t77.5 91.5q40 44 87.5 75.5t101.5 53.5q53 23 110 33t119 10v2z" />
<glyph unicode="&#xaf;" horiz-adv-x="835" d="M314 703h242q3 -2 5.5 -2t2.5 -1q2 0 2 -2v-5v-3l-8 -47q0 -5 -1 -8.5t-4 -4.5q-2 -2 -5.5 -3.5t-8.5 -1.5l-248 1q0 -1 -1 0.5t-3 3.5v1v2q-1 2 -1 3v5l8 47q2 2 3.5 5t3.5 5q3 3 7 3h6v2z" />
<glyph unicode="&#xb0;" horiz-adv-x="549" d="M439 954q0 33 -12.5 62t-35.5 53q-24 23 -53 35t-62 12q-36 0 -65 -12t-54 -35q-23 -24 -35.5 -53t-12.5 -64q0 -34 12.5 -63t35.5 -54q25 -23 54 -35t65 -12q33 0 62 12t53 35q23 25 35.5 54t12.5 63v2zM276 1184q48 -2 88 -18.5t74 -49.5q33 -34 50.5 -75t17.5 -89 q0 -47 -17.5 -88t-50.5 -74q-34 -33 -75 -50t-89 -17q-49 0 -89.5 17t-74.5 50q-32 33 -49.5 74t-17.5 88q0 48 17.5 90t51.5 74q33 33 74 49.5t90 16.5v2z" />
<glyph unicode="&#xb1;" horiz-adv-x="1391" d="M1182 129v-96h-975v96h975zM743 962v-281h439v-95h-439v-280h-95v280h-441v95h441v281h95z" />
<glyph unicode="&#xb2;" horiz-adv-x="546" d="M180 479q7 -1 19.5 -1t30.5 1q20 2 35.5 3t26.5 1q35 0 57.5 -2.5t32.5 -6.5q12 -5 18 -12.5t6 -18.5q0 -7 -2 -12t-5 -8q-3 -4 -9 -6.5t-14 -4.5h-11h-14h-9q-5 0 -11 2h-12h-15q-52 0 -108 -5t-119 -15q-17 -3 -27 -5t-13 -2q-7 0 -13.5 4.5t-10.5 12.5q-5 8 -7.5 18.5 t-2.5 21.5q0 9 7.5 14t24.5 8q13 3 25.5 5.5t23.5 6.5q28 10 59.5 32.5t68.5 55.5q37 34 76 79l81 98q20 27 36 52t28 48q13 24 18 41.5t5 28.5q0 9 -2.5 14t-7.5 8q-5 5 -12.5 7t-15.5 2q-11 0 -24 -2.5t-28 -11.5q-15 -6 -31 -16.5t-34 -23.5q-14 -10 -27 -21l-25 -21 l-23 -21l-22 -20q-22 -20 -38 -40l-31 -37l-7 -9q-4 -5 -9 -10q-7 -10 -13.5 -15t-11.5 -5q-7 0 -14 2.5t-13 9.5q-7 7 -9.5 12.5t-2.5 12.5q0 5 6.5 17.5t20.5 32.5q13 19 30 40l38 47l69 68q33 31 62 52q30 20 55.5 31t45.5 11q14 0 25 -3.5t21 -8.5q10 -6 15.5 -13.5 t7.5 -16.5q23 -6 39 -15.5t28 -20.5q10 -12 15.5 -25.5t5.5 -28.5q0 -35 -25 -82.5t-75 -109.5q-50 -60 -115 -116t-144 -109v1z" />
<glyph unicode="&#xb3;" horiz-adv-x="546" d="M324 696q27 -8 46 -19t34 -26q14 -15 21.5 -32.5t8.5 -37.5v-2v-5q2 -1 2 -3v-8q0 -14 -7.5 -29t-21.5 -31q-13 -17 -31.5 -31t-41.5 -28q-27 -16 -54.5 -29t-52.5 -21q-25 -7 -48.5 -11t-44.5 -4q-30 0 -55.5 6.5t-45.5 20.5q-20 13 -28 29t-8 34q0 9 1.5 18t8.5 16 q6 8 13 12t13 4q9 0 14.5 -7.5t12.5 -22.5q2 -3 2.5 -5.5t2.5 -5.5q0 -2 1 -3.5t2 -3.5q4 -8 10 -15t12 -10q9 -5 16.5 -6.5t15.5 -1.5t22.5 4t34.5 11q21 8 43 19l45 22q22 14 38.5 26.5t28.5 23.5q13 14 18 24.5t5 21.5q0 15 -7.5 26.5t-20.5 18.5q-15 8 -36.5 12t-50.5 4 h-19h-18q-10 -1 -19 -1h-17h-6h-1q-5 0 -7.5 0.5t-4.5 2.5q-1 2 -2 2.5t-1 4.5l-1 2q-1 1 -1 3q0 23 19.5 36.5t55.5 18.5h3h2h1q1 1 3 1q18 4 39 11.5t44 17.5q25 10 47 21.5t38 25.5q22 13 37 27t27 28q12 13 17.5 25.5t5.5 24.5q0 8 -3 15t-12 10q-6 5 -17 7.5t-26 2.5 q-24 0 -54 -7.5t-68 -22.5q-37 -15 -73 -34.5t-69 -42.5l-15 -10q-7 -5 -15 -13q-8 -7 -13 -9.5t-9 -2.5q-5 0 -10 1.5t-10 5.5q-5 3 -7.5 8t-2.5 10t8 14l19 23q13 13 30 26.5t37 26.5q35 25 69 44.5t66 32.5q33 15 60 21.5t47 6.5q10 0 19 -2.5t16 -5.5q8 -5 14 -12.5 t9 -15.5q20 -7 35 -18t25 -22q10 -12 16 -25.5t6 -30.5q0 -23 -16 -47t-46 -49t-72.5 -48t-97.5 -44v1z" />
<glyph unicode="&#xb4;" horiz-adv-x="835" d="M548 777q3 -2 5.5 -2t4.5 -2q3 -1 3 -3v-5v-1v-1v-1q-2 -2 -2.5 -3t-2.5 -2l-5 -7q-17 -22 -35 -42l-35 -40q-18 -20 -32.5 -33.5t-25.5 -21.5l-5 -7q-2 -3 -4.5 -4.5t-4.5 -3.5q-3 0 -5 -1.5t-5 -1.5q-3 -2 -7.5 -3.5t-9.5 -1.5l-35 1q-3 -1 -5.5 -0.5t-5.5 2.5 q-2 2 -2 3v4v2q0 1 2 3l2 2l3 3l5 8q6 5 17 18.5t24 33.5q14 18 25 38l24 42l3 8q4 4 6.5 8t5.5 6q3 1 7.5 2t7.5 1z" />
<glyph unicode="&#xb5;" horiz-adv-x="918" d="M294 870l-102 -484q-3 -15 -5.5 -29.5t-4.5 -27.5q-2 -12 -2.5 -27t-0.5 -30q0 -45 12.5 -79t33.5 -58q24 -25 56.5 -36.5t74.5 -11.5q51 0 94 20t76 62q33 41 60 104t44 146l100 451h127l-132 -614l-9 -41l-6 -30q-2 -11 -3.5 -22t-1.5 -19q0 -12 4 -22t11 -17 q8 -6 19 -9.5t26 -3.5h7h6h8q4 0 7 2l-21 -99q-5 -2 -9.5 -2.5t-9.5 -0.5q-5 -2 -9 -3t-9 -1q-10 -1 -20 -1h-20q-27 0 -48.5 6.5t-36.5 18.5q-14 13 -21.5 35.5t-10.5 54.5q-17 -27 -41 -49.5t-54 -37.5q-32 -15 -67 -21.5t-74 -6.5q-36 0 -67 5.5t-58 17.5 q-27 13 -48.5 35t-39.5 50l-94 -442h-125l257 1217h127z" />
<glyph unicode="&#xb6;" horiz-adv-x="835" d="M772 1142h-102v-1142h-77v1142h-147v-1142h-79v636q-71 2 -126.5 23.5t-96.5 58.5q-42 39 -62 89t-20 111q0 64 21.5 116.5t65.5 91.5q43 38 102.5 58t130.5 20l390 2v-64z" />
<glyph unicode="&#xb7;" horiz-adv-x="414" d="M122 496q0 17 6.5 32t18.5 26q13 14 28 20.5t32 6.5q18 0 32.5 -6.5t26.5 -20.5q13 -11 19 -26t6 -34q0 -16 -6 -30.5t-19 -27.5q-12 -12 -27 -18t-32 -6t-32 6t-28 18q-12 13 -18.5 27.5t-6.5 30.5v2z" />
<glyph unicode="&#xb8;" horiz-adv-x="835" d="M267 0h54l-29 -95h17q25 0 44 -7t33 -18q13 -12 19.5 -30.5t6.5 -41.5t-9 -42.5t-27 -32.5q-17 -14 -41 -20.5t-58 -6.5q-27 0 -50 2.5t-45 9.5q-22 5 -32.5 10.5t-10.5 14.5v5v3l10 25h1v2q2 3 4.5 5t5.5 2l9 -4l26 -8q19 -5 38 -8.5t38 -3.5q13 0 24 3.5t21 11.5 q8 7 13 16t5 21t-4 20t-13 17q-8 6 -19.5 8.5t-26.5 2.5h-6h-9h-10h-7h-5q-2 0 -4 2v1l-1 1v1v6v4q0 2 1 3v1q0 1 1 2t1 3z" />
<glyph unicode="&#xb9;" horiz-adv-x="288" d="M33 471q9 32 24 79.5t37 109.5q21 63 48 135l58 152h-8h-10q-5 -2 -10 -2h-12q-13 0 -22 2t-14 5q-7 3 -9.5 6.5t-2.5 10.5q0 13 10 22t27 16q18 5 49 7.5t74 2.5q10 0 19.5 -1.5t15.5 -5.5q7 -3 9.5 -8t2.5 -12q0 -3 -6 -18t-19 -43q-27 -57 -51 -114l-46 -112l-44 -113 q-21 -57 -39 -114l5 2q13 -2 24 -4.5t19 -7.5q7 -2 10 -6t5 -7q0 -2 1 -3.5t1 -3.5q0 -12 -10 -18.5t-30 -9.5q-5 -2 -7 -2h-7q-21 -4 -44.5 -8t-50.5 -7q-25 -4 -38.5 -6.5t-14.5 -2.5h-6q-3 0 -4 2l-11 4q-6 3 -9 6q-9 7 -11.5 14.5t-2.5 15.5q0 10 22 18.5t63 13.5 q5 0 9.5 1t5.5 2v2z" />
<glyph unicode="&#xba;" horiz-adv-x="287" d="M134 1047q0 -2 1.5 -2t1.5 2h4h3h2h1h5h2q13 0 24.5 -5t18.5 -18q8 -12 12.5 -28.5t4.5 -38.5q16 3 31.5 13t28.5 27q13 15 22.5 23.5t12.5 8.5t7.5 -1t5.5 -4q4 -2 4.5 -5.5t0.5 -8.5v-4q0 -2 -1 -4q0 -2 -1 -4.5t-3 -3.5q-1 -5 -5.5 -10t-9.5 -12l-12 -15 q-6 -7 -11 -12l-12 -11q-6 -5 -13 -10q-12 -9 -25.5 -14t-26.5 -8q-15 -45 -32.5 -79.5t-39.5 -57.5q-21 -24 -45.5 -35.5t-52.5 -11.5q-20 0 -35 6.5t-27 20.5q-13 13 -20 30t-7 38q0 20 5 43.5t17 50.5q10 27 22.5 52.5t29.5 49.5q8 15 18 26.5t20 18.5q8 8 17.5 11.5 t19.5 3.5q5 0 10 -2t10 -5q5 -2 9 -7l8 -10v2zM20 810q0 -10 1.5 -17.5t5.5 -10.5q3 -5 7 -7.5t11 -2.5q17 0 34.5 17.5t35.5 48.5q19 34 28 66.5t9 64.5q0 6 -1 12t-4 9q-2 5 -6 7.5t-9 2.5q-17 0 -34.5 -16.5t-37.5 -49.5q-20 -32 -30 -64t-10 -62v2z" />
<glyph unicode="&#xbb;" horiz-adv-x="492" d="M302 235q-6 19 -13.5 39t-17.5 40l-15 31q-6 11 -6 12q0 9 5.5 14t13.5 10q8 3 19 5.5t23 2.5q5 0 15 -15t25 -47q15 -31 22.5 -54.5t7.5 -40.5q0 -5 -7.5 -16t-21.5 -29q-13 -17 -30.5 -37.5t-40.5 -44.5q-2 -1 -6 -6t-9 -10q-7 -11 -13 -15t-9 -4q-7 0 -16 2.5t-19 7.5 q-12 4 -17 9t-5 10q0 6 21.5 32t65.5 73zM139 235q-2 9 -5.5 19t-6.5 22q-5 10 -9 20t-9 20l-15 30q-5 10 -5 11q0 9 4 14t12 10q9 3 19 5.5t21 2.5q7 0 17 -15t25 -47q15 -31 22.5 -54.5t7.5 -40.5q0 -5 -6.5 -16t-20.5 -29q-13 -17 -30.5 -37.5t-40.5 -44.5q-2 -1 -6 -6 t-9 -10q-7 -11 -13 -15t-9 -4q-7 0 -16 2.5t-19 7.5q-10 4 -15 9t-5 10q0 6 21.5 32t63.5 73z" />
<glyph unicode="&#xbc;" horiz-adv-x="1077" d="M820 120q-37 -1 -74.5 -3.5t-75.5 -6.5q-37 -3 -55.5 -5.5t-19.5 -2.5q-7 0 -14.5 3.5t-12.5 9.5q-5 7 -8.5 15.5t-3.5 16.5q0 12 15 33.5t45 53.5q29 33 94 98l165 159q22 22 41 38.5t36 28.5q18 13 30 19t18 6q14 0 27 -2.5t25 -7.5t17.5 -10t5.5 -9q0 -1 -3 -7t-8 -18 q-37 -80 -73.5 -168.5t-70.5 -183.5h4h6h3h2q2 -2 3 -2h1q23 0 38 -1.5t23 -6.5q9 -5 13 -12.5t4 -17.5v-2v-1q0 -2 -1 -3t-1 -2v-3v-1l-1 -1h-8h-7q-5 1 -11 1h-14h-22q-10 0 -18 -1h-10h-7q-5 -2 -10 -2h-9l-17 -42l-16 -48t-17.5 -37.5t-17.5 -12.5t-15 2.5t-12 5.5 q-1 2 -2 2.5t-1 2.5q-3 3 -4 6.5t-1 8.5q0 8 1 16l4 21l8 29l12 43v1zM842 179q15 33 33 78l40 102l38 95q16 40 24 62l-95 -95l-90 -92l-81 -83l-75 -79q14 0 26.5 1t23.5 2q14 2 26.5 3t25.5 1l51 2q26 1 53 1v2zM848 995l-263 -335l-251 -348q-122 -177 -187 -263.5 t-75 -86.5q-7 0 -13.5 3t-13.5 12q-2 1 -3.5 4.5t-3.5 5.5q-3 5 -4 10t-1 8q0 7 26 48t78 117l121 174l151 214l171 235l123 159q50 60 82.5 91t49.5 31q8 0 14 -3.5t11 -10.5q5 -6 6.5 -13.5t1.5 -17.5v-12q0 -5 -3 -10q-2 -3 -6 -6.5t-11 -6.5v1zM33 506q7 27 19.5 70.5 t34.5 99.5l46 126l57 148h-7h-9q-5 -1 -10 -1h-12q-12 0 -20 1.5t-13 3.5q-5 3 -7.5 6.5t-4.5 9.5q0 14 10 22t27 13q18 5 46.5 7.5t68.5 2.5q10 0 18.5 -1.5t14.5 -4.5q7 -4 10.5 -8t3.5 -9q0 -3 -7 -18l-20 -44q-50 -107 -92.5 -211t-77.5 -208l5 2q13 -2 23 -4.5t18 -5.5 q9 -5 13 -10t4 -10q0 -12 -10 -18t-30 -9h-3h-4q-1 -2 -3 -2h-3q-22 -1 -44.5 -5.5t-47.5 -7.5q-22 -3 -34.5 -5t-14.5 -2q-8 0 -14.5 2.5t-13.5 9.5q-8 5 -11.5 11.5t-3.5 15.5q0 10 18.5 16.5t53.5 11.5q8 0 14.5 1t11.5 2v2z" />
<glyph unicode="&#xbd;" horiz-adv-x="1077" d="M730 73q3 -1 6.5 -0.5t9.5 0.5t13.5 1t17.5 1q18 2 33 2h25q33 0 54 -2t33 -5q10 -3 15 -10.5t5 -21.5q0 -5 -1.5 -9t-5.5 -7q-1 -4 -7 -6.5t-15 -5.5q-10 2 -19 2.5t-17 0.5h-16h-16q-48 0 -101.5 -3t-112.5 -10q-16 -3 -26 -4t-14 -1q-7 0 -12.5 2.5t-9.5 7.5 q-5 7 -7.5 15t-2.5 20q0 8 8.5 14t23.5 8q14 3 24.5 5.5t20.5 4.5q29 12 59.5 33.5t66.5 53.5q35 33 71.5 73t73.5 89q20 25 35 47.5t25 43.5q12 22 17 39.5t5 29.5q0 7 -2 12t-7 8q-3 3 -9 5.5t-14 2.5q-12 0 -24.5 -3t-29.5 -10q-15 -7 -30 -16t-33 -22 q-23 -17 -45.5 -36.5t-42.5 -39.5q-21 -18 -38.5 -36.5t-30.5 -36.5l-4 -4q-1 -1 -1 -3q-2 -1 -3.5 -3t-3.5 -5q-6 -10 -13 -15t-12 -5q-6 0 -13 2.5t-12 7.5l-6 5q-2 3 -2 7q-2 3 -2.5 5.5t-0.5 5.5q0 5 6.5 17t18.5 28q13 19 29 39l36 43q33 37 65 64.5t58 47.5 q29 20 53 30t44 10q14 0 24 -3.5t20 -8.5t16.5 -10.5t8.5 -14.5q20 -6 35 -15.5t26 -20.5q10 -12 16 -24.5t6 -27.5q0 -32 -24 -76t-73 -101q-46 -57 -108 -109.5t-137 -102.5v1zM848 995l-263 -335l-251 -348q-122 -177 -187 -263.5t-75 -86.5q-7 0 -13.5 3t-13.5 12 q-2 1 -3.5 4.5t-3.5 5.5q-3 5 -4 10t-1 8q0 7 26 48t78 117l121 174l151 214l171 234l123 160q50 60 82.5 91t49.5 31q8 0 14 -3.5t11 -10.5q5 -6 6.5 -13.5t1.5 -17.5v-12q0 -5 -3 -10q-2 -3 -6 -6.5t-11 -6.5v1zM33 506q7 27 19.5 70.5t34.5 99.5l46 125l57 149h-7h-9 q-5 -1 -10 -1h-12q-12 0 -20 1.5t-13 3.5q-5 3 -7.5 6.5t-4.5 9.5q0 14 10 22t27 13q18 5 46.5 7.5t68.5 2.5q10 0 18.5 -1.5t14.5 -4.5q7 -4 10.5 -8t3.5 -9q0 -3 -7 -18l-20 -44q-50 -107 -92.5 -211t-77.5 -208l5 2q13 -2 23 -4.5t18 -5.5q9 -5 13 -10t4 -10 q0 -12 -10 -18t-30 -9h-3h-4q-1 -2 -3 -2h-3q-22 -1 -44.5 -5.5t-47.5 -7.5q-22 -3 -34.5 -5t-14.5 -2q-8 0 -14.5 2.5t-13.5 9.5q-8 5 -11.5 11.5t-3.5 15.5q0 10 18.5 16.5t53.5 11.5q8 0 14.5 1t11.5 2v2z" />
<glyph unicode="&#xbe;" horiz-adv-x="1320" d="M1064 120q-37 -1 -74.5 -3.5t-76.5 -6.5q-36 -3 -54.5 -5.5t-20.5 -2.5q-6 0 -13.5 3.5t-12.5 9.5q-5 7 -8.5 15.5t-3.5 16.5q0 12 15 33.5t45 53.5q28 33 93 98l166 159q22 22 41 38.5t36 28.5q18 13 29.5 19t18.5 6q14 0 27 -2.5t25 -7.5t17.5 -10t5.5 -9q0 -1 -3 -7 t-8 -18q-37 -80 -73 -168.5t-69 -183.5h2h6h2h3l2 -2h1q24 0 39 -1.5t23 -6.5t12.5 -12.5t4.5 -17.5v-2v-1q0 -2 -1 -3t-1 -2v-3v-1l-1 -1h-8h-8q-5 1 -11 1h-14h-21q-10 0 -19 -1h-9h-7q-5 -2 -10 -2h-9l-17 -42l-16 -48t-17.5 -37.5t-17.5 -12.5q-9 0 -15.5 2.5t-11.5 5.5 l-3 3v2q-4 3 -4.5 6.5t-0.5 8.5q0 8 1 16l4 21l8 29l12 43v1zM1086 179q15 33 33 78l40 102l37 95l25 62l-96 -95l-90 -92l-81 -83l-74 -79q13 0 25 1l25 2q14 2 26.5 3t25.5 1l51 2q26 1 53 1v2zM1092 995l-264 -335l-250 -348q-122 -177 -187 -263.5t-75 -86.5 q-7 0 -13.5 3t-13.5 12q-2 1 -3.5 4.5t-3.5 5.5q-3 5 -4 10t-1 8q0 7 26 48t78 117l120 174l152 214l170 235l124 159q50 60 82.5 91t47.5 31q9 0 15.5 -3.5t11.5 -10.5q5 -6 6.5 -13.5t1.5 -17.5v-12q0 -5 -3 -10q-2 -3 -6 -6.5t-11 -6.5v1zM311 718q23 -8 42 -19t33 -24 q13 -14 20.5 -30.5t7.5 -34.5v-3v-4v-1q0 -1 2 -2v-3v-4q0 -12 -7 -26t-20 -31q-12 -15 -30 -28.5t-42 -26.5q-26 -17 -51.5 -27.5t-50.5 -19.5q-23 -6 -45.5 -11t-42.5 -5q-27 0 -51 7.5t-44 18.5q-20 14 -27.5 29t-7.5 31q0 9 1.5 17t6.5 15q8 8 14 12.5t13 4.5q8 0 14 -7 t11 -20q3 -7 5.5 -12t4.5 -8q3 -7 8 -13.5t12 -9.5q7 -5 14.5 -7t13.5 -2q9 0 23 5l34 10l40 18q20 9 40 21q24 13 39.5 24t27.5 22q12 12 17.5 23t5.5 21q0 13 -7.5 24t-20.5 18q-13 6 -34 9.5t-48 3.5h-38h-34q-1 -2 -4 -2h-2q-2 0 -3 1t-2 1q-2 0 -3.5 1t-3.5 2 q-2 2 -2.5 5.5t-0.5 8.5q0 20 17.5 31.5t52.5 16.5h4h4q17 3 37 10t42 17q23 10 44.5 21t40.5 22q18 14 33 28t25 26q12 13 17 24.5t5 20.5q0 8 -2.5 15t-10.5 10q-7 3 -17 5t-24 2q-23 0 -52 -7t-64 -20q-35 -12 -69.5 -30.5t-67.5 -41.5q-7 -3 -14 -8l-15 -12 q-6 -7 -11 -10t-9 -3q-3 0 -8 2.5t-10 5.5t-7.5 7.5t-2.5 9.5q0 3 6.5 12t18.5 21q13 13 29 25.5t36 24.5q33 24 65 42t64 32q33 13 58 19.5t42 6.5q10 0 19 -2.5t16 -5.5q8 -5 14 -11.5t9 -15.5q19 -6 33 -16t24 -22t14 -23.5t4 -25.5q0 -11 -3 -23t-10 -23 q-8 -12 -18 -23.5t-25 -23.5q-29 -22 -69 -43.5t-93 -40.5v2z" />
<glyph unicode="&#xbf;" horiz-adv-x="793" d="M215 55q-36 13 -62 31.5t-43 37.5q-16 20 -24.5 45t-8.5 51q0 52 58.5 147.5t175.5 233.5l109 130l83 102q3 4 7 4.5t9 2.5t12 2h15q13 0 22.5 -1t14.5 -4q5 -4 6.5 -9.5t1.5 -14.5q0 -11 -26 -52t-79 -115l-47 -63l-35 -50q-7 -7 -14.5 -17t-15.5 -23 q-82 -112 -122 -190t-40 -121q0 -17 5 -30t13 -23q9 -10 21.5 -15t29.5 -5q33 0 71.5 15.5t83.5 47.5t85 73t77 92q17 -11 27.5 -21t17.5 -19q5 -6 8.5 -15.5t3.5 -17.5q0 -12 -5 -26t-17 -29q-10 -15 -25 -32.5t-39 -37.5q-41 -40 -78 -70.5t-70 -51.5q-32 -19 -58 -29.5 t-46 -10.5q-16 0 -31 5t-29 13q-12 7 -22 22t-20 36v2zM640 1087q15 -1 27.5 -4.5t20.5 -12.5q8 -8 12.5 -19t4.5 -24q0 -18 -10 -38t-32 -44q-22 -21 -42 -32t-40 -11q-13 0 -25 5t-22 15t-15 21.5t-5 23.5q0 18 10 38t30 40t42 30.5t44 10.5v1z" />
<glyph unicode="&#xc0;" horiz-adv-x="749" d="M187 339q38 2 75 5t74 5q11 0 23 1t23 1l44 2q23 1 45 1q3 85 8 163t12 148q5 70 12.5 134t17.5 123q-65 -97 -149 -243zM471 256q-42 -4 -84.5 -9t-85.5 -12q-44 -6 -88 -13t-89 -15l-23 -50q-12 -27 -26 -62q-23 -65 -50 -96t-57 -31q-5 0 -10 2.5t-10 7.5q-1 2 -3 5.5 t-3 4.5q0 4 -1 6.5t-1 5.5q0 27 27.5 97t79.5 185q53 115 122 244l153 272l2 2q68 118 126.5 178.5t105.5 60.5q8 0 20 -2.5t24 -7.5l21 -9l14 -5q13 -3 23 -7t15 -8q5 -5 7.5 -10.5t4.5 -14.5q0 -5 -3.5 -14t-11.5 -22q-7 -12 -12 -22t-8 -19q-10 -30 -20 -97.5t-20 -174.5 t-15 -219.5t-5 -232.5v-30q0 -15 1 -32v-28v-14q0 -15 -4 -26.5t-13 -20.5q-6 -6 -18.5 -11t-27.5 -5q-27 0 -40.5 47.5t-14.5 144.5v16v15q-2 7 -2 13v11v2zM591 1134q-1 -2 -5.5 -1t-9.5 3q-3 3 -5.5 6.5t-6.5 6.5l-3 7q-2 1 -12 15.5t-28 37.5t-32.5 45t-22.5 39l-5 10 q-2 0 -2 1v4q0 3 1 4.5t3 1.5q1 2 3.5 3t7.5 1l77 1q3 -1 6.5 -3t5.5 -5q3 -2 4 -4.5t2 -5.5q2 -2 3 -3.5t1 -3.5l1 -3q5 -22 13 -41t14 -38l17 -33q8 -15 15 -25l5 -5v-3h2v-1v-1q1 -2 1 -3v-2q0 -2 -0.5 -3.5t-2.5 -1.5q-2 -2 -5 -2h-7z" />
<glyph unicode="&#xc1;" horiz-adv-x="749" d="M187 339q38 2 75 5t74 5q11 0 23 1t23 1l44 2q23 1 45 1q3 85 8 163t12 148q5 70 12.5 134t17.5 123q-65 -97 -149 -243zM471 256q-42 -4 -84.5 -9t-85.5 -12q-44 -6 -88 -13t-89 -15l-23 -50q-12 -27 -26 -62q-23 -65 -50 -96t-57 -31q-5 0 -10 2.5t-10 7.5q-1 2 -3 5.5 t-3 4.5q0 4 -1 6.5t-1 5.5q0 27 27.5 97t79.5 185q53 115 122 244l153 272l2 2q68 118 126.5 178.5t105.5 60.5q8 0 20 -2.5t24 -7.5l21 -9l14 -5q13 -3 23 -7t15 -8q5 -5 7.5 -10.5t4.5 -14.5q0 -5 -3.5 -14t-11.5 -22q-7 -12 -12 -22t-8 -19q-10 -30 -20 -97.5t-20 -174.5 t-15 -219.5t-5 -232.5v-30q0 -15 1 -32v-28v-14q0 -15 -4 -26.5t-13 -20.5q-6 -6 -18.5 -11t-27.5 -5q-27 0 -40.5 47.5t-14.5 144.5v16v15q-2 7 -2 13v11v2zM708 1319q3 -1 5.5 -2t4.5 -3q3 -1 4 -2t1 -4v-1v-1q-2 -2 -2 -3l-1 -1v-1q0 -2 -1 -3h-1l-7 -7q-8 -12 -16.5 -22 t-16.5 -18q-8 -10 -18 -20l-19 -20l-32 -35q-14 -14 -25 -22l-6 -7q-2 -1 -3.5 -3t-3.5 -2q-2 -1 -4.5 -3t-5.5 -3q-2 -2 -4.5 -3t-3.5 -1h-5h-4l-36 2q-4 -2 -6.5 -2t-3.5 2q-2 2 -3 4.5t-1 3.5v1q0 1 2 3q2 1 2.5 2t2.5 3l5 8q8 7 18 19.5t24 32.5q13 20 24 40l24 40l4 8 q3 4 5.5 8t5.5 6q4 3 8 4t7 1z" />
<glyph unicode="&#xc2;" horiz-adv-x="749" d="M187 339q38 2 75 5t74 5q11 0 23 1t23 1l44 2q23 1 45 1q3 85 8 163t12 148q5 70 12.5 134t17.5 123q-65 -97 -149 -243zM471 256q-42 -4 -84.5 -9t-85.5 -12q-44 -6 -88 -13t-89 -15l-23 -50q-12 -27 -26 -62q-23 -65 -50 -96t-57 -31q-5 0 -10 2.5t-10 7.5q-1 2 -3 5.5 t-3 4.5q0 4 -1 6.5t-1 5.5q0 27 27.5 97t79.5 185q53 115 122 244l153 272l2 2q68 118 126.5 178.5t105.5 60.5q8 0 20 -2.5t24 -7.5l21 -9l14 -5q13 -3 23 -7t15 -8q5 -5 7.5 -10.5t4.5 -14.5q0 -5 -3.5 -14t-11.5 -22q-7 -12 -12 -22t-8 -19q-10 -30 -20 -97.5t-20 -174.5 t-15 -219.5t-5 -232.5v-30q0 -15 1 -32v-28v-14q0 -15 -4 -26.5t-13 -20.5q-6 -6 -18.5 -11t-27.5 -5q-27 0 -40.5 47.5t-14.5 144.5v16v15q-2 7 -2 13v11v2zM556 1321h75q4 -2 8 -2.5t7 -4.5q2 0 4 -3l6 -5q2 -2 3 -4.5t2 -3.5l5 -2q9 -13 17 -28l17 -31l14 -27 q6 -11 9 -19l3 -4q0 -3 1 -4t1 -2q0 -2 1 -3t1 -2v-5v-4v-3v-3q-2 -2 -3.5 -3t-5.5 -2l-35 -15q0 -2 -1 -2l-2 -2q-3 -1 -6 -1h-2q-5 0 -10 4t-9 12v2l-1 7q-2 -2 -3 0.5t-2 4.5q-15 28 -30 52l-29 45l-38 -42q-17 -19 -32 -34q-13 -15 -22.5 -23t-12.5 -12h-3q-2 -3 -3 -4 l-4 -4q-2 -2 -4.5 -3.5t-3.5 -1.5h-4h-3q-2 0 -2.5 1.5t-4.5 3.5l-26 33q-2 0 -3 1t-1 3q-1 1 -1 3v3v3q0 2 1 4l1 1q1 1 3 2q0 2 0.5 3t2.5 1l3 5q5 1 14.5 9.5t22.5 23.5q15 13 29 29t26 33l2 7h1l2 1l3 3l4 4q3 2 5.5 2.5t5.5 0.5z" />
<glyph unicode="&#xc3;" horiz-adv-x="749" d="M187 339q38 2 75 5t74 5q11 0 23 1t23 1l44 2q23 1 45 1q3 85 8 163t12 148q5 70 12.5 134t17.5 123q-65 -97 -149 -243zM471 256q-42 -4 -84.5 -9t-85.5 -12q-44 -6 -88 -13t-89 -15l-23 -50q-12 -27 -26 -62q-23 -65 -50 -96t-57 -31q-5 0 -10 2.5t-10 7.5q-1 2 -3 5.5 t-3 4.5q0 4 -1 6.5t-1 5.5q0 27 27.5 97t79.5 185q53 115 122 244l153 272l2 2q68 118 126.5 178.5t105.5 60.5q8 0 20 -2.5t24 -7.5l21 -9l14 -5q13 -3 23 -7t15 -8q5 -5 7.5 -10.5t4.5 -14.5q0 -5 -3.5 -14t-11.5 -22q-7 -12 -12 -22t-8 -19q-10 -30 -20 -97.5t-20 -174.5 t-15 -219.5t-5 -232.5v-30q0 -15 1 -32v-28v-14q0 -15 -4 -26.5t-13 -20.5q-6 -6 -18.5 -11t-27.5 -5q-27 0 -40.5 47.5t-14.5 144.5v16v15q-2 7 -2 13v11v2zM616 1172l-53 25q-2 -1 -3.5 -0.5t-3.5 0.5q-3 2 -6.5 3t-6.5 1q-5 1 -9.5 2t-7.5 1q-12 0 -22 -5t-18 -17 q-7 -10 -12 -15t-8 -5l-37 2q-1 -2 -2 -2t-3 2q-1 0 -1 1v2q0 19 8 37t25 35t36 25.5t41 8.5q3 0 8 -1t12 -3l10 -2q5 -1 10 -4l50 -27q2 -4 4.5 -4.5t3.5 -2.5q2 -2 4.5 -2.5t4.5 -0.5q3 0 4.5 -1t5.5 -1h3h5q10 0 19 5t16 17q7 10 12.5 16t10.5 6l37 1q2 -1 3 -1t2 -2 l2 -2v-1v-2q0 -22 -7.5 -39.5t-22.5 -32.5t-32 -22.5t-37 -7.5h-10q-5 0 -10 2q-5 1 -11 3l-14 7v1z" />
<glyph unicode="&#xc4;" horiz-adv-x="749" d="M187 339q38 2 75 5t74 5q11 0 23 1t23 1l44 2q23 1 45 1q3 85 8 163t12 148q5 70 12.5 134t17.5 123q-65 -97 -149 -243zM471 256q-42 -4 -84.5 -9t-85.5 -12q-44 -6 -88 -13t-89 -15l-23 -50q-12 -27 -26 -62q-23 -65 -50 -96t-57 -31q-5 0 -10 2.5t-10 7.5q-1 2 -3 5.5 t-3 4.5q0 4 -1 6.5t-1 5.5q0 27 27.5 97t79.5 185q53 115 122 244l153 272l2 2q68 118 126.5 178.5t105.5 60.5q8 0 20 -2.5t24 -7.5l21 -9l14 -5q13 -3 23 -7t15 -8q5 -5 7.5 -10.5t4.5 -14.5q0 -5 -3.5 -14t-11.5 -22q-7 -12 -12 -22t-8 -19q-10 -30 -20 -97.5t-20 -174.5 t-15 -219.5t-5 -232.5v-30q0 -15 1 -32v-28v-14q0 -15 -4 -26.5t-13 -20.5q-6 -6 -18.5 -11t-27.5 -5q-27 0 -40.5 47.5t-14.5 144.5v16v15q-2 7 -2 13v11v2zM693 1278q10 -2 17.5 -5.5t14.5 -8.5q6 -6 8.5 -14.5t2.5 -18.5q0 -17 -5.5 -33t-17.5 -29q-12 -12 -25 -18.5 t-28 -6.5q-9 0 -16.5 2.5t-12.5 9.5q-6 8 -8.5 15.5t-2.5 17.5q0 17 5 32t16 28q12 14 24.5 20.5t27.5 6.5v2zM513 1278q10 -2 17.5 -5.5t12.5 -8.5q5 -6 8 -14.5t3 -18.5q0 -17 -5.5 -33t-17.5 -29q-12 -12 -24.5 -18.5t-27.5 -6.5q-8 0 -15.5 2.5t-12.5 9.5 q-7 8 -9.5 15.5t-2.5 17.5q0 17 5 32t17 28q12 14 25 20.5t27 6.5v2z" />
<glyph unicode="&#xc5;" horiz-adv-x="749" d="M591 1268q-12 -2 -23.5 -6t-19.5 -15q-9 -8 -14 -19t-5 -24q0 -12 5 -23.5t14 -19.5q10 -10 20.5 -14.5t22.5 -4.5q14 0 25.5 4.5t21.5 12.5q8 8 13 20t5 25t-5 23t-15 20q-8 9 -19.5 14t-25.5 5v2zM591 1331q27 -2 49.5 -11t40.5 -27q19 -17 29 -39.5t10 -47.5 q0 -27 -9.5 -50.5t-27.5 -41.5q-18 -17 -40.5 -27t-51.5 -10q-27 0 -48.5 10t-39.5 27q-17 18 -27 41.5t-10 50.5q0 25 10 47.5t28 39.5q19 18 40.5 27t46.5 9v2zM187 339q38 2 75 5t74 5q11 0 23 1t23 1l44 2q23 1 45 1q3 85 8 163t12 148q5 70 12.5 134t17.5 123 q-65 -97 -149 -243zM471 256q-42 -4 -84.5 -9t-85.5 -12q-44 -6 -88 -13t-89 -15l-23 -50q-12 -27 -26 -62q-23 -65 -50 -96t-57 -31q-5 0 -10 2.5t-10 7.5q-1 2 -3 5.5t-3 4.5q0 4 -1 6.5t-1 5.5q0 27 27.5 97t79.5 185q53 115 122 244l153 272l2 2q68 118 126.5 178.5 t105.5 60.5q8 0 20 -2.5t24 -7.5l21 -9l14 -5q13 -3 23 -7t15 -8q5 -5 7.5 -10.5t4.5 -14.5q0 -5 -3.5 -14t-11.5 -22q-7 -12 -12 -22t-8 -19q-10 -30 -20 -97.5t-20 -174.5t-15 -219.5t-5 -232.5v-30q0 -15 1 -32v-28v-14q0 -15 -4 -26.5t-13 -20.5q-6 -6 -18.5 -11 t-27.5 -5q-27 0 -40.5 47.5t-14.5 144.5v16v15q-2 7 -2 13v11v2z" />
<glyph unicode="&#xc6;" horiz-adv-x="1150" d="M653 954l-102 -123l-98 -128l-99 -139l-110 -163q3 0 10.5 0.5t17.5 2.5q70 10 128.5 17.5t105.5 12.5l45 160l42 142l33 122l27 94v2zM471 324q-32 -3 -66 -7.5t-73 -10.5l-80 -15l-92 -15q-26 -37 -53 -84t-55 -102q-30 -62 -58.5 -92t-55.5 -30q-6 0 -12 2.5t-11 7.5 q-4 5 -6.5 11t-2.5 11q0 20 23 67.5t66 122.5q42 77 100 168l132 198l5 8q160 233 262 349.5t146 116.5h3h5q5 -1 9 -2t8 -3q6 -1 13.5 -3.5t14.5 -7.5l35 2q18 1 34 3h25h21q44 0 97.5 -4.5t116.5 -12.5q64 -7 104 -12t56 -5q7 0 12 -0.5t8 -4.5q4 -1 6.5 -5.5t2.5 -7.5 q0 -22 -51 -36t-151 -23q-37 -1 -71.5 -4.5t-64.5 -5.5l-58 -6q-27 -2 -50 -5q-15 -40 -30 -87t-30 -100l-36 -118l-38 -136q54 5 101.5 9t85.5 6q40 3 75.5 4t66.5 1q22 0 38 -1.5t26 -6.5q10 -4 15 -11.5t5 -17.5q0 -11 -2.5 -19.5t-7.5 -13.5q-5 -7 -12.5 -10.5 t-16.5 -4.5q-33 -2 -74 -5.5t-89 -8.5q-49 -5 -108 -13l-133 -18q-11 -40 -21.5 -73.5t-18.5 -62.5l-15 -53l-13 -45q88 12 157 19l118 13q50 5 84.5 7.5t51.5 2.5q21 0 36 -2t25 -5q9 -3 14 -10t5 -15q0 -17 -20 -28t-59 -16q-5 -1 -8 -1h-7q-53 -9 -116.5 -23t-137.5 -34 q-73 -17 -120 -26t-67 -9q-15 0 -29 6t-26 19q-11 12 -18 27t-7 33q0 10 9.5 52.5t29.5 117.5q8 29 13 52.5t10 39.5v2z" />
<glyph unicode="&#xc7;" horiz-adv-x="733" d="M611 1007q32 -12 57 -26t43 -32q19 -19 29 -39t10 -43q0 -15 -5 -28.5t-15 -25.5q-10 -11 -21 -17t-23 -6q-11 0 -18.5 4t-12.5 11q-5 8 -10 25.5t-9 44.5q-1 10 -6 18.5t-15 14.5q-10 9 -23 12.5t-28 3.5q-25 0 -53 -12t-58 -35q-30 -22 -62 -56t-65 -78 q-45 -58 -80.5 -123.5t-61.5 -135.5q-27 -72 -40.5 -135t-13.5 -120q0 -42 10 -73.5t30 -55.5q20 -22 47 -33.5t62 -11.5q23 0 46.5 4t50.5 13q25 8 52.5 21.5t57.5 31.5l30 21l40 26q22 17 37 25t23 8h3q1 0 1 -1q1 0 3.5 -2t2.5 -5q4 -2 4.5 -7t0.5 -10q0 -6 -5 -18 t-16 -25q-10 -13 -25.5 -28t-35.5 -32q-31 -25 -63.5 -45t-66.5 -32q-32 -13 -62 -20t-55 -7q-67 0 -121 17t-92 52q-41 35 -61 82.5t-20 107.5q0 54 17.5 120.5t49.5 148.5q34 80 79.5 164.5t102.5 171.5q37 53 69.5 93t60.5 67q31 28 56.5 40.5t47.5 12.5q13 0 27.5 -2.5 t29.5 -8.5q15 -5 31 -13.5t32 -20.5v2zM224 0h53l-28 -95h17q25 0 44 -7t32 -18q14 -12 20.5 -30.5t6.5 -41.5t-9 -42.5t-28 -32.5q-16 -14 -40.5 -20.5t-56.5 -6.5q-26 0 -50.5 2.5t-45.5 9.5q-22 5 -33 10.5t-11 14.5v5v3l10 25h2v2q2 3 4.5 5t5.5 2l9 -3q9 -4 28 -9 q18 -5 36.5 -8.5t36.5 -3.5q13 0 25 3.5t20 11.5q9 7 14 16t5 21t-4.5 20t-12.5 17q-7 6 -19.5 8.5t-27.5 2.5h-6h-9h-9h-8h-4q-2 0 -4 2l-1 1l-1 1v1v7v3q0 2 1 3l1 1q0 1 1 2t1 3z" />
<glyph unicode="&#xc8;" horiz-adv-x="758" d="M209 337q-12 -41 -23 -75q-11 -33 -19 -62q-7 -28 -15 -53l-13 -45q90 12 159 19l118 13q48 5 81.5 7.5t51.5 2.5q20 0 35.5 -2t25.5 -5t15 -10t5 -15q0 -17 -20 -28t-59 -16q-5 -1 -9 -1h-8q-51 -9 -114.5 -23t-137.5 -34q-73 -17 -120 -26t-65 -9q-17 0 -31 6.5 t-28 18.5q-13 12 -19.5 27.5t-6.5 32.5q0 10 14 66l41 158l71 263l106 383q10 34 20 53t20 24q12 7 44.5 9.5t87.5 2.5q27 0 72 -3.5t107 -10.5l111 -11q49 -5 82 -9q7 0 12 -0.5t8 -4.5q4 -1 5.5 -5.5t1.5 -7.5q0 -22 -50 -36t-150 -23q-37 -1 -71.5 -4.5t-64.5 -5.5 l-58 -6q-27 -2 -50 -5l-31 -93l-33 -103l-33 -116l-35 -129l99 9q46 4 86 6q40 3 75 4t65 1q24 0 40 -1.5t26 -6.5q10 -4 15 -11.5t5 -17.5q0 -11 -2.5 -19.5t-7.5 -13.5q-5 -7 -12.5 -10.5t-17.5 -4.5q-32 -2 -73 -5.5t-89 -8.5q-47 -5 -107 -13l-132 -18v1zM595 1134 q-2 -2 -4.5 -1t-6.5 1q-1 0 -2 1t-3 1q-3 3 -5.5 6.5t-5.5 6.5l-4 7q-1 1 -12 15l-29 38q-17 23 -31 45t-23 39l-5 10q-1 0 -1 1v4q0 3 0.5 4.5t2.5 1.5q2 2 4.5 3t7.5 1l76 1q2 -1 3.5 -2t3.5 -1q0 -2 1.5 -2.5t3.5 -2.5q3 -2 4 -4.5t3 -5.5q1 -2 2 -3.5t1 -3.5l2 -3 q5 -22 12 -41l15 -38q8 -18 16 -33l15 -25l5 -5v-3h2v-1v-1q2 -2 2 -3v-2q0 -2 -1 -3.5t-3 -1.5q-1 -2 -5 -2h-6z" />
<glyph unicode="&#xc9;" horiz-adv-x="758" d="M209 337q-12 -41 -23 -75q-11 -33 -19 -62q-7 -28 -15 -53l-13 -45q90 12 159 19l118 13q48 5 81.5 7.5t51.5 2.5q20 0 35.5 -2t25.5 -5t15 -10t5 -15q0 -17 -20 -28t-59 -16q-5 -1 -9 -1h-8q-51 -9 -114.5 -23t-137.5 -34q-73 -17 -120 -26t-65 -9q-17 0 -31 6.5 t-28 18.5q-13 12 -19.5 27.5t-6.5 32.5q0 10 14 66l41 158l71 263l106 383q10 34 20 53t20 24q12 7 44.5 9.5t87.5 2.5q27 0 72 -3.5t107 -10.5l111 -11q49 -5 82 -9q7 0 12 -0.5t8 -4.5q4 -1 5.5 -5.5t1.5 -7.5q0 -22 -50 -36t-150 -23q-37 -1 -71.5 -4.5t-64.5 -5.5 l-58 -6q-27 -2 -50 -5l-31 -93l-33 -103l-33 -116l-35 -129l99 9q46 4 86 6q40 3 75 4t65 1q24 0 40 -1.5t26 -6.5q10 -4 15 -11.5t5 -17.5q0 -11 -2.5 -19.5t-7.5 -13.5q-5 -7 -12.5 -10.5t-17.5 -4.5q-32 -2 -73 -5.5t-89 -8.5q-47 -5 -107 -13l-132 -18v1zM711 1319 q4 -1 6.5 -2t3.5 -3q4 -1 4.5 -2t0.5 -4v-1v-1q-1 -2 -1 -3l-1 -1l-1 -1q0 -2 -1 -3h-1l-6 -7l-17 -22q-8 -10 -17 -18q-8 -10 -17 -20t-19 -20l-33 -35q-14 -14 -24 -22l-7 -7q-2 -1 -3.5 -3t-3.5 -2q-1 -1 -3.5 -3t-6.5 -3q-1 -2 -3.5 -3t-4.5 -1h-5h-3l-37 2 q-3 -2 -5.5 -2t-4.5 2t-2.5 4.5t-0.5 3.5v1q0 1 1 3q2 1 3 2t2 3l5 8q9 7 19 19.5t23 32.5l25 40l24 40l3 8q3 4 5.5 8t6.5 6q3 3 7 4t8 1z" />
<glyph unicode="&#xca;" horiz-adv-x="758" d="M209 337q-12 -41 -23 -75q-11 -33 -19 -62q-7 -28 -15 -53l-13 -45q90 12 159 19l118 13q48 5 81.5 7.5t51.5 2.5q20 0 35.5 -2t25.5 -5t15 -10t5 -15q0 -17 -20 -28t-59 -16q-5 -1 -9 -1h-8q-51 -9 -114.5 -23t-137.5 -34q-73 -17 -120 -26t-65 -9q-17 0 -31 6.5 t-28 18.5q-13 12 -19.5 27.5t-6.5 32.5q0 10 14 66l41 158l71 263l106 383q10 34 20 53t20 24q12 7 44.5 9.5t87.5 2.5q27 0 72 -3.5t107 -10.5l111 -11q49 -5 82 -9q7 0 12 -0.5t8 -4.5q4 -1 5.5 -5.5t1.5 -7.5q0 -22 -50 -36t-150 -23q-37 -1 -71.5 -4.5t-64.5 -5.5 l-58 -6q-27 -2 -50 -5l-31 -93l-33 -103l-33 -116l-35 -129l99 9q46 4 86 6q40 3 75 4t65 1q24 0 40 -1.5t26 -6.5q10 -4 15 -11.5t5 -17.5q0 -11 -2.5 -19.5t-7.5 -13.5q-5 -7 -12.5 -10.5t-17.5 -4.5q-32 -2 -73 -5.5t-89 -8.5q-47 -5 -107 -13l-132 -18v1zM559 1321h76 q3 -2 7 -2.5t8 -4.5q1 0 3.5 -2.5t6.5 -5.5q1 -2 2 -4.5t3 -3.5l5 -2l16 -28q9 -14 17 -31l14 -27q6 -11 9 -19l4 -4q0 -3 0.5 -5.5t2.5 -5.5v-5v-4v-3q0 -2 -2 -3q0 -2 -1.5 -3t-4.5 -2l-35 -15q0 -2 -1 -2h-1l-2 -2q-3 -1 -6 -1h-2q-5 0 -10 4t-8 12v2l-2 7 q-2 -2 -2.5 0.5t-2.5 4.5q-15 28 -30 52t-30 45l-37 -42q-17 -19 -32 -34q-13 -15 -23 -23t-13 -12h-2q-2 -3 -2.5 -4t-4.5 -4q-1 -2 -3.5 -3.5t-4.5 -1.5h-4h-3q-1 0 -2 1.5t-4 3.5l-27 33q-2 0 -2.5 1t-0.5 3q-2 1 -2 3v3v3q0 2 2 4v1q1 1 3 2q0 2 1 3t2 1l4 5q5 1 14 9.5 t22 23.5l19 20q10 10 18 20q5 5 9 11t9 11l2 7q2 1 4.5 3.5t3.5 4.5q2 0 3.5 1t3.5 1q2 1 3 1h4z" />
<glyph unicode="&#xcb;" horiz-adv-x="758" d="M209 337q-12 -41 -23 -75q-11 -33 -19 -62q-7 -28 -15 -53l-13 -45q90 12 159 19l118 13q48 5 81.5 7.5t51.5 2.5q20 0 35.5 -2t25.5 -5t15 -10t5 -15q0 -17 -20 -28t-59 -16q-5 -1 -9 -1h-8q-51 -9 -114.5 -23t-137.5 -34q-73 -17 -120 -26t-65 -9q-17 0 -31 6.5 t-28 18.5q-13 12 -19.5 27.5t-6.5 32.5q0 10 14 66l41 158l71 263l106 383q10 34 20 53t20 24q12 7 44.5 9.5t87.5 2.5q27 0 72 -3.5t107 -10.5l111 -11q49 -5 82 -9q7 0 12 -0.5t8 -4.5q4 -1 5.5 -5.5t1.5 -7.5q0 -22 -50 -36t-150 -23q-37 -1 -71.5 -4.5t-64.5 -5.5 l-58 -6q-27 -2 -50 -5l-31 -93l-33 -103l-33 -116l-35 -129l99 9q46 4 86 6q40 3 75 4t65 1q24 0 40 -1.5t26 -6.5q10 -4 15 -11.5t5 -17.5q0 -11 -2.5 -19.5t-7.5 -13.5q-5 -7 -12.5 -10.5t-17.5 -4.5q-32 -2 -73 -5.5t-89 -8.5q-47 -5 -107 -13l-132 -18v1zM695 1278 q11 -2 18.5 -5.5t14.5 -8.5q5 -6 8.5 -14.5t3.5 -18.5q0 -17 -6 -33t-18 -29q-11 -12 -24.5 -18.5t-30.5 -6.5q-6 0 -13.5 2.5t-12.5 9.5q-7 8 -9.5 15.5t-2.5 17.5q0 17 5 32t17 28q11 14 23.5 20.5t26.5 6.5v2zM516 1278q10 -2 17.5 -5.5t12.5 -8.5q5 -6 7.5 -14.5 t2.5 -18.5q0 -17 -5 -33t-17 -29q-11 -12 -23.5 -18.5t-27.5 -6.5q-9 0 -16.5 2.5t-13.5 9.5q-5 8 -7.5 15.5t-2.5 17.5q0 17 5 32t16 28q12 14 25.5 20.5t26.5 6.5v2z" />
<glyph unicode="&#xcc;" horiz-adv-x="382" d="M129 45v-12v-4v-1v-4q0 -2 1 -4v-5v-3q0 -7 -3 -10.5t-8 -6.5t-12.5 -5t-17.5 -2q-22 0 -38 2.5t-26 9.5t-16 17t-6 23q0 18 15 76.5t44 159.5l65 220l85 267q3 5 5.5 15t7.5 22q39 118 75 178.5t71 60.5q8 0 18 -5t22 -15q7 -5 11 -10l7 -9q4 -5 5.5 -10t1.5 -10 q0 -1 -6 -18t-19 -47q-85 -200 -155.5 -418t-126.5 -454v2zM407 1134q-3 -2 -7 -1t-8 3l-6 6q-4 4 -5 7l-4 7q-1 1 -12 15l-29 38q-17 23 -31 45l-24 39l-4 10q-1 0 -1 1v4v4q0 2 1 2q2 2 5.5 3t6.5 1l77 1q3 -1 7 -3t6 -5q3 -2 5 -6t3 -11l2 -3l13 -41q7 -19 16 -38 q3 -10 7 -18t9 -15q4 -8 8 -14t7 -11l4 -5q0 -2 1 -3q2 0 2 -1v-1v-3v-2v-4q0 -1 -3 -1q-2 -2 -4 -2h-6z" />
<glyph unicode="&#xcd;" horiz-adv-x="382" d="M129 45v-12v-4v-1v-4q0 -2 1 -4v-5v-3q0 -7 -3 -10.5t-8 -6.5t-12.5 -5t-17.5 -2q-22 0 -38 2.5t-26 9.5t-16 17t-6 23q0 18 15 76.5t44 159.5l65 220l85 267q3 5 5.5 15t7.5 22q39 118 75 178.5t71 60.5q8 0 18 -5t22 -15q7 -5 11 -10l7 -9q4 -5 5.5 -10t1.5 -10 q0 -1 -6 -18t-19 -47q-85 -200 -155.5 -418t-126.5 -454v2zM523 1319q3 -1 6.5 -2t4.5 -3q4 -1 4 -2v-4v-3v-2l-3 -3l-2 -2l-7 -7q-7 -12 -15 -22t-17 -18q-10 -10 -18 -20t-18 -20l-34 -35q-15 -14 -25 -22l-7 -7q-1 -1 -2 -3t-3 -2q-1 -1 -2 -1h-1q-2 -2 -4.5 -3.5 t-3.5 -1.5q-4 -2 -8 -3t-9 -1l-37 2q-3 -2 -5.5 -2t-4.5 2q-1 2 -1 4v4v1q0 1 1 3q2 1 3 2t1 3l5 8q8 7 19 19.5t24 32.5l25 40l23 40l4 8q2 4 5 8t7 6q1 1 3.5 2t6.5 3h2h3z" />
<glyph unicode="&#xce;" horiz-adv-x="382" d="M129 45v-12v-4v-1v-4q0 -2 1 -4v-5v-3q0 -7 -3 -10.5t-8 -6.5t-12.5 -5t-17.5 -2q-22 0 -38 2.5t-26 9.5t-16 17t-6 23q0 18 15 76.5t44 159.5l65 220l85 267q3 5 5.5 15t7.5 22q39 118 75 178.5t71 60.5q8 0 18 -5t22 -15q7 -5 11 -10l7 -9q4 -5 5.5 -10t1.5 -10 q0 -1 -6 -18t-19 -47q-85 -200 -155.5 -418t-126.5 -454v2zM372 1321h76q3 -2 7 -2.5t6 -4.5q3 -1 7.5 -5.5t9.5 -10.5l5 -2q3 -8 7 -15t9 -13l8 -15q4 -7 7 -16l16 -27q6 -11 8 -19l3 -4q2 -3 2.5 -5.5t0.5 -5.5q2 -2 2 -5v-4v-3q0 -2 -2 -3q0 -2 -2.5 -3t-5.5 -2l-35 -15 v-2h-2v-2h-1q-2 -1 -4 -1h-5q-5 0 -9 4t-7 12q-2 0 -2 1v1l-2 7q-1 3 -3 5l-32 52l-28 45l-36 -42l-33 -34t-24 -23t-12 -12h-2q0 -1 -1 -2t-2 -3q-2 0 -3 -0.5t-1 -2.5q-1 -2 -3.5 -3.5t-6.5 -1.5h-2h-3q-1 0 -2 1.5t-4 3.5l-29 33l-1 1q-1 1 -2 3v3v3v3q0 2 1 4l1 1 q1 1 3 2v3l1 1l4 5q5 1 15 9.5t23 23.5q14 13 28 29t27 33l2 7q2 1 4.5 3.5t3.5 4.5q2 0 3.5 1t3.5 1q0 1 2 1h3z" />
<glyph unicode="&#xcf;" horiz-adv-x="382" d="M129 45v-12v-4v-1v-4q0 -2 1 -4v-5v-3q0 -7 -3 -10.5t-8 -6.5t-12.5 -5t-17.5 -2q-22 0 -38 2.5t-26 9.5t-16 17t-6 23q0 18 15 76.5t44 159.5l65 220l85 267q3 5 5.5 15t7.5 22q39 118 75 178.5t71 60.5q8 0 18 -5t22 -15q7 -5 11 -10l7 -9q4 -5 5.5 -10t1.5 -10 q0 -1 -6 -18t-19 -47q-85 -200 -155.5 -418t-126.5 -454v2zM508 1278q10 -2 18 -5.5t13 -8.5q7 -6 10.5 -14.5t3.5 -18.5q0 -17 -6 -33t-19 -29q-12 -12 -25.5 -18.5t-28.5 -6.5q-6 0 -13.5 2.5t-14.5 9.5q-5 8 -8.5 15.5t-3.5 17.5q0 17 6 32t18 28q11 14 23.5 20.5 t26.5 6.5v2zM327 1278q10 -2 18.5 -5.5t13.5 -8.5q5 -6 7.5 -14.5t2.5 -18.5q0 -17 -5 -33t-17 -29q-11 -12 -24.5 -18.5t-28.5 -6.5q-8 0 -15 2.5t-13 9.5q-5 8 -8.5 15.5t-3.5 17.5q0 17 6 32t17 28q12 14 24.5 20.5t25.5 6.5v2z" />
<glyph unicode="&#xd0;" horiz-adv-x="858" d="M389 888l-21 -60l-26 -71q-13 -37 -31 -95l-42 -133q50 -1 85 -4.5t52 -8.5q18 -7 28 -15t10 -22v-3v-3q-1 -2 -1 -3v-2q0 -4 -1 -9t-3 -10h-10h-11q-6 -1 -12 -1h-15q-54 -2 -90.5 -3t-56.5 -2q-22 -64 -38 -118l-29 -100q-12 -46 -21 -86t-16 -76q54 14 105.5 36.5 t100.5 54.5q48 30 95 67.5t88 84.5q49 48 85.5 100t63.5 103q28 54 40.5 101.5t12.5 89.5q0 48 -16.5 83t-49.5 60q-34 25 -83 37.5t-114 12.5h-4h-5q-3 -1 -7 -1h-8q-3 0 -6.5 -1t-6.5 -1q-8 0 -18.5 -1t-23.5 -2v1zM266 920q-4 7 -6.5 15.5t-5.5 14.5q0 2 -1 4.5t-1 4.5 q0 5 -1 9t-1 7q0 17 6 28t18 16q10 5 35 7.5t62 2.5q110 0 195 -25t147 -77q62 -50 92 -120.5t30 -158.5q0 -57 -16.5 -114.5t-51.5 -115.5q-36 -59 -86.5 -116.5t-119.5 -116.5q-57 -48 -117 -87.5t-120 -69.5q-62 -26 -113 -40.5t-92 -14.5q-24 0 -41.5 5t-30.5 15 q-12 7 -18.5 21t-6.5 33q0 16 5.5 50.5t17.5 87.5l27 117l33 131q-15 0 -27.5 -1t-24.5 -3h-9h-7q-5 -1 -7 -1h-7q-11 0 -18 3t-12 10t-7.5 17.5t-2.5 25.5q0 12 34.5 20.5t104.5 14.5l8 2l37 117l33 108l35 96q15 43 31 76v2z" />
<glyph unicode="&#xd1;" horiz-adv-x="796" d="M337 828l-83 -239l-69 -215q-31 -102 -53.5 -188.5t-37.5 -155.5q-2 -7 -3.5 -15t-3.5 -15q-5 -22 -10 -32.5t-12 -10.5t-12.5 0.5t-10.5 2.5q-7 2 -13 5t-12 7q-12 6 -16 13.5t-4 14.5q0 10 2.5 30t7.5 52l18 69l22 83l61 201l64 190l61 164q28 73 51 124q8 19 23 34 t35 25t45 15t54 5q10 0 19 -1t16 -4q2 -2 3.5 -2.5t3.5 -2.5q3 -2 4 -4.5t1 -5.5q0 -2 -1 -7.5t-4 -14.5q-2 -6 -6 -15.5t-11 -21.5q-5 -21 -9 -46l-8 -52q-1 -27 -3 -57t-2 -63q0 -69 2.5 -135t9.5 -129q7 -64 17 -125.5t21 -120.5q32 139 79.5 294.5t112.5 328.5l7 20 q3 10 9 26l13 36q26 75 53 113.5t54 38.5q8 0 14 -1.5t11 -5.5q5 -1 7.5 -6t2.5 -10q0 -2 -2 -7l-5 -12q-2 -6 -7 -14.5t-10 -18.5l-86 -245l-72 -221q-34 -105 -58 -194.5t-41 -162.5q-2 -2 -2.5 -7t-2.5 -12q-10 -47 -31 -71t-54 -24q-7 0 -17.5 5t-24.5 15 q-11 10 -21.5 21t-16.5 23q-12 18 -23.5 69t-25.5 138q-11 86 -18 176.5t-7 183.5v35v39q2 22 3 44.5t2 47.5v1zM638 1172l-52 25q-2 -1 -3.5 -0.5t-3.5 0.5q-3 2 -6.5 3t-6.5 1q-5 1 -9 2t-8 1q-11 0 -21 -5t-19 -17q-6 -10 -12 -15t-9 -5l-37 2q0 -2 -1 -2t-2 2q-2 0 -2 1 v2q0 19 7.5 37t24.5 35q18 17 37 25.5t41 8.5q3 0 8 -1t10 -3q2 0 3.5 -0.5t3.5 -0.5q3 -2 7.5 -3t6.5 -2l50 -27q3 -4 4.5 -4.5t5.5 -2.5q1 -2 3.5 -2.5t4.5 -0.5q5 -2 9 -2h8q10 0 19 5t16 17q8 10 14 16t9 6l37 1q3 -1 4 -1t3 -2v-1v-2v-2q0 -22 -7.5 -39.5t-21.5 -32.5 q-15 -15 -32.5 -22.5t-35.5 -7.5h-10q-5 0 -12 2q-5 1 -11 3.5t-14 6.5v1z" />
<glyph unicode="&#xd2;" horiz-adv-x="898" d="M142 257q0 -48 12.5 -85.5t34.5 -64.5q23 -27 55.5 -40.5t74.5 -13.5t82 14.5t80 41.5q40 28 76 66.5t68 90.5q31 50 56 108.5t45 124.5q20 67 29.5 128t9.5 116q0 47 -7.5 81t-26.5 58q-16 23 -41 35.5t-59 12.5q-18 0 -39 -4t-41 -13l-20 -10q-10 -5 -20 -11 q-32 -17 -62.5 -45.5t-64.5 -64.5q-57 -67 -101 -135.5t-76 -137.5q-32 -68 -48.5 -131.5t-16.5 -121.5v1zM673 994q48 -9 85 -30.5t62 -55.5q25 -35 36.5 -82.5t11.5 -107.5q0 -47 -6.5 -98.5t-21.5 -110.5q-13 -56 -33 -110.5t-44 -106.5q-37 -75 -83.5 -135t-103.5 -105 q-57 -44 -112 -64.5t-110 -20.5q-30 0 -63.5 6.5t-70.5 19.5q-36 12 -63.5 28t-46.5 34q-20 18 -35 41.5t-27 53.5q-10 29 -15 62t-5 70q0 54 11 111.5t33 117.5q23 60 55.5 120t76.5 121q46 65 94.5 117.5t100.5 94.5q52 40 93 60t72 20q14 0 27.5 -2.5t24.5 -9.5 q14 -5 27 -16t30 -24v2zM665 1134q-4 -2 -8 -1t-7 3q-4 3 -6.5 6.5t-5.5 6.5l-3 7q-2 1 -13 15l-29 38q-17 23 -31 45t-23 39l-5 10q-1 0 -1 1v4q0 3 0.5 4.5t2.5 1.5q2 2 4.5 3t7.5 1l77 1q1 -1 3 -2t3 -1q0 -2 2 -2.5t3 -2.5q4 -2 4.5 -4.5t2.5 -5.5q2 -2 2.5 -3.5 t0.5 -3.5l2 -3q5 -22 12 -41l15 -38q8 -18 16 -33l15 -25l5 -5v-3h2v-1v-1q2 -2 2 -3v-2q0 -2 -1 -3.5t-3 -1.5q-1 -2 -5 -2h-6z" />
<glyph unicode="&#xd3;" horiz-adv-x="898" d="M142 257q0 -48 12.5 -85.5t34.5 -64.5q23 -27 55.5 -40.5t74.5 -13.5t82 14.5t80 41.5q40 28 76 66.5t68 90.5q31 50 56 108.5t45 124.5q20 67 29.5 128t9.5 116q0 47 -7.5 81t-26.5 58q-16 23 -41 35.5t-59 12.5q-18 0 -39 -4t-41 -13l-20 -10q-10 -5 -20 -11 q-32 -17 -62.5 -45.5t-64.5 -64.5q-57 -67 -101 -135.5t-76 -137.5q-32 -68 -48.5 -131.5t-16.5 -121.5v1zM673 994q48 -9 85 -30.5t62 -55.5q25 -35 36.5 -82.5t11.5 -107.5q0 -47 -6.5 -98.5t-21.5 -110.5q-13 -56 -33 -110.5t-44 -106.5q-37 -75 -83.5 -135t-103.5 -105 q-57 -44 -112 -64.5t-110 -20.5q-30 0 -63.5 6.5t-70.5 19.5q-36 12 -63.5 28t-46.5 34q-20 18 -35 41.5t-27 53.5q-10 29 -15 62t-5 70q0 54 11 111.5t33 117.5q23 60 55.5 120t76.5 121q46 65 94.5 117.5t100.5 94.5q52 40 93 60t72 20q14 0 27.5 -2.5t24.5 -9.5 q14 -5 27 -16t30 -24v2zM782 1319q3 -1 5.5 -2t4.5 -3q3 -1 4 -2t1 -4v-1v-1q-2 -2 -2 -3l-1 -1l-1 -1q0 -2 -1 -3l-7 -7q-8 -12 -16.5 -22t-16.5 -18l-18 -20q-9 -10 -19 -20l-33 -35q-14 -14 -24 -22l-7 -7l-3 -3q-2 -2 -3 -2q-2 -1 -4.5 -3t-5.5 -3q-2 -2 -4.5 -3 t-4.5 -1h-4h-4l-37 2q-3 -2 -5.5 -2t-4.5 2t-2.5 4.5t-0.5 3.5v1q0 1 1 3q2 1 3 2t2 3l5 8q9 7 19 19.5t23 32.5q14 20 25 40l24 40l3 8q3 4 5.5 8t6.5 6q3 3 7 4t8 1z" />
<glyph unicode="&#xd4;" horiz-adv-x="898" d="M142 257q0 -48 12.5 -85.5t34.5 -64.5q23 -27 55.5 -40.5t74.5 -13.5t82 14.5t80 41.5q40 28 76 66.5t68 90.5q31 50 56 108.5t45 124.5q20 67 29.5 128t9.5 116q0 47 -7.5 81t-26.5 58q-16 23 -41 35.5t-59 12.5q-18 0 -39 -4t-41 -13l-20 -10q-10 -5 -20 -11 q-32 -17 -62.5 -45.5t-64.5 -64.5q-57 -67 -101 -135.5t-76 -137.5q-32 -68 -48.5 -131.5t-16.5 -121.5v1zM673 994q48 -9 85 -30.5t62 -55.5q25 -35 36.5 -82.5t11.5 -107.5q0 -47 -6.5 -98.5t-21.5 -110.5q-13 -56 -33 -110.5t-44 -106.5q-37 -75 -83.5 -135t-103.5 -105 q-57 -44 -112 -64.5t-110 -20.5q-30 0 -63.5 6.5t-70.5 19.5q-36 12 -63.5 28t-46.5 34q-20 18 -35 41.5t-27 53.5q-10 29 -15 62t-5 70q0 54 11 111.5t33 117.5q23 60 55.5 120t76.5 121q46 65 94.5 117.5t100.5 94.5q52 40 93 60t72 20q14 0 27.5 -2.5t24.5 -9.5 q14 -5 27 -16t30 -24v2zM630 1321h75q3 -2 7 -2.5t8 -4.5q1 0 3.5 -2.5t6.5 -5.5q1 -2 2 -4.5t3 -3.5l5 -2l16 -28q9 -14 17 -31q9 -15 14 -27l10 -19l3 -4q0 -3 1 -5.5t2 -5.5v-5v-4v-3q0 -2 -1 -3q0 -2 -2 -3t-5 -2l-35 -15q0 -2 -1 -2h-1l-1 -2q-4 -1 -7 -1h-2 q-5 0 -10 4t-8 12v2l-2 7q-2 -2 -2.5 0.5t-2.5 4.5q-15 28 -30 52t-30 45l-35 -42l-33 -34q-14 -15 -24 -23t-13 -12h-2q-2 -3 -2.5 -4t-4.5 -4q-1 -2 -3.5 -3.5t-4.5 -1.5h-3h-4q-1 0 -2 1.5t-4 3.5l-27 33q-2 0 -2.5 1t-0.5 3q-2 1 -2 3v3v3q0 2 2 4v1q1 1 3 2q0 2 1 3 t2 1l4 5q5 1 14 9.5t22 23.5l20 20q9 10 17 20q5 5 9.5 11t9.5 11l1 7q2 1 4 3l5 5q1 0 3 1t3 1q2 1 3 1h4z" />
<glyph unicode="&#xd5;" horiz-adv-x="898" d="M142 257q0 -48 12.5 -85.5t34.5 -64.5q23 -27 55.5 -40.5t74.5 -13.5t82 14.5t80 41.5q40 28 76 66.5t68 90.5q31 50 56 108.5t45 124.5q20 67 29.5 128t9.5 116q0 47 -7.5 81t-26.5 58q-16 23 -41 35.5t-59 12.5q-18 0 -39 -4t-41 -13l-20 -10q-10 -5 -20 -11 q-32 -17 -62.5 -45.5t-64.5 -64.5q-57 -67 -101 -135.5t-76 -137.5q-32 -68 -48.5 -131.5t-16.5 -121.5v1zM673 994q48 -9 85 -30.5t62 -55.5q25 -35 36.5 -82.5t11.5 -107.5q0 -47 -6.5 -98.5t-21.5 -110.5q-13 -56 -33 -110.5t-44 -106.5q-37 -75 -83.5 -135t-103.5 -105 q-57 -44 -112 -64.5t-110 -20.5q-30 0 -63.5 6.5t-70.5 19.5q-36 12 -63.5 28t-46.5 34q-20 18 -35 41.5t-27 53.5q-10 29 -15 62t-5 70q0 54 11 111.5t33 117.5q23 60 55.5 120t76.5 121q46 65 94.5 117.5t100.5 94.5q52 40 93 60t72 20q14 0 27.5 -2.5t24.5 -9.5 q14 -5 27 -16t30 -24v2zM690 1172l-54 25q-1 -1 -3 -0.5t-3 0.5q-4 2 -7 3t-7 1q-5 1 -9 2t-7 1q-12 0 -22 -5t-19 -17q-6 -10 -11 -15t-9 -5l-36 2q-2 -2 -3 -2t-2 2q-2 0 -2 1v2q0 19 8.5 37t24.5 35q17 17 36 25.5t41 8.5q4 0 9 -1t11 -3l10 -2q5 -1 10 -4l49 -27 q5 -4 10 -6.5t8 -3.5q5 -2 9 -2h8q11 0 19.5 5t15.5 17q8 10 14 16t11 6l37 1q1 -1 2 -1t3 -2l1 -2v-1v-2q0 -22 -7.5 -39.5t-22.5 -32.5t-31.5 -22.5t-36.5 -7.5h-10q-5 0 -10 2q-7 1 -13 3.5t-12 6.5v1z" />
<glyph unicode="&#xd6;" horiz-adv-x="898" d="M142 257q0 -48 12.5 -85.5t34.5 -64.5q23 -27 55.5 -40.5t74.5 -13.5t82 14.5t80 41.5q40 28 76 66.5t68 90.5q31 50 56 108.5t45 124.5q20 67 29.5 128t9.5 116q0 47 -7.5 81t-26.5 58q-16 23 -41 35.5t-59 12.5q-18 0 -39 -4t-41 -13l-20 -10q-10 -5 -20 -11 q-32 -17 -62.5 -45.5t-64.5 -64.5q-57 -67 -101 -135.5t-76 -137.5q-32 -68 -48.5 -131.5t-16.5 -121.5v1zM673 994q48 -9 85 -30.5t62 -55.5q25 -35 36.5 -82.5t11.5 -107.5q0 -47 -6.5 -98.5t-21.5 -110.5q-13 -56 -33 -110.5t-44 -106.5q-37 -75 -83.5 -135t-103.5 -105 q-57 -44 -112 -64.5t-110 -20.5q-30 0 -63.5 6.5t-70.5 19.5q-36 12 -63.5 28t-46.5 34q-20 18 -35 41.5t-27 53.5q-10 29 -15 62t-5 70q0 54 11 111.5t33 117.5q23 60 55.5 120t76.5 121q46 65 94.5 117.5t100.5 94.5q52 40 93 60t72 20q14 0 27.5 -2.5t24.5 -9.5 q14 -5 27 -16t30 -24v2zM765 1278q12 -2 19.5 -5.5t13.5 -8.5q5 -6 8.5 -14.5t3.5 -18.5q0 -17 -6 -33t-17 -29q-12 -12 -25.5 -18.5t-30.5 -6.5q-6 0 -13.5 2.5t-12.5 9.5q-7 8 -9.5 15.5t-2.5 17.5q0 17 5 32t17 28q11 14 24 20.5t26 6.5v2zM586 1278q10 -2 17.5 -5.5 t12.5 -8.5q5 -6 7.5 -14.5t2.5 -18.5q0 -17 -5 -33t-16 -29q-12 -12 -24.5 -18.5t-27.5 -6.5q-9 0 -16.5 2.5t-13.5 9.5q-5 8 -7.5 15.5t-2.5 17.5q0 17 5 32t16 28q12 14 25.5 20.5t26.5 6.5v2z" />
<glyph unicode="&#xd7;" horiz-adv-x="1391" d="M698 563l388 389l66 -67l-387 -389l387 -387l-66 -67l-388 387l-387 -387l-67 67l387 387l-387 389l67 67z" />
<glyph unicode="&#xd8;" horiz-adv-x="898" d="M157 169l133 171l138 178l145 183l153 191q-5 5 -10.5 8t-10.5 8q-5 4 -11 7t-11 5q-12 5 -24.5 7.5t-27.5 2.5q-36 0 -72 -13.5t-73 -41.5q-37 -27 -77 -67.5t-83 -99.5q-44 -57 -78 -116t-58 -119q-23 -59 -35.5 -114t-12.5 -105q0 -10 1 -20t2 -22q2 -7 3.5 -14.5 t3.5 -15.5q2 -3 2.5 -7.5t2.5 -7.5v2zM762 810l-119 -150l-130 -167l-145 -189l-163 -214q12 -10 24.5 -17.5t24.5 -10.5q13 -5 29 -7t33 -2q43 0 84 13.5t81 40.5q40 28 76 67.5t69 91.5q32 50 57 108.5t45 124.5q18 67 27.5 129.5t9.5 124.5v7v7v7v6q0 3 -1 7.5t-1 7.5 t-0.5 6.5t-0.5 6.5v2zM673 994l32 -10l26 -7q14 -5 25 -10t21 -12q3 4 8 9t12 11q43 49 74.5 74t52.5 25q5 0 10 -2.5t8 -6.5q5 -3 6.5 -7t1.5 -11t-1.5 -15t-6.5 -17q-3 -6 -9 -13.5t-13 -11.5q-17 -20 -31 -35l-24 -26q-8 -11 -16.5 -21t-16.5 -18q8 -17 15.5 -36 t12.5 -39q5 -22 6.5 -45.5t1.5 -49.5q0 -49 -6.5 -101.5t-21.5 -110.5q-13 -57 -33 -110.5t-44 -105.5q-37 -75 -83.5 -135t-103.5 -105q-57 -44 -112 -64.5t-110 -20.5q-22 0 -44.5 2.5t-47.5 10.5q-23 7 -50.5 17t-59.5 26l-18 -23q-62 -84 -96.5 -125.5t-40.5 -41.5 q-9 0 -16.5 3.5t-13.5 8.5q-4 1 -7 4.5t-5 5.5q-2 3 -2.5 5.5t-0.5 5.5q0 17 20.5 53t60.5 88l30 40q12 18 22 30q-15 27 -26 52t-17 48q-7 25 -10.5 51t-3.5 53q0 55 11 111.5t33 116.5q23 60 55.5 120.5t76.5 120.5q46 65 94.5 118.5t100.5 93.5q52 42 93 62t72 20 q14 0 27.5 -2.5t24.5 -9.5q14 -5 27 -16t30 -24v2z" />
<glyph unicode="&#xd9;" horiz-adv-x="831" d="M513 200q-32 -53 -65.5 -95t-70.5 -73q-36 -30 -68 -45t-60 -15q-42 0 -75.5 14t-59.5 41q-27 30 -40.5 69t-13.5 88q0 46 13.5 117t40.5 167q26 95 62 192.5t80 197.5q3 4 5.5 9.5t4.5 12.5q26 62 53.5 93t56.5 31q13 0 25.5 -4.5t24.5 -12.5q13 -8 19 -18t6 -22 q0 -7 -1.5 -12t-5.5 -10q-1 -1 -3.5 -4t-4.5 -4q-3 -4 -6.5 -5.5t-6.5 -4.5q-57 -127 -103 -241.5t-78 -216.5t-47.5 -182t-15.5 -140q0 -20 3 -36t10 -28q7 -11 15 -18t20 -7t28 7.5t36 21.5q18 13 40 34l45 46q28 33 54 67.5t46 66.5q22 33 36 64t22 57l74 222l58 169 l42 123l27 71q6 17 14 27t14 16q9 5 19.5 8.5t22.5 3.5q25 0 44 -4t34 -13q14 -6 20.5 -18t6.5 -25q0 -7 -1 -13.5t-4 -13.5q-2 -1 -4.5 -3.5t-3.5 -4.5q-4 -3 -7 -5t-8 -5q-62 -130 -110.5 -254.5t-86.5 -243.5q-37 -117 -55.5 -199.5t-18.5 -130.5q0 -17 2 -33t5 -31v-5 q0 -2 2 -2v-2v-1q0 -2 -2 -6t-5 -7l-3 -4q-2 -1 -5 -3q-4 -3 -7 -5.5t-7 -4.5q-5 -2 -8.5 -2.5t-6.5 -0.5q-17 0 -28.5 10t-21.5 28q-8 18 -12.5 44t-4.5 58v6v7v7v7q0 3 1 7t1 8q0 3 1 7t1 8v1zM631 1134q-3 -2 -7 -1t-8 3q-3 3 -5.5 6.5t-5.5 6.5l-4 7q-1 1 -12 15.5 t-30 37.5l-31 45q-14 22 -22 39l-5 10q-2 0 -2 1v4q0 3 1 4.5t3 1.5q1 2 3.5 3t7.5 1l77 1q2 -1 3.5 -2t3.5 -1q0 -2 1.5 -2.5t3.5 -2.5q3 -2 4 -4.5t3 -5.5q1 -2 2 -3.5t1 -3.5l2 -3q5 -22 12.5 -41t13.5 -38l17 -33q8 -15 15 -25l5 -5v-3h2v-1v-1q1 -2 1 -3v-2 q0 -2 -0.5 -3.5t-2.5 -1.5q-2 -2 -5 -2h-7z" />
<glyph unicode="&#xda;" horiz-adv-x="831" d="M513 200q-32 -53 -65.5 -95t-70.5 -73q-36 -30 -68 -45t-60 -15q-42 0 -75.5 14t-59.5 41q-27 30 -40.5 69t-13.5 88q0 46 13.5 117t40.5 167q26 95 62 192.5t80 197.5q3 4 5.5 9.5t4.5 12.5q26 62 53.5 93t56.5 31q13 0 25.5 -4.5t24.5 -12.5q13 -8 19 -18t6 -22 q0 -7 -1.5 -12t-5.5 -10q-1 -1 -3.5 -4t-4.5 -4q-3 -4 -6.5 -5.5t-6.5 -4.5q-57 -127 -103 -241.5t-78 -216.5t-47.5 -182t-15.5 -140q0 -20 3 -36t10 -28q7 -11 15 -18t20 -7t28 7.5t36 21.5q18 13 40 34l45 46q28 33 54 67.5t46 66.5q22 33 36 64t22 57l74 222l58 169 l42 123l27 71q6 17 14 27t14 16q9 5 19.5 8.5t22.5 3.5q25 0 44 -4t34 -13q14 -6 20.5 -18t6.5 -25q0 -7 -1 -13.5t-4 -13.5q-2 -1 -4.5 -3.5t-3.5 -4.5q-4 -3 -7 -5t-8 -5q-62 -130 -110.5 -254.5t-86.5 -243.5q-37 -117 -55.5 -199.5t-18.5 -130.5q0 -17 2 -33t5 -31v-5 q0 -2 2 -2v-2v-1q0 -2 -2 -6t-5 -7l-3 -4q-2 -1 -5 -3q-4 -3 -7 -5.5t-7 -4.5q-5 -2 -8.5 -2.5t-6.5 -0.5q-17 0 -28.5 10t-21.5 28q-8 18 -12.5 44t-4.5 58v6v7v7v7q0 3 1 7t1 8q0 3 1 7t1 8v1zM748 1319q4 -1 6.5 -2t3.5 -3q4 -1 4.5 -2t0.5 -4v-1v-1q-1 -2 -1 -3l-1 -1 l-1 -1q0 -2 -1 -3h-1l-6 -7q-9 -12 -17.5 -22t-16.5 -18q-8 -10 -17 -20l-20 -20l-32 -35q-14 -14 -24 -22l-7 -7q-2 -1 -3.5 -3t-3.5 -2q-1 -1 -3.5 -3t-6.5 -3q-1 -2 -3.5 -3t-4.5 -1h-4h-5l-36 2q-4 -2 -6.5 -2t-3.5 2q-2 2 -3 4.5t-1 3.5v1q0 1 2 3q2 1 2.5 2t2.5 3l5 8 q8 7 18 19.5t24 32.5l25 40l23 40l4 8q3 4 5.5 8t5.5 6q4 3 8 4t7 1z" />
<glyph unicode="&#xdb;" horiz-adv-x="831" d="M513 200q-32 -53 -65.5 -95t-70.5 -73q-36 -30 -68 -45t-60 -15q-42 0 -75.5 14t-59.5 41q-27 30 -40.5 69t-13.5 88q0 46 13.5 117t40.5 167q26 95 62 192.5t80 197.5q3 4 5.5 9.5t4.5 12.5q26 62 53.5 93t56.5 31q13 0 25.5 -4.5t24.5 -12.5q13 -8 19 -18t6 -22 q0 -7 -1.5 -12t-5.5 -10q-1 -1 -3.5 -4t-4.5 -4q-3 -4 -6.5 -5.5t-6.5 -4.5q-57 -127 -103 -241.5t-78 -216.5t-47.5 -182t-15.5 -140q0 -20 3 -36t10 -28q7 -11 15 -18t20 -7t28 7.5t36 21.5q18 13 40 34l45 46q28 33 54 67.5t46 66.5q22 33 36 64t22 57l74 222l58 169 l42 123l27 71q6 17 14 27t14 16q9 5 19.5 8.5t22.5 3.5q25 0 44 -4t34 -13q14 -6 20.5 -18t6.5 -25q0 -7 -1 -13.5t-4 -13.5q-2 -1 -4.5 -3.5t-3.5 -4.5q-4 -3 -7 -5t-8 -5q-62 -130 -110.5 -254.5t-86.5 -243.5q-37 -117 -55.5 -199.5t-18.5 -130.5q0 -17 2 -33t5 -31v-5 q0 -2 2 -2v-2v-1q0 -2 -2 -6t-5 -7l-3 -4q-2 -1 -5 -3q-4 -3 -7 -5.5t-7 -4.5q-5 -2 -8.5 -2.5t-6.5 -0.5q-17 0 -28.5 10t-21.5 28q-8 18 -12.5 44t-4.5 58v6v7v7v7q0 3 1 7t1 8q0 3 1 7t1 8v1zM596 1321h75q4 -2 8 -2.5t7 -4.5q4 -1 7 -5.5t8 -10.5l5 -2q9 -13 17 -28 l17 -31l14 -27q6 -11 9 -19l2 -4q2 -3 2.5 -5.5t2.5 -5.5v-5v-4v-3q0 -2 -2 -3q0 -2 -1.5 -3t-4.5 -2l-36 -15v-2h-1l-2 -2q-3 -1 -5 -1h-3q-5 0 -10 4t-9 12q-1 0 -1 1v1v7q-2 -2 -3 0.5t-2 4.5q-15 28 -30 52t-30 45l-36 -42l-33 -34q-13 -15 -23 -23t-14 -12h-1 q-2 -3 -3 -4l-4 -4q-2 -2 -4.5 -3.5t-3.5 -1.5h-3h-4q-2 0 -2.5 1.5t-4.5 3.5l-26 33q-2 0 -3 1t-1 3q-1 1 -1 3v3v3q0 2 1 4l1 1q1 1 3 2q0 2 0.5 3t2.5 1l3 5q5 1 14.5 9.5t22.5 23.5q10 10 19 20l18 20q5 5 9 11t9 11l2 7l4 3l4 5q2 0 3.5 1t3.5 1q1 1 3 1h4z" />
<glyph unicode="&#xdc;" horiz-adv-x="831" d="M513 200q-32 -53 -65.5 -95t-70.5 -73q-36 -30 -68 -45t-60 -15q-42 0 -75.5 14t-59.5 41q-27 30 -40.5 69t-13.5 88q0 46 13.5 117t40.5 167q26 95 62 192.5t80 197.5q3 4 5.5 9.5t4.5 12.5q26 62 53.5 93t56.5 31q13 0 25.5 -4.5t24.5 -12.5q13 -8 19 -18t6 -22 q0 -7 -1.5 -12t-5.5 -10q-1 -1 -3.5 -4t-4.5 -4q-3 -4 -6.5 -5.5t-6.5 -4.5q-57 -127 -103 -241.5t-78 -216.5t-47.5 -182t-15.5 -140q0 -20 3 -36t10 -28q7 -11 15 -18t20 -7t28 7.5t36 21.5q18 13 40 34l45 46q28 33 54 67.5t46 66.5q22 33 36 64t22 57l74 222l58 169 l42 123l27 71q6 17 14 27t14 16q9 5 19.5 8.5t22.5 3.5q25 0 44 -4t34 -13q14 -6 20.5 -18t6.5 -25q0 -7 -1 -13.5t-4 -13.5q-2 -1 -4.5 -3.5t-3.5 -4.5q-4 -3 -7 -5t-8 -5q-62 -130 -110.5 -254.5t-86.5 -243.5q-37 -117 -55.5 -199.5t-18.5 -130.5q0 -17 2 -33t5 -31v-5 q0 -2 2 -2v-2v-1q0 -2 -2 -6t-5 -7l-3 -4q-2 -1 -5 -3q-4 -3 -7 -5.5t-7 -4.5q-5 -2 -8.5 -2.5t-6.5 -0.5q-17 0 -28.5 10t-21.5 28q-8 18 -12.5 44t-4.5 58v6v7v7v7q0 3 1 7t1 8q0 3 1 7t1 8v1zM731 1278q12 -2 19.5 -5.5t14.5 -8.5q5 -6 8.5 -14.5t3.5 -18.5q0 -17 -6 -33 t-18 -29q-12 -12 -26 -18.5t-29 -6.5q-7 0 -14.5 2.5t-12.5 9.5q-6 8 -8.5 15.5t-2.5 17.5q0 17 5 32t16 28q12 14 24.5 20.5t25.5 6.5v2zM553 1278q10 -2 17.5 -5.5t12.5 -8.5q5 -6 7.5 -14.5t2.5 -18.5q0 -17 -5 -33t-17 -29q-12 -12 -24.5 -18.5t-27.5 -6.5 q-8 0 -15.5 2.5t-14.5 9.5q-5 8 -7.5 15.5t-2.5 17.5q0 17 5 32t17 28q12 14 24.5 20.5t27.5 6.5v2z" />
<glyph unicode="&#xdd;" horiz-adv-x="657" d="M337 518l157 230q72 104 136 181q63 78 104 116.5t59 38.5q9 0 16.5 -3.5t12.5 -10.5q6 -6 9.5 -15.5t3.5 -17.5q0 -5 -25 -37l-75 -97l-95 -119l-87 -116q-7 -7 -16 -19.5t-21 -27.5q-55 -70 -94.5 -136t-62.5 -128q-22 -56 -41 -122t-36 -140q-15 -57 -31 -85t-34 -28 q-13 0 -25.5 5.5t-24.5 14.5q-10 11 -16 24.5t-6 30.5q0 15 7.5 50t21.5 88q15 54 34 114l41 127q-20 87 -36 163.5t-28 143.5q-11 67 -16 117t-5 84q0 16 4 28.5t11 19.5q8 8 20.5 12.5t29.5 4.5q28 0 47.5 -54.5t29.5 -162.5q8 -82 15.5 -151.5t15.5 -124.5v2zM660 1319 q3 -1 6.5 -2t4.5 -3q4 -1 4 -2v-4v-3v-2l-3 -3l-2 -2l-7 -7q-7 -12 -15 -22t-17 -18q-10 -10 -18 -20t-18 -20l-34 -35q-15 -14 -25 -22l-7 -7q-1 -1 -2 -3t-3 -2q-1 -1 -2 -1h-1q-2 -2 -4.5 -3.5t-3.5 -1.5q-4 -2 -8 -3t-9 -1l-37 2q-3 -2 -5.5 -2t-4.5 2q-1 2 -1 4v4v1 q0 1 1 3q2 1 3 2t1 3l5 8q8 7 19 19.5t24 32.5l25 40l23 40l4 8q3 4 5.5 8t5.5 6q2 1 4.5 2t5.5 3h3h2z" />
<glyph unicode="&#xde;" horiz-adv-x="701" d="M174 199q-2 -12 -4.5 -22t-5.5 -18q-2 -10 -4.5 -20t-4.5 -20q-5 -19 -9 -39t-7 -43q-2 -17 -7 -28t-12 -16q-6 -8 -15.5 -11.5t-22.5 -3.5q-14 0 -26.5 3.5t-23.5 10.5q-12 6 -18 12t-6 13q0 23 18.5 104t53.5 220l81 293l96 326q5 14 10 25.5t10 19.5q4 9 9 15.5 t10 11.5q10 8 22.5 12.5t28.5 4.5q20 0 37.5 -3.5t31.5 -10.5q13 -6 20.5 -15.5t7.5 -17.5q0 -7 -7.5 -19.5t-24.5 -30.5q-15 -18 -25 -38.5t-16 -43.5h6h7h5h3q0 -2 1 -2h1q67 0 123.5 -17.5t105.5 -53.5q48 -37 72.5 -81.5t24.5 -95.5q0 -72 -37.5 -137t-111.5 -124 q-73 -58 -173.5 -98.5t-223.5 -63.5v2zM199 297q83 10 156 42.5t134 84.5q64 54 95 105.5t31 103.5q0 25 -13.5 46t-42.5 36q-26 16 -63 24.5t-80 8.5q-12 0 -25 -1l-24 -2q-3 0 -7 -1t-9 -3l-15 -2q-7 -1 -14 -4l-35 -111l-33 -110l-29 -110l-26 -108v1z" />
<glyph unicode="&#xdf;" horiz-adv-x="501" d="M386 539q-14 -18 -24.5 -36.5t-19.5 -41.5q-8 -22 -12 -48.5t-4 -55.5q0 -41 7.5 -90.5t18.5 -102.5q14 -55 20.5 -88.5t6.5 -47.5q0 -21 -6.5 -39.5t-20.5 -35.5q-11 -16 -24.5 -23.5t-26.5 -7.5q-15 0 -35.5 10t-45.5 30t-40.5 30t-24.5 13q-5 2 -10 3.5t-10 3.5 q-8 1 -12 5.5t-4 10.5q0 9 2.5 17t8.5 17q5 8 10 11.5t10 3.5q9 0 40.5 -12t85.5 -35q5 -2 9 -4.5t6 -2.5q0 12 -6 47t-18 94q-11 58 -17 110.5t-6 99.5q0 25 6 50t16 47q11 23 28 46.5t38 45.5q32 45 57 89t42 88q18 43 26.5 81.5t8.5 73.5q0 8 -1 16.5t-4 15.5t-7.5 9.5 t-7.5 2.5q-17 0 -33 -13t-34 -39q-17 -25 -41 -74.5t-56 -122.5l-50 -128l-45 -129q-22 -66 -41 -130t-36 -128q-1 -11 -4.5 -23t-5.5 -25l-6 -29l-5 -31q-9 -45 -25.5 -66t-41.5 -21q-12 0 -18.5 2.5t-11.5 7.5q-5 3 -8.5 8t-3.5 14q0 15 10 59t28 116l50 162l61 189 q38 113 79 201t84 151q44 65 84 97t77 32q6 0 12 -2.5t13 -9.5q6 -7 11 -16t10 -22q10 -7 17.5 -15.5t11.5 -16.5q5 -10 6.5 -23.5t1.5 -30.5q0 -45 -9 -90t-29 -90q-19 -45 -46.5 -86t-65.5 -79v1z" />
<glyph unicode="&#xe0;" horiz-adv-x="437" d="M224 382q0 5 -2 10t-5 7q-2 3 -7 5.5t-10 2.5q-13 0 -29 -10t-34 -28t-35.5 -44t-36.5 -59q-17 -32 -31 -63t-24 -59q-8 -29 -12.5 -51.5t-4.5 -35.5q0 -7 1 -10.5t3 -6.5l1 -1q0 -1 2 -1q0 -1 1 -1h1q8 0 19.5 7.5t26.5 22.5q15 13 30.5 32.5t30.5 40.5q25 37 45 73.5 t36 75.5q19 38 26.5 60.5t7.5 31.5v1zM172 125q-22 -38 -43.5 -66.5t-46.5 -48.5q-24 -18 -47 -28t-43 -10q-19 0 -34.5 7.5t-27.5 20.5q-12 12 -18 29.5t-6 38.5q0 31 6 62.5t18 64.5q10 34 26 69t39 72q17 38 39.5 66.5t47.5 50.5q23 23 45.5 33t44.5 10q10 0 20 -2.5 t20 -9.5q5 -1 9 -5.5t9 -7.5q5 -5 9.5 -10t9.5 -12q3 0 5.5 1t4.5 1q5 2 9 2.5t8 0.5q5 2 10 2h8q15 0 27.5 -2.5t20.5 -9.5q10 -6 14.5 -13.5t4.5 -16.5q0 -7 -6 -20t-16 -37q-10 -18 -17 -33l-11 -27q-17 -35 -29.5 -66t-20.5 -59q-9 -27 -14 -47t-5 -31q0 -7 1 -11.5 t2 -7.5q4 -2 6.5 -3.5t5.5 -1.5q7 0 15.5 7t19.5 18q12 14 31 39l46 63q5 7 10 15t12 18l13 16q5 6 8 6q2 0 4.5 -1t4.5 -2q2 0 4.5 -2.5t3.5 -6.5q4 -5 6.5 -9t2.5 -7q1 -2 1 -4v-5q0 -6 -6.5 -20.5t-20.5 -37.5q-11 -22 -28 -46t-37 -48q-13 -20 -26.5 -33t-24.5 -22 q-12 -6 -25.5 -8.5t-26.5 -2.5q-17 0 -31 5t-24 16q-10 14 -14.5 32t-4.5 42v12v8v7q0 3 2 5v1zM262 591q-3 -1 -7.5 0.5t-7.5 3.5l-6 6q-2 2 -6 7l-3 7q-2 1 -12.5 15.5t-29.5 37.5l-31 45q-14 22 -22 39l-5 10q-2 0 -2 1v2v5q0 2 2 3q2 2 5 2h7l76 2q4 -2 8 -3t6 -4 q3 -2 4.5 -6t3.5 -11l2 -3q6 -22 14 -41t14 -38l17 -33q8 -15 15 -25l5 -5v-2q0 -1 2 -1v-2v-1q0 -1 1 -2v-1v-3q0 -1 -0.5 -2t-2.5 -3h-3h-2q-2 -1 -4 -1h-3z" />
<glyph unicode="&#xe1;" horiz-adv-x="437" d="M224 382q0 5 -2 10t-5 7q-2 3 -7 5.5t-10 2.5q-13 0 -29 -10t-34 -28t-35.5 -44t-36.5 -59q-17 -32 -31 -63t-24 -59q-8 -29 -12.5 -51.5t-4.5 -35.5q0 -7 1 -10.5t3 -6.5l1 -1q0 -1 2 -1q0 -1 1 -1h1q8 0 19.5 7.5t26.5 22.5q15 13 30.5 32.5t30.5 40.5q25 37 45 73.5 t36 75.5q19 38 26.5 60.5t7.5 31.5v1zM172 125q-22 -38 -43.5 -66.5t-46.5 -48.5q-24 -18 -47 -28t-43 -10q-19 0 -34.5 7.5t-27.5 20.5q-12 12 -18 29.5t-6 38.5q0 31 6 62.5t18 64.5q10 34 26 69t39 72q17 38 39.5 66.5t47.5 50.5q23 23 45.5 33t44.5 10q10 0 20 -2.5 t20 -9.5q5 -1 9 -5.5t9 -7.5q5 -5 9.5 -10t9.5 -12q3 0 5.5 1t4.5 1q5 2 9 2.5t8 0.5q5 2 10 2h8q15 0 27.5 -2.5t20.5 -9.5q10 -6 14.5 -13.5t4.5 -16.5q0 -7 -6 -20t-16 -37q-10 -18 -17 -33l-11 -27q-17 -35 -29.5 -66t-20.5 -59q-9 -27 -14 -47t-5 -31q0 -7 1 -11.5 t2 -7.5q4 -2 6.5 -3.5t5.5 -1.5q7 0 15.5 7t19.5 18q12 14 31 39l46 63q5 7 10 15t12 18l13 16q5 6 8 6q2 0 4.5 -1t4.5 -2q2 0 4.5 -2.5t3.5 -6.5q4 -5 6.5 -9t2.5 -7q1 -2 1 -4v-5q0 -6 -6.5 -20.5t-20.5 -37.5q-11 -22 -28 -46t-37 -48q-13 -20 -26.5 -33t-24.5 -22 q-12 -6 -25.5 -8.5t-26.5 -2.5q-17 0 -31 5t-24 16q-10 14 -14.5 32t-4.5 42v12v8v7q0 3 2 5v1zM379 777l2 -2h1h4q3 0 3 -2q3 -1 3 -3v-5v-1v-1v-1q-1 -2 -2 -3t-3 -2l-5 -7q-16 -22 -34 -42l-36 -40q-18 -20 -33 -33.5t-25 -21.5l-7 -7q-3 -5 -7.5 -7.5t-9.5 -3.5 q-3 -2 -7 -3.5t-9 -1.5l-37 1q0 -1 -2 -1h-1q-2 1 -3.5 2t-3.5 1q-2 2 -2 4v3v2q0 1 2 3q2 1 2.5 2t2.5 3l3 8q9 5 19.5 18.5t24.5 33.5q13 18 25 38t23 42l4 8q3 4 5.5 8t5.5 6q2 1 4.5 1t5.5 2h3h2z" />
<glyph unicode="&#xe2;" horiz-adv-x="437" d="M224 382q0 5 -2 10t-5 7q-2 3 -7 5.5t-10 2.5q-13 0 -29 -10t-34 -28t-35.5 -44t-36.5 -59q-17 -32 -31 -63t-24 -59q-8 -29 -12.5 -51.5t-4.5 -35.5q0 -7 1 -10.5t3 -6.5l1 -1q0 -1 2 -1q0 -1 1 -1h1q8 0 19.5 7.5t26.5 22.5q15 13 30.5 32.5t30.5 40.5q25 37 45 73.5 t36 75.5q19 38 26.5 60.5t7.5 31.5v1zM172 125q-22 -38 -43.5 -66.5t-46.5 -48.5q-24 -18 -47 -28t-43 -10q-19 0 -34.5 7.5t-27.5 20.5q-12 12 -18 29.5t-6 38.5q0 31 6 62.5t18 64.5q10 34 26 69t39 72q17 38 39.5 66.5t47.5 50.5q23 23 45.5 33t44.5 10q10 0 20 -2.5 t20 -9.5q5 -1 9 -5.5t9 -7.5q5 -5 9.5 -10t9.5 -12q3 0 5.5 1t4.5 1q5 2 9 2.5t8 0.5q5 2 10 2h8q15 0 27.5 -2.5t20.5 -9.5q10 -6 14.5 -13.5t4.5 -16.5q0 -7 -6 -20t-16 -37q-10 -18 -17 -33l-11 -27q-17 -35 -29.5 -66t-20.5 -59q-9 -27 -14 -47t-5 -31q0 -7 1 -11.5 t2 -7.5q4 -2 6.5 -3.5t5.5 -1.5q7 0 15.5 7t19.5 18q12 14 31 39l46 63q5 7 10 15t12 18l13 16q5 6 8 6q2 0 4.5 -1t4.5 -2q2 0 4.5 -2.5t3.5 -6.5q4 -5 6.5 -9t2.5 -7q1 -2 1 -4v-5q0 -6 -6.5 -20.5t-20.5 -37.5q-11 -22 -28 -46t-37 -48q-13 -20 -26.5 -33t-24.5 -22 q-12 -6 -25.5 -8.5t-26.5 -2.5q-17 0 -31 5t-24 16q-10 14 -14.5 32t-4.5 42v12v8v7q0 3 2 5v1zM227 778h75q4 -1 8 -1t6 -4q3 -1 7 -5l9 -11l5 -2q4 -9 8 -15.5t9 -13.5q3 -8 7.5 -14.5t7.5 -15.5q8 -15 15 -26.5t8 -19.5l4 -4q1 -3 2 -5.5t1 -5.5q2 -2 2 -4v-6v-3 q0 -1 -2 -2q0 -2 -2.5 -3t-5.5 -2l-35 -17q0 -2 -1 -2h-3q-1 -1 -4 -2l-2 -1q-5 0 -10 5t-9 13q-1 0 -1 1v1l-2 7q0 -2 -1 0.5t-2 4.5l-32 52l-28 44l-37 -40q-17 -20 -32 -35q-13 -15 -23 -23t-14 -12h-1q0 -1 -1 -2l-3 -3q-1 0 -2 -0.5t-1 -2.5q-2 -3 -4.5 -5t-3.5 -2h-3 q-1 0 -1 2h-2h-1q-2 0 -2.5 1t-4.5 2l-26 34q-2 0 -3 1.5t-2 3.5v3v3v4q0 1 1 3l1 1l1 1q2 1 2.5 2t2.5 1l2 5q5 2 15 11t23 24q13 13 27.5 29t27.5 33l2 7q1 1 3.5 3t4.5 3q2 2 3.5 3t3.5 1h1h4z" />
<glyph unicode="&#xe3;" horiz-adv-x="437" d="M224 382q0 5 -2 10t-5 7q-2 3 -7 5.5t-10 2.5q-13 0 -29 -10t-34 -28t-35.5 -44t-36.5 -59q-17 -32 -31 -63t-24 -59q-8 -29 -12.5 -51.5t-4.5 -35.5q0 -7 1 -10.5t3 -6.5l1 -1q0 -1 2 -1q0 -1 1 -1h1q8 0 19.5 7.5t26.5 22.5q15 13 30.5 32.5t30.5 40.5q25 37 45 73.5 t36 75.5q19 38 26.5 60.5t7.5 31.5v1zM172 125q-22 -38 -43.5 -66.5t-46.5 -48.5q-24 -18 -47 -28t-43 -10q-19 0 -34.5 7.5t-27.5 20.5q-12 12 -18 29.5t-6 38.5q0 31 6 62.5t18 64.5q10 34 26 69t39 72q17 38 39.5 66.5t47.5 50.5q23 23 45.5 33t44.5 10q10 0 20 -2.5 t20 -9.5q5 -1 9 -5.5t9 -7.5q5 -5 9.5 -10t9.5 -12q3 0 5.5 1t4.5 1q5 2 9 2.5t8 0.5q5 2 10 2h8q15 0 27.5 -2.5t20.5 -9.5q10 -6 14.5 -13.5t4.5 -16.5q0 -7 -6 -20t-16 -37q-10 -18 -17 -33l-11 -27q-17 -35 -29.5 -66t-20.5 -59q-9 -27 -14 -47t-5 -31q0 -7 1 -11.5 t2 -7.5q4 -2 6.5 -3.5t5.5 -1.5q7 0 15.5 7t19.5 18q12 14 31 39l46 63q5 7 10 15t12 18l13 16q5 6 8 6q2 0 4.5 -1t4.5 -2q2 0 4.5 -2.5t3.5 -6.5q4 -5 6.5 -9t2.5 -7q1 -2 1 -4v-5q0 -6 -6.5 -20.5t-20.5 -37.5q-11 -22 -28 -46t-37 -48q-13 -20 -26.5 -33t-24.5 -22 q-12 -6 -25.5 -8.5t-26.5 -2.5q-17 0 -31 5t-24 16q-10 14 -14.5 32t-4.5 42v12v8v7q0 3 2 5v1zM286 630l-52 26q-5 0 -10 1t-10 3q-5 1 -10 1h-7q-12 0 -22 -5t-18 -15q-7 -10 -12 -15t-8 -5l-37 2q-1 -2 -2 -2t-3 2h-1v2q0 20 7.5 37.5t23.5 33.5q19 19 38 26.5t41 7.5h8 q5 0 10 -2q7 -2 12 -2.5t8 -4.5l50 -26q4 -4 5.5 -4.5t4.5 -2.5q2 -2 4.5 -2.5t4.5 -0.5q5 -2 9 -2h7q10 0 19.5 5t15.5 17q9 10 14.5 15.5t9.5 5.5l37 2q1 -2 2 -2h1l2 -1h1v-1v-3v-1q0 -22 -7.5 -39.5t-20.5 -32.5q-15 -15 -32 -22.5t-37 -7.5h-10q-5 0 -10 2 q-6 1 -12 3.5t-14 4.5v2z" />
<glyph unicode="&#xe4;" horiz-adv-x="437" d="M224 382q0 5 -2 10t-5 7q-2 3 -7 5.5t-10 2.5q-13 0 -29 -10t-34 -28t-35.5 -44t-36.5 -59q-17 -32 -31 -63t-24 -59q-8 -29 -12.5 -51.5t-4.5 -35.5q0 -7 1 -10.5t3 -6.5l1 -1q0 -1 2 -1q0 -1 1 -1h1q8 0 19.5 7.5t26.5 22.5q15 13 30.5 32.5t30.5 40.5q25 37 45 73.5 t36 75.5q19 38 26.5 60.5t7.5 31.5v1zM172 125q-22 -38 -43.5 -66.5t-46.5 -48.5q-24 -18 -47 -28t-43 -10q-19 0 -34.5 7.5t-27.5 20.5q-12 12 -18 29.5t-6 38.5q0 31 6 62.5t18 64.5q10 34 26 69t39 72q17 38 39.5 66.5t47.5 50.5q23 23 45.5 33t44.5 10q10 0 20 -2.5 t20 -9.5q5 -1 9 -5.5t9 -7.5q5 -5 9.5 -10t9.5 -12q3 0 5.5 1t4.5 1q5 2 9 2.5t8 0.5q5 2 10 2h8q15 0 27.5 -2.5t20.5 -9.5q10 -6 14.5 -13.5t4.5 -16.5q0 -7 -6 -20t-16 -37q-10 -18 -17 -33l-11 -27q-17 -35 -29.5 -66t-20.5 -59q-9 -27 -14 -47t-5 -31q0 -7 1 -11.5 t2 -7.5q4 -2 6.5 -3.5t5.5 -1.5q7 0 15.5 7t19.5 18q12 14 31 39l46 63q5 7 10 15t12 18l13 16q5 6 8 6q2 0 4.5 -1t4.5 -2q2 0 4.5 -2.5t3.5 -6.5q4 -5 6.5 -9t2.5 -7q1 -2 1 -4v-5q0 -6 -6.5 -20.5t-20.5 -37.5q-11 -22 -28 -46t-37 -48q-13 -20 -26.5 -33t-24.5 -22 q-12 -6 -25.5 -8.5t-26.5 -2.5q-17 0 -31 5t-24 16q-10 14 -14.5 32t-4.5 42v12v8v7q0 3 2 5v1zM362 735q10 -2 18.5 -4.5t15.5 -9.5q5 -5 8 -13t3 -18q0 -17 -5.5 -33t-19.5 -29q-11 -12 -24.5 -19.5t-28.5 -7.5q-7 0 -14.5 3.5t-13.5 10.5q-5 6 -8.5 14.5t-3.5 18.5 q0 17 6 32t17 28q12 13 24.5 19t25.5 6v2zM182 735q12 -2 19.5 -4.5t12.5 -9.5q5 -5 7.5 -13t2.5 -18q0 -17 -5 -33t-17 -29q-12 -12 -25 -19.5t-28 -7.5q-7 0 -14.5 3.5t-14.5 10.5q-5 6 -8 14.5t-3 18.5q0 17 5.5 32t17.5 28t24.5 19t25.5 6v2z" />
<glyph unicode="&#xe5;" horiz-adv-x="437" d="M257 726q-12 -1 -23.5 -6t-19.5 -15q-10 -9 -14.5 -20.5t-4.5 -24.5q0 -12 4.5 -23t14.5 -19q8 -10 19.5 -15t23.5 -5q14 0 25.5 5t19.5 13q9 9 13 20.5t4 23.5q0 13 -4 24.5t-13 21.5q-10 9 -20.5 14t-24.5 5v1zM257 790q27 -2 49.5 -11t40.5 -27q19 -19 27 -41.5 t8 -49.5q0 -26 -8 -48.5t-27 -41.5q-16 -17 -38.5 -27t-51.5 -10q-27 0 -48.5 10t-39.5 27q-19 19 -28 41.5t-9 48.5q0 27 9 49.5t28 39.5q18 18 40.5 28t47.5 10v2zM224 382q0 5 -2 10t-5 7q-2 3 -7 5.5t-10 2.5q-13 0 -29 -10t-34 -28t-35.5 -44t-36.5 -59 q-17 -32 -31 -63t-24 -59q-8 -29 -12.5 -51.5t-4.5 -35.5q0 -7 1 -10.5t3 -6.5l1 -1q0 -1 2 -1q0 -1 1 -1h1q8 0 19.5 7.5t26.5 22.5q15 13 30.5 32.5t30.5 40.5q25 37 45 73.5t36 75.5q19 38 26.5 60.5t7.5 31.5v1zM172 125q-22 -38 -43.5 -66.5t-46.5 -48.5 q-24 -18 -47 -28t-43 -10q-19 0 -34.5 7.5t-27.5 20.5q-12 12 -18 31t-6 41q0 28 6 59t18 64q12 34 27.5 69t37.5 72q17 38 39.5 66.5t47.5 50.5q23 23 45.5 33t44.5 10q10 0 20 -2.5t20 -9.5q5 -1 9 -5.5t9 -7.5q5 -5 9.5 -10t9.5 -12q3 0 5.5 1t4.5 1q5 2 9 2.5t8 0.5 q5 2 10 2h8q15 0 27.5 -2.5t20.5 -9.5q10 -6 14.5 -13.5t4.5 -16.5q0 -7 -6 -20t-16 -37q-10 -18 -17 -33l-11 -27q-17 -35 -29.5 -66t-20.5 -59q-9 -27 -14 -47t-5 -31q0 -7 1 -11.5t2 -7.5q4 -2 6.5 -3.5t5.5 -1.5q7 0 15.5 7t19.5 18q12 14 31 39l46 63q5 7 10 15t12 18 l13 16q5 6 8 6q2 0 4.5 -1t4.5 -2q2 0 4.5 -2.5t3.5 -6.5q4 -5 6.5 -9t2.5 -7q1 -2 1 -4v-5q0 -6 -6.5 -20.5t-20.5 -37.5q-11 -22 -28 -46t-37 -48q-13 -20 -26.5 -33t-24.5 -22q-12 -6 -25.5 -8.5t-26.5 -2.5q-17 0 -31 5t-24 16q-10 14 -14.5 32t-4.5 42v12v8v7q0 3 2 5 v1z" />
<glyph unicode="&#xe6;" horiz-adv-x="556" d="M159 105q-20 -33 -41 -58t-43 -44q-22 -15 -43.5 -23t-39.5 -8q-19 0 -34.5 7.5t-27.5 20.5q-12 12 -18 30t-6 40q0 29 6 60.5t18 64.5q12 34 27.5 69t37.5 72q17 38 39.5 66.5t47.5 50.5q23 23 45.5 33t44.5 10q13 0 24 -3.5t23 -9.5q10 -7 19 -19.5t18 -27.5 q6 13 13 25l13 22q7 10 13.5 18t13.5 15q13 13 26.5 19t30.5 6q5 0 10 -1t11 -4l12 -5q7 -3 13 -8q6 -2 13 -4l18 -3q23 -7 34.5 -22t11.5 -38q0 -50 -14 -97t-42 -90q-31 -42 -61 -64.5t-60 -22.5q-6 0 -13 2l-13 5q-7 3 -13 7t-11 11l-6 -23l-4 -20q-2 -12 -2.5 -23 t-0.5 -24q0 -22 3.5 -39.5t9.5 -30.5q9 -12 19 -18t21 -6q24 0 49.5 14.5t55.5 42.5q32 29 59.5 64.5t51.5 80.5q0 4 2.5 6.5t3.5 7.5q10 20 18.5 30t13.5 10q3 0 7.5 -1.5t7.5 -6.5t5.5 -10t2.5 -14q0 -7 -5 -21t-15 -32q-8 -19 -21 -39l-29 -41q-30 -39 -58 -66.5 t-55 -44.5q-27 -15 -55.5 -23t-59.5 -8t-53.5 8t-37.5 23q-16 19 -23.5 44t-7.5 57v1zM224 382q0 5 -2 10t-5 7q-2 3 -7 5.5t-10 2.5q-13 0 -29 -10t-34 -28t-35.5 -44t-36.5 -59q-17 -32 -31 -63t-24 -59q-8 -29 -12.5 -51.5t-4.5 -35.5q0 -7 1 -10.5t3 -6.5l1 -1 q0 -1 2 -1q0 -1 1 -1h1q8 0 19.5 7.5t26.5 22.5q15 13 30.5 32.5t30.5 40.5q25 37 45 73.5t36 75.5q19 38 26.5 60.5t7.5 31.5v1zM319 237q13 -2 27.5 12.5t27.5 44.5q7 15 12 30t8 30q3 13 5 28t2 30q0 2 -1 4.5t-1 4.5q-2 2 -2.5 4.5t-2.5 3.5q-3 4 -6.5 6.5t-6.5 2.5 q-12 0 -26 -15.5t-33 -43.5q-16 -30 -25.5 -53.5t-9.5 -41.5q0 -12 2.5 -20t7.5 -15q4 -7 9.5 -10.5t12.5 -3.5v2z" />
<glyph unicode="&#xe7;" horiz-adv-x="367" d="M215 443l-6 1q-5 -1 -11 -3.5t-13 -6.5l-12 -10q-6 -5 -11 -13q-28 -37 -53 -81t-44 -95q-20 -50 -29 -90.5t-9 -74.5q0 -18 2.5 -32.5t8.5 -24.5q9 -10 19 -12.5t21 -2.5q24 0 46.5 6t44.5 23q23 18 49 43t54 60q14 17 25 34l24 38q11 20 18 30t8 10q4 0 9 -1.5t11 -5.5 q4 -1 5.5 -3.5t3.5 -4.5q1 -3 2 -5t1 -5q0 -7 -3.5 -17.5t-11.5 -25.5q-7 -17 -17 -33.5t-23 -35.5q-25 -37 -52.5 -65t-57.5 -45q-32 -20 -63 -30t-62 -10q-36 0 -62.5 10t-43.5 28q-21 17 -31 44.5t-10 61.5q0 45 12.5 97.5t37.5 112.5q21 58 50.5 104t61.5 78q8 8 17 15 t19 8q9 4 20.5 5.5t23.5 1.5q6 0 12 -1t11 -1q3 -1 5.5 -1t6.5 -2q8 -2 16.5 -7t16.5 -11q14 -2 24.5 -8.5t17.5 -18.5q8 -12 12.5 -26t4.5 -33q0 -28 -7.5 -57t-22.5 -59t-30.5 -45.5t-31.5 -15.5q-9 0 -16.5 3.5t-15.5 10.5q-7 7 -10 14.5t-3 13.5q0 14 4 34.5t14 47.5 q8 28 15 48.5t8 33.5v2zM33 0h54l-29 -95h15q27 0 46.5 -7t32.5 -18q13 -12 19 -30.5t6 -41.5t-8.5 -42.5t-26.5 -32.5q-17 -14 -42 -20.5t-57 -6.5q-26 0 -48.5 2.5t-44.5 9.5q-22 5 -33 10.5t-11 14.5l-1 5v3l11 25h3h1v2q2 3 4.5 5t5.5 2l8 -3q9 -4 27 -9q10 -3 18.5 -5 t16.5 -3q8 -2 16.5 -3t18.5 -1q13 0 25 3.5t22 11.5q8 7 13 16t5 21t-4 20t-12 17q-9 6 -20.5 8.5t-28.5 2.5h-5h-8h-10h-9h-2h-1v1v1l-1 1l-1 1v1v6v4v3q0 1 2 1v2v3z" />
<glyph unicode="&#xe8;" horiz-adv-x="332" d="M95 237q14 -2 27 12.5t27 44.5q6 15 10.5 30t7.5 30q3 13 5 28t2 30v4q0 3 -2 5q0 2 -1 4.5t-2 3.5l-3 3l-2 2q-2 2 -4.5 3t-5.5 1q-12 0 -25.5 -15.5t-31.5 -43.5q-17 -30 -25.5 -53.5t-8.5 -41.5q0 -12 2 -20t7 -15q3 -7 10 -10.5t13 -3.5v2zM35 209q-2 -14 -4.5 -24.5 t-3.5 -20.5q-2 -12 -2 -23v-24q0 -22 2.5 -39.5t9.5 -30.5q6 -12 15.5 -18t20.5 -6q24 0 50.5 14.5t58.5 42.5q32 29 59.5 64.5t49.5 79.5q3 3 5.5 9t5.5 12q9 17 14.5 25.5t10.5 8.5h6q1 0 4 -2q2 -1 4.5 -2t4.5 -4q3 -5 4.5 -10t1.5 -14q0 -7 -4 -21t-14 -32 q-10 -19 -23.5 -39t-29.5 -41q-31 -39 -58.5 -66.5t-53.5 -44.5q-27 -15 -55.5 -23t-56.5 -8q-32 0 -53.5 9t-38.5 24q-15 18 -23.5 45t-8.5 64q0 38 9.5 84.5t27.5 98.5q18 54 40 101.5t50 87.5q8 13 18.5 23t20.5 17q10 8 20 11.5t20 3.5q6 0 11 -1t10 -4l12 -5 q7 -3 13 -8q5 -2 12.5 -3.5t16.5 -3.5q25 -7 37.5 -22t12.5 -38q0 -52 -15 -98t-44 -89q-28 -44 -58 -65.5t-62 -21.5q-7 0 -12.5 2.5t-12.5 4.5q-7 3 -12.5 7t-12.5 11v2zM210 591q-1 -1 -5.5 0.5t-9.5 3.5l-5 5q-3 3 -6 8l-4 7q-1 1 -12 15l-29 38q-17 23 -31 45t-23 39 l-5 10h-2v3q0 3 1 5t3 3q2 2 5 2h7l76 2q2 -2 3.5 -2t3.5 -2l2 -1q1 0 3 -2q3 -2 4 -4.5t3 -5.5q1 -2 2 -3.5t1 -3.5l2 -3q5 -22 12.5 -41t13.5 -38l17 -33q8 -15 15 -25l5 -5v-3h2v-2q2 -2 2 -3v-4q0 -1 -1 -2l-3 -3h-2h-3q-2 -1 -3 -1h-4z" />
<glyph unicode="&#xe9;" horiz-adv-x="332" d="M95 237q14 -2 27 12.5t27 44.5q6 15 10.5 30t7.5 30q3 13 5 28t2 30v4q0 3 -2 5q0 2 -1 4.5t-2 3.5l-3 3l-2 2q-2 2 -4.5 3t-5.5 1q-12 0 -25.5 -15.5t-31.5 -43.5q-17 -30 -25.5 -53.5t-8.5 -41.5q0 -12 2 -20t7 -15q3 -7 10 -10.5t13 -3.5v2zM35 209q-2 -14 -4.5 -24.5 t-3.5 -20.5q-2 -12 -2 -23v-24q0 -22 2.5 -39.5t9.5 -30.5q6 -12 15.5 -18t20.5 -6q24 0 50.5 14.5t58.5 42.5q32 29 59.5 64.5t49.5 79.5q3 3 5.5 9t5.5 12q9 17 14.5 25.5t10.5 8.5h6q1 0 4 -2q2 -1 4.5 -2t4.5 -4q3 -5 4.5 -10t1.5 -14q0 -7 -4 -21t-14 -32 q-10 -19 -23.5 -39t-29.5 -41q-31 -39 -58.5 -66.5t-53.5 -44.5q-27 -15 -55.5 -23t-56.5 -8q-32 0 -53.5 9t-38.5 24q-15 18 -23.5 45t-8.5 64q0 38 9.5 84.5t27.5 98.5q18 54 40 101.5t50 87.5q8 13 18.5 23t20.5 17q10 8 20 11.5t20 3.5q6 0 11 -1t10 -4l12 -5 q7 -3 13 -8q5 -2 12.5 -3.5t16.5 -3.5q25 -7 37.5 -22t12.5 -38q0 -52 -15 -98t-44 -89q-28 -44 -58 -65.5t-62 -21.5q-7 0 -12.5 2.5t-12.5 4.5q-7 3 -12.5 7t-12.5 11v2zM327 777q4 -2 6.5 -2t3.5 -2q4 -1 4.5 -3t0.5 -5v-1v-1q-1 0 -1 -1l-1 -1l-1 -1q0 -2 -1 -3h-1 l-6 -7l-34 -42l-36 -40q-19 -20 -33 -33.5t-24 -21.5l-7 -7q-5 -5 -9 -7.5t-8 -3.5q-1 -2 -3.5 -3t-4.5 -1q-2 -1 -4 -1h-4l-37 1q-3 -1 -5.5 -0.5t-4.5 2.5t-2.5 3.5t-0.5 3.5v2q0 1 1 3q2 1 3 2t2 3l5 8q9 5 19 18.5t23 33.5q13 18 25 38t23 42l4 8q3 4 5.5 8t5.5 6l8 2 q4 1 7 1z" />
<glyph unicode="&#xea;" horiz-adv-x="332" d="M95 237q14 -2 27 12.5t27 44.5q6 15 10.5 30t7.5 30q3 13 5 28t2 30v4q0 3 -2 5q0 2 -1 4.5t-2 3.5l-3 3l-2 2q-2 2 -4.5 3t-5.5 1q-12 0 -25.5 -15.5t-31.5 -43.5q-17 -30 -25.5 -53.5t-8.5 -41.5q0 -12 2 -20t7 -15q3 -7 10 -10.5t13 -3.5v2zM35 209q-2 -14 -4.5 -24.5 t-3.5 -20.5q-2 -12 -2 -23v-24q0 -22 2.5 -39.5t9.5 -30.5q6 -12 15.5 -18t20.5 -6q24 0 50.5 14.5t58.5 42.5q32 29 59.5 64.5t49.5 79.5q3 3 5.5 9t5.5 12q9 17 14.5 25.5t10.5 8.5h6q1 0 4 -2q2 -1 4.5 -2t4.5 -4q3 -5 4.5 -10t1.5 -14q0 -7 -4 -21t-14 -32 q-10 -19 -23.5 -39t-29.5 -41q-31 -39 -58.5 -66.5t-53.5 -44.5q-27 -15 -55.5 -23t-56.5 -8q-32 0 -53.5 9t-38.5 24q-15 18 -23.5 45t-8.5 64q0 38 9.5 84.5t27.5 98.5q18 54 40 101.5t50 87.5q8 13 18.5 23t20.5 17q10 8 20 11.5t20 3.5q6 0 11 -1t10 -4l12 -5 q7 -3 13 -8q5 -2 12.5 -3.5t16.5 -3.5q25 -7 37.5 -22t12.5 -38q0 -52 -15 -98t-44 -89q-28 -44 -58 -65.5t-62 -21.5q-7 0 -12.5 2.5t-12.5 4.5q-7 3 -12.5 7t-12.5 11v2zM175 778h75q4 -1 8 -1t8 -4q1 0 3.5 -2.5t6.5 -5.5q1 -2 2 -4.5t3 -3.5l5 -2l17 -29l16 -30l14 -27 q6 -11 9 -19l4 -4q0 -3 0.5 -4t0.5 -2q0 -2 1 -3t1 -2v-5v-5v-3q0 -1 -2 -2q0 -2 -1.5 -3t-4.5 -2l-35 -17q-2 -2 -3 -2h-1q-3 -1 -5 -2l-3 -1q-5 0 -10 5t-8 13v2l-2 7q-2 -2 -2.5 0.5t-2.5 4.5q-15 28 -30 52t-30 44l-36 -41l-33 -34q-13 -15 -23 -23t-13 -12h-2 q-2 -3 -2.5 -4t-4.5 -4q-1 -3 -3.5 -5t-4.5 -2h-2q-1 0 -1 2h-3h-1q-2 0 -2.5 1t-4.5 2l-26 34q-2 0 -3 1.5t-1 3.5q-1 1 -1 3v3v3q0 2 1 4l1 1l1 1q2 1 2.5 2t2.5 1l3 5q5 2 14.5 11t22.5 24l20 20q9 10 17 20q5 5 9 11t9 11l2 7h3l2 3q0 2 1 2.5t2 0.5q2 2 3.5 3t3.5 1h4 h3z" />
<glyph unicode="&#xeb;" horiz-adv-x="332" d="M95 237q14 -2 27 12.5t27 44.5q6 15 10.5 30t7.5 30q3 13 5 28t2 30v4q0 3 -2 5q0 2 -1 4.5t-2 3.5l-3 3l-2 2q-2 2 -4.5 3t-5.5 1q-12 0 -25.5 -15.5t-31.5 -43.5q-17 -30 -25.5 -53.5t-8.5 -41.5q0 -12 2 -20t7 -15q3 -7 10 -10.5t13 -3.5v2zM35 209q-2 -14 -4.5 -24.5 t-3.5 -20.5q-2 -12 -2 -23v-24q0 -22 2.5 -39.5t9.5 -30.5q6 -12 15.5 -18t20.5 -6q24 0 50.5 14.5t58.5 42.5q32 29 59.5 64.5t49.5 79.5q3 3 5.5 9t5.5 12q9 17 14.5 25.5t10.5 8.5h6q1 0 4 -2q2 -1 4.5 -2t4.5 -4q3 -5 4.5 -10t1.5 -14q0 -7 -4 -21t-14 -32 q-10 -19 -23.5 -39t-29.5 -41q-31 -39 -58.5 -66.5t-53.5 -44.5q-27 -15 -55.5 -23t-56.5 -8q-32 0 -53.5 9t-38.5 24q-15 18 -23.5 45t-8.5 64q0 38 9.5 84.5t27.5 98.5q18 54 40 101.5t50 87.5q8 13 18.5 23t20.5 17q10 8 20 11.5t20 3.5q6 0 11 -1t10 -4l12 -5 q7 -3 13 -8q5 -2 12.5 -3.5t16.5 -3.5q25 -7 37.5 -22t12.5 -38q0 -52 -15 -98t-44 -89q-28 -44 -58 -65.5t-62 -21.5q-7 0 -12.5 2.5t-12.5 4.5q-7 3 -12.5 7t-12.5 11v2zM312 735q10 -2 17.5 -4.5t14.5 -9.5q7 -5 9.5 -13t2.5 -18q0 -17 -6 -33t-18 -29 q-11 -12 -24.5 -19.5t-30.5 -7.5q-6 0 -13.5 3.5t-13.5 10.5q-6 6 -8.5 14.5t-2.5 18.5q0 17 5 32t17 28q11 13 23.5 19t27.5 6v2zM132 735q10 -2 17.5 -4.5t12.5 -9.5q5 -5 8.5 -13t3.5 -18q0 -17 -6 -33t-18 -29q-11 -12 -23.5 -19.5t-27.5 -7.5q-9 0 -16.5 3.5 t-14.5 10.5q-5 6 -7.5 14.5t-2.5 18.5q0 17 5 32t17 28t25.5 19t26.5 6v2z" />
<glyph unicode="&#xec;" horiz-adv-x="248" d="M45 -13q-22 0 -37.5 8t-27.5 25q-13 18 -19 43.5t-6 56.5q0 37 6 79.5t17 89.5l13 43l11 37q5 17 10.5 29.5t12.5 20.5q5 9 12.5 14.5t17.5 10.5q12 5 23.5 7t25.5 2q6 0 12 -2t9 -5q5 -2 7.5 -7t2.5 -13q0 -2 -3 -11l-8 -23q-5 -10 -7.5 -18t-6.5 -15l-10 -28 q-35 -97 -51.5 -156.5t-16.5 -82.5q0 -10 1.5 -17t4.5 -12q4 -5 9.5 -6.5t12.5 -1.5q10 0 25 10t35 30t40 47.5t40 59.5q4 3 6.5 10t7.5 15q6 13 11 20t10 7t10 -2.5t11 -6.5q5 -5 7.5 -10.5t2.5 -12.5q0 -2 -8 -16l-21 -37q-7 -12 -13.5 -21t-9.5 -16q-22 -42 -44.5 -70.5 t-40.5 -44.5q-20 -17 -40.5 -23.5t-43.5 -6.5zM145 591q-3 -1 -7 0.5t-8 3.5l-6 6q-2 2 -5 7l-4 7q-1 1 -12 15.5t-30 37.5l-31 45q-14 22 -22 39l-5 10q-2 0 -2 1v2q0 3 1 5t3 3q1 2 3 2h8l76 2q3 -2 7 -3t6 -4q3 -2 4 -4.5t3 -5.5q1 -2 2 -3.5t1 -3.5l2 -3q5 -22 12.5 -41 t13.5 -38l17 -33q8 -15 15 -25l5 -5v-2q0 -1 2 -1v-2l1 -2v-5q0 -1 -0.5 -2t-2.5 -3h-2h-3q-2 -1 -3 -1h-4z" />
<glyph unicode="&#xed;" horiz-adv-x="248" d="M45 -13q-22 0 -37.5 8t-27.5 25q-13 18 -19 43.5t-6 56.5q0 37 6 79.5t17 89.5l13 43l11 37q5 17 10.5 29.5t12.5 20.5q5 9 12.5 14.5t17.5 10.5q12 5 23.5 7t25.5 2q6 0 12 -2t9 -5q5 -2 7.5 -7t2.5 -13q0 -2 -3 -11l-8 -23q-5 -10 -7.5 -18t-6.5 -15l-10 -28 q-35 -97 -51.5 -156.5t-16.5 -82.5q0 -10 1.5 -17t4.5 -12q4 -5 9.5 -6.5t12.5 -1.5q10 0 25 10t35 30t40 47.5t40 59.5q4 3 6.5 10t7.5 15q6 13 11 20t10 7t10 -2.5t11 -6.5q5 -5 7.5 -10.5t2.5 -12.5q0 -2 -8 -16l-21 -37q-7 -12 -13.5 -21t-9.5 -16q-22 -42 -44.5 -70.5 t-40.5 -44.5q-20 -17 -40.5 -23.5t-43.5 -6.5zM262 777q4 -2 6.5 -2t3.5 -2q4 -1 4.5 -3t0.5 -5v-1v-1h-1v-1l-1 -1l-1 -1q0 -2 -1 -2l-1 -1l-6 -7l-34 -42l-37 -40q-18 -20 -32 -33.5t-24 -21.5l-7 -7q-5 -5 -9 -7.5t-8 -3.5l-9 -3q-4 -2 -7 -2l-37 1q-4 -1 -6.5 -0.5 t-3.5 2.5q-2 2 -3 3.5t-1 3.5v2q0 1 2 3q2 1 2.5 2t2.5 3l5 8q7 5 18 18.5t24 33.5q13 18 25 38t23 42l4 8q3 4 5.5 8t5.5 6l8 2q4 1 7 1z" />
<glyph unicode="&#xee;" horiz-adv-x="248" d="M45 -13q-22 0 -37.5 8t-27.5 25q-13 18 -19 43.5t-6 56.5q0 37 6 79.5t17 89.5l13 43l11 37q5 17 10.5 29.5t12.5 20.5q5 9 12.5 14.5t17.5 10.5q12 5 23.5 7t25.5 2q6 0 12 -2t9 -5q5 -2 7.5 -7t2.5 -13q0 -2 -3 -11l-8 -23q-5 -10 -7.5 -18t-6.5 -15l-10 -28 q-35 -97 -51.5 -156.5t-16.5 -82.5q0 -10 1.5 -17t4.5 -12q4 -5 9.5 -6.5t12.5 -1.5q10 0 25 10t35 30t40 47.5t40 59.5q4 3 6.5 10t7.5 15q6 13 11 20t10 7t10 -2.5t11 -6.5q5 -5 7.5 -10.5t2.5 -12.5q0 -2 -8 -16l-21 -37q-7 -12 -13.5 -21t-9.5 -16q-22 -42 -44.5 -70.5 t-40.5 -44.5q-20 -17 -40.5 -23.5t-43.5 -6.5zM110 778h75q4 -1 8 -1t7 -4q4 -1 7 -5.5t8 -10.5l5 -2q9 -14 17 -29t17 -30l14 -26q6 -12 9 -20l2 -4q2 -3 2.5 -5.5t2.5 -5.5v-4v-6v-3q0 -1 -2 -2q0 -2 -1.5 -3t-4.5 -2l-36 -17q-1 -2 -2 -2h-1q-3 -1 -5 -2l-3 -1 q-5 0 -10 5t-9 13q-1 0 -1 1v1v7q-2 -2 -3 0.5t-2 4.5q-15 28 -30 52t-30 44l-36 -40q-18 -20 -33 -35q-13 -15 -23 -23t-14 -12h-1q-2 -3 -3 -4l-4 -4q-2 -3 -4.5 -5t-3.5 -2h-3q-1 0 -1 2h-2h-1q-2 0 -2.5 1t-4.5 2l-25 34l-1 2v3q-2 1 -2 3v3v4q0 1 2 3v1l1 1q2 1 3 2 t2 1l2 5q7 2 14 11l21 24q10 10 19 20l18 20q5 5 9 11t9 11l2 7q2 1 4.5 3t3.5 3q2 2 3.5 3t3.5 1h4h3z" />
<glyph unicode="&#xef;" horiz-adv-x="248" d="M45 -13q-22 0 -37.5 8t-27.5 25q-13 18 -19 43.5t-6 56.5q0 37 6 79.5t17 89.5l13 43l11 37q5 17 10.5 29.5t12.5 20.5q5 9 12.5 14.5t17.5 10.5q12 5 23.5 7t25.5 2q6 0 12 -2t9 -5q5 -2 7.5 -7t2.5 -13q0 -2 -3 -11l-8 -23q-5 -10 -7.5 -18t-6.5 -15l-10 -28 q-35 -97 -51.5 -156.5t-16.5 -82.5q0 -10 1.5 -17t4.5 -12q4 -5 9.5 -6.5t12.5 -1.5q10 0 25 10t35 30t40 47.5t40 59.5q4 3 6.5 10t7.5 15q6 13 11 20t10 7t10 -2.5t11 -6.5q5 -5 7.5 -10.5t2.5 -12.5q0 -2 -8 -16l-21 -37q-7 -12 -13.5 -21t-9.5 -16q-22 -42 -44.5 -70.5 t-40.5 -44.5q-20 -17 -40.5 -23.5t-43.5 -6.5zM245 735q12 -2 19.5 -4.5t14.5 -9.5q5 -5 8.5 -13t3.5 -18q0 -17 -6 -33t-18 -29q-11 -12 -25.5 -19.5t-29.5 -7.5q-7 0 -14.5 3.5t-12.5 10.5q-6 6 -8.5 14.5t-2.5 18.5q0 17 5 32t16 28q12 13 24.5 19t25.5 6v2zM67 735 q10 -2 17.5 -4.5t12.5 -9.5q5 -5 7.5 -13t2.5 -18q0 -17 -5 -33t-17 -29q-12 -12 -24.5 -19.5t-27.5 -7.5q-8 0 -15.5 3.5t-14.5 10.5q-3 6 -4.5 14.5t-1.5 18.5q0 17 3 32t15 28t24.5 19t27.5 6v2z" />
<glyph unicode="&#xf0;" horiz-adv-x="409" d="M276 212q-19 -63 -42.5 -112.5t-51.5 -82.5q-28 -30 -60.5 -46t-71.5 -16q-27 0 -47.5 8.5t-37.5 26.5q-17 17 -24.5 41t-7.5 56q0 28 7 60.5t20 71.5q12 38 29.5 75t38.5 72q14 20 26.5 35t23.5 25q14 10 26.5 15t24.5 5q8 0 18 -3.5t20 -9.5q10 -5 19 -13.5t18 -18.5 q-4 28 -10.5 55.5t-14.5 56.5q-7 28 -19 58l-26 59q-20 -7 -45 -19l-56 -28q-26 -17 -45.5 -24.5t-27.5 -7.5q-7 0 -11 1.5t-7 3.5q-4 3 -6.5 7.5t-2.5 9.5q0 6 8.5 14.5t23.5 18.5q15 12 49 31l91 49q-15 35 -33.5 66t-39.5 58q-22 27 -30.5 41t-8.5 16q0 6 2.5 12t6.5 13 q6 8 13.5 10.5t14.5 2.5t21 -12.5t34 -37.5t43.5 -58.5t48.5 -73.5l70 35q30 14 50 20q20 9 36 13t28 4q6 0 11 -2.5t10 -5.5q4 -4 6.5 -8t2.5 -7q0 -2 -2 -4.5t-5 -5.5q-3 -4 -8 -6.5t-12 -5.5q-2 -2 -4.5 -3t-7.5 -2q-18 -7 -36 -16l-37 -18l-39 -20l-36 -21l13 -29 l13 -28q12 -29 21.5 -57t15.5 -57q10 -41 15 -82t5 -83v-8v-14v-6v-7q-1 -3 -1 -5v-7q23 9 42 23t38 36q18 23 29 34t17 11t11 -1t8 -4q3 -4 5.5 -8t2.5 -9q0 -7 -2.5 -13.5t-5.5 -13.5q-3 -6 -8 -13.5t-14 -16.5q-15 -21 -31 -38t-32 -30q-17 -14 -34.5 -22t-35.5 -12v2z M27 78q0 -13 1.5 -23t6.5 -17q3 -6 10 -8.5t17 -2.5q22 0 44.5 24t48.5 71q25 48 37.5 93.5t12.5 90.5q0 10 -2.5 18t-5.5 15q-5 7 -10 9.5t-13 2.5q-20 0 -43.5 -22.5t-50.5 -71.5q-27 -47 -40 -92t-13 -88v1z" />
<glyph unicode="&#xf1;" horiz-adv-x="427" d="M197 284l-46 -80q-24 -42 -51 -95q-33 -62 -58 -92t-42 -30q-13 0 -25.5 4t-22.5 11q-10 10 -14.5 23t-4.5 30q0 20 6 57t19 90q14 54 29.5 104.5t35.5 99.5q7 17 13.5 27.5t13.5 15.5t14.5 7.5t19.5 2.5q10 0 19 -2.5t16 -7.5q8 -6 12 -12t4 -14q0 -2 -3 -9t-8 -17 q-35 -70 -58.5 -145t-37.5 -153l97 178q42 75 72 120q30 44 53.5 66.5t38.5 22.5q13 0 25.5 -4t24.5 -13q12 -8 17 -19t5 -22q0 -4 -1 -7t-3 -7q-1 -3 -4 -7l-7 -6q-9 -7 -13 -10.5t-6 -3.5q-1 -1 -4.5 -10.5t-10.5 -24.5q-1 -5 -3.5 -10t-4.5 -11q-3 -10 -8 -23l-9 -27 q-6 -29 -13.5 -57.5t-12.5 -54.5l-9 -47q-3 -20 -3 -33q0 -9 1.5 -16.5t3.5 -10.5q3 -5 5.5 -7.5t7.5 -2.5q14 0 38 31t61 92q6 12 11 20.5t9 14.5q1 4 3 6.5t3 7.5q4 8 10.5 13t13.5 5q3 0 8 -2.5t12 -9.5q8 -5 11.5 -10t3.5 -10q0 -6 -10 -28t-29 -57q-18 -35 -39.5 -64 t-45.5 -53q-6 -6 -15.5 -11t-17.5 -10q-8 -4 -17.5 -6.5t-17.5 -2.5q-20 0 -36 8.5t-29 23.5q-12 17 -17 41t-5 54q0 15 1.5 33.5t3.5 40.5q3 21 8 47t12 56v2zM252 630l-52 26q-5 0 -10 1t-10 3q-5 1 -9 1h-7q-12 0 -22 -5t-18 -15q-7 -10 -12 -15t-8 -5l-37 2q-2 -2 -3 -2 t-2 2h-1q-1 0 -1 2q0 20 7.5 37.5t24.5 33.5q18 19 37.5 26.5t40.5 7.5h9q5 0 10 -2q6 -2 11 -2.5t9 -4.5l50 -26q3 -4 5 -4.5t5 -2.5q2 -2 4.5 -2.5t3.5 -0.5q5 -2 10 -2h7q10 0 19 5t16 17q8 10 14 15.5t9 5.5l37 2q2 -2 3 -2q2 -1 3 -1h1v-1v-3v-1q0 -22 -7.5 -39.5 t-21.5 -32.5q-15 -15 -32.5 -22.5t-35.5 -7.5h-10q-5 0 -12 2q-5 1 -10.5 3.5t-14.5 4.5v2z" />
<glyph unicode="&#xf2;" horiz-adv-x="384" d="M177 418q0 -2 1 -2t2 2h7q3 0 7 1h7h6q18 0 31.5 -8.5t25.5 -26.5q10 -17 16 -41t6 -54q23 7 42 21t38 36q18 23 29 34t17 11t11 -1t8 -4q3 -4 5.5 -8t2.5 -9q0 -7 -2.5 -13.5t-5.5 -13.5q-3 -6 -8 -13.5t-14 -16.5q-15 -21 -31 -38t-32 -30q-17 -14 -34.5 -22t-35.5 -12 q-19 -61 -42.5 -110.5t-51.5 -82.5q-28 -30 -60.5 -46t-71.5 -16q-27 0 -47.5 8.5t-37.5 26.5q-17 17 -24.5 41t-7.5 56q0 28 7 60.5t20 71.5q12 38 29.5 75t38.5 72q14 20 26.5 35t23.5 25q14 10 26.5 15t24.5 5q8 0 14.5 -2.5t13.5 -5.5q7 -4 12 -9t8 -13v2zM27 78 q0 -13 1.5 -23t6.5 -17q3 -6 10 -8.5t17 -2.5q22 0 44.5 24t48.5 71q25 48 37.5 93.5t12.5 90.5q0 10 -2.5 18t-5.5 15q-5 7 -10 9.5t-13 2.5q-20 0 -43.5 -22.5t-50.5 -71.5q-27 -47 -40 -92t-13 -88v1zM209 591q-4 -1 -8 1l-9 3l-6 5q-2 3 -6 8l-3 7q-2 1 -12 15.5 t-28 37.5t-32.5 45t-22.5 39l-5 10q-2 0 -2 1v2q0 3 1 5t2 3q2 2 4 2h8l77 2q3 -2 6.5 -3t5.5 -4q3 -2 4 -4.5t2 -5.5q2 -2 3 -3.5t1 -3.5l1 -3q5 -22 12 -41l15 -38q8 -18 16.5 -33t15.5 -25l5 -5v-2q0 -1 2 -1v-2l1 -2v-5q0 -1 -0.5 -2t-2.5 -3h-2h-3q-2 -1 -3 -1h-4z" />
<glyph unicode="&#xf3;" horiz-adv-x="384" d="M177 418q0 -2 1 -2t2 2h7q3 0 7 1h7h6q18 0 31.5 -8.5t25.5 -26.5q10 -17 16 -41t6 -54q23 7 42 21t38 36q18 23 29 34t17 11t11 -1t8 -4q3 -4 5.5 -8t2.5 -9q0 -7 -2.5 -13.5t-5.5 -13.5q-3 -6 -8 -13.5t-14 -16.5q-15 -21 -31 -38t-32 -30q-17 -14 -34.5 -22t-35.5 -12 q-19 -61 -42.5 -110.5t-51.5 -82.5q-28 -30 -60.5 -46t-71.5 -16q-27 0 -47.5 8.5t-37.5 26.5q-17 17 -24.5 41t-7.5 56q0 28 7 60.5t20 71.5q12 38 29.5 75t38.5 72q14 20 26.5 35t23.5 25q14 10 26.5 15t24.5 5q8 0 14.5 -2.5t13.5 -5.5q7 -4 12 -9t8 -13v2zM27 78 q0 -13 1.5 -23t6.5 -17q3 -6 10 -8.5t17 -2.5q22 0 44.5 24t48.5 71q25 48 37.5 93.5t12.5 90.5q0 10 -2.5 18t-5.5 15q-5 7 -10 9.5t-13 2.5q-20 0 -43.5 -22.5t-50.5 -71.5q-27 -47 -40 -92t-13 -88v1zM324 777q3 -2 5.5 -2t4.5 -2q3 -1 4 -3t1 -5v-1v-1q-2 0 -2 -1v-1 l-1 -1q0 -2 -1 -2l-1 -1l-7 -7q-16 -22 -33 -42l-37 -40q-18 -20 -32.5 -33.5t-24.5 -21.5l-6 -7q-5 -5 -9.5 -7.5t-7.5 -3.5q-2 -2 -4.5 -3t-3.5 -1q-2 -1 -4 -1h-5l-36 1q-4 -1 -6.5 -0.5t-3.5 2.5q-2 2 -3 3.5t-1 3.5v2q0 1 2 3q2 1 2.5 2t2.5 3l5 8q8 5 18 18l24 34 q13 18 25 38l23 42l3 8q4 4 6.5 8t5.5 6q3 1 7.5 2t7.5 1z" />
<glyph unicode="&#xf4;" horiz-adv-x="384" d="M177 418q0 -2 1 -2t2 2h7q3 0 7 1h7h6q18 0 31.5 -8.5t25.5 -26.5q10 -17 16 -41t6 -54q23 7 42 21t38 36q18 23 29 34t17 11t11 -1t8 -4q3 -4 5.5 -8t2.5 -9q0 -7 -2.5 -13.5t-5.5 -13.5q-3 -6 -8 -13.5t-14 -16.5q-15 -21 -31 -38t-32 -30q-17 -14 -34.5 -22t-35.5 -12 q-19 -61 -42.5 -110.5t-51.5 -82.5q-28 -30 -60.5 -46t-71.5 -16q-27 0 -47.5 8.5t-37.5 26.5q-17 17 -24.5 41t-7.5 56q0 28 7 60.5t20 71.5q12 38 29.5 75t38.5 72q14 20 26.5 35t23.5 25q14 10 26.5 15t24.5 5q8 0 14.5 -2.5t13.5 -5.5q7 -4 12 -9t8 -13v2zM27 78 q0 -13 1.5 -23t6.5 -17q3 -6 10 -8.5t17 -2.5q22 0 44.5 24t48.5 71q25 48 37.5 93.5t12.5 90.5q0 10 -2.5 18t-5.5 15q-5 7 -10 9.5t-13 2.5q-20 0 -43.5 -22.5t-50.5 -71.5q-27 -47 -40 -92t-13 -88v1zM174 778h73q3 -1 7.5 -1t7.5 -4q2 0 5 -2l5 -6q2 -2 3 -4.5t2 -3.5 l5 -2q9 -14 17 -29t17 -30l14 -26q6 -12 9 -20l3 -4q0 -3 1 -4t1 -2q0 -2 1 -3t1 -2v-3q0 -1 1 -2v-3v-2v-1v-1q-1 -2 -1 -3q-2 -2 -3.5 -3t-5.5 -2l-35 -17q-1 -2 -2 -2h-1q-3 -1 -5 -2l-3 -1q-5 0 -10 5t-9 13v2l-1 7q-2 -2 -3 0.5t-2 4.5l-31 52l-28 44l-37 -41l-31 -34 q-15 -15 -24.5 -23t-12.5 -12h-3q-2 -3 -3 -4l-4 -4q-2 -3 -4.5 -5t-3.5 -2h-3q-1 0 -1 2h-2h-1q-2 0 -3 1t-4 2l-27 34q-1 0 -2 1.5t-1 3.5q-2 1 -2 3v3v3q0 2 2 4l1 1l1 1l2 2q1 1 3 1l3 5q5 2 14 11l23 24q15 13 29 29t26 33l2 7h1l2 1l4 4q1 1 3 1q3 4 6 4h5z" />
<glyph unicode="&#xf5;" horiz-adv-x="384" d="M177 418q0 -2 1 -2t2 2h7q3 0 7 1h7h6q18 0 31.5 -8.5t25.5 -26.5q10 -17 16 -41t6 -54q23 7 42 21t38 36q18 23 29 34t17 11t11 -1t8 -4q3 -4 5.5 -8t2.5 -9q0 -7 -2.5 -13.5t-5.5 -13.5q-3 -6 -8 -13.5t-14 -16.5q-15 -21 -31 -38t-32 -30q-17 -14 -34.5 -22t-35.5 -12 q-19 -61 -42.5 -110.5t-51.5 -82.5q-28 -30 -60.5 -46t-71.5 -16q-27 0 -47.5 8.5t-37.5 26.5q-17 17 -24.5 41t-7.5 56q0 28 7 60.5t20 71.5q12 38 29.5 75t38.5 72q14 20 26.5 35t23.5 25q14 10 26.5 15t24.5 5q8 0 14.5 -2.5t13.5 -5.5q7 -4 12 -9t8 -13v2zM27 78 q0 -13 1.5 -23t6.5 -17q3 -6 10 -8.5t17 -2.5q22 0 44.5 24t48.5 71q25 48 37.5 93.5t12.5 90.5q0 10 -2.5 18t-5.5 15q-5 7 -10 9.5t-13 2.5q-20 0 -43.5 -22.5t-50.5 -71.5q-27 -47 -40 -92t-13 -88v1zM232 630l-53 26q-5 0 -10 1t-10 3q-5 1 -10 1h-7q-12 0 -22 -5 t-18 -15q-7 -10 -12 -15t-8 -5l-37 2q-2 -2 -2.5 -2t-2.5 2h-1q-1 0 -1 2q0 20 8.5 37.5t25.5 33.5q17 19 36 26.5t41 7.5h8q5 0 12 -2q5 -2 10 -2.5t10 -4.5l50 -26q1 -4 3.5 -4.5t4.5 -2.5t4.5 -2.5t4.5 -0.5q3 0 4.5 -1t5.5 -1h3h5q10 0 19 5t16 17q7 10 12.5 15.5 t10.5 5.5l37 2q0 -2 1 -2h2q0 -1 1 -1h1l2 -2v-1v-1v-1q0 -22 -7.5 -39.5t-22.5 -32.5t-32 -22.5t-37 -7.5h-10q-5 0 -10 2q-5 1 -11 3.5t-14 4.5v2z" />
<glyph unicode="&#xf6;" horiz-adv-x="384" d="M177 418q0 -2 1 -2t2 2h7q3 0 7 1h7h6q18 0 31.5 -8.5t25.5 -26.5q10 -17 16 -41t6 -54q23 7 42 21t38 36q18 23 29 34t17 11t11 -1t8 -4q3 -4 5.5 -8t2.5 -9q0 -7 -2.5 -13.5t-5.5 -13.5q-3 -6 -8 -13.5t-14 -16.5q-15 -21 -31 -38t-32 -30q-17 -14 -34.5 -22t-35.5 -12 q-19 -61 -42.5 -110.5t-51.5 -82.5q-28 -30 -60.5 -46t-71.5 -16q-27 0 -47.5 8.5t-37.5 26.5q-17 17 -24.5 41t-7.5 56q0 28 7 60.5t20 71.5q12 38 29.5 75t38.5 72q14 20 26.5 35t23.5 25q14 10 26.5 15t24.5 5q8 0 14.5 -2.5t13.5 -5.5q7 -4 12 -9t8 -13v2zM27 78 q0 -13 1.5 -23t6.5 -17q3 -6 10 -8.5t17 -2.5q22 0 44.5 24t48.5 71q25 48 37.5 93.5t12.5 90.5q0 10 -2.5 18t-5.5 15q-5 7 -10 9.5t-13 2.5q-20 0 -43.5 -22.5t-50.5 -71.5q-27 -47 -40 -92t-13 -88v1zM309 735q10 -2 17.5 -4.5t14.5 -9.5q6 -5 8.5 -13t2.5 -18 q0 -17 -5.5 -33t-17.5 -29q-12 -12 -25 -19.5t-28 -7.5q-9 0 -16.5 3.5t-12.5 10.5q-7 6 -9.5 14.5t-2.5 18.5q0 17 5 32t17 28t24.5 19t27.5 6v2zM129 735q10 -2 17.5 -4.5t12.5 -9.5q5 -5 8 -13t3 -18q0 -17 -5.5 -33t-17.5 -29q-12 -12 -24.5 -19.5t-27.5 -7.5 q-8 0 -15.5 3.5t-12.5 10.5q-7 6 -9.5 14.5t-2.5 18.5q0 17 5 32t17 28t25 19t27 6v2z" />
<glyph unicode="&#xf7;" horiz-adv-x="1391" d="M695 297q20 -1 36.5 -8.5t30.5 -21.5q13 -13 20.5 -30t7.5 -35q0 -20 -7.5 -36.5t-20.5 -30.5q-14 -13 -30.5 -20.5t-36.5 -7.5q-19 0 -35.5 7.5t-29.5 20.5q-14 14 -21.5 30.5t-7.5 36.5q0 18 7.5 35t21.5 30q13 14 29.5 21.5t35.5 7.5v1zM1182 546v-95h-975v95h975z M695 883q20 -1 36.5 -8t30.5 -20q13 -13 20.5 -30t7.5 -35q0 -20 -7.5 -37t-20.5 -30q-14 -13 -30.5 -20.5t-36.5 -7.5q-19 0 -36.5 7.5t-30.5 20.5q-12 13 -19.5 30t-7.5 37q0 18 7.5 35t21.5 30q13 13 29.5 20t35.5 7v1z" />
<glyph unicode="&#xf8;" horiz-adv-x="384" d="M175 418q2 -2 3 -1t2 1l1 1h3h4h1h3h3h1h3q0 -1 1 -1l12 24q7 14 17 31q15 30 27.5 45t24.5 15q6 0 11 -2t9 -7q5 -3 7.5 -7t2.5 -9q0 -9 -3.5 -19.5t-10.5 -24.5q-6 -13 -17 -30l-24 -40q8 -10 14 -21.5t9 -25.5q3 -11 5 -26t2 -34q23 9 42 23t38 36q18 23 29 34t17 11 t11 -1t8 -4q3 -4 5.5 -8t2.5 -9q0 -7 -2.5 -13.5t-5.5 -13.5q-3 -6 -8 -13.5t-14 -16.5q-15 -21 -31 -38t-32 -30q-17 -14 -34.5 -22t-35.5 -12q-19 -63 -42.5 -111.5t-51.5 -81.5q-28 -30 -60.5 -46t-71.5 -16h-1h-6q-1 0 -3 1t-3 1q-2 0 -3.5 0.5t-3.5 0.5l-28 -70 q-12 -28 -19 -38q-8 -12 -15.5 -18t-14.5 -6q-6 0 -12 2.5t-9 6.5q-4 5 -5.5 10t-1.5 13q0 7 2.5 15t7.5 22q5 11 16 31l27 49l-5 5q-3 3 -6 7l-13 15q-7 8 -11 18q-5 13 -7.5 30t-2.5 37q0 27 7 59.5t20 70.5q12 39 29.5 75.5t38.5 73.5q14 20 26.5 35t23.5 25 q14 10 26.5 15t24.5 5q8 0 14.5 -2.5t13.5 -5.5q7 -4 12 -9t6 -13v2zM27 78q0 -13 1.5 -23t6.5 -17q3 -6 10 -8.5t17 -2.5q22 0 44.5 24t48.5 71q25 48 37.5 93.5t12.5 90.5q0 10 -2.5 18t-5.5 15q-5 7 -10 9.5t-13 2.5q-20 0 -43.5 -22.5t-50.5 -71.5q-27 -47 -40 -92 t-13 -88v1z" />
<glyph unicode="&#xf9;" horiz-adv-x="454" d="M195 139q-18 -39 -37 -68t-38 -48q-18 -18 -37.5 -26.5t-37.5 -8.5q-8 0 -17.5 2t-17.5 5q-3 2 -6.5 3.5t-6.5 4.5q-4 2 -7 5l-7 9q-8 8 -14 17t-9 18q-3 8 -5 20t-2 23q0 35 7 77.5t22 94.5t32.5 99.5t40.5 91.5q5 10 10 17.5t12 10.5q5 5 12.5 6.5t14.5 1.5 q11 0 20.5 -4t17.5 -12q8 -7 12.5 -17t4.5 -20v-4q0 -1 -2 -3q0 -1 -1 -3t-1 -3q-1 -2 -4.5 -6t-6.5 -8q-25 -52 -44.5 -99.5t-34.5 -90.5q-13 -42 -20.5 -75.5t-7.5 -56.5q0 -12 2.5 -21t3.5 -14q4 -7 9.5 -9.5t14.5 -2.5q17 0 37 22.5t43 67.5t53 116l66 168 q1 15 5.5 27.5t10.5 21.5q9 8 18 12t19 4q12 0 22.5 -4t20.5 -12q10 -9 15 -18t5 -19q0 -2 -5 -13l-13 -29q-43 -90 -65 -167t-22 -140q0 -10 1 -17.5t3 -14.5q3 -7 5.5 -10t4.5 -3q13 0 27 10.5t29 30.5q15 22 33 54l38 75q0 3 0.5 5.5t2.5 4.5q5 13 11.5 19t13.5 6 q3 0 9 -2.5t13 -9.5q8 -5 11.5 -10t3.5 -10t-7 -21.5t-20 -44.5q-13 -27 -28.5 -53t-33.5 -49q-12 -19 -26 -31.5t-27 -18.5q-14 -9 -29 -14t-31 -5q-20 0 -36 8.5t-30 21.5q-13 17 -19.5 38.5t-6.5 48.5q1 4 1 8v11q2 6 3 13l2 15v2zM272 591q-3 -1 -7 0.5t-8 3.5 q-3 3 -6.5 5.5t-6.5 7.5l-2 7q-2 1 -12.5 15.5t-29.5 37.5l-30 45q-15 22 -25 39l-5 10q-1 0 -1 1v2q0 3 0.5 5t2.5 3q2 2 5 2h7l76 2q4 -2 8 -3t6 -4q3 -2 4.5 -6t3.5 -11l2 -3l14 -41q6 -19 14 -38q4 -6 6.5 -12t3.5 -11q5 -10 11 -19t9 -16l5 -5q2 -3 3 -4l1 -1v-2v-5v-2 q0 -1 -4 -3h-3q-2 -1 -3 -1h-4z" />
<glyph unicode="&#xfa;" horiz-adv-x="454" d="M195 139q-18 -39 -37 -68t-38 -48q-18 -18 -37.5 -26.5t-37.5 -8.5q-8 0 -17.5 2t-17.5 5q-3 2 -6.5 3.5t-6.5 4.5q-4 2 -7 5l-7 9q-8 8 -14 17t-9 18q-3 8 -5 20t-2 23q0 35 7 77.5t22 94.5t32.5 99.5t40.5 91.5q5 10 10 17.5t12 10.5q5 5 12.5 6.5t14.5 1.5 q11 0 20.5 -4t17.5 -12q8 -7 12.5 -17t4.5 -20v-4q0 -1 -2 -3q0 -1 -1 -3t-1 -3q-1 -2 -4.5 -6t-6.5 -8q-25 -52 -44.5 -99.5t-34.5 -90.5q-13 -42 -20.5 -75.5t-7.5 -56.5q0 -12 2.5 -21t3.5 -14q4 -7 9.5 -9.5t14.5 -2.5q17 0 37 22.5t43 67.5t53 116l66 168 q1 15 5.5 27.5t10.5 21.5q9 8 18 12t19 4q12 0 22.5 -4t20.5 -12q10 -9 15 -18t5 -19q0 -2 -5 -13l-13 -29q-43 -90 -65 -167t-22 -140q0 -10 1 -17.5t3 -14.5q3 -7 5.5 -10t4.5 -3q13 0 27 10.5t29 30.5q15 22 33 54l38 75q0 3 0.5 5.5t2.5 4.5q5 13 11.5 19t13.5 6 q3 0 9 -2.5t13 -9.5q8 -5 11.5 -10t3.5 -10t-7 -21.5t-20 -44.5q-13 -27 -28.5 -53t-33.5 -49q-12 -19 -26 -31.5t-27 -18.5q-14 -9 -29 -14t-31 -5q-20 0 -36 8.5t-30 21.5q-13 17 -19.5 38.5t-6.5 48.5q1 4 1 8v11q2 6 3 13l2 15v2zM387 777q4 -2 7 -2t5 -2q2 -1 2.5 -3 t0.5 -5v-1v-1v-1h-1q0 -2 -1 -3t-3 -2l-6 -7q-15 -22 -32 -42l-37 -40q-18 -20 -33 -33.5t-25 -21.5l-7 -7q-1 -3 -4 -4.5t-4 -3.5q-2 0 -4.5 -1.5t-4.5 -1.5q-3 -2 -7 -3.5t-9 -1.5l-37 1q-3 -1 -5.5 -0.5t-4.5 2.5t-2.5 3.5t-0.5 3.5q0 1 0.5 2t2.5 3q2 1 2.5 2t0.5 3l5 8 q9 5 19.5 18.5t22.5 33.5q13 18 26 38t24 42l2 8q3 4 6.5 8t6.5 6q4 1 7 2t8 1z" />
<glyph unicode="&#xfb;" horiz-adv-x="454" d="M195 139q-18 -39 -37 -68t-38 -48q-18 -18 -37.5 -26.5t-37.5 -8.5q-8 0 -17.5 2t-17.5 5q-3 2 -6.5 3.5t-6.5 4.5q-4 2 -7 5l-7 9q-8 8 -14 17t-9 18q-3 8 -5 20t-2 23q0 35 7 77.5t22 94.5t32.5 99.5t40.5 91.5q5 10 10 17.5t12 10.5q5 5 12.5 6.5t14.5 1.5 q11 0 20.5 -4t17.5 -12q8 -7 12.5 -17t4.5 -20v-4q0 -1 -2 -3q0 -1 -1 -3t-1 -3q-1 -2 -4.5 -6t-6.5 -8q-25 -52 -44.5 -99.5t-34.5 -90.5q-13 -42 -20.5 -75.5t-7.5 -56.5q0 -12 2.5 -21t3.5 -14q4 -7 9.5 -9.5t14.5 -2.5q17 0 37 22.5t43 67.5t53 116l66 168 q1 15 5.5 27.5t10.5 21.5q9 8 18 12t19 4q12 0 22.5 -4t20.5 -12q10 -9 15 -18t5 -19q0 -2 -5 -13l-13 -29q-43 -90 -65 -167t-22 -140q0 -10 1 -17.5t3 -14.5q3 -7 5.5 -10t4.5 -3q13 0 27 10.5t29 30.5q15 22 33 54l38 75q0 3 0.5 5.5t2.5 4.5q5 13 11.5 19t13.5 6 q3 0 9 -2.5t13 -9.5q8 -5 11.5 -10t3.5 -10t-7 -21.5t-20 -44.5q-13 -27 -28.5 -53t-33.5 -49q-12 -19 -26 -31.5t-27 -18.5q-14 -9 -29 -14t-31 -5q-20 0 -36 8.5t-30 21.5q-13 17 -19.5 38.5t-6.5 48.5q1 4 1 8v11q2 6 3 13l2 15v2zM237 778h75q4 -1 8 -1t6 -4q3 -1 7 -6 l9 -10l5 -2q4 -9 8 -15.5t9 -13.5q3 -8 7.5 -14.5t7.5 -15.5q8 -15 15 -26.5t8 -19.5l4 -4q1 -3 2 -5.5t1 -5.5q2 -2 2 -5v-5v-3q0 -1 -2 -2q-2 -2 -3.5 -3t-4.5 -2l-35 -17q0 -2 -1 -2h-3q-1 -1 -3.5 -2t-4.5 -1q-5 0 -9 5t-8 13q-1 0 -1 1v1l-2 7q0 -2 -1 0.5t-2 4.5 l-32 52l-28 44q-21 -21 -37.5 -40.5t-31.5 -34.5t-24 -23t-13 -12h-1q-2 -3 -3.5 -4t-5.5 -4q-1 -3 -3 -5t-5 -2h-1q-1 0 -1 2h-2h-1q-2 0 -2.5 1t-4.5 2l-28 34q0 -2 -1 -1t-1 2v1q-1 1 -1 3v3v3v3q0 2 1 4l1 1l1 1q0 1 2 2l1 1l4 5q5 2 15 11t23 24q13 13 27.5 29t27.5 33 l2 7q1 1 3.5 3t4.5 3q2 2 3.5 3t3.5 1h2h3z" />
<glyph unicode="&#xfc;" horiz-adv-x="454" d="M195 139q-18 -39 -37 -68t-38 -48q-18 -18 -37.5 -26.5t-37.5 -8.5q-8 0 -17.5 2t-17.5 5q-3 2 -6.5 3.5t-6.5 4.5q-4 2 -7 5l-7 9q-8 8 -14 17t-9 18q-3 8 -5 20t-2 23q0 35 7 77.5t22 94.5t32.5 99.5t40.5 91.5q5 10 10 17.5t12 10.5q5 5 12.5 6.5t14.5 1.5 q11 0 20.5 -4t17.5 -12q8 -7 12.5 -17t4.5 -20v-4q0 -1 -2 -3q0 -1 -1 -3t-1 -3q-1 -2 -4.5 -6t-6.5 -8q-25 -52 -44.5 -99.5t-34.5 -90.5q-13 -42 -20.5 -75.5t-7.5 -56.5q0 -12 2.5 -21t3.5 -14q4 -7 9.5 -9.5t14.5 -2.5q17 0 37 22.5t43 67.5t53 116l66 168 q1 15 5.5 27.5t10.5 21.5q9 8 18 12t19 4q12 0 22.5 -4t20.5 -12q10 -9 15 -18t5 -19q0 -2 -5 -13l-13 -29q-43 -90 -65 -167t-22 -140q0 -10 1 -17.5t3 -14.5q3 -7 5.5 -10t4.5 -3q13 0 27 10.5t29 30.5q15 22 33 54l38 75q0 3 0.5 5.5t2.5 4.5q5 13 11.5 19t13.5 6 q3 0 9 -2.5t13 -9.5q8 -5 11.5 -10t3.5 -10t-7 -21.5t-20 -44.5q-13 -27 -28.5 -53t-33.5 -49q-12 -19 -26 -31.5t-27 -18.5q-14 -9 -29 -14t-31 -5q-20 0 -36 8.5t-30 21.5q-13 17 -19.5 38.5t-6.5 48.5q1 4 1 8v11q2 6 3 13l2 15v2zM372 735q10 -2 18.5 -4.5t13.5 -9.5 q7 -5 10.5 -13t3.5 -18q0 -17 -6 -33t-20 -29q-11 -12 -24.5 -19.5t-28.5 -7.5q-7 0 -14.5 3.5t-13.5 10.5q-5 6 -8.5 14.5t-3.5 18.5q0 17 6 32t17 28q12 13 24.5 19t25.5 6v2zM192 735q10 -2 18.5 -4.5t13.5 -9.5q5 -5 7.5 -13t2.5 -18q0 -17 -5 -33t-17 -29 q-12 -12 -25 -19.5t-28 -7.5q-9 0 -15.5 3.5t-13.5 10.5q-5 6 -8 14.5t-3 18.5q0 17 5.5 32t17.5 28t24.5 19t25.5 6v2z" />
<glyph unicode="&#xfd;" horiz-adv-x="395" d="M147 139q-13 -30 -28 -52t-32 -39q-17 -15 -33 -22.5t-29 -7.5q-7 0 -12 2t-10 3q-1 2 -2 3.5t-3 3.5q0 2 -1.5 4.5t-3.5 3.5q-10 9 -16.5 17t-9.5 20q-5 12 -7 24.5t-2 29.5q0 58 11 117.5t31 115.5q23 59 46.5 88t45.5 29q10 0 20 -3t20 -12q5 -3 9 -6.5t6 -6.5 q3 -5 4 -8.5t1 -6.5t-1 -6.5t-2 -6.5q-2 -2 -6 -4.5t-9 -4.5q-22 -42 -38 -84.5t-29 -84.5q-12 -41 -18.5 -73t-6.5 -55q0 -3 0.5 -5.5t2.5 -6.5q2 -1 4.5 -2t3.5 -1q12 0 32 26t52 77q32 52 57.5 109.5t47.5 119.5q0 5 2.5 14.5t4.5 20.5q5 29 19 43t39 14q12 0 22 -1.5 t17 -6.5q8 -5 13 -12t7 -15q3 -2 4 -4.5t2 -5.5q0 -2 1 -3l1 -2q2 -2 2 -4v-3q-2 -5 -3 -9t-4 -7q-2 -4 -7 -7t-10 -7q-45 -82 -76 -175.5t-49 -200.5l-26 -157q-9 -55 -9 -56q-10 -35 -32.5 -64.5t-55.5 -52.5q-17 -12 -34.5 -21t-34.5 -14q-17 -7 -33.5 -9.5t-33.5 -2.5 q-21 0 -39.5 4t-33.5 14q-15 9 -31 24t-33 37q-8 6 -14 13t-11 15q-3 7 -5.5 16t-2.5 17q0 12 2.5 19.5t7.5 12.5q3 5 10.5 6.5t16.5 1.5q10 0 17.5 -11.5t10.5 -34.5q2 -7 3.5 -13t3.5 -12q11 -10 25.5 -17t32.5 -13q17 -5 35.5 -7.5t36.5 -2.5h7h8q3 0 10.5 0.5t16.5 2.5 q20 10 41.5 78.5t45.5 195.5q5 33 10 59t8 46v2zM329 777q3 -2 5.5 -2t4.5 -2q3 -1 4 -3t1 -5v-1v-1h-2v-1v-1l-1 -1q0 -2 -1 -2l-1 -1l-7 -7q-16 -22 -33 -42l-37 -40q-18 -20 -32.5 -33.5t-24.5 -21.5l-6 -7q-5 -5 -9.5 -7.5t-7.5 -3.5q-2 -2 -4.5 -3t-3.5 -1q-2 -1 -4 -1 h-5l-36 1q-4 -1 -6.5 -0.5t-3.5 2.5q-2 2 -3 3.5t-1 3.5v2q0 1 2 3q2 1 2.5 2t2.5 3l5 8q8 5 18 19l24 33q13 18 25 38l23 42l3 8q4 4 6.5 8t5.5 6q3 1 7.5 2t7.5 1z" />
<glyph unicode="&#xfe;" horiz-adv-x="409" d="M89 379l39 51q17 23 31 36q15 13 28 19t25 6q23 0 41 -10t31 -32q13 -21 20.5 -48t7.5 -60q0 -69 -17.5 -132.5t-52.5 -119.5q-35 -57 -71.5 -84t-76.5 -27q-17 0 -31.5 4.5t-27.5 12.5q-12 7 -22 16t-13 21l-28 -137q-14 -62 -24 -114q-10 -50 -15 -82.5t-5 -45.5 q0 -5 2 -10t5 -9q3 -5 5 -7.5t2 -3.5q0 -7 -2.5 -12t-7.5 -10t-12 -7.5t-14 -2.5q-15 0 -26.5 3.5t-19.5 9.5q-9 7 -13 17t-4 23q0 32 15 114t43 212q29 127 65 264.5t79 281.5l41 128q19 57 36 101q15 43 26 69t17 36q4 3 7 6.5t10 5.5q5 3 12.5 4t14.5 1q10 0 19 -3.5 t17 -10.5q9 -6 13 -13t4 -13q0 -2 -3 -6t-9 -9t-11 -11t-9 -14q-11 -22 -28 -61.5t-37 -94.5q-10 -26 -19 -57l-19 -61q-10 -32 -19 -67l-19 -69v2zM18 97q2 -13 7 -21.5t12 -17.5q8 -6 17 -10.5t19 -4.5q19 0 33 7t26 20q12 14 25 37t28 60q12 25 19.5 49t12.5 46 q7 24 9.5 44.5t2.5 40.5q0 14 -2 24t-5 16q-3 7 -8 10.5t-10 3.5q-15 0 -37.5 -22.5t-51.5 -67.5q-28 -44 -52.5 -98t-44.5 -118v2z" />
<glyph unicode="&#xff;" horiz-adv-x="395" d="M147 139q-13 -30 -28 -52t-32 -39q-17 -15 -33 -22.5t-29 -7.5q-7 0 -12 2t-10 3q-1 2 -2 3.5t-3 3.5q0 2 -1.5 4.5t-3.5 3.5q-10 9 -16.5 17t-9.5 20q-5 12 -7 24.5t-2 29.5q0 58 11 117.5t31 115.5q23 59 46.5 88t45.5 29q10 0 20 -3t20 -12q5 -3 9 -6.5t6 -6.5 q3 -5 4 -8.5t1 -6.5t-1 -6.5t-2 -6.5q-2 -2 -6 -4.5t-9 -4.5q-22 -42 -38 -84.5t-29 -84.5q-12 -41 -18.5 -73t-6.5 -55q0 -3 0.5 -5.5t2.5 -6.5q2 -1 4.5 -2t3.5 -1q12 0 32 26t52 77q32 52 57.5 109.5t47.5 119.5q0 5 2.5 14.5t4.5 20.5q5 29 19 43t39 14q12 0 22 -1.5 t17 -6.5q8 -5 13 -12t7 -15q3 -2 4 -4.5t2 -5.5q0 -2 1 -3l1 -2q2 -2 2 -4v-3q-2 -5 -3 -9t-4 -7q-2 -4 -7 -7t-10 -7q-45 -82 -76 -175.5t-49 -200.5l-26 -157q-9 -55 -9 -56q-10 -35 -32.5 -64.5t-55.5 -52.5q-17 -12 -34.5 -21t-34.5 -14q-17 -7 -33.5 -9.5t-33.5 -2.5 q-21 0 -39.5 4t-33.5 14q-15 9 -31 24t-33 37q-8 6 -14 13t-11 15q-3 7 -5.5 16t-2.5 17q0 12 2.5 19.5t7.5 12.5q3 5 10.5 6.5t16.5 1.5q10 0 17.5 -11.5t10.5 -34.5q2 -7 3.5 -13t3.5 -12q11 -10 25.5 -17t32.5 -13q17 -5 35.5 -7.5t36.5 -2.5h7h8q3 0 10.5 0.5t16.5 2.5 q20 10 41.5 78.5t45.5 195.5q5 33 10 59t8 46v2zM312 735q12 -2 19.5 -4.5t14.5 -9.5q5 -5 8 -13t3 -18q0 -17 -5.5 -33t-17.5 -29q-12 -12 -25 -19.5t-30 -7.5q-7 0 -14.5 3.5t-12.5 10.5q-7 6 -9.5 14.5t-2.5 18.5q0 17 5 32t17 28t24.5 19t25.5 6v2zM134 735 q10 -2 17.5 -4.5t12.5 -9.5q5 -5 7.5 -13t2.5 -18q0 -17 -5 -33t-17 -29q-12 -12 -24.5 -19.5t-27.5 -7.5q-8 0 -15.5 3.5t-14.5 10.5q-5 6 -7.5 14.5t-2.5 18.5q0 17 5 32t17 28t25 19t27 6v2z" />
<glyph unicode="&#x102;" />
<glyph unicode="&#x103;" />
<glyph unicode="&#x104;" />
<glyph unicode="&#x105;" />
<glyph unicode="&#x106;" horiz-adv-x="733" d="M611 1007q32 -12 57 -26t43 -32q19 -19 29 -39t10 -43q0 -15 -5 -28.5t-15 -25.5q-10 -11 -21 -17t-23 -6q-11 0 -18.5 4t-12.5 11q-5 8 -10 25.5t-9 44.5q-1 10 -6 18.5t-15 14.5q-10 9 -23 12.5t-28 3.5q-25 0 -53 -12t-58 -35q-30 -22 -62 -56t-65 -78 q-45 -58 -80.5 -123.5t-61.5 -135.5q-27 -72 -40.5 -135t-13.5 -120q0 -42 10 -73.5t30 -55.5q20 -22 47 -33.5t62 -11.5q23 0 46.5 4t50.5 13q25 8 52.5 21.5t57.5 31.5l30 21l40 26q22 17 37 25t23 8h3q1 0 1 -1q1 0 3.5 -2t2.5 -5q4 -2 4.5 -7t0.5 -10q0 -6 -5 -18 t-16 -25q-10 -13 -25.5 -28t-35.5 -32q-31 -25 -63.5 -45t-66.5 -32q-32 -13 -62 -20t-55 -7q-67 0 -121 17t-92 52q-41 35 -61 82.5t-20 107.5q0 54 17.5 120.5t49.5 148.5q34 80 79.5 164.5t102.5 171.5q37 53 69.5 93t60.5 67q31 28 56.5 40.5t47.5 12.5q13 0 27.5 -2.5 t29.5 -8.5q15 -5 31 -13.5t32 -20.5v2zM698 1319q3 -1 6.5 -2t5.5 -3q3 -1 3 -2v-4v-3v-2q-2 -2 -2.5 -3t-2.5 -2l-7 -7q-6 -12 -14.5 -22t-16.5 -18q-10 -10 -18.5 -20t-18.5 -20q-18 -20 -33.5 -34.5t-25.5 -22.5l-6 -7q-2 -1 -3 -3t-2 -2q-2 -1 -3 -1h-1q-1 -2 -3.5 -3.5 t-4.5 -1.5q-3 -2 -7.5 -3t-9.5 -1l-36 2q-4 -2 -6.5 -2t-3.5 2q-2 2 -2 5v3v1q0 1 2 3l2 2q1 1 1 3l5 8q8 7 19 19.5t23 32.5l25 40l25 40l3 8q2 4 5.5 8t6.5 6q2 1 4.5 2t5.5 3h2h3z" />
<glyph unicode="&#x107;" horiz-adv-x="367" d="M215 443l-6 1q-5 -1 -11 -3.5t-13 -6.5l-12 -10q-6 -5 -11 -13q-28 -37 -53 -81t-44 -95q-20 -50 -29 -90.5t-9 -74.5q0 -18 2.5 -32.5t8.5 -24.5q9 -10 19 -12.5t21 -2.5q24 0 46.5 6t44.5 23q23 18 49 43t54 60q14 17 25 34l24 38q11 20 18 30t8 10q4 0 9 -1.5t11 -5.5 q4 -1 5.5 -3.5t3.5 -4.5q1 -3 2 -5t1 -5q0 -7 -3.5 -17.5t-11.5 -25.5q-7 -17 -17 -33.5t-23 -35.5q-25 -37 -52.5 -65t-57.5 -45q-32 -20 -63 -30t-62 -10q-36 0 -62.5 10t-43.5 28q-21 17 -31 44.5t-10 61.5q0 45 12.5 97.5t37.5 112.5q21 58 50.5 104t61.5 78q8 8 17 15 t19 8q9 4 20.5 5.5t23.5 1.5q6 0 12 -1t11 -1q3 -1 5.5 -1t6.5 -2q8 -2 16.5 -7t16.5 -11q14 -2 24.5 -8.5t17.5 -18.5q8 -12 12.5 -26t4.5 -33q0 -28 -7.5 -57t-22.5 -59t-30.5 -45.5t-31.5 -15.5q-9 0 -16.5 3.5t-15.5 10.5q-7 7 -10 14.5t-3 13.5q0 14 4 34.5t14 47.5 q8 28 15 48.5t8 33.5v2zM357 777q4 -2 6.5 -2t3.5 -2q4 -1 4.5 -3t0.5 -5v-1v-1q-1 0 -1 -1l-1 -1l-1 -1q0 -2 -1 -2l-1 -1l-6 -7q-17 -22 -35 -42l-35 -40q-19 -20 -33 -33.5t-24 -21.5l-7 -7q-5 -5 -9 -7.5t-8 -3.5q-1 -2 -3.5 -3t-4.5 -1q-2 -1 -5 -1h-3l-37 1 q-3 -1 -5.5 -0.5t-4.5 2.5t-2.5 3.5t-0.5 3.5v2q0 1 1 3q2 1 3 2t2 3l5 8q9 5 19 18.5t23 33.5q13 18 25 38t23 42l4 8q3 4 5.5 8t6.5 6q3 1 7 2t9 1z" />
<glyph unicode="&#x10c;" horiz-adv-x="733" d="M611 1007q32 -12 57 -26t43 -32q19 -19 29 -39t10 -43q0 -15 -5 -28.5t-15 -25.5q-10 -11 -21 -17t-23 -6q-11 0 -18.5 4t-12.5 11q-5 8 -10 25.5t-9 44.5q-1 10 -6 18.5t-15 14.5q-10 9 -23 12.5t-28 3.5q-25 0 -53 -12t-58 -35q-30 -22 -62 -56t-65 -78 q-45 -58 -80.5 -123.5t-61.5 -135.5q-27 -72 -40.5 -135t-13.5 -120q0 -42 10 -73.5t30 -55.5q20 -22 47 -33.5t62 -11.5q23 0 46.5 4t50.5 13q25 8 52.5 21.5t57.5 31.5l30 21l40 26q22 17 37 25t23 8h3q1 0 1 -1q1 0 3.5 -2t2.5 -5q4 -2 4.5 -7t0.5 -10q0 -6 -5 -18 t-16 -25q-10 -13 -25.5 -28t-35.5 -32q-31 -25 -63.5 -45t-66.5 -32q-32 -13 -62 -20t-55 -7q-67 0 -121 17t-92 52q-41 35 -61 82.5t-20 107.5q0 54 17.5 120.5t49.5 148.5q34 80 79.5 164.5t102.5 171.5q37 53 69.5 93t60.5 67q31 28 56.5 40.5t47.5 12.5q13 0 27.5 -2.5 t29.5 -8.5q15 -5 31 -13.5t32 -20.5v2zM600 1137h-74q-5 -1 -9 -0.5t-8 2.5q-3 3 -7 6.5t-8 10.5l-3 6l-17 26l-16 29q-9 17 -14.5 29t-9.5 18l-3 7v-2q-2 0 -2 1v3q-1 3 -2 6.5t-1 4.5q0 4 1 4.5t1 2.5v2l1 1q0 2 2.5 3t4.5 2l35 19q0 -2 1 -2h2q2 0 3.5 1t3.5 1q0 1 1 1h4 q2 0 3.5 -0.5t3.5 -4.5q1 0 2 -1.5t3 -3.5q0 -1 0.5 -3t2.5 -5l2 -3q1 -5 3.5 -10t6.5 -10q13 -27 27 -48l26 -38l37 41l33 33q14 17 24 26t11 11l4 3q0 -2 0.5 -1t2.5 3q3 3 6.5 5.5t8.5 2.5h1h1v-2h1h1q1 -1 3 -1v-1l1 -1l29 -30q1 -3 2 -4t1 -3q2 -1 2 -2v-3v-3 q0 -3 -2 -5q0 -2 -1 -2.5t-2 -2.5l-3 -3l-1 -1h-1q-5 -3 -15 -12l-24 -24q-6 -9 -13 -16.5t-13 -15.5q-9 -8 -15.5 -15.5t-13.5 -16.5l-1 -1q-2 -5 -4.5 -7.5t-5.5 -6.5q-2 -1 -6 -1h-8z" />
<glyph unicode="&#x10d;" horiz-adv-x="367" d="M215 443l-6 1q-5 -1 -11 -3.5t-13 -6.5l-12 -10q-6 -5 -11 -13q-28 -37 -53 -81t-44 -95q-20 -50 -29 -90.5t-9 -74.5q0 -18 2.5 -32.5t8.5 -24.5q9 -10 19 -12.5t21 -2.5q24 0 46.5 6t44.5 23q23 18 49 43t54 60q14 17 25 34l24 38q11 20 18 30t8 10q4 0 9 -1.5t11 -5.5 q4 -1 5.5 -3.5t3.5 -4.5q1 -3 2 -5t1 -5q0 -7 -3.5 -17.5t-11.5 -25.5q-7 -17 -17 -33.5t-23 -35.5q-25 -37 -52.5 -65t-57.5 -45q-32 -20 -63 -30t-62 -10q-36 0 -62.5 10t-43.5 28q-21 17 -31 44.5t-10 61.5q0 45 12.5 97.5t37.5 112.5q21 58 50.5 104t61.5 78q8 8 17 15 t19 8q9 4 20.5 5.5t23.5 1.5q6 0 12 -1t11 -1q3 -1 5.5 -1t6.5 -2q8 -2 16.5 -7t16.5 -11q14 -2 24.5 -8.5t17.5 -18.5q8 -12 12.5 -26t4.5 -33q0 -28 -7.5 -57t-22.5 -59t-30.5 -45.5t-31.5 -15.5q-9 0 -16.5 3.5t-15.5 10.5q-7 7 -10 14.5t-3 13.5q0 14 4 34.5t14 47.5 q8 28 15 48.5t8 33.5v2zM259 595h-74q-5 -2 -10 -0.5t-8 3.5q-2 3 -6 6.5t-7 10.5l-4 6l-17 26l-18 29l-13 29l-8 18l-4 7v-2q-1 0 -1 1v2q-2 4 -3 7t-1 5v5q0 2 2 4q2 3 3.5 4t4.5 2l35 17v-2l2 2h4q1 0 3 2h2h3h1h2q2 0 2.5 -1t0.5 -3q4 -1 6.5 -4.5t3.5 -8.5l2 -3 q2 -5 4.5 -10.5t5.5 -10.5q13 -26 26.5 -47t26.5 -38l37 41l32 33q15 15 24 25t13 12l3 3v-2l2 2q3 3 6.5 5.5t8.5 2.5h2h3l2 -2l3 -3l26 -28q2 -4 3 -4.5t2 -2.5l1 -1l1 -1v-2v-1q0 -2 -1 -4.5t-2 -5.5l-1 -1q-1 -1 -3 -2q0 -2 -0.5 -3t-2.5 -1h-2q-3 -5 -13 -14t-23 -24 q-15 -15 -28.5 -30t-26.5 -32l-2 -1q-3 -7 -5.5 -9.5t-6.5 -4.5q-1 -1 -4.5 -2t-6.5 -1z" />
<glyph unicode="&#x10e;" />
<glyph unicode="&#x10f;" />
<glyph unicode="&#x110;" />
<glyph unicode="&#x111;" horiz-adv-x="424" d="M227 362q-2 2 -4.5 3.5t-3.5 5.5q-2 1 -4.5 3t-4.5 3q-1 2 -3.5 3t-4.5 1h-4h-4q-10 0 -21 -6t-24 -19l-29 -35q-16 -20 -35 -49q-20 -32 -35 -63.5t-28 -64.5q-12 -32 -17 -60.5t-5 -51.5q0 -7 1.5 -13.5t5.5 -13.5q1 -2 3 -3.5t3 -1.5q4 0 7 -1t7 -1q18 0 40.5 23.5 t51.5 75.5q28 50 55.5 116t52.5 148v1zM172 85q-18 -38 -38 -66.5t-42 -50.5q-22 -23 -41 -33t-38 -10q-16 0 -33 10t-30 30t-20 43.5t-7 53.5q0 38 11 82.5t34 90.5q22 49 49.5 92.5t64.5 81.5q10 9 20 16l17 13q8 5 16.5 7.5t14.5 2.5q10 0 20 -3.5t22 -10.5 q12 -5 23.5 -13.5t24.5 -19.5q0 1 1 4l3 11q6 22 14 42.5t14 42.5q9 20 16.5 41t13.5 42l-43 2q-29 -2 -49 0t-31 5q-12 4 -18.5 9.5t-6.5 14.5q0 8 7.5 14.5t22.5 10.5q15 3 50 6.5t90 4.5q7 14 14.5 34t15.5 45q23 58 40.5 88t33.5 30q13 0 24.5 -2.5t20.5 -7.5 q8 -6 12 -13t4 -15q0 -7 -7.5 -27t-22.5 -53l-19 -45q-9 -20 -17 -35q3 -2 10 -2h13q40 -2 61 -8.5t21 -16.5q0 -12 -5 -19.5t-19 -10.5q-11 -5 -32 -7t-53 -2l-23 2l-58 -164q-27 -76 -46 -143q-18 -65 -28 -112.5t-10 -77.5q0 -9 1.5 -15.5t3.5 -10.5q3 -5 5.5 -6.5 t7.5 -1.5q7 0 15.5 5t18.5 17q11 12 26 32t34 50q3 6 8 13.5t10 17.5q7 14 12.5 19.5t10.5 5.5h3h1q1 -1 4 -1t3 -2q3 -2 4 -4.5t1 -5.5q0 -5 -2.5 -13.5t-6.5 -19.5q-5 -12 -12.5 -27t-17.5 -33q-17 -36 -34.5 -61t-32.5 -40q-15 -11 -31.5 -18.5t-35.5 -7.5 q-16 0 -30.5 6.5t-24.5 18.5q-10 13 -15.5 32t-7.5 45v1z" />
<glyph unicode="&#x118;" />
<glyph unicode="&#x119;" />
<glyph unicode="&#x11a;" />
<glyph unicode="&#x11b;" />
<glyph unicode="&#x11e;" horiz-adv-x="771" d="M606 327v-1l-1 1h-1h-1q-12 2 -22 3t-17 1q-16 0 -44.5 -3.5t-66.5 -11.5q-37 -7 -64.5 -10.5t-46.5 -3.5q-18 0 -33 4.5t-25 10.5q-10 9 -15 19.5t-5 22.5q0 5 6 11t19 12q12 7 30 13t43 11q50 12 104.5 17t114.5 5q39 0 64 -5t36 -17q14 -10 20.5 -29.5t6.5 -47.5 q0 -15 -10 -37.5t-28 -52.5q-20 -32 -46 -62t-58 -60q-37 -37 -75 -63.5t-77 -45.5q-37 -15 -76 -24t-81 -9q-15 0 -29 2.5t-28 5.5l-28 9l-30 11q-45 24 -75 44.5t-44 37.5q-15 19 -20 43t-5 52q0 55 10 119.5t35 136.5q25 73 58 141.5t74 135.5q44 64 91.5 120.5 t100.5 103.5q54 47 90.5 70t58.5 23q8 0 19 -4t23 -12q13 -7 32.5 -21t40.5 -33q27 -15 49.5 -35t42.5 -47q20 -26 30 -46t10 -34q0 -5 -2.5 -10t-5.5 -10q-2 -3 -4.5 -5.5t-4.5 -2.5q-3 -2 -4.5 -2.5t-5.5 -0.5q-6 0 -22 17.5t-39 48.5q-22 34 -44.5 50.5t-42.5 16.5 q-17 0 -39.5 -7.5t-47.5 -24.5q-25 -15 -50 -35t-50 -45q-22 -21 -43 -45.5t-39 -49.5q-18 -23 -35 -50l-37 -55q-32 -57 -57.5 -111t-44.5 -106q-16 -52 -25.5 -98t-9.5 -89q0 -32 6 -56t18 -39q11 -16 29.5 -22.5t45.5 -6.5q28 0 55.5 4t56.5 14q26 9 54.5 22.5t55.5 31.5 q55 37 99 85.5t76 108.5v1zM720 1311h47q3 -2 4.5 -2.5t1.5 -2.5q2 0 2 -4v-6q0 -28 -12.5 -53.5t-39.5 -48.5q-27 -22 -57.5 -32.5t-69.5 -10.5q-27 0 -50 8t-42 25q-16 18 -24.5 40t-8.5 49v17q0 8 2 11l6 5q2 3 5 3l47 2q5 -2 9 -12t8 -28q3 -20 17 -29.5t40 -9.5 q30 0 52.5 9.5t33.5 29.5q14 18 20.5 28t8.5 10v2z" />
<glyph unicode="&#x11f;" horiz-adv-x="409" d="M-30 55q2 -12 4.5 -19.5t5.5 -12.5q5 -5 10 -7.5t10 -2.5t9 1t8 3q3 3 7 5.5t9 7.5q9 8 19.5 20.5t22.5 29.5l55 84q25 40 44 78q18 39 27 66.5t9 43.5q0 10 -1.5 17t-6.5 12t-12.5 7.5t-15.5 2.5q-10 0 -24.5 -9.5t-32.5 -29.5q-17 -18 -36 -45.5t-41 -62.5 q-17 -27 -28.5 -54.5t-19.5 -54.5q-10 -26 -15 -47t-5 -35zM160 105q-28 -40 -50.5 -67.5t-41.5 -39.5q-16 -15 -33.5 -23t-34.5 -8t-33.5 8t-29.5 23q-14 12 -20 33t-6 46q0 35 9.5 75t27.5 85q17 45 39.5 87t49.5 78q18 22 32.5 36.5t24.5 20.5q11 9 23 12t23 3 q10 0 22 -3t23 -10q12 -7 25.5 -16t29.5 -22q12 3 19.5 4t11.5 2h7h4q14 0 24.5 -2.5t19.5 -10.5q8 -7 12 -16t4 -19q0 -4 -3 -13t-12 -24q-31 -70 -57 -150t-48 -171q-5 -21 -12.5 -56t-15.5 -86q-10 -48 -18.5 -82t-16.5 -51q-12 -25 -30.5 -44.5t-46.5 -32.5 q-27 -13 -58.5 -20t-65.5 -7q-33 0 -58 5t-45 15t-29.5 22.5t-9.5 29.5q0 7 2 12.5t5 9.5q3 5 7.5 7.5t9.5 2.5t8 -2.5t7 -6.5q1 -1 3 -3.5t3 -4.5q2 -3 3.5 -6.5t3.5 -6.5q5 -2 10 -3.5t8 -3.5q5 -2 10 -2.5t10 -2.5q9 -2 19 -2.5t20 -0.5q22 0 40 3t33 10q17 7 30.5 16 t24.5 23q9 16 17.5 43.5t16.5 62.5l22 95l31 148v1zM336 768h46q4 -1 5.5 -1t1.5 -2q2 -2 2 -5v-5q0 -29 -12.5 -54t-39.5 -48q-27 -22 -58 -32.5t-69 -10.5q-27 0 -50 8t-42 25q-16 17 -24.5 38.5t-8.5 48.5v19q0 8 2 11q3 3 5.5 5t5.5 2l47 1q5 -1 9 -10.5t8 -29.5 q3 -18 17 -27.5t39 -9.5q30 0 53 9.5t34 27.5l21 29q6 10 8 10v1z" />
<glyph unicode="&#x130;" horiz-adv-x="382" d="M129 45v-12v-4v-1v-4q0 -2 1 -4v-5v-3q0 -7 -3 -10.5t-8 -6.5t-12.5 -5t-17.5 -2q-22 0 -38 2.5t-26 9.5t-16 17t-6 23q0 18 15 76.5t44 159.5l65 220l85 267q3 5 5.5 15t7.5 22q39 118 75 178.5t71 60.5q8 0 18 -5t22 -15q7 -5 11 -10l7 -9q4 -5 5.5 -10t1.5 -10 q0 -1 -6 -18t-19 -47q-85 -200 -155.5 -418t-126.5 -454v2zM409 1286q12 -2 20.5 -5t14.5 -10q5 -7 7.5 -16t2.5 -23q0 -16 -5 -32t-16 -29q-12 -14 -24.5 -20.5t-26.5 -6.5q-11 0 -19.5 4t-15.5 11q-6 8 -10.5 17.5t-4.5 20.5q0 15 7 30t18 29q14 13 26.5 20.5t25.5 7.5v2z " />
<glyph unicode="&#x131;" horiz-adv-x="248" d="M45 -13q-22 0 -37.5 8t-27.5 25q-13 18 -19 43.5t-6 56.5q0 37 6 79.5t17 89.5l13 43l11 37q5 17 10.5 29.5t12.5 20.5q5 9 12.5 14.5t17.5 10.5q12 5 23.5 7t25.5 2q6 0 12 -2t9 -5q5 -2 7.5 -7t2.5 -13q0 -2 -3 -11l-8 -23q-5 -10 -7.5 -18t-6.5 -15l-10 -28 q-35 -97 -51.5 -156.5t-16.5 -82.5q0 -10 1.5 -17t4.5 -12q4 -5 9.5 -6.5t12.5 -1.5q10 0 25 10t35 30t40 47.5t40 59.5q4 3 6.5 10t7.5 15q6 13 11 20t10 7t10 -2.5t11 -6.5q5 -5 7.5 -10.5t2.5 -12.5q0 -2 -8 -16l-21 -37q-7 -12 -13.5 -21t-9.5 -16q-22 -42 -44.5 -70.5 t-40.5 -44.5q-20 -17 -40.5 -23.5t-43.5 -6.5z" />
<glyph unicode="&#x139;" />
<glyph unicode="&#x13a;" />
<glyph unicode="&#x13d;" />
<glyph unicode="&#x13e;" />
<glyph unicode="&#x13f;" />
<glyph unicode="&#x140;" />
<glyph unicode="&#x141;" horiz-adv-x="611" d="M132 100q47 7 92 15q45 7 87 12q41 5 79.5 7.5t73.5 2.5q24 0 39.5 -2.5t25.5 -7.5q10 -7 15 -15t5 -20t-14 -20.5t-42 -11.5l-27 -3q-12 -2 -20 -2q-59 -8 -119.5 -20t-124.5 -27q-62 -11 -97 -18.5t-42 -7.5q-15 0 -25 5t-18 13q-7 7 -10 21t-3 34q0 13 5.5 40t15.5 69 q10 41 25 94l32 114l-10 -3q-32 -18 -51 -25.5t-24 -7.5t-12.5 4t-15.5 11q-9 8 -13 14.5t-4 13.5t8.5 16t26.5 19q15 10 46.5 25t77.5 35l38 122l87 276q33 98 45 120q5 8 11 13t12 7q7 3 15.5 5t19.5 2q24 0 43 -2.5t34 -9.5q15 -5 22.5 -12.5t7.5 -17.5q0 -7 -5.5 -19.5 t-19.5 -30.5l-1 -2l-31 -68l-35 -85l-41 -109l-50 -139q28 14 51.5 22t41.5 13t35.5 7.5t31.5 2.5q10 0 18.5 -2.5t14.5 -5.5q5 -5 8.5 -11.5t3.5 -15.5q0 -6 -23.5 -18.5t-68.5 -31.5q-45 -16 -84 -32l-68 -29q-17 -42 -30 -83l-27 -83l-21 -81l-17 -77v1z" />
<glyph unicode="&#x142;" horiz-adv-x="332" d="M249 949v2v3v2v1q-2 2 -2 4v3q0 3 1 6.5t2 6.5q4 7 10.5 14.5t16.5 12.5q14 10 29 14t31 4q9 0 14.5 -1t9.5 -4q3 -3 5.5 -8t2.5 -12t-16 -48t-49 -116q-32 -76 -61 -153t-54 -156q13 5 29 12l36 15q28 12 44 17.5t18 5.5q3 0 5.5 -1.5t4.5 -4.5q3 -2 4 -6t1 -8 q0 -18 -20 -34.5t-59 -31.5l-46 -18q-21 -9 -37 -17q-19 -56 -33 -106.5t-24 -94.5q-8 -43 -13 -75.5t-5 -56.5q0 -21 2.5 -38t8.5 -29q5 -11 13.5 -16t20.5 -5q11 0 23.5 6.5t26.5 19.5q13 14 29.5 36.5t35.5 54.5l5 9l7 9q5 8 10.5 19t12.5 23q8 18 15 25.5t8 7.5 q5 0 11 -2.5t13 -9.5q8 -5 10.5 -10t2.5 -10v-3q0 -2 -1 -2l-1 -1q0 -2 -0.5 -3t-0.5 -2l-42 -79q-18 -33 -30 -52q-3 -6 -7.5 -12t-7.5 -11l-17 -19q-7 -9 -13 -18q-14 -10 -27 -18l-23 -15q-12 -5 -25.5 -7.5t-26.5 -2.5q-22 0 -43 10t-39 30q-18 23 -28 48t-10 52 q0 34 5 69t11 73q9 39 21.5 82t28.5 90q-10 -1 -22 -7l-24 -11q-19 -9 -29.5 -13t-17.5 -4q-2 0 -2.5 1t-2.5 2q-2 4 -2.5 6.5t-2.5 7.5q0 23 16 40t47 28q10 4 18.5 6.5t16.5 5.5q9 2 16.5 5t14.5 5l28 98q15 51 33 106l40 119q22 63 49 133v2z" />
<glyph unicode="&#x143;" />
<glyph unicode="&#x144;" />
<glyph unicode="&#x147;" />
<glyph unicode="&#x148;" />
<glyph unicode="&#x150;" />
<glyph unicode="&#x151;" />
<glyph unicode="&#x152;" horiz-adv-x="1356" d="M807 337l-22 -75l-18 -62q-9 -28 -15.5 -53t-13.5 -45q89 12 158 19l118 13q48 5 82.5 7.5t50.5 2.5q22 0 37 -2t25 -5t15 -10t5 -15q0 -15 -18.5 -26t-53.5 -16q-6 -2 -13 -2.5t-12 -0.5q-55 -10 -119 -25l-138 -32q-72 -17 -117 -26t-63 -9q-15 0 -27.5 6t-24.5 19 q-12 12 -17 27t-5 33q0 7 1 14.5t3 17.5q1 10 3.5 21.5t4.5 26.5q-23 -41 -54 -74t-68 -56q-37 -22 -76 -32.5t-81 -10.5q-30 0 -62.5 6.5t-69.5 19.5q-37 12 -65 28t-47 34q-20 18 -35 41.5t-27 53.5q-10 29 -15 62t-5 70q0 54 11 111.5t33 117.5q23 60 55.5 120t76.5 121 q46 65 94.5 117.5t100.5 94.5q52 40 93 60t72 20q14 0 27.5 -2.5t24.5 -9.5q14 -5 27 -16t30 -24q35 -7 62.5 -17.5t46.5 -29.5q20 -16 33 -40.5t20 -56.5l2 15q15 77 56 116.5t107 39.5q44 0 99 -4.5t120 -12.5q65 -7 107.5 -12t62.5 -5q5 0 10 -0.5t9 -4.5q3 -1 5.5 -5.5 t2.5 -7.5q0 -22 -51 -36t-151 -23q-37 -1 -71 -4.5t-64 -5.5l-57 -6q-28 -2 -52 -5l-10 -28l-10 -29q-10 -28 -19 -61t-21 -69q-17 -54 -35 -118l-38 -136q53 5 100.5 9t87.5 6q39 3 74 4t67 1q21 0 36 -1.5t25 -6.5q10 -4 15 -11.5t5 -17.5q0 -11 -2.5 -19.5t-7.5 -15.5 q-3 -5 -10.5 -8.5t-17.5 -4.5q-32 -2 -72.5 -5.5t-89.5 -8.5q-47 -5 -107 -13l-133 -18v1zM142 257q0 -48 12.5 -85.5t34.5 -64.5q23 -27 55.5 -40.5t74.5 -13.5t82 14.5t80 41.5q40 28 76 66.5t68 90.5q31 50 56 108.5t45 124.5q20 67 29.5 128t9.5 116q0 47 -7.5 81 t-26.5 58q-16 23 -41 35.5t-59 12.5q-18 0 -39 -4t-41 -13l-20 -10q-10 -5 -20 -11q-32 -17 -62.5 -45.5t-64.5 -64.5q-57 -67 -101 -135.5t-76 -137.5q-32 -68 -48.5 -131.5t-16.5 -121.5v1z" />
<glyph unicode="&#x153;" horiz-adv-x="571" d="M27 78q0 -13 1.5 -23t6.5 -17q3 -6 10 -8.5t17 -2.5q22 0 44.5 24t48.5 71q25 48 37.5 93.5t12.5 90.5q0 10 -2.5 18t-5.5 15q-5 7 -10 9.5t-13 2.5q-20 0 -43.5 -22.5t-50.5 -71.5q-27 -47 -40 -92t-13 -88v1zM334 237q13 -2 26.5 12.5t26.5 44.5q7 15 12 30t8 30 q4 13 5.5 28t1.5 30q0 2 -1 4.5t-1 4.5q-1 2 -2 4.5t-3 3.5q-1 2 -2 3t-3 2q-1 2 -3.5 3t-6.5 1q-11 0 -24.5 -15.5t-31.5 -43.5q-17 -30 -25.5 -53.5t-8.5 -41.5q0 -12 2 -20t7 -15q3 -7 9.5 -10.5t13.5 -3.5v2zM276 209q-2 -9 -3 -17q-2 -7 -4 -15q-2 -3 -2 -6.5t-1 -6.5 q-2 -12 -2 -23v-24q0 -22 3.5 -39.5t9.5 -30.5q7 -12 16 -18t21 -6q23 0 50 14.5t59 42.5q31 29 58.5 64.5t49.5 79.5q3 3 5.5 9t6.5 12q8 17 14 25.5t11 8.5t9 -1.5t7 -6.5q4 -5 5.5 -10t1.5 -14q0 -7 -4 -21t-14 -32q-10 -19 -22.5 -39t-29.5 -41q-30 -39 -58.5 -66.5 t-55.5 -45.5q-26 -14 -55.5 -22t-62.5 -8q-17 0 -30.5 4t-26.5 12q-12 7 -22 17t-18 27q-22 -24 -39.5 -39t-32.5 -21q-15 -9 -32.5 -13t-37.5 -4q-27 0 -47.5 8.5t-37.5 26.5q-17 17 -24.5 41t-7.5 56q0 28 7 60.5t20 71.5q12 38 29.5 75t38.5 72q14 20 26.5 35t23.5 25 q14 10 26.5 15t24.5 5q8 0 14.5 -2.5t13.5 -5.5q7 -4 12 -9t8 -13h1q1 0 2 2h7q3 0 7 1h7h6q7 0 12.5 -0.5t10.5 -4.5q7 -3 13 -7.5t11 -12.5q17 39 32 67t30 45q15 18 31.5 26.5t33.5 8.5q3 0 6.5 -1t6.5 -1q2 -1 3.5 -1t3.5 -2q6 -2 12 -5t11 -8q5 -2 13 -4l17 -3 q24 -7 36.5 -22t12.5 -38q0 -50 -14.5 -97t-44.5 -90q-28 -42 -58 -64.5t-62 -22.5q-7 0 -12.5 2.5t-12.5 4.5q-7 3 -12.5 7t-10.5 11v2z" />
<glyph unicode="&#x154;" />
<glyph unicode="&#x155;" />
<glyph unicode="&#x158;" />
<glyph unicode="&#x159;" />
<glyph unicode="&#x15a;" />
<glyph unicode="&#x15b;" />
<glyph unicode="&#x15e;" horiz-adv-x="666" d="M635 925q36 -23 59.5 -41.5t35.5 -31.5q11 -12 17 -26t6 -29q0 -9 -5 -16.5t-15 -13.5q-5 -4 -10 -6.5t-8 -3.5q-5 -2 -10 -3t-10 -1t-12.5 2.5t-14.5 7.5q-3 2 -6.5 6t-6.5 8q-12 13 -22 29t-18 36q-2 1 -3 3.5t-1 4.5q-6 20 -19.5 31t-32.5 11q-21 0 -43.5 -8.5 t-47.5 -26.5q-25 -17 -49.5 -41t-47.5 -56q-25 -32 -43.5 -65.5t-31.5 -68.5q-12 -35 -18.5 -69t-6.5 -68q0 -26 8 -55.5t25 -61.5q18 -31 41.5 -61t55.5 -59q6 -7 16 -15l24 -18q37 -30 55 -57t18 -50q0 -28 -15.5 -54t-49.5 -46q-31 -19 -72 -29.5t-90 -10.5 q-65 0 -124 20t-113 58q-50 42 -76.5 82t-26.5 78q0 9 2 14l6 13q2 3 3.5 6.5t4.5 6.5q9 9 18 14t19 5q5 0 11 -7.5t12 -22.5q4 -7 6.5 -13.5t3.5 -10.5q19 -35 42.5 -61.5t54.5 -44.5q32 -17 68.5 -27t78.5 -10q22 0 39.5 5t29.5 12q13 8 21.5 19.5t13.5 28.5 q-5 18 -14.5 35.5t-24.5 36.5q-15 20 -38 43.5t-55 51.5q-35 30 -57.5 57.5t-34.5 50.5q-12 24 -17 51.5t-5 59.5q0 43 10 86.5t30 90.5q20 46 50.5 94t68.5 96q28 34 54 59.5t49 44.5q24 18 44 28t35 10l2 -1l6 -2q4 -2 7 -3t5 -1l5 2q18 -2 35 -7t28 -13q14 -10 31.5 -30 t39.5 -53v1zM190 0h54l-29 -95h17q25 0 44.5 -7t32.5 -18q13 -12 20 -30.5t7 -41.5t-9.5 -42.5t-27.5 -32.5q-17 -14 -41 -20.5t-56 -6.5q-27 0 -51 2.5t-46 9.5q-21 5 -32 10.5t-11 14.5v5v3l10 25h1v2q2 3 4.5 5t6.5 2l9 -4q9 -3 27 -8q19 -5 37 -8.5t37 -3.5q13 0 24 3.5 t21 11.5q8 7 13 16t5 21t-4 20t-13 17q-6 6 -18.5 8.5t-27.5 2.5h-6h-9h-10h-7h-5q-2 0 -3 2l-1 1l-1 1v1v6v4q0 2 1 3l1 1q0 1 0.5 2t0.5 3z" />
<glyph unicode="&#x15f;" horiz-adv-x="277" d="M-50 70q7 -3 11 -5.5t9 -6.5q10 -3 19 -7t16 -8l31 -10l32 -10q0 10 -4 33.5t-12 58.5q-7 35 -12 65t-8 55l-16 -38l-16 -42q-8 -20 -20 -41l-28 -46zM-89 13q-1 -3 -4.5 -5.5t-8.5 -5.5q-13 -7 -22.5 -11t-12.5 -4q-7 0 -11 2.5t-6 5.5q-3 3 -4 10.5t-1 19.5 q0 2 4.5 7.5t12.5 17.5q72 100 121 216t78 248v5v4v3q0 2 1 3v1v1q0 12 2.5 19.5t7.5 13.5q4 7 11.5 10.5t15.5 3.5q10 0 22.5 -5t27.5 -14q15 -10 22.5 -17.5t7.5 -13.5l-1 -2q0 -3 -4 -7q-33 -41 -49.5 -92t-16.5 -113q0 -30 6.5 -68.5t18.5 -86.5q13 -47 19 -79.5 t6 -51.5q0 -21 -6 -39.5t-19 -35.5q-12 -16 -25.5 -23.5t-28.5 -7.5q-12 0 -32.5 10t-45.5 31q-29 20 -49 32t-35 17zM-8 0h51l-28 -95h17q25 0 44 -7t33 -18q13 -12 19.5 -30.5t6.5 -41.5t-9 -42.5t-27 -32.5q-17 -14 -41.5 -20.5t-57.5 -6.5q-23 0 -46.5 2.5t-45.5 9.5 q-23 5 -34 10.5t-11 14.5l-2 5v3l12 25h2h1v2q2 3 4.5 5t5.5 2l8 -3q9 -4 28 -9q18 -5 37 -8.5t38 -3.5q10 0 20.5 3.5t20.5 11.5q9 7 14 16t5 21t-4.5 20t-12.5 17q-8 6 -20 8.5t-23 2.5h-7h-8h-10h-7h-5q-2 0 -3 2l-1 1l-1 1v1v7v3q0 2 1 3l1 1q0 1 0.5 2t0.5 3z" />
<glyph unicode="&#x160;" horiz-adv-x="666" d="M635 925q36 -23 59.5 -41.5t35.5 -31.5q11 -12 17 -26t6 -29q0 -9 -5 -16.5t-15 -13.5q-5 -4 -10 -6.5t-8 -3.5q-5 -2 -10 -3t-10 -1t-12.5 2.5t-14.5 7.5q-3 2 -6.5 6t-6.5 8q-12 13 -22 29t-18 36q-2 1 -3 3.5t-1 4.5q-6 20 -19.5 31t-32.5 11q-21 0 -43.5 -8.5 t-47.5 -26.5q-25 -17 -49.5 -41t-47.5 -56q-25 -32 -43.5 -65.5t-31.5 -68.5q-12 -35 -18.5 -69t-6.5 -68q0 -26 8 -55.5t25 -61.5q18 -31 41.5 -61t55.5 -59q6 -7 16 -15l24 -18q37 -30 55 -57t18 -50q0 -28 -15.5 -54t-49.5 -46q-31 -19 -72 -29.5t-90 -10.5 q-65 0 -124 20t-113 58q-50 42 -76.5 82t-26.5 78q0 9 2 14l6 13q2 3 3.5 6.5t4.5 6.5q9 9 18 14t19 5q5 0 11 -7.5t12 -22.5q4 -7 6.5 -13.5t3.5 -10.5q19 -35 42.5 -61.5t54.5 -44.5q32 -17 68.5 -27t78.5 -10q22 0 39.5 5t29.5 12q13 8 21.5 19.5t13.5 28.5 q-5 18 -14.5 35.5t-24.5 36.5q-15 20 -38 43.5t-55 51.5q-35 30 -57.5 57.5t-34.5 50.5q-12 24 -17 51.5t-5 59.5q0 43 10 86.5t30 90.5q20 46 50.5 94t68.5 96q28 34 54 59.5t49 44.5q24 18 44 28t35 10l2 -1l6 -2q4 -2 7 -3t5 -1l5 2q18 -2 35 -7t28 -13q14 -10 31.5 -30 t39.5 -53v1zM566 1137h-73q-5 -1 -9.5 -0.5t-7.5 2.5q-3 3 -7.5 6.5t-7.5 10.5l-3 6q-9 12 -17 26l-17 29l-14 29l-9 18l-4 7v-2q-1 0 -1 1v3q-2 3 -3 6.5t-1 4.5q0 4 1 4.5t1 2.5t1 2l1 1q0 2 2.5 3t3.5 2l36 19v-2h3q3 2 5.5 2.5t4.5 0.5h2q1 0 3 -1l1 -1q1 -1 2 -3 q2 0 3 -1.5t2 -3.5q0 -1 1 -3t3 -5l1 -3q2 -5 4.5 -10t5.5 -10q14 -27 28 -48l26 -38l37 40l33 34q13 17 23 26t12 11l3 3q0 -2 1 -1l3 3q3 3 6.5 5.5t8.5 2.5h1q0 -2 1 -2h1l1 -1h2l1 -1l1 -1l28 -30q2 -3 3 -4t1 -3q1 -1 1 -2v-3v-4q0 -2 -1 -4q0 -2 -1 -2.5t-3 -2.5 q-1 -2 -2 -3l-1 -1h-2q-5 -3 -14 -12l-24 -24q-7 -9 -14 -17l-13 -15q-8 -8 -14.5 -15.5t-13.5 -16.5l-2 -1q-1 -5 -4 -8l-6 -6q-2 -1 -6 -1h-7z" />
<glyph unicode="&#x161;" horiz-adv-x="277" d="M-50 70q7 -3 11 -5.5t9 -6.5q10 -3 19 -7t16 -8l31 -10l32 -10q0 10 -4 33.5t-12 58.5q-7 35 -12 65t-8 55l-16 -38l-16 -42q-8 -20 -20 -41l-28 -46zM-89 13q-1 -3 -4.5 -5.5t-8.5 -5.5q-13 -7 -22.5 -11t-12.5 -4q-7 0 -11 2.5t-6 5.5q-3 3 -4 10.5t-1 19.5 q0 2 4.5 7.5t12.5 17.5q72 100 121 216t78 248v5v4v3q0 2 1 3v1v1q0 12 2.5 19.5t7.5 13.5q4 7 11.5 10.5t15.5 3.5q10 0 22.5 -5t27.5 -14q15 -10 22.5 -17.5t7.5 -13.5l-1 -2q0 -3 -4 -7q-33 -41 -49.5 -92t-16.5 -113q0 -30 6.5 -68.5t18.5 -86.5q13 -47 19 -79.5 t6 -51.5q0 -21 -6 -39.5t-19 -35.5q-12 -16 -25.5 -23.5t-28.5 -7.5q-12 0 -32.5 10t-45.5 31q-29 20 -49 32t-35 17zM172 595h-73q-7 -2 -11 -0.5t-8 3.5l-6 7q-4 3 -7 10l-4 6q-6 7 -12 16t-11 19q-3 5 -5.5 10t-6.5 10q-8 17 -14 28.5t-9 18.5l-3 7v-2q-2 0 -2 1v2v7v5v5 v4q2 3 3.5 4t3.5 2l35 17v-2l1 2h1h1h3q2 0 4 2h1h4h3q2 0 3 -4q2 0 3 -1.5t2 -3.5q0 -1 1 -3t3 -5l1 -3q2 -5 4.5 -10.5t6.5 -10.5q13 -26 27 -47t28 -38l35 41l33 33q15 15 24 25t11 12l3 3q0 -2 1 -2t3 2q3 3 6.5 5.5t8.5 2.5h2h3q2 -1 2.5 -2t2.5 -3l27 -28q1 -4 2 -4.5 t3 -2.5v-1v-1q0 -1 1 -1v-1v-1q0 -2 -0.5 -4.5t-2.5 -5.5l-1 -1l-2 -2q0 -2 -1 -3t-3 -1h-1l-15 -14q-9 -9 -22 -24q-15 -15 -28.5 -30t-26.5 -32l-2 -1q-3 -7 -5.5 -9.5t-6.5 -4.5q-1 -1 -5.5 -2t-7.5 -1z" />
<glyph unicode="&#x162;" />
<glyph unicode="&#x163;" />
<glyph unicode="&#x164;" />
<glyph unicode="&#x165;" />
<glyph unicode="&#x16e;" />
<glyph unicode="&#x16f;" />
<glyph unicode="&#x170;" />
<glyph unicode="&#x171;" />
<glyph unicode="&#x178;" horiz-adv-x="657" d="M337 518l157 230q72 104 136 181q63 78 104 116.5t59 38.5q9 0 16.5 -3.5t12.5 -10.5q6 -6 9.5 -15.5t3.5 -17.5q0 -5 -25 -37l-75 -97l-95 -119l-87 -116q-7 -7 -16 -19.5t-21 -27.5q-55 -70 -94.5 -136t-62.5 -128q-22 -56 -41 -122t-36 -140q-15 -57 -31 -85t-34 -28 q-13 0 -25.5 5.5t-24.5 14.5q-10 11 -16 24.5t-6 30.5q0 15 7.5 50t21.5 88q15 54 34 114l41 127q-20 87 -36 163.5t-28 143.5q-11 67 -16 117t-5 84q0 16 4 28.5t11 19.5q8 8 20.5 12.5t29.5 4.5q28 0 47.5 -54.5t29.5 -162.5q8 -82 15.5 -151.5t15.5 -124.5v2zM645 1278 q10 -2 18 -5.5t15 -8.5q5 -6 8.5 -14.5t3.5 -18.5q0 -17 -6 -33t-19 -29q-12 -12 -25.5 -18.5t-28.5 -6.5q-6 0 -13.5 2.5t-14.5 9.5q-5 8 -8.5 15.5t-3.5 17.5q0 17 6 32t18 28q11 14 23.5 20.5t26.5 6.5v2zM464 1278q10 -2 18.5 -5.5t13.5 -8.5q5 -6 7.5 -14.5t2.5 -18.5 q0 -17 -5 -33t-17 -29q-11 -12 -24.5 -18.5t-28.5 -6.5q-8 0 -15 2.5t-14 9.5q-5 8 -8 15.5t-3 17.5q0 17 5.5 32t17.5 28q12 14 24.5 20.5t25.5 6.5v2z" />
<glyph unicode="&#x179;" />
<glyph unicode="&#x17a;" />
<glyph unicode="&#x17b;" />
<glyph unicode="&#x17c;" />
<glyph unicode="&#x17d;" horiz-adv-x="739" d="M127 94l88 12q44 6 86 11q43 3 83 5.5t77 2.5q23 0 38 -4t25 -12q10 -7 15 -19.5t5 -29.5q0 -12 -3 -19.5t-12 -10.5q-6 -5 -20.5 -7.5t-35.5 -2.5q-44 -2 -95 -7t-109 -13q-57 -5 -123 -16l-139 -24q-12 10 -22 20t-17 20q-8 8 -10.5 18t-2.5 20q0 25 30 74.5t92 121.5 v3l251 281l163 177q60 63 111 111.5t93 83.5q-127 -7 -247.5 -26t-235.5 -47q-18 -5 -28 -7.5t-14 -2.5q-6 0 -15.5 5t-17.5 13t-13 17.5t-5 15.5q0 4 1.5 8t4.5 6q4 3 8 6.5t11 4.5q63 29 135 52.5t154 39.5q81 19 158 26.5t149 7.5q22 0 42 -4.5t36 -14.5q19 -8 28 -18 t9 -22q0 -16 -10 -32t-28 -30q-10 -6 -17 -13l-13 -12l-181 -187l-173 -195q-86 -97 -162 -194.5t-144 -194.5v2zM603 1137h-74q-5 -1 -9 -0.5t-7 2.5q-4 3 -8 6.5t-7 10.5l-4 6l-17 26l-16 29l-14 29l-9 18l-4 7v-2q-1 0 -1 1v3q-2 3 -3 6.5t-1 4.5q0 4 1 4.5t1 2.5t1 2 l1 1q0 2 2.5 3t3.5 2l35 19q0 -2 1 -2h3q3 2 5.5 2.5t4.5 0.5h2q1 0 3 -1v-1l3 -3q2 -1 4.5 -4.5t3.5 -8.5l2 -3q2 -5 4.5 -10t5.5 -10q13 -27 27 -48l26 -38l38 40l33 34q13 17 23 26t12 11l3 3q0 -2 1 -1t2 3q4 3 7 5.5t7 2.5h3q0 -2 1 -2h1v-1h3l1 -1l1 -1l28 -30 q2 -3 2.5 -4t0.5 -3q2 -1 2 -2v-3v-4q0 -2 -2 -4q0 -2 -1 -3l-2 -2l-3 -3v-1h-2q-5 -3 -14 -12l-24 -24q-7 -9 -14 -17l-13 -15l-15 -16q-7 -7 -13 -16l-2 -1q-2 -5 -4.5 -7.5t-5.5 -6.5q-2 -1 -6 -1h-7z" />
<glyph unicode="&#x17e;" horiz-adv-x="454" d="M78 80q16 2 36 5.5t46 8.5q30 5 50 8t27 3q13 0 25 -2.5t20 -8.5q9 -5 14 -13.5t5 -17.5q0 -6 -1 -9.5t-4 -6.5q-2 -2 -6 -4.5t-13 -4.5q-21 -1 -53 -10.5t-72 -24.5l-67 -19q-27 -7 -42 -7t-29 6.5t-26 18.5q-13 13 -19.5 25.5t-6.5 24.5q0 13 23 45t70 82 q49 51 119 116l160 148q-30 -2 -62 -6l-70 -9q-37 -5 -57.5 -8.5t-29.5 -3.5q-6 0 -12 4t-11 11q-7 7 -9.5 15t-5.5 20q48 17 91.5 28.5t80.5 18.5q38 6 70.5 9.5t61.5 3.5q13 0 25.5 -4t22.5 -13q4 -3 6.5 -6.5t5.5 -6.5q5 -7 7.5 -12.5t2.5 -14.5q0 -13 -34.5 -52.5 t-102.5 -102.5l-128 -124q-59 -58 -108 -112v2zM261 595h-74q-5 -2 -10 -0.5t-8 3.5q-2 3 -6 6.5t-8 10.5l-3 6l-18 26q-9 14 -17 29l-13 29q-5 11 -9 18l-3 7v-2q-2 0 -2 1v2q-1 4 -2 7t-1 5v5q0 2 2 4q1 3 3 4t5 2l35 17v-2l2 2h3q2 0 3 2h2h3h1h3q1 0 2 -1t1 -3 q3 -1 5.5 -4.5t4.5 -8.5l2 -3q1 -5 3.5 -10.5t6.5 -10.5q13 -26 26.5 -47t26.5 -38q18 22 36 41l33 33q15 15 24 25t12 12l4 3v-2l1 2q4 3 7 5.5t8 2.5h3h2q2 -1 3 -2t2 -3l27 -28q2 -4 3 -4l2 -3v-1v-1q0 -1 2 -1v-1v-1q0 -2 -1 -4.5t-3 -5.5v-1q-1 -1 -3 -2q0 -2 -1 -3 t-2 -1h-2q-3 -5 -13 -14t-24 -24q-15 -15 -28 -30l-27 -32l-1 -1q-4 -7 -6.5 -9.5t-5.5 -4.5q-2 -1 -5 -2t-7 -1z" />
<glyph unicode="&#x192;" horiz-adv-x="524" d="M172 412q22 131 58 241t86 197q51 89 100.5 133t96.5 44q3 0 7 -1t9 -2q4 -2 8 -5.5t7 -6.5q9 -7 16.5 -18.5t13.5 -26.5q2 -2 5.5 -6t8.5 -9q18 -22 28 -37t10 -22q0 -6 -2.5 -12t-10.5 -11q-7 -5 -12.5 -7.5t-12.5 -2.5q-10 0 -17.5 6.5t-16.5 18.5q-6 12 -15.5 17.5 t-17.5 5.5q-35 0 -67.5 -31.5t-64.5 -94.5q-32 -64 -60 -156t-52 -210h2h3q2 -2 4 -2h6h9h6q24 0 41.5 -2.5t23.5 -5.5q9 -4 13 -11.5t4 -18.5q0 -14 -5 -22t-15 -13t-36.5 -7t-70.5 -2q-22 -167 -57 -300.5t-85 -235.5q-48 -102 -99 -152.5t-105 -50.5q-10 0 -19 5.5 t-16 17.5q-8 12 -12 25t-4 27q0 10 3 17.5t8 13.5q5 5 12 8.5t15 3.5q5 -2 9 -2.5t8 -2.5l5 -6l7 -6q36 9 66 50.5t57 115.5q27 73 52 191t47 283l-12 2q-15 -2 -27.5 0.5t-20.5 7.5q-9 3 -14 10.5t-5 16.5q0 6 6 12t18 11q11 5 29.5 9t43.5 8v1z" />
<glyph unicode="&#x2ba;" horiz-adv-x="835" d="M397 783h67q4 -1 4.5 -2t2.5 -1t3 -1v-1l1 -1q1 0 1 -2t1 -2.5t1 -4.5q-2 -1 -3 -3.5t-2 -4.5l-5 -7q0 -3 -1 -4t-3 -4q-21 -32 -44 -63l-49 -64l-7 -5q-2 -5 -5 -8.5t-7 -4.5q-1 -2 -3 -3l-2 -1q-1 -1 -3 -1h-3l-30 1q0 -1 -1 -1t-1 1h-2h-1q-2 2 -2 3v1v2v3v3 q2 2 2.5 4.5t2.5 3.5l3 7l6 10q6 10 16 32l10 20l10 23q3 10 8 21l10 24l4 10q3 4 4.5 8t3.5 6q3 3 6.5 4t6.5 1v1zM558 783h68q2 -1 3 -2l1 -1q1 0 2 -1l1 -1q2 -1 2 -4v-6q0 -1 -1 -3.5t-3 -4.5l-3 -7q0 -3 -1 -4t-2 -4q-20 -32 -43.5 -63t-52.5 -64l-5 -3q-1 -4 -3 -6.5 t-2 -3.5q-1 -2 -3 -3.5t-3 -1.5q-2 -2 -3.5 -3t-3.5 -1q-2 -1 -3 -1h-4l-31 1v-1v1h-2l-1 1l-1 1v2h-1v2q0 1 1 3v3q2 3 3 4t1 3l5 8q3 5 9.5 17.5t15.5 32.5l17 38q9 20 16 42l3 10q4 4 7 8t5 6q3 3 5.5 4t6.5 1v1z" />
<glyph unicode="&#x2c6;" horiz-adv-x="835" d="M396 778h75q3 -1 7.5 -1t7.5 -4q3 -1 6 -5l9 -11l5 -2q3 -9 7 -15l10 -14q3 -8 7 -14.5t8 -15.5l14 -26q7 -12 9 -20l3 -4q2 -3 3 -5.5t2 -5.5v-4v-6v-3q0 -1 -1 -2q0 -2 -2.5 -3t-6.5 -2l-35 -17q0 -2 -1 -2h-2q-2 -1 -5 -2l-2 -1q-5 0 -10 5t-8 13q-2 0 -2 1v1l-1 7 q0 -2 -1 0.5t-3 4.5l-31 52q-15 24 -29 44l-36 -41q-17 -19 -32 -34q-14 -15 -24 -23t-13 -12h-2q0 -1 -0.5 -2t-2.5 -3q-2 0 -2.5 -0.5t-0.5 -2.5q-2 -3 -4.5 -5t-4.5 -2h-2q-1 0 -1 2h-2h-1q-2 0 -3 1t-4 2l-27 34q-1 0 -2 1.5t-3 3.5v3v3v3q0 2 2 4l1 1l1 1l2 2q1 1 3 1 l3 5q3 2 13 11t24 24q13 13 27 29l28 33l1 7q2 1 4.5 3t4.5 3q1 2 3 3t3 1h2h3z" />
<glyph unicode="&#x2c7;" horiz-adv-x="835" d="M449 595h-73q-7 -2 -11 -0.5t-8 3.5l-6 7q-4 3 -7 10l-3 6q-7 7 -13 16t-11 19q-3 5 -5.5 10t-5.5 10q-9 17 -14.5 28.5t-9.5 18.5l-3 7v-2q-2 0 -2 1v2q-1 4 -1 7v5v5q0 2 1 4q2 3 3.5 4t3.5 2l35 17v-2l2 2h1h4q1 0 3 2h2h3h4q1 0 3 -4q3 -1 5 -4l3 -9l2 -3 q1 -5 3.5 -10.5t6.5 -10.5q13 -26 27 -47t28 -38q18 22 36 41l32 33l25 25q9 10 12 12l2 3q0 -2 0.5 -2t2.5 2q3 3 6.5 5.5t8.5 2.5h3h2q2 -1 2.5 -2t2.5 -3l27 -28q1 -4 2 -4.5t3 -2.5v-1v-1q0 -1 1 -1v-1v-1q0 -2 -0.5 -4.5t-2.5 -5.5l-1 -1l-2 -2q0 -2 -1 -3t-3 -1h-1 q-4 -5 -14 -14t-23 -24q-15 -15 -28.5 -30t-26.5 -32l-2 -1q-3 -7 -5.5 -9.5t-5.5 -4.5q-2 -1 -6 -2t-8 -1z" />
<glyph unicode="&#x2c9;" horiz-adv-x="835" d="M314 703h242q3 -2 5.5 -2t2.5 -1q2 0 2 -2v-5v-3l-8 -47q0 -5 -1 -8.5t-4 -4.5q-2 -2 -5.5 -3.5t-8.5 -1.5l-248 1q0 -1 -1 0.5t-3 3.5v1v2q-1 2 -1 3v5l8 47q2 2 3.5 5t3.5 5q3 3 7 3h6v2z" />
<glyph unicode="&#x2d8;" horiz-adv-x="835" d="M548 768h47q3 -1 4.5 -1t1.5 -2q2 -2 2 -4v-6q0 -29 -12.5 -54t-39.5 -48q-27 -22 -57.5 -32.5t-69.5 -10.5q-27 0 -50 8t-42 25q-16 17 -24.5 38.5t-8.5 48.5v19q0 8 2 11q3 3 5.5 5t5.5 2l47 1q5 -1 9 -10.5t8 -29.5q3 -18 17 -27.5t40 -9.5q30 0 52.5 9.5t33.5 27.5 l21 30q6 9 8 9v1z" />
<glyph unicode="&#x2d9;" horiz-adv-x="835" d="M433 743q11 -2 19.5 -4.5t15.5 -10.5q5 -7 8 -15t3 -22q0 -16 -5.5 -32t-17.5 -29q-12 -14 -24.5 -21.5t-25.5 -7.5q-10 0 -18.5 4.5t-16.5 12.5q-7 8 -11 17.5t-4 20.5q0 15 6.5 30t18.5 29q13 13 25.5 19.5t26.5 6.5v2z" />
<glyph unicode="&#x2da;" horiz-adv-x="835" d="M433 785q-12 -2 -24 -7t-20 -13q-10 -8 -14 -19t-4 -25q0 -11 4 -23t14 -22t21 -14t23 -4q13 0 24 4t21 14q8 9 12 20.5t4 24.5q0 14 -4 25t-12 19q-9 8 -20.5 13t-24.5 5v2zM433 847q26 -2 48.5 -11t39.5 -28q18 -16 27.5 -39t9.5 -48q0 -26 -8.5 -49.5t-26.5 -41.5 q-17 -17 -39.5 -27t-50.5 -10q-27 0 -49 10t-40 27q-18 18 -27.5 41.5t-9.5 49.5q0 25 9.5 47t27.5 40q18 19 39 28t46 9z" />
<glyph unicode="&#x2db;" horiz-adv-x="835" d="M247 0h60l-37 -40q-16 -18 -25 -33q-3 -5 -5 -11l-5 -11q-3 -10 -4.5 -21t-1.5 -23q0 -10 2.5 -17.5t8.5 -13.5q7 -5 16.5 -7.5t20.5 -2.5h8q4 0 11 1q3 0 4.5 1t5.5 1q1 0 3 1t3 1h4h1h1h1h1h1v1h1l2 -1h1h1q1 -2 1 -3v-1v-15l-3 -28q0 -7 -1 -12t-2 -8q-2 -3 -3 -5 t-4 -3l-7 -2q-3 0 -6.5 -1t-6.5 -3q-5 0 -8.5 -0.5t-6.5 -0.5h-12h-15q-22 0 -41 6.5t-32 20.5q-14 11 -21.5 28.5t-7.5 39.5t6 42.5t18 39.5q11 20 29.5 40t43.5 40z" />
<glyph unicode="&#x2dc;" horiz-adv-x="835" d="M454 630l-52 26q-5 0 -10 1t-10 3q-5 1 -9 1h-7q-12 0 -22 -5t-18 -15q-7 -10 -12 -15t-8 -5l-37 2q-2 -2 -2.5 -2t-2.5 2h-1q-1 0 -1 2q0 20 8.5 37.5t25.5 33.5q16 19 35.5 26.5t40.5 7.5h9q5 0 10 -2q6 -2 11 -2.5t10 -4.5l49 -26q5 -4 10 -6.5t8 -3.5q5 -2 9 -2h8 q10 0 19 5t16 17q8 10 14 15.5t11 5.5l35 2q2 -2 3 -2h1q1 -1 2 -1h1v-1v-3v-1q0 -22 -7 -39.5t-22 -32.5t-31.5 -22.5t-36.5 -7.5h-10q-5 0 -10 2q-7 1 -12.5 3.5t-14.5 4.5v2z" />
<glyph unicode="&#x393;" />
<glyph unicode="&#x398;" />
<glyph unicode="&#x3a3;" horiz-adv-x="1097" d="M40 1201h1010v-136h-806l563 -607l-587 -643h845v-134h-1052v112l603 661l-576 620v127z" />
<glyph unicode="&#x3a6;" />
</font>
</defs>
</svg>
